<svg width="15" height="16" viewBox="0 0 15 16" fill="none" xmlns="http://www.w3.org/2000/svg">
<path d="M12.8086 2.32604C12.1178 1.58572 11.2951 0.99879 10.3886 0.599452C9.48204 0.200115 8.50971 -0.00364426 7.52825 4.93304e-05C3.41568 4.93304e-05 0.0640382 3.55804 0.0602712 7.92602C0.0602712 9.32502 0.404947 10.686 1.05569 11.891L0 16L3.95906 14.898C5.05431 15.5309 6.28132 15.8627 7.52825 15.863H7.53202C11.6455 15.863 14.9962 12.305 15 7.93302C15.0009 6.89107 14.8077 5.85922 14.4314 4.89691C14.0552 3.93461 13.5033 3.06087 12.8076 2.32604H12.8086ZM7.52825 14.521C6.41606 14.5214 5.3243 14.2036 4.36778 13.601L4.14176 13.457L1.79307 14.111L2.42027 11.678L2.27335 11.427C1.65163 10.3773 1.32281 9.16205 1.32502 7.92202C1.32502 4.29604 4.10974 1.33805 7.53202 1.33805C8.34732 1.33649 9.15484 1.50632 9.90804 1.83774C10.6612 2.16915 11.3452 2.6556 11.9205 3.26904C12.4978 3.88009 12.9555 4.60646 13.2671 5.40626C13.5788 6.20607 13.7382 7.06347 13.7362 7.92902C13.7324 11.568 10.9477 14.521 7.52825 14.521ZM10.9326 9.58702C10.7471 9.48802 9.8308 9.00902 9.65846 8.94102C9.48706 8.87602 9.36181 8.84202 9.23939 9.04002C9.11414 9.23702 8.75628 9.68602 8.64892 9.81502C8.54156 9.94802 8.43043 9.96302 8.24397 9.86502C8.05845 9.76502 7.45668 9.55702 6.74472 8.88002C6.1891 8.35502 5.81711 7.70503 5.70599 7.50803C5.59863 7.31003 5.69563 7.20403 5.78886 7.10503C5.87079 7.01703 5.97438 6.87303 6.06762 6.75903C6.16179 6.64503 6.19287 6.56103 6.25408 6.42903C6.31529 6.29503 6.2861 6.18103 6.23995 6.08203C6.19287 5.98303 5.82088 5.00603 5.66361 4.61203C5.51293 4.22304 5.35943 4.27704 5.24454 4.27204C5.13718 4.26504 5.01193 4.26504 4.88668 4.26504C4.79209 4.26753 4.69901 4.29076 4.61328 4.33327C4.52755 4.37577 4.45102 4.43663 4.3885 4.51204C4.2171 4.71003 3.73776 5.18903 3.73776 6.16603C3.73776 7.14303 4.40639 8.08202 4.50056 8.21502C4.59285 8.34802 5.81335 10.347 7.68646 11.207C8.12908 11.412 8.47752 11.533 8.74968 11.625C9.19701 11.777 9.60101 11.754 9.92309 11.705C10.2809 11.647 11.0259 11.225 11.1831 10.762C11.3376 10.298 11.3376 9.90202 11.2905 9.81902C11.2443 9.73502 11.1191 9.68602 10.9326 9.58702Z" fill="black"/>
</svg>
