<svg width="130" height="130" viewBox="0 0 130 130" fill="none" xmlns="http://www.w3.org/2000/svg">
<path d="M64.9994 6.46902e-05C48.9734 -0.022578 33.5085 5.89949 21.5967 16.6206C19.8434 18.172 18.1858 19.8282 16.6329 21.5801C-6.39085 47.2837 -5.31653 86.4985 19.0799 110.903C43.4764 135.307 82.6908 136.395 108.402 113.38C110.155 111.828 111.813 110.172 113.366 108.42C130.502 89.33 134.808 61.9466 124.357 38.5189C113.905 15.0911 90.6525 0.0016365 64.9994 6.46902e-05ZM110.133 105.532C108.69 107.163 107.149 108.704 105.518 110.147C81.5216 131.631 44.9194 130.617 22.1481 107.839C-0.623244 85.0608 -1.62537 48.4583 19.8655 24.4682C21.3087 22.8376 22.8499 21.2964 24.4805 19.8532C48.4771 -1.63037 85.0793 -0.617138 107.851 22.1611C130.622 44.9394 131.624 81.5418 110.133 105.532Z" fill="#FFAC22"/>
<path d="M65.0001 10.833C52.5889 10.8423 40.5574 15.1133 30.9184 22.9317C30.4423 23.3183 30.1524 23.8887 30.1206 24.5012C30.0888 25.1137 30.3181 25.711 30.7515 26.1448L103.855 99.2482C104.261 99.6545 104.812 99.8829 105.387 99.883H105.497C106.109 99.8511 106.679 99.5614 107.066 99.0857C120.228 82.8696 122.887 60.5289 113.901 41.6759C104.915 22.8229 85.8852 10.8206 65.0001 10.833ZM92.9631 82.229L55.7506 45.0165C56.3366 44.0487 56.9881 43.1221 57.7006 42.2432C59.1577 40.5156 60.7277 38.8863 62.4 37.366L68.7917 31.0827L68.9239 36.2177C68.9477 36.8677 68.9954 37.5372 69.0647 38.1677C69.5145 42.5587 71.6316 46.6099 74.9797 49.4863L76.4596 50.8362C80.2698 54.0147 83.6883 57.6354 86.6429 61.6218C89.3706 65.4719 91.3756 69.7859 92.5601 74.3532C93.1727 76.932 93.3092 79.6011 92.9631 82.229ZM105.179 94.4447L96.6529 85.9188C97.7169 81.7896 97.7556 77.4629 96.7656 73.3153C95.4573 68.2345 93.2349 63.4344 90.2071 59.1497C87.0726 54.8845 83.4352 51.0129 79.3737 47.6187L77.8982 46.2732C75.3479 44.0999 73.728 41.0315 73.3721 37.6997C73.3114 37.1667 73.2724 36.6163 73.2551 36.0898L72.995 25.9499C72.9735 25.084 72.4384 24.3142 71.6343 23.9924C70.8303 23.6705 69.9118 23.8583 69.2987 24.47L62.166 31.5788L59.4144 34.233C57.6025 35.8828 55.903 37.6519 54.327 39.5283C53.677 40.3148 53.1159 41.097 52.5937 41.8748L35.555 24.821C55.3796 10.2701 82.8566 12.3655 100.245 29.7543C117.634 47.1431 119.73 74.6202 105.179 94.4447Z" fill="#FFAC22"/>
<path d="M90.0475 94.6576L26.1438 30.7518C25.7103 30.3188 25.1137 30.0896 24.5017 30.121C23.8898 30.1524 23.3198 30.4414 22.9328 30.9165C5.45706 52.4476 7.07699 83.7029 26.685 103.312C46.293 122.921 77.5482 124.543 99.0803 107.068C99.5564 106.682 99.8463 106.111 99.8781 105.499C99.9099 104.886 99.6806 104.289 99.2472 103.855L90.0475 94.6576ZM57.8617 68.597L85.3003 96.0357C79.7998 100.019 73.1299 102.059 66.342 101.834C63.014 101.839 59.6983 101.431 56.4707 100.62C50.814 99.3474 45.6668 96.4132 41.6897 92.1941C36.945 86.1582 35.5095 78.1594 37.859 70.8503L38.912 67.0565L41.5705 69.9685C43.1887 71.7633 45.3143 73.0237 47.6653 73.5825C48.3463 73.7221 49.0393 73.7947 49.7345 73.7991C52.1194 73.8179 54.4178 72.9062 56.1413 71.2576C56.8935 70.5 57.4794 69.5938 57.8617 68.597ZM64.9987 114.834C46.221 114.843 29.0338 104.292 20.5451 87.5424C12.0564 70.793 13.7092 50.6931 24.82 35.5553L53.914 64.6515C53.9335 64.7251 53.9573 64.7923 53.9725 64.8681C54.2811 66.0522 53.9427 67.3112 53.082 68.181C51.8494 69.2763 50.1622 69.706 48.5558 69.3336C47.0861 68.9613 45.7626 68.1549 44.7577 67.0196L39.4732 61.2346C38.9417 60.655 38.1378 60.4088 37.3728 60.5915C36.6079 60.7742 36.002 61.357 35.7898 62.1143L33.6881 69.6695C30.9488 78.3893 32.7276 87.9006 38.4332 95.0412C42.9882 99.9215 48.9011 103.325 55.409 104.813C58.9836 105.713 62.6558 106.168 66.342 106.167C74.2768 106.41 82.0538 103.917 88.3683 99.1058L94.435 105.172C85.8978 111.437 75.5878 114.821 64.9987 114.834Z" fill="#FFAC22"/>
<path d="M48.2074 86.4825C46.4951 84.3302 45.5524 81.6667 45.5294 78.9164C45.463 77.727 44.4581 76.8087 43.2674 76.8494C42.6934 76.8753 42.1531 77.1281 41.7655 77.5523C41.3778 77.9766 41.1746 78.5374 41.2004 79.1114C41.2657 82.8439 42.5861 86.4457 44.9488 89.336C48.3491 92.8911 52.7291 95.3556 57.5328 96.4166C58.2853 96.6122 59.0849 96.3895 59.6281 95.8331C60.1712 95.2767 60.3746 94.472 60.161 93.7244C59.9474 92.9767 59.3495 92.4009 58.5944 92.2155C54.6449 91.3641 51.0328 89.3705 48.2074 86.4825Z" fill="#FFAC22"/>
</svg>
