<svg width="130" height="130" viewBox="0 0 130 130" fill="none" xmlns="http://www.w3.org/2000/svg">
<g clip-path="url(#clip0)">
<path d="M121.333 25.9998C116.554 25.9998 112.667 29.8869 112.667 34.6664C112.667 36.2698 113.133 37.7516 113.895 39.041L91.0411 61.8951C89.7521 61.1323 88.27 60.6667 86.6666 60.6667C85.0698 60.6667 83.59 61.1303 82.3029 61.8887L72.4445 52.0303C73.2029 50.7433 73.6666 49.2635 73.6666 47.6667C73.6666 42.8869 69.7795 39.0001 65 39.0001C60.2202 39.0001 56.3334 42.8871 56.3334 47.6667C56.3334 48.6894 56.5437 49.6558 56.8707 50.5658L14.3 93.1362C12.7811 91.8233 10.8268 90.9998 8.66658 90.9998V15.1664C8.66658 11.5828 11.5829 8.66643 15.1666 8.66643H114.833C118.417 8.66643 121.333 11.5828 121.333 15.1664V19.4998C121.333 20.6957 122.304 21.6664 123.5 21.6664C124.696 21.6664 125.666 20.6957 125.666 19.4998V15.1664C125.666 9.19303 120.807 4.33301 114.833 4.33301H15.1666C9.19318 4.33301 4.33316 9.19277 4.33316 15.1664V92.2067C1.755 93.7103 0 96.4728 0 99.6664C0 104.446 3.88705 108.333 8.66658 108.333C13.4464 108.333 17.3332 104.446 17.3332 99.6664C17.3332 98.6437 17.1229 97.6773 16.7959 96.7673L59.3666 54.1966C60.8854 55.5096 62.8398 56.333 65 56.333C66.6077 56.333 68.0941 55.8651 69.3852 55.1003L79.2327 64.9478C78.4679 66.2392 78 67.7255 78 69.333C78 74.1128 81.8871 77.9996 86.6666 77.9996C91.4464 77.9996 95.3332 74.1125 95.3332 69.333C95.3332 67.7296 94.8672 66.2478 94.1048 64.9585L116.959 42.1044C118.248 42.8671 119.73 43.3328 121.333 43.3328V114.833C121.333 118.416 118.417 121.333 114.833 121.333H108.333V62.8328C108.333 61.6369 107.363 60.6662 106.167 60.6662C104.971 60.6662 104 61.6369 104 62.8328V121.333H91.0003V84.4998C91.0003 83.3039 90.0296 82.3333 88.8337 82.3333C87.6378 82.3333 86.6671 83.3039 86.6671 84.4998V121.333H73.6671V67.1664C73.6671 65.9705 72.6964 64.9998 71.5005 64.9998C70.3046 64.9998 69.3339 65.9705 69.3339 67.1664V121.333H56.3339V67.1664C56.3339 65.9705 55.3632 64.9998 54.1673 64.9998C52.9714 64.9998 52.0008 65.9705 52.0008 67.1664V121.333H39.0008V84.4998C39.0008 83.3039 38.0301 82.3333 36.8342 82.3333C35.6383 82.3333 34.6676 83.3039 34.6676 84.4998V121.333H21.6676V112.667C21.6676 111.471 20.6969 110.5 19.501 110.5C18.3051 110.5 17.3344 111.471 17.3344 112.667V121.333H15.1679C11.5842 121.333 8.66785 118.417 8.66785 114.833C8.66785 113.637 7.69717 112.667 6.50127 112.667C5.30537 112.667 4.33469 113.637 4.33469 114.833C4.33469 120.807 9.19445 125.667 15.1681 125.667H114.835C120.808 125.667 125.668 120.807 125.668 114.833V42.1264C128.247 40.6228 130.002 37.8603 130.002 34.6667C130 29.8869 126.113 25.9998 121.333 25.9998ZM8.66658 104C6.27682 104 4.33316 102.056 4.33316 99.6664C4.33316 97.2767 6.27656 95.333 8.66658 95.333C11.0563 95.333 13 97.2764 13 99.6664C13 102.056 11.0566 104 8.66658 104ZM65 51.9998C62.6102 51.9998 60.6666 50.0564 60.6666 47.6664C60.6666 45.2767 62.61 43.333 65 43.333C67.3898 43.333 69.3334 45.2764 69.3334 47.6664C69.3334 50.0564 67.3898 51.9998 65 51.9998ZM86.6666 73.6664C84.2768 73.6664 82.3332 71.723 82.3332 69.333C82.3332 66.9432 84.2766 64.9996 86.6666 64.9996C89.0564 64.9996 91 66.943 91 69.333C91 71.723 89.0566 73.6664 86.6666 73.6664ZM121.333 38.9998C120.153 38.9998 119.08 38.521 118.298 37.7519C118.289 37.7433 118.287 37.7303 118.278 37.7214C118.27 37.7128 118.257 37.7105 118.248 37.7019C117.479 36.9196 117 35.8471 117 34.6664C117 32.2767 118.943 30.333 121.333 30.333C123.723 30.333 125.667 32.2764 125.667 34.6664C125.667 37.0564 123.723 38.9998 121.333 38.9998Z" fill="#FFAC22"/>
</g>
<defs>
<clipPath id="clip0">
<rect width="130" height="130" fill="white"/>
</clipPath>
</defs>
</svg>
