<svg width="130" height="130" viewBox="0 0 130 130" fill="none" xmlns="http://www.w3.org/2000/svg">
<path d="M119.167 0H10.8334C5.265 0 0 5.265 0 10.8334V28.1668C0 29.3627 0.970684 30.3334 2.16658 30.3334C3.36248 30.3334 4.33316 29.3627 4.33316 28.1668V10.8334C4.33316 7.67432 7.67406 4.33342 10.8332 4.33342H119.167C122.326 4.33342 125.667 7.67432 125.667 10.8334V82.3334C125.667 83.5293 126.637 84.5 127.833 84.5C129.029 84.5 130 83.5293 130 82.3334V10.8334C130 5.265 124.735 0 119.167 0Z" fill="#FFAC22"/>
<path d="M108.334 19.5C108.334 15.9164 105.417 13 101.834 13C98.2501 13 95.3337 15.9164 95.3337 19.5C95.3337 23.0836 98.2501 26 101.834 26C105.417 26 108.334 23.0836 108.334 19.5ZM99.6669 19.5C99.6669 18.3061 100.64 17.3334 101.833 17.3334C103.027 17.3334 104 18.3061 104 19.5C104 20.6939 103.027 21.6666 101.833 21.6666C100.64 21.6666 99.6669 20.6939 99.6669 19.5Z" fill="#FFAC22"/>
<path d="M90.9998 19.5C90.9998 15.9164 88.0834 13 84.4998 13C80.9161 13 77.9998 15.9164 77.9998 19.5C77.9998 23.0836 80.9161 26 84.4998 26C88.0834 26 90.9998 23.0836 90.9998 19.5ZM82.3332 19.5C82.3332 18.3061 83.3059 17.3334 84.4998 17.3334C85.6936 17.3334 86.6663 18.3061 86.6663 19.5C86.6663 20.6939 85.6936 21.6666 84.4998 21.6666C83.3059 21.6666 82.3332 20.6939 82.3332 19.5Z" fill="#FFAC22"/>
<path d="M62.8331 21.6662C64.029 21.6662 64.9997 20.6955 64.9997 19.4996C64.9997 18.3037 64.029 17.333 62.8331 17.333H23.8331C22.6372 17.333 21.6665 18.3037 21.6665 19.4996C21.6665 20.6955 22.6372 21.6662 23.8331 21.6662H62.8331Z" fill="#FFAC22"/>
<path d="M2.16658 65.0002C3.36248 65.0002 4.33316 64.0295 4.33316 62.8336V39.0002H119.167C120.362 39.0002 121.333 38.0295 121.333 36.8336C121.333 35.6377 120.362 34.667 119.167 34.667H2.16658C0.970684 34.667 0 35.6377 0 36.8336V62.8336C0 64.0295 0.970684 65.0002 2.16658 65.0002Z" fill="#FFAC22"/>
<path d="M71.5 104H10.8334C7.67432 104 4.33342 100.659 4.33342 97.5001V73.6667H84.5C85.6959 73.6667 86.6666 72.696 86.6666 71.5001C86.6666 70.3042 85.6959 69.3335 84.5 69.3335H2.16658C0.970684 69.3335 0 70.3042 0 71.5001V97.5001C0 103.069 5.265 108.333 10.8334 108.333H71.5C72.6959 108.333 73.6666 107.363 73.6666 106.167C73.6666 104.971 72.6959 104 71.5 104Z" fill="#FFAC22"/>
<path d="M23.8331 52C22.6372 52 21.6665 52.9707 21.6665 54.1666C21.6665 55.3625 22.6372 56.3332 23.8331 56.3332H62.8331C64.029 56.3332 64.9997 55.3625 64.9997 54.1666C64.9997 52.9707 64.029 52 62.8331 52H23.8331Z" fill="#FFAC22"/>
<path d="M119.167 86.6666H117V78C117 70.8305 111.17 65 104 65C96.8304 65 91 70.8305 91 78V86.6666H88.8334C82.86 86.6666 78 91.5263 78 97.5V119.167C78 125.14 82.8598 130 88.8334 130H119.167C125.14 130 130 125.14 130 119.167V97.5C130 91.5266 125.14 86.6666 119.167 86.6666ZM95.3334 78C95.3334 73.2202 99.2205 69.3334 104 69.3334C108.78 69.3334 112.667 73.2205 112.667 78V86.6666H95.3332V78H95.3334ZM125.667 119.167C125.667 122.75 122.75 125.667 119.167 125.667H88.8334C85.2498 125.667 82.3334 122.75 82.3334 119.167V97.5C82.3334 93.9164 85.2498 91 88.8334 91H119.167C122.75 91 125.667 93.9164 125.667 97.5V119.167H125.667Z" fill="#FFAC22"/>
<path d="M77.9998 54.167C77.9998 57.7506 80.9161 60.667 84.4998 60.667C88.0834 60.667 90.9998 57.7506 90.9998 54.167C90.9998 50.5834 88.0834 47.667 84.4998 47.667C80.9161 47.667 77.9998 50.5834 77.9998 54.167ZM86.6663 54.167C86.6663 55.3609 85.6936 56.3336 84.4998 56.3336C83.3059 56.3336 82.3332 55.3609 82.3332 54.167C82.3332 52.9731 83.3059 52.0004 84.4998 52.0004C85.6936 52.0004 86.6663 52.9731 86.6663 54.167Z" fill="#FFAC22"/>
<path d="M23.8331 86.6665C22.6372 86.6665 21.6665 87.6372 21.6665 88.8331C21.6665 90.029 22.6372 90.9996 23.8331 90.9996H62.8331C64.029 90.9996 64.9997 90.029 64.9997 88.8331C64.9997 87.6372 64.029 86.6665 62.8331 86.6665H23.8331Z" fill="#FFAC22"/>
<path d="M95.3337 54.167C95.3337 57.7506 98.2501 60.667 101.834 60.667C105.417 60.667 108.334 57.7506 108.334 54.167C108.334 50.5834 105.417 47.667 101.834 47.667C98.2501 47.667 95.3337 50.5834 95.3337 54.167ZM104 54.167C104 55.3609 103.028 56.3336 101.834 56.3336C100.64 56.3336 99.6671 55.3609 99.6671 54.167C99.6671 52.9731 100.64 52.0004 101.834 52.0004C103.028 52.0004 104 52.9731 104 54.167Z" fill="#FFAC22"/>
<path d="M103.999 101.833C101.61 101.833 99.666 103.777 99.666 106.167C99.666 107.764 100.544 109.146 101.833 109.898V114.834C101.833 116.029 102.803 117 103.999 117C105.195 117 106.166 116.029 106.166 114.834V109.898C107.455 109.146 108.332 107.764 108.332 106.167C108.333 103.777 106.389 101.833 103.999 101.833Z" fill="#FFAC22"/>
</svg>
