<svg width="496" height="82" viewBox="0 0 496 82" fill="none" xmlns="http://www.w3.org/2000/svg">
<path fill-rule="evenodd" clip-rule="evenodd" d="M24.2269 0.959473H71.3062L94.5447 41.3491L71.3062 81.9039L24.2269 81.3949L0.544678 41.7676L24.2269 0.959473ZM55.1691 56.9941C57.8847 56.5763 60.1128 56.0541 61.8536 55.4274V37.8285H48.5369V43.1552H54.0724V51.0408C52.1228 51.563 50.295 51.8241 48.5891 51.8241C45.5254 51.8241 43.158 51.4934 41.4869 50.8319C39.8506 50.1704 39.0324 48.9693 39.0324 47.2285V33.5985C39.0324 30.1867 41.9743 28.4808 47.858 28.4808C52.9061 28.4808 57.5017 28.9682 61.6447 29.943V23.7808C57.258 23.0497 52.6624 22.6841 47.858 22.6841C46.2565 22.6841 44.7247 22.7711 43.2624 22.9452C41.835 23.0845 40.338 23.4152 38.7713 23.9374C37.2047 24.4248 35.8643 25.0515 34.7502 25.8174C33.6361 26.5834 32.7136 27.6452 31.9824 29.003C31.2513 30.3608 30.8858 31.9274 30.8858 33.703V47.803C30.8858 49.4045 31.1991 50.7971 31.8258 51.9808C32.4524 53.1645 33.2706 54.1045 34.2802 54.8008C35.3247 55.4971 36.5954 56.0715 38.0924 56.5241C39.6243 56.9419 41.1387 57.2204 42.6358 57.3596C44.1676 57.5337 45.8736 57.6208 47.7536 57.6208C50.0165 57.6208 52.4884 57.4119 55.1691 56.9941Z" fill="url(#paint0_radial)"/>
<path d="M145.463 60.9316L165.545 41.4316L145.463 21.9316L140.841 26.4004L152.974 38.1623H124.545V44.701H152.974L140.841 56.4822L145.463 60.9316Z" fill="#BDBDBD"/>
<g opacity="0.75">
<path d="M232.299 64.0666H195.545V52.145C195.545 49.1378 196.378 46.587 198.043 44.4926C199.763 42.3446 201.805 40.7604 204.169 39.7401C206.587 38.6661 208.978 37.7263 211.343 36.9208C213.761 36.1153 215.803 35.2024 217.468 34.182C219.188 33.1617 220.048 31.8998 220.048 30.3961V23.7104C220.048 22.0993 219.376 20.9985 218.033 20.4078C216.689 19.817 214.432 19.5217 211.262 19.5217C207.662 19.5217 202.772 20.193 196.593 21.5355V12.6748C202.02 11.5471 207.635 10.9832 213.438 10.9832C219.618 10.9832 224.293 11.923 227.463 13.8025C230.633 15.6821 232.219 18.931 232.219 23.5493V30.7989C232.219 33.645 231.359 36.0616 229.639 38.0485C227.92 40.0354 225.824 41.5391 223.352 42.5594C220.934 43.526 218.489 44.4389 216.018 45.2981C213.546 46.1037 211.45 47.0971 209.731 48.2785C208.011 49.46 207.151 50.9099 207.151 52.6283V55.2865H232.299V64.0666Z" fill="url(#paint1_radial)"/>
<path d="M283.81 46.7481V49.1646C283.81 54.1588 282.252 57.8373 279.135 60.2001C276.019 62.563 271.693 64.0129 266.158 64.5499V75.3438H258.582V64.8721C254.283 64.8184 248.533 64.3351 241.333 63.4222V54.1588C242.246 54.3199 243.67 54.5616 245.605 54.8838C247.593 55.206 249.071 55.4476 250.038 55.6087C251.059 55.7161 252.349 55.8504 253.907 56.0115C255.519 56.1726 257.077 56.2531 258.582 56.2531V42.8816H257.05C245.873 42.8816 240.285 38.317 240.285 29.1879V26.4491C240.285 22.3678 241.709 19.2532 244.557 17.1051C247.459 14.9571 252.134 13.6951 258.582 13.3192V7.51953H266.158V13.1581C271.424 13.3729 276.449 13.722 281.231 14.2053V22.8243C274.568 22.0188 269.544 21.5623 266.158 21.4549V33.3765H267.206C273.278 33.3765 277.55 34.5043 280.022 36.7597C282.547 39.0151 283.81 42.3446 283.81 46.7481ZM258.582 33.3765V21.5355C256.217 21.6966 254.578 22.0456 253.665 22.5826C252.805 23.1197 252.375 24.0326 252.375 25.3214V29.8323C252.375 32.0877 254.444 33.2691 258.582 33.3765ZM271.639 51.7422V47.2314C271.639 45.9963 271.263 45.0028 270.511 44.251C269.812 43.4992 268.361 43.0427 266.158 42.8816V55.8504C269.812 55.3134 271.639 53.944 271.639 51.7422Z" fill="url(#paint2_radial)"/>
<path d="M320.439 10.9832L294.324 64.8721H287.312L313.427 10.9832H320.439Z" fill="url(#paint3_radial)"/>
<path d="M364.018 64.0666H352.25V36.8402C352.25 34.6922 351.874 33.2691 351.122 32.571C350.423 31.8729 348.704 31.5238 345.963 31.5238C342.578 31.5238 340.428 31.8729 339.515 32.571C338.601 33.2154 338.145 34.6385 338.145 36.8402V64.0666H326.377V7.68063H338.145V29.8323C338.897 26.1269 343.008 24.2742 350.477 24.2742C355.635 24.2742 359.182 25.214 361.116 27.0935C363.051 28.9194 364.018 31.7118 364.018 35.4709V64.0666Z" fill="url(#paint4_radial)"/>
<path d="M412.841 39.1762V50.6951C412.841 53.219 412.438 55.3939 411.632 57.2197C410.826 58.9919 409.832 60.3881 408.649 61.4084C407.467 62.375 405.909 63.1269 403.974 63.6639C402.094 64.2009 400.347 64.5231 398.735 64.6305C397.177 64.7916 395.269 64.8721 393.013 64.8721C390.756 64.8721 388.821 64.7916 387.209 64.6305C385.651 64.5231 383.905 64.2009 381.97 63.6639C380.089 63.1269 378.558 62.375 377.376 61.4084C376.194 60.3881 375.2 58.9919 374.394 57.2197C373.588 55.3939 373.185 53.219 373.185 50.6951V39.1762C373.185 36.4912 373.588 34.2089 374.394 32.3294C375.253 30.3961 376.274 28.9194 377.456 27.899C378.692 26.8787 380.277 26.1001 382.212 25.563C384.146 24.9723 385.866 24.6233 387.37 24.5159C388.929 24.3548 390.809 24.2742 393.013 24.2742C395.216 24.2742 397.07 24.3548 398.574 24.5159C400.132 24.6233 401.879 24.9723 403.813 25.563C405.748 26.1001 407.306 26.8787 408.488 27.899C409.724 28.9194 410.745 30.3961 411.551 32.3294C412.411 34.2089 412.841 36.4912 412.841 39.1762ZM401.073 52.0645V37.3236C401.073 35.2292 400.535 33.7524 399.461 32.8932C398.386 31.9803 396.237 31.5238 393.013 31.5238C389.789 31.5238 387.639 31.9803 386.564 32.8932C385.49 33.7524 384.952 35.2292 384.952 37.3236V52.0645C384.952 54.1051 385.463 55.5282 386.484 56.3337C387.559 57.1392 389.735 57.542 393.013 57.542C396.29 57.542 398.44 57.1392 399.461 56.3337C400.535 55.5282 401.073 54.1051 401.073 52.0645Z" fill="url(#paint5_radial)"/>
<path d="M459.654 64.0666H448.047V59.3141C447.134 63.0194 442.969 64.8721 435.554 64.8721C430.396 64.8721 426.849 63.9592 424.915 62.1334C422.98 60.2538 422.013 57.4345 422.013 53.6755V25.0797H433.781V52.0645C433.781 54.2125 434.13 55.6624 434.829 56.4142C435.581 57.166 437.327 57.542 440.068 57.542C443.453 57.542 445.602 57.1929 446.516 56.4948C447.429 55.743 447.886 54.2662 447.886 52.0645V25.0797H459.654V64.0666Z" fill="url(#paint6_radial)"/>
<path d="M495.5 34.0209H491.47C488.246 34.0209 485.801 34.5311 484.135 35.5514C482.523 36.518 481.717 38.2096 481.717 40.6262V64.0666H469.949V25.0797H481.153V31.9266C481.207 29.9934 482.308 28.2481 484.457 26.6908C486.661 25.0797 488.944 24.2742 491.309 24.2742H495.5V34.0209Z" fill="url(#paint7_radial)"/>
</g>
<defs>
<radialGradient id="paint0_radial" cx="0" cy="0" r="1" gradientUnits="userSpaceOnUse" gradientTransform="translate(-19.4922 18.8426) rotate(30.0537) scale(247.138 3517.63)">
<stop stop-color="#FFAC22"/>
<stop offset="0.270833" stop-color="#FFCA73"/>
<stop offset="0.5" stop-color="#FFAC22"/>
<stop offset="0.760417" stop-color="#FFD083"/>
<stop offset="1" stop-color="#FFAC22"/>
</radialGradient>
<radialGradient id="paint1_radial" cx="0" cy="0" r="1" gradientUnits="userSpaceOnUse" gradientTransform="translate(131.607 22.504) rotate(6.65246) scale(384.638 1698.09)">
<stop stop-color="#FFAC22"/>
<stop offset="0.270833" stop-color="#FFCA73"/>
<stop offset="0.5" stop-color="#FFAC22"/>
<stop offset="0.760417" stop-color="#FFD083"/>
<stop offset="1" stop-color="#FFAC22"/>
</radialGradient>
<radialGradient id="paint2_radial" cx="0" cy="0" r="1" gradientUnits="userSpaceOnUse" gradientTransform="translate(131.607 22.504) rotate(6.65246) scale(384.638 1698.09)">
<stop stop-color="#FFAC22"/>
<stop offset="0.270833" stop-color="#FFCA73"/>
<stop offset="0.5" stop-color="#FFAC22"/>
<stop offset="0.760417" stop-color="#FFD083"/>
<stop offset="1" stop-color="#FFAC22"/>
</radialGradient>
<radialGradient id="paint3_radial" cx="0" cy="0" r="1" gradientUnits="userSpaceOnUse" gradientTransform="translate(131.607 22.504) rotate(6.65246) scale(384.638 1698.09)">
<stop stop-color="#FFAC22"/>
<stop offset="0.270833" stop-color="#FFCA73"/>
<stop offset="0.5" stop-color="#FFAC22"/>
<stop offset="0.760417" stop-color="#FFD083"/>
<stop offset="1" stop-color="#FFAC22"/>
</radialGradient>
<radialGradient id="paint4_radial" cx="0" cy="0" r="1" gradientUnits="userSpaceOnUse" gradientTransform="translate(131.607 22.504) rotate(6.65246) scale(384.638 1698.09)">
<stop stop-color="#FFAC22"/>
<stop offset="0.270833" stop-color="#FFCA73"/>
<stop offset="0.5" stop-color="#FFAC22"/>
<stop offset="0.760417" stop-color="#FFD083"/>
<stop offset="1" stop-color="#FFAC22"/>
</radialGradient>
<radialGradient id="paint5_radial" cx="0" cy="0" r="1" gradientUnits="userSpaceOnUse" gradientTransform="translate(131.607 22.504) rotate(6.65246) scale(384.638 1698.09)">
<stop stop-color="#FFAC22"/>
<stop offset="0.270833" stop-color="#FFCA73"/>
<stop offset="0.5" stop-color="#FFAC22"/>
<stop offset="0.760417" stop-color="#FFD083"/>
<stop offset="1" stop-color="#FFAC22"/>
</radialGradient>
<radialGradient id="paint6_radial" cx="0" cy="0" r="1" gradientUnits="userSpaceOnUse" gradientTransform="translate(131.607 22.504) rotate(6.65246) scale(384.638 1698.09)">
<stop stop-color="#FFAC22"/>
<stop offset="0.270833" stop-color="#FFCA73"/>
<stop offset="0.5" stop-color="#FFAC22"/>
<stop offset="0.760417" stop-color="#FFD083"/>
<stop offset="1" stop-color="#FFAC22"/>
</radialGradient>
<radialGradient id="paint7_radial" cx="0" cy="0" r="1" gradientUnits="userSpaceOnUse" gradientTransform="translate(131.607 22.504) rotate(6.65246) scale(384.638 1698.09)">
<stop stop-color="#FFAC22"/>
<stop offset="0.270833" stop-color="#FFCA73"/>
<stop offset="0.5" stop-color="#FFAC22"/>
<stop offset="0.760417" stop-color="#FFD083"/>
<stop offset="1" stop-color="#FFAC22"/>
</radialGradient>
</defs>
</svg>
