<svg width="130" height="130" viewBox="0 0 130 130" fill="none" xmlns="http://www.w3.org/2000/svg">
<g clip-path="url(#clip0)">
<path d="M28.1671 108.333H10.8339C9.63576 108.333 8.66736 109.304 8.66736 110.5C8.66736 111.696 9.63576 112.667 10.8339 112.667H28.1674C29.3655 112.667 30.3339 111.696 30.3339 110.5C30.3339 109.304 29.3653 108.333 28.1671 108.333Z" fill="#FFAC22"/>
<path d="M28.1671 117H10.8339C9.63576 117 8.66736 117.971 8.66736 119.167C8.66736 120.362 9.63576 121.333 10.8339 121.333H28.1674C29.3655 121.333 30.3339 120.362 30.3339 119.167C30.3339 117.971 29.3653 117 28.1671 117Z" fill="#FFAC22"/>
<path d="M41.1662 56.3334H84.4996C95.2528 56.3334 104 47.5843 104 36.8334C104 26.0825 95.2528 17.3334 84.4996 17.3334C79.9801 17.3334 75.5751 18.915 72.0912 21.7882C71.1703 22.5487 71.0383 23.9159 71.801 24.8366C72.5615 25.7596 73.9244 25.8939 74.8517 25.1314C77.5578 22.8975 80.9856 21.6668 84.4999 21.6668C92.861 21.6668 99.6665 28.4703 99.6665 36.8334C99.6665 45.1968 92.861 52 84.4999 52H41.1662C35.1928 52 30.3328 47.1402 30.3328 41.1666C30.3328 36.4282 33.5005 32.1661 38.0353 30.7968C39.1273 30.4675 39.7751 29.3472 39.5194 28.2336C39.1748 26.7429 38.9994 25.2632 38.9994 23.8332C38.9994 13.0823 47.7462 4.33316 58.4994 4.33316C65.1185 4.33316 71.2307 7.64816 74.8492 13.2013C75.5014 14.2066 76.8489 14.4861 77.8478 13.8341C78.851 13.1798 79.1326 11.8363 78.4805 10.8355C74.0585 4.05158 66.5878 0 58.4996 0C45.3587 0 34.6662 10.6925 34.6662 23.8334C34.6662 24.9839 34.7571 26.1562 34.9371 27.3348C29.5206 29.755 25.9996 35.0937 25.9996 41.1668C25.9996 49.53 32.8051 56.3334 41.1662 56.3334Z" fill="#FFAC22"/>
<path d="M19.5004 82.3336C20.6986 82.3336 21.667 81.3629 21.667 80.167V73.667H58.9011C59.5534 75.5022 60.9963 76.9472 62.8336 77.5995V80.167C62.8336 81.3629 63.802 82.3336 65.0002 82.3336C66.1984 82.3336 67.1668 81.3629 67.1668 80.167V77.6015C69.004 76.9472 70.447 75.502 71.0993 73.6667H108.336V80.1667C108.336 81.3626 109.304 82.3333 110.502 82.3333C111.7 82.3333 112.669 81.3626 112.669 80.1667V71.5002C112.669 70.3043 111.7 69.3336 110.502 69.3336H71.0995C70.4472 67.4983 69.0043 66.0534 67.167 65.3988V62.8336C67.167 61.6377 66.1986 60.667 65.0005 60.667C63.8023 60.667 62.8339 61.6377 62.8339 62.8336V65.3988C60.9966 66.0531 59.5537 67.4983 58.9014 69.3336H19.5004C18.3023 69.3336 17.3339 70.3043 17.3339 71.5002V80.1667C17.3339 81.3629 18.3023 82.3336 19.5004 82.3336ZM65.0005 69.3336C66.1964 69.3336 67.167 70.3063 67.167 71.5002C67.167 72.694 66.1964 73.6667 65.0005 73.6667C63.8046 73.6667 62.8339 72.694 62.8339 71.5002C62.8339 70.3063 63.8046 69.3336 65.0005 69.3336Z" fill="#FFAC22"/>
<path d="M10.8339 104H19.5005C20.6987 104 21.6671 103.029 21.6671 101.834C21.6671 100.638 20.6987 99.667 19.5005 99.667H10.8339C9.63576 99.667 8.66736 100.638 8.66736 101.834C8.66736 103.029 9.63576 104 10.8339 104Z" fill="#FFAC22"/>
<path d="M34.6666 86.6665H4.33342C1.9434 86.6665 0 88.6102 0 90.9999V125.666C0 128.057 1.9434 130 4.33342 130H34.6668C37.0566 130 39.0003 128.057 39.0003 125.666V90.9999C39 88.6102 37.0566 86.6665 34.6666 86.6665ZM4.33342 125.666V90.9999H34.6668L34.6691 125.666H4.33342Z" fill="#FFAC22"/>
<path d="M73.6664 117H56.333C55.1348 117 54.1664 117.971 54.1664 119.167C54.1664 120.362 55.1348 121.333 56.333 121.333H73.6664C74.8646 121.333 75.8329 120.362 75.8329 119.167C75.8329 117.971 74.8646 117 73.6664 117Z" fill="#FFAC22"/>
<path d="M119.166 108.333H101.833C100.635 108.333 99.6663 109.304 99.6663 110.5C99.6663 111.696 100.635 112.667 101.833 112.667H119.166C120.364 112.667 121.333 111.696 121.333 110.5C121.333 109.304 120.364 108.333 119.166 108.333Z" fill="#FFAC22"/>
<path d="M119.166 117H101.833C100.635 117 99.6663 117.971 99.6663 119.167C99.6663 120.362 100.635 121.333 101.833 121.333H119.166C120.364 121.333 121.333 120.362 121.333 119.167C121.333 117.971 120.364 117 119.166 117Z" fill="#FFAC22"/>
<path d="M125.666 86.6665H95.3331C92.9433 86.6665 90.9996 88.6099 90.9996 90.9999V125.666C90.9996 128.056 92.943 130 95.3331 130H125.666C128.056 130 130 128.057 130 125.666V90.9999C130 88.6102 128.056 86.6665 125.666 86.6665ZM95.3331 125.666V90.9999H125.666L125.669 125.666H95.3331Z" fill="#FFAC22"/>
<path d="M56.3332 104H64.9998C66.198 104 67.1664 103.029 67.1664 101.834C67.1664 100.638 66.198 99.667 64.9998 99.667H56.3332C55.135 99.667 54.1666 100.638 54.1666 101.834C54.1666 103.029 55.135 104 56.3332 104Z" fill="#FFAC22"/>
<path d="M73.6664 108.333H56.333C55.1348 108.333 54.1664 109.304 54.1664 110.5C54.1664 111.696 55.1348 112.667 56.333 112.667H73.6664C74.8646 112.667 75.8329 111.696 75.8329 110.5C75.8329 109.304 74.8646 108.333 73.6664 108.333Z" fill="#FFAC22"/>
<path d="M101.833 104H110.5C111.698 104 112.666 103.029 112.666 101.834C112.666 100.638 111.698 99.667 110.5 99.667H101.833C100.635 99.667 99.6664 100.638 99.6664 101.834C99.6664 103.029 100.635 104 101.833 104Z" fill="#FFAC22"/>
<path d="M80.1664 86.6665H49.8333C47.4435 86.6665 45.4999 88.6099 45.4999 90.9999V125.666C45.4999 128.056 47.4433 130 49.8333 130H80.1667C82.5565 130 84.5001 128.057 84.5001 125.666V90.9999C84.4999 88.6102 82.5565 86.6665 80.1664 86.6665ZM49.8333 125.666V90.9999H80.1667L80.169 125.666H49.8333Z" fill="#FFAC22"/>
</g>
<defs>
<clipPath id="clip0">
<rect width="130" height="130" fill="white"/>
</clipPath>
</defs>
</svg>
