<svg width="130" height="130" viewBox="0 0 130 130" fill="none" xmlns="http://www.w3.org/2000/svg">
<g clip-path="url(#clip0)">
<path d="M30.3333 41.1667C27.9435 41.1667 25.9999 39.2233 25.9999 36.8333C25.9999 35.6374 25.0292 34.6668 23.8333 34.6668C22.6374 34.6668 21.6667 35.6374 21.6667 36.8333C21.6667 40.859 24.4402 44.2237 28.1667 45.1924V45.5001C28.1667 46.696 29.1374 47.6667 30.3333 47.6667C31.5292 47.6667 32.4999 46.696 32.4999 45.5001V45.1924C36.2264 44.224 38.9998 40.859 38.9998 36.8333C38.9998 32.0536 35.1128 28.1668 30.3333 28.1668C27.9435 28.1668 25.9999 26.2234 25.9999 23.8334C25.9999 21.4436 27.9433 19.5 30.3333 19.5C32.7233 19.5 34.6667 21.4434 34.6667 23.8334C34.6667 25.0293 35.6374 25.9999 36.8333 25.9999C38.0291 25.9999 38.9998 25.0293 38.9998 23.8334C38.9998 19.8077 36.2264 16.443 32.4999 15.4743V15.1666C32.4999 13.9707 31.5292 13 30.3333 13C29.1374 13 28.1667 13.9707 28.1667 15.1666V15.4743C24.4402 16.4427 21.6667 19.8077 21.6667 23.8334C21.6667 28.6131 25.5538 32.4999 30.3333 32.4999C32.723 32.4999 34.6667 34.4433 34.6667 36.8333C34.6664 39.2233 32.723 41.1667 30.3333 41.1667Z" fill="#FFAC22"/>
<path d="M127.834 125.667H117.001V21.667H125.667C126.542 21.667 127.333 21.1384 127.669 20.3302C128.005 19.52 127.819 18.5881 127.199 17.9686L109.866 0.635271C109.018 -0.211757 107.649 -0.211757 106.802 0.635271L89.4688 17.9686C88.849 18.5881 88.6629 19.52 88.9986 20.3302C89.3345 21.1384 90.1251 21.667 91.0006 21.667H99.6672V125.667H95.3338V80.1668C95.3338 78.9709 94.3631 78.0002 93.1672 78.0002H80.347C79.1511 78.0002 78.1804 78.9709 78.1804 80.1668V125.667H73.6673V67.1668C73.6673 65.9709 72.6966 65.0003 71.5007 65.0003H58.5007C57.3048 65.0003 56.3342 65.9709 56.3342 67.1668V125.667H52.0008V75.8336C52.0008 74.6377 51.0301 73.667 49.8342 73.667H36.8342C35.6384 73.667 34.6677 74.6377 34.6677 75.8336V125.667H30.3343V93.167C30.3343 91.9711 29.3636 91.0004 28.1677 91.0004H15.1678C13.9719 91.0004 13.0012 91.9711 13.0012 93.167V125.667H2.16755C0.971656 125.667 0.000976562 126.638 0.000976562 127.833C0.000976562 129.029 0.971656 130 2.16755 130H15.1675C16.3634 130 17.3341 129.029 17.3341 127.833V95.3335H26.0006V127.833C26.0006 129.029 26.9713 130 28.1672 130H36.8337C38.0296 130 39.0003 129.029 39.0003 127.833V78.0002H47.6669V127.833C47.6669 129.029 48.6375 130 49.8334 130H58.5C59.6959 130 60.6666 129.029 60.6666 127.833V69.3336H69.3331V127.833C69.3331 129.029 70.3038 130 71.4997 130H80.3462C81.5421 130 82.5128 129.029 82.5128 127.833V82.3336H90.9996V127.833C90.9996 129.029 91.9703 130 93.1662 130H101.833C103.029 130 103.999 129.029 103.999 127.833V19.5004C103.999 18.3045 103.029 17.3339 101.833 17.3339H96.2298L108.333 5.23096L120.436 17.3339H114.833C113.637 17.3339 112.666 18.3045 112.666 19.5004V127.833C112.666 129.029 113.637 130 114.833 130H127.833C129.029 130 129.999 129.029 129.999 127.833C129.999 126.638 129.03 125.667 127.834 125.667Z" fill="#FFAC22"/>
<path d="M30.3335 60.6668C47.0601 60.6668 60.6668 47.0603 60.6668 30.3335C60.6668 13.6068 47.0601 0.000488281 30.3335 0.000488281C13.607 0.000488281 0.000244141 13.607 0.000244141 30.3338C0.000244141 47.0606 13.6068 60.6668 30.3335 60.6668ZM30.3335 4.33389C44.6703 4.33389 56.3334 15.997 56.3334 30.3338C56.3334 44.6706 44.6703 56.3337 30.3335 56.3337C15.9968 56.3337 4.33365 44.6706 4.33365 30.3338C4.33365 15.997 15.9968 4.33389 30.3335 4.33389Z" fill="#FFAC22"/>
</g>
<defs>
<clipPath id="clip0">
<rect width="130" height="130" fill="white"/>
</clipPath>
</defs>
</svg>
