<svg width="130" height="130" viewBox="0 0 130 130" fill="none" xmlns="http://www.w3.org/2000/svg">
<g clip-path="url(#clip0)">
<path d="M84.4999 117H80.1665C78.9706 117 77.9999 117.971 77.9999 119.167C77.9999 120.363 78.9706 121.334 80.1665 121.334H84.4999C85.6958 121.334 86.6665 120.363 86.6665 119.167C86.6665 117.971 85.6958 117 84.4999 117Z" fill="#FFAC22"/>
<path d="M67.1668 117H45.5002C44.3043 117 43.3336 117.971 43.3336 119.167C43.3336 120.363 44.3043 121.334 45.5002 121.334H67.1668C68.3627 121.334 69.3334 120.363 69.3334 119.167C69.3334 117.971 68.3629 117 67.1668 117Z" fill="#FFAC22"/>
<path d="M32.5 117H2.16658C0.970684 117 0 117.971 0 119.167C0 120.363 0.970684 121.334 2.16658 121.334H32.5C33.6959 121.334 34.6666 120.363 34.6666 119.167C34.6666 117.971 33.6959 117 32.5 117Z" fill="#FFAC22"/>
<path d="M127.199 63.4686L121.26 57.5297L119.167 32.5004C119.167 26.527 114.307 21.667 108.333 21.667H93.1667C91.9708 21.667 91.0001 22.6377 91.0001 23.8336C91.0001 25.0295 91.9708 26.0002 93.1667 26.0002H108.333C111.856 26.0002 114.833 28.9772 114.84 32.6799L116.811 56.3333H109.672L112.437 50.8017C112.974 49.7315 112.539 48.4315 111.469 47.8963C110.396 47.359 109.096 47.7945 108.561 48.8647L104.828 56.3331H93.167C91.9711 56.3331 91.0004 57.3037 91.0004 58.4996C91.0004 59.6955 91.9711 60.6662 93.167 60.6662H118.27L124.135 66.5315C125.37 67.7665 125.663 70.6069 125.667 71.4996V73.6662H123.5C122.304 73.6662 121.334 74.6369 121.334 75.8328C121.334 77.0287 122.304 77.9994 123.5 77.9994H125.667V95.3328H121.16C120.105 87.9944 113.794 82.3328 106.167 82.3328C97.8033 82.3328 91.0001 89.1362 91.0001 97.4994C91.0001 105.863 97.8035 112.666 106.167 112.666C113.793 112.666 120.105 107.004 121.16 99.666H127.834C129.029 99.666 130 98.6953 130 97.4994V71.5004C130 70.9652 129.922 66.19 127.199 63.4686ZM106.167 108.334C100.193 108.334 95.3333 103.474 95.3333 97.5004C95.3333 91.5268 100.193 86.667 106.167 86.667C112.14 86.667 117 91.5268 117 97.5004C117 103.474 112.14 108.334 106.167 108.334Z" fill="#FFAC22"/>
<path d="M32.5001 91C28.9165 91 26.0001 93.9164 26.0001 97.5C26.0001 101.084 28.9165 104 32.5001 104C36.0837 104 39.0001 101.084 39.0001 97.5C39.0001 93.9164 36.0837 91 32.5001 91ZM32.5001 99.6666C31.3063 99.6666 30.3335 98.6939 30.3335 97.5C30.3335 96.3061 31.3063 95.3334 32.5001 95.3334C33.694 95.3334 34.6667 96.3061 34.6667 97.5C34.6667 98.6939 33.694 99.6666 32.5001 99.6666Z" fill="#FFAC22"/>
<path d="M127.834 117H93.1667C91.9708 117 91.0001 117.971 91.0001 119.167C91.0001 120.363 91.9708 121.334 93.1667 121.334H127.833C129.029 121.334 130 120.363 130 119.167C130 117.971 129.029 117 127.834 117Z" fill="#FFAC22"/>
<path d="M106.166 91C102.583 91 99.6663 93.9164 99.6663 97.5C99.6663 101.084 102.583 104 106.166 104C109.75 104 112.666 101.084 112.666 97.5C112.666 93.9164 109.75 91 106.166 91ZM106.166 99.6666C104.972 99.6666 104 98.6939 104 97.5C104 96.3061 104.972 95.3334 106.166 95.3334C107.36 95.3334 108.333 96.3061 108.333 97.5C108.333 98.6939 107.36 99.6666 106.166 99.6666Z" fill="#FFAC22"/>
<path d="M84.5 8.66699H10.8334C4.85977 8.66699 0 13.527 0 19.5004V88.8338C0 94.909 4.75795 99.6672 10.8334 99.6672C12.0293 99.6672 13 98.6966 13 97.5007C13 96.3048 12.0293 95.3341 10.8334 95.3341C7.1891 95.3341 4.33342 92.4784 4.33342 88.8341V19.5004C4.33342 15.9168 7.24978 13.0004 10.8334 13.0004H82.3334V73.667H10.8334C9.63752 73.667 8.66684 74.6377 8.66684 75.8336C8.66684 77.0295 9.63752 78.0002 10.8334 78.0002H82.3334V95.3336H47.4934C46.4382 87.9952 40.1245 82.3336 32.5 82.3336C24.1366 82.3336 17.3334 89.137 17.3334 97.5002C17.3334 105.863 24.1366 112.667 32.5 112.667C40.1245 112.667 46.4382 107.005 47.4934 99.667H84.5C85.6959 99.667 86.6666 98.6963 86.6666 97.5004V10.8338C86.6666 9.63768 85.6959 8.66699 84.5 8.66699ZM32.5 108.334C26.5266 108.334 21.6666 103.474 21.6666 97.5004C21.6666 91.5268 26.5263 86.667 32.5 86.667C38.4734 86.667 43.3334 91.5268 43.3334 97.5004C43.3334 103.474 38.4734 108.334 32.5 108.334Z" fill="#FFAC22"/>
</g>
<defs>
<clipPath id="clip0">
<rect width="130" height="130" fill="white"/>
</clipPath>
</defs>
</svg>
