<svg width="130" height="130" viewBox="0 0 130 130" fill="none" xmlns="http://www.w3.org/2000/svg">
<g clip-path="url(#clip0)">
<path d="M23.8335 114.834C23.8335 116.029 24.8019 117 26.0001 117C33.1696 117 39.0001 111.17 39.0001 104C39.0001 102.804 38.0317 101.833 36.8335 101.833C35.6353 101.833 34.6669 102.804 34.6669 104C34.6669 108.78 30.7799 112.667 26.0003 112.667C24.8019 112.667 23.8335 113.637 23.8335 114.834Z" fill="#FFAC22"/>
<path d="M39 81.5038V21.667C39 14.4974 33.1696 8.66699 26 8.66699C18.8305 8.66699 13 14.4974 13 21.667V62.8336C13 64.0295 13.9684 65.0001 15.1666 65.0001C16.3648 65.0001 17.3332 64.0295 17.3332 62.8336V60.667H19.5C20.6982 60.667 21.6666 59.6963 21.6666 58.5004C21.6666 57.3045 20.6982 56.3338 19.5 56.3338H17.3334V47.6672H19.5C20.6982 47.6672 21.6666 46.6966 21.6666 45.5007C21.6666 44.3048 20.6982 43.3341 19.5 43.3341H17.3334V34.6675H19.5C20.6982 34.6675 21.6666 33.6968 21.6666 32.5009C21.6666 31.305 20.6982 30.3343 19.5 30.3343H17.3334V21.667C17.3334 16.8872 21.2205 13.0004 26 13.0004C30.7798 13.0004 34.6666 16.8875 34.6666 21.667V82.7886C34.6666 83.6033 35.1216 84.3486 35.8452 84.719C43.1361 88.4499 47.6666 95.8383 47.6666 104C47.6666 115.947 37.9468 125.667 26 125.667C14.0532 125.667 4.33342 115.947 4.33342 104C4.33342 95.8386 8.86387 88.4502 16.1548 84.7193C16.8784 84.3488 17.3334 83.6033 17.3334 82.7888V73.6672H28.1668C29.365 73.6672 30.3334 72.6965 30.3334 71.5007C30.3334 70.3048 29.365 69.3341 28.1668 69.3341H15.1668C13.9687 69.3341 13.0003 70.3048 13.0003 71.5007V81.504C4.9466 86.1513 0 94.6533 0 104C0 118.337 11.6632 130 26 130C40.3368 130 52 118.337 52 104C52 94.6533 47.0534 86.1513 39 81.5038Z" fill="#FFAC22"/>
<path d="M127.833 39H120.063L122.865 36.1984C123.712 35.3511 123.712 33.9818 122.865 33.1348C122.017 32.2875 120.648 32.2875 119.801 33.1348L113.936 39H107.063L114.198 31.8652C115.045 31.018 115.045 29.6486 114.198 28.8016C113.351 27.9546 111.981 27.9543 111.134 28.8016L100.936 39H98.3965L96.2299 36.8334L111.396 21.6668H114.833C116.031 21.6668 116.999 20.6962 116.999 19.5003C116.999 18.3044 116.031 17.3337 114.833 17.3337H112.666V15.1671C112.666 13.9712 111.698 13.0005 110.5 13.0005C109.301 13.0005 108.333 13.9712 108.333 15.1671V18.6035L93.1665 33.77L90.9999 31.6035V29.0641L101.198 18.8652C102.045 18.018 102.045 16.6486 101.198 15.8016C100.351 14.9546 98.9812 14.9546 98.1342 15.8016L90.9994 22.9364V16.0636L96.8647 10.1984C97.7119 9.35137 97.7119 7.9818 96.8647 7.13477C96.0174 6.28773 94.6481 6.28748 93.801 7.13477L90.9994 9.93637V2.16658C90.9994 0.970684 90.031 0 88.8328 0C87.6347 0 86.6663 0.970684 86.6663 2.16658V9.93637L83.8647 7.13477C83.0174 6.28748 81.6481 6.28748 80.801 7.13477C79.9537 7.98205 79.9537 9.35137 80.801 10.1984L86.6663 16.0636V22.9364L79.5315 15.8016C78.6842 14.9546 77.3149 14.9546 76.4679 15.8016C75.6208 16.6489 75.6208 18.0182 76.4679 18.8652L86.6663 29.0636V31.6029L84.4997 33.7695L69.3331 18.6029V15.1666C69.3331 13.9707 68.3647 13 67.1665 13C65.9683 13 64.9994 13.9707 64.9994 15.1666V17.3332H62.8328C61.6347 17.3332 60.6663 18.3038 60.6663 19.4997C60.6663 20.6956 61.6347 21.6663 62.8328 21.6663H66.2692L81.4358 36.8329L79.2692 38.9995H76.7299L66.5315 28.8011C65.6842 27.9538 64.3149 27.9538 63.4679 28.8011C62.6208 29.6484 62.6208 31.0177 63.4679 31.8647L70.6026 38.9995H63.7299L57.8647 33.1343C57.0176 32.287 55.6481 32.287 54.801 33.1343C53.9537 33.9813 53.9537 35.3509 54.801 36.1979L57.6026 38.9995H49.8328C48.6347 38.9995 47.6663 39.9702 47.6663 41.1661C47.6663 42.362 48.6347 43.3327 49.8328 43.3327H57.6026L54.801 46.1348C53.9537 46.9821 53.9537 48.3514 54.801 49.1984C55.2235 49.6209 55.7783 49.8332 56.3328 49.8332C56.8876 49.8332 57.4422 49.6209 57.8647 49.1984L63.7299 43.3332H70.6026L63.4679 50.4679C62.6208 51.315 62.6208 52.6845 63.4679 53.5316C63.8904 53.9541 64.4452 54.1663 64.9997 54.1663C65.5545 54.1663 66.109 53.9541 66.5315 53.5316L76.7299 43.3332H79.2692L81.4358 45.4997L66.2692 60.6663H62.8328C61.6347 60.6663 60.6663 61.637 60.6663 62.8329C60.6663 64.0288 61.6347 64.9995 62.8328 64.9995H64.9994V67.1661C64.9994 68.362 65.9678 69.3327 67.166 69.3327C68.3642 69.3327 69.3326 68.362 69.3326 67.1661V63.7297L84.4992 48.5631L86.6658 50.7297V53.269L76.4674 63.4674C75.6203 64.3147 75.6203 65.684 76.4674 66.5311C77.3146 67.3783 78.684 67.3783 79.531 66.5311L86.6658 59.3963V66.269L80.8005 72.1343C79.9532 72.9815 79.9532 74.3509 80.8005 75.1979C81.6475 76.0449 83.0171 76.0449 83.8642 75.1979L86.6658 72.3963V80.1661C86.6658 81.3643 87.6342 82.3327 88.8323 82.3327C90.0305 82.3327 90.9989 81.3643 90.9989 80.1661V72.3963L93.8005 75.1979C94.223 75.6204 94.7778 75.8327 95.3323 75.8327C95.8871 75.8327 96.4416 75.6204 96.8641 75.1979C97.7114 74.3506 97.7114 72.9813 96.8641 72.1343L90.9989 66.269V59.3963L98.1337 66.5311C98.5562 66.9536 99.111 67.1658 99.6655 67.1658C100.22 67.1658 100.775 66.9536 101.197 66.5311C102.045 65.6838 102.045 64.3145 101.197 63.4674L90.9994 53.2698V50.7305L93.166 48.5639L108.333 63.7305V67.1668C108.333 68.3627 109.301 69.3334 110.499 69.3334C111.697 69.3334 112.666 68.3627 112.666 67.1668V65H114.832C116.031 65 116.999 64.0293 116.999 62.8334C116.999 61.6375 116.031 60.6668 114.832 60.6668H111.396L96.2296 45.5L98.3962 43.3334H100.936L111.134 53.5318C111.556 53.9543 112.111 54.1666 112.666 54.1666C113.221 54.1666 113.775 53.9543 114.198 53.5318C115.045 52.6845 115.045 51.3152 114.198 50.4682L107.063 43.3334H113.936L119.801 49.1987C120.223 49.6212 120.778 49.8334 121.333 49.8334C121.887 49.8334 122.442 49.6212 122.864 49.1987C123.711 48.3514 123.711 46.9821 122.864 46.135L120.063 43.3334H127.833C129.031 43.3334 129.999 42.3627 129.999 41.1668C129.999 39.9707 129.031 39 127.833 39ZM88.8328 46.7698L83.2299 41.1668L88.8328 35.5639L94.4358 41.1668L88.8328 46.7698Z" fill="#FFAC22"/>
</g>
<defs>
<clipPath id="clip0">
<rect width="130" height="130" fill="white"/>
</clipPath>
</defs>
</svg>
