<svg width="130" height="130" viewBox="0 0 130 130" fill="none" xmlns="http://www.w3.org/2000/svg">
<path d="M45.1622 86.6694C43.964 86.6694 42.9956 87.6401 42.9956 88.836C42.9956 90.0319 43.964 91.0026 45.1622 91.0026H54.167C55.3652 91.0026 56.3336 90.0319 56.3336 88.836C56.3336 87.6401 55.3652 86.6694 54.167 86.6694H45.1622Z" fill="#FFAC22"/>
<path d="M101.965 31.3784C105.785 38.3506 107.954 46.1874 108.287 54.1695H93.1662C91.968 54.1695 90.9996 55.1402 90.9996 56.3361C90.9996 57.532 91.968 58.5027 93.1662 58.5027H110.5C111.698 58.5027 112.666 57.532 112.666 56.3361C112.666 46.8852 110.278 37.5338 105.763 29.2961C105.191 28.2474 103.872 27.8638 102.823 28.4381C101.774 29.0145 101.389 30.3297 101.965 31.3784Z" fill="#FFAC22"/>
<path d="M22.6378 16.7232C30.3144 10.1841 39.7262 6.09998 49.6497 4.81521C36.2619 16.5888 28.4812 30.8932 26.514 47.438C26.373 48.6252 27.2224 49.702 28.4099 49.8452C28.4965 49.8539 28.5833 49.8605 28.6676 49.8605C29.751 49.8605 30.6869 49.0503 30.8192 47.9496C32.8601 30.7594 41.2126 16.6587 56.334 4.89139C60.6522 8.25615 64.4676 11.8659 67.6851 15.6359C68.4674 16.5459 69.8301 16.6521 70.7401 15.8764C71.6501 15.0987 71.7585 13.7314 70.9829 12.8214C68.5974 10.0287 65.8804 7.33752 62.9229 4.75047C75.4397 6.29752 86.7583 12.2427 95.0978 21.67H85.6513C84.4554 21.67 83.4847 22.6407 83.4847 23.8366C83.4847 25.0325 84.4554 26.0032 85.6513 26.0032H99.6697H99.672C99.9297 26.0032 100.185 25.9425 100.435 25.8493C100.521 25.8168 100.593 25.7691 100.673 25.7259C100.771 25.6739 100.872 25.6437 100.963 25.5764C101.007 25.5439 101.026 25.4961 101.067 25.4593C101.18 25.3618 101.271 25.2514 101.362 25.132C101.444 25.0216 101.525 24.9198 101.587 24.7984C101.646 24.6793 101.681 24.5536 101.717 24.4213C101.761 24.2784 101.795 24.1375 101.806 23.9879C101.809 23.9338 101.837 23.8904 101.837 23.8363C101.837 23.7498 101.797 23.6782 101.789 23.5959C101.772 23.4463 101.748 23.3077 101.7 23.1648C101.654 23.0218 101.589 22.8938 101.516 22.7682C101.472 22.6945 101.459 22.6123 101.41 22.5429C90.7731 8.22975 74.3583 0.0158789 56.3772 0.00292969H56.2906C42.9331 0.00724609 29.9851 4.77383 19.8279 13.4254C18.9156 14.2011 18.8094 15.5681 19.5831 16.4781C20.3608 17.3925 21.7258 17.4966 22.6378 16.7232Z" fill="#FFAC22"/>
<path d="M86.6661 56.3358C86.6661 43.6867 83.8386 32.6974 78.0254 22.7437C77.6377 22.0765 76.9248 21.6689 76.1534 21.6689H47.1593C45.9611 21.6689 44.9927 22.6396 44.9927 23.8355C44.9927 25.0314 45.9611 26.0021 47.1593 26.0021H74.8948C79.5791 34.4196 82.0123 43.6648 82.3025 54.1687H36.833C35.6348 54.1687 34.6664 55.1394 34.6664 56.3353C34.6664 57.5312 35.6348 58.5019 36.833 58.5019H84.4995C85.6977 58.5026 86.6661 57.5319 86.6661 56.3358Z" fill="#FFAC22"/>
<path d="M55.5664 107.162C48.6482 101.598 42.7007 94.8724 38.3653 87.7138C38.3219 87.6401 38.2482 87.5967 38.1985 87.5317C38.1053 87.4126 38.0121 87.3019 37.895 87.2044C37.7889 87.1135 37.6805 87.0442 37.5614 86.9792C37.44 86.9099 37.323 86.8492 37.1887 86.8058C37.0478 86.758 36.9048 86.7365 36.7553 86.7192C36.673 86.7083 36.5994 86.6694 36.5125 86.6694H12.9978C12.1787 86.6694 11.4291 87.131 11.0607 87.8633C10.6946 88.5956 10.7705 89.471 11.258 90.1297C21.4066 103.771 37.0153 111.97 54.0821 112.626C54.1103 112.629 54.1362 112.629 54.1666 112.629C55.3237 112.629 56.2857 111.714 56.3289 110.546C56.3418 110.236 56.2834 109.942 56.1773 109.671C56.5371 108.804 56.3355 107.779 55.5664 107.162ZM17.5478 91.0028H35.3253C39.1732 97.1085 44.1003 102.885 49.7682 107.92C37.2646 106.364 25.87 100.393 17.5478 91.0028Z" fill="#FFAC22"/>
<path d="M10.7054 81.301C6.8834 74.3265 4.7125 66.4876 4.37887 58.5033H26.0305C26.2514 66.5049 27.7075 74.0579 30.3659 80.9824C30.7927 82.1003 32.043 82.6615 33.1652 82.2303C34.2812 81.8012 34.84 80.549 34.4112 79.433C31.705 72.3783 30.3334 64.6064 30.3334 56.3299V56.3233C30.3291 55.071 29.2112 54.0764 28 54.1696H2.16658C0.968398 54.1696 0 55.1403 0 56.3362C0 65.7894 2.38977 75.1428 6.90727 83.3848C7.2993 84.1019 8.04248 84.5094 8.8075 84.5094C9.16068 84.5094 9.51818 84.4228 9.8475 84.2428C10.8961 83.6669 11.2818 82.3497 10.7054 81.301Z" fill="#FFAC22"/>
<path d="M2.8359 47.5285C2.98114 47.561 3.12612 47.574 3.27135 47.574C4.27885 47.574 5.18225 46.8676 5.39046 45.8428C6.88114 38.5651 9.8234 31.9003 14.1134 25.9963H28.1664C29.3645 25.9963 30.3329 25.0256 30.3329 23.8297C30.3329 22.6338 29.3645 21.6631 28.1664 21.6631H12.9998C12.952 21.6631 12.9109 21.687 12.8632 21.6913C12.705 21.7022 12.562 21.739 12.4125 21.7822C12.2868 21.8167 12.1634 21.8495 12.0484 21.9056C11.927 21.9663 11.8232 22.0485 11.7125 22.1331C11.5934 22.224 11.4806 22.3108 11.3809 22.4256C11.3484 22.4624 11.3029 22.4796 11.2724 22.5208C6.24586 29.1531 2.83971 36.706 1.1454 44.9717C0.905455 46.1442 1.66387 47.2904 2.8359 47.5285Z" fill="#FFAC22"/>
<path d="M103.35 84.4999H101.4V76.7C101.4 70.2474 96.1524 65 89.6998 65C83.2472 65 77.9998 70.2474 77.9998 76.7V84.4999H76.0499C70.6738 84.4999 66.2998 88.8737 66.2998 94.25V113.75C66.2998 119.126 70.6736 123.5 76.0499 123.5H103.35C108.726 123.5 113.1 119.126 113.1 113.75V94.25C113.1 88.8739 108.726 84.4999 103.35 84.4999ZM81.8999 76.7C81.8999 72.3982 85.3982 68.9001 89.6998 68.9001C94.0016 68.9001 97.4997 72.3984 97.4997 76.7V84.4999H81.8997V76.7H81.8999ZM109.2 113.75C109.2 116.975 106.575 119.6 103.35 119.6H76.0499C72.8246 119.6 70.1999 116.975 70.1999 113.75V94.25C70.1999 91.0247 72.8246 88.4 76.0499 88.4H103.35C106.575 88.4 109.2 91.0247 109.2 94.25V113.75H109.2Z" fill="#FFAC22"/>
<path d="M89.7 98.7998C87.5492 98.7998 85.7998 100.466 85.7998 102.514C85.7998 103.883 86.5896 105.068 87.7498 105.712V109.943C87.7498 110.968 88.6235 111.8 89.6998 111.8C90.7762 111.8 91.6498 110.968 91.6498 109.943V105.712C92.81 105.068 93.5998 103.883 93.5998 102.514C93.6003 100.466 91.8509 98.7998 89.7 98.7998Z" fill="#FFAC22"/>
</svg>
