<svg width="100" height="100" viewBox="0 0 100 100" fill="none" xmlns="http://www.w3.org/2000/svg">
<g clip-path="url(#clip0)">
<path d="M26.6455 45.9843C26.6455 46.8758 26.9937 47.7126 27.6238 48.3409L28.8021 49.5192C30.3771 51.0924 32.4671 51.9592 34.6937 51.9592C36.9204 51.9592 39.012 51.0926 40.587 49.5192L48.8887 41.2175C52.1769 43.9641 56.282 45.4591 60.6153 45.4591H60.6237C65.5219 45.4557 70.1321 43.544 73.6004 40.0741C74.2522 39.4226 74.2522 38.3675 73.6004 37.7175C72.9487 37.0658 71.8953 37.0658 71.2438 37.7175C68.4038 40.5575 64.6306 42.1241 60.6222 42.1259H60.6171C56.6121 42.1259 52.8472 40.5659 50.0154 37.7343C49.3637 37.0843 48.3088 37.0843 47.6588 37.7343L38.2288 47.1626C36.3421 49.0508 33.0472 49.0508 31.1589 47.1626L29.9806 45.9843L50.0154 25.9495C51.8838 24.0811 53.6588 24.0811 55.907 24.0811C58.3136 24.0811 61.312 24.0811 64.1569 21.2362L68.8702 16.5212C69.5217 15.8697 69.5217 14.8146 68.8702 14.1646C68.2202 13.5128 67.1651 13.5128 66.5135 14.1646L61.8003 18.8796C59.9304 20.7479 58.1554 20.7479 55.907 20.7479C53.5004 20.7479 50.5037 20.7479 47.6588 23.5928L27.6254 43.6259C26.9937 44.2559 26.6455 45.0927 26.6455 45.9843Z" fill="#FFAC22"/>
<path d="M15.0004 18.3379C16.8386 18.3379 18.3337 16.843 18.3337 15.0045C18.3337 13.1662 16.8388 11.6711 15.0004 11.6711C13.1621 11.6711 11.667 13.1661 11.667 15.0045C11.667 16.843 13.1621 18.3379 15.0004 18.3379Z" fill="#FFAC22"/>
<path d="M31.1584 23.5928L35.8716 28.3061C36.1982 28.6328 36.625 28.7944 37.0499 28.7944C37.4767 28.7944 37.9033 28.6326 38.2283 28.3061C38.88 27.6561 38.88 26.601 38.2283 25.9495L33.515 21.2362C32.865 20.5847 31.81 20.5847 31.1584 21.2362C30.5084 21.8862 30.5084 22.9411 31.1584 23.5928Z" fill="#FFAC22"/>
<path d="M84.9999 11.6711C86.8366 11.6711 88.3333 10.1762 88.3333 8.33777C88.3333 6.4995 86.8366 5.00439 84.9999 5.00439C83.1632 5.00439 81.6665 6.49931 81.6665 8.33777C81.6665 10.176 83.1632 11.6711 84.9999 11.6711Z" fill="#FFAC22"/>
<path d="M88.8214 35.4927C86.113 38.2011 85.1831 42.6126 84.2847 46.8793C83.488 50.666 82.663 54.5843 80.6564 56.591L78.298 58.9476C77.648 59.5993 77.648 60.6542 78.298 61.3042C78.6246 61.631 79.0514 61.7925 79.4781 61.7925C79.9031 61.7925 80.3299 61.6308 80.6564 61.3042L83.013 58.9476C85.7197 56.241 86.648 51.831 87.5464 47.566C88.3446 43.776 89.1714 39.8577 91.178 37.8495C91.8298 37.1995 91.8298 36.1444 91.178 35.4929C90.5265 34.8409 89.4732 34.8409 88.8214 35.4927Z" fill="#FFAC22"/>
<path d="M99.5112 35.4928L72.3563 8.33792L77.8445 2.84968C78.4963 2.19793 78.4963 1.14462 77.8445 0.493062C77.1928 -0.158495 76.1395 -0.158495 75.4879 0.493062L68.8213 7.15961C68.1696 7.81136 68.1696 8.86468 68.8213 9.51623L97.1545 37.8494C97.4795 38.1744 97.9063 38.3377 98.3328 38.3377C98.7594 38.3377 99.1862 38.1744 99.5112 37.8494C100.163 37.1977 100.163 36.1443 99.5112 35.4928Z" fill="#FFAC22"/>
<path d="M61.7999 49.5192C61.1481 48.8693 60.0948 48.8693 59.4432 49.5192C58.7917 50.171 58.7917 51.2259 59.4432 51.8776L77.1199 69.5542C78.4198 70.8542 78.4198 72.9693 77.1199 74.2692C75.8232 75.5659 73.7066 75.5675 72.4049 74.2692L54.7282 56.5911C54.0765 55.9393 53.0216 55.9393 52.3716 56.5911C51.7199 57.2428 51.7199 58.2977 52.3716 58.9477L74.763 81.3391C76.063 82.6391 76.063 84.7541 74.763 86.0524C73.4631 87.3506 71.3498 87.3541 70.048 86.0539L48.8367 64.8408C48.1849 64.1891 47.1301 64.1891 46.4801 64.8408C45.8283 65.4908 45.8283 66.5459 46.4801 67.1974L65.335 86.0524C66.635 87.3523 66.635 89.4674 65.335 90.7674C64.075 92.0273 61.8817 92.0273 60.6217 90.7658L58.2634 88.4092H58.2616L42.9434 73.0909C42.2916 72.4394 41.2367 72.4394 40.5867 73.0909C39.9352 73.7409 39.9352 74.796 40.5867 75.4476L55.9065 90.7674C56.5366 91.3974 56.8833 92.234 56.8833 93.1257C56.8833 94.0158 56.5366 94.8525 55.9065 95.4824C54.6099 96.779 52.4933 96.7823 51.1933 95.4806L22.8453 67.1591C18.5236 62.8375 17.5854 57.3893 16.7571 52.5809C16.0604 48.5361 15.402 44.716 12.8454 42.1593C12.1936 41.5076 11.1403 41.5076 10.4887 42.1593C9.83718 42.8111 9.83699 43.8644 10.4887 44.516C12.2971 46.3244 12.842 49.4859 13.4721 53.1475C14.3387 58.1809 15.4188 64.4457 20.4887 69.5158L48.8367 97.839C50.1349 99.1372 51.8417 99.789 53.5499 99.789C55.2566 99.7872 56.9649 99.1372 58.2632 97.839C59.2098 96.8907 59.8382 95.7089 60.0915 94.4224C62.5348 95.6007 65.7164 95.1025 67.6914 93.1242C68.6397 92.1759 69.2664 90.9926 69.5197 89.7058C71.998 90.8959 75.0679 90.4609 77.1197 88.4092C79.7196 85.811 79.7196 81.5825 77.1197 78.9825L76.488 78.3491C77.5829 78.0575 78.6197 77.4825 79.478 76.6259C82.0763 74.0259 82.0763 69.7958 79.478 67.1976L61.7999 49.5192Z" fill="#FFAC22"/>
<path d="M31.1785 13.8261L21.1785 3.82622C20.527 3.17446 19.4735 3.17446 18.8219 3.82622C18.1702 4.47777 18.1702 5.53128 18.8219 6.18284L27.6435 15.0044L0.488668 42.1593C-0.162889 42.8111 -0.162889 43.8644 0.488668 44.5159C0.813665 44.8409 1.24042 45.0042 1.66698 45.0042C2.09354 45.0042 2.52029 44.8409 2.84529 44.5159L31.1785 16.183C31.8302 15.5312 31.8302 14.4779 31.1785 13.8261Z" fill="#FFAC22"/>
<path d="M40.9915 96.3622C40.0632 96.849 38.4783 96.9072 37.05 95.4822C35.6217 94.0521 35.6334 92.3906 36.0966 91.6672C36.5566 90.9506 36.4033 90.0039 35.7383 89.4689C35.0765 88.934 34.1183 88.984 33.515 89.5889C32.2133 90.8889 30.0967 90.8871 28.8 89.5889C27.5018 88.2889 27.5018 86.1739 28.8 84.8739C29.1268 84.5489 29.2883 84.1221 29.2883 83.6956C29.2883 83.269 29.1266 82.8438 28.8 82.5172C28.15 81.8672 27.095 81.8672 26.4434 82.5172L25.2651 83.6956C23.9669 84.9955 21.8501 84.9955 20.5518 83.6956C19.2536 82.3956 19.2536 80.2805 20.5518 78.9823L21.7302 77.804C22.3235 77.2124 22.3835 76.2724 21.8735 75.6091C21.3636 74.9458 20.4386 74.7642 19.7169 75.1823C18.8103 75.7056 17.2152 75.6441 15.8386 74.2691C14.3753 72.8058 14.382 71.1841 14.8537 70.5007C15.3769 69.7441 15.1853 68.7058 14.4287 68.1824C13.6703 67.6574 12.6337 67.849 12.1103 68.6074C10.7621 70.5607 10.7986 73.9423 13.482 76.6257C14.5386 77.6808 15.6886 78.3106 16.822 78.6124C16.4419 79.4591 16.2419 80.3841 16.2419 81.3391C16.2419 83.1192 16.9353 84.7942 18.1952 86.0524C19.9052 87.7641 22.3235 88.349 24.5184 87.8074C24.6485 89.3174 25.2901 90.7924 26.4434 91.9457C28.1018 93.6023 30.4184 94.2023 32.5551 93.749C32.7617 95.1291 33.4301 96.574 34.6933 97.839C36.2349 99.379 38.0349 99.9956 39.6783 99.9956C40.7333 99.9956 41.7232 99.7405 42.5382 99.314C43.3532 98.8872 43.6683 97.8806 43.24 97.064C42.8132 96.2505 41.8032 95.9339 40.9915 96.3622Z" fill="#FFAC22"/>
</g>
<defs>
<clipPath id="clip0">
<rect width="100" height="100" fill="white"/>
</clipPath>
</defs>
</svg>
