<svg width="100" height="100" viewBox="0 0 100 100" fill="none" xmlns="http://www.w3.org/2000/svg">
<g clip-path="url(#clip0)">
<path d="M48.3335 16.4302V25.0001C48.3335 25.92 49.0802 26.6667 50.0001 26.6667C50.92 26.6667 51.6667 25.92 51.6667 25.0001V16.4302C54.5351 15.6853 56.6667 13.0968 56.6667 10.0001C56.6667 6.32334 53.6767 3.3335 50.0001 3.3335C46.3233 3.3335 43.3335 6.32354 43.3335 10.0001C43.3335 13.0968 45.4667 15.6851 48.3335 16.4302ZM50.0001 6.6667C51.8384 6.6667 53.3335 8.16162 53.3335 10.0001C53.3335 11.8384 51.8386 13.3335 50.0001 13.3335C48.1618 13.3335 46.6667 11.8386 46.6667 10.0001C46.6667 8.16182 48.1618 6.6667 50.0001 6.6667Z" fill="#FFAC22"/>
<path d="M23.2982 48.0218C23.9633 48.0218 24.5916 47.62 24.85 46.9634C25.1867 46.1067 24.765 45.1384 23.9084 44.8017L13.2701 40.62C13.29 40.4116 13.3334 40.2116 13.3334 40.0001C13.3334 36.3233 10.3434 33.3335 6.6668 33.3335C2.99004 33.3335 0 36.3233 0 40.0001C0 43.6769 2.99004 46.6667 6.6666 46.6667C8.94492 46.6667 10.9582 45.5149 12.16 43.7649L22.69 47.905C22.89 47.9835 23.0949 48.0218 23.2982 48.0218ZM6.6666 43.3335C4.82832 43.3335 3.3332 41.8386 3.3332 40.0001C3.3332 38.1616 4.82812 36.6667 6.6666 36.6667C8.50488 36.6667 10 38.1616 10 40.0001C10 41.8386 8.50508 43.3335 6.6666 43.3335Z" fill="#FFAC22"/>
<path d="M93.3333 33.3335C89.6565 33.3335 86.6667 36.3235 86.6667 40.0001C86.6667 40.2118 86.7083 40.4118 86.7284 40.62L76.0901 44.8034C75.235 45.1401 74.8135 46.1085 75.1501 46.9651C75.4085 47.6202 76.0368 48.0218 76.7018 48.0218C76.9051 48.0218 77.1118 47.9851 77.3118 47.9052L87.8401 43.7651C89.0434 45.5151 91.0551 46.6669 93.3335 46.6669C97.0102 46.6669 100 43.6769 100 40.0003C100 36.3237 97.0098 33.3335 93.3333 33.3335ZM93.3333 43.3335C91.495 43.3335 89.9999 41.8386 89.9999 40.0001C89.9999 38.1616 91.4948 36.6667 93.3333 36.6667C95.1718 36.6667 96.6667 38.1616 96.6667 40.0001C96.6667 41.8386 95.1716 43.3335 93.3333 43.3335Z" fill="#FFAC22"/>
<path d="M76.6665 83.3334C75.7365 83.3334 74.8533 83.5267 74.0499 83.8717L66.7382 75.1334C66.1499 74.4283 65.1015 74.3334 64.3915 74.9234C63.6849 75.515 63.5915 76.565 64.1831 77.2717L71.4247 85.9301C70.5447 87.0584 69.9997 88.4601 69.9997 90C69.9997 93.6767 72.9898 96.6666 76.6664 96.6666C80.3431 96.6666 83.333 93.6765 83.333 90C83.3333 86.3232 80.3433 83.3334 76.6665 83.3334ZM76.6665 93.3334C74.8283 93.3334 73.3331 91.8384 73.3331 90C73.3331 88.1617 74.8281 86.6666 76.6665 86.6666C78.5048 86.6666 79.9999 88.1615 79.9999 90C79.9999 91.8383 78.505 93.3334 76.6665 93.3334Z" fill="#FFAC22"/>
<path d="M50.0001 45.0001C51.8384 45.0001 53.3335 46.495 53.3335 48.3335C53.3335 49.2534 54.0784 50.0001 55.0001 50.0001C55.9218 50.0001 56.6667 49.2534 56.6667 48.3335C56.6667 45.2368 54.5351 42.6486 51.6667 41.9034V41.6667C51.6667 40.7468 50.92 40.0001 50.0001 40.0001C49.0802 40.0001 48.3335 40.7468 48.3335 41.6667V41.9034C45.4669 42.6484 43.3335 45.2368 43.3335 48.3335C43.3335 52.0103 46.3235 55.0001 50.0001 55.0001C51.8384 55.0001 53.3335 56.495 53.3335 58.3335C53.3335 60.1718 51.8386 61.6669 50.0001 61.6669C48.1618 61.6669 46.6667 60.172 46.6667 58.3335C46.6667 57.4136 45.92 56.6669 45.0001 56.6669C44.0802 56.6669 43.3335 57.4136 43.3335 58.3335C43.3335 61.4302 45.4669 64.0185 48.3335 64.7636V65.0003C48.3335 65.9202 49.0802 66.6669 50.0001 66.6669C50.92 66.6669 51.6667 65.9202 51.6667 65.0003V64.7636C54.5351 64.0187 56.6667 61.4302 56.6667 58.3335C56.6667 54.6568 53.6767 51.6669 50.0001 51.6669C48.1618 51.6669 46.6667 50.172 46.6667 48.3335C46.6667 46.495 48.1618 45.0001 50.0001 45.0001Z" fill="#FFAC22"/>
<path d="M35.6086 74.9235C34.9035 74.3335 33.8502 74.4251 33.2619 75.1335L25.9502 83.8718C25.1469 83.5268 24.2635 83.3335 23.3336 83.3335C19.6568 83.3335 16.667 86.3235 16.667 90.0001C16.667 93.6768 19.657 96.6667 23.3336 96.6667C27.0102 96.6667 30.0002 93.6768 30.0002 90.0001C30.0002 88.46 29.4535 87.06 28.5752 85.9302L35.8186 77.2718C36.4086 76.5651 36.3152 75.5151 35.6086 74.9235ZM23.3336 93.3335C21.4953 93.3335 20.0002 91.8386 20.0002 90.0001C20.0002 88.1618 21.4951 86.6667 23.3336 86.6667C25.1721 86.6667 26.667 88.1616 26.667 90.0001C26.6668 91.8384 25.1719 93.3335 23.3336 93.3335Z" fill="#FFAC22"/>
<path d="M73.3333 53.3335C73.3333 40.4669 62.8667 30.0001 49.9999 30.0001C37.1331 30.0001 26.6665 40.4667 26.6665 53.3335C26.6665 66.2003 37.1333 76.6667 49.9999 76.6667C62.8665 76.6667 73.3333 66.2001 73.3333 53.3335ZM49.9999 73.3335C38.9716 73.3335 29.9999 64.3618 29.9999 53.3335C29.9999 42.3052 38.9716 33.3335 49.9999 33.3335C61.0282 33.3335 69.9999 42.3052 69.9999 53.3335C69.9999 64.3618 61.0282 73.3335 49.9999 73.3335Z" fill="#FFAC22"/>
</g>
<defs>
<clipPath id="clip0">
<rect width="100" height="100" fill="white"/>
</clipPath>
</defs>
</svg>
