<svg width="100" height="100" viewBox="0 0 100 100" fill="none" xmlns="http://www.w3.org/2000/svg">
<g clip-path="url(#clip0)">
<path d="M21.6668 83.3335H8.33359C7.41191 83.3335 6.66699 84.0802 6.66699 85.0001C6.66699 85.92 7.41191 86.6667 8.33359 86.6667H21.667C22.5887 86.6667 23.3336 85.92 23.3336 85.0001C23.3336 84.0802 22.5885 83.3335 21.6668 83.3335Z" fill="#FFAC22"/>
<path d="M21.6668 90H8.33359C7.41191 90 6.66699 90.7467 6.66699 91.6666C6.66699 92.5865 7.41191 93.3332 8.33359 93.3332H21.667C22.5887 93.3332 23.3336 92.5865 23.3336 91.6666C23.3336 90.7467 22.5885 90 21.6668 90Z" fill="#FFAC22"/>
<path d="M8.33359 80H15.0002C15.9219 80 16.6668 79.2533 16.6668 78.3333C16.6668 77.4134 15.9219 76.6667 15.0002 76.6667H8.33359C7.41191 76.6667 6.66699 77.4134 6.66699 78.3333C6.66699 79.2533 7.41191 80 8.33359 80Z" fill="#FFAC22"/>
<path d="M29.9999 36.6666H48.3333V40H41.6667C40.745 40 40.0001 40.7467 40.0001 41.6666C40.0001 42.5865 40.745 43.3332 41.6667 43.3332H58.3333C59.255 43.3332 59.9999 42.5865 59.9999 41.6666C59.9999 40.7467 59.255 40 58.3333 40H51.6667V36.6666H69.9999C71.8382 36.6666 73.3333 35.1717 73.3333 33.3332V3.3332C73.3333 1.49492 71.8382 0 69.9999 0H29.9999C28.1616 0 26.6665 1.49492 26.6665 3.3334V33.3334C26.6665 35.1717 28.1616 36.6666 29.9999 36.6666ZM29.9999 3.3334H69.9999L70.0032 26.6668H29.9999V3.3334ZM29.9999 30H70.0032V33.3334H29.9999V30Z" fill="#FFAC22"/>
<path d="M15.0001 63.3333C15.9218 63.3333 16.6667 62.5867 16.6667 61.6667V56.6667H45.3083C45.8101 58.0785 46.92 59.19 48.3333 59.6917V61.6667C48.3333 62.5867 49.0782 63.3333 49.9999 63.3333C50.9216 63.3333 51.6665 62.5867 51.6665 61.6667V59.6933C53.0798 59.19 54.1897 58.0783 54.6915 56.6665H83.3349V61.6665C83.3349 62.5865 84.0798 63.3331 85.0015 63.3331C85.9231 63.3331 86.6681 62.5865 86.6681 61.6665V54.9999C86.6681 54.08 85.9231 53.3333 85.0015 53.3333H54.6917C54.1899 51.9216 53.08 50.8101 51.6667 50.3066V48.3333C51.6667 47.4134 50.9218 46.6667 50.0001 46.6667C49.0784 46.6667 48.3335 47.4134 48.3335 48.3333V50.3066C46.9202 50.8099 45.8102 51.9216 45.3085 53.3333H15.0001C14.0784 53.3333 13.3335 54.08 13.3335 54.9999V61.6665C13.3335 62.5867 14.0784 63.3333 15.0001 63.3333ZM50.0001 53.3333C50.92 53.3333 51.6667 54.0816 51.6667 54.9999C51.6667 55.9183 50.92 56.6665 50.0001 56.6665C49.0802 56.6665 48.3335 55.9183 48.3335 54.9999C48.3335 54.0816 49.0802 53.3333 50.0001 53.3333Z" fill="#FFAC22"/>
<path d="M78.3331 80H84.9997C85.9214 80 86.6663 79.2533 86.6663 78.3333C86.6663 77.4134 85.9214 76.6667 84.9997 76.6667H78.3331C77.4114 76.6667 76.6665 77.4134 76.6665 78.3333C76.6665 79.2533 77.4114 80 78.3331 80Z" fill="#FFAC22"/>
<path d="M61.6666 66.6665H38.3334C36.4951 66.6665 35 68.1614 35 69.9999V96.6665C35 98.5048 36.4949 99.9999 38.3334 99.9999H61.6668C63.5051 99.9999 65.0002 98.505 65.0002 96.6665V69.9999C65 68.1616 63.5051 66.6665 61.6666 66.6665ZM38.3334 96.6665V69.9999H61.6668L61.6685 96.6665H38.3334Z" fill="#FFAC22"/>
<path d="M26.6666 66.6665H3.3334C1.49492 66.6665 0 68.1616 0 69.9999V96.6665C0 98.505 1.49492 99.9999 3.3334 99.9999H26.6668C28.5051 99.9999 30.0002 98.505 30.0002 96.6665V69.9999C30 68.1616 28.5051 66.6665 26.6666 66.6665ZM3.3334 96.6665V69.9999H26.6668L26.6686 96.6665H3.3334Z" fill="#FFAC22"/>
<path d="M91.6665 90H78.3331C77.4114 90 76.6665 90.7467 76.6665 91.6666C76.6665 92.5865 77.4114 93.3332 78.3331 93.3332H91.6665C92.5882 93.3332 93.3331 92.5865 93.3331 91.6666C93.3331 90.7467 92.5882 90 91.6665 90Z" fill="#FFAC22"/>
<path d="M96.6666 66.6665H73.3334C71.4951 66.6665 70 68.1614 70 69.9999V96.6665C70 98.5048 71.4949 99.9999 73.3334 99.9999H96.6668C98.5051 99.9999 100 98.505 100 96.6665V69.9999C100 68.1616 98.5051 66.6665 96.6666 66.6665ZM73.3334 96.6665V69.9999H96.6668L96.6686 96.6665H73.3334Z" fill="#FFAC22"/>
<path d="M91.6665 83.3335H78.3331C77.4114 83.3335 76.6665 84.0802 76.6665 85.0001C76.6665 85.92 77.4114 86.6667 78.3331 86.6667H91.6665C92.5882 86.6667 93.3331 85.92 93.3331 85.0001C93.3331 84.0802 92.5882 83.3335 91.6665 83.3335Z" fill="#FFAC22"/>
<path d="M56.6665 83.3335H43.3331C42.4114 83.3335 41.6665 84.0802 41.6665 85.0001C41.6665 85.92 42.4114 86.6667 43.3331 86.6667H56.6665C57.5882 86.6667 58.3331 85.92 58.3331 85.0001C58.3331 84.0802 57.5882 83.3335 56.6665 83.3335Z" fill="#FFAC22"/>
<path d="M43.3336 80H50.0002C50.9219 80 51.6668 79.2533 51.6668 78.3333C51.6668 77.4134 50.9219 76.6667 50.0002 76.6667H43.3336C42.4119 76.6667 41.667 77.4134 41.667 78.3333C41.667 79.2533 42.4119 80 43.3336 80Z" fill="#FFAC22"/>
<path d="M56.6665 90H43.3331C42.4114 90 41.6665 90.7467 41.6665 91.6666C41.6665 92.5865 42.4114 93.3332 43.3331 93.3332H56.6665C57.5882 93.3332 58.3331 92.5865 58.3331 91.6666C58.3331 90.7467 57.5882 90 56.6665 90Z" fill="#FFAC22"/>
</g>
<defs>
<clipPath id="clip0">
<rect width="100" height="100" fill="white"/>
</clipPath>
</defs>
</svg>
