<svg width="300" height="246" viewBox="0 0 300 246" fill="none" xmlns="http://www.w3.org/2000/svg">
<path d="M24.9805 196.781L29.6289 208.383L34.2773 196.781H36.709V211H34.834V205.463L35.0098 199.486L30.3418 211H28.9062L24.248 199.516L24.4336 205.463V211H22.5586V196.781H24.9805ZM39.2578 205.619C39.2578 204.584 39.4596 203.653 39.8633 202.826C40.2734 201.999 40.8398 201.361 41.5625 200.912C42.2917 200.463 43.1217 200.238 44.0527 200.238C45.4915 200.238 46.6536 200.736 47.5391 201.732C48.431 202.729 48.877 204.053 48.877 205.707V205.834C48.877 206.863 48.6784 207.787 48.2812 208.607C47.8906 209.421 47.3275 210.056 46.5918 210.512C45.8626 210.967 45.0228 211.195 44.0723 211.195C42.64 211.195 41.4779 210.697 40.5859 209.701C39.7005 208.705 39.2578 207.387 39.2578 205.746V205.619ZM41.0742 205.834C41.0742 207.006 41.3444 207.947 41.8848 208.656C42.4316 209.366 43.1608 209.721 44.0723 209.721C44.9902 209.721 45.7194 209.363 46.2598 208.646C46.8001 207.924 47.0703 206.915 47.0703 205.619C47.0703 204.46 46.7936 203.523 46.2402 202.807C45.6934 202.084 44.9642 201.723 44.0527 201.723C43.1608 201.723 42.4414 202.077 41.8945 202.787C41.3477 203.497 41.0742 204.512 41.0742 205.834ZM50.7031 205.629C50.7031 204.008 51.0872 202.706 51.8555 201.723C52.6237 200.733 53.6296 200.238 54.873 200.238C56.11 200.238 57.0898 200.661 57.8125 201.508V196H59.6191V211H57.959L57.8711 209.867C57.1484 210.753 56.1426 211.195 54.8535 211.195C53.6296 211.195 52.6302 210.694 51.8555 209.691C51.0872 208.689 50.7031 207.38 50.7031 205.766V205.629ZM52.5098 205.834C52.5098 207.032 52.7572 207.969 53.252 208.646C53.7467 209.324 54.4303 209.662 55.3027 209.662C56.4486 209.662 57.2852 209.148 57.8125 208.119V203.266C57.2721 202.27 56.4421 201.771 55.3223 201.771C54.4368 201.771 53.7467 202.113 53.252 202.797C52.7572 203.48 52.5098 204.493 52.5098 205.834ZM68.9551 209.955C68.252 210.782 67.2201 211.195 65.8594 211.195C64.7331 211.195 63.8737 210.87 63.2812 210.219C62.6953 209.561 62.3991 208.591 62.3926 207.309V200.434H64.1992V207.26C64.1992 208.861 64.8503 209.662 66.1523 209.662C67.5326 209.662 68.4505 209.148 68.9062 208.119V200.434H70.7129V211H68.9941L68.9551 209.955ZM75.4297 211H73.623V196H75.4297V211ZM82.7148 211.195C81.2826 211.195 80.1172 210.727 79.2188 209.789C78.3203 208.845 77.8711 207.585 77.8711 206.01V205.678C77.8711 204.63 78.0697 203.695 78.4668 202.875C78.8704 202.048 79.4303 201.404 80.1465 200.941C80.8691 200.473 81.6504 200.238 82.4902 200.238C83.8639 200.238 84.9316 200.691 85.6934 201.596C86.4551 202.501 86.8359 203.796 86.8359 205.482V206.234H79.6777C79.7038 207.276 80.0065 208.119 80.5859 208.764C81.1719 209.402 81.9141 209.721 82.8125 209.721C83.4505 209.721 83.9909 209.59 84.4336 209.33C84.8763 209.07 85.2637 208.725 85.5957 208.295L86.6992 209.154C85.8138 210.515 84.4857 211.195 82.7148 211.195ZM82.4902 201.723C81.7611 201.723 81.1491 201.99 80.6543 202.523C80.1595 203.051 79.8535 203.793 79.7363 204.75H85.0293V204.613C84.9772 203.695 84.7298 202.986 84.2871 202.484C83.8444 201.977 83.2454 201.723 82.4902 201.723ZM95.0879 208.197C95.0879 207.709 94.9023 207.331 94.5312 207.064C94.1667 206.791 93.5254 206.557 92.6074 206.361C91.696 206.166 90.9701 205.932 90.4297 205.658C89.8958 205.385 89.4987 205.059 89.2383 204.682C88.9844 204.304 88.8574 203.855 88.8574 203.334C88.8574 202.468 89.222 201.736 89.9512 201.137C90.6868 200.538 91.6243 200.238 92.7637 200.238C93.9616 200.238 94.9316 200.548 95.6738 201.166C96.4225 201.785 96.7969 202.576 96.7969 203.539H94.9805C94.9805 203.044 94.7689 202.618 94.3457 202.26C93.929 201.902 93.4017 201.723 92.7637 201.723C92.1061 201.723 91.5918 201.866 91.2207 202.152C90.8496 202.439 90.6641 202.813 90.6641 203.275C90.6641 203.712 90.8366 204.04 91.1816 204.262C91.5267 204.483 92.1484 204.695 93.0469 204.896C93.9518 205.098 94.6842 205.339 95.2441 205.619C95.804 205.899 96.2174 206.238 96.4844 206.635C96.7578 207.025 96.8945 207.504 96.8945 208.07C96.8945 209.014 96.5169 209.773 95.7617 210.346C95.0065 210.912 94.0267 211.195 92.8223 211.195C91.9759 211.195 91.2272 211.046 90.5762 210.746C89.9251 210.447 89.4141 210.03 89.043 209.496C88.6784 208.956 88.4961 208.373 88.4961 207.748H90.3027C90.3353 208.354 90.5762 208.835 91.0254 209.193C91.4811 209.545 92.0801 209.721 92.8223 209.721C93.5059 209.721 94.0527 209.584 94.4629 209.311C94.8796 209.031 95.0879 208.66 95.0879 208.197ZM108.447 209.721C109.092 209.721 109.655 209.525 110.137 209.135C110.618 208.744 110.885 208.256 110.938 207.67H112.646C112.614 208.275 112.406 208.852 112.021 209.398C111.637 209.945 111.123 210.382 110.479 210.707C109.84 211.033 109.163 211.195 108.447 211.195C107.008 211.195 105.863 210.717 105.01 209.76C104.163 208.796 103.74 207.481 103.74 205.814V205.512C103.74 204.483 103.929 203.568 104.307 202.768C104.684 201.967 105.225 201.345 105.928 200.902C106.637 200.46 107.474 200.238 108.438 200.238C109.622 200.238 110.605 200.593 111.387 201.303C112.174 202.012 112.594 202.934 112.646 204.066H110.938C110.885 203.383 110.625 202.823 110.156 202.387C109.694 201.944 109.121 201.723 108.438 201.723C107.52 201.723 106.807 202.055 106.299 202.719C105.798 203.376 105.547 204.33 105.547 205.58V205.922C105.547 207.139 105.798 208.077 106.299 208.734C106.8 209.392 107.516 209.721 108.447 209.721ZM119.785 202.055C119.512 202.009 119.215 201.986 118.896 201.986C117.712 201.986 116.908 202.491 116.484 203.5V211H114.678V200.434H116.436L116.465 201.654C117.057 200.71 117.897 200.238 118.984 200.238C119.336 200.238 119.603 200.284 119.785 200.375V202.055ZM125.645 211.195C124.212 211.195 123.047 210.727 122.148 209.789C121.25 208.845 120.801 207.585 120.801 206.01V205.678C120.801 204.63 120.999 203.695 121.396 202.875C121.8 202.048 122.36 201.404 123.076 200.941C123.799 200.473 124.58 200.238 125.42 200.238C126.794 200.238 127.861 200.691 128.623 201.596C129.385 202.501 129.766 203.796 129.766 205.482V206.234H122.607C122.633 207.276 122.936 208.119 123.516 208.764C124.102 209.402 124.844 209.721 125.742 209.721C126.38 209.721 126.921 209.59 127.363 209.33C127.806 209.07 128.193 208.725 128.525 208.295L129.629 209.154C128.743 210.515 127.415 211.195 125.645 211.195ZM125.42 201.723C124.691 201.723 124.079 201.99 123.584 202.523C123.089 203.051 122.783 203.793 122.666 204.75H127.959V204.613C127.907 203.695 127.66 202.986 127.217 202.484C126.774 201.977 126.175 201.723 125.42 201.723ZM138.389 211C138.285 210.792 138.2 210.421 138.135 209.887C137.295 210.759 136.292 211.195 135.127 211.195C134.085 211.195 133.229 210.902 132.559 210.316C131.895 209.724 131.562 208.975 131.562 208.07C131.562 206.97 131.979 206.117 132.812 205.512C133.652 204.9 134.831 204.594 136.348 204.594H138.105V203.764C138.105 203.132 137.917 202.631 137.539 202.26C137.161 201.882 136.605 201.693 135.869 201.693C135.225 201.693 134.684 201.856 134.248 202.182C133.812 202.507 133.594 202.901 133.594 203.363H131.777C131.777 202.836 131.963 202.328 132.334 201.84C132.712 201.345 133.219 200.954 133.857 200.668C134.502 200.382 135.208 200.238 135.977 200.238C137.194 200.238 138.148 200.544 138.838 201.156C139.528 201.762 139.886 202.598 139.912 203.666V208.529C139.912 209.499 140.036 210.271 140.283 210.844V211H138.389ZM135.391 209.623C135.957 209.623 136.494 209.477 137.002 209.184C137.51 208.891 137.878 208.51 138.105 208.041V205.873H136.689C134.476 205.873 133.369 206.521 133.369 207.816C133.369 208.383 133.558 208.826 133.936 209.145C134.313 209.464 134.798 209.623 135.391 209.623ZM145.195 197.875V200.434H147.168V201.83H145.195V208.383C145.195 208.806 145.283 209.125 145.459 209.34C145.635 209.548 145.934 209.652 146.357 209.652C146.566 209.652 146.852 209.613 147.217 209.535V211C146.742 211.13 146.279 211.195 145.83 211.195C145.023 211.195 144.414 210.951 144.004 210.463C143.594 209.975 143.389 209.281 143.389 208.383V201.83H141.465V200.434H143.389V197.875H145.195ZM153.672 211.195C152.24 211.195 151.074 210.727 150.176 209.789C149.277 208.845 148.828 207.585 148.828 206.01V205.678C148.828 204.63 149.027 203.695 149.424 202.875C149.827 202.048 150.387 201.404 151.104 200.941C151.826 200.473 152.607 200.238 153.447 200.238C154.821 200.238 155.889 200.691 156.65 201.596C157.412 202.501 157.793 203.796 157.793 205.482V206.234H150.635C150.661 207.276 150.964 208.119 151.543 208.764C152.129 209.402 152.871 209.721 153.77 209.721C154.408 209.721 154.948 209.59 155.391 209.33C155.833 209.07 156.221 208.725 156.553 208.295L157.656 209.154C156.771 210.515 155.443 211.195 153.672 211.195ZM153.447 201.723C152.718 201.723 152.106 201.99 151.611 202.523C151.117 203.051 150.811 203.793 150.693 204.75H155.986V204.613C155.934 203.695 155.687 202.986 155.244 202.484C154.801 201.977 154.202 201.723 153.447 201.723ZM171.377 211C171.273 210.792 171.188 210.421 171.123 209.887C170.283 210.759 169.281 211.195 168.115 211.195C167.074 211.195 166.217 210.902 165.547 210.316C164.883 209.724 164.551 208.975 164.551 208.07C164.551 206.97 164.967 206.117 165.801 205.512C166.641 204.9 167.819 204.594 169.336 204.594H171.094V203.764C171.094 203.132 170.905 202.631 170.527 202.26C170.15 201.882 169.593 201.693 168.857 201.693C168.213 201.693 167.673 201.856 167.236 202.182C166.8 202.507 166.582 202.901 166.582 203.363H164.766C164.766 202.836 164.951 202.328 165.322 201.84C165.7 201.345 166.208 200.954 166.846 200.668C167.49 200.382 168.197 200.238 168.965 200.238C170.182 200.238 171.136 200.544 171.826 201.156C172.516 201.762 172.874 202.598 172.9 203.666V208.529C172.9 209.499 173.024 210.271 173.271 210.844V211H171.377ZM168.379 209.623C168.945 209.623 169.482 209.477 169.99 209.184C170.498 208.891 170.866 208.51 171.094 208.041V205.873H169.678C167.464 205.873 166.357 206.521 166.357 207.816C166.357 208.383 166.546 208.826 166.924 209.145C167.301 209.464 167.786 209.623 168.379 209.623ZM179.971 209.721C180.615 209.721 181.178 209.525 181.66 209.135C182.142 208.744 182.409 208.256 182.461 207.67H184.17C184.137 208.275 183.929 208.852 183.545 209.398C183.161 209.945 182.646 210.382 182.002 210.707C181.364 211.033 180.687 211.195 179.971 211.195C178.532 211.195 177.386 210.717 176.533 209.76C175.687 208.796 175.264 207.481 175.264 205.814V205.512C175.264 204.483 175.452 203.568 175.83 202.768C176.208 201.967 176.748 201.345 177.451 200.902C178.161 200.46 178.997 200.238 179.961 200.238C181.146 200.238 182.129 200.593 182.91 201.303C183.698 202.012 184.118 202.934 184.17 204.066H182.461C182.409 203.383 182.148 202.823 181.68 202.387C181.217 201.944 180.645 201.723 179.961 201.723C179.043 201.723 178.33 202.055 177.822 202.719C177.321 203.376 177.07 204.33 177.07 205.58V205.922C177.07 207.139 177.321 208.077 177.822 208.734C178.324 209.392 179.04 209.721 179.971 209.721ZM190.439 209.721C191.084 209.721 191.647 209.525 192.129 209.135C192.611 208.744 192.878 208.256 192.93 207.67H194.639C194.606 208.275 194.398 208.852 194.014 209.398C193.63 209.945 193.115 210.382 192.471 210.707C191.833 211.033 191.156 211.195 190.439 211.195C189.001 211.195 187.855 210.717 187.002 209.76C186.156 208.796 185.732 207.481 185.732 205.814V205.512C185.732 204.483 185.921 203.568 186.299 202.768C186.676 201.967 187.217 201.345 187.92 200.902C188.63 200.46 189.466 200.238 190.43 200.238C191.615 200.238 192.598 200.593 193.379 201.303C194.167 202.012 194.587 202.934 194.639 204.066H192.93C192.878 203.383 192.617 202.823 192.148 202.387C191.686 201.944 191.113 201.723 190.43 201.723C189.512 201.723 188.799 202.055 188.291 202.719C187.79 203.376 187.539 204.33 187.539 205.58V205.922C187.539 207.139 187.79 208.077 188.291 208.734C188.792 209.392 189.508 209.721 190.439 209.721ZM203.193 209.955C202.49 210.782 201.458 211.195 200.098 211.195C198.971 211.195 198.112 210.87 197.52 210.219C196.934 209.561 196.637 208.591 196.631 207.309V200.434H198.438V207.26C198.438 208.861 199.089 209.662 200.391 209.662C201.771 209.662 202.689 209.148 203.145 208.119V200.434H204.951V211H203.232L203.193 209.955ZM209.404 200.434L209.453 201.605C210.228 200.694 211.273 200.238 212.588 200.238C214.066 200.238 215.072 200.805 215.605 201.938C215.957 201.43 216.413 201.02 216.973 200.707C217.539 200.395 218.206 200.238 218.975 200.238C221.292 200.238 222.471 201.465 222.51 203.92V211H220.703V204.027C220.703 203.272 220.531 202.709 220.186 202.338C219.84 201.96 219.261 201.771 218.447 201.771C217.777 201.771 217.22 201.973 216.777 202.377C216.335 202.774 216.077 203.311 216.006 203.988V211H214.189V204.076C214.189 202.54 213.438 201.771 211.934 201.771C210.749 201.771 209.938 202.276 209.502 203.285V211H207.695V200.434H209.404ZM231.768 209.955C231.064 210.782 230.033 211.195 228.672 211.195C227.546 211.195 226.686 210.87 226.094 210.219C225.508 209.561 225.212 208.591 225.205 207.309V200.434H227.012V207.26C227.012 208.861 227.663 209.662 228.965 209.662C230.345 209.662 231.263 209.148 231.719 208.119V200.434H233.525V211H231.807L231.768 209.955ZM238.242 211H236.436V196H238.242V211ZM247.666 211C247.562 210.792 247.477 210.421 247.412 209.887C246.572 210.759 245.57 211.195 244.404 211.195C243.363 211.195 242.507 210.902 241.836 210.316C241.172 209.724 240.84 208.975 240.84 208.07C240.84 206.97 241.257 206.117 242.09 205.512C242.93 204.9 244.108 204.594 245.625 204.594H247.383V203.764C247.383 203.132 247.194 202.631 246.816 202.26C246.439 201.882 245.882 201.693 245.146 201.693C244.502 201.693 243.962 201.856 243.525 202.182C243.089 202.507 242.871 202.901 242.871 203.363H241.055C241.055 202.836 241.24 202.328 241.611 201.84C241.989 201.345 242.497 200.954 243.135 200.668C243.779 200.382 244.486 200.238 245.254 200.238C246.471 200.238 247.425 200.544 248.115 201.156C248.805 201.762 249.163 202.598 249.189 203.666V208.529C249.189 209.499 249.313 210.271 249.561 210.844V211H247.666ZM244.668 209.623C245.234 209.623 245.771 209.477 246.279 209.184C246.787 208.891 247.155 208.51 247.383 208.041V205.873H245.967C243.753 205.873 242.646 206.521 242.646 207.816C242.646 208.383 242.835 208.826 243.213 209.145C243.59 209.464 244.076 209.623 244.668 209.623ZM254.473 197.875V200.434H256.445V201.83H254.473V208.383C254.473 208.806 254.561 209.125 254.736 209.34C254.912 209.548 255.212 209.652 255.635 209.652C255.843 209.652 256.13 209.613 256.494 209.535V211C256.019 211.13 255.557 211.195 255.107 211.195C254.3 211.195 253.691 210.951 253.281 210.463C252.871 209.975 252.666 209.281 252.666 208.383V201.83H250.742V200.434H252.666V197.875H254.473ZM262.949 211.195C261.517 211.195 260.352 210.727 259.453 209.789C258.555 208.845 258.105 207.585 258.105 206.01V205.678C258.105 204.63 258.304 203.695 258.701 202.875C259.105 202.048 259.665 201.404 260.381 200.941C261.104 200.473 261.885 200.238 262.725 200.238C264.098 200.238 265.166 200.691 265.928 201.596C266.689 202.501 267.07 203.796 267.07 205.482V206.234H259.912C259.938 207.276 260.241 208.119 260.82 208.764C261.406 209.402 262.148 209.721 263.047 209.721C263.685 209.721 264.225 209.59 264.668 209.33C265.111 209.07 265.498 208.725 265.83 208.295L266.934 209.154C266.048 210.515 264.72 211.195 262.949 211.195ZM262.725 201.723C261.995 201.723 261.383 201.99 260.889 202.523C260.394 203.051 260.088 203.793 259.971 204.75H265.264V204.613C265.212 203.695 264.964 202.986 264.521 202.484C264.079 201.977 263.48 201.723 262.725 201.723ZM268.73 205.629C268.73 204.008 269.115 202.706 269.883 201.723C270.651 200.733 271.657 200.238 272.9 200.238C274.137 200.238 275.117 200.661 275.84 201.508V196H277.646V211H275.986L275.898 209.867C275.176 210.753 274.17 211.195 272.881 211.195C271.657 211.195 270.658 210.694 269.883 209.691C269.115 208.689 268.73 207.38 268.73 205.766V205.629ZM270.537 205.834C270.537 207.032 270.785 207.969 271.279 208.646C271.774 209.324 272.458 209.662 273.33 209.662C274.476 209.662 275.312 209.148 275.84 208.119V203.266C275.299 202.27 274.469 201.771 273.35 201.771C272.464 201.771 271.774 202.113 271.279 202.797C270.785 203.48 270.537 204.493 270.537 205.834ZM39.707 237.721C40.3516 237.721 40.9147 237.525 41.3965 237.135C41.8783 236.744 42.1452 236.256 42.1973 235.67H43.9062C43.8737 236.275 43.6654 236.852 43.2812 237.398C42.8971 237.945 42.3828 238.382 41.7383 238.707C41.1003 239.033 40.4232 239.195 39.707 239.195C38.2682 239.195 37.1224 238.717 36.2695 237.76C35.4232 236.796 35 235.481 35 233.814V233.512C35 232.483 35.1888 231.568 35.5664 230.768C35.944 229.967 36.4844 229.345 37.1875 228.902C37.8971 228.46 38.7337 228.238 39.6973 228.238C40.8822 228.238 41.8652 228.593 42.6465 229.303C43.4342 230.012 43.8542 230.934 43.9062 232.066H42.1973C42.1452 231.383 41.8848 230.823 41.416 230.387C40.9538 229.944 40.3809 229.723 39.6973 229.723C38.7793 229.723 38.0664 230.055 37.5586 230.719C37.0573 231.376 36.8066 232.33 36.8066 233.58V233.922C36.8066 235.139 37.0573 236.077 37.5586 236.734C38.0599 237.392 38.776 237.721 39.707 237.721ZM45.459 233.619C45.459 232.584 45.6608 231.653 46.0645 230.826C46.4746 229.999 47.041 229.361 47.7637 228.912C48.4928 228.463 49.3229 228.238 50.2539 228.238C51.6927 228.238 52.8548 228.736 53.7402 229.732C54.6322 230.729 55.0781 232.053 55.0781 233.707V233.834C55.0781 234.863 54.8796 235.787 54.4824 236.607C54.0918 237.421 53.5286 238.056 52.793 238.512C52.0638 238.967 51.224 239.195 50.2734 239.195C48.8411 239.195 47.679 238.697 46.7871 237.701C45.9017 236.705 45.459 235.387 45.459 233.746V233.619ZM47.2754 233.834C47.2754 235.006 47.5456 235.947 48.0859 236.656C48.6328 237.366 49.362 237.721 50.2734 237.721C51.1914 237.721 51.9206 237.363 52.4609 236.646C53.0013 235.924 53.2715 234.915 53.2715 233.619C53.2715 232.46 52.9948 231.523 52.4414 230.807C51.8945 230.084 51.1654 229.723 50.2539 229.723C49.362 229.723 48.6426 230.077 48.0957 230.787C47.5488 231.497 47.2754 232.512 47.2754 233.834ZM59.043 228.434L59.0918 229.605C59.8665 228.694 60.9115 228.238 62.2266 228.238C63.7044 228.238 64.7103 228.805 65.2441 229.938C65.5957 229.43 66.0514 229.02 66.6113 228.707C67.1777 228.395 67.8451 228.238 68.6133 228.238C70.931 228.238 72.1094 229.465 72.1484 231.92V239H70.3418V232.027C70.3418 231.272 70.1693 230.709 69.8242 230.338C69.4792 229.96 68.8997 229.771 68.0859 229.771C67.4154 229.771 66.8587 229.973 66.416 230.377C65.9733 230.774 65.7161 231.311 65.6445 231.988V239H63.8281V232.076C63.8281 230.54 63.0762 229.771 61.5723 229.771C60.3874 229.771 59.5768 230.276 59.1406 231.285V239H57.334V228.434H59.043ZM83.8086 233.834C83.8086 235.442 83.4408 236.738 82.7051 237.721C81.9694 238.704 80.9733 239.195 79.7168 239.195C78.4342 239.195 77.4251 238.788 76.6895 237.975V243.062H74.8828V228.434H76.5332L76.6211 229.605C77.3568 228.694 78.3789 228.238 79.6875 228.238C80.957 228.238 81.9596 228.717 82.6953 229.674C83.4375 230.631 83.8086 231.962 83.8086 233.668V233.834ZM82.002 233.629C82.002 232.438 81.748 231.497 81.2402 230.807C80.7324 230.117 80.0358 229.771 79.1504 229.771C78.0566 229.771 77.2363 230.257 76.6895 231.227V236.275C77.2298 237.239 78.0566 237.721 79.1699 237.721C80.0358 237.721 80.7227 237.379 81.2305 236.695C81.7448 236.005 82.002 234.983 82.002 233.629ZM92.6367 237.955C91.9336 238.782 90.9017 239.195 89.541 239.195C88.4147 239.195 87.5553 238.87 86.9629 238.219C86.377 237.561 86.0807 236.591 86.0742 235.309V228.434H87.8809V235.26C87.8809 236.861 88.5319 237.662 89.834 237.662C91.2142 237.662 92.1322 237.148 92.5879 236.119V228.434H94.3945V239H92.6758L92.6367 237.955ZM99.5996 225.875V228.434H101.572V229.83H99.5996V236.383C99.5996 236.806 99.6875 237.125 99.8633 237.34C100.039 237.548 100.339 237.652 100.762 237.652C100.97 237.652 101.257 237.613 101.621 237.535V239C101.146 239.13 100.684 239.195 100.234 239.195C99.4271 239.195 98.8184 238.951 98.4082 238.463C97.998 237.975 97.793 237.281 97.793 236.383V229.83H95.8691V228.434H97.793V225.875H99.5996ZM105.654 239H103.848V228.434H105.654V239ZM103.701 225.631C103.701 225.338 103.789 225.09 103.965 224.889C104.147 224.687 104.414 224.586 104.766 224.586C105.117 224.586 105.384 224.687 105.566 224.889C105.749 225.09 105.84 225.338 105.84 225.631C105.84 225.924 105.749 226.168 105.566 226.363C105.384 226.559 105.117 226.656 104.766 226.656C104.414 226.656 104.147 226.559 103.965 226.363C103.789 226.168 103.701 225.924 103.701 225.631ZM110.264 228.434L110.322 229.762C111.13 228.746 112.184 228.238 113.486 228.238C115.719 228.238 116.846 229.498 116.865 232.018V239H115.059V232.008C115.052 231.246 114.876 230.683 114.531 230.318C114.193 229.954 113.662 229.771 112.939 229.771C112.354 229.771 111.839 229.928 111.396 230.24C110.954 230.553 110.609 230.963 110.361 231.471V239H108.555V228.434H110.264ZM119.16 233.629C119.16 231.982 119.541 230.673 120.303 229.703C121.064 228.727 122.074 228.238 123.33 228.238C124.619 228.238 125.625 228.694 126.348 229.605L126.436 228.434H128.086V238.746C128.086 240.113 127.679 241.191 126.865 241.979C126.058 242.766 124.971 243.16 123.604 243.16C122.842 243.16 122.096 242.997 121.367 242.672C120.638 242.346 120.081 241.9 119.697 241.334L120.635 240.25C121.41 241.207 122.357 241.686 123.477 241.686C124.355 241.686 125.039 241.438 125.527 240.943C126.022 240.449 126.27 239.752 126.27 238.854V237.945C125.547 238.779 124.561 239.195 123.311 239.195C122.074 239.195 121.071 238.697 120.303 237.701C119.541 236.705 119.16 235.348 119.16 233.629ZM120.977 233.834C120.977 235.025 121.221 235.963 121.709 236.646C122.197 237.324 122.881 237.662 123.76 237.662C124.899 237.662 125.736 237.145 126.27 236.109V231.285C125.716 230.276 124.886 229.771 123.779 229.771C122.9 229.771 122.214 230.113 121.719 230.797C121.224 231.48 120.977 232.493 120.977 233.834ZM144.707 233.834C144.707 235.442 144.339 236.738 143.604 237.721C142.868 238.704 141.872 239.195 140.615 239.195C139.333 239.195 138.324 238.788 137.588 237.975V243.062H135.781V228.434H137.432L137.52 229.605C138.255 228.694 139.277 228.238 140.586 228.238C141.855 228.238 142.858 228.717 143.594 229.674C144.336 230.631 144.707 231.962 144.707 233.668V233.834ZM142.9 233.629C142.9 232.438 142.646 231.497 142.139 230.807C141.631 230.117 140.934 229.771 140.049 229.771C138.955 229.771 138.135 230.257 137.588 231.227V236.275C138.128 237.239 138.955 237.721 140.068 237.721C140.934 237.721 141.621 237.379 142.129 236.695C142.643 236.005 142.9 234.983 142.9 233.629ZM146.533 233.619C146.533 232.584 146.735 231.653 147.139 230.826C147.549 229.999 148.115 229.361 148.838 228.912C149.567 228.463 150.397 228.238 151.328 228.238C152.767 228.238 153.929 228.736 154.814 229.732C155.706 230.729 156.152 232.053 156.152 233.707V233.834C156.152 234.863 155.954 235.787 155.557 236.607C155.166 237.421 154.603 238.056 153.867 238.512C153.138 238.967 152.298 239.195 151.348 239.195C149.915 239.195 148.753 238.697 147.861 237.701C146.976 236.705 146.533 235.387 146.533 233.746V233.619ZM148.35 233.834C148.35 235.006 148.62 235.947 149.16 236.656C149.707 237.366 150.436 237.721 151.348 237.721C152.266 237.721 152.995 237.363 153.535 236.646C154.076 235.924 154.346 234.915 154.346 233.619C154.346 232.46 154.069 231.523 153.516 230.807C152.969 230.084 152.24 229.723 151.328 229.723C150.436 229.723 149.717 230.077 149.17 230.787C148.623 231.497 148.35 232.512 148.35 233.834ZM167.773 236.51L169.805 228.434H171.611L168.535 239H167.07L164.502 230.992L162.002 239H160.537L157.471 228.434H159.268L161.348 236.344L163.809 228.434H165.264L167.773 236.51ZM177.842 239.195C176.41 239.195 175.244 238.727 174.346 237.789C173.447 236.845 172.998 235.585 172.998 234.01V233.678C172.998 232.63 173.197 231.695 173.594 230.875C173.997 230.048 174.557 229.404 175.273 228.941C175.996 228.473 176.777 228.238 177.617 228.238C178.991 228.238 180.059 228.691 180.82 229.596C181.582 230.501 181.963 231.796 181.963 233.482V234.234H174.805C174.831 235.276 175.133 236.119 175.713 236.764C176.299 237.402 177.041 237.721 177.939 237.721C178.577 237.721 179.118 237.59 179.561 237.33C180.003 237.07 180.391 236.725 180.723 236.295L181.826 237.154C180.941 238.515 179.613 239.195 177.842 239.195ZM177.617 229.723C176.888 229.723 176.276 229.99 175.781 230.523C175.286 231.051 174.98 231.793 174.863 232.75H180.156V232.613C180.104 231.695 179.857 230.986 179.414 230.484C178.971 229.977 178.372 229.723 177.617 229.723ZM189.17 230.055C188.896 230.009 188.6 229.986 188.281 229.986C187.096 229.986 186.292 230.491 185.869 231.5V239H184.062V228.434H185.82L185.85 229.654C186.442 228.71 187.282 228.238 188.369 228.238C188.721 228.238 188.988 228.284 189.17 228.375V230.055ZM201.953 236.197C201.953 235.709 201.768 235.331 201.396 235.064C201.032 234.791 200.391 234.557 199.473 234.361C198.561 234.166 197.835 233.932 197.295 233.658C196.761 233.385 196.364 233.059 196.104 232.682C195.85 232.304 195.723 231.855 195.723 231.334C195.723 230.468 196.087 229.736 196.816 229.137C197.552 228.538 198.49 228.238 199.629 228.238C200.827 228.238 201.797 228.548 202.539 229.166C203.288 229.785 203.662 230.576 203.662 231.539H201.846C201.846 231.044 201.634 230.618 201.211 230.26C200.794 229.902 200.267 229.723 199.629 229.723C198.971 229.723 198.457 229.866 198.086 230.152C197.715 230.439 197.529 230.813 197.529 231.275C197.529 231.712 197.702 232.04 198.047 232.262C198.392 232.483 199.014 232.695 199.912 232.896C200.817 233.098 201.549 233.339 202.109 233.619C202.669 233.899 203.083 234.238 203.35 234.635C203.623 235.025 203.76 235.504 203.76 236.07C203.76 237.014 203.382 237.773 202.627 238.346C201.872 238.912 200.892 239.195 199.688 239.195C198.841 239.195 198.092 239.046 197.441 238.746C196.79 238.447 196.279 238.03 195.908 237.496C195.544 236.956 195.361 236.373 195.361 235.748H197.168C197.201 236.354 197.441 236.835 197.891 237.193C198.346 237.545 198.945 237.721 199.688 237.721C200.371 237.721 200.918 237.584 201.328 237.311C201.745 237.031 201.953 236.66 201.953 236.197ZM205.635 233.619C205.635 232.584 205.837 231.653 206.24 230.826C206.65 229.999 207.217 229.361 207.939 228.912C208.669 228.463 209.499 228.238 210.43 228.238C211.868 228.238 213.031 228.736 213.916 229.732C214.808 230.729 215.254 232.053 215.254 233.707V233.834C215.254 234.863 215.055 235.787 214.658 236.607C214.268 237.421 213.704 238.056 212.969 238.512C212.24 238.967 211.4 239.195 210.449 239.195C209.017 239.195 207.855 238.697 206.963 237.701C206.077 236.705 205.635 235.387 205.635 233.746V233.619ZM207.451 233.834C207.451 235.006 207.721 235.947 208.262 236.656C208.809 237.366 209.538 237.721 210.449 237.721C211.367 237.721 212.096 237.363 212.637 236.646C213.177 235.924 213.447 234.915 213.447 233.619C213.447 232.46 213.171 231.523 212.617 230.807C212.07 230.084 211.341 229.723 210.43 229.723C209.538 229.723 208.818 230.077 208.271 230.787C207.725 231.497 207.451 232.512 207.451 233.834ZM219.482 239H217.676V224H219.482V239ZM228.906 237.955C228.203 238.782 227.171 239.195 225.811 239.195C224.684 239.195 223.825 238.87 223.232 238.219C222.646 237.561 222.35 236.591 222.344 235.309V228.434H224.15V235.26C224.15 236.861 224.801 237.662 226.104 237.662C227.484 237.662 228.402 237.148 228.857 236.119V228.434H230.664V239H228.945L228.906 237.955ZM235.869 225.875V228.434H237.842V229.83H235.869V236.383C235.869 236.806 235.957 237.125 236.133 237.34C236.309 237.548 236.608 237.652 237.031 237.652C237.24 237.652 237.526 237.613 237.891 237.535V239C237.415 239.13 236.953 239.195 236.504 239.195C235.697 239.195 235.088 238.951 234.678 238.463C234.268 237.975 234.062 237.281 234.062 236.383V229.83H232.139V228.434H234.062V225.875H235.869ZM241.924 239H240.117V228.434H241.924V239ZM239.971 225.631C239.971 225.338 240.059 225.09 240.234 224.889C240.417 224.687 240.684 224.586 241.035 224.586C241.387 224.586 241.654 224.687 241.836 224.889C242.018 225.09 242.109 225.338 242.109 225.631C242.109 225.924 242.018 226.168 241.836 226.363C241.654 226.559 241.387 226.656 241.035 226.656C240.684 226.656 240.417 226.559 240.234 226.363C240.059 226.168 239.971 225.924 239.971 225.631ZM244.346 233.619C244.346 232.584 244.548 231.653 244.951 230.826C245.361 229.999 245.928 229.361 246.65 228.912C247.38 228.463 248.21 228.238 249.141 228.238C250.579 228.238 251.742 228.736 252.627 229.732C253.519 230.729 253.965 232.053 253.965 233.707V233.834C253.965 234.863 253.766 235.787 253.369 236.607C252.979 237.421 252.415 238.056 251.68 238.512C250.951 238.967 250.111 239.195 249.16 239.195C247.728 239.195 246.566 238.697 245.674 237.701C244.788 236.705 244.346 235.387 244.346 233.746V233.619ZM246.162 233.834C246.162 235.006 246.432 235.947 246.973 236.656C247.52 237.366 248.249 237.721 249.16 237.721C250.078 237.721 250.807 237.363 251.348 236.646C251.888 235.924 252.158 234.915 252.158 233.619C252.158 232.46 251.882 231.523 251.328 230.807C250.781 230.084 250.052 229.723 249.141 229.723C248.249 229.723 247.529 230.077 246.982 230.787C246.436 231.497 246.162 232.512 246.162 233.834ZM257.939 228.434L257.998 229.762C258.805 228.746 259.86 228.238 261.162 228.238C263.395 228.238 264.521 229.498 264.541 232.018V239H262.734V232.008C262.728 231.246 262.552 230.683 262.207 230.318C261.868 229.954 261.338 229.771 260.615 229.771C260.029 229.771 259.515 229.928 259.072 230.24C258.63 230.553 258.285 230.963 258.037 231.471V239H256.23V228.434H257.939Z" fill="black"/>
<g clip-path="url(#clip0)">
<path d="M122.18 63.6171C121.31 63.6978 120.641 64.4216 120.629 65.2953V73.4327C120.641 74.3064 121.31 75.0302 122.18 75.1109L127.048 75.5811C127.595 77.5838 128.408 79.5041 129.464 81.291L126.387 85.0056C125.831 85.6767 125.879 86.6607 126.496 87.2759L132.249 93.0162C132.864 93.6305 133.847 93.6766 134.517 93.1216L138.243 90.032C140.035 91.0786 141.955 91.8881 143.955 92.4422L144.423 97.2875C144.507 98.1521 145.233 98.8125 146.102 98.815H154.251C155.12 98.8125 155.846 98.1513 155.93 97.2858L156.398 92.4439C158.404 91.9021 160.328 91.0934 162.119 90.041L165.836 93.1224C166.505 93.6774 167.488 93.6313 168.104 93.017L173.855 87.2767C174.472 86.6607 174.519 85.6767 173.962 85.0056L170.876 81.2836C171.922 79.4942 172.732 77.5764 173.288 75.5795L178.106 75.1109C178.975 75.0286 179.643 74.3056 179.655 73.4327V65.2953C179.643 64.4216 178.974 63.6978 178.104 63.6171L173.235 63.1469C172.688 61.1443 171.875 59.224 170.819 57.4362L173.896 53.7216C174.449 53.0538 174.405 52.0755 173.794 51.4596L168.112 45.7193C167.497 45.0975 166.508 45.049 165.836 45.6073L162.11 48.6969C160.318 47.6511 158.398 46.8408 156.399 46.2874L155.93 41.4859C155.842 40.6295 155.112 39.983 154.251 40.0003H146.102C145.241 39.983 144.511 40.6295 144.423 41.4859L143.955 46.3064C141.95 46.8449 140.025 47.6494 138.234 48.6985L134.517 45.6122C133.849 45.0564 132.866 45.1008 132.249 45.7143L126.498 51.4538C125.882 52.0689 125.835 53.0521 126.39 53.7233L129.477 57.4445C128.428 59.2338 127.612 61.15 127.053 63.1469L122.18 63.6171ZM130.06 65.0771C130.607 62.6355 131.59 60.3126 132.961 58.2193C133.364 57.6001 133.317 56.7915 132.846 56.2225L129.969 52.7541L133.546 49.1844L137.017 52.0632C137.589 52.5375 138.405 52.5811 139.025 52.171C141.106 50.7918 143.429 49.8151 145.872 49.2922C146.585 49.1547 147.123 48.5668 147.196 47.8446L147.633 43.3732H152.72L153.156 47.8438C153.229 48.5717 153.767 49.1662 154.484 49.3112C156.928 49.8481 159.253 50.8247 161.348 52.1925C161.967 52.5877 162.771 52.5375 163.336 52.0665L166.8 49.1918L170.32 52.7475L167.437 56.2233C166.963 56.7964 166.92 57.6133 167.332 58.2333C168.715 60.3117 169.694 62.6306 170.222 65.0697C170.39 65.7894 170.999 66.3205 171.735 66.3897L176.281 66.8269V71.9027L171.802 72.3383C171.073 72.4083 170.47 72.937 170.305 73.6509C169.756 76.0925 168.772 78.4155 167.399 80.5087C166.994 81.1263 167.04 81.9357 167.51 82.5048L170.385 85.974L166.807 89.5445L163.335 86.6657C162.763 86.1914 161.947 86.1477 161.328 86.5578C159.246 87.9371 156.923 88.9137 154.48 89.4366C153.761 89.5931 153.226 90.1959 153.156 90.9279L152.72 95.4421H147.633L147.196 90.9287C147.125 90.1959 146.588 89.5931 145.868 89.4391C143.425 88.8981 141.099 87.9182 139.005 86.5471C138.387 86.1494 137.582 86.198 137.016 86.6665L133.545 89.5453L129.968 85.9748L132.844 82.5056C133.319 81.9325 133.362 81.1156 132.949 80.4955C131.568 78.4171 130.588 76.0974 130.06 73.6583C129.892 72.9386 129.282 72.4075 128.547 72.3383L124.002 71.9011V66.8269L128.549 66.3897C129.282 66.3213 129.889 65.7935 130.06 65.0771Z" fill="#FFAC22"/>
<path d="M150.147 85.4547C159.031 85.4432 166.226 78.2338 166.218 69.3495C166.21 60.4652 159.003 53.2682 150.119 53.2715C141.235 53.2756 134.035 60.4792 134.035 69.3635C134.05 78.2527 141.259 85.4506 150.147 85.4547ZM150.147 56.6452C157.169 56.6567 162.852 62.3559 162.845 69.3775C162.838 76.3991 157.141 82.0859 150.119 82.0826C143.098 82.0785 137.407 76.3851 137.407 69.3635C137.421 62.3369 143.121 56.6468 150.147 56.6452Z" fill="#FFAC22"/>
<path d="M114.726 111.571V118.458C114.726 119.389 115.481 120.144 116.413 120.144C117.344 120.144 118.099 119.389 118.099 118.458V113.361H148.455V118.458C148.455 119.389 149.21 120.144 150.142 120.144C151.073 120.144 151.828 119.389 151.828 118.458V113.361H182.184V118.458C182.184 119.389 182.939 120.144 183.87 120.144C184.802 120.144 185.557 119.389 185.557 118.458V111.571C185.568 111.142 185.401 110.727 185.094 110.427C184.788 110.127 184.37 109.967 183.94 109.988H151.828V105.247C151.828 104.316 151.073 103.561 150.142 103.561C149.21 103.561 148.455 104.316 148.455 105.247V109.988H116.343C115.914 109.967 115.495 110.127 115.189 110.427C114.882 110.727 114.715 111.142 114.726 111.571Z" fill="#FFAC22"/>
<path d="M150.142 122.51C145.312 122.51 141.397 126.424 141.397 131.255C141.396 136.084 145.311 140 150.142 140C154.971 140 158.887 136.084 158.887 131.255C158.881 126.427 154.97 122.515 150.142 122.51ZM150.142 136.627C147.175 136.627 144.77 134.222 144.77 131.255C144.77 128.288 147.175 125.883 150.142 125.883C153.109 125.883 155.514 128.288 155.514 131.255C155.511 134.22 153.107 136.623 150.142 136.626V136.627Z" fill="#FFAC22"/>
<path d="M183.87 122.51C179.041 122.51 175.125 126.424 175.125 131.255C175.124 136.084 179.04 140 183.87 140C188.7 140 192.615 136.084 192.615 131.255C192.61 126.427 188.698 122.515 183.87 122.51ZM183.87 136.627C180.903 136.627 178.498 134.222 178.498 131.255C178.498 128.288 180.903 125.883 183.87 125.883C186.837 125.883 189.243 128.288 189.243 131.255C189.239 134.22 186.836 136.623 183.87 136.626V136.627Z" fill="#FFAC22"/>
<path d="M116.413 122.51C111.583 122.51 107.668 126.424 107.668 131.255C107.667 136.084 111.582 140 116.413 140C121.242 140 125.158 136.084 125.158 131.255C125.152 126.427 121.241 122.515 116.413 122.51ZM116.413 136.627C113.446 136.627 111.041 134.222 111.041 131.255C111.041 128.288 113.446 125.883 116.413 125.883C119.38 125.883 121.785 128.288 121.785 131.255C121.782 134.22 119.378 136.623 116.413 136.626V136.627Z" fill="#FFAC22"/>
</g>
<defs>
<clipPath id="clip0">
<rect width="100" height="100" fill="white" transform="translate(100 40)"/>
</clipPath>
</defs>
</svg>
