<svg width="300" height="358" viewBox="0 0 300 358" fill="none" xmlns="http://www.w3.org/2000/svg">
<path d="M66.8848 205.434V211H65.0098V196.781H70.2539C71.8099 196.781 73.0273 197.178 73.9062 197.973C74.7917 198.767 75.2344 199.818 75.2344 201.127C75.2344 202.507 74.8014 203.572 73.9355 204.32C73.0762 205.062 71.8424 205.434 70.2344 205.434H66.8848ZM66.8848 203.9H70.2539C71.2565 203.9 72.0247 203.666 72.5586 203.197C73.0924 202.722 73.3594 202.038 73.3594 201.146C73.3594 200.3 73.0924 199.623 72.5586 199.115C72.0247 198.607 71.2923 198.344 70.3613 198.324H66.8848V203.9ZM82.4512 202.055C82.1777 202.009 81.8815 201.986 81.5625 201.986C80.3776 201.986 79.5736 202.491 79.1504 203.5V211H77.3438V200.434H79.1016L79.1309 201.654C79.7233 200.71 80.5632 200.238 81.6504 200.238C82.002 200.238 82.2689 200.284 82.4512 200.375V202.055ZM86.084 211H84.2773V200.434H86.084V211ZM84.1309 197.631C84.1309 197.338 84.2188 197.09 84.3945 196.889C84.5768 196.687 84.8438 196.586 85.1953 196.586C85.5469 196.586 85.8138 196.687 85.9961 196.889C86.1784 197.09 86.2695 197.338 86.2695 197.631C86.2695 197.924 86.1784 198.168 85.9961 198.363C85.8138 198.559 85.5469 198.656 85.1953 198.656C84.8438 198.656 84.5768 198.559 84.3945 198.363C84.2188 198.168 84.1309 197.924 84.1309 197.631ZM93.2227 209.721C93.8672 209.721 94.4303 209.525 94.9121 209.135C95.3939 208.744 95.6608 208.256 95.7129 207.67H97.4219C97.3893 208.275 97.181 208.852 96.7969 209.398C96.4128 209.945 95.8984 210.382 95.2539 210.707C94.6159 211.033 93.9388 211.195 93.2227 211.195C91.7839 211.195 90.638 210.717 89.7852 209.76C88.9388 208.796 88.5156 207.481 88.5156 205.814V205.512C88.5156 204.483 88.7044 203.568 89.082 202.768C89.4596 201.967 90 201.345 90.7031 200.902C91.4128 200.46 92.2493 200.238 93.2129 200.238C94.3978 200.238 95.3809 200.593 96.1621 201.303C96.9499 202.012 97.3698 202.934 97.4219 204.066H95.7129C95.6608 203.383 95.4004 202.823 94.9316 202.387C94.4694 201.944 93.8965 201.723 93.2129 201.723C92.2949 201.723 91.582 202.055 91.0742 202.719C90.5729 203.376 90.3223 204.33 90.3223 205.58V205.922C90.3223 207.139 90.5729 208.077 91.0742 208.734C91.5755 209.392 92.2917 209.721 93.2227 209.721ZM101.416 211H99.6094V200.434H101.416V211ZM99.4629 197.631C99.4629 197.338 99.5508 197.09 99.7266 196.889C99.9089 196.687 100.176 196.586 100.527 196.586C100.879 196.586 101.146 196.687 101.328 196.889C101.51 197.09 101.602 197.338 101.602 197.631C101.602 197.924 101.51 198.168 101.328 198.363C101.146 198.559 100.879 198.656 100.527 198.656C100.176 198.656 99.9089 198.559 99.7266 198.363C99.5508 198.168 99.4629 197.924 99.4629 197.631ZM106.025 200.434L106.084 201.762C106.891 200.746 107.946 200.238 109.248 200.238C111.481 200.238 112.607 201.498 112.627 204.018V211H110.82V204.008C110.814 203.246 110.638 202.683 110.293 202.318C109.954 201.954 109.424 201.771 108.701 201.771C108.115 201.771 107.601 201.928 107.158 202.24C106.715 202.553 106.37 202.963 106.123 203.471V211H104.316V200.434H106.025ZM114.922 205.629C114.922 203.982 115.303 202.673 116.064 201.703C116.826 200.727 117.835 200.238 119.092 200.238C120.381 200.238 121.387 200.694 122.109 201.605L122.197 200.434H123.848V210.746C123.848 212.113 123.441 213.191 122.627 213.979C121.82 214.766 120.732 215.16 119.365 215.16C118.604 215.16 117.858 214.997 117.129 214.672C116.4 214.346 115.843 213.9 115.459 213.334L116.396 212.25C117.171 213.207 118.118 213.686 119.238 213.686C120.117 213.686 120.801 213.438 121.289 212.943C121.784 212.449 122.031 211.752 122.031 210.854V209.945C121.309 210.779 120.322 211.195 119.072 211.195C117.835 211.195 116.833 210.697 116.064 209.701C115.303 208.705 114.922 207.348 114.922 205.629ZM116.738 205.834C116.738 207.025 116.982 207.963 117.471 208.646C117.959 209.324 118.643 209.662 119.521 209.662C120.661 209.662 121.497 209.145 122.031 208.109V203.285C121.478 202.276 120.648 201.771 119.541 201.771C118.662 201.771 117.975 202.113 117.48 202.797C116.986 203.48 116.738 204.493 116.738 205.834ZM126.523 210.053C126.523 209.74 126.615 209.48 126.797 209.271C126.986 209.063 127.266 208.959 127.637 208.959C128.008 208.959 128.288 209.063 128.477 209.271C128.672 209.48 128.77 209.74 128.77 210.053C128.77 210.352 128.672 210.603 128.477 210.805C128.288 211.007 128.008 211.107 127.637 211.107C127.266 211.107 126.986 211.007 126.797 210.805C126.615 210.603 126.523 210.352 126.523 210.053ZM126.533 201.43C126.533 201.117 126.624 200.857 126.807 200.648C126.995 200.44 127.275 200.336 127.646 200.336C128.018 200.336 128.298 200.44 128.486 200.648C128.682 200.857 128.779 201.117 128.779 201.43C128.779 201.729 128.682 201.98 128.486 202.182C128.298 202.383 128.018 202.484 127.646 202.484C127.275 202.484 126.995 202.383 126.807 202.182C126.624 201.98 126.533 201.729 126.533 201.43ZM142.988 197.533C142.181 197.403 141.53 197.338 141.035 197.338C139.733 197.338 139.082 198.021 139.082 199.389V200.434H141.338V201.83H139.082V211H137.275V201.83H135.605V200.434H137.275V199.281C137.282 198.155 137.598 197.292 138.223 196.693C138.848 196.094 139.736 195.795 140.889 195.795C141.546 195.795 142.848 195.993 144.795 196.391V211H142.988V197.533ZM152.139 211.195C150.706 211.195 149.541 210.727 148.643 209.789C147.744 208.845 147.295 207.585 147.295 206.01V205.678C147.295 204.63 147.493 203.695 147.891 202.875C148.294 202.048 148.854 201.404 149.57 200.941C150.293 200.473 151.074 200.238 151.914 200.238C153.288 200.238 154.355 200.691 155.117 201.596C155.879 202.501 156.26 203.796 156.26 205.482V206.234H149.102C149.128 207.276 149.43 208.119 150.01 208.764C150.596 209.402 151.338 209.721 152.236 209.721C152.874 209.721 153.415 209.59 153.857 209.33C154.3 209.07 154.688 208.725 155.02 208.295L156.123 209.154C155.238 210.515 153.91 211.195 152.139 211.195ZM151.914 201.723C151.185 201.723 150.573 201.99 150.078 202.523C149.583 203.051 149.277 203.793 149.16 204.75H154.453V204.613C154.401 203.695 154.154 202.986 153.711 202.484C153.268 201.977 152.669 201.723 151.914 201.723ZM161.904 204.291L164.248 200.434H166.357L162.9 205.658L166.465 211H164.375L161.934 207.045L159.492 211H157.393L160.957 205.658L157.5 200.434H159.59L161.904 204.291ZM170.244 211H168.438V200.434H170.244V211ZM168.291 197.631C168.291 197.338 168.379 197.09 168.555 196.889C168.737 196.687 169.004 196.586 169.355 196.586C169.707 196.586 169.974 196.687 170.156 196.889C170.339 197.09 170.43 197.338 170.43 197.631C170.43 197.924 170.339 198.168 170.156 198.363C169.974 198.559 169.707 198.656 169.355 198.656C169.004 198.656 168.737 198.559 168.555 198.363C168.379 198.168 168.291 197.924 168.291 197.631ZM182.09 205.834C182.09 207.449 181.719 208.747 180.977 209.73C180.234 210.707 179.238 211.195 177.988 211.195C176.654 211.195 175.622 210.723 174.893 209.779L174.805 211H173.145V196H174.951V201.596C175.68 200.691 176.686 200.238 177.969 200.238C179.251 200.238 180.257 200.723 180.986 201.693C181.722 202.663 182.09 203.992 182.09 205.678V205.834ZM180.283 205.629C180.283 204.398 180.046 203.448 179.57 202.777C179.095 202.107 178.411 201.771 177.52 201.771C176.328 201.771 175.472 202.325 174.951 203.432V208.002C175.505 209.109 176.367 209.662 177.539 209.662C178.405 209.662 179.079 209.327 179.561 208.656C180.042 207.986 180.283 206.977 180.283 205.629ZM186.338 211H184.531V196H186.338V211ZM193.623 211.195C192.191 211.195 191.025 210.727 190.127 209.789C189.229 208.845 188.779 207.585 188.779 206.01V205.678C188.779 204.63 188.978 203.695 189.375 202.875C189.779 202.048 190.339 201.404 191.055 200.941C191.777 200.473 192.559 200.238 193.398 200.238C194.772 200.238 195.84 200.691 196.602 201.596C197.363 202.501 197.744 203.796 197.744 205.482V206.234H190.586C190.612 207.276 190.915 208.119 191.494 208.764C192.08 209.402 192.822 209.721 193.721 209.721C194.359 209.721 194.899 209.59 195.342 209.33C195.785 209.07 196.172 208.725 196.504 208.295L197.607 209.154C196.722 210.515 195.394 211.195 193.623 211.195ZM193.398 201.723C192.669 201.723 192.057 201.99 191.562 202.523C191.068 203.051 190.762 203.793 190.645 204.75H195.938V204.613C195.885 203.695 195.638 202.986 195.195 202.484C194.753 201.977 194.154 201.723 193.398 201.723ZM211.328 211C211.224 210.792 211.139 210.421 211.074 209.887C210.234 210.759 209.232 211.195 208.066 211.195C207.025 211.195 206.169 210.902 205.498 210.316C204.834 209.724 204.502 208.975 204.502 208.07C204.502 206.97 204.919 206.117 205.752 205.512C206.592 204.9 207.77 204.594 209.287 204.594H211.045V203.764C211.045 203.132 210.856 202.631 210.479 202.26C210.101 201.882 209.544 201.693 208.809 201.693C208.164 201.693 207.624 201.856 207.188 202.182C206.751 202.507 206.533 202.901 206.533 203.363H204.717C204.717 202.836 204.902 202.328 205.273 201.84C205.651 201.345 206.159 200.954 206.797 200.668C207.441 200.382 208.148 200.238 208.916 200.238C210.133 200.238 211.087 200.544 211.777 201.156C212.467 201.762 212.826 202.598 212.852 203.666V208.529C212.852 209.499 212.975 210.271 213.223 210.844V211H211.328ZM208.33 209.623C208.896 209.623 209.434 209.477 209.941 209.184C210.449 208.891 210.817 208.51 211.045 208.041V205.873H209.629C207.415 205.873 206.309 206.521 206.309 207.816C206.309 208.383 206.497 208.826 206.875 209.145C207.253 209.464 207.738 209.623 208.33 209.623ZM217.393 200.434L217.451 201.762C218.258 200.746 219.313 200.238 220.615 200.238C222.848 200.238 223.975 201.498 223.994 204.018V211H222.188V204.008C222.181 203.246 222.005 202.683 221.66 202.318C221.322 201.954 220.791 201.771 220.068 201.771C219.482 201.771 218.968 201.928 218.525 202.24C218.083 202.553 217.738 202.963 217.49 203.471V211H215.684V200.434H217.393ZM226.279 205.629C226.279 204.008 226.663 202.706 227.432 201.723C228.2 200.733 229.206 200.238 230.449 200.238C231.686 200.238 232.666 200.661 233.389 201.508V196H235.195V211H233.535L233.447 209.867C232.725 210.753 231.719 211.195 230.43 211.195C229.206 211.195 228.206 210.694 227.432 209.691C226.663 208.689 226.279 207.38 226.279 205.766V205.629ZM228.086 205.834C228.086 207.032 228.333 207.969 228.828 208.646C229.323 209.324 230.007 209.662 230.879 209.662C232.025 209.662 232.861 209.148 233.389 208.119V203.266C232.848 202.27 232.018 201.771 230.898 201.771C230.013 201.771 229.323 202.113 228.828 202.797C228.333 203.48 228.086 204.493 228.086 205.834ZM41.0156 236.51L43.0469 228.434H44.8535L41.7773 239H40.3125L37.7441 230.992L35.2441 239H33.7793L30.7129 228.434H32.5098L34.5898 236.344L37.0508 228.434H38.5059L41.0156 236.51ZM51.084 239.195C49.6517 239.195 48.4863 238.727 47.5879 237.789C46.6895 236.845 46.2402 235.585 46.2402 234.01V233.678C46.2402 232.63 46.4388 231.695 46.8359 230.875C47.2396 230.048 47.7995 229.404 48.5156 228.941C49.2383 228.473 50.0195 228.238 50.8594 228.238C52.2331 228.238 53.3008 228.691 54.0625 229.596C54.8242 230.501 55.2051 231.796 55.2051 233.482V234.234H48.0469C48.0729 235.276 48.3757 236.119 48.9551 236.764C49.541 237.402 50.2832 237.721 51.1816 237.721C51.8197 237.721 52.36 237.59 52.8027 237.33C53.2454 237.07 53.6328 236.725 53.9648 236.295L55.0684 237.154C54.1829 238.515 52.8548 239.195 51.084 239.195ZM50.8594 229.723C50.1302 229.723 49.5182 229.99 49.0234 230.523C48.5286 231.051 48.2227 231.793 48.1055 232.75H53.3984V232.613C53.3464 231.695 53.099 230.986 52.6562 230.484C52.2135 229.977 51.6146 229.723 50.8594 229.723ZM59.2676 239H57.4609V224H59.2676V239ZM66.4062 237.721C67.0508 237.721 67.6139 237.525 68.0957 237.135C68.5775 236.744 68.8444 236.256 68.8965 235.67H70.6055C70.5729 236.275 70.3646 236.852 69.9805 237.398C69.5964 237.945 69.082 238.382 68.4375 238.707C67.7995 239.033 67.1224 239.195 66.4062 239.195C64.9674 239.195 63.8216 238.717 62.9688 237.76C62.1224 236.796 61.6992 235.481 61.6992 233.814V233.512C61.6992 232.483 61.888 231.568 62.2656 230.768C62.6432 229.967 63.1836 229.345 63.8867 228.902C64.5964 228.46 65.4329 228.238 66.3965 228.238C67.5814 228.238 68.5645 228.593 69.3457 229.303C70.1335 230.012 70.5534 230.934 70.6055 232.066H68.8965C68.8444 231.383 68.584 230.823 68.1152 230.387C67.653 229.944 67.0801 229.723 66.3965 229.723C65.4785 229.723 64.7656 230.055 64.2578 230.719C63.7565 231.376 63.5059 232.33 63.5059 233.58V233.922C63.5059 235.139 63.7565 236.077 64.2578 236.734C64.7591 237.392 65.4753 237.721 66.4062 237.721ZM72.1582 233.619C72.1582 232.584 72.36 231.653 72.7637 230.826C73.1738 229.999 73.7402 229.361 74.4629 228.912C75.1921 228.463 76.0221 228.238 76.9531 228.238C78.3919 228.238 79.554 228.736 80.4395 229.732C81.3314 230.729 81.7773 232.053 81.7773 233.707V233.834C81.7773 234.863 81.5788 235.787 81.1816 236.607C80.791 237.421 80.2279 238.056 79.4922 238.512C78.763 238.967 77.9232 239.195 76.9727 239.195C75.5404 239.195 74.3783 238.697 73.4863 237.701C72.6009 236.705 72.1582 235.387 72.1582 233.746V233.619ZM73.9746 233.834C73.9746 235.006 74.2448 235.947 74.7852 236.656C75.332 237.366 76.0612 237.721 76.9727 237.721C77.8906 237.721 78.6198 237.363 79.1602 236.646C79.7005 235.924 79.9707 234.915 79.9707 233.619C79.9707 232.46 79.694 231.523 79.1406 230.807C78.5938 230.084 77.8646 229.723 76.9531 229.723C76.0612 229.723 75.3418 230.077 74.7949 230.787C74.248 231.497 73.9746 232.512 73.9746 233.834ZM85.7422 228.434L85.791 229.605C86.5658 228.694 87.6107 228.238 88.9258 228.238C90.4036 228.238 91.4095 228.805 91.9434 229.938C92.2949 229.43 92.7507 229.02 93.3105 228.707C93.877 228.395 94.5443 228.238 95.3125 228.238C97.6302 228.238 98.8086 229.465 98.8477 231.92V239H97.041V232.027C97.041 231.272 96.8685 230.709 96.5234 230.338C96.1784 229.96 95.599 229.771 94.7852 229.771C94.1146 229.771 93.5579 229.973 93.1152 230.377C92.6725 230.774 92.4154 231.311 92.3438 231.988V239H90.5273V232.076C90.5273 230.54 89.7754 229.771 88.2715 229.771C87.0866 229.771 86.276 230.276 85.8398 231.285V239H84.0332V228.434H85.7422ZM103.545 239H101.738V228.434H103.545V239ZM101.592 225.631C101.592 225.338 101.68 225.09 101.855 224.889C102.038 224.687 102.305 224.586 102.656 224.586C103.008 224.586 103.275 224.687 103.457 224.889C103.639 225.09 103.73 225.338 103.73 225.631C103.73 225.924 103.639 226.168 103.457 226.363C103.275 226.559 103.008 226.656 102.656 226.656C102.305 226.656 102.038 226.559 101.855 226.363C101.68 226.168 101.592 225.924 101.592 225.631ZM108.154 228.434L108.213 229.762C109.02 228.746 110.075 228.238 111.377 228.238C113.61 228.238 114.736 229.498 114.756 232.018V239H112.949V232.008C112.943 231.246 112.767 230.683 112.422 230.318C112.083 229.954 111.553 229.771 110.83 229.771C110.244 229.771 109.73 229.928 109.287 230.24C108.844 230.553 108.499 230.963 108.252 231.471V239H106.445V228.434H108.154ZM117.051 233.629C117.051 231.982 117.432 230.673 118.193 229.703C118.955 228.727 119.964 228.238 121.221 228.238C122.51 228.238 123.516 228.694 124.238 229.605L124.326 228.434H125.977V238.746C125.977 240.113 125.57 241.191 124.756 241.979C123.949 242.766 122.861 243.16 121.494 243.16C120.732 243.16 119.987 242.997 119.258 242.672C118.529 242.346 117.972 241.9 117.588 241.334L118.525 240.25C119.3 241.207 120.247 241.686 121.367 241.686C122.246 241.686 122.93 241.438 123.418 240.943C123.913 240.449 124.16 239.752 124.16 238.854V237.945C123.438 238.779 122.451 239.195 121.201 239.195C119.964 239.195 118.962 238.697 118.193 237.701C117.432 236.705 117.051 235.348 117.051 233.629ZM118.867 233.834C118.867 235.025 119.111 235.963 119.6 236.646C120.088 237.324 120.771 237.662 121.65 237.662C122.79 237.662 123.626 237.145 124.16 236.109V231.285C123.607 230.276 122.777 229.771 121.67 229.771C120.791 229.771 120.104 230.113 119.609 230.797C119.115 231.48 118.867 232.493 118.867 233.834ZM142.598 233.834C142.598 235.442 142.23 236.738 141.494 237.721C140.758 238.704 139.762 239.195 138.506 239.195C137.223 239.195 136.214 238.788 135.479 237.975V243.062H133.672V228.434H135.322L135.41 229.605C136.146 228.694 137.168 228.238 138.477 228.238C139.746 228.238 140.749 228.717 141.484 229.674C142.227 230.631 142.598 231.962 142.598 233.668V233.834ZM140.791 233.629C140.791 232.438 140.537 231.497 140.029 230.807C139.521 230.117 138.825 229.771 137.939 229.771C136.846 229.771 136.025 230.257 135.479 231.227V236.275C136.019 237.239 136.846 237.721 137.959 237.721C138.825 237.721 139.512 237.379 140.02 236.695C140.534 236.005 140.791 234.983 140.791 233.629ZM150.01 230.055C149.736 230.009 149.44 229.986 149.121 229.986C147.936 229.986 147.132 230.491 146.709 231.5V239H144.902V228.434H146.66L146.689 229.654C147.282 228.71 148.122 228.238 149.209 228.238C149.561 228.238 149.827 228.284 150.01 228.375V230.055ZM153.643 239H151.836V228.434H153.643V239ZM151.689 225.631C151.689 225.338 151.777 225.09 151.953 224.889C152.135 224.687 152.402 224.586 152.754 224.586C153.105 224.586 153.372 224.687 153.555 224.889C153.737 225.09 153.828 225.338 153.828 225.631C153.828 225.924 153.737 226.168 153.555 226.363C153.372 226.559 153.105 226.656 152.754 226.656C152.402 226.656 152.135 226.559 151.953 226.363C151.777 226.168 151.689 225.924 151.689 225.631ZM160.781 237.721C161.426 237.721 161.989 237.525 162.471 237.135C162.952 236.744 163.219 236.256 163.271 235.67H164.98C164.948 236.275 164.74 236.852 164.355 237.398C163.971 237.945 163.457 238.382 162.812 238.707C162.174 239.033 161.497 239.195 160.781 239.195C159.342 239.195 158.197 238.717 157.344 237.76C156.497 236.796 156.074 235.481 156.074 233.814V233.512C156.074 232.483 156.263 231.568 156.641 230.768C157.018 229.967 157.559 229.345 158.262 228.902C158.971 228.46 159.808 228.238 160.771 228.238C161.956 228.238 162.939 228.593 163.721 229.303C164.508 230.012 164.928 230.934 164.98 232.066H163.271C163.219 231.383 162.959 230.823 162.49 230.387C162.028 229.944 161.455 229.723 160.771 229.723C159.854 229.723 159.141 230.055 158.633 230.719C158.132 231.376 157.881 232.33 157.881 233.58V233.922C157.881 235.139 158.132 236.077 158.633 236.734C159.134 237.392 159.85 237.721 160.781 237.721ZM168.975 239H167.168V228.434H168.975V239ZM167.021 225.631C167.021 225.338 167.109 225.09 167.285 224.889C167.467 224.687 167.734 224.586 168.086 224.586C168.438 224.586 168.704 224.687 168.887 224.889C169.069 225.09 169.16 225.338 169.16 225.631C169.16 225.924 169.069 226.168 168.887 226.363C168.704 226.559 168.438 226.656 168.086 226.656C167.734 226.656 167.467 226.559 167.285 226.363C167.109 226.168 167.021 225.924 167.021 225.631ZM173.584 228.434L173.643 229.762C174.45 228.746 175.505 228.238 176.807 228.238C179.04 228.238 180.166 229.498 180.186 232.018V239H178.379V232.008C178.372 231.246 178.197 230.683 177.852 230.318C177.513 229.954 176.982 229.771 176.26 229.771C175.674 229.771 175.16 229.928 174.717 230.24C174.274 230.553 173.929 230.963 173.682 231.471V239H171.875V228.434H173.584ZM182.48 233.629C182.48 231.982 182.861 230.673 183.623 229.703C184.385 228.727 185.394 228.238 186.65 228.238C187.939 228.238 188.945 228.694 189.668 229.605L189.756 228.434H191.406V238.746C191.406 240.113 190.999 241.191 190.186 241.979C189.378 242.766 188.291 243.16 186.924 243.16C186.162 243.16 185.417 242.997 184.688 242.672C183.958 242.346 183.402 241.9 183.018 241.334L183.955 240.25C184.73 241.207 185.677 241.686 186.797 241.686C187.676 241.686 188.359 241.438 188.848 240.943C189.342 240.449 189.59 239.752 189.59 238.854V237.945C188.867 238.779 187.881 239.195 186.631 239.195C185.394 239.195 184.391 238.697 183.623 237.701C182.861 236.705 182.48 235.348 182.48 233.629ZM184.297 233.834C184.297 235.025 184.541 235.963 185.029 236.646C185.518 237.324 186.201 237.662 187.08 237.662C188.219 237.662 189.056 237.145 189.59 236.109V231.285C189.036 230.276 188.206 229.771 187.1 229.771C186.221 229.771 185.534 230.113 185.039 230.797C184.544 231.48 184.297 232.493 184.297 233.834ZM205.254 236.197C205.254 235.709 205.068 235.331 204.697 235.064C204.333 234.791 203.691 234.557 202.773 234.361C201.862 234.166 201.136 233.932 200.596 233.658C200.062 233.385 199.665 233.059 199.404 232.682C199.15 232.304 199.023 231.855 199.023 231.334C199.023 230.468 199.388 229.736 200.117 229.137C200.853 228.538 201.79 228.238 202.93 228.238C204.128 228.238 205.098 228.548 205.84 229.166C206.589 229.785 206.963 230.576 206.963 231.539H205.146C205.146 231.044 204.935 230.618 204.512 230.26C204.095 229.902 203.568 229.723 202.93 229.723C202.272 229.723 201.758 229.866 201.387 230.152C201.016 230.439 200.83 230.813 200.83 231.275C200.83 231.712 201.003 232.04 201.348 232.262C201.693 232.483 202.314 232.695 203.213 232.896C204.118 233.098 204.85 233.339 205.41 233.619C205.97 233.899 206.383 234.238 206.65 234.635C206.924 235.025 207.061 235.504 207.061 236.07C207.061 237.014 206.683 237.773 205.928 238.346C205.173 238.912 204.193 239.195 202.988 239.195C202.142 239.195 201.393 239.046 200.742 238.746C200.091 238.447 199.58 238.03 199.209 237.496C198.844 236.956 198.662 236.373 198.662 235.748H200.469C200.501 236.354 200.742 236.835 201.191 237.193C201.647 237.545 202.246 237.721 202.988 237.721C203.672 237.721 204.219 237.584 204.629 237.311C205.046 237.031 205.254 236.66 205.254 236.197ZM211.865 225.875V228.434H213.838V229.83H211.865V236.383C211.865 236.806 211.953 237.125 212.129 237.34C212.305 237.548 212.604 237.652 213.027 237.652C213.236 237.652 213.522 237.613 213.887 237.535V239C213.411 239.13 212.949 239.195 212.5 239.195C211.693 239.195 211.084 238.951 210.674 238.463C210.264 237.975 210.059 237.281 210.059 236.383V229.83H208.135V228.434H210.059V225.875H211.865ZM221.064 230.055C220.791 230.009 220.495 229.986 220.176 229.986C218.991 229.986 218.187 230.491 217.764 231.5V239H215.957V228.434H217.715L217.744 229.654C218.337 228.71 219.176 228.238 220.264 228.238C220.615 228.238 220.882 228.284 221.064 228.375V230.055ZM228.867 239C228.763 238.792 228.678 238.421 228.613 237.887C227.773 238.759 226.771 239.195 225.605 239.195C224.564 239.195 223.708 238.902 223.037 238.316C222.373 237.724 222.041 236.975 222.041 236.07C222.041 234.97 222.458 234.117 223.291 233.512C224.131 232.9 225.309 232.594 226.826 232.594H228.584V231.764C228.584 231.132 228.395 230.631 228.018 230.26C227.64 229.882 227.083 229.693 226.348 229.693C225.703 229.693 225.163 229.856 224.727 230.182C224.29 230.507 224.072 230.901 224.072 231.363H222.256C222.256 230.836 222.441 230.328 222.812 229.84C223.19 229.345 223.698 228.954 224.336 228.668C224.98 228.382 225.687 228.238 226.455 228.238C227.673 228.238 228.626 228.544 229.316 229.156C230.007 229.762 230.365 230.598 230.391 231.666V236.529C230.391 237.499 230.514 238.271 230.762 238.844V239H228.867ZM225.869 237.623C226.436 237.623 226.973 237.477 227.48 237.184C227.988 236.891 228.356 236.51 228.584 236.041V233.873H227.168C224.954 233.873 223.848 234.521 223.848 235.816C223.848 236.383 224.036 236.826 224.414 237.145C224.792 237.464 225.277 237.623 225.869 237.623ZM235.674 225.875V228.434H237.646V229.83H235.674V236.383C235.674 236.806 235.762 237.125 235.938 237.34C236.113 237.548 236.413 237.652 236.836 237.652C237.044 237.652 237.331 237.613 237.695 237.535V239C237.22 239.13 236.758 239.195 236.309 239.195C235.501 239.195 234.893 238.951 234.482 238.463C234.072 237.975 233.867 237.281 233.867 236.383V229.83H231.943V228.434H233.867V225.875H235.674ZM244.15 239.195C242.718 239.195 241.553 238.727 240.654 237.789C239.756 236.845 239.307 235.585 239.307 234.01V233.678C239.307 232.63 239.505 231.695 239.902 230.875C240.306 230.048 240.866 229.404 241.582 228.941C242.305 228.473 243.086 228.238 243.926 228.238C245.299 228.238 246.367 228.691 247.129 229.596C247.891 230.501 248.271 231.796 248.271 233.482V234.234H241.113C241.139 235.276 241.442 236.119 242.021 236.764C242.607 237.402 243.35 237.721 244.248 237.721C244.886 237.721 245.426 237.59 245.869 237.33C246.312 237.07 246.699 236.725 247.031 236.295L248.135 237.154C247.249 238.515 245.921 239.195 244.15 239.195ZM243.926 229.723C243.197 229.723 242.585 229.99 242.09 230.523C241.595 231.051 241.289 231.793 241.172 232.75H246.465V232.613C246.413 231.695 246.165 230.986 245.723 230.484C245.28 229.977 244.681 229.723 243.926 229.723ZM249.941 233.629C249.941 231.982 250.322 230.673 251.084 229.703C251.846 228.727 252.855 228.238 254.111 228.238C255.4 228.238 256.406 228.694 257.129 229.605L257.217 228.434H258.867V238.746C258.867 240.113 258.46 241.191 257.646 241.979C256.839 242.766 255.752 243.16 254.385 243.16C253.623 243.16 252.878 242.997 252.148 242.672C251.419 242.346 250.863 241.9 250.479 241.334L251.416 240.25C252.191 241.207 253.138 241.686 254.258 241.686C255.137 241.686 255.82 241.438 256.309 240.943C256.803 240.449 257.051 239.752 257.051 238.854V237.945C256.328 238.779 255.342 239.195 254.092 239.195C252.855 239.195 251.852 238.697 251.084 237.701C250.322 236.705 249.941 235.348 249.941 233.629ZM251.758 233.834C251.758 235.025 252.002 235.963 252.49 236.646C252.979 237.324 253.662 237.662 254.541 237.662C255.68 237.662 256.517 237.145 257.051 236.109V231.285C256.497 230.276 255.667 229.771 254.561 229.771C253.682 229.771 252.995 230.113 252.5 230.797C252.005 231.48 251.758 232.493 251.758 233.834ZM265.059 236.354L267.52 228.434H269.453L265.205 240.631C264.548 242.389 263.503 243.268 262.07 243.268L261.729 243.238L261.055 243.111V241.646L261.543 241.686C262.155 241.686 262.63 241.562 262.969 241.314C263.314 241.067 263.597 240.615 263.818 239.957L264.219 238.883L260.449 228.434H262.422L265.059 236.354ZM50.2539 264.51L52.2852 256.434H54.0918L51.0156 267H49.5508L46.9824 258.992L44.4824 267H43.0176L39.9512 256.434H41.748L43.8281 264.344L46.2891 256.434H47.7441L50.2539 264.51ZM57.9004 267H56.0938V256.434H57.9004V267ZM55.9473 253.631C55.9473 253.338 56.0352 253.09 56.2109 252.889C56.3932 252.687 56.6602 252.586 57.0117 252.586C57.3633 252.586 57.6302 252.687 57.8125 252.889C57.9948 253.09 58.0859 253.338 58.0859 253.631C58.0859 253.924 57.9948 254.168 57.8125 254.363C57.6302 254.559 57.3633 254.656 57.0117 254.656C56.6602 254.656 56.3932 254.559 56.2109 254.363C56.0352 254.168 55.9473 253.924 55.9473 253.631ZM62.7637 267H60.957V252H62.7637V267ZM67.627 267H65.8203V252H67.627V267ZM79.7266 265.721C80.3711 265.721 80.9342 265.525 81.416 265.135C81.8978 264.744 82.1647 264.256 82.2168 263.67H83.9258C83.8932 264.275 83.6849 264.852 83.3008 265.398C82.9167 265.945 82.4023 266.382 81.7578 266.707C81.1198 267.033 80.4427 267.195 79.7266 267.195C78.2878 267.195 77.1419 266.717 76.2891 265.76C75.4427 264.796 75.0195 263.481 75.0195 261.814V261.512C75.0195 260.483 75.2083 259.568 75.5859 258.768C75.9635 257.967 76.5039 257.345 77.207 256.902C77.9167 256.46 78.7533 256.238 79.7168 256.238C80.9017 256.238 81.8848 256.593 82.666 257.303C83.4538 258.012 83.8737 258.934 83.9258 260.066H82.2168C82.1647 259.383 81.9043 258.823 81.4355 258.387C80.9733 257.944 80.4004 257.723 79.7168 257.723C78.7988 257.723 78.0859 258.055 77.5781 258.719C77.0768 259.376 76.8262 260.33 76.8262 261.58V261.922C76.8262 263.139 77.0768 264.077 77.5781 264.734C78.0794 265.392 78.7956 265.721 79.7266 265.721ZM85.4785 261.619C85.4785 260.584 85.6803 259.653 86.084 258.826C86.4941 257.999 87.0605 257.361 87.7832 256.912C88.5124 256.463 89.3424 256.238 90.2734 256.238C91.7122 256.238 92.8743 256.736 93.7598 257.732C94.6517 258.729 95.0977 260.053 95.0977 261.707V261.834C95.0977 262.863 94.8991 263.787 94.502 264.607C94.1113 265.421 93.5482 266.056 92.8125 266.512C92.0833 266.967 91.2435 267.195 90.293 267.195C88.8607 267.195 87.6986 266.697 86.8066 265.701C85.9212 264.705 85.4785 263.387 85.4785 261.746V261.619ZM87.2949 261.834C87.2949 263.006 87.5651 263.947 88.1055 264.656C88.6523 265.366 89.3815 265.721 90.293 265.721C91.2109 265.721 91.9401 265.363 92.4805 264.646C93.0208 263.924 93.291 262.915 93.291 261.619C93.291 260.46 93.0143 259.523 92.4609 258.807C91.9141 258.084 91.1849 257.723 90.2734 257.723C89.3815 257.723 88.6621 258.077 88.1152 258.787C87.5684 259.497 87.2949 260.512 87.2949 261.834ZM100.693 264.549L103.311 256.434H105.156L101.367 267H99.9902L96.1621 256.434H98.0078L100.693 264.549ZM111.143 267.195C109.71 267.195 108.545 266.727 107.646 265.789C106.748 264.845 106.299 263.585 106.299 262.01V261.678C106.299 260.63 106.497 259.695 106.895 258.875C107.298 258.048 107.858 257.404 108.574 256.941C109.297 256.473 110.078 256.238 110.918 256.238C112.292 256.238 113.359 256.691 114.121 257.596C114.883 258.501 115.264 259.796 115.264 261.482V262.234H108.105C108.132 263.276 108.434 264.119 109.014 264.764C109.6 265.402 110.342 265.721 111.24 265.721C111.878 265.721 112.419 265.59 112.861 265.33C113.304 265.07 113.691 264.725 114.023 264.295L115.127 265.154C114.242 266.515 112.913 267.195 111.143 267.195ZM110.918 257.723C110.189 257.723 109.577 257.99 109.082 258.523C108.587 259.051 108.281 259.793 108.164 260.75H113.457V260.613C113.405 259.695 113.158 258.986 112.715 258.484C112.272 257.977 111.673 257.723 110.918 257.723ZM122.471 258.055C122.197 258.009 121.901 257.986 121.582 257.986C120.397 257.986 119.593 258.491 119.17 259.5V267H117.363V256.434H119.121L119.15 257.654C119.743 256.71 120.583 256.238 121.67 256.238C122.021 256.238 122.288 256.284 122.471 256.375V258.055ZM131.553 253.875V256.434H133.525V257.83H131.553V264.383C131.553 264.806 131.641 265.125 131.816 265.34C131.992 265.548 132.292 265.652 132.715 265.652C132.923 265.652 133.21 265.613 133.574 265.535V267C133.099 267.13 132.637 267.195 132.188 267.195C131.38 267.195 130.771 266.951 130.361 266.463C129.951 265.975 129.746 265.281 129.746 264.383V257.83H127.822V256.434H129.746V253.875H131.553ZM137.451 257.713C138.252 256.73 139.294 256.238 140.576 256.238C142.809 256.238 143.936 257.498 143.955 260.018V267H142.148V260.008C142.142 259.246 141.966 258.683 141.621 258.318C141.283 257.954 140.752 257.771 140.029 257.771C139.443 257.771 138.929 257.928 138.486 258.24C138.044 258.553 137.699 258.963 137.451 259.471V267H135.645V252H137.451V257.713ZM151.045 267.195C149.613 267.195 148.447 266.727 147.549 265.789C146.65 264.845 146.201 263.585 146.201 262.01V261.678C146.201 260.63 146.4 259.695 146.797 258.875C147.201 258.048 147.76 257.404 148.477 256.941C149.199 256.473 149.98 256.238 150.82 256.238C152.194 256.238 153.262 256.691 154.023 257.596C154.785 258.501 155.166 259.796 155.166 261.482V262.234H148.008C148.034 263.276 148.337 264.119 148.916 264.764C149.502 265.402 150.244 265.721 151.143 265.721C151.781 265.721 152.321 265.59 152.764 265.33C153.206 265.07 153.594 264.725 153.926 264.295L155.029 265.154C154.144 266.515 152.816 267.195 151.045 267.195ZM150.82 257.723C150.091 257.723 149.479 257.99 148.984 258.523C148.49 259.051 148.184 259.793 148.066 260.75H153.359V260.613C153.307 259.695 153.06 258.986 152.617 258.484C152.174 257.977 151.576 257.723 150.82 257.723ZM164.678 253.875V256.434H166.65V257.83H164.678V264.383C164.678 264.806 164.766 265.125 164.941 265.34C165.117 265.548 165.417 265.652 165.84 265.652C166.048 265.652 166.335 265.613 166.699 265.535V267C166.224 267.13 165.762 267.195 165.312 267.195C164.505 267.195 163.896 266.951 163.486 266.463C163.076 265.975 162.871 265.281 162.871 264.383V257.83H160.947V256.434H162.871V253.875H164.678ZM173.877 258.055C173.604 258.009 173.307 257.986 172.988 257.986C171.803 257.986 170.999 258.491 170.576 259.5V267H168.77V256.434H170.527L170.557 257.654C171.149 256.71 171.989 256.238 173.076 256.238C173.428 256.238 173.695 256.284 173.877 256.375V258.055ZM181.68 267C181.576 266.792 181.491 266.421 181.426 265.887C180.586 266.759 179.583 267.195 178.418 267.195C177.376 267.195 176.52 266.902 175.85 266.316C175.186 265.724 174.854 264.975 174.854 264.07C174.854 262.97 175.27 262.117 176.104 261.512C176.943 260.9 178.122 260.594 179.639 260.594H181.396V259.764C181.396 259.132 181.208 258.631 180.83 258.26C180.452 257.882 179.896 257.693 179.16 257.693C178.516 257.693 177.975 257.856 177.539 258.182C177.103 258.507 176.885 258.901 176.885 259.363H175.068C175.068 258.836 175.254 258.328 175.625 257.84C176.003 257.345 176.51 256.954 177.148 256.668C177.793 256.382 178.499 256.238 179.268 256.238C180.485 256.238 181.439 256.544 182.129 257.156C182.819 257.762 183.177 258.598 183.203 259.666V264.529C183.203 265.499 183.327 266.271 183.574 266.844V267H181.68ZM178.682 265.623C179.248 265.623 179.785 265.477 180.293 265.184C180.801 264.891 181.169 264.51 181.396 264.041V261.873H179.98C177.767 261.873 176.66 262.521 176.66 263.816C176.66 264.383 176.849 264.826 177.227 265.145C177.604 265.464 178.089 265.623 178.682 265.623ZM187.744 256.434L187.803 257.762C188.61 256.746 189.665 256.238 190.967 256.238C193.2 256.238 194.326 257.498 194.346 260.018V267H192.539V260.008C192.533 259.246 192.357 258.683 192.012 258.318C191.673 257.954 191.143 257.771 190.42 257.771C189.834 257.771 189.32 257.928 188.877 258.24C188.434 258.553 188.089 258.963 187.842 259.471V267H186.035V256.434H187.744ZM203.223 264.197C203.223 263.709 203.037 263.331 202.666 263.064C202.301 262.791 201.66 262.557 200.742 262.361C199.831 262.166 199.105 261.932 198.564 261.658C198.031 261.385 197.633 261.059 197.373 260.682C197.119 260.304 196.992 259.855 196.992 259.334C196.992 258.468 197.357 257.736 198.086 257.137C198.822 256.538 199.759 256.238 200.898 256.238C202.096 256.238 203.066 256.548 203.809 257.166C204.557 257.785 204.932 258.576 204.932 259.539H203.115C203.115 259.044 202.904 258.618 202.48 258.26C202.064 257.902 201.536 257.723 200.898 257.723C200.241 257.723 199.727 257.866 199.355 258.152C198.984 258.439 198.799 258.813 198.799 259.275C198.799 259.712 198.971 260.04 199.316 260.262C199.661 260.483 200.283 260.695 201.182 260.896C202.087 261.098 202.819 261.339 203.379 261.619C203.939 261.899 204.352 262.238 204.619 262.635C204.893 263.025 205.029 263.504 205.029 264.07C205.029 265.014 204.652 265.773 203.896 266.346C203.141 266.912 202.161 267.195 200.957 267.195C200.111 267.195 199.362 267.046 198.711 266.746C198.06 266.447 197.549 266.03 197.178 265.496C196.813 264.956 196.631 264.373 196.631 263.748H198.438C198.47 264.354 198.711 264.835 199.16 265.193C199.616 265.545 200.215 265.721 200.957 265.721C201.641 265.721 202.188 265.584 202.598 265.311C203.014 265.031 203.223 264.66 203.223 264.197ZM209.346 267H207.539V256.434H209.346V267ZM207.393 253.631C207.393 253.338 207.48 253.09 207.656 252.889C207.839 252.687 208.105 252.586 208.457 252.586C208.809 252.586 209.076 252.687 209.258 252.889C209.44 253.09 209.531 253.338 209.531 253.631C209.531 253.924 209.44 254.168 209.258 254.363C209.076 254.559 208.809 254.656 208.457 254.656C208.105 254.656 207.839 254.559 207.656 254.363C207.48 254.168 207.393 253.924 207.393 253.631ZM214.697 253.875V256.434H216.67V257.83H214.697V264.383C214.697 264.806 214.785 265.125 214.961 265.34C215.137 265.548 215.436 265.652 215.859 265.652C216.068 265.652 216.354 265.613 216.719 265.535V267C216.243 267.13 215.781 267.195 215.332 267.195C214.525 267.195 213.916 266.951 213.506 266.463C213.096 265.975 212.891 265.281 212.891 264.383V257.83H210.967V256.434H212.891V253.875H214.697ZM220.752 267H218.945V256.434H220.752V267ZM218.799 253.631C218.799 253.338 218.887 253.09 219.062 252.889C219.245 252.687 219.512 252.586 219.863 252.586C220.215 252.586 220.482 252.687 220.664 252.889C220.846 253.09 220.938 253.338 220.938 253.631C220.938 253.924 220.846 254.168 220.664 254.363C220.482 254.559 220.215 254.656 219.863 254.656C219.512 254.656 219.245 254.559 219.062 254.363C218.887 254.168 218.799 253.924 218.799 253.631ZM223.174 261.619C223.174 260.584 223.376 259.653 223.779 258.826C224.189 257.999 224.756 257.361 225.479 256.912C226.208 256.463 227.038 256.238 227.969 256.238C229.408 256.238 230.57 256.736 231.455 257.732C232.347 258.729 232.793 260.053 232.793 261.707V261.834C232.793 262.863 232.594 263.787 232.197 264.607C231.807 265.421 231.243 266.056 230.508 266.512C229.779 266.967 228.939 267.195 227.988 267.195C226.556 267.195 225.394 266.697 224.502 265.701C223.617 264.705 223.174 263.387 223.174 261.746V261.619ZM224.99 261.834C224.99 263.006 225.26 263.947 225.801 264.656C226.348 265.366 227.077 265.721 227.988 265.721C228.906 265.721 229.635 265.363 230.176 264.646C230.716 263.924 230.986 262.915 230.986 261.619C230.986 260.46 230.71 259.523 230.156 258.807C229.609 258.084 228.88 257.723 227.969 257.723C227.077 257.723 226.357 258.077 225.811 258.787C225.264 259.497 224.99 260.512 224.99 261.834ZM236.768 256.434L236.826 257.762C237.633 256.746 238.688 256.238 239.99 256.238C242.223 256.238 243.35 257.498 243.369 260.018V267H241.562V260.008C241.556 259.246 241.38 258.683 241.035 258.318C240.697 257.954 240.166 257.771 239.443 257.771C238.857 257.771 238.343 257.928 237.9 258.24C237.458 258.553 237.113 258.963 236.865 259.471V267H235.059V256.434H236.768ZM252.617 267C252.513 266.792 252.428 266.421 252.363 265.887C251.523 266.759 250.521 267.195 249.355 267.195C248.314 267.195 247.458 266.902 246.787 266.316C246.123 265.724 245.791 264.975 245.791 264.07C245.791 262.97 246.208 262.117 247.041 261.512C247.881 260.9 249.059 260.594 250.576 260.594H252.334V259.764C252.334 259.132 252.145 258.631 251.768 258.26C251.39 257.882 250.833 257.693 250.098 257.693C249.453 257.693 248.913 257.856 248.477 258.182C248.04 258.507 247.822 258.901 247.822 259.363H246.006C246.006 258.836 246.191 258.328 246.562 257.84C246.94 257.345 247.448 256.954 248.086 256.668C248.73 256.382 249.437 256.238 250.205 256.238C251.423 256.238 252.376 256.544 253.066 257.156C253.757 257.762 254.115 258.598 254.141 259.666V264.529C254.141 265.499 254.264 266.271 254.512 266.844V267H252.617ZM249.619 265.623C250.186 265.623 250.723 265.477 251.23 265.184C251.738 264.891 252.106 264.51 252.334 264.041V261.873H250.918C248.704 261.873 247.598 262.521 247.598 263.816C247.598 264.383 247.786 264.826 248.164 265.145C248.542 265.464 249.027 265.623 249.619 265.623ZM258.936 267H257.129V252H258.936V267ZM33.8965 293.721C34.541 293.721 35.1042 293.525 35.5859 293.135C36.0677 292.744 36.3346 292.256 36.3867 291.67H38.0957C38.0632 292.275 37.8548 292.852 37.4707 293.398C37.0866 293.945 36.5723 294.382 35.9277 294.707C35.2897 295.033 34.6126 295.195 33.8965 295.195C32.4577 295.195 31.3118 294.717 30.459 293.76C29.6126 292.796 29.1895 291.481 29.1895 289.814V289.512C29.1895 288.483 29.3783 287.568 29.7559 286.768C30.1335 285.967 30.6738 285.345 31.377 284.902C32.0866 284.46 32.9232 284.238 33.8867 284.238C35.0716 284.238 36.0547 284.593 36.8359 285.303C37.6237 286.012 38.0436 286.934 38.0957 288.066H36.3867C36.3346 287.383 36.0742 286.823 35.6055 286.387C35.1432 285.944 34.5703 285.723 33.8867 285.723C32.9688 285.723 32.2559 286.055 31.748 286.719C31.2467 287.376 30.9961 288.33 30.9961 289.58V289.922C30.9961 291.139 31.2467 292.077 31.748 292.734C32.2493 293.392 32.9655 293.721 33.8965 293.721ZM39.6484 289.619C39.6484 288.584 39.8503 287.653 40.2539 286.826C40.6641 285.999 41.2305 285.361 41.9531 284.912C42.6823 284.463 43.5124 284.238 44.4434 284.238C45.8822 284.238 47.0443 284.736 47.9297 285.732C48.8216 286.729 49.2676 288.053 49.2676 289.707V289.834C49.2676 290.863 49.069 291.787 48.6719 292.607C48.2812 293.421 47.7181 294.056 46.9824 294.512C46.2533 294.967 45.4134 295.195 44.4629 295.195C43.0306 295.195 41.8685 294.697 40.9766 293.701C40.0911 292.705 39.6484 291.387 39.6484 289.746V289.619ZM41.4648 289.834C41.4648 291.006 41.735 291.947 42.2754 292.656C42.8223 293.366 43.5514 293.721 44.4629 293.721C45.3809 293.721 46.11 293.363 46.6504 292.646C47.1908 291.924 47.4609 290.915 47.4609 289.619C47.4609 288.46 47.1842 287.523 46.6309 286.807C46.084 286.084 45.3548 285.723 44.4434 285.723C43.5514 285.723 42.832 286.077 42.2852 286.787C41.7383 287.497 41.4648 288.512 41.4648 289.834ZM57.6855 292.197C57.6855 291.709 57.5 291.331 57.1289 291.064C56.7643 290.791 56.123 290.557 55.2051 290.361C54.2936 290.166 53.5677 289.932 53.0273 289.658C52.4935 289.385 52.0964 289.059 51.8359 288.682C51.582 288.304 51.4551 287.855 51.4551 287.334C51.4551 286.468 51.8197 285.736 52.5488 285.137C53.2845 284.538 54.222 284.238 55.3613 284.238C56.5592 284.238 57.5293 284.548 58.2715 285.166C59.0202 285.785 59.3945 286.576 59.3945 287.539H57.5781C57.5781 287.044 57.3665 286.618 56.9434 286.26C56.5267 285.902 55.9993 285.723 55.3613 285.723C54.7038 285.723 54.1895 285.866 53.8184 286.152C53.4473 286.439 53.2617 286.813 53.2617 287.275C53.2617 287.712 53.4342 288.04 53.7793 288.262C54.1243 288.483 54.7461 288.695 55.6445 288.896C56.5495 289.098 57.2819 289.339 57.8418 289.619C58.4017 289.899 58.8151 290.238 59.082 290.635C59.3555 291.025 59.4922 291.504 59.4922 292.07C59.4922 293.014 59.1146 293.773 58.3594 294.346C57.6042 294.912 56.6243 295.195 55.4199 295.195C54.5736 295.195 53.8249 295.046 53.1738 294.746C52.5228 294.447 52.0117 294.03 51.6406 293.496C51.276 292.956 51.0938 292.373 51.0938 291.748H52.9004C52.9329 292.354 53.1738 292.835 53.623 293.193C54.0788 293.545 54.6777 293.721 55.4199 293.721C56.1035 293.721 56.6504 293.584 57.0605 293.311C57.4772 293.031 57.6855 292.66 57.6855 292.197ZM64.2969 281.875V284.434H66.2695V285.83H64.2969V292.383C64.2969 292.806 64.3848 293.125 64.5605 293.34C64.7363 293.548 65.0358 293.652 65.459 293.652C65.6673 293.652 65.9538 293.613 66.3184 293.535V295C65.8431 295.13 65.3809 295.195 64.9316 295.195C64.1243 295.195 63.5156 294.951 63.1055 294.463C62.6953 293.975 62.4902 293.281 62.4902 292.383V285.83H60.5664V284.434H62.4902V281.875H64.2969ZM74.2383 295V285.83H72.5684V284.434H74.2383V283.35C74.2383 282.217 74.541 281.341 75.1465 280.723C75.752 280.104 76.6081 279.795 77.7148 279.795C78.1315 279.795 78.5449 279.85 78.9551 279.961L78.8574 281.426C78.5514 281.367 78.2259 281.338 77.8809 281.338C77.2949 281.338 76.8424 281.51 76.5234 281.855C76.2044 282.194 76.0449 282.682 76.0449 283.32V284.434H78.3008V285.83H76.0449V295H74.2383ZM79.8242 289.619C79.8242 288.584 80.026 287.653 80.4297 286.826C80.8398 285.999 81.4062 285.361 82.1289 284.912C82.8581 284.463 83.6882 284.238 84.6191 284.238C86.0579 284.238 87.2201 284.736 88.1055 285.732C88.9974 286.729 89.4434 288.053 89.4434 289.707V289.834C89.4434 290.863 89.2448 291.787 88.8477 292.607C88.457 293.421 87.8939 294.056 87.1582 294.512C86.429 294.967 85.5892 295.195 84.6387 295.195C83.2064 295.195 82.0443 294.697 81.1523 293.701C80.2669 292.705 79.8242 291.387 79.8242 289.746V289.619ZM81.6406 289.834C81.6406 291.006 81.9108 291.947 82.4512 292.656C82.998 293.366 83.7272 293.721 84.6387 293.721C85.5566 293.721 86.2858 293.363 86.8262 292.646C87.3665 291.924 87.6367 290.915 87.6367 289.619C87.6367 288.46 87.36 287.523 86.8066 286.807C86.2598 286.084 85.5306 285.723 84.6191 285.723C83.7272 285.723 83.0078 286.077 82.4609 286.787C81.9141 287.497 81.6406 288.512 81.6406 289.834ZM96.8164 286.055C96.543 286.009 96.2467 285.986 95.9277 285.986C94.7428 285.986 93.9388 286.491 93.5156 287.5V295H91.709V284.434H93.4668L93.4961 285.654C94.0885 284.71 94.9284 284.238 96.0156 284.238C96.3672 284.238 96.6341 284.284 96.8164 284.375V286.055ZM105.898 281.875V284.434H107.871V285.83H105.898V292.383C105.898 292.806 105.986 293.125 106.162 293.34C106.338 293.548 106.637 293.652 107.061 293.652C107.269 293.652 107.555 293.613 107.92 293.535V295C107.445 295.13 106.982 295.195 106.533 295.195C105.726 295.195 105.117 294.951 104.707 294.463C104.297 293.975 104.092 293.281 104.092 292.383V285.83H102.168V284.434H104.092V281.875H105.898ZM111.797 285.713C112.598 284.73 113.639 284.238 114.922 284.238C117.155 284.238 118.281 285.498 118.301 288.018V295H116.494V288.008C116.488 287.246 116.312 286.683 115.967 286.318C115.628 285.954 115.098 285.771 114.375 285.771C113.789 285.771 113.275 285.928 112.832 286.24C112.389 286.553 112.044 286.963 111.797 287.471V295H109.99V280H111.797V285.713ZM125.391 295.195C123.958 295.195 122.793 294.727 121.895 293.789C120.996 292.845 120.547 291.585 120.547 290.01V289.678C120.547 288.63 120.745 287.695 121.143 286.875C121.546 286.048 122.106 285.404 122.822 284.941C123.545 284.473 124.326 284.238 125.166 284.238C126.54 284.238 127.607 284.691 128.369 285.596C129.131 286.501 129.512 287.796 129.512 289.482V290.234H122.354C122.38 291.276 122.682 292.119 123.262 292.764C123.848 293.402 124.59 293.721 125.488 293.721C126.126 293.721 126.667 293.59 127.109 293.33C127.552 293.07 127.939 292.725 128.271 292.295L129.375 293.154C128.49 294.515 127.161 295.195 125.391 295.195ZM125.166 285.723C124.437 285.723 123.825 285.99 123.33 286.523C122.835 287.051 122.529 287.793 122.412 288.75H127.705V288.613C127.653 287.695 127.406 286.986 126.963 286.484C126.52 285.977 125.921 285.723 125.166 285.723ZM140.811 293.721C141.455 293.721 142.018 293.525 142.5 293.135C142.982 292.744 143.249 292.256 143.301 291.67H145.01C144.977 292.275 144.769 292.852 144.385 293.398C144.001 293.945 143.486 294.382 142.842 294.707C142.204 295.033 141.527 295.195 140.811 295.195C139.372 295.195 138.226 294.717 137.373 293.76C136.527 292.796 136.104 291.481 136.104 289.814V289.512C136.104 288.483 136.292 287.568 136.67 286.768C137.048 285.967 137.588 285.345 138.291 284.902C139.001 284.46 139.837 284.238 140.801 284.238C141.986 284.238 142.969 284.593 143.75 285.303C144.538 286.012 144.958 286.934 145.01 288.066H143.301C143.249 287.383 142.988 286.823 142.52 286.387C142.057 285.944 141.484 285.723 140.801 285.723C139.883 285.723 139.17 286.055 138.662 286.719C138.161 287.376 137.91 288.33 137.91 289.58V289.922C137.91 291.139 138.161 292.077 138.662 292.734C139.163 293.392 139.88 293.721 140.811 293.721ZM146.562 289.619C146.562 288.584 146.764 287.653 147.168 286.826C147.578 285.999 148.145 285.361 148.867 284.912C149.596 284.463 150.426 284.238 151.357 284.238C152.796 284.238 153.958 284.736 154.844 285.732C155.736 286.729 156.182 288.053 156.182 289.707V289.834C156.182 290.863 155.983 291.787 155.586 292.607C155.195 293.421 154.632 294.056 153.896 294.512C153.167 294.967 152.327 295.195 151.377 295.195C149.945 295.195 148.783 294.697 147.891 293.701C147.005 292.705 146.562 291.387 146.562 289.746V289.619ZM148.379 289.834C148.379 291.006 148.649 291.947 149.189 292.656C149.736 293.366 150.465 293.721 151.377 293.721C152.295 293.721 153.024 293.363 153.564 292.646C154.105 291.924 154.375 290.915 154.375 289.619C154.375 288.46 154.098 287.523 153.545 286.807C152.998 286.084 152.269 285.723 151.357 285.723C150.465 285.723 149.746 286.077 149.199 286.787C148.652 287.497 148.379 288.512 148.379 289.834ZM160.146 284.434L160.195 285.605C160.97 284.694 162.015 284.238 163.33 284.238C164.808 284.238 165.814 284.805 166.348 285.938C166.699 285.43 167.155 285.02 167.715 284.707C168.281 284.395 168.949 284.238 169.717 284.238C172.035 284.238 173.213 285.465 173.252 287.92V295H171.445V288.027C171.445 287.272 171.273 286.709 170.928 286.338C170.583 285.96 170.003 285.771 169.189 285.771C168.519 285.771 167.962 285.973 167.52 286.377C167.077 286.774 166.82 287.311 166.748 287.988V295H164.932V288.076C164.932 286.54 164.18 285.771 162.676 285.771C161.491 285.771 160.68 286.276 160.244 287.285V295H158.438V284.434H160.146ZM184.912 289.834C184.912 291.442 184.544 292.738 183.809 293.721C183.073 294.704 182.077 295.195 180.82 295.195C179.538 295.195 178.529 294.788 177.793 293.975V299.062H175.986V284.434H177.637L177.725 285.605C178.46 284.694 179.482 284.238 180.791 284.238C182.061 284.238 183.063 284.717 183.799 285.674C184.541 286.631 184.912 287.962 184.912 289.668V289.834ZM183.105 289.629C183.105 288.438 182.852 287.497 182.344 286.807C181.836 286.117 181.139 285.771 180.254 285.771C179.16 285.771 178.34 286.257 177.793 287.227V292.275C178.333 293.239 179.16 293.721 180.273 293.721C181.139 293.721 181.826 293.379 182.334 292.695C182.848 292.005 183.105 290.983 183.105 289.629ZM193.74 295C193.636 294.792 193.551 294.421 193.486 293.887C192.646 294.759 191.644 295.195 190.479 295.195C189.437 295.195 188.581 294.902 187.91 294.316C187.246 293.724 186.914 292.975 186.914 292.07C186.914 290.97 187.331 290.117 188.164 289.512C189.004 288.9 190.182 288.594 191.699 288.594H193.457V287.764C193.457 287.132 193.268 286.631 192.891 286.26C192.513 285.882 191.956 285.693 191.221 285.693C190.576 285.693 190.036 285.856 189.6 286.182C189.163 286.507 188.945 286.901 188.945 287.363H187.129C187.129 286.836 187.314 286.328 187.686 285.84C188.063 285.345 188.571 284.954 189.209 284.668C189.854 284.382 190.56 284.238 191.328 284.238C192.546 284.238 193.499 284.544 194.189 285.156C194.88 285.762 195.238 286.598 195.264 287.666V292.529C195.264 293.499 195.387 294.271 195.635 294.844V295H193.74ZM190.742 293.623C191.309 293.623 191.846 293.477 192.354 293.184C192.861 292.891 193.229 292.51 193.457 292.041V289.873H192.041C189.827 289.873 188.721 290.521 188.721 291.816C188.721 292.383 188.91 292.826 189.287 293.145C189.665 293.464 190.15 293.623 190.742 293.623ZM199.805 284.434L199.863 285.762C200.671 284.746 201.725 284.238 203.027 284.238C205.26 284.238 206.387 285.498 206.406 288.018V295H204.6V288.008C204.593 287.246 204.417 286.683 204.072 286.318C203.734 285.954 203.203 285.771 202.48 285.771C201.895 285.771 201.38 285.928 200.938 286.24C200.495 286.553 200.15 286.963 199.902 287.471V295H198.096V284.434H199.805ZM211.094 295H209.287V284.434H211.094V295ZM209.141 281.631C209.141 281.338 209.229 281.09 209.404 280.889C209.587 280.687 209.854 280.586 210.205 280.586C210.557 280.586 210.824 280.687 211.006 280.889C211.188 281.09 211.279 281.338 211.279 281.631C211.279 281.924 211.188 282.168 211.006 282.363C210.824 282.559 210.557 282.656 210.205 282.656C209.854 282.656 209.587 282.559 209.404 282.363C209.229 282.168 209.141 281.924 209.141 281.631ZM218.379 295.195C216.947 295.195 215.781 294.727 214.883 293.789C213.984 292.845 213.535 291.585 213.535 290.01V289.678C213.535 288.63 213.734 287.695 214.131 286.875C214.535 286.048 215.094 285.404 215.811 284.941C216.533 284.473 217.314 284.238 218.154 284.238C219.528 284.238 220.596 284.691 221.357 285.596C222.119 286.501 222.5 287.796 222.5 289.482V290.234H215.342C215.368 291.276 215.671 292.119 216.25 292.764C216.836 293.402 217.578 293.721 218.477 293.721C219.115 293.721 219.655 293.59 220.098 293.33C220.54 293.07 220.928 292.725 221.26 292.295L222.363 293.154C221.478 294.515 220.15 295.195 218.379 295.195ZM218.154 285.723C217.425 285.723 216.813 285.99 216.318 286.523C215.824 287.051 215.518 287.793 215.4 288.75H220.693V288.613C220.641 287.695 220.394 286.986 219.951 286.484C219.508 285.977 218.91 285.723 218.154 285.723ZM230.752 292.197C230.752 291.709 230.566 291.331 230.195 291.064C229.831 290.791 229.189 290.557 228.271 290.361C227.36 290.166 226.634 289.932 226.094 289.658C225.56 289.385 225.163 289.059 224.902 288.682C224.648 288.304 224.521 287.855 224.521 287.334C224.521 286.468 224.886 285.736 225.615 285.137C226.351 284.538 227.288 284.238 228.428 284.238C229.626 284.238 230.596 284.548 231.338 285.166C232.087 285.785 232.461 286.576 232.461 287.539H230.645C230.645 287.044 230.433 286.618 230.01 286.26C229.593 285.902 229.066 285.723 228.428 285.723C227.77 285.723 227.256 285.866 226.885 286.152C226.514 286.439 226.328 286.813 226.328 287.275C226.328 287.712 226.501 288.04 226.846 288.262C227.191 288.483 227.812 288.695 228.711 288.896C229.616 289.098 230.348 289.339 230.908 289.619C231.468 289.899 231.882 290.238 232.148 290.635C232.422 291.025 232.559 291.504 232.559 292.07C232.559 293.014 232.181 293.773 231.426 294.346C230.671 294.912 229.691 295.195 228.486 295.195C227.64 295.195 226.891 295.046 226.24 294.746C225.589 294.447 225.078 294.03 224.707 293.496C224.342 292.956 224.16 292.373 224.16 291.748H225.967C225.999 292.354 226.24 292.835 226.689 293.193C227.145 293.545 227.744 293.721 228.486 293.721C229.17 293.721 229.717 293.584 230.127 293.311C230.544 293.031 230.752 292.66 230.752 292.197ZM246.396 295C246.292 294.792 246.208 294.421 246.143 293.887C245.303 294.759 244.3 295.195 243.135 295.195C242.093 295.195 241.237 294.902 240.566 294.316C239.902 293.724 239.57 292.975 239.57 292.07C239.57 290.97 239.987 290.117 240.82 289.512C241.66 288.9 242.839 288.594 244.355 288.594H246.113V287.764C246.113 287.132 245.924 286.631 245.547 286.26C245.169 285.882 244.613 285.693 243.877 285.693C243.232 285.693 242.692 285.856 242.256 286.182C241.82 286.507 241.602 286.901 241.602 287.363H239.785C239.785 286.836 239.971 286.328 240.342 285.84C240.719 285.345 241.227 284.954 241.865 284.668C242.51 284.382 243.216 284.238 243.984 284.238C245.202 284.238 246.156 284.544 246.846 285.156C247.536 285.762 247.894 286.598 247.92 287.666V292.529C247.92 293.499 248.044 294.271 248.291 294.844V295H246.396ZM243.398 293.623C243.965 293.623 244.502 293.477 245.01 293.184C245.518 292.891 245.885 292.51 246.113 292.041V289.873H244.697C242.484 289.873 241.377 290.521 241.377 291.816C241.377 292.383 241.566 292.826 241.943 293.145C242.321 293.464 242.806 293.623 243.398 293.623ZM252.461 284.434L252.52 285.762C253.327 284.746 254.382 284.238 255.684 284.238C257.917 284.238 259.043 285.498 259.062 288.018V295H257.256V288.008C257.249 287.246 257.074 286.683 256.729 286.318C256.39 285.954 255.859 285.771 255.137 285.771C254.551 285.771 254.036 285.928 253.594 286.24C253.151 286.553 252.806 286.963 252.559 287.471V295H250.752V284.434H252.461ZM261.348 289.629C261.348 288.008 261.732 286.706 262.5 285.723C263.268 284.733 264.274 284.238 265.518 284.238C266.755 284.238 267.734 284.661 268.457 285.508V280H270.264V295H268.604L268.516 293.867C267.793 294.753 266.787 295.195 265.498 295.195C264.274 295.195 263.275 294.694 262.5 293.691C261.732 292.689 261.348 291.38 261.348 289.766V289.629ZM263.154 289.834C263.154 291.032 263.402 291.969 263.896 292.646C264.391 293.324 265.075 293.662 265.947 293.662C267.093 293.662 267.93 293.148 268.457 292.119V287.266C267.917 286.27 267.087 285.771 265.967 285.771C265.081 285.771 264.391 286.113 263.896 286.797C263.402 287.48 263.154 288.493 263.154 289.834ZM29.1113 323H27.3047V308H29.1113V323ZM36.3965 323.195C34.9642 323.195 33.7988 322.727 32.9004 321.789C32.002 320.845 31.5527 319.585 31.5527 318.01V317.678C31.5527 316.63 31.7513 315.695 32.1484 314.875C32.5521 314.048 33.112 313.404 33.8281 312.941C34.5508 312.473 35.332 312.238 36.1719 312.238C37.5456 312.238 38.6133 312.691 39.375 313.596C40.1367 314.501 40.5176 315.796 40.5176 317.482V318.234H33.3594C33.3854 319.276 33.6882 320.119 34.2676 320.764C34.8535 321.402 35.5957 321.721 36.4941 321.721C37.1322 321.721 37.6725 321.59 38.1152 321.33C38.5579 321.07 38.9453 320.725 39.2773 320.295L40.3809 321.154C39.4954 322.515 38.1673 323.195 36.3965 323.195ZM36.1719 313.723C35.4427 313.723 34.8307 313.99 34.3359 314.523C33.8411 315.051 33.5352 315.793 33.418 316.75H38.7109V316.613C38.6589 315.695 38.4115 314.986 37.9688 314.484C37.526 313.977 36.9271 313.723 36.1719 313.723ZM45.0684 309.875V312.434H47.041V313.83H45.0684V320.383C45.0684 320.806 45.1562 321.125 45.332 321.34C45.5078 321.548 45.8073 321.652 46.2305 321.652C46.4388 321.652 46.7253 321.613 47.0898 321.535V323C46.6146 323.13 46.1523 323.195 45.7031 323.195C44.8958 323.195 44.2871 322.951 43.877 322.463C43.4668 321.975 43.2617 321.281 43.2617 320.383V313.83H41.3379V312.434H43.2617V309.875H45.0684ZM56.5723 309.875V312.434H58.5449V313.83H56.5723V320.383C56.5723 320.806 56.6602 321.125 56.8359 321.34C57.0117 321.548 57.3112 321.652 57.7344 321.652C57.9427 321.652 58.2292 321.613 58.5938 321.535V323C58.1185 323.13 57.6562 323.195 57.207 323.195C56.3997 323.195 55.791 322.951 55.3809 322.463C54.9707 321.975 54.7656 321.281 54.7656 320.383V313.83H52.8418V312.434H54.7656V309.875H56.5723ZM62.4707 313.713C63.2715 312.73 64.3132 312.238 65.5957 312.238C67.8288 312.238 68.9551 313.498 68.9746 316.018V323H67.168V316.008C67.1615 315.246 66.9857 314.683 66.6406 314.318C66.3021 313.954 65.7715 313.771 65.0488 313.771C64.4629 313.771 63.9486 313.928 63.5059 314.24C63.0632 314.553 62.7181 314.963 62.4707 315.471V323H60.6641V308H62.4707V313.713ZM76.0645 323.195C74.6322 323.195 73.4668 322.727 72.5684 321.789C71.6699 320.845 71.2207 319.585 71.2207 318.01V317.678C71.2207 316.63 71.4193 315.695 71.8164 314.875C72.2201 314.048 72.7799 313.404 73.4961 312.941C74.2188 312.473 75 312.238 75.8398 312.238C77.2135 312.238 78.2812 312.691 79.043 313.596C79.8047 314.501 80.1855 315.796 80.1855 317.482V318.234H73.0273C73.0534 319.276 73.3561 320.119 73.9355 320.764C74.5215 321.402 75.2637 321.721 76.1621 321.721C76.8001 321.721 77.3405 321.59 77.7832 321.33C78.2259 321.07 78.6133 320.725 78.9453 320.295L80.0488 321.154C79.1634 322.515 77.8353 323.195 76.0645 323.195ZM75.8398 313.723C75.1107 313.723 74.4987 313.99 74.0039 314.523C73.5091 315.051 73.2031 315.793 73.0859 316.75H78.3789V316.613C78.3268 315.695 78.0794 314.986 77.6367 314.484C77.194 313.977 76.5951 313.723 75.8398 313.723ZM96.1914 317.834C96.1914 319.449 95.8203 320.747 95.0781 321.73C94.3359 322.707 93.3398 323.195 92.0898 323.195C90.7552 323.195 89.7233 322.723 88.9941 321.779L88.9062 323H87.2461V308H89.0527V313.596C89.7819 312.691 90.7878 312.238 92.0703 312.238C93.3529 312.238 94.3587 312.723 95.0879 313.693C95.8236 314.663 96.1914 315.992 96.1914 317.678V317.834ZM94.3848 317.629C94.3848 316.398 94.1471 315.448 93.6719 314.777C93.1966 314.107 92.513 313.771 91.6211 313.771C90.4297 313.771 89.5736 314.325 89.0527 315.432V320.002C89.6061 321.109 90.4688 321.662 91.6406 321.662C92.5065 321.662 93.1803 321.327 93.6621 320.656C94.1439 319.986 94.3848 318.977 94.3848 317.629ZM105 321.955C104.297 322.782 103.265 323.195 101.904 323.195C100.778 323.195 99.9186 322.87 99.3262 322.219C98.7402 321.561 98.444 320.591 98.4375 319.309V312.434H100.244V319.26C100.244 320.861 100.895 321.662 102.197 321.662C103.577 321.662 104.495 321.148 104.951 320.119V312.434H106.758V323H105.039L105 321.955ZM115.664 320.197C115.664 319.709 115.479 319.331 115.107 319.064C114.743 318.791 114.102 318.557 113.184 318.361C112.272 318.166 111.546 317.932 111.006 317.658C110.472 317.385 110.075 317.059 109.814 316.682C109.561 316.304 109.434 315.855 109.434 315.334C109.434 314.468 109.798 313.736 110.527 313.137C111.263 312.538 112.201 312.238 113.34 312.238C114.538 312.238 115.508 312.548 116.25 313.166C116.999 313.785 117.373 314.576 117.373 315.539H115.557C115.557 315.044 115.345 314.618 114.922 314.26C114.505 313.902 113.978 313.723 113.34 313.723C112.682 313.723 112.168 313.866 111.797 314.152C111.426 314.439 111.24 314.813 111.24 315.275C111.24 315.712 111.413 316.04 111.758 316.262C112.103 316.483 112.725 316.695 113.623 316.896C114.528 317.098 115.26 317.339 115.82 317.619C116.38 317.899 116.794 318.238 117.061 318.635C117.334 319.025 117.471 319.504 117.471 320.07C117.471 321.014 117.093 321.773 116.338 322.346C115.583 322.912 114.603 323.195 113.398 323.195C112.552 323.195 111.803 323.046 111.152 322.746C110.501 322.447 109.99 322.03 109.619 321.496C109.255 320.956 109.072 320.373 109.072 319.748H110.879C110.911 320.354 111.152 320.835 111.602 321.193C112.057 321.545 112.656 321.721 113.398 321.721C114.082 321.721 114.629 321.584 115.039 321.311C115.456 321.031 115.664 320.66 115.664 320.197ZM121.787 323H119.98V312.434H121.787V323ZM119.834 309.631C119.834 309.338 119.922 309.09 120.098 308.889C120.28 308.687 120.547 308.586 120.898 308.586C121.25 308.586 121.517 308.687 121.699 308.889C121.882 309.09 121.973 309.338 121.973 309.631C121.973 309.924 121.882 310.168 121.699 310.363C121.517 310.559 121.25 310.656 120.898 310.656C120.547 310.656 120.28 310.559 120.098 310.363C119.922 310.168 119.834 309.924 119.834 309.631ZM126.396 312.434L126.455 313.762C127.262 312.746 128.317 312.238 129.619 312.238C131.852 312.238 132.979 313.498 132.998 316.018V323H131.191V316.008C131.185 315.246 131.009 314.683 130.664 314.318C130.326 313.954 129.795 313.771 129.072 313.771C128.486 313.771 127.972 313.928 127.529 314.24C127.087 314.553 126.742 314.963 126.494 315.471V323H124.688V312.434H126.396ZM140.107 323.195C138.675 323.195 137.51 322.727 136.611 321.789C135.713 320.845 135.264 319.585 135.264 318.01V317.678C135.264 316.63 135.462 315.695 135.859 314.875C136.263 314.048 136.823 313.404 137.539 312.941C138.262 312.473 139.043 312.238 139.883 312.238C141.257 312.238 142.324 312.691 143.086 313.596C143.848 314.501 144.229 315.796 144.229 317.482V318.234H137.07C137.096 319.276 137.399 320.119 137.979 320.764C138.564 321.402 139.307 321.721 140.205 321.721C140.843 321.721 141.383 321.59 141.826 321.33C142.269 321.07 142.656 320.725 142.988 320.295L144.092 321.154C143.206 322.515 141.878 323.195 140.107 323.195ZM139.883 313.723C139.154 313.723 138.542 313.99 138.047 314.523C137.552 315.051 137.246 315.793 137.129 316.75H142.422V316.613C142.37 315.695 142.122 314.986 141.68 314.484C141.237 313.977 140.638 313.723 139.883 313.723ZM152.48 320.197C152.48 319.709 152.295 319.331 151.924 319.064C151.559 318.791 150.918 318.557 150 318.361C149.089 318.166 148.363 317.932 147.822 317.658C147.288 317.385 146.891 317.059 146.631 316.682C146.377 316.304 146.25 315.855 146.25 315.334C146.25 314.468 146.615 313.736 147.344 313.137C148.079 312.538 149.017 312.238 150.156 312.238C151.354 312.238 152.324 312.548 153.066 313.166C153.815 313.785 154.189 314.576 154.189 315.539H152.373C152.373 315.044 152.161 314.618 151.738 314.26C151.322 313.902 150.794 313.723 150.156 313.723C149.499 313.723 148.984 313.866 148.613 314.152C148.242 314.439 148.057 314.813 148.057 315.275C148.057 315.712 148.229 316.04 148.574 316.262C148.919 316.483 149.541 316.695 150.439 316.896C151.344 317.098 152.077 317.339 152.637 317.619C153.197 317.899 153.61 318.238 153.877 318.635C154.15 319.025 154.287 319.504 154.287 320.07C154.287 321.014 153.91 321.773 153.154 322.346C152.399 322.912 151.419 323.195 150.215 323.195C149.368 323.195 148.62 323.046 147.969 322.746C147.318 322.447 146.807 322.03 146.436 321.496C146.071 320.956 145.889 320.373 145.889 319.748H147.695C147.728 320.354 147.969 320.835 148.418 321.193C148.874 321.545 149.473 321.721 150.215 321.721C150.898 321.721 151.445 321.584 151.855 321.311C152.272 321.031 152.48 320.66 152.48 320.197ZM162.793 320.197C162.793 319.709 162.607 319.331 162.236 319.064C161.872 318.791 161.23 318.557 160.312 318.361C159.401 318.166 158.675 317.932 158.135 317.658C157.601 317.385 157.204 317.059 156.943 316.682C156.689 316.304 156.562 315.855 156.562 315.334C156.562 314.468 156.927 313.736 157.656 313.137C158.392 312.538 159.329 312.238 160.469 312.238C161.667 312.238 162.637 312.548 163.379 313.166C164.128 313.785 164.502 314.576 164.502 315.539H162.686C162.686 315.044 162.474 314.618 162.051 314.26C161.634 313.902 161.107 313.723 160.469 313.723C159.811 313.723 159.297 313.866 158.926 314.152C158.555 314.439 158.369 314.813 158.369 315.275C158.369 315.712 158.542 316.04 158.887 316.262C159.232 316.483 159.854 316.695 160.752 316.896C161.657 317.098 162.389 317.339 162.949 317.619C163.509 317.899 163.923 318.238 164.189 318.635C164.463 319.025 164.6 319.504 164.6 320.07C164.6 321.014 164.222 321.773 163.467 322.346C162.712 322.912 161.732 323.195 160.527 323.195C159.681 323.195 158.932 323.046 158.281 322.746C157.63 322.447 157.119 322.03 156.748 321.496C156.383 320.956 156.201 320.373 156.201 319.748H158.008C158.04 320.354 158.281 320.835 158.73 321.193C159.186 321.545 159.785 321.721 160.527 321.721C161.211 321.721 161.758 321.584 162.168 321.311C162.585 321.031 162.793 320.66 162.793 320.197ZM171.484 317.629C171.484 315.982 171.865 314.673 172.627 313.703C173.389 312.727 174.398 312.238 175.654 312.238C176.943 312.238 177.949 312.694 178.672 313.605L178.76 312.434H180.41V322.746C180.41 324.113 180.003 325.191 179.189 325.979C178.382 326.766 177.295 327.16 175.928 327.16C175.166 327.16 174.421 326.997 173.691 326.672C172.962 326.346 172.406 325.9 172.021 325.334L172.959 324.25C173.734 325.207 174.681 325.686 175.801 325.686C176.68 325.686 177.363 325.438 177.852 324.943C178.346 324.449 178.594 323.752 178.594 322.854V321.945C177.871 322.779 176.885 323.195 175.635 323.195C174.398 323.195 173.395 322.697 172.627 321.701C171.865 320.705 171.484 319.348 171.484 317.629ZM173.301 317.834C173.301 319.025 173.545 319.963 174.033 320.646C174.521 321.324 175.205 321.662 176.084 321.662C177.223 321.662 178.06 321.145 178.594 320.109V315.285C178.04 314.276 177.21 313.771 176.104 313.771C175.225 313.771 174.538 314.113 174.043 314.797C173.548 315.48 173.301 316.493 173.301 317.834ZM187.529 323.195C186.097 323.195 184.932 322.727 184.033 321.789C183.135 320.845 182.686 319.585 182.686 318.01V317.678C182.686 316.63 182.884 315.695 183.281 314.875C183.685 314.048 184.245 313.404 184.961 312.941C185.684 312.473 186.465 312.238 187.305 312.238C188.678 312.238 189.746 312.691 190.508 313.596C191.27 314.501 191.65 315.796 191.65 317.482V318.234H184.492C184.518 319.276 184.821 320.119 185.4 320.764C185.986 321.402 186.729 321.721 187.627 321.721C188.265 321.721 188.805 321.59 189.248 321.33C189.691 321.07 190.078 320.725 190.41 320.295L191.514 321.154C190.628 322.515 189.3 323.195 187.529 323.195ZM187.305 313.723C186.576 313.723 185.964 313.99 185.469 314.523C184.974 315.051 184.668 315.793 184.551 316.75H189.844V316.613C189.792 315.695 189.544 314.986 189.102 314.484C188.659 313.977 188.06 313.723 187.305 313.723ZM196.201 309.875V312.434H198.174V313.83H196.201V320.383C196.201 320.806 196.289 321.125 196.465 321.34C196.641 321.548 196.94 321.652 197.363 321.652C197.572 321.652 197.858 321.613 198.223 321.535V323C197.747 323.13 197.285 323.195 196.836 323.195C196.029 323.195 195.42 322.951 195.01 322.463C194.6 321.975 194.395 321.281 194.395 320.383V313.83H192.471V312.434H194.395V309.875H196.201ZM207.705 309.875V312.434H209.678V313.83H207.705V320.383C207.705 320.806 207.793 321.125 207.969 321.34C208.145 321.548 208.444 321.652 208.867 321.652C209.076 321.652 209.362 321.613 209.727 321.535V323C209.251 323.13 208.789 323.195 208.34 323.195C207.533 323.195 206.924 322.951 206.514 322.463C206.104 321.975 205.898 321.281 205.898 320.383V313.83H203.975V312.434H205.898V309.875H207.705ZM211.123 317.619C211.123 316.584 211.325 315.653 211.729 314.826C212.139 313.999 212.705 313.361 213.428 312.912C214.157 312.463 214.987 312.238 215.918 312.238C217.357 312.238 218.519 312.736 219.404 313.732C220.296 314.729 220.742 316.053 220.742 317.707V317.834C220.742 318.863 220.544 319.787 220.146 320.607C219.756 321.421 219.193 322.056 218.457 322.512C217.728 322.967 216.888 323.195 215.938 323.195C214.505 323.195 213.343 322.697 212.451 321.701C211.566 320.705 211.123 319.387 211.123 317.746V317.619ZM212.939 317.834C212.939 319.006 213.21 319.947 213.75 320.656C214.297 321.366 215.026 321.721 215.938 321.721C216.855 321.721 217.585 321.363 218.125 320.646C218.665 319.924 218.936 318.915 218.936 317.619C218.936 316.46 218.659 315.523 218.105 314.807C217.559 314.084 216.829 313.723 215.918 313.723C215.026 313.723 214.307 314.077 213.76 314.787C213.213 315.497 212.939 316.512 212.939 317.834ZM230.918 318.107L229.785 319.289V323H227.979V308H229.785V317.072L230.752 315.91L234.043 312.434H236.24L232.129 316.848L236.719 323H234.6L230.918 318.107ZM239.814 312.434L239.873 313.762C240.68 312.746 241.735 312.238 243.037 312.238C245.27 312.238 246.396 313.498 246.416 316.018V323H244.609V316.008C244.603 315.246 244.427 314.683 244.082 314.318C243.743 313.954 243.213 313.771 242.49 313.771C241.904 313.771 241.39 313.928 240.947 314.24C240.505 314.553 240.16 314.963 239.912 315.471V323H238.105V312.434H239.814ZM248.662 317.619C248.662 316.584 248.864 315.653 249.268 314.826C249.678 313.999 250.244 313.361 250.967 312.912C251.696 312.463 252.526 312.238 253.457 312.238C254.896 312.238 256.058 312.736 256.943 313.732C257.835 314.729 258.281 316.053 258.281 317.707V317.834C258.281 318.863 258.083 319.787 257.686 320.607C257.295 321.421 256.732 322.056 255.996 322.512C255.267 322.967 254.427 323.195 253.477 323.195C252.044 323.195 250.882 322.697 249.99 321.701C249.105 320.705 248.662 319.387 248.662 317.746V317.619ZM250.479 317.834C250.479 319.006 250.749 319.947 251.289 320.656C251.836 321.366 252.565 321.721 253.477 321.721C254.395 321.721 255.124 321.363 255.664 320.646C256.204 319.924 256.475 318.915 256.475 317.619C256.475 316.46 256.198 315.523 255.645 314.807C255.098 314.084 254.368 313.723 253.457 313.723C252.565 313.723 251.846 314.077 251.299 314.787C250.752 315.497 250.479 316.512 250.479 317.834ZM269.902 320.51L271.934 312.434H273.74L270.664 323H269.199L266.631 314.992L264.131 323H262.666L259.6 312.434H261.396L263.477 320.344L265.938 312.434H267.393L269.902 320.51ZM101.621 351.195C100.189 351.195 99.0234 350.727 98.125 349.789C97.2266 348.845 96.7773 347.585 96.7773 346.01V345.678C96.7773 344.63 96.9759 343.695 97.373 342.875C97.7767 342.048 98.3366 341.404 99.0527 340.941C99.7754 340.473 100.557 340.238 101.396 340.238C102.77 340.238 103.838 340.691 104.6 341.596C105.361 342.501 105.742 343.796 105.742 345.482V346.234H98.584C98.61 347.276 98.9128 348.119 99.4922 348.764C100.078 349.402 100.82 349.721 101.719 349.721C102.357 349.721 102.897 349.59 103.34 349.33C103.783 349.07 104.17 348.725 104.502 348.295L105.605 349.154C104.72 350.515 103.392 351.195 101.621 351.195ZM101.396 341.723C100.667 341.723 100.055 341.99 99.5605 342.523C99.0658 343.051 98.7598 343.793 98.6426 344.75H103.936V344.613C103.883 343.695 103.636 342.986 103.193 342.484C102.751 341.977 102.152 341.723 101.396 341.723ZM114.365 351C114.261 350.792 114.176 350.421 114.111 349.887C113.271 350.759 112.269 351.195 111.104 351.195C110.062 351.195 109.206 350.902 108.535 350.316C107.871 349.724 107.539 348.975 107.539 348.07C107.539 346.97 107.956 346.117 108.789 345.512C109.629 344.9 110.807 344.594 112.324 344.594H114.082V343.764C114.082 343.132 113.893 342.631 113.516 342.26C113.138 341.882 112.581 341.693 111.846 341.693C111.201 341.693 110.661 341.856 110.225 342.182C109.788 342.507 109.57 342.901 109.57 343.363H107.754C107.754 342.836 107.939 342.328 108.311 341.84C108.688 341.345 109.196 340.954 109.834 340.668C110.479 340.382 111.185 340.238 111.953 340.238C113.171 340.238 114.124 340.544 114.814 341.156C115.505 341.762 115.863 342.598 115.889 343.666V348.529C115.889 349.499 116.012 350.271 116.26 350.844V351H114.365ZM111.367 349.623C111.934 349.623 112.471 349.477 112.979 349.184C113.486 348.891 113.854 348.51 114.082 348.041V345.873H112.666C110.452 345.873 109.346 346.521 109.346 347.816C109.346 348.383 109.535 348.826 109.912 349.145C110.29 349.464 110.775 349.623 111.367 349.623ZM122.959 349.721C123.604 349.721 124.167 349.525 124.648 349.135C125.13 348.744 125.397 348.256 125.449 347.67H127.158C127.126 348.275 126.917 348.852 126.533 349.398C126.149 349.945 125.635 350.382 124.99 350.707C124.352 351.033 123.675 351.195 122.959 351.195C121.52 351.195 120.374 350.717 119.521 349.76C118.675 348.796 118.252 347.481 118.252 345.814V345.512C118.252 344.483 118.441 343.568 118.818 342.768C119.196 341.967 119.736 341.345 120.439 340.902C121.149 340.46 121.986 340.238 122.949 340.238C124.134 340.238 125.117 340.593 125.898 341.303C126.686 342.012 127.106 342.934 127.158 344.066H125.449C125.397 343.383 125.137 342.823 124.668 342.387C124.206 341.944 123.633 341.723 122.949 341.723C122.031 341.723 121.318 342.055 120.811 342.719C120.309 343.376 120.059 344.33 120.059 345.58V345.922C120.059 347.139 120.309 348.077 120.811 348.734C121.312 349.392 122.028 349.721 122.959 349.721ZM130.996 341.713C131.797 340.73 132.839 340.238 134.121 340.238C136.354 340.238 137.48 341.498 137.5 344.018V351H135.693V344.008C135.687 343.246 135.511 342.683 135.166 342.318C134.827 341.954 134.297 341.771 133.574 341.771C132.988 341.771 132.474 341.928 132.031 342.24C131.589 342.553 131.243 342.963 130.996 343.471V351H129.189V336H130.996V341.713ZM144.688 345.619C144.688 344.584 144.889 343.653 145.293 342.826C145.703 341.999 146.27 341.361 146.992 340.912C147.721 340.463 148.551 340.238 149.482 340.238C150.921 340.238 152.083 340.736 152.969 341.732C153.861 342.729 154.307 344.053 154.307 345.707V345.834C154.307 346.863 154.108 347.787 153.711 348.607C153.32 349.421 152.757 350.056 152.021 350.512C151.292 350.967 150.452 351.195 149.502 351.195C148.07 351.195 146.908 350.697 146.016 349.701C145.13 348.705 144.688 347.387 144.688 345.746V345.619ZM146.504 345.834C146.504 347.006 146.774 347.947 147.314 348.656C147.861 349.366 148.59 349.721 149.502 349.721C150.42 349.721 151.149 349.363 151.689 348.646C152.23 347.924 152.5 346.915 152.5 345.619C152.5 344.46 152.223 343.523 151.67 342.807C151.123 342.084 150.394 341.723 149.482 341.723C148.59 341.723 147.871 342.077 147.324 342.787C146.777 343.497 146.504 344.512 146.504 345.834ZM159.023 337.875V340.434H160.996V341.83H159.023V348.383C159.023 348.806 159.111 349.125 159.287 349.34C159.463 349.548 159.762 349.652 160.186 349.652C160.394 349.652 160.68 349.613 161.045 349.535V351C160.57 351.13 160.107 351.195 159.658 351.195C158.851 351.195 158.242 350.951 157.832 350.463C157.422 349.975 157.217 349.281 157.217 348.383V341.83H155.293V340.434H157.217V337.875H159.023ZM164.922 341.713C165.723 340.73 166.764 340.238 168.047 340.238C170.28 340.238 171.406 341.498 171.426 344.018V351H169.619V344.008C169.613 343.246 169.437 342.683 169.092 342.318C168.753 341.954 168.223 341.771 167.5 341.771C166.914 341.771 166.4 341.928 165.957 342.24C165.514 342.553 165.169 342.963 164.922 343.471V351H163.115V336H164.922V341.713ZM178.516 351.195C177.083 351.195 175.918 350.727 175.02 349.789C174.121 348.845 173.672 347.585 173.672 346.01V345.678C173.672 344.63 173.87 343.695 174.268 342.875C174.671 342.048 175.231 341.404 175.947 340.941C176.67 340.473 177.451 340.238 178.291 340.238C179.665 340.238 180.732 340.691 181.494 341.596C182.256 342.501 182.637 343.796 182.637 345.482V346.234H175.479C175.505 347.276 175.807 348.119 176.387 348.764C176.973 349.402 177.715 349.721 178.613 349.721C179.251 349.721 179.792 349.59 180.234 349.33C180.677 349.07 181.064 348.725 181.396 348.295L182.5 349.154C181.615 350.515 180.286 351.195 178.516 351.195ZM178.291 341.723C177.562 341.723 176.95 341.99 176.455 342.523C175.96 343.051 175.654 343.793 175.537 344.75H180.83V344.613C180.778 343.695 180.531 342.986 180.088 342.484C179.645 341.977 179.046 341.723 178.291 341.723ZM189.844 342.055C189.57 342.009 189.274 341.986 188.955 341.986C187.77 341.986 186.966 342.491 186.543 343.5V351H184.736V340.434H186.494L186.523 341.654C187.116 340.71 187.956 340.238 189.043 340.238C189.395 340.238 189.661 340.284 189.844 340.375V342.055ZM190.342 350.053C190.342 349.74 190.433 349.48 190.615 349.271C190.804 349.063 191.084 348.959 191.455 348.959C191.826 348.959 192.106 349.063 192.295 349.271C192.49 349.48 192.588 349.74 192.588 350.053C192.588 350.352 192.49 350.603 192.295 350.805C192.106 351.007 191.826 351.107 191.455 351.107C191.084 351.107 190.804 351.007 190.615 350.805C190.433 350.603 190.342 350.352 190.342 350.053Z" fill="black"/>
<g clip-path="url(#clip0)">
<path d="M123.334 71.6667C121.495 71.6667 120 70.1718 120 68.3333C120 67.4134 119.253 66.6667 118.334 66.6667C117.414 66.6667 116.667 67.4134 116.667 68.3333C116.667 71.43 118.8 74.0183 121.667 74.7634V75.0001C121.667 75.92 122.414 76.6667 123.334 76.6667C124.253 76.6667 125 75.92 125 75.0001V74.7634C127.867 74.0185 130 71.43 130 68.3333C130 64.6566 127.01 61.6667 123.334 61.6667C121.495 61.6667 120 60.1718 120 58.3334C120 56.4951 121.495 55 123.334 55C125.172 55 126.667 56.4949 126.667 58.3334C126.667 59.2533 127.414 60 128.334 60C129.253 60 130 59.2533 130 58.3334C130 55.2367 127.867 52.6484 125 51.9033V51.6666C125 50.7467 124.253 50 123.334 50C122.414 50 121.667 50.7467 121.667 51.6666V51.9033C118.8 52.6482 116.667 55.2367 116.667 58.3334C116.667 62.0101 119.657 64.9999 123.334 64.9999C125.172 64.9999 126.667 66.4949 126.667 68.3333C126.667 70.1718 125.172 71.6667 123.334 71.6667Z" fill="#FFAC22"/>
<path d="M198.334 136.667H190.001V56.6669H196.667C197.34 56.6669 197.949 56.2603 198.207 55.6386C198.466 55.0154 198.322 54.2986 197.846 53.822L184.512 40.4887C183.861 39.8371 182.807 39.8371 182.156 40.4887L168.822 53.822C168.346 54.2986 168.202 55.0154 168.461 55.6386C168.719 56.2603 169.327 56.6669 170.001 56.6669H176.667V136.667H173.334V101.667C173.334 100.747 172.587 100 171.667 100H161.806C160.886 100 160.139 100.747 160.139 101.667V136.667H156.667V91.6668C156.667 90.7469 155.921 90.0002 155.001 90.0002H145.001C144.081 90.0002 143.334 90.7469 143.334 91.6668V136.667H140.001V98.3336C140.001 97.4136 139.254 96.667 138.334 96.667H128.334C127.414 96.667 126.668 97.4136 126.668 98.3336V136.667H123.334V111.667C123.334 110.747 122.588 110 121.668 110H111.668C110.748 110 110.001 110.747 110.001 111.667V136.667H101.668C100.748 136.667 100.001 137.413 100.001 138.333C100.001 139.253 100.748 140 101.668 140H111.668C112.587 140 113.334 139.253 113.334 138.333V113.333H120.001V138.333C120.001 139.253 120.747 140 121.667 140H128.334C129.254 140 130 139.253 130 138.333V100H136.667V138.333C136.667 139.253 137.414 140 138.334 140H145C145.92 140 146.667 139.253 146.667 138.333V93.3336H153.333V138.333C153.333 139.253 154.08 140 155 140H161.805C162.725 140 163.472 139.253 163.472 138.333V103.334H170V138.333C170 139.253 170.747 140 171.667 140H178.333C179.253 140 180 139.253 180 138.333V55.0003C180 54.0804 179.253 53.3337 178.333 53.3337H174.023L183.333 44.0238L192.643 53.3337H188.333C187.413 53.3337 186.666 54.0804 186.666 55.0003V138.333C186.666 139.253 187.413 140 188.333 140H198.333C199.253 140 200 139.253 200 138.333C200 137.413 199.254 136.667 198.334 136.667Z" fill="#FFAC22"/>
<path d="M123.334 86.6664C136.2 86.6664 146.667 76.1999 146.667 63.3331C146.667 50.4664 136.2 40 123.334 40C110.467 40 100 50.4666 100 63.3333C100 76.2001 110.467 86.6664 123.334 86.6664ZM123.334 43.3334C134.362 43.3334 143.333 52.305 143.333 63.3333C143.333 74.3616 134.362 83.3332 123.334 83.3332C112.305 83.3332 103.334 74.3616 103.334 63.3333C103.334 52.305 112.305 43.3334 123.334 43.3334Z" fill="#FFAC22"/>
</g>
<defs>
<clipPath id="clip0">
<rect width="100" height="100" fill="white" transform="translate(100 40)"/>
</clipPath>
</defs>
</svg>
