<svg width="301" height="246" viewBox="0 0 301 246" fill="none" xmlns="http://www.w3.org/2000/svg">
<rect x="2" y="1.5" width="297" height="177" rx="14.5" stroke="white" stroke-width="3"/>
<path d="M111.379 206.488C111.203 207.992 110.646 209.154 109.709 209.975C108.778 210.788 107.538 211.195 105.988 211.195C104.309 211.195 102.961 210.593 101.945 209.389C100.936 208.184 100.432 206.573 100.432 204.555V203.188C100.432 201.866 100.666 200.704 101.135 199.701C101.61 198.699 102.281 197.93 103.146 197.396C104.012 196.856 105.015 196.586 106.154 196.586C107.665 196.586 108.876 197.009 109.787 197.855C110.699 198.695 111.229 199.861 111.379 201.352H109.494C109.331 200.219 108.977 199.398 108.43 198.891C107.889 198.383 107.131 198.129 106.154 198.129C104.956 198.129 104.016 198.572 103.332 199.457C102.655 200.342 102.316 201.602 102.316 203.236V204.613C102.316 206.156 102.639 207.383 103.283 208.295C103.928 209.206 104.829 209.662 105.988 209.662C107.03 209.662 107.827 209.428 108.381 208.959C108.941 208.484 109.312 207.66 109.494 206.488H111.379ZM113.186 205.619C113.186 204.584 113.387 203.653 113.791 202.826C114.201 201.999 114.768 201.361 115.49 200.912C116.219 200.463 117.049 200.238 117.98 200.238C119.419 200.238 120.581 200.736 121.467 201.732C122.359 202.729 122.805 204.053 122.805 205.707V205.834C122.805 206.863 122.606 207.787 122.209 208.607C121.818 209.421 121.255 210.056 120.52 210.512C119.79 210.967 118.951 211.195 118 211.195C116.568 211.195 115.406 210.697 114.514 209.701C113.628 208.705 113.186 207.387 113.186 205.746V205.619ZM115.002 205.834C115.002 207.006 115.272 207.947 115.812 208.656C116.359 209.366 117.089 209.721 118 209.721C118.918 209.721 119.647 209.363 120.188 208.646C120.728 207.924 120.998 206.915 120.998 205.619C120.998 204.46 120.721 203.523 120.168 202.807C119.621 202.084 118.892 201.723 117.98 201.723C117.089 201.723 116.369 202.077 115.822 202.787C115.275 203.497 115.002 204.512 115.002 205.834ZM126.77 200.434L126.818 201.605C127.593 200.694 128.638 200.238 129.953 200.238C131.431 200.238 132.437 200.805 132.971 201.938C133.322 201.43 133.778 201.02 134.338 200.707C134.904 200.395 135.572 200.238 136.34 200.238C138.658 200.238 139.836 201.465 139.875 203.92V211H138.068V204.027C138.068 203.272 137.896 202.709 137.551 202.338C137.206 201.96 136.626 201.771 135.812 201.771C135.142 201.771 134.585 201.973 134.143 202.377C133.7 202.774 133.443 203.311 133.371 203.988V211H131.555V204.076C131.555 202.54 130.803 201.771 129.299 201.771C128.114 201.771 127.303 202.276 126.867 203.285V211H125.061V200.434H126.77ZM144.309 200.434L144.357 201.605C145.132 200.694 146.177 200.238 147.492 200.238C148.97 200.238 149.976 200.805 150.51 201.938C150.861 201.43 151.317 201.02 151.877 200.707C152.443 200.395 153.111 200.238 153.879 200.238C156.197 200.238 157.375 201.465 157.414 203.92V211H155.607V204.027C155.607 203.272 155.435 202.709 155.09 202.338C154.745 201.96 154.165 201.771 153.352 201.771C152.681 201.771 152.124 201.973 151.682 202.377C151.239 202.774 150.982 203.311 150.91 203.988V211H149.094V204.076C149.094 202.54 148.342 201.771 146.838 201.771C145.653 201.771 144.842 202.276 144.406 203.285V211H142.6V200.434H144.309ZM166.672 209.955C165.969 210.782 164.937 211.195 163.576 211.195C162.45 211.195 161.59 210.87 160.998 210.219C160.412 209.561 160.116 208.591 160.109 207.309V200.434H161.916V207.26C161.916 208.861 162.567 209.662 163.869 209.662C165.249 209.662 166.167 209.148 166.623 208.119V200.434H168.43V211H166.711L166.672 209.955ZM172.893 200.434L172.951 201.762C173.758 200.746 174.813 200.238 176.115 200.238C178.348 200.238 179.475 201.498 179.494 204.018V211H177.688V204.008C177.681 203.246 177.505 202.683 177.16 202.318C176.822 201.954 176.291 201.771 175.568 201.771C174.982 201.771 174.468 201.928 174.025 202.24C173.583 202.553 173.238 202.963 172.99 203.471V211H171.184V200.434H172.893ZM184.182 211H182.375V200.434H184.182V211ZM182.229 197.631C182.229 197.338 182.316 197.09 182.492 196.889C182.674 196.687 182.941 196.586 183.293 196.586C183.645 196.586 183.911 196.687 184.094 196.889C184.276 197.09 184.367 197.338 184.367 197.631C184.367 197.924 184.276 198.168 184.094 198.363C183.911 198.559 183.645 198.656 183.293 198.656C182.941 198.656 182.674 198.559 182.492 198.363C182.316 198.168 182.229 197.924 182.229 197.631ZM189.533 197.875V200.434H191.506V201.83H189.533V208.383C189.533 208.806 189.621 209.125 189.797 209.34C189.973 209.548 190.272 209.652 190.695 209.652C190.904 209.652 191.19 209.613 191.555 209.535V211C191.079 211.13 190.617 211.195 190.168 211.195C189.361 211.195 188.752 210.951 188.342 210.463C187.932 209.975 187.727 209.281 187.727 208.383V201.83H185.803V200.434H187.727V197.875H189.533ZM197.082 208.354L199.543 200.434H201.477L197.229 212.631C196.571 214.389 195.526 215.268 194.094 215.268L193.752 215.238L193.078 215.111V213.646L193.566 213.686C194.178 213.686 194.654 213.562 194.992 213.314C195.337 213.067 195.62 212.615 195.842 211.957L196.242 210.883L192.473 200.434H194.445L197.082 208.354ZM78.8301 233.619C78.8301 232.584 79.0319 231.653 79.4355 230.826C79.8457 229.999 80.4121 229.361 81.1348 228.912C81.8639 228.463 82.694 228.238 83.625 228.238C85.0638 228.238 86.2259 228.736 87.1113 229.732C88.0033 230.729 88.4492 232.053 88.4492 233.707V233.834C88.4492 234.863 88.2507 235.787 87.8535 236.607C87.4629 237.421 86.8997 238.056 86.1641 238.512C85.4349 238.967 84.5951 239.195 83.6445 239.195C82.2122 239.195 81.0501 238.697 80.1582 237.701C79.2728 236.705 78.8301 235.387 78.8301 233.746V233.619ZM80.6465 233.834C80.6465 235.006 80.9167 235.947 81.457 236.656C82.0039 237.366 82.7331 237.721 83.6445 237.721C84.5625 237.721 85.2917 237.363 85.832 236.646C86.3724 235.924 86.6426 234.915 86.6426 233.619C86.6426 232.46 86.3659 231.523 85.8125 230.807C85.2656 230.084 84.5365 229.723 83.625 229.723C82.7331 229.723 82.0137 230.077 81.4668 230.787C80.9199 231.497 80.6465 232.512 80.6465 233.834ZM91.6035 239V229.83H89.9336V228.434H91.6035V227.35C91.6035 226.217 91.9062 225.341 92.5117 224.723C93.1172 224.104 93.9733 223.795 95.0801 223.795C95.4967 223.795 95.9102 223.85 96.3203 223.961L96.2227 225.426C95.9167 225.367 95.5911 225.338 95.2461 225.338C94.6602 225.338 94.2077 225.51 93.8887 225.855C93.5697 226.194 93.4102 226.682 93.4102 227.32V228.434H95.666V229.83H93.4102V239H91.6035ZM110.764 235.289H104.807L103.469 239H101.535L106.965 224.781H108.605L114.045 239H112.121L110.764 235.289ZM105.373 233.746H110.207L107.785 227.096L105.373 233.746ZM117.971 239H116.096V224.781H117.971V239ZM130.324 237.721C130.969 237.721 131.532 237.525 132.014 237.135C132.495 236.744 132.762 236.256 132.814 235.67H134.523C134.491 236.275 134.283 236.852 133.898 237.398C133.514 237.945 133 238.382 132.355 238.707C131.717 239.033 131.04 239.195 130.324 239.195C128.885 239.195 127.74 238.717 126.887 237.76C126.04 236.796 125.617 235.481 125.617 233.814V233.512C125.617 232.483 125.806 231.568 126.184 230.768C126.561 229.967 127.102 229.345 127.805 228.902C128.514 228.46 129.351 228.238 130.314 228.238C131.499 228.238 132.482 228.593 133.264 229.303C134.051 230.012 134.471 230.934 134.523 232.066H132.814C132.762 231.383 132.502 230.823 132.033 230.387C131.571 229.944 130.998 229.723 130.314 229.723C129.396 229.723 128.684 230.055 128.176 230.719C127.674 231.376 127.424 232.33 127.424 233.58V233.922C127.424 235.139 127.674 236.077 128.176 236.734C128.677 237.392 129.393 237.721 130.324 237.721ZM136.076 233.619C136.076 232.584 136.278 231.653 136.682 230.826C137.092 229.999 137.658 229.361 138.381 228.912C139.11 228.463 139.94 228.238 140.871 228.238C142.31 228.238 143.472 228.736 144.357 229.732C145.249 230.729 145.695 232.053 145.695 233.707V233.834C145.695 234.863 145.497 235.787 145.1 236.607C144.709 237.421 144.146 238.056 143.41 238.512C142.681 238.967 141.841 239.195 140.891 239.195C139.458 239.195 138.296 238.697 137.404 237.701C136.519 236.705 136.076 235.387 136.076 233.746V233.619ZM137.893 233.834C137.893 235.006 138.163 235.947 138.703 236.656C139.25 237.366 139.979 237.721 140.891 237.721C141.809 237.721 142.538 237.363 143.078 236.646C143.618 235.924 143.889 234.915 143.889 233.619C143.889 232.46 143.612 231.523 143.059 230.807C142.512 230.084 141.783 229.723 140.871 229.723C139.979 229.723 139.26 230.077 138.713 230.787C138.166 231.497 137.893 232.512 137.893 233.834ZM149.66 228.434L149.709 229.605C150.484 228.694 151.529 228.238 152.844 228.238C154.322 228.238 155.327 228.805 155.861 229.938C156.213 229.43 156.669 229.02 157.229 228.707C157.795 228.395 158.462 228.238 159.23 228.238C161.548 228.238 162.727 229.465 162.766 231.92V239H160.959V232.027C160.959 231.272 160.786 230.709 160.441 230.338C160.096 229.96 159.517 229.771 158.703 229.771C158.033 229.771 157.476 229.973 157.033 230.377C156.59 230.774 156.333 231.311 156.262 231.988V239H154.445V232.076C154.445 230.54 153.693 229.771 152.189 229.771C151.005 229.771 150.194 230.276 149.758 231.285V239H147.951V228.434H149.66ZM174.426 233.834C174.426 235.442 174.058 236.738 173.322 237.721C172.587 238.704 171.59 239.195 170.334 239.195C169.051 239.195 168.042 238.788 167.307 237.975V243.062H165.5V228.434H167.15L167.238 229.605C167.974 228.694 168.996 228.238 170.305 228.238C171.574 228.238 172.577 228.717 173.312 229.674C174.055 230.631 174.426 231.962 174.426 233.668V233.834ZM172.619 233.629C172.619 232.438 172.365 231.497 171.857 230.807C171.35 230.117 170.653 229.771 169.768 229.771C168.674 229.771 167.854 230.257 167.307 231.227V236.275C167.847 237.239 168.674 237.721 169.787 237.721C170.653 237.721 171.34 237.379 171.848 236.695C172.362 236.005 172.619 234.983 172.619 233.629ZM183.254 239C183.15 238.792 183.065 238.421 183 237.887C182.16 238.759 181.158 239.195 179.992 239.195C178.951 239.195 178.094 238.902 177.424 238.316C176.76 237.724 176.428 236.975 176.428 236.07C176.428 234.97 176.844 234.117 177.678 233.512C178.518 232.9 179.696 232.594 181.213 232.594H182.971V231.764C182.971 231.132 182.782 230.631 182.404 230.26C182.027 229.882 181.47 229.693 180.734 229.693C180.09 229.693 179.549 229.856 179.113 230.182C178.677 230.507 178.459 230.901 178.459 231.363H176.643C176.643 230.836 176.828 230.328 177.199 229.84C177.577 229.345 178.085 228.954 178.723 228.668C179.367 228.382 180.074 228.238 180.842 228.238C182.059 228.238 183.013 228.544 183.703 229.156C184.393 229.762 184.751 230.598 184.777 231.666V236.529C184.777 237.499 184.901 238.271 185.148 238.844V239H183.254ZM180.256 237.623C180.822 237.623 181.359 237.477 181.867 237.184C182.375 236.891 182.743 236.51 182.971 236.041V233.873H181.555C179.341 233.873 178.234 234.521 178.234 235.816C178.234 236.383 178.423 236.826 178.801 237.145C179.178 237.464 179.663 237.623 180.256 237.623ZM189.318 228.434L189.377 229.762C190.184 228.746 191.239 228.238 192.541 228.238C194.774 228.238 195.9 229.498 195.92 232.018V239H194.113V232.008C194.107 231.246 193.931 230.683 193.586 230.318C193.247 229.954 192.717 229.771 191.994 229.771C191.408 229.771 190.894 229.928 190.451 230.24C190.008 230.553 189.663 230.963 189.416 231.471V239H187.609V228.434H189.318ZM200.607 239H198.801V228.434H200.607V239ZM198.654 225.631C198.654 225.338 198.742 225.09 198.918 224.889C199.1 224.687 199.367 224.586 199.719 224.586C200.07 224.586 200.337 224.687 200.52 224.889C200.702 225.09 200.793 225.338 200.793 225.631C200.793 225.924 200.702 226.168 200.52 226.363C200.337 226.559 200.07 226.656 199.719 226.656C199.367 226.656 199.1 226.559 198.918 226.363C198.742 226.168 198.654 225.924 198.654 225.631ZM207.893 239.195C206.46 239.195 205.295 238.727 204.396 237.789C203.498 236.845 203.049 235.585 203.049 234.01V233.678C203.049 232.63 203.247 231.695 203.645 230.875C204.048 230.048 204.608 229.404 205.324 228.941C206.047 228.473 206.828 228.238 207.668 228.238C209.042 228.238 210.109 228.691 210.871 229.596C211.633 230.501 212.014 231.796 212.014 233.482V234.234H204.855C204.882 235.276 205.184 236.119 205.764 236.764C206.35 237.402 207.092 237.721 207.99 237.721C208.628 237.721 209.169 237.59 209.611 237.33C210.054 237.07 210.441 236.725 210.773 236.295L211.877 237.154C210.992 238.515 209.663 239.195 207.893 239.195ZM207.668 229.723C206.939 229.723 206.327 229.99 205.832 230.523C205.337 231.051 205.031 231.793 204.914 232.75H210.207V232.613C210.155 231.695 209.908 230.986 209.465 230.484C209.022 229.977 208.423 229.723 207.668 229.723ZM220.266 236.197C220.266 235.709 220.08 235.331 219.709 235.064C219.344 234.791 218.703 234.557 217.785 234.361C216.874 234.166 216.148 233.932 215.607 233.658C215.074 233.385 214.676 233.059 214.416 232.682C214.162 232.304 214.035 231.855 214.035 231.334C214.035 230.468 214.4 229.736 215.129 229.137C215.865 228.538 216.802 228.238 217.941 228.238C219.139 228.238 220.109 228.548 220.852 229.166C221.6 229.785 221.975 230.576 221.975 231.539H220.158C220.158 231.044 219.947 230.618 219.523 230.26C219.107 229.902 218.579 229.723 217.941 229.723C217.284 229.723 216.77 229.866 216.398 230.152C216.027 230.439 215.842 230.813 215.842 231.275C215.842 231.712 216.014 232.04 216.359 232.262C216.704 232.483 217.326 232.695 218.225 232.896C219.13 233.098 219.862 233.339 220.422 233.619C220.982 233.899 221.395 234.238 221.662 234.635C221.936 235.025 222.072 235.504 222.072 236.07C222.072 237.014 221.695 237.773 220.939 238.346C220.184 238.912 219.204 239.195 218 239.195C217.154 239.195 216.405 239.046 215.754 238.746C215.103 238.447 214.592 238.03 214.221 237.496C213.856 236.956 213.674 236.373 213.674 235.748H215.48C215.513 236.354 215.754 236.835 216.203 237.193C216.659 237.545 217.258 237.721 218 237.721C218.684 237.721 219.23 237.584 219.641 237.311C220.057 237.031 220.266 236.66 220.266 236.197Z" fill="black"/>
<g clip-path="url(#clip0)">
<path d="M126.645 85.9852C126.645 86.8768 126.994 87.7135 127.624 88.3419L128.802 89.5202C130.377 91.0934 132.467 91.9602 134.694 91.9602C136.92 91.9602 139.012 91.0936 140.587 89.5202L148.889 81.2185C152.177 83.9651 156.282 85.46 160.615 85.46H160.624C165.522 85.4567 170.132 83.545 173.6 80.0751C174.252 79.4236 174.252 78.3685 173.6 77.7185C172.949 77.0667 171.895 77.0667 171.244 77.7185C168.404 80.5585 164.63 82.1251 160.622 82.1269H160.617C156.612 82.1269 152.847 80.5669 150.015 77.7353C149.364 77.0853 148.309 77.0853 147.659 77.7353L138.229 87.1635C136.342 89.0518 133.047 89.0518 131.159 87.1635L129.981 85.9852L150.015 65.9504C151.884 64.0821 153.659 64.0821 155.907 64.0821C158.314 64.0821 161.312 64.0821 164.157 61.2372L168.87 56.5222C169.522 55.8706 169.522 54.8156 168.87 54.1656C168.22 53.5138 167.165 53.5138 166.513 54.1656L161.8 58.8806C159.93 60.7489 158.155 60.7489 155.907 60.7489C153.5 60.7489 150.504 60.7489 147.659 63.5938L127.625 83.6269C126.994 84.2569 126.645 85.0936 126.645 85.9852Z" fill="#FFAC22"/>
<path d="M115 58.3386C116.839 58.3386 118.334 56.8437 118.334 55.0052C118.334 53.167 116.839 51.6719 115 51.6719C113.162 51.6719 111.667 53.1668 111.667 55.0052C111.667 56.8437 113.162 58.3386 115 58.3386Z" fill="#FFAC22"/>
<path d="M131.158 63.5933L135.872 68.3066C136.198 68.6333 136.625 68.7949 137.05 68.7949C137.477 68.7949 137.903 68.6331 138.228 68.3066C138.88 67.6566 138.88 66.6015 138.228 65.95L133.515 61.2367C132.865 60.5852 131.81 60.5852 131.158 61.2367C130.508 61.8867 130.508 62.9416 131.158 63.5933Z" fill="#FFAC22"/>
<path d="M185 51.6716C186.837 51.6716 188.333 50.1767 188.333 48.3383C188.333 46.5 186.837 45.0049 185 45.0049C183.163 45.0049 181.667 46.4998 181.667 48.3383C181.667 50.1765 183.163 51.6716 185 51.6716Z" fill="#FFAC22"/>
<path d="M188.821 75.4937C186.113 78.2021 185.183 82.6135 184.285 86.8803C183.488 90.667 182.663 94.5853 180.656 96.5919L178.298 98.9486C177.648 99.6003 177.648 100.655 178.298 101.305C178.625 101.632 179.051 101.793 179.478 101.793C179.903 101.793 180.33 101.632 180.656 101.305L183.013 98.9486C185.72 96.2419 186.648 91.832 187.546 87.567C188.345 83.777 189.171 79.8587 191.178 77.8505C191.83 77.2005 191.83 76.1454 191.178 75.4939C190.526 74.8419 189.473 74.8419 188.821 75.4937Z" fill="#FFAC22"/>
<path d="M199.511 75.4933L172.356 48.3384L177.845 42.8502C178.496 42.1984 178.496 41.1451 177.845 40.4936C177.193 39.842 176.14 39.842 175.488 40.4936L168.822 47.1601C168.17 47.8119 168.17 48.8652 168.822 49.5167L197.155 77.8499C197.48 78.1749 197.906 78.3382 198.333 78.3382C198.76 78.3382 199.186 78.1749 199.511 77.8499C200.163 77.1981 200.163 76.1448 199.511 75.4933Z" fill="#FFAC22"/>
<path d="M161.8 89.5196C161.148 88.8696 160.095 88.8696 159.443 89.5196C158.792 90.1714 158.792 91.2262 159.443 91.878L177.12 109.555C178.42 110.855 178.42 112.97 177.12 114.27C175.823 115.566 173.707 115.568 172.405 114.27L154.728 96.5914C154.076 95.9397 153.022 95.9397 152.372 96.5914C151.72 97.2432 151.72 98.2981 152.372 98.9481L174.763 121.339C176.063 122.639 176.063 124.754 174.763 126.053C173.463 127.351 171.35 127.354 170.048 126.054L148.837 104.841C148.185 104.189 147.13 104.189 146.48 104.841C145.828 105.491 145.828 106.546 146.48 107.198L165.335 126.053C166.635 127.353 166.635 129.468 165.335 130.768C164.075 132.028 161.882 132.028 160.622 130.766L158.263 128.41H158.262L142.943 113.091C142.292 112.44 141.237 112.44 140.587 113.091C139.935 113.741 139.935 114.796 140.587 115.448L155.907 130.768C156.537 131.398 156.883 132.234 156.883 133.126C156.883 134.016 156.537 134.853 155.907 135.483C154.61 136.779 152.493 136.783 151.193 135.481L122.845 107.16C118.524 102.838 117.585 97.3897 116.757 92.5813C116.06 88.5364 115.402 84.7163 112.845 82.1597C112.194 81.508 111.14 81.508 110.489 82.1597C109.837 82.8115 109.837 83.8648 110.489 84.5163C112.297 86.3247 112.842 89.4862 113.472 93.1479C114.339 98.1813 115.419 104.446 120.489 109.516L148.837 137.839C150.135 139.138 151.842 139.789 153.55 139.789C155.257 139.788 156.965 139.138 158.263 137.839C159.21 136.891 159.838 135.709 160.091 134.423C162.535 135.601 165.716 135.103 167.691 133.125C168.64 132.176 169.266 130.993 169.52 129.706C171.998 130.896 175.068 130.461 177.12 128.41C179.72 125.811 179.72 121.583 177.12 118.983L176.488 118.349C177.583 118.058 178.62 117.483 179.478 116.626C182.076 114.026 182.076 109.796 179.478 107.198L161.8 89.5196Z" fill="#FFAC22"/>
<path d="M131.178 53.8266L121.179 43.8267C120.527 43.175 119.473 43.175 118.822 43.8267C118.17 44.4783 118.17 45.5318 118.822 46.1833L127.644 55.0049L100.489 82.1598C99.8371 82.8116 99.8371 83.8649 100.489 84.5164C100.814 84.8414 101.24 85.0047 101.667 85.0047C102.094 85.0047 102.52 84.8414 102.845 84.5164L131.178 56.1834C131.83 55.5317 131.83 54.4784 131.178 53.8266Z" fill="#FFAC22"/>
<path d="M140.992 136.363C140.063 136.85 138.478 136.908 137.05 135.483C135.622 134.053 135.634 132.391 136.097 131.668C136.557 130.951 136.403 130.005 135.738 129.47C135.077 128.935 134.118 128.985 133.515 129.589C132.213 130.889 130.097 130.888 128.8 129.589C127.502 128.289 127.502 126.174 128.8 124.874C129.127 124.549 129.288 124.123 129.288 123.696C129.288 123.27 129.127 122.844 128.8 122.518C128.15 121.868 127.095 121.868 126.444 122.518L125.265 123.696C123.967 124.996 121.85 124.996 120.552 123.696C119.254 122.396 119.254 120.281 120.552 118.983L121.73 117.805C122.324 117.213 122.384 116.273 121.874 115.61C121.364 114.946 120.439 114.765 119.717 115.183C118.81 115.706 117.215 115.645 115.839 114.27C114.375 112.806 114.382 111.185 114.854 110.501C115.377 109.745 115.185 108.706 114.429 108.183C113.67 107.658 112.634 107.85 112.11 108.608C110.762 110.561 110.799 113.943 113.482 116.626C114.539 117.681 115.689 118.311 116.822 118.613C116.442 119.46 116.242 120.385 116.242 121.34C116.242 123.12 116.935 124.795 118.195 126.053C119.905 127.765 122.324 128.35 124.519 127.808C124.649 129.318 125.29 130.793 126.444 131.946C128.102 133.603 130.419 134.203 132.555 133.75C132.762 135.13 133.43 136.575 134.693 137.84C136.235 139.38 138.035 139.996 139.678 139.996C140.733 139.996 141.723 139.741 142.538 139.315C143.353 138.888 143.668 137.881 143.24 137.065C142.813 136.251 141.803 135.935 140.992 136.363Z" fill="#FFAC22"/>
</g>
<defs>
<clipPath id="clip0">
<rect width="100" height="100" fill="white" transform="translate(100 40)"/>
</clipPath>
</defs>
</svg>
