<svg width="301" height="246" viewBox="0 0 301 246" fill="none" xmlns="http://www.w3.org/2000/svg">
<rect x="2" y="1.5" width="297" height="177" rx="14.5" stroke="white" stroke-width="3"/>
<path d="M92.0918 209.467H98.8301V211H90.207V196.781H92.0918V209.467ZM100.207 205.619C100.207 204.584 100.409 203.653 100.812 202.826C101.223 201.999 101.789 201.361 102.512 200.912C103.241 200.463 104.071 200.238 105.002 200.238C106.441 200.238 107.603 200.736 108.488 201.732C109.38 202.729 109.826 204.053 109.826 205.707V205.834C109.826 206.863 109.628 207.787 109.23 208.607C108.84 209.421 108.277 210.056 107.541 210.512C106.812 210.967 105.972 211.195 105.021 211.195C103.589 211.195 102.427 210.697 101.535 209.701C100.65 208.705 100.207 207.387 100.207 205.746V205.619ZM102.023 205.834C102.023 207.006 102.294 207.947 102.834 208.656C103.381 209.366 104.11 209.721 105.021 209.721C105.939 209.721 106.669 209.363 107.209 208.646C107.749 207.924 108.02 206.915 108.02 205.619C108.02 204.46 107.743 203.523 107.189 202.807C106.643 202.084 105.913 201.723 105.002 201.723C104.11 201.723 103.391 202.077 102.844 202.787C102.297 203.497 102.023 204.512 102.023 205.834ZM121.447 208.51L123.479 200.434H125.285L122.209 211H120.744L118.176 202.992L115.676 211H114.211L111.145 200.434H112.941L115.021 208.344L117.482 200.434H118.938L121.447 208.51ZM131.516 211.195C130.083 211.195 128.918 210.727 128.02 209.789C127.121 208.845 126.672 207.585 126.672 206.01V205.678C126.672 204.63 126.87 203.695 127.268 202.875C127.671 202.048 128.231 201.404 128.947 200.941C129.67 200.473 130.451 200.238 131.291 200.238C132.665 200.238 133.732 200.691 134.494 201.596C135.256 202.501 135.637 203.796 135.637 205.482V206.234H128.479C128.505 207.276 128.807 208.119 129.387 208.764C129.973 209.402 130.715 209.721 131.613 209.721C132.251 209.721 132.792 209.59 133.234 209.33C133.677 209.07 134.064 208.725 134.396 208.295L135.5 209.154C134.615 210.515 133.286 211.195 131.516 211.195ZM131.291 201.723C130.562 201.723 129.95 201.99 129.455 202.523C128.96 203.051 128.654 203.793 128.537 204.75H133.83V204.613C133.778 203.695 133.531 202.986 133.088 202.484C132.645 201.977 132.046 201.723 131.291 201.723ZM143.889 208.197C143.889 207.709 143.703 207.331 143.332 207.064C142.967 206.791 142.326 206.557 141.408 206.361C140.497 206.166 139.771 205.932 139.23 205.658C138.697 205.385 138.299 205.059 138.039 204.682C137.785 204.304 137.658 203.855 137.658 203.334C137.658 202.468 138.023 201.736 138.752 201.137C139.488 200.538 140.425 200.238 141.564 200.238C142.762 200.238 143.732 200.548 144.475 201.166C145.223 201.785 145.598 202.576 145.598 203.539H143.781C143.781 203.044 143.57 202.618 143.146 202.26C142.73 201.902 142.202 201.723 141.564 201.723C140.907 201.723 140.393 201.866 140.021 202.152C139.65 202.439 139.465 202.813 139.465 203.275C139.465 203.712 139.637 204.04 139.982 204.262C140.327 204.483 140.949 204.695 141.848 204.896C142.753 205.098 143.485 205.339 144.045 205.619C144.605 205.899 145.018 206.238 145.285 206.635C145.559 207.025 145.695 207.504 145.695 208.07C145.695 209.014 145.318 209.773 144.562 210.346C143.807 210.912 142.827 211.195 141.623 211.195C140.777 211.195 140.028 211.046 139.377 210.746C138.726 210.447 138.215 210.03 137.844 209.496C137.479 208.956 137.297 208.373 137.297 207.748H139.104C139.136 208.354 139.377 208.835 139.826 209.193C140.282 209.545 140.881 209.721 141.623 209.721C142.307 209.721 142.854 209.584 143.264 209.311C143.68 209.031 143.889 208.66 143.889 208.197ZM150.5 197.875V200.434H152.473V201.83H150.5V208.383C150.5 208.806 150.588 209.125 150.764 209.34C150.939 209.548 151.239 209.652 151.662 209.652C151.87 209.652 152.157 209.613 152.521 209.535V211C152.046 211.13 151.584 211.195 151.135 211.195C150.327 211.195 149.719 210.951 149.309 210.463C148.898 209.975 148.693 209.281 148.693 208.383V201.83H146.77V200.434H148.693V197.875H150.5ZM168.479 205.834C168.479 207.442 168.111 208.738 167.375 209.721C166.639 210.704 165.643 211.195 164.387 211.195C163.104 211.195 162.095 210.788 161.359 209.975V215.062H159.553V200.434H161.203L161.291 201.605C162.027 200.694 163.049 200.238 164.357 200.238C165.627 200.238 166.63 200.717 167.365 201.674C168.107 202.631 168.479 203.962 168.479 205.668V205.834ZM166.672 205.629C166.672 204.438 166.418 203.497 165.91 202.807C165.402 202.117 164.706 201.771 163.82 201.771C162.727 201.771 161.906 202.257 161.359 203.227V208.275C161.9 209.239 162.727 209.721 163.84 209.721C164.706 209.721 165.393 209.379 165.9 208.695C166.415 208.005 166.672 206.983 166.672 205.629ZM175.891 202.055C175.617 202.009 175.321 201.986 175.002 201.986C173.817 201.986 173.013 202.491 172.59 203.5V211H170.783V200.434H172.541L172.57 201.654C173.163 200.71 174.003 200.238 175.09 200.238C175.441 200.238 175.708 200.284 175.891 200.375V202.055ZM179.523 211H177.717V200.434H179.523V211ZM177.57 197.631C177.57 197.338 177.658 197.09 177.834 196.889C178.016 196.687 178.283 196.586 178.635 196.586C178.986 196.586 179.253 196.687 179.436 196.889C179.618 197.09 179.709 197.338 179.709 197.631C179.709 197.924 179.618 198.168 179.436 198.363C179.253 198.559 178.986 198.656 178.635 198.656C178.283 198.656 178.016 198.559 177.834 198.363C177.658 198.168 177.57 197.924 177.57 197.631ZM186.662 209.721C187.307 209.721 187.87 209.525 188.352 209.135C188.833 208.744 189.1 208.256 189.152 207.67H190.861C190.829 208.275 190.62 208.852 190.236 209.398C189.852 209.945 189.338 210.382 188.693 210.707C188.055 211.033 187.378 211.195 186.662 211.195C185.223 211.195 184.077 210.717 183.225 209.76C182.378 208.796 181.955 207.481 181.955 205.814V205.512C181.955 204.483 182.144 203.568 182.521 202.768C182.899 201.967 183.439 201.345 184.143 200.902C184.852 200.46 185.689 200.238 186.652 200.238C187.837 200.238 188.82 200.593 189.602 201.303C190.389 202.012 190.809 202.934 190.861 204.066H189.152C189.1 203.383 188.84 202.823 188.371 202.387C187.909 201.944 187.336 201.723 186.652 201.723C185.734 201.723 185.021 202.055 184.514 202.719C184.012 203.376 183.762 204.33 183.762 205.58V205.922C183.762 207.139 184.012 208.077 184.514 208.734C185.015 209.392 185.731 209.721 186.662 209.721ZM197.277 211.195C195.845 211.195 194.68 210.727 193.781 209.789C192.883 208.845 192.434 207.585 192.434 206.01V205.678C192.434 204.63 192.632 203.695 193.029 202.875C193.433 202.048 193.993 201.404 194.709 200.941C195.432 200.473 196.213 200.238 197.053 200.238C198.426 200.238 199.494 200.691 200.256 201.596C201.018 202.501 201.398 203.796 201.398 205.482V206.234H194.24C194.266 207.276 194.569 208.119 195.148 208.764C195.734 209.402 196.477 209.721 197.375 209.721C198.013 209.721 198.553 209.59 198.996 209.33C199.439 209.07 199.826 208.725 200.158 208.295L201.262 209.154C200.376 210.515 199.048 211.195 197.277 211.195ZM197.053 201.723C196.324 201.723 195.712 201.99 195.217 202.523C194.722 203.051 194.416 203.793 194.299 204.75H199.592V204.613C199.54 203.695 199.292 202.986 198.85 202.484C198.407 201.977 197.808 201.723 197.053 201.723ZM209.65 208.197C209.65 207.709 209.465 207.331 209.094 207.064C208.729 206.791 208.088 206.557 207.17 206.361C206.258 206.166 205.533 205.932 204.992 205.658C204.458 205.385 204.061 205.059 203.801 204.682C203.547 204.304 203.42 203.855 203.42 203.334C203.42 202.468 203.785 201.736 204.514 201.137C205.249 200.538 206.187 200.238 207.326 200.238C208.524 200.238 209.494 200.548 210.236 201.166C210.985 201.785 211.359 202.576 211.359 203.539H209.543C209.543 203.044 209.331 202.618 208.908 202.26C208.492 201.902 207.964 201.723 207.326 201.723C206.669 201.723 206.154 201.866 205.783 202.152C205.412 202.439 205.227 202.813 205.227 203.275C205.227 203.712 205.399 204.04 205.744 204.262C206.089 204.483 206.711 204.695 207.609 204.896C208.514 205.098 209.247 205.339 209.807 205.619C210.367 205.899 210.78 206.238 211.047 206.635C211.32 207.025 211.457 207.504 211.457 208.07C211.457 209.014 211.079 209.773 210.324 210.346C209.569 210.912 208.589 211.195 207.385 211.195C206.538 211.195 205.79 211.046 205.139 210.746C204.488 210.447 203.977 210.03 203.605 209.496C203.241 208.956 203.059 208.373 203.059 207.748H204.865C204.898 208.354 205.139 208.835 205.588 209.193C206.044 209.545 206.643 209.721 207.385 209.721C208.068 209.721 208.615 209.584 209.025 209.311C209.442 209.031 209.65 208.66 209.65 208.197ZM89.9824 233.619C89.9824 232.584 90.1842 231.653 90.5879 230.826C90.998 229.999 91.5645 229.361 92.2871 228.912C93.0163 228.463 93.8464 228.238 94.7773 228.238C96.2161 228.238 97.3783 228.736 98.2637 229.732C99.1556 230.729 99.6016 232.053 99.6016 233.707V233.834C99.6016 234.863 99.403 235.787 99.0059 236.607C98.6152 237.421 98.0521 238.056 97.3164 238.512C96.5872 238.967 95.7474 239.195 94.7969 239.195C93.3646 239.195 92.2025 238.697 91.3105 237.701C90.4251 236.705 89.9824 235.387 89.9824 233.746V233.619ZM91.7988 233.834C91.7988 235.006 92.069 235.947 92.6094 236.656C93.1562 237.366 93.8854 237.721 94.7969 237.721C95.7148 237.721 96.444 237.363 96.9844 236.646C97.5247 235.924 97.7949 234.915 97.7949 233.619C97.7949 232.46 97.5182 231.523 96.9648 230.807C96.418 230.084 95.6888 229.723 94.7773 229.723C93.8854 229.723 93.166 230.077 92.6191 230.787C92.0723 231.497 91.7988 232.512 91.7988 233.834ZM103.576 228.434L103.635 229.762C104.442 228.746 105.497 228.238 106.799 228.238C109.032 228.238 110.158 229.498 110.178 232.018V239H108.371V232.008C108.365 231.246 108.189 230.683 107.844 230.318C107.505 229.954 106.975 229.771 106.252 229.771C105.666 229.771 105.152 229.928 104.709 230.24C104.266 230.553 103.921 230.963 103.674 231.471V239H101.867V228.434H103.576ZM120.314 225.875V228.434H122.287V229.83H120.314V236.383C120.314 236.806 120.402 237.125 120.578 237.34C120.754 237.548 121.053 237.652 121.477 237.652C121.685 237.652 121.971 237.613 122.336 237.535V239C121.861 239.13 121.398 239.195 120.949 239.195C120.142 239.195 119.533 238.951 119.123 238.463C118.713 237.975 118.508 237.281 118.508 236.383V229.83H116.584V228.434H118.508V225.875H120.314ZM126.213 229.713C127.014 228.73 128.055 228.238 129.338 228.238C131.571 228.238 132.697 229.498 132.717 232.018V239H130.91V232.008C130.904 231.246 130.728 230.683 130.383 230.318C130.044 229.954 129.514 229.771 128.791 229.771C128.205 229.771 127.691 229.928 127.248 230.24C126.805 230.553 126.46 230.963 126.213 231.471V239H124.406V224H126.213V229.713ZM139.807 239.195C138.374 239.195 137.209 238.727 136.311 237.789C135.412 236.845 134.963 235.585 134.963 234.01V233.678C134.963 232.63 135.161 231.695 135.559 230.875C135.962 230.048 136.522 229.404 137.238 228.941C137.961 228.473 138.742 228.238 139.582 228.238C140.956 228.238 142.023 228.691 142.785 229.596C143.547 230.501 143.928 231.796 143.928 233.482V234.234H136.77C136.796 235.276 137.098 236.119 137.678 236.764C138.264 237.402 139.006 237.721 139.904 237.721C140.542 237.721 141.083 237.59 141.525 237.33C141.968 237.07 142.355 236.725 142.688 236.295L143.791 237.154C142.906 238.515 141.577 239.195 139.807 239.195ZM139.582 229.723C138.853 229.723 138.241 229.99 137.746 230.523C137.251 231.051 136.945 231.793 136.828 232.75H142.121V232.613C142.069 231.695 141.822 230.986 141.379 230.484C140.936 229.977 140.337 229.723 139.582 229.723ZM152.688 228.434L152.736 229.605C153.511 228.694 154.556 228.238 155.871 228.238C157.349 228.238 158.355 228.805 158.889 229.938C159.24 229.43 159.696 229.02 160.256 228.707C160.822 228.395 161.49 228.238 162.258 228.238C164.576 228.238 165.754 229.465 165.793 231.92V239H163.986V232.027C163.986 231.272 163.814 230.709 163.469 230.338C163.124 229.96 162.544 229.771 161.73 229.771C161.06 229.771 160.503 229.973 160.061 230.377C159.618 230.774 159.361 231.311 159.289 231.988V239H157.473V232.076C157.473 230.54 156.721 229.771 155.217 229.771C154.032 229.771 153.221 230.276 152.785 231.285V239H150.979V228.434H152.688ZM175.051 239C174.947 238.792 174.862 238.421 174.797 237.887C173.957 238.759 172.954 239.195 171.789 239.195C170.747 239.195 169.891 238.902 169.221 238.316C168.557 237.724 168.225 236.975 168.225 236.07C168.225 234.97 168.641 234.117 169.475 233.512C170.314 232.9 171.493 232.594 173.01 232.594H174.768V231.764C174.768 231.132 174.579 230.631 174.201 230.26C173.824 229.882 173.267 229.693 172.531 229.693C171.887 229.693 171.346 229.856 170.91 230.182C170.474 230.507 170.256 230.901 170.256 231.363H168.439C168.439 230.836 168.625 230.328 168.996 229.84C169.374 229.345 169.882 228.954 170.52 228.668C171.164 228.382 171.87 228.238 172.639 228.238C173.856 228.238 174.81 228.544 175.5 229.156C176.19 229.762 176.548 230.598 176.574 231.666V236.529C176.574 237.499 176.698 238.271 176.945 238.844V239H175.051ZM172.053 237.623C172.619 237.623 173.156 237.477 173.664 237.184C174.172 236.891 174.54 236.51 174.768 236.041V233.873H173.352C171.138 233.873 170.031 234.521 170.031 235.816C170.031 236.383 170.22 236.826 170.598 237.145C170.975 237.464 171.46 237.623 172.053 237.623ZM184.514 230.055C184.24 230.009 183.944 229.986 183.625 229.986C182.44 229.986 181.636 230.491 181.213 231.5V239H179.406V228.434H181.164L181.193 229.654C181.786 228.71 182.626 228.238 183.713 228.238C184.064 228.238 184.331 228.284 184.514 228.375V230.055ZM189.133 234.107L188 235.289V239H186.193V224H188V233.072L188.967 231.91L192.258 228.434H194.455L190.344 232.848L194.934 239H192.814L189.133 234.107ZM200.51 239.195C199.077 239.195 197.912 238.727 197.014 237.789C196.115 236.845 195.666 235.585 195.666 234.01V233.678C195.666 232.63 195.865 231.695 196.262 230.875C196.665 230.048 197.225 229.404 197.941 228.941C198.664 228.473 199.445 228.238 200.285 228.238C201.659 228.238 202.727 228.691 203.488 229.596C204.25 230.501 204.631 231.796 204.631 233.482V234.234H197.473C197.499 235.276 197.801 236.119 198.381 236.764C198.967 237.402 199.709 237.721 200.607 237.721C201.245 237.721 201.786 237.59 202.229 237.33C202.671 237.07 203.059 236.725 203.391 236.295L204.494 237.154C203.609 238.515 202.281 239.195 200.51 239.195ZM200.285 229.723C199.556 229.723 198.944 229.99 198.449 230.523C197.954 231.051 197.648 231.793 197.531 232.75H202.824V232.613C202.772 231.695 202.525 230.986 202.082 230.484C201.639 229.977 201.04 229.723 200.285 229.723ZM209.182 225.875V228.434H211.154V229.83H209.182V236.383C209.182 236.806 209.27 237.125 209.445 237.34C209.621 237.548 209.921 237.652 210.344 237.652C210.552 237.652 210.839 237.613 211.203 237.535V239C210.728 239.13 210.266 239.195 209.816 239.195C209.009 239.195 208.4 238.951 207.99 238.463C207.58 237.975 207.375 237.281 207.375 236.383V229.83H205.451V228.434H207.375V225.875H209.182Z" fill="black"/>
<g clip-path="url(#clip0)">
<path d="M166.664 100C183.205 100 196.663 86.5422 196.663 70.0011C196.663 53.46 183.205 40.002 166.664 40.002C150.123 40.002 136.665 53.46 136.665 70.0011C136.665 86.5422 150.123 100 166.664 100ZM166.664 43.3351C181.367 43.3351 193.33 55.298 193.33 70.0009C193.33 84.7038 181.367 96.6667 166.664 96.6667C151.961 96.6667 139.999 84.7038 139.999 70.0009C139.999 55.298 151.961 43.3351 166.664 43.3351Z" fill="#FFAC22"/>
<path d="M166.664 78.3341C164.826 78.3341 163.331 76.8393 163.331 75.0008C163.331 74.0809 162.586 73.3343 161.665 73.3343C160.743 73.3343 159.998 74.0809 159.998 75.0008C159.998 78.0974 162.13 80.6856 164.998 81.4307V81.6674C164.998 82.5873 165.743 83.334 166.664 83.334C167.586 83.334 168.331 82.5873 168.331 81.6674V81.4307C171.199 80.6858 173.331 78.0974 173.331 75.0008C173.331 71.3242 170.341 68.3344 166.664 68.3344C164.826 68.3344 163.331 66.8395 163.331 65.0011C163.331 63.1629 164.826 61.6678 166.664 61.6678C168.503 61.6678 169.998 63.1627 169.998 65.0011C169.998 65.921 170.743 66.6677 171.664 66.6677C172.586 66.6677 173.331 65.921 173.331 65.0011C173.331 61.9045 171.199 59.3163 168.331 58.5712V58.3345C168.331 57.4146 167.586 56.668 166.664 56.668C165.743 56.668 164.998 57.4146 164.998 58.3345V58.5712C162.13 59.3161 159.998 61.9045 159.998 65.0011C159.998 68.6778 162.988 71.6675 166.664 71.6675C168.503 71.6675 169.998 73.1624 169.998 75.0008C169.998 76.8393 168.503 78.3341 166.664 78.3341Z" fill="#FFAC22"/>
<path d="M166.665 93.3332C179.531 93.3332 189.997 82.8669 189.997 70.0005C189.997 57.1341 179.531 46.668 166.665 46.668C153.798 46.668 143.332 57.1343 143.332 70.0007C143.332 82.8671 153.798 93.3332 166.665 93.3332ZM166.665 50.0013C177.693 50.0013 186.664 58.9727 186.664 70.0007C186.664 81.0287 177.693 90.0001 166.665 90.0001C155.637 90.0001 146.665 81.0287 146.665 70.0007C146.665 58.9727 155.637 50.0013 166.665 50.0013Z" fill="#FFAC22"/>
<path d="M108.333 129.166C108.333 127.788 107.211 126.666 105.833 126.666C104.455 126.666 103.333 127.788 103.333 129.166C103.333 130.544 104.455 131.666 105.833 131.666C107.211 131.666 108.333 130.544 108.333 129.166Z" fill="#FFAC22"/>
<path d="M199.104 110C197.265 106.815 193.174 105.725 190.1 107.505L170.919 116.841C167.938 118.333 164.928 118.333 158.331 118.333C151.883 118.333 142.039 116.705 141.939 116.69C141.032 116.538 140.172 117.151 140.022 118.058C139.87 118.966 140.484 119.826 141.392 119.976C141.805 120.046 151.605 121.666 158.331 121.666C165.251 121.666 168.725 121.666 172.393 119.831L191.664 110.447C192.434 110.002 193.33 109.883 194.194 110.113C195.052 110.345 195.772 110.897 196.216 111.667C196.662 112.438 196.781 113.337 196.55 114.197C196.32 115.057 195.769 115.775 194.951 116.248L172.416 130.273C172.37 130.305 167.561 133.333 156.665 133.333C147.217 133.333 132.621 125.29 132.411 125.175C132.259 125.101 128.646 123.333 121.666 123.333C120.745 123.333 120 124.08 120 125C120 125.92 120.745 126.666 121.666 126.666C127.728 126.666 130.851 128.125 130.857 128.125V128.123C131.488 128.473 146.354 136.666 156.665 136.666C168.698 136.666 174.035 133.199 174.211 133.081L196.664 119.106C198.206 118.216 199.309 116.778 199.769 115.06C200.232 113.338 199.994 111.541 199.104 110Z" fill="#FFAC22"/>
<path d="M121.666 103.333H134.999C136.944 103.333 140.248 105.813 143.165 108C146.822 110.743 150.277 113.333 153.331 113.333H163.331C165.863 113.333 167.119 114.481 167.153 114.511C167.478 114.836 167.904 115 168.331 115C168.758 115 169.184 114.836 169.509 114.511C170.161 113.86 170.161 112.806 169.509 112.155C169.289 111.935 167.243 110 163.331 110H153.331C151.386 110 148.081 107.52 145.165 105.333C141.508 102.59 138.053 100 134.999 100H121.666C120.744 100 119.999 100.747 119.999 101.667C119.999 102.586 120.744 103.333 121.666 103.333Z" fill="#FFAC22"/>
<path d="M111.666 93.334H101.667C100.745 93.334 100 94.0806 100 95.0005C100 95.9204 100.745 96.6671 101.667 96.6671H111.666C112.586 96.6671 113.333 97.4153 113.333 98.3336V134.999C113.333 135.918 112.586 136.666 111.666 136.666H101.667C100.745 136.666 100 137.412 100 138.332C100 139.252 100.745 139.999 101.667 139.999H111.666C114.423 139.999 116.666 137.756 116.666 134.999V98.3338C116.666 95.5773 114.423 93.334 111.666 93.334Z" fill="#FFAC22"/>
</g>
<defs>
<clipPath id="clip0">
<rect width="100" height="100" fill="white" transform="translate(100 40)"/>
</clipPath>
</defs>
</svg>
