<svg width="300" height="302" viewBox="0 0 300 302" fill="none" xmlns="http://www.w3.org/2000/svg">
<path d="M35.5176 196.781L40.166 208.383L44.8145 196.781H47.2461V211H45.3711V205.463L45.5469 199.486L40.8789 211H39.4434L34.7852 199.516L34.9707 205.463V211H33.0957V196.781H35.5176ZM49.7949 205.619C49.7949 204.584 49.9967 203.653 50.4004 202.826C50.8105 201.999 51.377 201.361 52.0996 200.912C52.8288 200.463 53.6589 200.238 54.5898 200.238C56.0286 200.238 57.1908 200.736 58.0762 201.732C58.9681 202.729 59.4141 204.053 59.4141 205.707V205.834C59.4141 206.863 59.2155 207.787 58.8184 208.607C58.4277 209.421 57.8646 210.056 57.1289 210.512C56.3997 210.967 55.5599 211.195 54.6094 211.195C53.1771 211.195 52.015 210.697 51.123 209.701C50.2376 208.705 49.7949 207.387 49.7949 205.746V205.619ZM51.6113 205.834C51.6113 207.006 51.8815 207.947 52.4219 208.656C52.9688 209.366 53.6979 209.721 54.6094 209.721C55.5273 209.721 56.2565 209.363 56.7969 208.646C57.3372 207.924 57.6074 206.915 57.6074 205.619C57.6074 204.46 57.3307 203.523 56.7773 202.807C56.2305 202.084 55.5013 201.723 54.5898 201.723C53.6979 201.723 52.9785 202.077 52.4316 202.787C51.8848 203.497 51.6113 204.512 51.6113 205.834ZM70.625 205.834C70.625 207.449 70.2539 208.747 69.5117 209.73C68.7695 210.707 67.7734 211.195 66.5234 211.195C65.1888 211.195 64.1569 210.723 63.4277 209.779L63.3398 211H61.6797V196H63.4863V201.596C64.2155 200.691 65.2214 200.238 66.5039 200.238C67.7865 200.238 68.7923 200.723 69.5215 201.693C70.2572 202.663 70.625 203.992 70.625 205.678V205.834ZM68.8184 205.629C68.8184 204.398 68.5807 203.448 68.1055 202.777C67.6302 202.107 66.9466 201.771 66.0547 201.771C64.8633 201.771 64.0072 202.325 63.4863 203.432V208.002C64.0397 209.109 64.9023 209.662 66.0742 209.662C66.9401 209.662 67.6139 209.327 68.0957 208.656C68.5775 207.986 68.8184 206.977 68.8184 205.629ZM74.873 211H73.0664V200.434H74.873V211ZM72.9199 197.631C72.9199 197.338 73.0078 197.09 73.1836 196.889C73.3659 196.687 73.6328 196.586 73.9844 196.586C74.3359 196.586 74.6029 196.687 74.7852 196.889C74.9674 197.09 75.0586 197.338 75.0586 197.631C75.0586 197.924 74.9674 198.168 74.7852 198.363C74.6029 198.559 74.3359 198.656 73.9844 198.656C73.6328 198.656 73.3659 198.559 73.1836 198.363C73.0078 198.168 72.9199 197.924 72.9199 197.631ZM79.7363 211H77.9297V196H79.7363V211ZM84.5996 211H82.793V200.434H84.5996V211ZM82.6465 197.631C82.6465 197.338 82.7344 197.09 82.9102 196.889C83.0924 196.687 83.3594 196.586 83.7109 196.586C84.0625 196.586 84.3294 196.687 84.5117 196.889C84.694 197.09 84.7852 197.338 84.7852 197.631C84.7852 197.924 84.694 198.168 84.5117 198.363C84.3294 198.559 84.0625 198.656 83.7109 198.656C83.3594 198.656 83.0924 198.559 82.9102 198.363C82.7344 198.168 82.6465 197.924 82.6465 197.631ZM89.9512 197.875V200.434H91.9238V201.83H89.9512V208.383C89.9512 208.806 90.0391 209.125 90.2148 209.34C90.3906 209.548 90.6901 209.652 91.1133 209.652C91.3216 209.652 91.6081 209.613 91.9727 209.535V211C91.4974 211.13 91.0352 211.195 90.5859 211.195C89.7786 211.195 89.1699 210.951 88.7598 210.463C88.3496 209.975 88.1445 209.281 88.1445 208.383V201.83H86.2207V200.434H88.1445V197.875H89.9512ZM97.5 208.354L99.9609 200.434H101.895L97.6465 212.631C96.9889 214.389 95.944 215.268 94.5117 215.268L94.1699 215.238L93.4961 215.111V213.646L93.9844 213.686C94.5964 213.686 95.0716 213.562 95.4102 213.314C95.7552 213.067 96.0384 212.615 96.2598 211.957L96.6602 210.883L92.8906 200.434H94.8633L97.5 208.354ZM102.5 210.053C102.5 209.74 102.591 209.48 102.773 209.271C102.962 209.063 103.242 208.959 103.613 208.959C103.984 208.959 104.264 209.063 104.453 209.271C104.648 209.48 104.746 209.74 104.746 210.053C104.746 210.352 104.648 210.603 104.453 210.805C104.264 211.007 103.984 211.107 103.613 211.107C103.242 211.107 102.962 211.007 102.773 210.805C102.591 210.603 102.5 210.352 102.5 210.053ZM122.412 198.324H117.842V211H115.977V198.324H111.416V196.781H122.412V198.324ZM126.045 201.713C126.846 200.73 127.887 200.238 129.17 200.238C131.403 200.238 132.529 201.498 132.549 204.018V211H130.742V204.008C130.736 203.246 130.56 202.683 130.215 202.318C129.876 201.954 129.346 201.771 128.623 201.771C128.037 201.771 127.523 201.928 127.08 202.24C126.637 202.553 126.292 202.963 126.045 203.471V211H124.238V196H126.045V201.713ZM139.639 211.195C138.206 211.195 137.041 210.727 136.143 209.789C135.244 208.845 134.795 207.585 134.795 206.01V205.678C134.795 204.63 134.993 203.695 135.391 202.875C135.794 202.048 136.354 201.404 137.07 200.941C137.793 200.473 138.574 200.238 139.414 200.238C140.788 200.238 141.855 200.691 142.617 201.596C143.379 202.501 143.76 203.796 143.76 205.482V206.234H136.602C136.628 207.276 136.93 208.119 137.51 208.764C138.096 209.402 138.838 209.721 139.736 209.721C140.374 209.721 140.915 209.59 141.357 209.33C141.8 209.07 142.188 208.725 142.52 208.295L143.623 209.154C142.738 210.515 141.41 211.195 139.639 211.195ZM139.414 201.723C138.685 201.723 138.073 201.99 137.578 202.523C137.083 203.051 136.777 203.793 136.66 204.75H141.953V204.613C141.901 203.695 141.654 202.986 141.211 202.484C140.768 201.977 140.169 201.723 139.414 201.723ZM155.928 202.055C155.654 202.009 155.358 201.986 155.039 201.986C153.854 201.986 153.05 202.491 152.627 203.5V211H150.82V200.434H152.578L152.607 201.654C153.2 200.71 154.04 200.238 155.127 200.238C155.479 200.238 155.745 200.284 155.928 200.375V202.055ZM159.561 211H157.754V200.434H159.561V211ZM157.607 197.631C157.607 197.338 157.695 197.09 157.871 196.889C158.053 196.687 158.32 196.586 158.672 196.586C159.023 196.586 159.29 196.687 159.473 196.889C159.655 197.09 159.746 197.338 159.746 197.631C159.746 197.924 159.655 198.168 159.473 198.363C159.29 198.559 159.023 198.656 158.672 198.656C158.32 198.656 158.053 198.559 157.871 198.363C157.695 198.168 157.607 197.924 157.607 197.631ZM162.031 205.629C162.031 203.982 162.412 202.673 163.174 201.703C163.936 200.727 164.945 200.238 166.201 200.238C167.49 200.238 168.496 200.694 169.219 201.605L169.307 200.434H170.957V210.746C170.957 212.113 170.55 213.191 169.736 213.979C168.929 214.766 167.842 215.16 166.475 215.16C165.713 215.16 164.967 214.997 164.238 214.672C163.509 214.346 162.952 213.9 162.568 213.334L163.506 212.25C164.281 213.207 165.228 213.686 166.348 213.686C167.227 213.686 167.91 213.438 168.398 212.943C168.893 212.449 169.141 211.752 169.141 210.854V209.945C168.418 210.779 167.432 211.195 166.182 211.195C164.945 211.195 163.942 210.697 163.174 209.701C162.412 208.705 162.031 207.348 162.031 205.629ZM163.848 205.834C163.848 207.025 164.092 207.963 164.58 208.646C165.068 209.324 165.752 209.662 166.631 209.662C167.77 209.662 168.607 209.145 169.141 208.109V203.285C168.587 202.276 167.757 201.771 166.65 201.771C165.771 201.771 165.085 202.113 164.59 202.797C164.095 203.48 163.848 204.493 163.848 205.834ZM175.654 211H173.848V200.434H175.654V211ZM173.701 197.631C173.701 197.338 173.789 197.09 173.965 196.889C174.147 196.687 174.414 196.586 174.766 196.586C175.117 196.586 175.384 196.687 175.566 196.889C175.749 197.09 175.84 197.338 175.84 197.631C175.84 197.924 175.749 198.168 175.566 198.363C175.384 198.559 175.117 198.656 174.766 198.656C174.414 198.656 174.147 198.559 173.965 198.363C173.789 198.168 173.701 197.924 173.701 197.631ZM178.115 205.629C178.115 204.008 178.499 202.706 179.268 201.723C180.036 200.733 181.042 200.238 182.285 200.238C183.522 200.238 184.502 200.661 185.225 201.508V196H187.031V211H185.371L185.283 209.867C184.561 210.753 183.555 211.195 182.266 211.195C181.042 211.195 180.042 210.694 179.268 209.691C178.499 208.689 178.115 207.38 178.115 205.766V205.629ZM179.922 205.834C179.922 207.032 180.169 207.969 180.664 208.646C181.159 209.324 181.842 209.662 182.715 209.662C183.861 209.662 184.697 209.148 185.225 208.119V203.266C184.684 202.27 183.854 201.771 182.734 201.771C181.849 201.771 181.159 202.113 180.664 202.797C180.169 203.48 179.922 204.493 179.922 205.834ZM200.957 208.197C200.957 207.709 200.771 207.331 200.4 207.064C200.036 206.791 199.395 206.557 198.477 206.361C197.565 206.166 196.839 205.932 196.299 205.658C195.765 205.385 195.368 205.059 195.107 204.682C194.854 204.304 194.727 203.855 194.727 203.334C194.727 202.468 195.091 201.736 195.82 201.137C196.556 200.538 197.493 200.238 198.633 200.238C199.831 200.238 200.801 200.548 201.543 201.166C202.292 201.785 202.666 202.576 202.666 203.539H200.85C200.85 203.044 200.638 202.618 200.215 202.26C199.798 201.902 199.271 201.723 198.633 201.723C197.975 201.723 197.461 201.866 197.09 202.152C196.719 202.439 196.533 202.813 196.533 203.275C196.533 203.712 196.706 204.04 197.051 204.262C197.396 204.483 198.018 204.695 198.916 204.896C199.821 205.098 200.553 205.339 201.113 205.619C201.673 205.899 202.087 206.238 202.354 206.635C202.627 207.025 202.764 207.504 202.764 208.07C202.764 209.014 202.386 209.773 201.631 210.346C200.876 210.912 199.896 211.195 198.691 211.195C197.845 211.195 197.096 211.046 196.445 210.746C195.794 210.447 195.283 210.03 194.912 209.496C194.548 208.956 194.365 208.373 194.365 207.748H196.172C196.204 208.354 196.445 208.835 196.895 209.193C197.35 209.545 197.949 209.721 198.691 209.721C199.375 209.721 199.922 209.584 200.332 209.311C200.749 209.031 200.957 208.66 200.957 208.197ZM208.066 206.107L206.934 207.289V211H205.127V196H206.934V205.072L207.9 203.91L211.191 200.434H213.389L209.277 204.848L213.867 211H211.748L208.066 206.107ZM219.443 211.195C218.011 211.195 216.846 210.727 215.947 209.789C215.049 208.845 214.6 207.585 214.6 206.01V205.678C214.6 204.63 214.798 203.695 215.195 202.875C215.599 202.048 216.159 201.404 216.875 200.941C217.598 200.473 218.379 200.238 219.219 200.238C220.592 200.238 221.66 200.691 222.422 201.596C223.184 202.501 223.564 203.796 223.564 205.482V206.234H216.406C216.432 207.276 216.735 208.119 217.314 208.764C217.9 209.402 218.643 209.721 219.541 209.721C220.179 209.721 220.719 209.59 221.162 209.33C221.605 209.07 221.992 208.725 222.324 208.295L223.428 209.154C222.542 210.515 221.214 211.195 219.443 211.195ZM219.219 201.723C218.49 201.723 217.878 201.99 217.383 202.523C216.888 203.051 216.582 203.793 216.465 204.75H221.758V204.613C221.706 203.695 221.458 202.986 221.016 202.484C220.573 201.977 219.974 201.723 219.219 201.723ZM227.627 211H225.82V196H227.627V211ZM234.912 211.195C233.48 211.195 232.314 210.727 231.416 209.789C230.518 208.845 230.068 207.585 230.068 206.01V205.678C230.068 204.63 230.267 203.695 230.664 202.875C231.068 202.048 231.628 201.404 232.344 200.941C233.066 200.473 233.848 200.238 234.688 200.238C236.061 200.238 237.129 200.691 237.891 201.596C238.652 202.501 239.033 203.796 239.033 205.482V206.234H231.875C231.901 207.276 232.204 208.119 232.783 208.764C233.369 209.402 234.111 209.721 235.01 209.721C235.648 209.721 236.188 209.59 236.631 209.33C237.074 209.07 237.461 208.725 237.793 208.295L238.896 209.154C238.011 210.515 236.683 211.195 234.912 211.195ZM234.688 201.723C233.958 201.723 233.346 201.99 232.852 202.523C232.357 203.051 232.051 203.793 231.934 204.75H237.227V204.613C237.174 203.695 236.927 202.986 236.484 202.484C236.042 201.977 235.443 201.723 234.688 201.723ZM243.584 197.875V200.434H245.557V201.83H243.584V208.383C243.584 208.806 243.672 209.125 243.848 209.34C244.023 209.548 244.323 209.652 244.746 209.652C244.954 209.652 245.241 209.613 245.605 209.535V211C245.13 211.13 244.668 211.195 244.219 211.195C243.411 211.195 242.803 210.951 242.393 210.463C241.982 209.975 241.777 209.281 241.777 208.383V201.83H239.854V200.434H241.777V197.875H243.584ZM247.002 205.619C247.002 204.584 247.204 203.653 247.607 202.826C248.018 201.999 248.584 201.361 249.307 200.912C250.036 200.463 250.866 200.238 251.797 200.238C253.236 200.238 254.398 200.736 255.283 201.732C256.175 202.729 256.621 204.053 256.621 205.707V205.834C256.621 206.863 256.423 207.787 256.025 208.607C255.635 209.421 255.072 210.056 254.336 210.512C253.607 210.967 252.767 211.195 251.816 211.195C250.384 211.195 249.222 210.697 248.33 209.701C247.445 208.705 247.002 207.387 247.002 205.746V205.619ZM248.818 205.834C248.818 207.006 249.089 207.947 249.629 208.656C250.176 209.366 250.905 209.721 251.816 209.721C252.734 209.721 253.464 209.363 254.004 208.646C254.544 207.924 254.814 206.915 254.814 205.619C254.814 204.46 254.538 203.523 253.984 202.807C253.438 202.084 252.708 201.723 251.797 201.723C250.905 201.723 250.186 202.077 249.639 202.787C249.092 203.497 248.818 204.512 248.818 205.834ZM260.596 200.434L260.654 201.762C261.462 200.746 262.516 200.238 263.818 200.238C266.051 200.238 267.178 201.498 267.197 204.018V211H265.391V204.008C265.384 203.246 265.208 202.683 264.863 202.318C264.525 201.954 263.994 201.771 263.271 201.771C262.686 201.771 262.171 201.928 261.729 202.24C261.286 202.553 260.941 202.963 260.693 203.471V211H258.887V200.434H260.596ZM59.1504 239H57.3438V228.434H59.1504V239ZM57.1973 225.631C57.1973 225.338 57.2852 225.09 57.4609 224.889C57.6432 224.687 57.9102 224.586 58.2617 224.586C58.6133 224.586 58.8802 224.687 59.0625 224.889C59.2448 225.09 59.3359 225.338 59.3359 225.631C59.3359 225.924 59.2448 226.168 59.0625 226.363C58.8802 226.559 58.6133 226.656 58.2617 226.656C57.9102 226.656 57.6432 226.559 57.4609 226.363C57.2852 226.168 57.1973 225.924 57.1973 225.631ZM63.7598 228.434L63.8184 229.762C64.6257 228.746 65.6803 228.238 66.9824 228.238C69.2155 228.238 70.3418 229.498 70.3613 232.018V239H68.5547V232.008C68.5482 231.246 68.3724 230.683 68.0273 230.318C67.6888 229.954 67.1582 229.771 66.4355 229.771C65.8496 229.771 65.3353 229.928 64.8926 230.24C64.4499 230.553 64.1048 230.963 63.8574 231.471V239H62.0508V228.434H63.7598ZM79.2383 236.197C79.2383 235.709 79.0527 235.331 78.6816 235.064C78.3171 234.791 77.6758 234.557 76.7578 234.361C75.8464 234.166 75.1204 233.932 74.5801 233.658C74.0462 233.385 73.6491 233.059 73.3887 232.682C73.1348 232.304 73.0078 231.855 73.0078 231.334C73.0078 230.468 73.3724 229.736 74.1016 229.137C74.8372 228.538 75.7747 228.238 76.9141 228.238C78.112 228.238 79.082 228.548 79.8242 229.166C80.5729 229.785 80.9473 230.576 80.9473 231.539H79.1309C79.1309 231.044 78.9193 230.618 78.4961 230.26C78.0794 229.902 77.5521 229.723 76.9141 229.723C76.2565 229.723 75.7422 229.866 75.3711 230.152C75 230.439 74.8145 230.813 74.8145 231.275C74.8145 231.712 74.987 232.04 75.332 232.262C75.6771 232.483 76.2988 232.695 77.1973 232.896C78.1022 233.098 78.8346 233.339 79.3945 233.619C79.9544 233.899 80.3678 234.238 80.6348 234.635C80.9082 235.025 81.0449 235.504 81.0449 236.07C81.0449 237.014 80.6673 237.773 79.9121 238.346C79.1569 238.912 78.1771 239.195 76.9727 239.195C76.1263 239.195 75.3776 239.046 74.7266 238.746C74.0755 238.447 73.5645 238.03 73.1934 237.496C72.8288 236.956 72.6465 236.373 72.6465 235.748H74.4531C74.4857 236.354 74.7266 236.835 75.1758 237.193C75.6315 237.545 76.2305 237.721 76.9727 237.721C77.6562 237.721 78.2031 237.584 78.6133 237.311C79.0299 237.031 79.2383 236.66 79.2383 236.197ZM85.3613 239H83.5547V228.434H85.3613V239ZM83.4082 225.631C83.4082 225.338 83.4961 225.09 83.6719 224.889C83.8542 224.687 84.1211 224.586 84.4727 224.586C84.8242 224.586 85.0911 224.687 85.2734 224.889C85.4557 225.09 85.5469 225.338 85.5469 225.631C85.5469 225.924 85.4557 226.168 85.2734 226.363C85.0911 226.559 84.8242 226.656 84.4727 226.656C84.1211 226.656 83.8542 226.559 83.6719 226.363C83.4961 226.168 83.4082 225.924 83.4082 225.631ZM87.8223 233.629C87.8223 232.008 88.2064 230.706 88.9746 229.723C89.7428 228.733 90.7487 228.238 91.9922 228.238C93.2292 228.238 94.209 228.661 94.9316 229.508V224H96.7383V239H95.0781L94.9902 237.867C94.2676 238.753 93.2617 239.195 91.9727 239.195C90.7487 239.195 89.7493 238.694 88.9746 237.691C88.2064 236.689 87.8223 235.38 87.8223 233.766V233.629ZM89.6289 233.834C89.6289 235.032 89.8763 235.969 90.3711 236.646C90.8659 237.324 91.5495 237.662 92.4219 237.662C93.5677 237.662 94.4043 237.148 94.9316 236.119V231.266C94.3913 230.27 93.5612 229.771 92.4414 229.771C91.556 229.771 90.8659 230.113 90.3711 230.797C89.8763 231.48 89.6289 232.493 89.6289 233.834ZM103.936 239.195C102.503 239.195 101.338 238.727 100.439 237.789C99.541 236.845 99.0918 235.585 99.0918 234.01V233.678C99.0918 232.63 99.2904 231.695 99.6875 230.875C100.091 230.048 100.651 229.404 101.367 228.941C102.09 228.473 102.871 228.238 103.711 228.238C105.085 228.238 106.152 228.691 106.914 229.596C107.676 230.501 108.057 231.796 108.057 233.482V234.234H100.898C100.924 235.276 101.227 236.119 101.807 236.764C102.393 237.402 103.135 237.721 104.033 237.721C104.671 237.721 105.212 237.59 105.654 237.33C106.097 237.07 106.484 236.725 106.816 236.295L107.92 237.154C107.035 238.515 105.706 239.195 103.936 239.195ZM103.711 229.723C102.982 229.723 102.37 229.99 101.875 230.523C101.38 231.051 101.074 231.793 100.957 232.75H106.25V232.613C106.198 231.695 105.951 230.986 105.508 230.484C105.065 229.977 104.466 229.723 103.711 229.723ZM117.568 225.875V228.434H119.541V229.83H117.568V236.383C117.568 236.806 117.656 237.125 117.832 237.34C118.008 237.548 118.307 237.652 118.73 237.652C118.939 237.652 119.225 237.613 119.59 237.535V239C119.115 239.13 118.652 239.195 118.203 239.195C117.396 239.195 116.787 238.951 116.377 238.463C115.967 237.975 115.762 237.281 115.762 236.383V229.83H113.838V228.434H115.762V225.875H117.568ZM123.467 229.713C124.268 228.73 125.309 228.238 126.592 228.238C128.825 228.238 129.951 229.498 129.971 232.018V239H128.164V232.008C128.158 231.246 127.982 230.683 127.637 230.318C127.298 229.954 126.768 229.771 126.045 229.771C125.459 229.771 124.945 229.928 124.502 230.24C124.059 230.553 123.714 230.963 123.467 231.471V239H121.66V224H123.467V229.713ZM139.199 239C139.095 238.792 139.01 238.421 138.945 237.887C138.105 238.759 137.103 239.195 135.938 239.195C134.896 239.195 134.04 238.902 133.369 238.316C132.705 237.724 132.373 236.975 132.373 236.07C132.373 234.97 132.79 234.117 133.623 233.512C134.463 232.9 135.641 232.594 137.158 232.594H138.916V231.764C138.916 231.132 138.727 230.631 138.35 230.26C137.972 229.882 137.415 229.693 136.68 229.693C136.035 229.693 135.495 229.856 135.059 230.182C134.622 230.507 134.404 230.901 134.404 231.363H132.588C132.588 230.836 132.773 230.328 133.145 229.84C133.522 229.345 134.03 228.954 134.668 228.668C135.312 228.382 136.019 228.238 136.787 228.238C138.005 228.238 138.958 228.544 139.648 229.156C140.339 229.762 140.697 230.598 140.723 231.666V236.529C140.723 237.499 140.846 238.271 141.094 238.844V239H139.199ZM136.201 237.623C136.768 237.623 137.305 237.477 137.812 237.184C138.32 236.891 138.688 236.51 138.916 236.041V233.873H137.5C135.286 233.873 134.18 234.521 134.18 235.816C134.18 236.383 134.368 236.826 134.746 237.145C135.124 237.464 135.609 237.623 136.201 237.623ZM146.006 225.875V228.434H147.979V229.83H146.006V236.383C146.006 236.806 146.094 237.125 146.27 237.34C146.445 237.548 146.745 237.652 147.168 237.652C147.376 237.652 147.663 237.613 148.027 237.535V239C147.552 239.13 147.09 239.195 146.641 239.195C145.833 239.195 145.225 238.951 144.814 238.463C144.404 237.975 144.199 237.281 144.199 236.383V229.83H142.275V228.434H144.199V225.875H146.006ZM161.582 239C161.478 238.792 161.393 238.421 161.328 237.887C160.488 238.759 159.486 239.195 158.32 239.195C157.279 239.195 156.423 238.902 155.752 238.316C155.088 237.724 154.756 236.975 154.756 236.07C154.756 234.97 155.173 234.117 156.006 233.512C156.846 232.9 158.024 232.594 159.541 232.594H161.299V231.764C161.299 231.132 161.11 230.631 160.732 230.26C160.355 229.882 159.798 229.693 159.062 229.693C158.418 229.693 157.878 229.856 157.441 230.182C157.005 230.507 156.787 230.901 156.787 231.363H154.971C154.971 230.836 155.156 230.328 155.527 229.84C155.905 229.345 156.413 228.954 157.051 228.668C157.695 228.382 158.402 228.238 159.17 228.238C160.387 228.238 161.341 228.544 162.031 229.156C162.721 229.762 163.079 230.598 163.105 231.666V236.529C163.105 237.499 163.229 238.271 163.477 238.844V239H161.582ZM158.584 237.623C159.15 237.623 159.688 237.477 160.195 237.184C160.703 236.891 161.071 236.51 161.299 236.041V233.873H159.883C157.669 233.873 156.562 234.521 156.562 235.816C156.562 236.383 156.751 236.826 157.129 237.145C157.507 237.464 157.992 237.623 158.584 237.623ZM167.9 239H166.094V224H167.9V239ZM172.764 239H170.957V224H172.764V239ZM175.186 233.619C175.186 232.584 175.387 231.653 175.791 230.826C176.201 229.999 176.768 229.361 177.49 228.912C178.219 228.463 179.049 228.238 179.98 228.238C181.419 228.238 182.581 228.736 183.467 229.732C184.359 230.729 184.805 232.053 184.805 233.707V233.834C184.805 234.863 184.606 235.787 184.209 236.607C183.818 237.421 183.255 238.056 182.52 238.512C181.79 238.967 180.951 239.195 180 239.195C178.568 239.195 177.406 238.697 176.514 237.701C175.628 236.705 175.186 235.387 175.186 233.746V233.619ZM177.002 233.834C177.002 235.006 177.272 235.947 177.812 236.656C178.359 237.366 179.089 237.721 180 237.721C180.918 237.721 181.647 237.363 182.188 236.646C182.728 235.924 182.998 234.915 182.998 233.619C182.998 232.46 182.721 231.523 182.168 230.807C181.621 230.084 180.892 229.723 179.98 229.723C179.089 229.723 178.369 230.077 177.822 230.787C177.275 231.497 177.002 232.512 177.002 233.834ZM196.426 236.51L198.457 228.434H200.264L197.188 239H195.723L193.154 230.992L190.654 239H189.189L186.123 228.434H187.92L190 236.344L192.461 228.434H193.916L196.426 236.51ZM208.262 236.197C208.262 235.709 208.076 235.331 207.705 235.064C207.34 234.791 206.699 234.557 205.781 234.361C204.87 234.166 204.144 233.932 203.604 233.658C203.07 233.385 202.673 233.059 202.412 232.682C202.158 232.304 202.031 231.855 202.031 231.334C202.031 230.468 202.396 229.736 203.125 229.137C203.861 228.538 204.798 228.238 205.938 228.238C207.135 228.238 208.105 228.548 208.848 229.166C209.596 229.785 209.971 230.576 209.971 231.539H208.154C208.154 231.044 207.943 230.618 207.52 230.26C207.103 229.902 206.576 229.723 205.938 229.723C205.28 229.723 204.766 229.866 204.395 230.152C204.023 230.439 203.838 230.813 203.838 231.275C203.838 231.712 204.01 232.04 204.355 232.262C204.701 232.483 205.322 232.695 206.221 232.896C207.126 233.098 207.858 233.339 208.418 233.619C208.978 233.899 209.391 234.238 209.658 234.635C209.932 235.025 210.068 235.504 210.068 236.07C210.068 237.014 209.691 237.773 208.936 238.346C208.18 238.912 207.201 239.195 205.996 239.195C205.15 239.195 204.401 239.046 203.75 238.746C203.099 238.447 202.588 238.03 202.217 237.496C201.852 236.956 201.67 236.373 201.67 235.748H203.477C203.509 236.354 203.75 236.835 204.199 237.193C204.655 237.545 205.254 237.721 205.996 237.721C206.68 237.721 207.227 237.584 207.637 237.311C208.053 237.031 208.262 236.66 208.262 236.197ZM219.834 225.875V228.434H221.807V229.83H219.834V236.383C219.834 236.806 219.922 237.125 220.098 237.34C220.273 237.548 220.573 237.652 220.996 237.652C221.204 237.652 221.491 237.613 221.855 237.535V239C221.38 239.13 220.918 239.195 220.469 239.195C219.661 239.195 219.053 238.951 218.643 238.463C218.232 237.975 218.027 237.281 218.027 236.383V229.83H216.104V228.434H218.027V225.875H219.834ZM225.732 229.713C226.533 228.73 227.575 228.238 228.857 228.238C231.09 228.238 232.217 229.498 232.236 232.018V239H230.43V232.008C230.423 231.246 230.247 230.683 229.902 230.318C229.564 229.954 229.033 229.771 228.311 229.771C227.725 229.771 227.21 229.928 226.768 230.24C226.325 230.553 225.98 230.963 225.732 231.471V239H223.926V224H225.732V229.713ZM239.326 239.195C237.894 239.195 236.729 238.727 235.83 237.789C234.932 236.845 234.482 235.585 234.482 234.01V233.678C234.482 232.63 234.681 231.695 235.078 230.875C235.482 230.048 236.042 229.404 236.758 228.941C237.48 228.473 238.262 228.238 239.102 228.238C240.475 228.238 241.543 228.691 242.305 229.596C243.066 230.501 243.447 231.796 243.447 233.482V234.234H236.289C236.315 235.276 236.618 236.119 237.197 236.764C237.783 237.402 238.525 237.721 239.424 237.721C240.062 237.721 240.602 237.59 241.045 237.33C241.488 237.07 241.875 236.725 242.207 236.295L243.311 237.154C242.425 238.515 241.097 239.195 239.326 239.195ZM239.102 229.723C238.372 229.723 237.76 229.99 237.266 230.523C236.771 231.051 236.465 231.793 236.348 232.75H241.641V232.613C241.589 231.695 241.341 230.986 240.898 230.484C240.456 229.977 239.857 229.723 239.102 229.723ZM34.8145 265.721C35.459 265.721 36.0221 265.525 36.5039 265.135C36.9857 264.744 37.2526 264.256 37.3047 263.67H39.0137C38.9811 264.275 38.7728 264.852 38.3887 265.398C38.0046 265.945 37.4902 266.382 36.8457 266.707C36.2077 267.033 35.5306 267.195 34.8145 267.195C33.3757 267.195 32.2298 266.717 31.377 265.76C30.5306 264.796 30.1074 263.481 30.1074 261.814V261.512C30.1074 260.483 30.2962 259.568 30.6738 258.768C31.0514 257.967 31.5918 257.345 32.2949 256.902C33.0046 256.46 33.8411 256.238 34.8047 256.238C35.9896 256.238 36.9727 256.593 37.7539 257.303C38.5417 258.012 38.9616 258.934 39.0137 260.066H37.3047C37.2526 259.383 36.9922 258.823 36.5234 258.387C36.0612 257.944 35.4883 257.723 34.8047 257.723C33.8867 257.723 33.1738 258.055 32.666 258.719C32.1647 259.376 31.9141 260.33 31.9141 261.58V261.922C31.9141 263.139 32.1647 264.077 32.666 264.734C33.1673 265.392 33.8835 265.721 34.8145 265.721ZM40.5664 261.619C40.5664 260.584 40.7682 259.653 41.1719 258.826C41.582 257.999 42.1484 257.361 42.8711 256.912C43.6003 256.463 44.4303 256.238 45.3613 256.238C46.8001 256.238 47.9622 256.736 48.8477 257.732C49.7396 258.729 50.1855 260.053 50.1855 261.707V261.834C50.1855 262.863 49.987 263.787 49.5898 264.607C49.1992 265.421 48.6361 266.056 47.9004 266.512C47.1712 266.967 46.3314 267.195 45.3809 267.195C43.9486 267.195 42.7865 266.697 41.8945 265.701C41.0091 264.705 40.5664 263.387 40.5664 261.746V261.619ZM42.3828 261.834C42.3828 263.006 42.653 263.947 43.1934 264.656C43.7402 265.366 44.4694 265.721 45.3809 265.721C46.2988 265.721 47.028 265.363 47.5684 264.646C48.1087 263.924 48.3789 262.915 48.3789 261.619C48.3789 260.46 48.1022 259.523 47.5488 258.807C47.002 258.084 46.2728 257.723 45.3613 257.723C44.4694 257.723 43.75 258.077 43.2031 258.787C42.6562 259.497 42.3828 260.512 42.3828 261.834ZM54.1602 256.434L54.2188 257.762C55.026 256.746 56.0807 256.238 57.3828 256.238C59.6159 256.238 60.7422 257.498 60.7617 260.018V267H58.9551V260.008C58.9486 259.246 58.7728 258.683 58.4277 258.318C58.0892 257.954 57.5586 257.771 56.8359 257.771C56.25 257.771 55.7357 257.928 55.293 258.24C54.8503 258.553 54.5052 258.963 54.2578 259.471V267H52.4512V256.434H54.1602ZM65.9375 253.875V256.434H67.9102V257.83H65.9375V264.383C65.9375 264.806 66.0254 265.125 66.2012 265.34C66.377 265.548 66.6764 265.652 67.0996 265.652C67.3079 265.652 67.5944 265.613 67.959 265.535V267C67.4837 267.13 67.0215 267.195 66.5723 267.195C65.765 267.195 65.1562 266.951 64.7461 266.463C64.3359 265.975 64.1309 265.281 64.1309 264.383V257.83H62.207V256.434H64.1309V253.875H65.9375ZM76.5527 267C76.4486 266.792 76.3639 266.421 76.2988 265.887C75.459 266.759 74.4564 267.195 73.291 267.195C72.2493 267.195 71.3932 266.902 70.7227 266.316C70.0586 265.724 69.7266 264.975 69.7266 264.07C69.7266 262.97 70.1432 262.117 70.9766 261.512C71.8164 260.9 72.9948 260.594 74.5117 260.594H76.2695V259.764C76.2695 259.132 76.0807 258.631 75.7031 258.26C75.3255 257.882 74.7689 257.693 74.0332 257.693C73.3887 257.693 72.8483 257.856 72.4121 258.182C71.9759 258.507 71.7578 258.901 71.7578 259.363H69.9414C69.9414 258.836 70.127 258.328 70.498 257.84C70.8757 257.345 71.3835 256.954 72.0215 256.668C72.666 256.382 73.3724 256.238 74.1406 256.238C75.3581 256.238 76.3118 256.544 77.002 257.156C77.6921 257.762 78.0501 258.598 78.0762 259.666V264.529C78.0762 265.499 78.1999 266.271 78.4473 266.844V267H76.5527ZM73.5547 265.623C74.1211 265.623 74.6582 265.477 75.166 265.184C75.6738 264.891 76.0417 264.51 76.2695 264.041V261.873H74.8535C72.64 261.873 71.5332 262.521 71.5332 263.816C71.5332 264.383 71.722 264.826 72.0996 265.145C72.4772 265.464 72.9622 265.623 73.5547 265.623ZM82.8711 267H81.0645V256.434H82.8711V267ZM80.918 253.631C80.918 253.338 81.0059 253.09 81.1816 252.889C81.3639 252.687 81.6309 252.586 81.9824 252.586C82.334 252.586 82.6009 252.687 82.7832 252.889C82.9655 253.09 83.0566 253.338 83.0566 253.631C83.0566 253.924 82.9655 254.168 82.7832 254.363C82.6009 254.559 82.334 254.656 81.9824 254.656C81.6309 254.656 81.3639 254.559 81.1816 254.363C81.0059 254.168 80.918 253.924 80.918 253.631ZM87.4805 256.434L87.5391 257.762C88.3464 256.746 89.401 256.238 90.7031 256.238C92.9362 256.238 94.0625 257.498 94.082 260.018V267H92.2754V260.008C92.2689 259.246 92.0931 258.683 91.748 258.318C91.4095 257.954 90.8789 257.771 90.1562 257.771C89.5703 257.771 89.056 257.928 88.6133 258.24C88.1706 258.553 87.8255 258.963 87.5781 259.471V267H85.7715V256.434H87.4805ZM101.191 267.195C99.7591 267.195 98.5938 266.727 97.6953 265.789C96.7969 264.845 96.3477 263.585 96.3477 262.01V261.678C96.3477 260.63 96.5462 259.695 96.9434 258.875C97.347 258.048 97.9069 257.404 98.623 256.941C99.3457 256.473 100.127 256.238 100.967 256.238C102.34 256.238 103.408 256.691 104.17 257.596C104.932 258.501 105.312 259.796 105.312 261.482V262.234H98.1543C98.1803 263.276 98.4831 264.119 99.0625 264.764C99.6484 265.402 100.391 265.721 101.289 265.721C101.927 265.721 102.467 265.59 102.91 265.33C103.353 265.07 103.74 264.725 104.072 264.295L105.176 265.154C104.29 266.515 102.962 267.195 101.191 267.195ZM100.967 257.723C100.238 257.723 99.6257 257.99 99.1309 258.523C98.6361 259.051 98.3301 259.793 98.2129 260.75H103.506V260.613C103.454 259.695 103.206 258.986 102.764 258.484C102.321 257.977 101.722 257.723 100.967 257.723ZM112.52 258.055C112.246 258.009 111.95 257.986 111.631 257.986C110.446 257.986 109.642 258.491 109.219 259.5V267H107.412V256.434H109.17L109.199 257.654C109.792 256.71 110.632 256.238 111.719 256.238C112.07 256.238 112.337 256.284 112.52 256.375V258.055ZM121.602 253.875V256.434H123.574V257.83H121.602V264.383C121.602 264.806 121.689 265.125 121.865 265.34C122.041 265.548 122.34 265.652 122.764 265.652C122.972 265.652 123.258 265.613 123.623 265.535V267C123.148 267.13 122.686 267.195 122.236 267.195C121.429 267.195 120.82 266.951 120.41 266.463C120 265.975 119.795 265.281 119.795 264.383V257.83H117.871V256.434H119.795V253.875H121.602ZM125.02 261.619C125.02 260.584 125.221 259.653 125.625 258.826C126.035 257.999 126.602 257.361 127.324 256.912C128.053 256.463 128.883 256.238 129.814 256.238C131.253 256.238 132.415 256.736 133.301 257.732C134.193 258.729 134.639 260.053 134.639 261.707V261.834C134.639 262.863 134.44 263.787 134.043 264.607C133.652 265.421 133.089 266.056 132.354 266.512C131.624 266.967 130.785 267.195 129.834 267.195C128.402 267.195 127.24 266.697 126.348 265.701C125.462 264.705 125.02 263.387 125.02 261.746V261.619ZM126.836 261.834C126.836 263.006 127.106 263.947 127.646 264.656C128.193 265.366 128.923 265.721 129.834 265.721C130.752 265.721 131.481 265.363 132.021 264.646C132.562 263.924 132.832 262.915 132.832 261.619C132.832 260.46 132.555 259.523 132.002 258.807C131.455 258.084 130.726 257.723 129.814 257.723C128.923 257.723 128.203 258.077 127.656 258.787C127.109 259.497 126.836 260.512 126.836 261.834ZM150.811 261.834C150.811 263.449 150.439 264.747 149.697 265.73C148.955 266.707 147.959 267.195 146.709 267.195C145.374 267.195 144.342 266.723 143.613 265.779L143.525 267H141.865V252H143.672V257.596C144.401 256.691 145.407 256.238 146.689 256.238C147.972 256.238 148.978 256.723 149.707 257.693C150.443 258.663 150.811 259.992 150.811 261.678V261.834ZM149.004 261.629C149.004 260.398 148.766 259.448 148.291 258.777C147.816 258.107 147.132 257.771 146.24 257.771C145.049 257.771 144.193 258.325 143.672 259.432V264.002C144.225 265.109 145.088 265.662 146.26 265.662C147.126 265.662 147.799 265.327 148.281 264.656C148.763 263.986 149.004 262.977 149.004 261.629ZM157.48 267.195C156.048 267.195 154.883 266.727 153.984 265.789C153.086 264.845 152.637 263.585 152.637 262.01V261.678C152.637 260.63 152.835 259.695 153.232 258.875C153.636 258.048 154.196 257.404 154.912 256.941C155.635 256.473 156.416 256.238 157.256 256.238C158.63 256.238 159.697 256.691 160.459 257.596C161.221 258.501 161.602 259.796 161.602 261.482V262.234H154.443C154.469 263.276 154.772 264.119 155.352 264.764C155.938 265.402 156.68 265.721 157.578 265.721C158.216 265.721 158.757 265.59 159.199 265.33C159.642 265.07 160.029 264.725 160.361 264.295L161.465 265.154C160.579 266.515 159.251 267.195 157.48 267.195ZM157.256 257.723C156.527 257.723 155.915 257.99 155.42 258.523C154.925 259.051 154.619 259.793 154.502 260.75H159.795V260.613C159.743 259.695 159.495 258.986 159.053 258.484C158.61 257.977 158.011 257.723 157.256 257.723ZM171.113 253.875V256.434H173.086V257.83H171.113V264.383C171.113 264.806 171.201 265.125 171.377 265.34C171.553 265.548 171.852 265.652 172.275 265.652C172.484 265.652 172.77 265.613 173.135 265.535V267C172.66 267.13 172.197 267.195 171.748 267.195C170.941 267.195 170.332 266.951 169.922 266.463C169.512 265.975 169.307 265.281 169.307 264.383V257.83H167.383V256.434H169.307V253.875H171.113ZM180.312 258.055C180.039 258.009 179.743 257.986 179.424 257.986C178.239 257.986 177.435 258.491 177.012 259.5V267H175.205V256.434H176.963L176.992 257.654C177.585 256.71 178.424 256.238 179.512 256.238C179.863 256.238 180.13 256.284 180.312 256.375V258.055ZM188.115 267C188.011 266.792 187.926 266.421 187.861 265.887C187.021 266.759 186.019 267.195 184.854 267.195C183.812 267.195 182.956 266.902 182.285 266.316C181.621 265.724 181.289 264.975 181.289 264.07C181.289 262.97 181.706 262.117 182.539 261.512C183.379 260.9 184.557 260.594 186.074 260.594H187.832V259.764C187.832 259.132 187.643 258.631 187.266 258.26C186.888 257.882 186.331 257.693 185.596 257.693C184.951 257.693 184.411 257.856 183.975 258.182C183.538 258.507 183.32 258.901 183.32 259.363H181.504C181.504 258.836 181.689 258.328 182.061 257.84C182.438 257.345 182.946 256.954 183.584 256.668C184.229 256.382 184.935 256.238 185.703 256.238C186.921 256.238 187.874 256.544 188.564 257.156C189.255 257.762 189.613 258.598 189.639 259.666V264.529C189.639 265.499 189.762 266.271 190.01 266.844V267H188.115ZM185.117 265.623C185.684 265.623 186.221 265.477 186.729 265.184C187.236 264.891 187.604 264.51 187.832 264.041V261.873H186.416C184.202 261.873 183.096 262.521 183.096 263.816C183.096 264.383 183.285 264.826 183.662 265.145C184.04 265.464 184.525 265.623 185.117 265.623ZM194.18 256.434L194.238 257.762C195.046 256.746 196.1 256.238 197.402 256.238C199.635 256.238 200.762 257.498 200.781 260.018V267H198.975V260.008C198.968 259.246 198.792 258.683 198.447 258.318C198.109 257.954 197.578 257.771 196.855 257.771C196.27 257.771 195.755 257.928 195.312 258.24C194.87 258.553 194.525 258.963 194.277 259.471V267H192.471V256.434H194.18ZM209.658 264.197C209.658 263.709 209.473 263.331 209.102 263.064C208.737 262.791 208.096 262.557 207.178 262.361C206.266 262.166 205.54 261.932 205 261.658C204.466 261.385 204.069 261.059 203.809 260.682C203.555 260.304 203.428 259.855 203.428 259.334C203.428 258.468 203.792 257.736 204.521 257.137C205.257 256.538 206.195 256.238 207.334 256.238C208.532 256.238 209.502 256.548 210.244 257.166C210.993 257.785 211.367 258.576 211.367 259.539H209.551C209.551 259.044 209.339 258.618 208.916 258.26C208.499 257.902 207.972 257.723 207.334 257.723C206.676 257.723 206.162 257.866 205.791 258.152C205.42 258.439 205.234 258.813 205.234 259.275C205.234 259.712 205.407 260.04 205.752 260.262C206.097 260.483 206.719 260.695 207.617 260.896C208.522 261.098 209.255 261.339 209.814 261.619C210.374 261.899 210.788 262.238 211.055 262.635C211.328 263.025 211.465 263.504 211.465 264.07C211.465 265.014 211.087 265.773 210.332 266.346C209.577 266.912 208.597 267.195 207.393 267.195C206.546 267.195 205.798 267.046 205.146 266.746C204.495 266.447 203.984 266.03 203.613 265.496C203.249 264.956 203.066 264.373 203.066 263.748H204.873C204.906 264.354 205.146 264.835 205.596 265.193C206.051 265.545 206.65 265.721 207.393 265.721C208.076 265.721 208.623 265.584 209.033 265.311C209.45 265.031 209.658 264.66 209.658 264.197ZM222.744 261.834C222.744 263.442 222.376 264.738 221.641 265.721C220.905 266.704 219.909 267.195 218.652 267.195C217.37 267.195 216.361 266.788 215.625 265.975V271.062H213.818V256.434H215.469L215.557 257.605C216.292 256.694 217.314 256.238 218.623 256.238C219.893 256.238 220.895 256.717 221.631 257.674C222.373 258.631 222.744 259.962 222.744 261.668V261.834ZM220.938 261.629C220.938 260.438 220.684 259.497 220.176 258.807C219.668 258.117 218.971 257.771 218.086 257.771C216.992 257.771 216.172 258.257 215.625 259.227V264.275C216.165 265.239 216.992 265.721 218.105 265.721C218.971 265.721 219.658 265.379 220.166 264.695C220.68 264.005 220.938 262.983 220.938 261.629ZM224.57 261.619C224.57 260.584 224.772 259.653 225.176 258.826C225.586 257.999 226.152 257.361 226.875 256.912C227.604 256.463 228.434 256.238 229.365 256.238C230.804 256.238 231.966 256.736 232.852 257.732C233.743 258.729 234.189 260.053 234.189 261.707V261.834C234.189 262.863 233.991 263.787 233.594 264.607C233.203 265.421 232.64 266.056 231.904 266.512C231.175 266.967 230.335 267.195 229.385 267.195C227.952 267.195 226.79 266.697 225.898 265.701C225.013 264.705 224.57 263.387 224.57 261.746V261.619ZM226.387 261.834C226.387 263.006 226.657 263.947 227.197 264.656C227.744 265.366 228.473 265.721 229.385 265.721C230.303 265.721 231.032 265.363 231.572 264.646C232.113 263.924 232.383 262.915 232.383 261.619C232.383 260.46 232.106 259.523 231.553 258.807C231.006 258.084 230.277 257.723 229.365 257.723C228.473 257.723 227.754 258.077 227.207 258.787C226.66 259.497 226.387 260.512 226.387 261.834ZM241.562 258.055C241.289 258.009 240.993 257.986 240.674 257.986C239.489 257.986 238.685 258.491 238.262 259.5V267H236.455V256.434H238.213L238.242 257.654C238.835 256.71 239.674 256.238 240.762 256.238C241.113 256.238 241.38 256.284 241.562 256.375V258.055ZM246.172 253.875V256.434H248.145V257.83H246.172V264.383C246.172 264.806 246.26 265.125 246.436 265.34C246.611 265.548 246.911 265.652 247.334 265.652C247.542 265.652 247.829 265.613 248.193 265.535V267C247.718 267.13 247.256 267.195 246.807 267.195C245.999 267.195 245.391 266.951 244.98 266.463C244.57 265.975 244.365 265.281 244.365 264.383V257.83H242.441V256.434H244.365V253.875H246.172ZM254.648 267.195C253.216 267.195 252.051 266.727 251.152 265.789C250.254 264.845 249.805 263.585 249.805 262.01V261.678C249.805 260.63 250.003 259.695 250.4 258.875C250.804 258.048 251.364 257.404 252.08 256.941C252.803 256.473 253.584 256.238 254.424 256.238C255.798 256.238 256.865 256.691 257.627 257.596C258.389 258.501 258.77 259.796 258.77 261.482V262.234H251.611C251.637 263.276 251.94 264.119 252.52 264.764C253.105 265.402 253.848 265.721 254.746 265.721C255.384 265.721 255.924 265.59 256.367 265.33C256.81 265.07 257.197 264.725 257.529 264.295L258.633 265.154C257.747 266.515 256.419 267.195 254.648 267.195ZM254.424 257.723C253.695 257.723 253.083 257.99 252.588 258.523C252.093 259.051 251.787 259.793 251.67 260.75H256.963V260.613C256.911 259.695 256.663 258.986 256.221 258.484C255.778 257.977 255.179 257.723 254.424 257.723ZM260.43 261.629C260.43 260.008 260.814 258.706 261.582 257.723C262.35 256.733 263.356 256.238 264.6 256.238C265.837 256.238 266.816 256.661 267.539 257.508V252H269.346V267H267.686L267.598 265.867C266.875 266.753 265.869 267.195 264.58 267.195C263.356 267.195 262.357 266.694 261.582 265.691C260.814 264.689 260.43 263.38 260.43 261.766V261.629ZM262.236 261.834C262.236 263.032 262.484 263.969 262.979 264.646C263.473 265.324 264.157 265.662 265.029 265.662C266.175 265.662 267.012 265.148 267.539 264.119V259.266C266.999 258.27 266.169 257.771 265.049 257.771C264.163 257.771 263.473 258.113 262.979 258.797C262.484 259.48 262.236 260.493 262.236 261.834ZM110.312 295C110.208 294.792 110.124 294.421 110.059 293.887C109.219 294.759 108.216 295.195 107.051 295.195C106.009 295.195 105.153 294.902 104.482 294.316C103.818 293.724 103.486 292.975 103.486 292.07C103.486 290.97 103.903 290.117 104.736 289.512C105.576 288.9 106.755 288.594 108.271 288.594H110.029V287.764C110.029 287.132 109.84 286.631 109.463 286.26C109.085 285.882 108.529 285.693 107.793 285.693C107.148 285.693 106.608 285.856 106.172 286.182C105.736 286.507 105.518 286.901 105.518 287.363H103.701C103.701 286.836 103.887 286.328 104.258 285.84C104.635 285.345 105.143 284.954 105.781 284.668C106.426 284.382 107.132 284.238 107.9 284.238C109.118 284.238 110.072 284.544 110.762 285.156C111.452 285.762 111.81 286.598 111.836 287.666V292.529C111.836 293.499 111.96 294.271 112.207 294.844V295H110.312ZM107.314 293.623C107.881 293.623 108.418 293.477 108.926 293.184C109.434 292.891 109.801 292.51 110.029 292.041V289.873H108.613C106.4 289.873 105.293 290.521 105.293 291.816C105.293 292.383 105.482 292.826 105.859 293.145C106.237 293.464 106.722 293.623 107.314 293.623ZM116.377 284.434L116.436 285.762C117.243 284.746 118.298 284.238 119.6 284.238C121.833 284.238 122.959 285.498 122.979 288.018V295H121.172V288.008C121.165 287.246 120.99 286.683 120.645 286.318C120.306 285.954 119.775 285.771 119.053 285.771C118.467 285.771 117.952 285.928 117.51 286.24C117.067 286.553 116.722 286.963 116.475 287.471V295H114.668V284.434H116.377ZM129.16 292.354L131.621 284.434H133.555L129.307 296.631C128.649 298.389 127.604 299.268 126.172 299.268L125.83 299.238L125.156 299.111V297.646L125.645 297.686C126.257 297.686 126.732 297.562 127.07 297.314C127.415 297.067 127.699 296.615 127.92 295.957L128.32 294.883L124.551 284.434H126.523L129.16 292.354ZM144.531 292.51L146.562 284.434H148.369L145.293 295H143.828L141.26 286.992L138.76 295H137.295L134.229 284.434H136.025L138.105 292.344L140.566 284.434H142.021L144.531 292.51ZM152.021 285.713C152.822 284.73 153.864 284.238 155.146 284.238C157.38 284.238 158.506 285.498 158.525 288.018V295H156.719V288.008C156.712 287.246 156.536 286.683 156.191 286.318C155.853 285.954 155.322 285.771 154.6 285.771C154.014 285.771 153.499 285.928 153.057 286.24C152.614 286.553 152.269 286.963 152.021 287.471V295H150.215V280H152.021V285.713ZM165.615 295.195C164.183 295.195 163.018 294.727 162.119 293.789C161.221 292.845 160.771 291.585 160.771 290.01V289.678C160.771 288.63 160.97 287.695 161.367 286.875C161.771 286.048 162.331 285.404 163.047 284.941C163.77 284.473 164.551 284.238 165.391 284.238C166.764 284.238 167.832 284.691 168.594 285.596C169.355 286.501 169.736 287.796 169.736 289.482V290.234H162.578C162.604 291.276 162.907 292.119 163.486 292.764C164.072 293.402 164.814 293.721 165.713 293.721C166.351 293.721 166.891 293.59 167.334 293.33C167.777 293.07 168.164 292.725 168.496 292.295L169.6 293.154C168.714 294.515 167.386 295.195 165.615 295.195ZM165.391 285.723C164.661 285.723 164.049 285.99 163.555 286.523C163.06 287.051 162.754 287.793 162.637 288.75H167.93V288.613C167.878 287.695 167.63 286.986 167.188 286.484C166.745 285.977 166.146 285.723 165.391 285.723ZM176.943 286.055C176.67 286.009 176.374 285.986 176.055 285.986C174.87 285.986 174.066 286.491 173.643 287.5V295H171.836V284.434H173.594L173.623 285.654C174.215 284.71 175.055 284.238 176.143 284.238C176.494 284.238 176.761 284.284 176.943 284.375V286.055ZM182.803 295.195C181.37 295.195 180.205 294.727 179.307 293.789C178.408 292.845 177.959 291.585 177.959 290.01V289.678C177.959 288.63 178.158 287.695 178.555 286.875C178.958 286.048 179.518 285.404 180.234 284.941C180.957 284.473 181.738 284.238 182.578 284.238C183.952 284.238 185.02 284.691 185.781 285.596C186.543 286.501 186.924 287.796 186.924 289.482V290.234H179.766C179.792 291.276 180.094 292.119 180.674 292.764C181.26 293.402 182.002 293.721 182.9 293.721C183.538 293.721 184.079 293.59 184.521 293.33C184.964 293.07 185.352 292.725 185.684 292.295L186.787 293.154C185.902 294.515 184.574 295.195 182.803 295.195ZM182.578 285.723C181.849 285.723 181.237 285.99 180.742 286.523C180.247 287.051 179.941 287.793 179.824 288.75H185.117V288.613C185.065 287.695 184.818 286.986 184.375 286.484C183.932 285.977 183.333 285.723 182.578 285.723Z" fill="black"/>
<path d="M165 130H161.666C160.747 130 160 130.747 160 131.667C160 132.587 160.747 133.333 161.666 133.333H165C165.92 133.333 166.666 132.587 166.666 131.667C166.666 130.747 165.92 130 165 130Z" fill="#FFAC22"/>
<path d="M151.667 130H135C134.08 130 133.333 130.747 133.333 131.667C133.333 132.587 134.08 133.333 135 133.333H151.667C152.587 133.333 153.333 132.587 153.333 131.667C153.333 130.747 152.587 130 151.667 130Z" fill="#FFAC22"/>
<path d="M125 130H101.667C100.747 130 100 130.747 100 131.667C100 132.587 100.747 133.333 101.667 133.333H125C125.92 133.333 126.667 132.587 126.667 131.667C126.667 130.747 125.92 130 125 130Z" fill="#FFAC22"/>
<path d="M197.845 88.8211L193.277 84.2527L191.667 64.9994C191.667 60.4045 187.928 56.666 183.333 56.666H171.667C170.747 56.666 170 57.4127 170 58.3326C170 59.2525 170.747 59.9992 171.667 59.9992H183.333C186.043 59.9992 188.333 62.2893 188.338 65.1375L189.855 83.3324H184.363L186.49 79.0773C186.903 78.2541 186.568 77.2541 185.745 76.8424C184.92 76.4291 183.92 76.7641 183.508 77.5873L180.637 83.3322H171.667C170.747 83.3322 170 84.0789 170 84.9988C170 85.9187 170.747 86.6654 171.667 86.6654H190.977L195.489 91.1771C196.439 92.1271 196.664 94.3121 196.667 94.9988V96.6654H195C194.08 96.6654 193.333 97.4121 193.333 98.332C193.333 99.2519 194.08 99.9986 195 99.9986H196.667V113.332H193.2C192.388 107.687 187.533 103.332 181.667 103.332C175.233 103.332 170 108.565 170 114.999C170 121.432 175.233 126.665 181.667 126.665C187.533 126.665 192.388 122.31 193.2 116.665H198.333C199.253 116.665 200 115.919 200 114.999V94.9994C200 94.5877 199.94 90.9145 197.845 88.8211ZM181.667 123.333C177.072 123.333 173.333 119.595 173.333 114.999C173.333 110.404 177.072 106.666 181.667 106.666C186.262 106.666 190 110.404 190 114.999C190 119.595 186.262 123.333 181.667 123.333Z" fill="#FFAC22"/>
<path d="M125 110C122.243 110 120 112.243 120 115C120 117.757 122.243 120 125 120C127.757 120 130 117.757 130 115C130 112.243 127.757 110 125 110ZM125 116.667C124.082 116.667 123.333 115.918 123.333 115C123.333 114.082 124.082 113.333 125 113.333C125.918 113.333 126.667 114.082 126.667 115C126.667 115.918 125.918 116.667 125 116.667Z" fill="#FFAC22"/>
<path d="M198.333 130H171.667C170.747 130 170 130.747 170 131.667C170 132.587 170.747 133.333 171.667 133.333H198.333C199.253 133.333 200 132.587 200 131.667C200 130.747 199.253 130 198.333 130Z" fill="#FFAC22"/>
<path d="M181.666 110C178.91 110 176.666 112.243 176.666 115C176.666 117.757 178.91 120 181.666 120C184.423 120 186.666 117.757 186.666 115C186.666 112.243 184.423 110 181.666 110ZM181.666 116.667C180.748 116.667 180 115.918 180 115C180 114.082 180.748 113.333 181.666 113.333C182.585 113.333 183.333 114.082 183.333 115C183.333 115.918 182.585 116.667 181.666 116.667Z" fill="#FFAC22"/>
<path d="M165 46.666H108.333C103.738 46.666 100 50.4045 100 54.9994V108.333C100 113.006 103.66 116.666 108.333 116.666C109.253 116.666 110 115.92 110 115C110 114.08 109.253 113.333 108.333 113.333C105.53 113.333 103.333 111.136 103.333 108.333V54.9994C103.333 52.2428 105.577 49.9994 108.333 49.9994H163.333V96.666H108.333C107.413 96.666 106.667 97.4127 106.667 98.3326C106.667 99.2525 107.413 99.9992 108.333 99.9992H163.333V113.333H136.533C135.722 107.688 130.865 103.333 125 103.333C118.567 103.333 113.333 108.566 113.333 114.999C113.333 121.432 118.567 126.666 125 126.666C130.865 126.666 135.722 122.311 136.533 116.666H165C165.92 116.666 166.667 115.919 166.667 114.999V48.3328C166.667 47.4127 165.92 46.666 165 46.666ZM125 123.333C120.405 123.333 116.667 119.595 116.667 114.999C116.667 110.404 120.405 106.666 125 106.666C129.595 106.666 133.333 110.404 133.333 114.999C133.333 119.595 129.595 123.333 125 123.333Z" fill="#FFAC22"/>
</svg>
