<svg width="300" height="274" viewBox="0 0 300 274" fill="none" xmlns="http://www.w3.org/2000/svg">
<path d="M31.8457 196.781L36.4941 208.383L41.1426 196.781H43.5742V211H41.6992V205.463L41.875 199.486L37.207 211H35.7715L31.1133 199.516L31.2988 205.463V211H29.4238V196.781H31.8457ZM46.123 205.619C46.123 204.584 46.3249 203.653 46.7285 202.826C47.1387 201.999 47.7051 201.361 48.4277 200.912C49.1569 200.463 49.987 200.238 50.918 200.238C52.3568 200.238 53.5189 200.736 54.4043 201.732C55.2962 202.729 55.7422 204.053 55.7422 205.707V205.834C55.7422 206.863 55.5436 207.787 55.1465 208.607C54.7559 209.421 54.1927 210.056 53.457 210.512C52.7279 210.967 51.888 211.195 50.9375 211.195C49.5052 211.195 48.3431 210.697 47.4512 209.701C46.5658 208.705 46.123 207.387 46.123 205.746V205.619ZM47.9395 205.834C47.9395 207.006 48.2096 207.947 48.75 208.656C49.2969 209.366 50.026 209.721 50.9375 209.721C51.8555 209.721 52.5846 209.363 53.125 208.646C53.6654 207.924 53.9355 206.915 53.9355 205.619C53.9355 204.46 53.6589 203.523 53.1055 202.807C52.5586 202.084 51.8294 201.723 50.918 201.723C50.026 201.723 49.3066 202.077 48.7598 202.787C48.2129 203.497 47.9395 204.512 47.9395 205.834ZM57.5684 205.629C57.5684 204.008 57.9525 202.706 58.7207 201.723C59.4889 200.733 60.4948 200.238 61.7383 200.238C62.9753 200.238 63.9551 200.661 64.6777 201.508V196H66.4844V211H64.8242L64.7363 209.867C64.0137 210.753 63.0078 211.195 61.7188 211.195C60.4948 211.195 59.4954 210.694 58.7207 209.691C57.9525 208.689 57.5684 207.38 57.5684 205.766V205.629ZM59.375 205.834C59.375 207.032 59.6224 207.969 60.1172 208.646C60.612 209.324 61.2956 209.662 62.168 209.662C63.3138 209.662 64.1504 209.148 64.6777 208.119V203.266C64.1374 202.27 63.3073 201.771 62.1875 201.771C61.3021 201.771 60.612 202.113 60.1172 202.797C59.6224 203.48 59.375 204.493 59.375 205.834ZM75.8203 209.955C75.1172 210.782 74.0853 211.195 72.7246 211.195C71.5983 211.195 70.7389 210.87 70.1465 210.219C69.5605 209.561 69.2643 208.591 69.2578 207.309V200.434H71.0645V207.26C71.0645 208.861 71.7155 209.662 73.0176 209.662C74.3978 209.662 75.3158 209.148 75.7715 208.119V200.434H77.5781V211H75.8594L75.8203 209.955ZM82.2949 211H80.4883V196H82.2949V211ZM89.5801 211.195C88.1478 211.195 86.9824 210.727 86.084 209.789C85.1855 208.845 84.7363 207.585 84.7363 206.01V205.678C84.7363 204.63 84.9349 203.695 85.332 202.875C85.7357 202.048 86.2956 201.404 87.0117 200.941C87.7344 200.473 88.5156 200.238 89.3555 200.238C90.7292 200.238 91.7969 200.691 92.5586 201.596C93.3203 202.501 93.7012 203.796 93.7012 205.482V206.234H86.543C86.569 207.276 86.8717 208.119 87.4512 208.764C88.0371 209.402 88.7793 209.721 89.6777 209.721C90.3158 209.721 90.8561 209.59 91.2988 209.33C91.7415 209.07 92.1289 208.725 92.4609 208.295L93.5645 209.154C92.679 210.515 91.3509 211.195 89.5801 211.195ZM89.3555 201.723C88.6263 201.723 88.0143 201.99 87.5195 202.523C87.0247 203.051 86.7188 203.793 86.6016 204.75H91.8945V204.613C91.8424 203.695 91.5951 202.986 91.1523 202.484C90.7096 201.977 90.1107 201.723 89.3555 201.723ZM101.953 208.197C101.953 207.709 101.768 207.331 101.396 207.064C101.032 206.791 100.391 206.557 99.4727 206.361C98.5612 206.166 97.8353 205.932 97.2949 205.658C96.7611 205.385 96.3639 205.059 96.1035 204.682C95.8496 204.304 95.7227 203.855 95.7227 203.334C95.7227 202.468 96.0872 201.736 96.8164 201.137C97.5521 200.538 98.4896 200.238 99.6289 200.238C100.827 200.238 101.797 200.548 102.539 201.166C103.288 201.785 103.662 202.576 103.662 203.539H101.846C101.846 203.044 101.634 202.618 101.211 202.26C100.794 201.902 100.267 201.723 99.6289 201.723C98.9714 201.723 98.457 201.866 98.0859 202.152C97.7148 202.439 97.5293 202.813 97.5293 203.275C97.5293 203.712 97.7018 204.04 98.0469 204.262C98.3919 204.483 99.0137 204.695 99.9121 204.896C100.817 205.098 101.549 205.339 102.109 205.619C102.669 205.899 103.083 206.238 103.35 206.635C103.623 207.025 103.76 207.504 103.76 208.07C103.76 209.014 103.382 209.773 102.627 210.346C101.872 210.912 100.892 211.195 99.6875 211.195C98.8411 211.195 98.0924 211.046 97.4414 210.746C96.7904 210.447 96.2793 210.03 95.9082 209.496C95.5436 208.956 95.3613 208.373 95.3613 207.748H97.168C97.2005 208.354 97.4414 208.835 97.8906 209.193C98.3464 209.545 98.9453 209.721 99.6875 209.721C100.371 209.721 100.918 209.584 101.328 209.311C101.745 209.031 101.953 208.66 101.953 208.197ZM106.055 210.053C106.055 209.74 106.146 209.48 106.328 209.271C106.517 209.063 106.797 208.959 107.168 208.959C107.539 208.959 107.819 209.063 108.008 209.271C108.203 209.48 108.301 209.74 108.301 210.053C108.301 210.352 108.203 210.603 108.008 210.805C107.819 211.007 107.539 211.107 107.168 211.107C106.797 211.107 106.517 211.007 106.328 210.805C106.146 210.603 106.055 210.352 106.055 210.053ZM106.064 201.43C106.064 201.117 106.156 200.857 106.338 200.648C106.527 200.44 106.807 200.336 107.178 200.336C107.549 200.336 107.829 200.44 108.018 200.648C108.213 200.857 108.311 201.117 108.311 201.43C108.311 201.729 108.213 201.98 108.018 202.182C107.829 202.383 107.549 202.484 107.178 202.484C106.807 202.484 106.527 202.383 106.338 202.182C106.156 201.98 106.064 201.729 106.064 201.43ZM118.213 211H116.338V196.781H118.213V211ZM123.818 197.875V200.434H125.791V201.83H123.818V208.383C123.818 208.806 123.906 209.125 124.082 209.34C124.258 209.548 124.557 209.652 124.98 209.652C125.189 209.652 125.475 209.613 125.84 209.535V211C125.365 211.13 124.902 211.195 124.453 211.195C123.646 211.195 123.037 210.951 122.627 210.463C122.217 209.975 122.012 209.281 122.012 208.383V201.83H120.088V200.434H122.012V197.875H123.818ZM139.395 211C139.29 210.792 139.206 210.421 139.141 209.887C138.301 210.759 137.298 211.195 136.133 211.195C135.091 211.195 134.235 210.902 133.564 210.316C132.9 209.724 132.568 208.975 132.568 208.07C132.568 206.97 132.985 206.117 133.818 205.512C134.658 204.9 135.837 204.594 137.354 204.594H139.111V203.764C139.111 203.132 138.923 202.631 138.545 202.26C138.167 201.882 137.611 201.693 136.875 201.693C136.23 201.693 135.69 201.856 135.254 202.182C134.818 202.507 134.6 202.901 134.6 203.363H132.783C132.783 202.836 132.969 202.328 133.34 201.84C133.717 201.345 134.225 200.954 134.863 200.668C135.508 200.382 136.214 200.238 136.982 200.238C138.2 200.238 139.154 200.544 139.844 201.156C140.534 201.762 140.892 202.598 140.918 203.666V208.529C140.918 209.499 141.042 210.271 141.289 210.844V211H139.395ZM136.396 209.623C136.963 209.623 137.5 209.477 138.008 209.184C138.516 208.891 138.883 208.51 139.111 208.041V205.873H137.695C135.482 205.873 134.375 206.521 134.375 207.816C134.375 208.383 134.564 208.826 134.941 209.145C135.319 209.464 135.804 209.623 136.396 209.623ZM145.713 211H143.906V196H145.713V211ZM150.576 211H148.77V196H150.576V211ZM152.998 205.619C152.998 204.584 153.2 203.653 153.604 202.826C154.014 201.999 154.58 201.361 155.303 200.912C156.032 200.463 156.862 200.238 157.793 200.238C159.232 200.238 160.394 200.736 161.279 201.732C162.171 202.729 162.617 204.053 162.617 205.707V205.834C162.617 206.863 162.419 207.787 162.021 208.607C161.631 209.421 161.068 210.056 160.332 210.512C159.603 210.967 158.763 211.195 157.812 211.195C156.38 211.195 155.218 210.697 154.326 209.701C153.441 208.705 152.998 207.387 152.998 205.746V205.619ZM154.814 205.834C154.814 207.006 155.085 207.947 155.625 208.656C156.172 209.366 156.901 209.721 157.812 209.721C158.73 209.721 159.46 209.363 160 208.646C160.54 207.924 160.811 206.915 160.811 205.619C160.811 204.46 160.534 203.523 159.98 202.807C159.434 202.084 158.704 201.723 157.793 201.723C156.901 201.723 156.182 202.077 155.635 202.787C155.088 203.497 154.814 204.512 154.814 205.834ZM174.238 208.51L176.27 200.434H178.076L175 211H173.535L170.967 202.992L168.467 211H167.002L163.936 200.434H165.732L167.812 208.344L170.273 200.434H171.729L174.238 208.51ZM186.074 208.197C186.074 207.709 185.889 207.331 185.518 207.064C185.153 206.791 184.512 206.557 183.594 206.361C182.682 206.166 181.956 205.932 181.416 205.658C180.882 205.385 180.485 205.059 180.225 204.682C179.971 204.304 179.844 203.855 179.844 203.334C179.844 202.468 180.208 201.736 180.938 201.137C181.673 200.538 182.611 200.238 183.75 200.238C184.948 200.238 185.918 200.548 186.66 201.166C187.409 201.785 187.783 202.576 187.783 203.539H185.967C185.967 203.044 185.755 202.618 185.332 202.26C184.915 201.902 184.388 201.723 183.75 201.723C183.092 201.723 182.578 201.866 182.207 202.152C181.836 202.439 181.65 202.813 181.65 203.275C181.65 203.712 181.823 204.04 182.168 204.262C182.513 204.483 183.135 204.695 184.033 204.896C184.938 205.098 185.671 205.339 186.23 205.619C186.79 205.899 187.204 206.238 187.471 206.635C187.744 207.025 187.881 207.504 187.881 208.07C187.881 209.014 187.503 209.773 186.748 210.346C185.993 210.912 185.013 211.195 183.809 211.195C182.962 211.195 182.214 211.046 181.562 210.746C180.911 210.447 180.4 210.03 180.029 209.496C179.665 208.956 179.482 208.373 179.482 207.748H181.289C181.322 208.354 181.562 208.835 182.012 209.193C182.467 209.545 183.066 209.721 183.809 209.721C184.492 209.721 185.039 209.584 185.449 209.311C185.866 209.031 186.074 208.66 186.074 208.197ZM197.646 197.875V200.434H199.619V201.83H197.646V208.383C197.646 208.806 197.734 209.125 197.91 209.34C198.086 209.548 198.385 209.652 198.809 209.652C199.017 209.652 199.303 209.613 199.668 209.535V211C199.193 211.13 198.73 211.195 198.281 211.195C197.474 211.195 196.865 210.951 196.455 210.463C196.045 209.975 195.84 209.281 195.84 208.383V201.83H193.916V200.434H195.84V197.875H197.646ZM201.064 205.619C201.064 204.584 201.266 203.653 201.67 202.826C202.08 201.999 202.646 201.361 203.369 200.912C204.098 200.463 204.928 200.238 205.859 200.238C207.298 200.238 208.46 200.736 209.346 201.732C210.238 202.729 210.684 204.053 210.684 205.707V205.834C210.684 206.863 210.485 207.787 210.088 208.607C209.697 209.421 209.134 210.056 208.398 210.512C207.669 210.967 206.829 211.195 205.879 211.195C204.447 211.195 203.285 210.697 202.393 209.701C201.507 208.705 201.064 207.387 201.064 205.746V205.619ZM202.881 205.834C202.881 207.006 203.151 207.947 203.691 208.656C204.238 209.366 204.967 209.721 205.879 209.721C206.797 209.721 207.526 209.363 208.066 208.646C208.607 207.924 208.877 206.915 208.877 205.619C208.877 204.46 208.6 203.523 208.047 202.807C207.5 202.084 206.771 201.723 205.859 201.723C204.967 201.723 204.248 202.077 203.701 202.787C203.154 203.497 202.881 204.512 202.881 205.834ZM222.148 209.721C222.793 209.721 223.356 209.525 223.838 209.135C224.32 208.744 224.587 208.256 224.639 207.67H226.348C226.315 208.275 226.107 208.852 225.723 209.398C225.339 209.945 224.824 210.382 224.18 210.707C223.542 211.033 222.865 211.195 222.148 211.195C220.71 211.195 219.564 210.717 218.711 209.76C217.865 208.796 217.441 207.481 217.441 205.814V205.512C217.441 204.483 217.63 203.568 218.008 202.768C218.385 201.967 218.926 201.345 219.629 200.902C220.339 200.46 221.175 200.238 222.139 200.238C223.324 200.238 224.307 200.593 225.088 201.303C225.876 202.012 226.296 202.934 226.348 204.066H224.639C224.587 203.383 224.326 202.823 223.857 202.387C223.395 201.944 222.822 201.723 222.139 201.723C221.221 201.723 220.508 202.055 220 202.719C219.499 203.376 219.248 204.33 219.248 205.58V205.922C219.248 207.139 219.499 208.077 220 208.734C220.501 209.392 221.217 209.721 222.148 209.721ZM233.486 202.055C233.213 202.009 232.917 201.986 232.598 201.986C231.413 201.986 230.609 202.491 230.186 203.5V211H228.379V200.434H230.137L230.166 201.654C230.758 200.71 231.598 200.238 232.686 200.238C233.037 200.238 233.304 200.284 233.486 200.375V202.055ZM239.346 211.195C237.913 211.195 236.748 210.727 235.85 209.789C234.951 208.845 234.502 207.585 234.502 206.01V205.678C234.502 204.63 234.701 203.695 235.098 202.875C235.501 202.048 236.061 201.404 236.777 200.941C237.5 200.473 238.281 200.238 239.121 200.238C240.495 200.238 241.562 200.691 242.324 201.596C243.086 202.501 243.467 203.796 243.467 205.482V206.234H236.309C236.335 207.276 236.637 208.119 237.217 208.764C237.803 209.402 238.545 209.721 239.443 209.721C240.081 209.721 240.622 209.59 241.064 209.33C241.507 209.07 241.895 208.725 242.227 208.295L243.33 209.154C242.445 210.515 241.117 211.195 239.346 211.195ZM239.121 201.723C238.392 201.723 237.78 201.99 237.285 202.523C236.79 203.051 236.484 203.793 236.367 204.75H241.66V204.613C241.608 203.695 241.361 202.986 240.918 202.484C240.475 201.977 239.876 201.723 239.121 201.723ZM252.09 211C251.986 210.792 251.901 210.421 251.836 209.887C250.996 210.759 249.993 211.195 248.828 211.195C247.786 211.195 246.93 210.902 246.26 210.316C245.596 209.724 245.264 208.975 245.264 208.07C245.264 206.97 245.68 206.117 246.514 205.512C247.354 204.9 248.532 204.594 250.049 204.594H251.807V203.764C251.807 203.132 251.618 202.631 251.24 202.26C250.863 201.882 250.306 201.693 249.57 201.693C248.926 201.693 248.385 201.856 247.949 202.182C247.513 202.507 247.295 202.901 247.295 203.363H245.479C245.479 202.836 245.664 202.328 246.035 201.84C246.413 201.345 246.921 200.954 247.559 200.668C248.203 200.382 248.91 200.238 249.678 200.238C250.895 200.238 251.849 200.544 252.539 201.156C253.229 201.762 253.587 202.598 253.613 203.666V208.529C253.613 209.499 253.737 210.271 253.984 210.844V211H252.09ZM249.092 209.623C249.658 209.623 250.195 209.477 250.703 209.184C251.211 208.891 251.579 208.51 251.807 208.041V205.873H250.391C248.177 205.873 247.07 206.521 247.07 207.816C247.07 208.383 247.259 208.826 247.637 209.145C248.014 209.464 248.499 209.623 249.092 209.623ZM258.896 197.875V200.434H260.869V201.83H258.896V208.383C258.896 208.806 258.984 209.125 259.16 209.34C259.336 209.548 259.635 209.652 260.059 209.652C260.267 209.652 260.553 209.613 260.918 209.535V211C260.443 211.13 259.98 211.195 259.531 211.195C258.724 211.195 258.115 210.951 257.705 210.463C257.295 209.975 257.09 209.281 257.09 208.383V201.83H255.166V200.434H257.09V197.875H258.896ZM267.373 211.195C265.941 211.195 264.775 210.727 263.877 209.789C262.979 208.845 262.529 207.585 262.529 206.01V205.678C262.529 204.63 262.728 203.695 263.125 202.875C263.529 202.048 264.089 201.404 264.805 200.941C265.527 200.473 266.309 200.238 267.148 200.238C268.522 200.238 269.59 200.691 270.352 201.596C271.113 202.501 271.494 203.796 271.494 205.482V206.234H264.336C264.362 207.276 264.665 208.119 265.244 208.764C265.83 209.402 266.572 209.721 267.471 209.721C268.109 209.721 268.649 209.59 269.092 209.33C269.535 209.07 269.922 208.725 270.254 208.295L271.357 209.154C270.472 210.515 269.144 211.195 267.373 211.195ZM267.148 201.723C266.419 201.723 265.807 201.99 265.312 202.523C264.818 203.051 264.512 203.793 264.395 204.75H269.688V204.613C269.635 203.695 269.388 202.986 268.945 202.484C268.503 201.977 267.904 201.723 267.148 201.723ZM67.9883 233.619C67.9883 232.584 68.1901 231.653 68.5938 230.826C69.0039 229.999 69.5703 229.361 70.293 228.912C71.0221 228.463 71.8522 228.238 72.7832 228.238C74.222 228.238 75.3841 228.736 76.2695 229.732C77.1615 230.729 77.6074 232.053 77.6074 233.707V233.834C77.6074 234.863 77.4089 235.787 77.0117 236.607C76.6211 237.421 76.0579 238.056 75.3223 238.512C74.5931 238.967 73.7533 239.195 72.8027 239.195C71.3704 239.195 70.2083 238.697 69.3164 237.701C68.431 236.705 67.9883 235.387 67.9883 233.746V233.619ZM69.8047 233.834C69.8047 235.006 70.0749 235.947 70.6152 236.656C71.1621 237.366 71.8913 237.721 72.8027 237.721C73.7207 237.721 74.4499 237.363 74.9902 236.646C75.5306 235.924 75.8008 234.915 75.8008 233.619C75.8008 232.46 75.5241 231.523 74.9707 230.807C74.4238 230.084 73.6947 229.723 72.7832 229.723C71.8913 229.723 71.1719 230.077 70.625 230.787C70.0781 231.497 69.8047 232.512 69.8047 233.834ZM80.7617 239V229.83H79.0918V228.434H80.7617V227.35C80.7617 226.217 81.0645 225.341 81.6699 224.723C82.2754 224.104 83.1315 223.795 84.2383 223.795C84.6549 223.795 85.0684 223.85 85.4785 223.961L85.3809 225.426C85.0749 225.367 84.7493 225.338 84.4043 225.338C83.8184 225.338 83.3659 225.51 83.0469 225.855C82.7279 226.194 82.5684 226.682 82.5684 227.32V228.434H84.8242V229.83H82.5684V239H80.7617ZM98.3105 239C98.2064 238.792 98.1217 238.421 98.0566 237.887C97.2168 238.759 96.2142 239.195 95.0488 239.195C94.0072 239.195 93.151 238.902 92.4805 238.316C91.8164 237.724 91.4844 236.975 91.4844 236.07C91.4844 234.97 91.901 234.117 92.7344 233.512C93.5742 232.9 94.7526 232.594 96.2695 232.594H98.0273V231.764C98.0273 231.132 97.8385 230.631 97.4609 230.26C97.0833 229.882 96.5267 229.693 95.791 229.693C95.1465 229.693 94.6061 229.856 94.1699 230.182C93.7337 230.507 93.5156 230.901 93.5156 231.363H91.6992C91.6992 230.836 91.8848 230.328 92.2559 229.84C92.6335 229.345 93.1413 228.954 93.7793 228.668C94.4238 228.382 95.1302 228.238 95.8984 228.238C97.1159 228.238 98.0697 228.544 98.7598 229.156C99.4499 229.762 99.8079 230.598 99.834 231.666V236.529C99.834 237.499 99.9577 238.271 100.205 238.844V239H98.3105ZM95.3125 237.623C95.8789 237.623 96.416 237.477 96.9238 237.184C97.4316 236.891 97.7995 236.51 98.0273 236.041V233.873H96.6113C94.3978 233.873 93.291 234.521 93.291 235.816C93.291 236.383 93.4798 236.826 93.8574 237.145C94.235 237.464 94.7201 237.623 95.3125 237.623ZM104.375 228.434L104.434 229.762C105.241 228.746 106.296 228.238 107.598 228.238C109.831 228.238 110.957 229.498 110.977 232.018V239H109.17V232.008C109.163 231.246 108.988 230.683 108.643 230.318C108.304 229.954 107.773 229.771 107.051 229.771C106.465 229.771 105.951 229.928 105.508 230.24C105.065 230.553 104.72 230.963 104.473 231.471V239H102.666V228.434H104.375ZM125.186 239C125.081 238.792 124.997 238.421 124.932 237.887C124.092 238.759 123.089 239.195 121.924 239.195C120.882 239.195 120.026 238.902 119.355 238.316C118.691 237.724 118.359 236.975 118.359 236.07C118.359 234.97 118.776 234.117 119.609 233.512C120.449 232.9 121.628 232.594 123.145 232.594H124.902V231.764C124.902 231.132 124.714 230.631 124.336 230.26C123.958 229.882 123.402 229.693 122.666 229.693C122.021 229.693 121.481 229.856 121.045 230.182C120.609 230.507 120.391 230.901 120.391 231.363H118.574C118.574 230.836 118.76 230.328 119.131 229.84C119.508 229.345 120.016 228.954 120.654 228.668C121.299 228.382 122.005 228.238 122.773 228.238C123.991 228.238 124.945 228.544 125.635 229.156C126.325 229.762 126.683 230.598 126.709 231.666V236.529C126.709 237.499 126.833 238.271 127.08 238.844V239H125.186ZM122.188 237.623C122.754 237.623 123.291 237.477 123.799 237.184C124.307 236.891 124.674 236.51 124.902 236.041V233.873H123.486C121.273 233.873 120.166 234.521 120.166 235.816C120.166 236.383 120.355 236.826 120.732 237.145C121.11 237.464 121.595 237.623 122.188 237.623ZM133.779 237.721C134.424 237.721 134.987 237.525 135.469 237.135C135.951 236.744 136.217 236.256 136.27 235.67H137.979C137.946 236.275 137.738 236.852 137.354 237.398C136.969 237.945 136.455 238.382 135.811 238.707C135.173 239.033 134.495 239.195 133.779 239.195C132.34 239.195 131.195 238.717 130.342 237.76C129.495 236.796 129.072 235.481 129.072 233.814V233.512C129.072 232.483 129.261 231.568 129.639 230.768C130.016 229.967 130.557 229.345 131.26 228.902C131.969 228.46 132.806 228.238 133.77 228.238C134.954 228.238 135.938 228.593 136.719 229.303C137.507 230.012 137.926 230.934 137.979 232.066H136.27C136.217 231.383 135.957 230.823 135.488 230.387C135.026 229.944 134.453 229.723 133.77 229.723C132.852 229.723 132.139 230.055 131.631 230.719C131.13 231.376 130.879 232.33 130.879 233.58V233.922C130.879 235.139 131.13 236.077 131.631 236.734C132.132 237.392 132.848 237.721 133.779 237.721ZM144.248 237.721C144.893 237.721 145.456 237.525 145.938 237.135C146.419 236.744 146.686 236.256 146.738 235.67H148.447C148.415 236.275 148.206 236.852 147.822 237.398C147.438 237.945 146.924 238.382 146.279 238.707C145.641 239.033 144.964 239.195 144.248 239.195C142.809 239.195 141.663 238.717 140.811 237.76C139.964 236.796 139.541 235.481 139.541 233.814V233.512C139.541 232.483 139.73 231.568 140.107 230.768C140.485 229.967 141.025 229.345 141.729 228.902C142.438 228.46 143.275 228.238 144.238 228.238C145.423 228.238 146.406 228.593 147.188 229.303C147.975 230.012 148.395 230.934 148.447 232.066H146.738C146.686 231.383 146.426 230.823 145.957 230.387C145.495 229.944 144.922 229.723 144.238 229.723C143.32 229.723 142.607 230.055 142.1 230.719C141.598 231.376 141.348 232.33 141.348 233.58V233.922C141.348 235.139 141.598 236.077 142.1 236.734C142.601 237.392 143.317 237.721 144.248 237.721ZM157.002 237.955C156.299 238.782 155.267 239.195 153.906 239.195C152.78 239.195 151.921 238.87 151.328 238.219C150.742 237.561 150.446 236.591 150.439 235.309V228.434H152.246V235.26C152.246 236.861 152.897 237.662 154.199 237.662C155.579 237.662 156.497 237.148 156.953 236.119V228.434H158.76V239H157.041L157.002 237.955ZM163.213 228.434L163.262 229.605C164.036 228.694 165.081 228.238 166.396 228.238C167.874 228.238 168.88 228.805 169.414 229.938C169.766 229.43 170.221 229.02 170.781 228.707C171.348 228.395 172.015 228.238 172.783 228.238C175.101 228.238 176.279 229.465 176.318 231.92V239H174.512V232.027C174.512 231.272 174.339 230.709 173.994 230.338C173.649 229.96 173.07 229.771 172.256 229.771C171.585 229.771 171.029 229.973 170.586 230.377C170.143 230.774 169.886 231.311 169.814 231.988V239H167.998V232.076C167.998 230.54 167.246 229.771 165.742 229.771C164.557 229.771 163.747 230.276 163.311 231.285V239H161.504V228.434H163.213ZM185.576 237.955C184.873 238.782 183.841 239.195 182.48 239.195C181.354 239.195 180.495 238.87 179.902 238.219C179.316 237.561 179.02 236.591 179.014 235.309V228.434H180.82V235.26C180.82 236.861 181.471 237.662 182.773 237.662C184.154 237.662 185.072 237.148 185.527 236.119V228.434H187.334V239H185.615L185.576 237.955ZM192.051 239H190.244V224H192.051V239ZM201.475 239C201.37 238.792 201.286 238.421 201.221 237.887C200.381 238.759 199.378 239.195 198.213 239.195C197.171 239.195 196.315 238.902 195.645 238.316C194.98 237.724 194.648 236.975 194.648 236.07C194.648 234.97 195.065 234.117 195.898 233.512C196.738 232.9 197.917 232.594 199.434 232.594H201.191V231.764C201.191 231.132 201.003 230.631 200.625 230.26C200.247 229.882 199.691 229.693 198.955 229.693C198.311 229.693 197.77 229.856 197.334 230.182C196.898 230.507 196.68 230.901 196.68 231.363H194.863C194.863 230.836 195.049 230.328 195.42 229.84C195.798 229.345 196.305 228.954 196.943 228.668C197.588 228.382 198.294 228.238 199.062 228.238C200.28 228.238 201.234 228.544 201.924 229.156C202.614 229.762 202.972 230.598 202.998 231.666V236.529C202.998 237.499 203.122 238.271 203.369 238.844V239H201.475ZM198.477 237.623C199.043 237.623 199.58 237.477 200.088 237.184C200.596 236.891 200.964 236.51 201.191 236.041V233.873H199.775C197.562 233.873 196.455 234.521 196.455 235.816C196.455 236.383 196.644 236.826 197.021 237.145C197.399 237.464 197.884 237.623 198.477 237.623ZM208.281 225.875V228.434H210.254V229.83H208.281V236.383C208.281 236.806 208.369 237.125 208.545 237.34C208.721 237.548 209.02 237.652 209.443 237.652C209.652 237.652 209.938 237.613 210.303 237.535V239C209.827 239.13 209.365 239.195 208.916 239.195C208.109 239.195 207.5 238.951 207.09 238.463C206.68 237.975 206.475 237.281 206.475 236.383V229.83H204.551V228.434H206.475V225.875H208.281ZM216.758 239.195C215.326 239.195 214.16 238.727 213.262 237.789C212.363 236.845 211.914 235.585 211.914 234.01V233.678C211.914 232.63 212.113 231.695 212.51 230.875C212.913 230.048 213.473 229.404 214.189 228.941C214.912 228.473 215.693 228.238 216.533 228.238C217.907 228.238 218.975 228.691 219.736 229.596C220.498 230.501 220.879 231.796 220.879 233.482V234.234H213.721C213.747 235.276 214.049 236.119 214.629 236.764C215.215 237.402 215.957 237.721 216.855 237.721C217.493 237.721 218.034 237.59 218.477 237.33C218.919 237.07 219.307 236.725 219.639 236.295L220.742 237.154C219.857 238.515 218.529 239.195 216.758 239.195ZM216.533 229.723C215.804 229.723 215.192 229.99 214.697 230.523C214.202 231.051 213.896 231.793 213.779 232.75H219.072V232.613C219.02 231.695 218.773 230.986 218.33 230.484C217.887 229.977 217.288 229.723 216.533 229.723ZM222.539 233.629C222.539 232.008 222.923 230.706 223.691 229.723C224.46 228.733 225.465 228.238 226.709 228.238C227.946 228.238 228.926 228.661 229.648 229.508V224H231.455V239H229.795L229.707 237.867C228.984 238.753 227.979 239.195 226.689 239.195C225.465 239.195 224.466 238.694 223.691 237.691C222.923 236.689 222.539 235.38 222.539 233.766V233.629ZM224.346 233.834C224.346 235.032 224.593 235.969 225.088 236.646C225.583 237.324 226.266 237.662 227.139 237.662C228.285 237.662 229.121 237.148 229.648 236.119V231.266C229.108 230.27 228.278 229.771 227.158 229.771C226.273 229.771 225.583 230.113 225.088 230.797C224.593 231.48 224.346 232.493 224.346 233.834ZM37.2266 265.721C37.8711 265.721 38.4342 265.525 38.916 265.135C39.3978 264.744 39.6647 264.256 39.7168 263.67H41.4258C41.3932 264.275 41.1849 264.852 40.8008 265.398C40.4167 265.945 39.9023 266.382 39.2578 266.707C38.6198 267.033 37.9427 267.195 37.2266 267.195C35.7878 267.195 34.6419 266.717 33.7891 265.76C32.9427 264.796 32.5195 263.481 32.5195 261.814V261.512C32.5195 260.483 32.7083 259.568 33.0859 258.768C33.4635 257.967 34.0039 257.345 34.707 256.902C35.4167 256.46 36.2533 256.238 37.2168 256.238C38.4017 256.238 39.3848 256.593 40.166 257.303C40.9538 258.012 41.3737 258.934 41.4258 260.066H39.7168C39.6647 259.383 39.4043 258.823 38.9355 258.387C38.4733 257.944 37.9004 257.723 37.2168 257.723C36.2988 257.723 35.5859 258.055 35.0781 258.719C34.5768 259.376 34.3262 260.33 34.3262 261.58V261.922C34.3262 263.139 34.5768 264.077 35.0781 264.734C35.5794 265.392 36.2956 265.721 37.2266 265.721ZM42.9785 261.619C42.9785 260.584 43.1803 259.653 43.584 258.826C43.9941 257.999 44.5605 257.361 45.2832 256.912C46.0124 256.463 46.8424 256.238 47.7734 256.238C49.2122 256.238 50.3743 256.736 51.2598 257.732C52.1517 258.729 52.5977 260.053 52.5977 261.707V261.834C52.5977 262.863 52.3991 263.787 52.002 264.607C51.6113 265.421 51.0482 266.056 50.3125 266.512C49.5833 266.967 48.7435 267.195 47.793 267.195C46.3607 267.195 45.1986 266.697 44.3066 265.701C43.4212 264.705 42.9785 263.387 42.9785 261.746V261.619ZM44.7949 261.834C44.7949 263.006 45.0651 263.947 45.6055 264.656C46.1523 265.366 46.8815 265.721 47.793 265.721C48.7109 265.721 49.4401 265.363 49.9805 264.646C50.5208 263.924 50.791 262.915 50.791 261.619C50.791 260.46 50.5143 259.523 49.9609 258.807C49.4141 258.084 48.6849 257.723 47.7734 257.723C46.8815 257.723 46.1621 258.077 45.6152 258.787C45.0684 259.497 44.7949 260.512 44.7949 261.834ZM56.5625 256.434L56.6113 257.605C57.3861 256.694 58.431 256.238 59.7461 256.238C61.224 256.238 62.2298 256.805 62.7637 257.938C63.1152 257.43 63.571 257.02 64.1309 256.707C64.6973 256.395 65.3646 256.238 66.1328 256.238C68.4505 256.238 69.6289 257.465 69.668 259.92V267H67.8613V260.027C67.8613 259.272 67.6888 258.709 67.3438 258.338C66.9987 257.96 66.4193 257.771 65.6055 257.771C64.9349 257.771 64.3783 257.973 63.9355 258.377C63.4928 258.774 63.2357 259.311 63.1641 259.988V267H61.3477V260.076C61.3477 258.54 60.5957 257.771 59.0918 257.771C57.9069 257.771 57.0964 258.276 56.6602 259.285V267H54.8535V256.434H56.5625ZM81.3281 261.834C81.3281 263.442 80.9603 264.738 80.2246 265.721C79.4889 266.704 78.4928 267.195 77.2363 267.195C75.9538 267.195 74.9447 266.788 74.209 265.975V271.062H72.4023V256.434H74.0527L74.1406 257.605C74.8763 256.694 75.8984 256.238 77.207 256.238C78.4766 256.238 79.4792 256.717 80.2148 257.674C80.957 258.631 81.3281 259.962 81.3281 261.668V261.834ZM79.5215 261.629C79.5215 260.438 79.2676 259.497 78.7598 258.807C78.252 258.117 77.5553 257.771 76.6699 257.771C75.5762 257.771 74.7559 258.257 74.209 259.227V264.275C74.7493 265.239 75.5762 265.721 76.6895 265.721C77.5553 265.721 78.2422 265.379 78.75 264.695C79.2643 264.005 79.5215 262.983 79.5215 261.629ZM90.1562 265.955C89.4531 266.782 88.4212 267.195 87.0605 267.195C85.9342 267.195 85.0749 266.87 84.4824 266.219C83.8965 265.561 83.6003 264.591 83.5938 263.309V256.434H85.4004V263.26C85.4004 264.861 86.0514 265.662 87.3535 265.662C88.7337 265.662 89.6517 265.148 90.1074 264.119V256.434H91.9141V267H90.1953L90.1562 265.955ZM97.1191 253.875V256.434H99.0918V257.83H97.1191V264.383C97.1191 264.806 97.207 265.125 97.3828 265.34C97.5586 265.548 97.8581 265.652 98.2812 265.652C98.4896 265.652 98.776 265.613 99.1406 265.535V267C98.6654 267.13 98.2031 267.195 97.7539 267.195C96.9466 267.195 96.3379 266.951 95.9277 266.463C95.5176 265.975 95.3125 265.281 95.3125 264.383V257.83H93.3887V256.434H95.3125V253.875H97.1191ZM103.174 267H101.367V256.434H103.174V267ZM101.221 253.631C101.221 253.338 101.309 253.09 101.484 252.889C101.667 252.687 101.934 252.586 102.285 252.586C102.637 252.586 102.904 252.687 103.086 252.889C103.268 253.09 103.359 253.338 103.359 253.631C103.359 253.924 103.268 254.168 103.086 254.363C102.904 254.559 102.637 254.656 102.285 254.656C101.934 254.656 101.667 254.559 101.484 254.363C101.309 254.168 101.221 253.924 101.221 253.631ZM107.783 256.434L107.842 257.762C108.649 256.746 109.704 256.238 111.006 256.238C113.239 256.238 114.365 257.498 114.385 260.018V267H112.578V260.008C112.572 259.246 112.396 258.683 112.051 258.318C111.712 257.954 111.182 257.771 110.459 257.771C109.873 257.771 109.359 257.928 108.916 258.24C108.473 258.553 108.128 258.963 107.881 259.471V267H106.074V256.434H107.783ZM116.68 261.629C116.68 259.982 117.061 258.673 117.822 257.703C118.584 256.727 119.593 256.238 120.85 256.238C122.139 256.238 123.145 256.694 123.867 257.605L123.955 256.434H125.605V266.746C125.605 268.113 125.199 269.191 124.385 269.979C123.577 270.766 122.49 271.16 121.123 271.16C120.361 271.16 119.616 270.997 118.887 270.672C118.158 270.346 117.601 269.9 117.217 269.334L118.154 268.25C118.929 269.207 119.876 269.686 120.996 269.686C121.875 269.686 122.559 269.438 123.047 268.943C123.542 268.449 123.789 267.752 123.789 266.854V265.945C123.066 266.779 122.08 267.195 120.83 267.195C119.593 267.195 118.59 266.697 117.822 265.701C117.061 264.705 116.68 263.348 116.68 261.629ZM118.496 261.834C118.496 263.025 118.74 263.963 119.229 264.646C119.717 265.324 120.4 265.662 121.279 265.662C122.419 265.662 123.255 265.145 123.789 264.109V259.285C123.236 258.276 122.406 257.771 121.299 257.771C120.42 257.771 119.733 258.113 119.238 258.797C118.743 259.48 118.496 260.493 118.496 261.834ZM142.227 261.834C142.227 263.442 141.859 264.738 141.123 265.721C140.387 266.704 139.391 267.195 138.135 267.195C136.852 267.195 135.843 266.788 135.107 265.975V271.062H133.301V256.434H134.951L135.039 257.605C135.775 256.694 136.797 256.238 138.105 256.238C139.375 256.238 140.378 256.717 141.113 257.674C141.855 258.631 142.227 259.962 142.227 261.668V261.834ZM140.42 261.629C140.42 260.438 140.166 259.497 139.658 258.807C139.15 258.117 138.454 257.771 137.568 257.771C136.475 257.771 135.654 258.257 135.107 259.227V264.275C135.648 265.239 136.475 265.721 137.588 265.721C138.454 265.721 139.141 265.379 139.648 264.695C140.163 264.005 140.42 262.983 140.42 261.629ZM144.053 261.619C144.053 260.584 144.255 259.653 144.658 258.826C145.068 257.999 145.635 257.361 146.357 256.912C147.087 256.463 147.917 256.238 148.848 256.238C150.286 256.238 151.449 256.736 152.334 257.732C153.226 258.729 153.672 260.053 153.672 261.707V261.834C153.672 262.863 153.473 263.787 153.076 264.607C152.686 265.421 152.122 266.056 151.387 266.512C150.658 266.967 149.818 267.195 148.867 267.195C147.435 267.195 146.273 266.697 145.381 265.701C144.495 264.705 144.053 263.387 144.053 261.746V261.619ZM145.869 261.834C145.869 263.006 146.139 263.947 146.68 264.656C147.227 265.366 147.956 265.721 148.867 265.721C149.785 265.721 150.514 265.363 151.055 264.646C151.595 263.924 151.865 262.915 151.865 261.619C151.865 260.46 151.589 259.523 151.035 258.807C150.488 258.084 149.759 257.723 148.848 257.723C147.956 257.723 147.236 258.077 146.689 258.787C146.143 259.497 145.869 260.512 145.869 261.834ZM165.293 264.51L167.324 256.434H169.131L166.055 267H164.59L162.021 258.992L159.521 267H158.057L154.99 256.434H156.787L158.867 264.344L161.328 256.434H162.783L165.293 264.51ZM175.361 267.195C173.929 267.195 172.764 266.727 171.865 265.789C170.967 264.845 170.518 263.585 170.518 262.01V261.678C170.518 260.63 170.716 259.695 171.113 258.875C171.517 258.048 172.077 257.404 172.793 256.941C173.516 256.473 174.297 256.238 175.137 256.238C176.51 256.238 177.578 256.691 178.34 257.596C179.102 258.501 179.482 259.796 179.482 261.482V262.234H172.324C172.35 263.276 172.653 264.119 173.232 264.764C173.818 265.402 174.561 265.721 175.459 265.721C176.097 265.721 176.637 265.59 177.08 265.33C177.523 265.07 177.91 264.725 178.242 264.295L179.346 265.154C178.46 266.515 177.132 267.195 175.361 267.195ZM175.137 257.723C174.408 257.723 173.796 257.99 173.301 258.523C172.806 259.051 172.5 259.793 172.383 260.75H177.676V260.613C177.624 259.695 177.376 258.986 176.934 258.484C176.491 257.977 175.892 257.723 175.137 257.723ZM186.689 258.055C186.416 258.009 186.12 257.986 185.801 257.986C184.616 257.986 183.812 258.491 183.389 259.5V267H181.582V256.434H183.34L183.369 257.654C183.962 256.71 184.801 256.238 185.889 256.238C186.24 256.238 186.507 256.284 186.689 256.375V258.055ZM199.473 264.197C199.473 263.709 199.287 263.331 198.916 263.064C198.551 262.791 197.91 262.557 196.992 262.361C196.081 262.166 195.355 261.932 194.814 261.658C194.281 261.385 193.883 261.059 193.623 260.682C193.369 260.304 193.242 259.855 193.242 259.334C193.242 258.468 193.607 257.736 194.336 257.137C195.072 256.538 196.009 256.238 197.148 256.238C198.346 256.238 199.316 256.548 200.059 257.166C200.807 257.785 201.182 258.576 201.182 259.539H199.365C199.365 259.044 199.154 258.618 198.73 258.26C198.314 257.902 197.786 257.723 197.148 257.723C196.491 257.723 195.977 257.866 195.605 258.152C195.234 258.439 195.049 258.813 195.049 259.275C195.049 259.712 195.221 260.04 195.566 260.262C195.911 260.483 196.533 260.695 197.432 260.896C198.337 261.098 199.069 261.339 199.629 261.619C200.189 261.899 200.602 262.238 200.869 262.635C201.143 263.025 201.279 263.504 201.279 264.07C201.279 265.014 200.902 265.773 200.146 266.346C199.391 266.912 198.411 267.195 197.207 267.195C196.361 267.195 195.612 267.046 194.961 266.746C194.31 266.447 193.799 266.03 193.428 265.496C193.063 264.956 192.881 264.373 192.881 263.748H194.688C194.72 264.354 194.961 264.835 195.41 265.193C195.866 265.545 196.465 265.721 197.207 265.721C197.891 265.721 198.438 265.584 198.848 265.311C199.264 265.031 199.473 264.66 199.473 264.197ZM203.154 261.619C203.154 260.584 203.356 259.653 203.76 258.826C204.17 257.999 204.736 257.361 205.459 256.912C206.188 256.463 207.018 256.238 207.949 256.238C209.388 256.238 210.55 256.736 211.436 257.732C212.327 258.729 212.773 260.053 212.773 261.707V261.834C212.773 262.863 212.575 263.787 212.178 264.607C211.787 265.421 211.224 266.056 210.488 266.512C209.759 266.967 208.919 267.195 207.969 267.195C206.536 267.195 205.374 266.697 204.482 265.701C203.597 264.705 203.154 263.387 203.154 261.746V261.619ZM204.971 261.834C204.971 263.006 205.241 263.947 205.781 264.656C206.328 265.366 207.057 265.721 207.969 265.721C208.887 265.721 209.616 265.363 210.156 264.646C210.697 263.924 210.967 262.915 210.967 261.619C210.967 260.46 210.69 259.523 210.137 258.807C209.59 258.084 208.861 257.723 207.949 257.723C207.057 257.723 206.338 258.077 205.791 258.787C205.244 259.497 204.971 260.512 204.971 261.834ZM217.002 267H215.195V252H217.002V267ZM226.426 265.955C225.723 266.782 224.691 267.195 223.33 267.195C222.204 267.195 221.344 266.87 220.752 266.219C220.166 265.561 219.87 264.591 219.863 263.309V256.434H221.67V263.26C221.67 264.861 222.321 265.662 223.623 265.662C225.003 265.662 225.921 265.148 226.377 264.119V256.434H228.184V267H226.465L226.426 265.955ZM233.389 253.875V256.434H235.361V257.83H233.389V264.383C233.389 264.806 233.477 265.125 233.652 265.34C233.828 265.548 234.128 265.652 234.551 265.652C234.759 265.652 235.046 265.613 235.41 265.535V267C234.935 267.13 234.473 267.195 234.023 267.195C233.216 267.195 232.607 266.951 232.197 266.463C231.787 265.975 231.582 265.281 231.582 264.383V257.83H229.658V256.434H231.582V253.875H233.389ZM239.443 267H237.637V256.434H239.443V267ZM237.49 253.631C237.49 253.338 237.578 253.09 237.754 252.889C237.936 252.687 238.203 252.586 238.555 252.586C238.906 252.586 239.173 252.687 239.355 252.889C239.538 253.09 239.629 253.338 239.629 253.631C239.629 253.924 239.538 254.168 239.355 254.363C239.173 254.559 238.906 254.656 238.555 254.656C238.203 254.656 237.936 254.559 237.754 254.363C237.578 254.168 237.49 253.924 237.49 253.631ZM241.865 261.619C241.865 260.584 242.067 259.653 242.471 258.826C242.881 257.999 243.447 257.361 244.17 256.912C244.899 256.463 245.729 256.238 246.66 256.238C248.099 256.238 249.261 256.736 250.146 257.732C251.038 258.729 251.484 260.053 251.484 261.707V261.834C251.484 262.863 251.286 263.787 250.889 264.607C250.498 265.421 249.935 266.056 249.199 266.512C248.47 266.967 247.63 267.195 246.68 267.195C245.247 267.195 244.085 266.697 243.193 265.701C242.308 264.705 241.865 263.387 241.865 261.746V261.619ZM243.682 261.834C243.682 263.006 243.952 263.947 244.492 264.656C245.039 265.366 245.768 265.721 246.68 265.721C247.598 265.721 248.327 265.363 248.867 264.646C249.408 263.924 249.678 262.915 249.678 261.619C249.678 260.46 249.401 259.523 248.848 258.807C248.301 258.084 247.572 257.723 246.66 257.723C245.768 257.723 245.049 258.077 244.502 258.787C243.955 259.497 243.682 260.512 243.682 261.834ZM255.459 256.434L255.518 257.762C256.325 256.746 257.38 256.238 258.682 256.238C260.915 256.238 262.041 257.498 262.061 260.018V267H260.254V260.008C260.247 259.246 260.072 258.683 259.727 258.318C259.388 257.954 258.857 257.771 258.135 257.771C257.549 257.771 257.035 257.928 256.592 258.24C256.149 258.553 255.804 258.963 255.557 259.471V267H253.75V256.434H255.459Z" fill="black"/>
<path d="M121.667 123.334H108.334C107.412 123.334 106.667 124.081 106.667 125.001C106.667 125.921 107.412 126.667 108.334 126.667H121.667C122.589 126.667 123.334 125.921 123.334 125.001C123.334 124.081 122.588 123.334 121.667 123.334Z" fill="#FFAC22"/>
<path d="M121.667 130H108.334C107.412 130 106.667 130.747 106.667 131.667C106.667 132.587 107.412 133.333 108.334 133.333H121.667C122.589 133.333 123.334 132.587 123.334 131.667C123.334 130.747 122.588 130 121.667 130Z" fill="#FFAC22"/>
<path d="M131.666 83.3334H165C173.271 83.3334 180 76.6033 180 68.3334C180 60.0635 173.271 53.3334 165 53.3334C161.523 53.3334 158.135 54.55 155.455 56.7602C154.746 57.3451 154.645 58.3969 155.232 59.1051C155.816 59.815 156.865 59.9184 157.578 59.3318C159.66 57.6135 162.297 56.6668 165 56.6668C171.432 56.6668 176.666 61.9002 176.666 68.3334C176.666 74.7668 171.432 80 165 80H131.666C127.071 80 123.333 76.2617 123.333 71.6666C123.333 68.0217 125.77 64.7432 129.258 63.6898C130.098 63.4365 130.596 62.5748 130.399 61.7182C130.134 60.5715 129.999 59.4332 129.999 58.3332C129.999 50.0633 136.728 43.3332 144.999 43.3332C150.091 43.3332 154.793 45.8832 157.576 50.1549C158.078 50.9281 159.115 51.1432 159.883 50.6416C160.655 50.1383 160.871 49.1049 160.37 48.335C156.968 43.1166 151.221 40 145 40C134.891 40 126.666 48.225 126.666 58.3334C126.666 59.2184 126.736 60.1201 126.875 61.0268C122.708 62.8885 120 66.9951 120 71.6668C120 78.1 125.235 83.3334 131.666 83.3334Z" fill="#FFAC22"/>
<path d="M115 103.333C115.922 103.333 116.667 102.586 116.667 101.666V96.666H145.309C145.81 98.0777 146.92 99.1892 148.334 99.691V101.666C148.334 102.586 149.078 103.333 150 103.333C150.922 103.333 151.667 102.586 151.667 101.666V99.6926C153.08 99.1892 154.19 98.0775 154.692 96.6658H183.335V101.666C183.335 102.586 184.08 103.332 185.002 103.332C185.923 103.332 186.668 102.586 186.668 101.666V94.9992C186.668 94.0793 185.923 93.3326 185.002 93.3326H154.692C154.19 91.9209 153.08 90.8094 151.667 90.3059V88.3326C151.667 87.4127 150.922 86.666 150 86.666C149.079 86.666 148.334 87.4127 148.334 88.3326V90.3059C146.92 90.8092 145.81 91.9209 145.309 93.3326H115C114.079 93.3326 113.334 94.0793 113.334 94.9992V101.666C113.334 102.586 114.079 103.333 115 103.333ZM150 93.3326C150.92 93.3326 151.667 94.0809 151.667 94.9992C151.667 95.9176 150.92 96.6658 150 96.6658C149.08 96.6658 148.334 95.9176 148.334 94.9992C148.334 94.0809 149.08 93.3326 150 93.3326Z" fill="#FFAC22"/>
<path d="M108.334 119.999H115C115.922 119.999 116.667 119.253 116.667 118.333C116.667 117.413 115.922 116.666 115 116.666H108.334C107.412 116.666 106.667 117.413 106.667 118.333C106.667 119.253 107.412 119.999 108.334 119.999Z" fill="#FFAC22"/>
<path d="M126.667 106.666H103.333C101.495 106.666 100 108.161 100 109.999V136.666C100 138.504 101.495 139.999 103.333 139.999H126.667C128.505 139.999 130 138.504 130 136.666V109.999C130 108.161 128.505 106.666 126.667 106.666ZM103.333 136.666V109.999H126.667L126.669 136.666H103.333Z" fill="#FFAC22"/>
<path d="M156.667 130H143.333C142.412 130 141.667 130.747 141.667 131.667C141.667 132.587 142.412 133.333 143.333 133.333H156.667C157.588 133.333 158.333 132.587 158.333 131.667C158.333 130.747 157.588 130 156.667 130Z" fill="#FFAC22"/>
<path d="M191.666 123.334H178.333C177.411 123.334 176.666 124.081 176.666 125.001C176.666 125.921 177.411 126.667 178.333 126.667H191.666C192.588 126.667 193.333 125.921 193.333 125.001C193.333 124.081 192.588 123.334 191.666 123.334Z" fill="#FFAC22"/>
<path d="M191.666 130H178.333C177.411 130 176.666 130.747 176.666 131.667C176.666 132.587 177.411 133.333 178.333 133.333H191.666C192.588 133.333 193.333 132.587 193.333 131.667C193.333 130.747 192.588 130 191.666 130Z" fill="#FFAC22"/>
<path d="M196.666 106.666H173.333C171.495 106.666 170 108.161 170 109.999V136.666C170 138.504 171.495 139.999 173.333 139.999H196.667C198.505 139.999 200 138.504 200 136.666V109.999C200 108.161 198.505 106.666 196.666 106.666ZM173.333 136.666V109.999H196.667L196.668 136.666H173.333Z" fill="#FFAC22"/>
<path d="M143.333 119.999H150C150.922 119.999 151.667 119.253 151.667 118.333C151.667 117.413 150.922 116.666 150 116.666H143.333C142.412 116.666 141.667 117.413 141.667 118.333C141.667 119.253 142.412 119.999 143.333 119.999Z" fill="#FFAC22"/>
<path d="M156.667 123.334H143.333C142.412 123.334 141.667 124.081 141.667 125.001C141.667 125.921 142.412 126.667 143.333 126.667H156.667C157.588 126.667 158.333 125.921 158.333 125.001C158.333 124.081 157.588 123.334 156.667 123.334Z" fill="#FFAC22"/>
<path d="M178.333 119.999H185C185.922 119.999 186.666 119.253 186.666 118.333C186.666 117.413 185.922 116.666 185 116.666H178.333C177.412 116.666 176.667 117.413 176.667 118.333C176.667 119.253 177.412 119.999 178.333 119.999Z" fill="#FFAC22"/>
<path d="M161.666 106.666H138.333C136.495 106.666 135 108.161 135 109.999V136.666C135 138.504 136.495 139.999 138.333 139.999H161.667C163.505 139.999 165 138.504 165 136.666V109.999C165 108.161 163.505 106.666 161.666 106.666ZM138.333 136.666V109.999H161.667L161.668 136.666H138.333Z" fill="#FFAC22"/>
</svg>
