<svg width="301" height="246" viewBox="0 0 301 246" fill="none" xmlns="http://www.w3.org/2000/svg">
<rect x="2" y="1.5" width="297" height="177" rx="14.5" stroke="white" stroke-width="3"/>
<path d="M131.438 211V196.781H135.451C136.688 196.781 137.782 197.055 138.732 197.602C139.683 198.148 140.415 198.926 140.93 199.936C141.451 200.945 141.714 202.104 141.721 203.412V204.32C141.721 205.661 141.46 206.837 140.939 207.846C140.425 208.855 139.686 209.63 138.723 210.17C137.766 210.71 136.649 210.987 135.373 211H131.438ZM133.312 198.324V209.467H135.285C136.73 209.467 137.854 209.018 138.654 208.119C139.462 207.221 139.865 205.941 139.865 204.281V203.451C139.865 201.837 139.484 200.583 138.723 199.691C137.967 198.793 136.893 198.337 135.5 198.324H133.312ZM150.803 211C150.699 210.792 150.614 210.421 150.549 209.887C149.709 210.759 148.706 211.195 147.541 211.195C146.499 211.195 145.643 210.902 144.973 210.316C144.309 209.724 143.977 208.975 143.977 208.07C143.977 206.97 144.393 206.117 145.227 205.512C146.066 204.9 147.245 204.594 148.762 204.594H150.52V203.764C150.52 203.132 150.331 202.631 149.953 202.26C149.576 201.882 149.019 201.693 148.283 201.693C147.639 201.693 147.098 201.856 146.662 202.182C146.226 202.507 146.008 202.901 146.008 203.363H144.191C144.191 202.836 144.377 202.328 144.748 201.84C145.126 201.345 145.633 200.954 146.271 200.668C146.916 200.382 147.622 200.238 148.391 200.238C149.608 200.238 150.562 200.544 151.252 201.156C151.942 201.762 152.3 202.598 152.326 203.666V208.529C152.326 209.499 152.45 210.271 152.697 210.844V211H150.803ZM147.805 209.623C148.371 209.623 148.908 209.477 149.416 209.184C149.924 208.891 150.292 208.51 150.52 208.041V205.873H149.104C146.89 205.873 145.783 206.521 145.783 207.816C145.783 208.383 145.972 208.826 146.35 209.145C146.727 209.464 147.212 209.623 147.805 209.623ZM157.609 197.875V200.434H159.582V201.83H157.609V208.383C157.609 208.806 157.697 209.125 157.873 209.34C158.049 209.548 158.348 209.652 158.771 209.652C158.98 209.652 159.266 209.613 159.631 209.535V211C159.156 211.13 158.693 211.195 158.244 211.195C157.437 211.195 156.828 210.951 156.418 210.463C156.008 209.975 155.803 209.281 155.803 208.383V201.83H153.879V200.434H155.803V197.875H157.609ZM168.225 211C168.12 210.792 168.036 210.421 167.971 209.887C167.131 210.759 166.128 211.195 164.963 211.195C163.921 211.195 163.065 210.902 162.395 210.316C161.73 209.724 161.398 208.975 161.398 208.07C161.398 206.97 161.815 206.117 162.648 205.512C163.488 204.9 164.667 204.594 166.184 204.594H167.941V203.764C167.941 203.132 167.753 202.631 167.375 202.26C166.997 201.882 166.441 201.693 165.705 201.693C165.061 201.693 164.52 201.856 164.084 202.182C163.648 202.507 163.43 202.901 163.43 203.363H161.613C161.613 202.836 161.799 202.328 162.17 201.84C162.548 201.345 163.055 200.954 163.693 200.668C164.338 200.382 165.044 200.238 165.812 200.238C167.03 200.238 167.984 200.544 168.674 201.156C169.364 201.762 169.722 202.598 169.748 203.666V208.529C169.748 209.499 169.872 210.271 170.119 210.844V211H168.225ZM165.227 209.623C165.793 209.623 166.33 209.477 166.838 209.184C167.346 208.891 167.714 208.51 167.941 208.041V205.873H166.525C164.312 205.873 163.205 206.521 163.205 207.816C163.205 208.383 163.394 208.826 163.771 209.145C164.149 209.464 164.634 209.623 165.227 209.623ZM95.1191 232.721H89.1523V239H87.2773V224.781H96.0859V226.324H89.1523V231.188H95.1191V232.721ZM102.902 230.055C102.629 230.009 102.333 229.986 102.014 229.986C100.829 229.986 100.025 230.491 99.6016 231.5V239H97.7949V228.434H99.5527L99.582 229.654C100.174 228.71 101.014 228.238 102.102 228.238C102.453 228.238 102.72 228.284 102.902 228.375V230.055ZM110.705 239C110.601 238.792 110.516 238.421 110.451 237.887C109.611 238.759 108.609 239.195 107.443 239.195C106.402 239.195 105.546 238.902 104.875 238.316C104.211 237.724 103.879 236.975 103.879 236.07C103.879 234.97 104.296 234.117 105.129 233.512C105.969 232.9 107.147 232.594 108.664 232.594H110.422V231.764C110.422 231.132 110.233 230.631 109.855 230.26C109.478 229.882 108.921 229.693 108.186 229.693C107.541 229.693 107.001 229.856 106.564 230.182C106.128 230.507 105.91 230.901 105.91 231.363H104.094C104.094 230.836 104.279 230.328 104.65 229.84C105.028 229.345 105.536 228.954 106.174 228.668C106.818 228.382 107.525 228.238 108.293 228.238C109.51 228.238 110.464 228.544 111.154 229.156C111.844 229.762 112.202 230.598 112.229 231.666V236.529C112.229 237.499 112.352 238.271 112.6 238.844V239H110.705ZM107.707 237.623C108.273 237.623 108.811 237.477 109.318 237.184C109.826 236.891 110.194 236.51 110.422 236.041V233.873H109.006C106.792 233.873 105.686 234.521 105.686 235.816C105.686 236.383 105.874 236.826 106.252 237.145C106.63 237.464 107.115 237.623 107.707 237.623ZM114.631 233.629C114.631 231.982 115.012 230.673 115.773 229.703C116.535 228.727 117.544 228.238 118.801 228.238C120.09 228.238 121.096 228.694 121.818 229.605L121.906 228.434H123.557V238.746C123.557 240.113 123.15 241.191 122.336 241.979C121.529 242.766 120.441 243.16 119.074 243.16C118.312 243.16 117.567 242.997 116.838 242.672C116.109 242.346 115.552 241.9 115.168 241.334L116.105 240.25C116.88 241.207 117.827 241.686 118.947 241.686C119.826 241.686 120.51 241.438 120.998 240.943C121.493 240.449 121.74 239.752 121.74 238.854V237.945C121.018 238.779 120.031 239.195 118.781 239.195C117.544 239.195 116.542 238.697 115.773 237.701C115.012 236.705 114.631 235.348 114.631 233.629ZM116.447 233.834C116.447 235.025 116.691 235.963 117.18 236.646C117.668 237.324 118.352 237.662 119.23 237.662C120.37 237.662 121.206 237.145 121.74 236.109V231.285C121.187 230.276 120.357 229.771 119.25 229.771C118.371 229.771 117.684 230.113 117.189 230.797C116.695 231.48 116.447 232.493 116.447 233.834ZM127.99 228.434L128.039 229.605C128.814 228.694 129.859 228.238 131.174 228.238C132.652 228.238 133.658 228.805 134.191 229.938C134.543 229.43 134.999 229.02 135.559 228.707C136.125 228.395 136.792 228.238 137.561 228.238C139.878 228.238 141.057 229.465 141.096 231.92V239H139.289V232.027C139.289 231.272 139.117 230.709 138.771 230.338C138.426 229.96 137.847 229.771 137.033 229.771C136.363 229.771 135.806 229.973 135.363 230.377C134.921 230.774 134.663 231.311 134.592 231.988V239H132.775V232.076C132.775 230.54 132.023 229.771 130.52 229.771C129.335 229.771 128.524 230.276 128.088 231.285V239H126.281V228.434H127.99ZM148.215 239.195C146.783 239.195 145.617 238.727 144.719 237.789C143.82 236.845 143.371 235.585 143.371 234.01V233.678C143.371 232.63 143.57 231.695 143.967 230.875C144.37 230.048 144.93 229.404 145.646 228.941C146.369 228.473 147.15 228.238 147.99 228.238C149.364 228.238 150.432 228.691 151.193 229.596C151.955 230.501 152.336 231.796 152.336 233.482V234.234H145.178C145.204 235.276 145.507 236.119 146.086 236.764C146.672 237.402 147.414 237.721 148.312 237.721C148.951 237.721 149.491 237.59 149.934 237.33C150.376 237.07 150.764 236.725 151.096 236.295L152.199 237.154C151.314 238.515 149.986 239.195 148.215 239.195ZM147.99 229.723C147.261 229.723 146.649 229.99 146.154 230.523C145.66 231.051 145.354 231.793 145.236 232.75H150.529V232.613C150.477 231.695 150.23 230.986 149.787 230.484C149.344 229.977 148.745 229.723 147.99 229.723ZM156.145 228.434L156.203 229.762C157.01 228.746 158.065 228.238 159.367 228.238C161.6 228.238 162.727 229.498 162.746 232.018V239H160.939V232.008C160.933 231.246 160.757 230.683 160.412 230.318C160.074 229.954 159.543 229.771 158.82 229.771C158.234 229.771 157.72 229.928 157.277 230.24C156.835 230.553 156.49 230.963 156.242 231.471V239H154.436V228.434H156.145ZM167.922 225.875V228.434H169.895V229.83H167.922V236.383C167.922 236.806 168.01 237.125 168.186 237.34C168.361 237.548 168.661 237.652 169.084 237.652C169.292 237.652 169.579 237.613 169.943 237.535V239C169.468 239.13 169.006 239.195 168.557 239.195C167.749 239.195 167.141 238.951 166.73 238.463C166.32 237.975 166.115 237.281 166.115 236.383V229.83H164.191V228.434H166.115V225.875H167.922ZM178.537 239C178.433 238.792 178.348 238.421 178.283 237.887C177.443 238.759 176.441 239.195 175.275 239.195C174.234 239.195 173.378 238.902 172.707 238.316C172.043 237.724 171.711 236.975 171.711 236.07C171.711 234.97 172.128 234.117 172.961 233.512C173.801 232.9 174.979 232.594 176.496 232.594H178.254V231.764C178.254 231.132 178.065 230.631 177.688 230.26C177.31 229.882 176.753 229.693 176.018 229.693C175.373 229.693 174.833 229.856 174.396 230.182C173.96 230.507 173.742 230.901 173.742 231.363H171.926C171.926 230.836 172.111 230.328 172.482 229.84C172.86 229.345 173.368 228.954 174.006 228.668C174.65 228.382 175.357 228.238 176.125 228.238C177.342 228.238 178.296 228.544 178.986 229.156C179.676 229.762 180.035 230.598 180.061 231.666V236.529C180.061 237.499 180.184 238.271 180.432 238.844V239H178.537ZM175.539 237.623C176.105 237.623 176.643 237.477 177.15 237.184C177.658 236.891 178.026 236.51 178.254 236.041V233.873H176.838C174.624 233.873 173.518 234.521 173.518 235.816C173.518 236.383 173.706 236.826 174.084 237.145C174.462 237.464 174.947 237.623 175.539 237.623ZM185.344 225.875V228.434H187.316V229.83H185.344V236.383C185.344 236.806 185.432 237.125 185.607 237.34C185.783 237.548 186.083 237.652 186.506 237.652C186.714 237.652 187.001 237.613 187.365 237.535V239C186.89 239.13 186.428 239.195 185.979 239.195C185.171 239.195 184.562 238.951 184.152 238.463C183.742 237.975 183.537 237.281 183.537 236.383V229.83H181.613V228.434H183.537V225.875H185.344ZM191.398 239H189.592V228.434H191.398V239ZM189.445 225.631C189.445 225.338 189.533 225.09 189.709 224.889C189.891 224.687 190.158 224.586 190.51 224.586C190.861 224.586 191.128 224.687 191.311 224.889C191.493 225.09 191.584 225.338 191.584 225.631C191.584 225.924 191.493 226.168 191.311 226.363C191.128 226.559 190.861 226.656 190.51 226.656C190.158 226.656 189.891 226.559 189.709 226.363C189.533 226.168 189.445 225.924 189.445 225.631ZM193.82 233.619C193.82 232.584 194.022 231.653 194.426 230.826C194.836 229.999 195.402 229.361 196.125 228.912C196.854 228.463 197.684 228.238 198.615 228.238C200.054 228.238 201.216 228.736 202.102 229.732C202.993 230.729 203.439 232.053 203.439 233.707V233.834C203.439 234.863 203.241 235.787 202.844 236.607C202.453 237.421 201.89 238.056 201.154 238.512C200.425 238.967 199.585 239.195 198.635 239.195C197.202 239.195 196.04 238.697 195.148 237.701C194.263 236.705 193.82 235.387 193.82 233.746V233.619ZM195.637 233.834C195.637 235.006 195.907 235.947 196.447 236.656C196.994 237.366 197.723 237.721 198.635 237.721C199.553 237.721 200.282 237.363 200.822 236.646C201.363 235.924 201.633 234.915 201.633 233.619C201.633 232.46 201.356 231.523 200.803 230.807C200.256 230.084 199.527 229.723 198.615 229.723C197.723 229.723 197.004 230.077 196.457 230.787C195.91 231.497 195.637 232.512 195.637 233.834ZM207.414 228.434L207.473 229.762C208.28 228.746 209.335 228.238 210.637 228.238C212.87 228.238 213.996 229.498 214.016 232.018V239H212.209V232.008C212.202 231.246 212.027 230.683 211.682 230.318C211.343 229.954 210.812 229.771 210.09 229.771C209.504 229.771 208.99 229.928 208.547 230.24C208.104 230.553 207.759 230.963 207.512 231.471V239H205.705V228.434H207.414Z" fill="black"/>
<g clip-path="url(#clip0)">
<path d="M121.667 123.333H108.334C107.412 123.333 106.667 124.08 106.667 125C106.667 125.92 107.412 126.666 108.334 126.666H121.667C122.589 126.666 123.334 125.92 123.334 125C123.334 124.08 122.588 123.333 121.667 123.333Z" fill="#FFAC22"/>
<path d="M121.667 130H108.334C107.412 130 106.667 130.747 106.667 131.667C106.667 132.587 107.412 133.333 108.334 133.333H121.667C122.589 133.333 123.334 132.587 123.334 131.667C123.334 130.747 122.588 130 121.667 130Z" fill="#FFAC22"/>
<path d="M108.334 120H115C115.922 120 116.667 119.254 116.667 118.334C116.667 117.414 115.922 116.667 115 116.667H108.334C107.412 116.667 106.667 117.414 106.667 118.334C106.667 119.254 107.412 120 108.334 120Z" fill="#FFAC22"/>
<path d="M130 76.6666H148.333V80H141.667C140.745 80 140 80.7467 140 81.6666C140 82.5865 140.745 83.3332 141.667 83.3332H158.333C159.255 83.3332 160 82.5865 160 81.6666C160 80.7467 159.255 80 158.333 80H151.667V76.6666H170C171.838 76.6666 173.333 75.1717 173.333 73.3332V43.3332C173.333 41.4949 171.838 40 170 40H130C128.162 40 126.666 41.4949 126.666 43.3334V73.3334C126.666 75.1717 128.162 76.6666 130 76.6666ZM130 43.3334H170L170.003 66.6668H130V43.3334ZM130 70H170.003V73.3334H130V70Z" fill="#FFAC22"/>
<path d="M115 103.334C115.922 103.334 116.667 102.587 116.667 101.667V96.667H145.308C145.81 98.0787 146.92 99.1902 148.333 99.692V101.667C148.333 102.587 149.078 103.334 150 103.334C150.921 103.334 151.666 102.587 151.666 101.667V99.6935C153.08 99.1902 154.19 98.0785 154.691 96.6668H183.335V101.667C183.335 102.587 184.08 103.333 185.001 103.333C185.923 103.333 186.668 102.587 186.668 101.667V95.0002C186.668 94.0803 185.923 93.3336 185.001 93.3336H154.692C154.19 91.9219 153.08 90.8103 151.667 90.3068V88.3336C151.667 87.4137 150.922 86.667 150 86.667C149.078 86.667 148.333 87.4137 148.333 88.3336V90.3068C146.92 90.8102 145.81 91.9219 145.308 93.3336H115C114.078 93.3336 113.333 94.0803 113.333 95.0002V101.667C113.333 102.587 114.078 103.334 115 103.334ZM150 93.3336C150.92 93.3336 151.667 94.0818 151.667 95.0002C151.667 95.9185 150.92 96.6668 150 96.6668C149.08 96.6668 148.333 95.9185 148.333 95.0002C148.333 94.0818 149.08 93.3336 150 93.3336Z" fill="#FFAC22"/>
<path d="M178.333 120H185C185.922 120 186.666 119.254 186.666 118.334C186.666 117.414 185.922 116.667 185 116.667H178.333C177.412 116.667 176.667 117.414 176.667 118.334C176.667 119.254 177.412 120 178.333 120Z" fill="#FFAC22"/>
<path d="M161.666 106.667H138.333C136.495 106.667 135 108.162 135 110V136.667C135 138.505 136.495 140 138.333 140H161.667C163.505 140 165 138.505 165 136.667V110C165 108.162 163.505 106.667 161.666 106.667ZM138.333 136.667V110H161.667L161.668 136.667H138.333Z" fill="#FFAC22"/>
<path d="M126.667 106.667H103.333C101.495 106.667 100 108.162 100 110V136.667C100 138.505 101.495 140 103.333 140H126.667C128.505 140 130 138.505 130 136.667V110C130 108.162 128.505 106.667 126.667 106.667ZM103.333 136.667V110H126.667L126.669 136.667H103.333Z" fill="#FFAC22"/>
<path d="M191.666 130H178.333C177.411 130 176.666 130.747 176.666 131.667C176.666 132.587 177.411 133.333 178.333 133.333H191.666C192.588 133.333 193.333 132.587 193.333 131.667C193.333 130.747 192.588 130 191.666 130Z" fill="#FFAC22"/>
<path d="M196.667 106.667H173.333C171.495 106.667 170 108.162 170 110V136.667C170 138.505 171.495 140 173.333 140H196.667C198.505 140 200 138.505 200 136.667V110C200 108.162 198.505 106.667 196.667 106.667ZM173.333 136.667V110H196.667L196.669 136.667H173.333Z" fill="#FFAC22"/>
<path d="M191.666 123.333H178.333C177.411 123.333 176.666 124.08 176.666 125C176.666 125.92 177.411 126.666 178.333 126.666H191.666C192.588 126.666 193.333 125.92 193.333 125C193.333 124.08 192.588 123.333 191.666 123.333Z" fill="#FFAC22"/>
<path d="M156.667 123.333H143.333C142.411 123.333 141.667 124.08 141.667 125C141.667 125.92 142.411 126.666 143.333 126.666H156.667C157.588 126.666 158.333 125.92 158.333 125C158.333 124.08 157.588 123.333 156.667 123.333Z" fill="#FFAC22"/>
<path d="M143.333 120H150C150.922 120 151.667 119.254 151.667 118.334C151.667 117.414 150.922 116.667 150 116.667H143.333C142.412 116.667 141.667 117.414 141.667 118.334C141.667 119.254 142.412 120 143.333 120Z" fill="#FFAC22"/>
<path d="M156.667 130H143.333C142.411 130 141.667 130.747 141.667 131.667C141.667 132.587 142.411 133.333 143.333 133.333H156.667C157.588 133.333 158.333 132.587 158.333 131.667C158.333 130.747 157.588 130 156.667 130Z" fill="#FFAC22"/>
</g>
<defs>
<clipPath id="clip0">
<rect width="100" height="100" fill="white" transform="translate(100 40)"/>
</clipPath>
</defs>
</svg>
