<svg width="300" height="302" viewBox="0 0 300 302" fill="none" xmlns="http://www.w3.org/2000/svg">
<path d="M68.3008 206.488C68.125 207.992 67.5684 209.154 66.6309 209.975C65.6999 210.788 64.4596 211.195 62.9102 211.195C61.2305 211.195 59.8828 210.593 58.8672 209.389C57.8581 208.184 57.3535 206.573 57.3535 204.555V203.188C57.3535 201.866 57.5879 200.704 58.0566 199.701C58.5319 198.699 59.2025 197.93 60.0684 197.396C60.9342 196.856 61.9368 196.586 63.0762 196.586C64.5866 196.586 65.7975 197.009 66.709 197.855C67.6204 198.695 68.151 199.861 68.3008 201.352H66.416C66.2533 200.219 65.8984 199.398 65.3516 198.891C64.8112 198.383 64.0527 198.129 63.0762 198.129C61.8783 198.129 60.9375 198.572 60.2539 199.457C59.5768 200.342 59.2383 201.602 59.2383 203.236V204.613C59.2383 206.156 59.5605 207.383 60.2051 208.295C60.8496 209.206 61.7513 209.662 62.9102 209.662C63.9518 209.662 64.7493 209.428 65.3027 208.959C65.8626 208.484 66.2337 207.66 66.416 206.488H68.3008ZM77.1094 211C77.0052 210.792 76.9206 210.421 76.8555 209.887C76.0156 210.759 75.013 211.195 73.8477 211.195C72.806 211.195 71.9499 210.902 71.2793 210.316C70.6152 209.724 70.2832 208.975 70.2832 208.07C70.2832 206.97 70.6999 206.117 71.5332 205.512C72.373 204.9 73.5514 204.594 75.0684 204.594H76.8262V203.764C76.8262 203.132 76.6374 202.631 76.2598 202.26C75.8822 201.882 75.3255 201.693 74.5898 201.693C73.9453 201.693 73.4049 201.856 72.9688 202.182C72.5326 202.507 72.3145 202.901 72.3145 203.363H70.498C70.498 202.836 70.6836 202.328 71.0547 201.84C71.4323 201.345 71.9401 200.954 72.5781 200.668C73.2227 200.382 73.929 200.238 74.6973 200.238C75.9147 200.238 76.8685 200.544 77.5586 201.156C78.2487 201.762 78.6068 202.598 78.6328 203.666V208.529C78.6328 209.499 78.7565 210.271 79.0039 210.844V211H77.1094ZM74.1113 209.623C74.6777 209.623 75.2148 209.477 75.7227 209.184C76.2305 208.891 76.5983 208.51 76.8262 208.041V205.873H75.4102C73.1966 205.873 72.0898 206.521 72.0898 207.816C72.0898 208.383 72.2786 208.826 72.6562 209.145C73.0339 209.464 73.5189 209.623 74.1113 209.623ZM90.3906 205.834C90.3906 207.442 90.0228 208.738 89.2871 209.721C88.5514 210.704 87.5553 211.195 86.2988 211.195C85.0163 211.195 84.0072 210.788 83.2715 209.975V215.062H81.4648V200.434H83.1152L83.2031 201.605C83.9388 200.694 84.9609 200.238 86.2695 200.238C87.5391 200.238 88.5417 200.717 89.2773 201.674C90.0195 202.631 90.3906 203.962 90.3906 205.668V205.834ZM88.584 205.629C88.584 204.438 88.3301 203.497 87.8223 202.807C87.3145 202.117 86.6178 201.771 85.7324 201.771C84.6387 201.771 83.8184 202.257 83.2715 203.227V208.275C83.8118 209.239 84.6387 209.721 85.752 209.721C86.6178 209.721 87.3047 209.379 87.8125 208.695C88.3268 208.005 88.584 206.983 88.584 205.629ZM99.2188 211C99.1146 210.792 99.0299 210.421 98.9648 209.887C98.125 210.759 97.1224 211.195 95.957 211.195C94.9154 211.195 94.0592 210.902 93.3887 210.316C92.7246 209.724 92.3926 208.975 92.3926 208.07C92.3926 206.97 92.8092 206.117 93.6426 205.512C94.4824 204.9 95.6608 204.594 97.1777 204.594H98.9355V203.764C98.9355 203.132 98.7467 202.631 98.3691 202.26C97.9915 201.882 97.4349 201.693 96.6992 201.693C96.0547 201.693 95.5143 201.856 95.0781 202.182C94.6419 202.507 94.4238 202.901 94.4238 203.363H92.6074C92.6074 202.836 92.793 202.328 93.1641 201.84C93.5417 201.345 94.0495 200.954 94.6875 200.668C95.332 200.382 96.0384 200.238 96.8066 200.238C98.0241 200.238 98.9779 200.544 99.668 201.156C100.358 201.762 100.716 202.598 100.742 203.666V208.529C100.742 209.499 100.866 210.271 101.113 210.844V211H99.2188ZM96.2207 209.623C96.7871 209.623 97.3242 209.477 97.832 209.184C98.3398 208.891 98.7077 208.51 98.9355 208.041V205.873H97.5195C95.306 205.873 94.1992 206.521 94.1992 207.816C94.1992 208.383 94.388 208.826 94.7656 209.145C95.1432 209.464 95.6283 209.623 96.2207 209.623ZM107.812 209.721C108.457 209.721 109.02 209.525 109.502 209.135C109.984 208.744 110.251 208.256 110.303 207.67H112.012C111.979 208.275 111.771 208.852 111.387 209.398C111.003 209.945 110.488 210.382 109.844 210.707C109.206 211.033 108.529 211.195 107.812 211.195C106.374 211.195 105.228 210.717 104.375 209.76C103.529 208.796 103.105 207.481 103.105 205.814V205.512C103.105 204.483 103.294 203.568 103.672 202.768C104.049 201.967 104.59 201.345 105.293 200.902C106.003 200.46 106.839 200.238 107.803 200.238C108.988 200.238 109.971 200.593 110.752 201.303C111.54 202.012 111.96 202.934 112.012 204.066H110.303C110.251 203.383 109.99 202.823 109.521 202.387C109.059 201.944 108.486 201.723 107.803 201.723C106.885 201.723 106.172 202.055 105.664 202.719C105.163 203.376 104.912 204.33 104.912 205.58V205.922C104.912 207.139 105.163 208.077 105.664 208.734C106.165 209.392 106.882 209.721 107.812 209.721ZM116.006 211H114.199V200.434H116.006V211ZM114.053 197.631C114.053 197.338 114.141 197.09 114.316 196.889C114.499 196.687 114.766 196.586 115.117 196.586C115.469 196.586 115.736 196.687 115.918 196.889C116.1 197.09 116.191 197.338 116.191 197.631C116.191 197.924 116.1 198.168 115.918 198.363C115.736 198.559 115.469 198.656 115.117 198.656C114.766 198.656 114.499 198.559 114.316 198.363C114.141 198.168 114.053 197.924 114.053 197.631ZM121.357 197.875V200.434H123.33V201.83H121.357V208.383C121.357 208.806 121.445 209.125 121.621 209.34C121.797 209.548 122.096 209.652 122.52 209.652C122.728 209.652 123.014 209.613 123.379 209.535V211C122.904 211.13 122.441 211.195 121.992 211.195C121.185 211.195 120.576 210.951 120.166 210.463C119.756 209.975 119.551 209.281 119.551 208.383V201.83H117.627V200.434H119.551V197.875H121.357ZM128.906 208.354L131.367 200.434H133.301L129.053 212.631C128.395 214.389 127.35 215.268 125.918 215.268L125.576 215.238L124.902 215.111V213.646L125.391 213.686C126.003 213.686 126.478 213.562 126.816 213.314C127.161 213.067 127.445 212.615 127.666 211.957L128.066 210.883L124.297 200.434H126.27L128.906 208.354ZM133.906 210.053C133.906 209.74 133.997 209.48 134.18 209.271C134.368 209.063 134.648 208.959 135.02 208.959C135.391 208.959 135.671 209.063 135.859 209.271C136.055 209.48 136.152 209.74 136.152 210.053C136.152 210.352 136.055 210.603 135.859 210.805C135.671 211.007 135.391 211.107 135.02 211.107C134.648 211.107 134.368 211.007 134.18 210.805C133.997 210.603 133.906 210.352 133.906 210.053ZM146.396 211H144.521V196.781H146.396V211ZM152.002 197.875V200.434H153.975V201.83H152.002V208.383C152.002 208.806 152.09 209.125 152.266 209.34C152.441 209.548 152.741 209.652 153.164 209.652C153.372 209.652 153.659 209.613 154.023 209.535V211C153.548 211.13 153.086 211.195 152.637 211.195C151.829 211.195 151.221 210.951 150.811 210.463C150.4 209.975 150.195 209.281 150.195 208.383V201.83H148.271V200.434H150.195V197.875H152.002ZM163.018 211H161.211V200.434H163.018V211ZM161.064 197.631C161.064 197.338 161.152 197.09 161.328 196.889C161.51 196.687 161.777 196.586 162.129 196.586C162.48 196.586 162.747 196.687 162.93 196.889C163.112 197.09 163.203 197.338 163.203 197.631C163.203 197.924 163.112 198.168 162.93 198.363C162.747 198.559 162.48 198.656 162.129 198.656C161.777 198.656 161.51 198.559 161.328 198.363C161.152 198.168 161.064 197.924 161.064 197.631ZM172.07 208.197C172.07 207.709 171.885 207.331 171.514 207.064C171.149 206.791 170.508 206.557 169.59 206.361C168.678 206.166 167.952 205.932 167.412 205.658C166.878 205.385 166.481 205.059 166.221 204.682C165.967 204.304 165.84 203.855 165.84 203.334C165.84 202.468 166.204 201.736 166.934 201.137C167.669 200.538 168.607 200.238 169.746 200.238C170.944 200.238 171.914 200.548 172.656 201.166C173.405 201.785 173.779 202.576 173.779 203.539H171.963C171.963 203.044 171.751 202.618 171.328 202.26C170.911 201.902 170.384 201.723 169.746 201.723C169.089 201.723 168.574 201.866 168.203 202.152C167.832 202.439 167.646 202.813 167.646 203.275C167.646 203.712 167.819 204.04 168.164 204.262C168.509 204.483 169.131 204.695 170.029 204.896C170.934 205.098 171.667 205.339 172.227 205.619C172.786 205.899 173.2 206.238 173.467 206.635C173.74 207.025 173.877 207.504 173.877 208.07C173.877 209.014 173.499 209.773 172.744 210.346C171.989 210.912 171.009 211.195 169.805 211.195C168.958 211.195 168.21 211.046 167.559 210.746C166.908 210.447 166.396 210.03 166.025 209.496C165.661 208.956 165.479 208.373 165.479 207.748H167.285C167.318 208.354 167.559 208.835 168.008 209.193C168.464 209.545 169.062 209.721 169.805 209.721C170.488 209.721 171.035 209.584 171.445 209.311C171.862 209.031 172.07 208.66 172.07 208.197ZM185.576 211.195C184.144 211.195 182.979 210.727 182.08 209.789C181.182 208.845 180.732 207.585 180.732 206.01V205.678C180.732 204.63 180.931 203.695 181.328 202.875C181.732 202.048 182.292 201.404 183.008 200.941C183.73 200.473 184.512 200.238 185.352 200.238C186.725 200.238 187.793 200.691 188.555 201.596C189.316 202.501 189.697 203.796 189.697 205.482V206.234H182.539C182.565 207.276 182.868 208.119 183.447 208.764C184.033 209.402 184.775 209.721 185.674 209.721C186.312 209.721 186.852 209.59 187.295 209.33C187.738 209.07 188.125 208.725 188.457 208.295L189.561 209.154C188.675 210.515 187.347 211.195 185.576 211.195ZM185.352 201.723C184.622 201.723 184.01 201.99 183.516 202.523C183.021 203.051 182.715 203.793 182.598 204.75H187.891V204.613C187.839 203.695 187.591 202.986 187.148 202.484C186.706 201.977 186.107 201.723 185.352 201.723ZM198.32 211C198.216 210.792 198.132 210.421 198.066 209.887C197.227 210.759 196.224 211.195 195.059 211.195C194.017 211.195 193.161 210.902 192.49 210.316C191.826 209.724 191.494 208.975 191.494 208.07C191.494 206.97 191.911 206.117 192.744 205.512C193.584 204.9 194.762 204.594 196.279 204.594H198.037V203.764C198.037 203.132 197.848 202.631 197.471 202.26C197.093 201.882 196.536 201.693 195.801 201.693C195.156 201.693 194.616 201.856 194.18 202.182C193.743 202.507 193.525 202.901 193.525 203.363H191.709C191.709 202.836 191.895 202.328 192.266 201.84C192.643 201.345 193.151 200.954 193.789 200.668C194.434 200.382 195.14 200.238 195.908 200.238C197.126 200.238 198.079 200.544 198.77 201.156C199.46 201.762 199.818 202.598 199.844 203.666V208.529C199.844 209.499 199.967 210.271 200.215 210.844V211H198.32ZM195.322 209.623C195.889 209.623 196.426 209.477 196.934 209.184C197.441 208.891 197.809 208.51 198.037 208.041V205.873H196.621C194.408 205.873 193.301 206.521 193.301 207.816C193.301 208.383 193.49 208.826 193.867 209.145C194.245 209.464 194.73 209.623 195.322 209.623ZM208.828 208.197C208.828 207.709 208.643 207.331 208.271 207.064C207.907 206.791 207.266 206.557 206.348 206.361C205.436 206.166 204.71 205.932 204.17 205.658C203.636 205.385 203.239 205.059 202.979 204.682C202.725 204.304 202.598 203.855 202.598 203.334C202.598 202.468 202.962 201.736 203.691 201.137C204.427 200.538 205.365 200.238 206.504 200.238C207.702 200.238 208.672 200.548 209.414 201.166C210.163 201.785 210.537 202.576 210.537 203.539H208.721C208.721 203.044 208.509 202.618 208.086 202.26C207.669 201.902 207.142 201.723 206.504 201.723C205.846 201.723 205.332 201.866 204.961 202.152C204.59 202.439 204.404 202.813 204.404 203.275C204.404 203.712 204.577 204.04 204.922 204.262C205.267 204.483 205.889 204.695 206.787 204.896C207.692 205.098 208.424 205.339 208.984 205.619C209.544 205.899 209.958 206.238 210.225 206.635C210.498 207.025 210.635 207.504 210.635 208.07C210.635 209.014 210.257 209.773 209.502 210.346C208.747 210.912 207.767 211.195 206.562 211.195C205.716 211.195 204.967 211.046 204.316 210.746C203.665 210.447 203.154 210.03 202.783 209.496C202.419 208.956 202.236 208.373 202.236 207.748H204.043C204.076 208.354 204.316 208.835 204.766 209.193C205.221 209.545 205.82 209.721 206.562 209.721C207.246 209.721 207.793 209.584 208.203 209.311C208.62 209.031 208.828 208.66 208.828 208.197ZM216.445 208.354L218.906 200.434H220.84L216.592 212.631C215.934 214.389 214.889 215.268 213.457 215.268L213.115 215.238L212.441 215.111V213.646L212.93 213.686C213.542 213.686 214.017 213.562 214.355 213.314C214.701 213.067 214.984 212.615 215.205 211.957L215.605 210.883L211.836 200.434H213.809L216.445 208.354ZM229.873 197.875V200.434H231.846V201.83H229.873V208.383C229.873 208.806 229.961 209.125 230.137 209.34C230.312 209.548 230.612 209.652 231.035 209.652C231.243 209.652 231.53 209.613 231.895 209.535V211C231.419 211.13 230.957 211.195 230.508 211.195C229.701 211.195 229.092 210.951 228.682 210.463C228.271 209.975 228.066 209.281 228.066 208.383V201.83H226.143V200.434H228.066V197.875H229.873ZM233.291 205.619C233.291 204.584 233.493 203.653 233.896 202.826C234.307 201.999 234.873 201.361 235.596 200.912C236.325 200.463 237.155 200.238 238.086 200.238C239.525 200.238 240.687 200.736 241.572 201.732C242.464 202.729 242.91 204.053 242.91 205.707V205.834C242.91 206.863 242.712 207.787 242.314 208.607C241.924 209.421 241.361 210.056 240.625 210.512C239.896 210.967 239.056 211.195 238.105 211.195C236.673 211.195 235.511 210.697 234.619 209.701C233.734 208.705 233.291 207.387 233.291 205.746V205.619ZM235.107 205.834C235.107 207.006 235.378 207.947 235.918 208.656C236.465 209.366 237.194 209.721 238.105 209.721C239.023 209.721 239.753 209.363 240.293 208.646C240.833 207.924 241.104 206.915 241.104 205.619C241.104 204.46 240.827 203.523 240.273 202.807C239.727 202.084 238.997 201.723 238.086 201.723C237.194 201.723 236.475 202.077 235.928 202.787C235.381 203.497 235.107 204.512 235.107 205.834ZM30.9863 239H29.1797V228.434H30.9863V239ZM29.0332 225.631C29.0332 225.338 29.1211 225.09 29.2969 224.889C29.4792 224.687 29.7461 224.586 30.0977 224.586C30.4492 224.586 30.7161 224.687 30.8984 224.889C31.0807 225.09 31.1719 225.338 31.1719 225.631C31.1719 225.924 31.0807 226.168 30.8984 226.363C30.7161 226.559 30.4492 226.656 30.0977 226.656C29.7461 226.656 29.4792 226.559 29.2969 226.363C29.1211 226.168 29.0332 225.924 29.0332 225.631ZM35.5957 228.434L35.6543 229.762C36.4616 228.746 37.5163 228.238 38.8184 228.238C41.0514 228.238 42.1777 229.498 42.1973 232.018V239H40.3906V232.008C40.3841 231.246 40.2083 230.683 39.8633 230.318C39.5247 229.954 38.9941 229.771 38.2715 229.771C37.6855 229.771 37.1712 229.928 36.7285 230.24C36.2858 230.553 35.9408 230.963 35.6934 231.471V239H33.8867V228.434H35.5957ZM49.1602 237.721C49.8047 237.721 50.3678 237.525 50.8496 237.135C51.3314 236.744 51.5983 236.256 51.6504 235.67H53.3594C53.3268 236.275 53.1185 236.852 52.7344 237.398C52.3503 237.945 51.8359 238.382 51.1914 238.707C50.5534 239.033 49.8763 239.195 49.1602 239.195C47.7214 239.195 46.5755 238.717 45.7227 237.76C44.8763 236.796 44.4531 235.481 44.4531 233.814V233.512C44.4531 232.483 44.6419 231.568 45.0195 230.768C45.3971 229.967 45.9375 229.345 46.6406 228.902C47.3503 228.46 48.1868 228.238 49.1504 228.238C50.3353 228.238 51.3184 228.593 52.0996 229.303C52.8874 230.012 53.3073 230.934 53.3594 232.066H51.6504C51.5983 231.383 51.3379 230.823 50.8691 230.387C50.4069 229.944 49.834 229.723 49.1504 229.723C48.2324 229.723 47.5195 230.055 47.0117 230.719C46.5104 231.376 46.2598 232.33 46.2598 233.58V233.922C46.2598 235.139 46.5104 236.077 47.0117 236.734C47.513 237.392 48.2292 237.721 49.1602 237.721ZM60.498 230.055C60.2246 230.009 59.9284 229.986 59.6094 229.986C58.4245 229.986 57.6204 230.491 57.1973 231.5V239H55.3906V228.434H57.1484L57.1777 229.654C57.7702 228.71 58.61 228.238 59.6973 228.238C60.0488 228.238 60.3158 228.284 60.498 228.375V230.055ZM66.3574 239.195C64.9251 239.195 63.7598 238.727 62.8613 237.789C61.9629 236.845 61.5137 235.585 61.5137 234.01V233.678C61.5137 232.63 61.7122 231.695 62.1094 230.875C62.513 230.048 63.0729 229.404 63.7891 228.941C64.5117 228.473 65.293 228.238 66.1328 228.238C67.5065 228.238 68.5742 228.691 69.3359 229.596C70.0977 230.501 70.4785 231.796 70.4785 233.482V234.234H63.3203C63.3464 235.276 63.6491 236.119 64.2285 236.764C64.8145 237.402 65.5566 237.721 66.4551 237.721C67.0931 237.721 67.6335 237.59 68.0762 237.33C68.5189 237.07 68.9062 236.725 69.2383 236.295L70.3418 237.154C69.4564 238.515 68.1283 239.195 66.3574 239.195ZM66.1328 229.723C65.4036 229.723 64.7917 229.99 64.2969 230.523C63.8021 231.051 63.4961 231.793 63.3789 232.75H68.6719V232.613C68.6198 231.695 68.3724 230.986 67.9297 230.484C67.487 229.977 66.888 229.723 66.1328 229.723ZM79.1016 239C78.9974 238.792 78.9128 238.421 78.8477 237.887C78.0078 238.759 77.0052 239.195 75.8398 239.195C74.7982 239.195 73.9421 238.902 73.2715 238.316C72.6074 237.724 72.2754 236.975 72.2754 236.07C72.2754 234.97 72.6921 234.117 73.5254 233.512C74.3652 232.9 75.5436 232.594 77.0605 232.594H78.8184V231.764C78.8184 231.132 78.6296 230.631 78.252 230.26C77.8743 229.882 77.3177 229.693 76.582 229.693C75.9375 229.693 75.3971 229.856 74.9609 230.182C74.5247 230.507 74.3066 230.901 74.3066 231.363H72.4902C72.4902 230.836 72.6758 230.328 73.0469 229.84C73.4245 229.345 73.9323 228.954 74.5703 228.668C75.2148 228.382 75.9212 228.238 76.6895 228.238C77.9069 228.238 78.8607 228.544 79.5508 229.156C80.2409 229.762 80.599 230.598 80.625 231.666V236.529C80.625 237.499 80.7487 238.271 80.9961 238.844V239H79.1016ZM76.1035 237.623C76.6699 237.623 77.207 237.477 77.7148 237.184C78.2227 236.891 78.5905 236.51 78.8184 236.041V233.873H77.4023C75.1888 233.873 74.082 234.521 74.082 235.816C74.082 236.383 74.2708 236.826 74.6484 237.145C75.026 237.464 75.5111 237.623 76.1035 237.623ZM89.6094 236.197C89.6094 235.709 89.4238 235.331 89.0527 235.064C88.6882 234.791 88.0469 234.557 87.1289 234.361C86.2174 234.166 85.4915 233.932 84.9512 233.658C84.4173 233.385 84.0202 233.059 83.7598 232.682C83.5059 232.304 83.3789 231.855 83.3789 231.334C83.3789 230.468 83.7435 229.736 84.4727 229.137C85.2083 228.538 86.1458 228.238 87.2852 228.238C88.4831 228.238 89.4531 228.548 90.1953 229.166C90.944 229.785 91.3184 230.576 91.3184 231.539H89.502C89.502 231.044 89.2904 230.618 88.8672 230.26C88.4505 229.902 87.9232 229.723 87.2852 229.723C86.6276 229.723 86.1133 229.866 85.7422 230.152C85.3711 230.439 85.1855 230.813 85.1855 231.275C85.1855 231.712 85.3581 232.04 85.7031 232.262C86.0482 232.483 86.6699 232.695 87.5684 232.896C88.4733 233.098 89.2057 233.339 89.7656 233.619C90.3255 233.899 90.7389 234.238 91.0059 234.635C91.2793 235.025 91.416 235.504 91.416 236.07C91.416 237.014 91.0384 237.773 90.2832 238.346C89.528 238.912 88.5482 239.195 87.3438 239.195C86.4974 239.195 85.7487 239.046 85.0977 238.746C84.4466 238.447 83.9355 238.03 83.5645 237.496C83.1999 236.956 83.0176 236.373 83.0176 235.748H84.8242C84.8568 236.354 85.0977 236.835 85.5469 237.193C86.0026 237.545 86.6016 237.721 87.3438 237.721C88.0273 237.721 88.5742 237.584 88.9844 237.311C89.401 237.031 89.6094 236.66 89.6094 236.197ZM98.1543 239.195C96.722 239.195 95.5566 238.727 94.6582 237.789C93.7598 236.845 93.3105 235.585 93.3105 234.01V233.678C93.3105 232.63 93.5091 231.695 93.9062 230.875C94.3099 230.048 94.8698 229.404 95.5859 228.941C96.3086 228.473 97.0898 228.238 97.9297 228.238C99.3034 228.238 100.371 228.691 101.133 229.596C101.895 230.501 102.275 231.796 102.275 233.482V234.234H95.1172C95.1432 235.276 95.446 236.119 96.0254 236.764C96.6113 237.402 97.3535 237.721 98.252 237.721C98.89 237.721 99.4303 237.59 99.873 237.33C100.316 237.07 100.703 236.725 101.035 236.295L102.139 237.154C101.253 238.515 99.9251 239.195 98.1543 239.195ZM97.9297 229.723C97.2005 229.723 96.5885 229.99 96.0938 230.523C95.599 231.051 95.293 231.793 95.1758 232.75H100.469V232.613C100.417 231.695 100.169 230.986 99.7266 230.484C99.2839 229.977 98.6849 229.723 97.9297 229.723ZM111.787 225.875V228.434H113.76V229.83H111.787V236.383C111.787 236.806 111.875 237.125 112.051 237.34C112.227 237.548 112.526 237.652 112.949 237.652C113.158 237.652 113.444 237.613 113.809 237.535V239C113.333 239.13 112.871 239.195 112.422 239.195C111.615 239.195 111.006 238.951 110.596 238.463C110.186 237.975 109.98 237.281 109.98 236.383V229.83H108.057V228.434H109.98V225.875H111.787ZM117.686 229.713C118.486 228.73 119.528 228.238 120.811 228.238C123.044 228.238 124.17 229.498 124.189 232.018V239H122.383V232.008C122.376 231.246 122.201 230.683 121.855 230.318C121.517 229.954 120.986 229.771 120.264 229.771C119.678 229.771 119.163 229.928 118.721 230.24C118.278 230.553 117.933 230.963 117.686 231.471V239H115.879V224H117.686V229.713ZM131.279 239.195C129.847 239.195 128.682 238.727 127.783 237.789C126.885 236.845 126.436 235.585 126.436 234.01V233.678C126.436 232.63 126.634 231.695 127.031 230.875C127.435 230.048 127.995 229.404 128.711 228.941C129.434 228.473 130.215 228.238 131.055 228.238C132.428 228.238 133.496 228.691 134.258 229.596C135.02 230.501 135.4 231.796 135.4 233.482V234.234H128.242C128.268 235.276 128.571 236.119 129.15 236.764C129.736 237.402 130.479 237.721 131.377 237.721C132.015 237.721 132.555 237.59 132.998 237.33C133.441 237.07 133.828 236.725 134.16 236.295L135.264 237.154C134.378 238.515 133.05 239.195 131.279 239.195ZM131.055 229.723C130.326 229.723 129.714 229.99 129.219 230.523C128.724 231.051 128.418 231.793 128.301 232.75H133.594V232.613C133.542 231.695 133.294 230.986 132.852 230.484C132.409 229.977 131.81 229.723 131.055 229.723ZM146.699 237.721C147.344 237.721 147.907 237.525 148.389 237.135C148.87 236.744 149.137 236.256 149.189 235.67H150.898C150.866 236.275 150.658 236.852 150.273 237.398C149.889 237.945 149.375 238.382 148.73 238.707C148.092 239.033 147.415 239.195 146.699 239.195C145.26 239.195 144.115 238.717 143.262 237.76C142.415 236.796 141.992 235.481 141.992 233.814V233.512C141.992 232.483 142.181 231.568 142.559 230.768C142.936 229.967 143.477 229.345 144.18 228.902C144.889 228.46 145.726 228.238 146.689 228.238C147.874 228.238 148.857 228.593 149.639 229.303C150.426 230.012 150.846 230.934 150.898 232.066H149.189C149.137 231.383 148.877 230.823 148.408 230.387C147.946 229.944 147.373 229.723 146.689 229.723C145.771 229.723 145.059 230.055 144.551 230.719C144.049 231.376 143.799 232.33 143.799 233.58V233.922C143.799 235.139 144.049 236.077 144.551 236.734C145.052 237.392 145.768 237.721 146.699 237.721ZM159.453 239C159.349 238.792 159.264 238.421 159.199 237.887C158.359 238.759 157.357 239.195 156.191 239.195C155.15 239.195 154.294 238.902 153.623 238.316C152.959 237.724 152.627 236.975 152.627 236.07C152.627 234.97 153.044 234.117 153.877 233.512C154.717 232.9 155.895 232.594 157.412 232.594H159.17V231.764C159.17 231.132 158.981 230.631 158.604 230.26C158.226 229.882 157.669 229.693 156.934 229.693C156.289 229.693 155.749 229.856 155.312 230.182C154.876 230.507 154.658 230.901 154.658 231.363H152.842C152.842 230.836 153.027 230.328 153.398 229.84C153.776 229.345 154.284 228.954 154.922 228.668C155.566 228.382 156.273 228.238 157.041 228.238C158.258 228.238 159.212 228.544 159.902 229.156C160.592 229.762 160.951 230.598 160.977 231.666V236.529C160.977 237.499 161.1 238.271 161.348 238.844V239H159.453ZM156.455 237.623C157.021 237.623 157.559 237.477 158.066 237.184C158.574 236.891 158.942 236.51 159.17 236.041V233.873H157.754C155.54 233.873 154.434 234.521 154.434 235.816C154.434 236.383 154.622 236.826 155 237.145C155.378 237.464 155.863 237.623 156.455 237.623ZM172.734 233.834C172.734 235.442 172.367 236.738 171.631 237.721C170.895 238.704 169.899 239.195 168.643 239.195C167.36 239.195 166.351 238.788 165.615 237.975V243.062H163.809V228.434H165.459L165.547 229.605C166.283 228.694 167.305 228.238 168.613 228.238C169.883 228.238 170.885 228.717 171.621 229.674C172.363 230.631 172.734 231.962 172.734 233.668V233.834ZM170.928 233.629C170.928 232.438 170.674 231.497 170.166 230.807C169.658 230.117 168.962 229.771 168.076 229.771C166.982 229.771 166.162 230.257 165.615 231.227V236.275C166.156 237.239 166.982 237.721 168.096 237.721C168.962 237.721 169.648 237.379 170.156 236.695C170.671 236.005 170.928 234.983 170.928 233.629ZM181.562 239C181.458 238.792 181.374 238.421 181.309 237.887C180.469 238.759 179.466 239.195 178.301 239.195C177.259 239.195 176.403 238.902 175.732 238.316C175.068 237.724 174.736 236.975 174.736 236.07C174.736 234.97 175.153 234.117 175.986 233.512C176.826 232.9 178.005 232.594 179.521 232.594H181.279V231.764C181.279 231.132 181.09 230.631 180.713 230.26C180.335 229.882 179.779 229.693 179.043 229.693C178.398 229.693 177.858 229.856 177.422 230.182C176.986 230.507 176.768 230.901 176.768 231.363H174.951C174.951 230.836 175.137 230.328 175.508 229.84C175.885 229.345 176.393 228.954 177.031 228.668C177.676 228.382 178.382 228.238 179.15 228.238C180.368 228.238 181.322 228.544 182.012 229.156C182.702 229.762 183.06 230.598 183.086 231.666V236.529C183.086 237.499 183.21 238.271 183.457 238.844V239H181.562ZM178.564 237.623C179.131 237.623 179.668 237.477 180.176 237.184C180.684 236.891 181.051 236.51 181.279 236.041V233.873H179.863C177.65 233.873 176.543 234.521 176.543 235.816C176.543 236.383 176.732 236.826 177.109 237.145C177.487 237.464 177.972 237.623 178.564 237.623ZM190.156 237.721C190.801 237.721 191.364 237.525 191.846 237.135C192.327 236.744 192.594 236.256 192.646 235.67H194.355C194.323 236.275 194.115 236.852 193.73 237.398C193.346 237.945 192.832 238.382 192.188 238.707C191.549 239.033 190.872 239.195 190.156 239.195C188.717 239.195 187.572 238.717 186.719 237.76C185.872 236.796 185.449 235.481 185.449 233.814V233.512C185.449 232.483 185.638 231.568 186.016 230.768C186.393 229.967 186.934 229.345 187.637 228.902C188.346 228.46 189.183 228.238 190.146 228.238C191.331 228.238 192.314 228.593 193.096 229.303C193.883 230.012 194.303 230.934 194.355 232.066H192.646C192.594 231.383 192.334 230.823 191.865 230.387C191.403 229.944 190.83 229.723 190.146 229.723C189.229 229.723 188.516 230.055 188.008 230.719C187.507 231.376 187.256 232.33 187.256 233.58V233.922C187.256 235.139 187.507 236.077 188.008 236.734C188.509 237.392 189.225 237.721 190.156 237.721ZM198.35 239H196.543V228.434H198.35V239ZM196.396 225.631C196.396 225.338 196.484 225.09 196.66 224.889C196.842 224.687 197.109 224.586 197.461 224.586C197.812 224.586 198.079 224.687 198.262 224.889C198.444 225.09 198.535 225.338 198.535 225.631C198.535 225.924 198.444 226.168 198.262 226.363C198.079 226.559 197.812 226.656 197.461 226.656C197.109 226.656 196.842 226.559 196.66 226.363C196.484 226.168 196.396 225.924 196.396 225.631ZM203.701 225.875V228.434H205.674V229.83H203.701V236.383C203.701 236.806 203.789 237.125 203.965 237.34C204.141 237.548 204.44 237.652 204.863 237.652C205.072 237.652 205.358 237.613 205.723 237.535V239C205.247 239.13 204.785 239.195 204.336 239.195C203.529 239.195 202.92 238.951 202.51 238.463C202.1 237.975 201.895 237.281 201.895 236.383V229.83H199.971V228.434H201.895V225.875H203.701ZM211.25 236.354L213.711 228.434H215.645L211.396 240.631C210.739 242.389 209.694 243.268 208.262 243.268L207.92 243.238L207.246 243.111V241.646L207.734 241.686C208.346 241.686 208.822 241.562 209.16 241.314C209.505 241.067 209.788 240.615 210.01 239.957L210.41 238.883L206.641 228.434H208.613L211.25 236.354ZM221.748 233.619C221.748 232.584 221.95 231.653 222.354 230.826C222.764 229.999 223.33 229.361 224.053 228.912C224.782 228.463 225.612 228.238 226.543 228.238C227.982 228.238 229.144 228.736 230.029 229.732C230.921 230.729 231.367 232.053 231.367 233.707V233.834C231.367 234.863 231.169 235.787 230.771 236.607C230.381 237.421 229.818 238.056 229.082 238.512C228.353 238.967 227.513 239.195 226.562 239.195C225.13 239.195 223.968 238.697 223.076 237.701C222.191 236.705 221.748 235.387 221.748 233.746V233.619ZM223.564 233.834C223.564 235.006 223.835 235.947 224.375 236.656C224.922 237.366 225.651 237.721 226.562 237.721C227.48 237.721 228.21 237.363 228.75 236.646C229.29 235.924 229.561 234.915 229.561 233.619C229.561 232.46 229.284 231.523 228.73 230.807C228.184 230.084 227.454 229.723 226.543 229.723C225.651 229.723 224.932 230.077 224.385 230.787C223.838 231.497 223.564 232.512 223.564 233.834ZM234.521 239V229.83H232.852V228.434H234.521V227.35C234.521 226.217 234.824 225.341 235.43 224.723C236.035 224.104 236.891 223.795 237.998 223.795C238.415 223.795 238.828 223.85 239.238 223.961L239.141 225.426C238.835 225.367 238.509 225.338 238.164 225.338C237.578 225.338 237.126 225.51 236.807 225.855C236.488 226.194 236.328 226.682 236.328 227.32V228.434H238.584V229.83H236.328V239H234.521ZM247.998 225.875V228.434H249.971V229.83H247.998V236.383C247.998 236.806 248.086 237.125 248.262 237.34C248.438 237.548 248.737 237.652 249.16 237.652C249.368 237.652 249.655 237.613 250.02 237.535V239C249.544 239.13 249.082 239.195 248.633 239.195C247.826 239.195 247.217 238.951 246.807 238.463C246.396 237.975 246.191 237.281 246.191 236.383V229.83H244.268V228.434H246.191V225.875H247.998ZM253.896 229.713C254.697 228.73 255.739 228.238 257.021 228.238C259.255 228.238 260.381 229.498 260.4 232.018V239H258.594V232.008C258.587 231.246 258.411 230.683 258.066 230.318C257.728 229.954 257.197 229.771 256.475 229.771C255.889 229.771 255.374 229.928 254.932 230.24C254.489 230.553 254.144 230.963 253.896 231.471V239H252.09V224H253.896V229.713ZM267.49 239.195C266.058 239.195 264.893 238.727 263.994 237.789C263.096 236.845 262.646 235.585 262.646 234.01V233.678C262.646 232.63 262.845 231.695 263.242 230.875C263.646 230.048 264.206 229.404 264.922 228.941C265.645 228.473 266.426 228.238 267.266 228.238C268.639 228.238 269.707 228.691 270.469 229.596C271.23 230.501 271.611 231.796 271.611 233.482V234.234H264.453C264.479 235.276 264.782 236.119 265.361 236.764C265.947 237.402 266.689 237.721 267.588 237.721C268.226 237.721 268.766 237.59 269.209 237.33C269.652 237.07 270.039 236.725 270.371 236.295L271.475 237.154C270.589 238.515 269.261 239.195 267.49 239.195ZM267.266 229.723C266.536 229.723 265.924 229.99 265.43 230.523C264.935 231.051 264.629 231.793 264.512 232.75H269.805V232.613C269.753 231.695 269.505 230.986 269.062 230.484C268.62 229.977 268.021 229.723 267.266 229.723ZM48.1641 265.721C48.8086 265.721 49.3717 265.525 49.8535 265.135C50.3353 264.744 50.6022 264.256 50.6543 263.67H52.3633C52.3307 264.275 52.1224 264.852 51.7383 265.398C51.3542 265.945 50.8398 266.382 50.1953 266.707C49.5573 267.033 48.8802 267.195 48.1641 267.195C46.7253 267.195 45.5794 266.717 44.7266 265.76C43.8802 264.796 43.457 263.481 43.457 261.814V261.512C43.457 260.483 43.6458 259.568 44.0234 258.768C44.401 257.967 44.9414 257.345 45.6445 256.902C46.3542 256.46 47.1908 256.238 48.1543 256.238C49.3392 256.238 50.3223 256.593 51.1035 257.303C51.8913 258.012 52.3112 258.934 52.3633 260.066H50.6543C50.6022 259.383 50.3418 258.823 49.873 258.387C49.4108 257.944 48.8379 257.723 48.1543 257.723C47.2363 257.723 46.5234 258.055 46.0156 258.719C45.5143 259.376 45.2637 260.33 45.2637 261.58V261.922C45.2637 263.139 45.5143 264.077 46.0156 264.734C46.5169 265.392 47.2331 265.721 48.1641 265.721ZM53.916 261.619C53.916 260.584 54.1178 259.653 54.5215 258.826C54.9316 257.999 55.498 257.361 56.2207 256.912C56.9499 256.463 57.7799 256.238 58.7109 256.238C60.1497 256.238 61.3118 256.736 62.1973 257.732C63.0892 258.729 63.5352 260.053 63.5352 261.707V261.834C63.5352 262.863 63.3366 263.787 62.9395 264.607C62.5488 265.421 61.9857 266.056 61.25 266.512C60.5208 266.967 59.681 267.195 58.7305 267.195C57.2982 267.195 56.1361 266.697 55.2441 265.701C54.3587 264.705 53.916 263.387 53.916 261.746V261.619ZM55.7324 261.834C55.7324 263.006 56.0026 263.947 56.543 264.656C57.0898 265.366 57.819 265.721 58.7305 265.721C59.6484 265.721 60.3776 265.363 60.918 264.646C61.4583 263.924 61.7285 262.915 61.7285 261.619C61.7285 260.46 61.4518 259.523 60.8984 258.807C60.3516 258.084 59.6224 257.723 58.7109 257.723C57.819 257.723 57.0996 258.077 56.5527 258.787C56.0059 259.497 55.7324 260.512 55.7324 261.834ZM67.5 256.434L67.5488 257.605C68.3236 256.694 69.3685 256.238 70.6836 256.238C72.1615 256.238 73.1673 256.805 73.7012 257.938C74.0527 257.43 74.5085 257.02 75.0684 256.707C75.6348 256.395 76.3021 256.238 77.0703 256.238C79.388 256.238 80.5664 257.465 80.6055 259.92V267H78.7988V260.027C78.7988 259.272 78.6263 258.709 78.2812 258.338C77.9362 257.96 77.3568 257.771 76.543 257.771C75.8724 257.771 75.3158 257.973 74.873 258.377C74.4303 258.774 74.1732 259.311 74.1016 259.988V267H72.2852V260.076C72.2852 258.54 71.5332 257.771 70.0293 257.771C68.8444 257.771 68.0339 258.276 67.5977 259.285V267H65.791V256.434H67.5ZM92.2656 261.834C92.2656 263.442 91.8978 264.738 91.1621 265.721C90.4264 266.704 89.4303 267.195 88.1738 267.195C86.8913 267.195 85.8822 266.788 85.1465 265.975V271.062H83.3398V256.434H84.9902L85.0781 257.605C85.8138 256.694 86.8359 256.238 88.1445 256.238C89.4141 256.238 90.4167 256.717 91.1523 257.674C91.8945 258.631 92.2656 259.962 92.2656 261.668V261.834ZM90.459 261.629C90.459 260.438 90.2051 259.497 89.6973 258.807C89.1895 258.117 88.4928 257.771 87.6074 257.771C86.5137 257.771 85.6934 258.257 85.1465 259.227V264.275C85.6868 265.239 86.5137 265.721 87.627 265.721C88.4928 265.721 89.1797 265.379 89.6875 264.695C90.2018 264.005 90.459 262.983 90.459 261.629ZM101.094 265.955C100.391 266.782 99.3587 267.195 97.998 267.195C96.8717 267.195 96.0124 266.87 95.4199 266.219C94.834 265.561 94.5378 264.591 94.5312 263.309V256.434H96.3379V263.26C96.3379 264.861 96.9889 265.662 98.291 265.662C99.6712 265.662 100.589 265.148 101.045 264.119V256.434H102.852V267H101.133L101.094 265.955ZM108.057 253.875V256.434H110.029V257.83H108.057V264.383C108.057 264.806 108.145 265.125 108.32 265.34C108.496 265.548 108.796 265.652 109.219 265.652C109.427 265.652 109.714 265.613 110.078 265.535V267C109.603 267.13 109.141 267.195 108.691 267.195C107.884 267.195 107.275 266.951 106.865 266.463C106.455 265.975 106.25 265.281 106.25 264.383V257.83H104.326V256.434H106.25V253.875H108.057ZM114.111 267H112.305V256.434H114.111V267ZM112.158 253.631C112.158 253.338 112.246 253.09 112.422 252.889C112.604 252.687 112.871 252.586 113.223 252.586C113.574 252.586 113.841 252.687 114.023 252.889C114.206 253.09 114.297 253.338 114.297 253.631C114.297 253.924 114.206 254.168 114.023 254.363C113.841 254.559 113.574 254.656 113.223 254.656C112.871 254.656 112.604 254.559 112.422 254.363C112.246 254.168 112.158 253.924 112.158 253.631ZM118.721 256.434L118.779 257.762C119.587 256.746 120.641 256.238 121.943 256.238C124.176 256.238 125.303 257.498 125.322 260.018V267H123.516V260.008C123.509 259.246 123.333 258.683 122.988 258.318C122.65 257.954 122.119 257.771 121.396 257.771C120.811 257.771 120.296 257.928 119.854 258.24C119.411 258.553 119.066 258.963 118.818 259.471V267H117.012V256.434H118.721ZM127.617 261.629C127.617 259.982 127.998 258.673 128.76 257.703C129.521 256.727 130.531 256.238 131.787 256.238C133.076 256.238 134.082 256.694 134.805 257.605L134.893 256.434H136.543V266.746C136.543 268.113 136.136 269.191 135.322 269.979C134.515 270.766 133.428 271.16 132.061 271.16C131.299 271.16 130.553 270.997 129.824 270.672C129.095 270.346 128.538 269.9 128.154 269.334L129.092 268.25C129.867 269.207 130.814 269.686 131.934 269.686C132.812 269.686 133.496 269.438 133.984 268.943C134.479 268.449 134.727 267.752 134.727 266.854V265.945C134.004 266.779 133.018 267.195 131.768 267.195C130.531 267.195 129.528 266.697 128.76 265.701C127.998 264.705 127.617 263.348 127.617 261.629ZM129.434 261.834C129.434 263.025 129.678 263.963 130.166 264.646C130.654 265.324 131.338 265.662 132.217 265.662C133.356 265.662 134.193 265.145 134.727 264.109V259.285C134.173 258.276 133.343 257.771 132.236 257.771C131.357 257.771 130.671 258.113 130.176 258.797C129.681 259.48 129.434 260.493 129.434 261.834ZM148.477 265.721C149.121 265.721 149.684 265.525 150.166 265.135C150.648 264.744 150.915 264.256 150.967 263.67H152.676C152.643 264.275 152.435 264.852 152.051 265.398C151.667 265.945 151.152 266.382 150.508 266.707C149.87 267.033 149.193 267.195 148.477 267.195C147.038 267.195 145.892 266.717 145.039 265.76C144.193 264.796 143.77 263.481 143.77 261.814V261.512C143.77 260.483 143.958 259.568 144.336 258.768C144.714 257.967 145.254 257.345 145.957 256.902C146.667 256.46 147.503 256.238 148.467 256.238C149.652 256.238 150.635 256.593 151.416 257.303C152.204 258.012 152.624 258.934 152.676 260.066H150.967C150.915 259.383 150.654 258.823 150.186 258.387C149.723 257.944 149.15 257.723 148.467 257.723C147.549 257.723 146.836 258.055 146.328 258.719C145.827 259.376 145.576 260.33 145.576 261.58V261.922C145.576 263.139 145.827 264.077 146.328 264.734C146.829 265.392 147.546 265.721 148.477 265.721ZM159.092 267.195C157.66 267.195 156.494 266.727 155.596 265.789C154.697 264.845 154.248 263.585 154.248 262.01V261.678C154.248 260.63 154.447 259.695 154.844 258.875C155.247 258.048 155.807 257.404 156.523 256.941C157.246 256.473 158.027 256.238 158.867 256.238C160.241 256.238 161.309 256.691 162.07 257.596C162.832 258.501 163.213 259.796 163.213 261.482V262.234H156.055C156.081 263.276 156.383 264.119 156.963 264.764C157.549 265.402 158.291 265.721 159.189 265.721C159.827 265.721 160.368 265.59 160.811 265.33C161.253 265.07 161.641 264.725 161.973 264.295L163.076 265.154C162.191 266.515 160.863 267.195 159.092 267.195ZM158.867 257.723C158.138 257.723 157.526 257.99 157.031 258.523C156.536 259.051 156.23 259.793 156.113 260.75H161.406V260.613C161.354 259.695 161.107 258.986 160.664 258.484C160.221 257.977 159.622 257.723 158.867 257.723ZM167.021 256.434L167.08 257.762C167.887 256.746 168.942 256.238 170.244 256.238C172.477 256.238 173.604 257.498 173.623 260.018V267H171.816V260.008C171.81 259.246 171.634 258.683 171.289 258.318C170.951 257.954 170.42 257.771 169.697 257.771C169.111 257.771 168.597 257.928 168.154 258.24C167.712 258.553 167.367 258.963 167.119 259.471V267H165.312V256.434H167.021ZM178.799 253.875V256.434H180.771V257.83H178.799V264.383C178.799 264.806 178.887 265.125 179.062 265.34C179.238 265.548 179.538 265.652 179.961 265.652C180.169 265.652 180.456 265.613 180.82 265.535V267C180.345 267.13 179.883 267.195 179.434 267.195C178.626 267.195 178.018 266.951 177.607 266.463C177.197 265.975 176.992 265.281 176.992 264.383V257.83H175.068V256.434H176.992V253.875H178.799ZM187.998 258.055C187.725 258.009 187.428 257.986 187.109 257.986C185.924 257.986 185.12 258.491 184.697 259.5V267H182.891V256.434H184.648L184.678 257.654C185.27 256.71 186.11 256.238 187.197 256.238C187.549 256.238 187.816 256.284 187.998 256.375V258.055ZM193.857 267.195C192.425 267.195 191.26 266.727 190.361 265.789C189.463 264.845 189.014 263.585 189.014 262.01V261.678C189.014 260.63 189.212 259.695 189.609 258.875C190.013 258.048 190.573 257.404 191.289 256.941C192.012 256.473 192.793 256.238 193.633 256.238C195.007 256.238 196.074 256.691 196.836 257.596C197.598 258.501 197.979 259.796 197.979 261.482V262.234H190.82C190.846 263.276 191.149 264.119 191.729 264.764C192.314 265.402 193.057 265.721 193.955 265.721C194.593 265.721 195.133 265.59 195.576 265.33C196.019 265.07 196.406 264.725 196.738 264.295L197.842 265.154C196.956 266.515 195.628 267.195 193.857 267.195ZM193.633 257.723C192.904 257.723 192.292 257.99 191.797 258.523C191.302 259.051 190.996 259.793 190.879 260.75H196.172V260.613C196.12 259.695 195.872 258.986 195.43 258.484C194.987 257.977 194.388 257.723 193.633 257.723ZM211.562 267C211.458 266.792 211.374 266.421 211.309 265.887C210.469 266.759 209.466 267.195 208.301 267.195C207.259 267.195 206.403 266.902 205.732 266.316C205.068 265.724 204.736 264.975 204.736 264.07C204.736 262.97 205.153 262.117 205.986 261.512C206.826 260.9 208.005 260.594 209.521 260.594H211.279V259.764C211.279 259.132 211.09 258.631 210.713 258.26C210.335 257.882 209.779 257.693 209.043 257.693C208.398 257.693 207.858 257.856 207.422 258.182C206.986 258.507 206.768 258.901 206.768 259.363H204.951C204.951 258.836 205.137 258.328 205.508 257.84C205.885 257.345 206.393 256.954 207.031 256.668C207.676 256.382 208.382 256.238 209.15 256.238C210.368 256.238 211.322 256.544 212.012 257.156C212.702 257.762 213.06 258.598 213.086 259.666V264.529C213.086 265.499 213.21 266.271 213.457 266.844V267H211.562ZM208.564 265.623C209.131 265.623 209.668 265.477 210.176 265.184C210.684 264.891 211.051 264.51 211.279 264.041V261.873H209.863C207.65 261.873 206.543 262.521 206.543 263.816C206.543 264.383 206.732 264.826 207.109 265.145C207.487 265.464 207.972 265.623 208.564 265.623ZM218.369 253.875V256.434H220.342V257.83H218.369V264.383C218.369 264.806 218.457 265.125 218.633 265.34C218.809 265.548 219.108 265.652 219.531 265.652C219.74 265.652 220.026 265.613 220.391 265.535V267C219.915 267.13 219.453 267.195 219.004 267.195C218.197 267.195 217.588 266.951 217.178 266.463C216.768 265.975 216.562 265.281 216.562 264.383V257.83H214.639V256.434H216.562V253.875H218.369ZM233.945 267C233.841 266.792 233.757 266.421 233.691 265.887C232.852 266.759 231.849 267.195 230.684 267.195C229.642 267.195 228.786 266.902 228.115 266.316C227.451 265.724 227.119 264.975 227.119 264.07C227.119 262.97 227.536 262.117 228.369 261.512C229.209 260.9 230.387 260.594 231.904 260.594H233.662V259.764C233.662 259.132 233.473 258.631 233.096 258.26C232.718 257.882 232.161 257.693 231.426 257.693C230.781 257.693 230.241 257.856 229.805 258.182C229.368 258.507 229.15 258.901 229.15 259.363H227.334C227.334 258.836 227.52 258.328 227.891 257.84C228.268 257.345 228.776 256.954 229.414 256.668C230.059 256.382 230.765 256.238 231.533 256.238C232.751 256.238 233.704 256.544 234.395 257.156C235.085 257.762 235.443 258.598 235.469 259.666V264.529C235.469 265.499 235.592 266.271 235.84 266.844V267H233.945ZM230.947 265.623C231.514 265.623 232.051 265.477 232.559 265.184C233.066 264.891 233.434 264.51 233.662 264.041V261.873H232.246C230.033 261.873 228.926 262.521 228.926 263.816C228.926 264.383 229.115 264.826 229.492 265.145C229.87 265.464 230.355 265.623 230.947 265.623ZM240.01 256.434L240.068 257.762C240.876 256.746 241.93 256.238 243.232 256.238C245.465 256.238 246.592 257.498 246.611 260.018V267H244.805V260.008C244.798 259.246 244.622 258.683 244.277 258.318C243.939 257.954 243.408 257.771 242.686 257.771C242.1 257.771 241.585 257.928 241.143 258.24C240.7 258.553 240.355 258.963 240.107 259.471V267H238.301V256.434H240.01ZM252.793 264.354L255.254 256.434H257.188L252.939 268.631C252.282 270.389 251.237 271.268 249.805 271.268L249.463 271.238L248.789 271.111V269.646L249.277 269.686C249.889 269.686 250.365 269.562 250.703 269.314C251.048 269.067 251.331 268.615 251.553 267.957L251.953 266.883L248.184 256.434H250.156L252.793 264.354ZM97.4707 289.834C97.4707 291.442 97.1029 292.738 96.3672 293.721C95.6315 294.704 94.6354 295.195 93.3789 295.195C92.0964 295.195 91.0872 294.788 90.3516 293.975V299.062H88.5449V284.434H90.1953L90.2832 285.605C91.0189 284.694 92.041 284.238 93.3496 284.238C94.6191 284.238 95.6217 284.717 96.3574 285.674C97.0996 286.631 97.4707 287.962 97.4707 289.668V289.834ZM95.6641 289.629C95.6641 288.438 95.4102 287.497 94.9023 286.807C94.3945 286.117 93.6979 285.771 92.8125 285.771C91.7188 285.771 90.8984 286.257 90.3516 287.227V292.275C90.8919 293.239 91.7188 293.721 92.832 293.721C93.6979 293.721 94.3848 293.379 94.8926 292.695C95.4069 292.005 95.6641 290.983 95.6641 289.629ZM99.2969 289.619C99.2969 288.584 99.4987 287.653 99.9023 286.826C100.312 285.999 100.879 285.361 101.602 284.912C102.331 284.463 103.161 284.238 104.092 284.238C105.531 284.238 106.693 284.736 107.578 285.732C108.47 286.729 108.916 288.053 108.916 289.707V289.834C108.916 290.863 108.717 291.787 108.32 292.607C107.93 293.421 107.367 294.056 106.631 294.512C105.902 294.967 105.062 295.195 104.111 295.195C102.679 295.195 101.517 294.697 100.625 293.701C99.7396 292.705 99.2969 291.387 99.2969 289.746V289.619ZM101.113 289.834C101.113 291.006 101.383 291.947 101.924 292.656C102.471 293.366 103.2 293.721 104.111 293.721C105.029 293.721 105.758 293.363 106.299 292.646C106.839 291.924 107.109 290.915 107.109 289.619C107.109 288.46 106.833 287.523 106.279 286.807C105.732 286.084 105.003 285.723 104.092 285.723C103.2 285.723 102.48 286.077 101.934 286.787C101.387 287.497 101.113 288.512 101.113 289.834ZM113.145 295H111.338V284.434H113.145V295ZM111.191 281.631C111.191 281.338 111.279 281.09 111.455 280.889C111.637 280.687 111.904 280.586 112.256 280.586C112.607 280.586 112.874 280.687 113.057 280.889C113.239 281.09 113.33 281.338 113.33 281.631C113.33 281.924 113.239 282.168 113.057 282.363C112.874 282.559 112.607 282.656 112.256 282.656C111.904 282.656 111.637 282.559 111.455 282.363C111.279 282.168 111.191 281.924 111.191 281.631ZM117.754 284.434L117.812 285.762C118.62 284.746 119.674 284.238 120.977 284.238C123.21 284.238 124.336 285.498 124.355 288.018V295H122.549V288.008C122.542 287.246 122.367 286.683 122.021 286.318C121.683 285.954 121.152 285.771 120.43 285.771C119.844 285.771 119.329 285.928 118.887 286.24C118.444 286.553 118.099 286.963 117.852 287.471V295H116.045V284.434H117.754ZM129.531 281.875V284.434H131.504V285.83H129.531V292.383C129.531 292.806 129.619 293.125 129.795 293.34C129.971 293.548 130.27 293.652 130.693 293.652C130.902 293.652 131.188 293.613 131.553 293.535V295C131.077 295.13 130.615 295.195 130.166 295.195C129.359 295.195 128.75 294.951 128.34 294.463C127.93 293.975 127.725 293.281 127.725 292.383V285.83H125.801V284.434H127.725V281.875H129.531ZM140.547 295H138.74V284.434H140.547V295ZM138.594 281.631C138.594 281.338 138.682 281.09 138.857 280.889C139.04 280.687 139.307 280.586 139.658 280.586C140.01 280.586 140.277 280.687 140.459 280.889C140.641 281.09 140.732 281.338 140.732 281.631C140.732 281.924 140.641 282.168 140.459 282.363C140.277 282.559 140.01 282.656 139.658 282.656C139.307 282.656 139.04 282.559 138.857 282.363C138.682 282.168 138.594 281.924 138.594 281.631ZM145.156 284.434L145.215 285.762C146.022 284.746 147.077 284.238 148.379 284.238C150.612 284.238 151.738 285.498 151.758 288.018V295H149.951V288.008C149.945 287.246 149.769 286.683 149.424 286.318C149.085 285.954 148.555 285.771 147.832 285.771C147.246 285.771 146.732 285.928 146.289 286.24C145.846 286.553 145.501 286.963 145.254 287.471V295H143.447V284.434H145.156ZM161.895 281.875V284.434H163.867V285.83H161.895V292.383C161.895 292.806 161.982 293.125 162.158 293.34C162.334 293.548 162.633 293.652 163.057 293.652C163.265 293.652 163.551 293.613 163.916 293.535V295C163.441 295.13 162.979 295.195 162.529 295.195C161.722 295.195 161.113 294.951 160.703 294.463C160.293 293.975 160.088 293.281 160.088 292.383V285.83H158.164V284.434H160.088V281.875H161.895ZM167.949 295H166.143V284.434H167.949V295ZM165.996 281.631C165.996 281.338 166.084 281.09 166.26 280.889C166.442 280.687 166.709 280.586 167.061 280.586C167.412 280.586 167.679 280.687 167.861 280.889C168.044 281.09 168.135 281.338 168.135 281.631C168.135 281.924 168.044 282.168 167.861 282.363C167.679 282.559 167.412 282.656 167.061 282.656C166.709 282.656 166.442 282.559 166.26 282.363C166.084 282.168 165.996 281.924 165.996 281.631ZM172.549 284.434L172.598 285.605C173.372 284.694 174.417 284.238 175.732 284.238C177.21 284.238 178.216 284.805 178.75 285.938C179.102 285.43 179.557 285.02 180.117 284.707C180.684 284.395 181.351 284.238 182.119 284.238C184.437 284.238 185.615 285.465 185.654 287.92V295H183.848V288.027C183.848 287.272 183.675 286.709 183.33 286.338C182.985 285.96 182.406 285.771 181.592 285.771C180.921 285.771 180.365 285.973 179.922 286.377C179.479 286.774 179.222 287.311 179.15 287.988V295H177.334V288.076C177.334 286.54 176.582 285.771 175.078 285.771C173.893 285.771 173.083 286.276 172.646 287.285V295H170.84V284.434H172.549ZM192.773 295.195C191.341 295.195 190.176 294.727 189.277 293.789C188.379 292.845 187.93 291.585 187.93 290.01V289.678C187.93 288.63 188.128 287.695 188.525 286.875C188.929 286.048 189.489 285.404 190.205 284.941C190.928 284.473 191.709 284.238 192.549 284.238C193.923 284.238 194.99 284.691 195.752 285.596C196.514 286.501 196.895 287.796 196.895 289.482V290.234H189.736C189.762 291.276 190.065 292.119 190.645 292.764C191.23 293.402 191.973 293.721 192.871 293.721C193.509 293.721 194.049 293.59 194.492 293.33C194.935 293.07 195.322 292.725 195.654 292.295L196.758 293.154C195.872 294.515 194.544 295.195 192.773 295.195ZM192.549 285.723C191.82 285.723 191.208 285.99 190.713 286.523C190.218 287.051 189.912 287.793 189.795 288.75H195.088V288.613C195.036 287.695 194.788 286.986 194.346 286.484C193.903 285.977 193.304 285.723 192.549 285.723ZM199.033 294.053C199.033 293.74 199.124 293.48 199.307 293.271C199.495 293.063 199.775 292.959 200.146 292.959C200.518 292.959 200.798 293.063 200.986 293.271C201.182 293.48 201.279 293.74 201.279 294.053C201.279 294.352 201.182 294.603 200.986 294.805C200.798 295.007 200.518 295.107 200.146 295.107C199.775 295.107 199.495 295.007 199.307 294.805C199.124 294.603 199.033 294.352 199.033 294.053Z" fill="black"/>
<g clip-path="url(#clip0)">
<path d="M193.333 60.0008C189.657 60.0008 186.667 62.9908 186.667 66.6674C186.667 67.9008 187.025 69.0406 187.612 70.0324L170.032 87.6125C169.04 87.0258 167.9 86.6676 166.667 86.6676C165.438 86.6676 164.3 87.0242 163.31 87.6076L155.727 80.0242C156.31 79.0342 156.667 77.8959 156.667 76.6676C156.667 72.9908 153.677 70.001 150 70.001C146.323 70.001 143.333 72.991 143.333 76.6676C143.333 77.4543 143.495 78.1977 143.747 78.8977L111 111.644C109.832 110.634 108.328 110.001 106.667 110.001V51.6674C106.667 48.9107 108.91 46.6674 111.667 46.6674H188.333C191.09 46.6674 193.333 48.9107 193.333 51.6674V55.0008C193.333 55.9207 194.08 56.6674 195 56.6674C195.92 56.6674 196.666 55.9207 196.666 55.0008V51.6674C196.666 47.0725 192.928 43.334 188.333 43.334H111.667C107.072 43.334 103.333 47.0723 103.333 51.6674V110.929C101.35 112.086 100 114.211 100 116.667C100 120.344 102.99 123.334 106.667 123.334C110.343 123.334 113.333 120.344 113.333 116.667C113.333 115.881 113.171 115.137 112.92 114.437L145.667 81.6906C146.835 82.7006 148.338 83.334 150 83.334C151.237 83.334 152.38 82.974 153.373 82.3857L160.948 89.9607C160.36 90.9541 160 92.0975 160 93.334C160 97.0107 162.99 100.001 166.667 100.001C170.343 100.001 173.333 97.0106 173.333 93.334C173.333 92.1006 172.975 90.9607 172.388 89.969L189.968 72.3889C190.96 72.9756 192.1 73.3338 193.333 73.3338V128.334C193.333 131.09 191.09 133.334 188.333 133.334H183.333V88.3338C183.333 87.4139 182.587 86.6672 181.667 86.6672C180.747 86.6672 180 87.4139 180 88.3338V133.334H170V105.001C170 104.081 169.254 103.334 168.334 103.334C167.414 103.334 166.667 104.081 166.667 105.001V133.334H156.667V91.6674C156.667 90.7475 155.92 90.0008 155 90.0008C154.08 90.0008 153.334 90.7475 153.334 91.6674V133.334H143.334V91.6674C143.334 90.7475 142.587 90.0008 141.667 90.0008C140.747 90.0008 140.001 90.7475 140.001 91.6674V133.334H130.001V105.001C130.001 104.081 129.254 103.334 128.334 103.334C127.414 103.334 126.667 104.081 126.667 105.001V133.334H116.667V126.668C116.667 125.748 115.921 125.001 115.001 125.001C114.081 125.001 113.334 125.748 113.334 126.668V133.334H111.668C108.911 133.334 106.668 131.091 106.668 128.334C106.668 127.414 105.921 126.668 105.001 126.668C104.081 126.668 103.334 127.414 103.334 128.334C103.334 132.929 107.073 136.668 111.668 136.668H188.334C192.929 136.668 196.668 132.929 196.668 128.334V72.4059C198.651 71.2492 200.001 69.1242 200.001 66.6676C200 62.9908 197.01 60.0008 193.333 60.0008ZM106.667 120.001C104.828 120.001 103.333 118.506 103.333 116.667C103.333 114.829 104.828 113.334 106.667 113.334C108.505 113.334 110 114.829 110 116.667C110 118.506 108.505 120.001 106.667 120.001ZM150 80.0008C148.162 80.0008 146.667 78.5059 146.667 76.6674C146.667 74.8291 148.162 73.334 150 73.334C151.838 73.334 153.333 74.8289 153.333 76.6674C153.333 78.5059 151.838 80.0008 150 80.0008ZM166.667 96.6674C164.828 96.6674 163.333 95.1725 163.333 93.334C163.333 91.4957 164.828 90.0006 166.667 90.0006C168.505 90.0006 170 91.4955 170 93.334C170 95.1725 168.505 96.6674 166.667 96.6674ZM193.333 70.0008C192.425 70.0008 191.6 69.6324 190.998 69.0408C190.992 69.0342 190.99 69.0242 190.983 69.0174C190.977 69.0107 190.967 69.009 190.96 69.0023C190.368 68.4006 190 67.5756 190 66.6674C190 64.8291 191.495 63.334 193.333 63.334C195.172 63.334 196.667 64.8289 196.667 66.6674C196.667 68.5059 195.172 70.0008 193.333 70.0008Z" fill="#FFAC22"/>
</g>
<defs>
<clipPath id="clip0">
<rect width="100" height="100" fill="white" transform="translate(100 40)"/>
</clipPath>
</defs>
</svg>
