<svg width="300" height="274" viewBox="0 0 300 274" fill="none" xmlns="http://www.w3.org/2000/svg">
<path d="M46.9824 204.428H40.8203V209.467H47.9785V211H38.9453V196.781H47.8809V198.324H40.8203V202.895H46.9824V204.428ZM56.5527 211C56.4486 210.792 56.3639 210.421 56.2988 209.887C55.459 210.759 54.4564 211.195 53.291 211.195C52.2493 211.195 51.3932 210.902 50.7227 210.316C50.0586 209.724 49.7266 208.975 49.7266 208.07C49.7266 206.97 50.1432 206.117 50.9766 205.512C51.8164 204.9 52.9948 204.594 54.5117 204.594H56.2695V203.764C56.2695 203.132 56.0807 202.631 55.7031 202.26C55.3255 201.882 54.7689 201.693 54.0332 201.693C53.3887 201.693 52.8483 201.856 52.4121 202.182C51.9759 202.507 51.7578 202.901 51.7578 203.363H49.9414C49.9414 202.836 50.127 202.328 50.498 201.84C50.8757 201.345 51.3835 200.954 52.0215 200.668C52.666 200.382 53.3724 200.238 54.1406 200.238C55.3581 200.238 56.3118 200.544 57.002 201.156C57.6921 201.762 58.0501 202.598 58.0762 203.666V208.529C58.0762 209.499 58.1999 210.271 58.4473 210.844V211H56.5527ZM53.5547 209.623C54.1211 209.623 54.6582 209.477 55.166 209.184C55.6738 208.891 56.0417 208.51 56.2695 208.041V205.873H54.8535C52.64 205.873 51.5332 206.521 51.5332 207.816C51.5332 208.383 51.722 208.826 52.0996 209.145C52.4772 209.464 52.9622 209.623 53.5547 209.623ZM65.1465 209.721C65.791 209.721 66.3542 209.525 66.8359 209.135C67.3177 208.744 67.5846 208.256 67.6367 207.67H69.3457C69.3132 208.275 69.1048 208.852 68.7207 209.398C68.3366 209.945 67.8223 210.382 67.1777 210.707C66.5397 211.033 65.8626 211.195 65.1465 211.195C63.7077 211.195 62.5618 210.717 61.709 209.76C60.8626 208.796 60.4395 207.481 60.4395 205.814V205.512C60.4395 204.483 60.6283 203.568 61.0059 202.768C61.3835 201.967 61.9238 201.345 62.627 200.902C63.3366 200.46 64.1732 200.238 65.1367 200.238C66.3216 200.238 67.3047 200.593 68.0859 201.303C68.8737 202.012 69.2936 202.934 69.3457 204.066H67.6367C67.5846 203.383 67.3242 202.823 66.8555 202.387C66.3932 201.944 65.8203 201.723 65.1367 201.723C64.2188 201.723 63.5059 202.055 62.998 202.719C62.4967 203.376 62.2461 204.33 62.2461 205.58V205.922C62.2461 207.139 62.4967 208.077 62.998 208.734C63.4993 209.392 64.2155 209.721 65.1465 209.721ZM73.1836 201.713C73.9844 200.73 75.026 200.238 76.3086 200.238C78.5417 200.238 79.668 201.498 79.6875 204.018V211H77.8809V204.008C77.8743 203.246 77.6986 202.683 77.3535 202.318C77.015 201.954 76.4844 201.771 75.7617 201.771C75.1758 201.771 74.6615 201.928 74.2188 202.24C73.776 202.553 73.431 202.963 73.1836 203.471V211H71.377V196H73.1836V201.713ZM91.5918 209.721C92.2363 209.721 92.7995 209.525 93.2812 209.135C93.763 208.744 94.0299 208.256 94.082 207.67H95.791C95.7585 208.275 95.5501 208.852 95.166 209.398C94.7819 209.945 94.2676 210.382 93.623 210.707C92.985 211.033 92.3079 211.195 91.5918 211.195C90.153 211.195 89.0072 210.717 88.1543 209.76C87.3079 208.796 86.8848 207.481 86.8848 205.814V205.512C86.8848 204.483 87.0736 203.568 87.4512 202.768C87.8288 201.967 88.3691 201.345 89.0723 200.902C89.7819 200.46 90.6185 200.238 91.582 200.238C92.7669 200.238 93.75 200.593 94.5312 201.303C95.319 202.012 95.7389 202.934 95.791 204.066H94.082C94.0299 203.383 93.7695 202.823 93.3008 202.387C92.8385 201.944 92.2656 201.723 91.582 201.723C90.6641 201.723 89.9512 202.055 89.4434 202.719C88.9421 203.376 88.6914 204.33 88.6914 205.58V205.922C88.6914 207.139 88.9421 208.077 89.4434 208.734C89.9447 209.392 90.6608 209.721 91.5918 209.721ZM97.3438 205.619C97.3438 204.584 97.5456 203.653 97.9492 202.826C98.3594 201.999 98.9258 201.361 99.6484 200.912C100.378 200.463 101.208 200.238 102.139 200.238C103.577 200.238 104.74 200.736 105.625 201.732C106.517 202.729 106.963 204.053 106.963 205.707V205.834C106.963 206.863 106.764 207.787 106.367 208.607C105.977 209.421 105.413 210.056 104.678 210.512C103.949 210.967 103.109 211.195 102.158 211.195C100.726 211.195 99.5638 210.697 98.6719 209.701C97.7865 208.705 97.3438 207.387 97.3438 205.746V205.619ZM99.1602 205.834C99.1602 207.006 99.4303 207.947 99.9707 208.656C100.518 209.366 101.247 209.721 102.158 209.721C103.076 209.721 103.805 209.363 104.346 208.646C104.886 207.924 105.156 206.915 105.156 205.619C105.156 204.46 104.88 203.523 104.326 202.807C103.779 202.084 103.05 201.723 102.139 201.723C101.247 201.723 100.527 202.077 99.9805 202.787C99.4336 203.497 99.1602 204.512 99.1602 205.834ZM110.928 200.434L110.977 201.605C111.751 200.694 112.796 200.238 114.111 200.238C115.589 200.238 116.595 200.805 117.129 201.938C117.48 201.43 117.936 201.02 118.496 200.707C119.062 200.395 119.73 200.238 120.498 200.238C122.816 200.238 123.994 201.465 124.033 203.92V211H122.227V204.027C122.227 203.272 122.054 202.709 121.709 202.338C121.364 201.96 120.785 201.771 119.971 201.771C119.3 201.771 118.743 201.973 118.301 202.377C117.858 202.774 117.601 203.311 117.529 203.988V211H115.713V204.076C115.713 202.54 114.961 201.771 113.457 201.771C112.272 201.771 111.462 202.276 111.025 203.285V211H109.219V200.434H110.928ZM135.693 205.834C135.693 207.442 135.326 208.738 134.59 209.721C133.854 210.704 132.858 211.195 131.602 211.195C130.319 211.195 129.31 210.788 128.574 209.975V215.062H126.768V200.434H128.418L128.506 201.605C129.242 200.694 130.264 200.238 131.572 200.238C132.842 200.238 133.844 200.717 134.58 201.674C135.322 202.631 135.693 203.962 135.693 205.668V205.834ZM133.887 205.629C133.887 204.438 133.633 203.497 133.125 202.807C132.617 202.117 131.921 201.771 131.035 201.771C129.941 201.771 129.121 202.257 128.574 203.227V208.275C129.115 209.239 129.941 209.721 131.055 209.721C131.921 209.721 132.607 209.379 133.115 208.695C133.63 208.005 133.887 206.983 133.887 205.629ZM144.521 209.955C143.818 210.782 142.786 211.195 141.426 211.195C140.299 211.195 139.44 210.87 138.848 210.219C138.262 209.561 137.965 208.591 137.959 207.309V200.434H139.766V207.26C139.766 208.861 140.417 209.662 141.719 209.662C143.099 209.662 144.017 209.148 144.473 208.119V200.434H146.279V211H144.561L144.521 209.955ZM151.484 197.875V200.434H153.457V201.83H151.484V208.383C151.484 208.806 151.572 209.125 151.748 209.34C151.924 209.548 152.223 209.652 152.646 209.652C152.855 209.652 153.141 209.613 153.506 209.535V211C153.031 211.13 152.568 211.195 152.119 211.195C151.312 211.195 150.703 210.951 150.293 210.463C149.883 209.975 149.678 209.281 149.678 208.383V201.83H147.754V200.434H149.678V197.875H151.484ZM157.539 211H155.732V200.434H157.539V211ZM155.586 197.631C155.586 197.338 155.674 197.09 155.85 196.889C156.032 196.687 156.299 196.586 156.65 196.586C157.002 196.586 157.269 196.687 157.451 196.889C157.633 197.09 157.725 197.338 157.725 197.631C157.725 197.924 157.633 198.168 157.451 198.363C157.269 198.559 157.002 198.656 156.65 198.656C156.299 198.656 156.032 198.559 155.85 198.363C155.674 198.168 155.586 197.924 155.586 197.631ZM162.148 200.434L162.207 201.762C163.014 200.746 164.069 200.238 165.371 200.238C167.604 200.238 168.73 201.498 168.75 204.018V211H166.943V204.008C166.937 203.246 166.761 202.683 166.416 202.318C166.077 201.954 165.547 201.771 164.824 201.771C164.238 201.771 163.724 201.928 163.281 202.24C162.839 202.553 162.493 202.963 162.246 203.471V211H160.439V200.434H162.148ZM171.045 205.629C171.045 203.982 171.426 202.673 172.188 201.703C172.949 200.727 173.958 200.238 175.215 200.238C176.504 200.238 177.51 200.694 178.232 201.605L178.32 200.434H179.971V210.746C179.971 212.113 179.564 213.191 178.75 213.979C177.943 214.766 176.855 215.16 175.488 215.16C174.727 215.16 173.981 214.997 173.252 214.672C172.523 214.346 171.966 213.9 171.582 213.334L172.52 212.25C173.294 213.207 174.242 213.686 175.361 213.686C176.24 213.686 176.924 213.438 177.412 212.943C177.907 212.449 178.154 211.752 178.154 210.854V209.945C177.432 210.779 176.445 211.195 175.195 211.195C173.958 211.195 172.956 210.697 172.188 209.701C171.426 208.705 171.045 207.348 171.045 205.629ZM172.861 205.834C172.861 207.025 173.105 207.963 173.594 208.646C174.082 209.324 174.766 209.662 175.645 209.662C176.784 209.662 177.62 209.145 178.154 208.109V203.285C177.601 202.276 176.771 201.771 175.664 201.771C174.785 201.771 174.098 202.113 173.604 202.797C173.109 203.48 172.861 204.493 172.861 205.834ZM189.365 200.434L189.414 201.605C190.189 200.694 191.234 200.238 192.549 200.238C194.027 200.238 195.033 200.805 195.566 201.938C195.918 201.43 196.374 201.02 196.934 200.707C197.5 200.395 198.167 200.238 198.936 200.238C201.253 200.238 202.432 201.465 202.471 203.92V211H200.664V204.027C200.664 203.272 200.492 202.709 200.146 202.338C199.801 201.96 199.222 201.771 198.408 201.771C197.738 201.771 197.181 201.973 196.738 202.377C196.296 202.774 196.038 203.311 195.967 203.988V211H194.15V204.076C194.15 202.54 193.398 201.771 191.895 201.771C190.71 201.771 189.899 202.276 189.463 203.285V211H187.656V200.434H189.365ZM211.729 211C211.624 210.792 211.54 210.421 211.475 209.887C210.635 210.759 209.632 211.195 208.467 211.195C207.425 211.195 206.569 210.902 205.898 210.316C205.234 209.724 204.902 208.975 204.902 208.07C204.902 206.97 205.319 206.117 206.152 205.512C206.992 204.9 208.171 204.594 209.688 204.594H211.445V203.764C211.445 203.132 211.257 202.631 210.879 202.26C210.501 201.882 209.945 201.693 209.209 201.693C208.564 201.693 208.024 201.856 207.588 202.182C207.152 202.507 206.934 202.901 206.934 203.363H205.117C205.117 202.836 205.303 202.328 205.674 201.84C206.051 201.345 206.559 200.954 207.197 200.668C207.842 200.382 208.548 200.238 209.316 200.238C210.534 200.238 211.488 200.544 212.178 201.156C212.868 201.762 213.226 202.598 213.252 203.666V208.529C213.252 209.499 213.376 210.271 213.623 210.844V211H211.729ZM208.73 209.623C209.297 209.623 209.834 209.477 210.342 209.184C210.85 208.891 211.217 208.51 211.445 208.041V205.873H210.029C207.816 205.873 206.709 206.521 206.709 207.816C206.709 208.383 206.898 208.826 207.275 209.145C207.653 209.464 208.138 209.623 208.73 209.623ZM220.322 209.721C220.967 209.721 221.53 209.525 222.012 209.135C222.493 208.744 222.76 208.256 222.812 207.67H224.521C224.489 208.275 224.281 208.852 223.896 209.398C223.512 209.945 222.998 210.382 222.354 210.707C221.715 211.033 221.038 211.195 220.322 211.195C218.883 211.195 217.738 210.717 216.885 209.76C216.038 208.796 215.615 207.481 215.615 205.814V205.512C215.615 204.483 215.804 203.568 216.182 202.768C216.559 201.967 217.1 201.345 217.803 200.902C218.512 200.46 219.349 200.238 220.312 200.238C221.497 200.238 222.48 200.593 223.262 201.303C224.049 202.012 224.469 202.934 224.521 204.066H222.812C222.76 203.383 222.5 202.823 222.031 202.387C221.569 201.944 220.996 201.723 220.312 201.723C219.395 201.723 218.682 202.055 218.174 202.719C217.673 203.376 217.422 204.33 217.422 205.58V205.922C217.422 207.139 217.673 208.077 218.174 208.734C218.675 209.392 219.391 209.721 220.322 209.721ZM228.359 201.713C229.16 200.73 230.202 200.238 231.484 200.238C233.717 200.238 234.844 201.498 234.863 204.018V211H233.057V204.008C233.05 203.246 232.874 202.683 232.529 202.318C232.191 201.954 231.66 201.771 230.938 201.771C230.352 201.771 229.837 201.928 229.395 202.24C228.952 202.553 228.607 202.963 228.359 203.471V211H226.553V196H228.359V201.713ZM239.531 211H237.725V200.434H239.531V211ZM237.578 197.631C237.578 197.338 237.666 197.09 237.842 196.889C238.024 196.687 238.291 196.586 238.643 196.586C238.994 196.586 239.261 196.687 239.443 196.889C239.626 197.09 239.717 197.338 239.717 197.631C239.717 197.924 239.626 198.168 239.443 198.363C239.261 198.559 238.994 198.656 238.643 198.656C238.291 198.656 238.024 198.559 237.842 198.363C237.666 198.168 237.578 197.924 237.578 197.631ZM244.141 200.434L244.199 201.762C245.007 200.746 246.061 200.238 247.363 200.238C249.596 200.238 250.723 201.498 250.742 204.018V211H248.936V204.008C248.929 203.246 248.753 202.683 248.408 202.318C248.07 201.954 247.539 201.771 246.816 201.771C246.23 201.771 245.716 201.928 245.273 202.24C244.831 202.553 244.486 202.963 244.238 203.471V211H242.432V200.434H244.141ZM257.852 211.195C256.419 211.195 255.254 210.727 254.355 209.789C253.457 208.845 253.008 207.585 253.008 206.01V205.678C253.008 204.63 253.206 203.695 253.604 202.875C254.007 202.048 254.567 201.404 255.283 200.941C256.006 200.473 256.787 200.238 257.627 200.238C259.001 200.238 260.068 200.691 260.83 201.596C261.592 202.501 261.973 203.796 261.973 205.482V206.234H254.814C254.84 207.276 255.143 208.119 255.723 208.764C256.309 209.402 257.051 209.721 257.949 209.721C258.587 209.721 259.128 209.59 259.57 209.33C260.013 209.07 260.4 208.725 260.732 208.295L261.836 209.154C260.951 210.515 259.622 211.195 257.852 211.195ZM257.627 201.723C256.898 201.723 256.286 201.99 255.791 202.523C255.296 203.051 254.99 203.793 254.873 204.75H260.166V204.613C260.114 203.695 259.867 202.986 259.424 202.484C258.981 201.977 258.382 201.723 257.627 201.723ZM27.9395 237.721C28.584 237.721 29.1471 237.525 29.6289 237.135C30.1107 236.744 30.3776 236.256 30.4297 235.67H32.1387C32.1061 236.275 31.8978 236.852 31.5137 237.398C31.1296 237.945 30.6152 238.382 29.9707 238.707C29.3327 239.033 28.6556 239.195 27.9395 239.195C26.5007 239.195 25.3548 238.717 24.502 237.76C23.6556 236.796 23.2324 235.481 23.2324 233.814V233.512C23.2324 232.483 23.4212 231.568 23.7988 230.768C24.1764 229.967 24.7168 229.345 25.4199 228.902C26.1296 228.46 26.9661 228.238 27.9297 228.238C29.1146 228.238 30.0977 228.593 30.8789 229.303C31.6667 230.012 32.0866 230.934 32.1387 232.066H30.4297C30.3776 231.383 30.1172 230.823 29.6484 230.387C29.1862 229.944 28.6133 229.723 27.9297 229.723C27.0117 229.723 26.2988 230.055 25.791 230.719C25.2897 231.376 25.0391 232.33 25.0391 233.58V233.922C25.0391 235.139 25.2897 236.077 25.791 236.734C26.2923 237.392 27.0085 237.721 27.9395 237.721ZM33.6914 233.619C33.6914 232.584 33.8932 231.653 34.2969 230.826C34.707 229.999 35.2734 229.361 35.9961 228.912C36.7253 228.463 37.5553 228.238 38.4863 228.238C39.9251 228.238 41.0872 228.736 41.9727 229.732C42.8646 230.729 43.3105 232.053 43.3105 233.707V233.834C43.3105 234.863 43.112 235.787 42.7148 236.607C42.3242 237.421 41.7611 238.056 41.0254 238.512C40.2962 238.967 39.4564 239.195 38.5059 239.195C37.0736 239.195 35.9115 238.697 35.0195 237.701C34.1341 236.705 33.6914 235.387 33.6914 233.746V233.619ZM35.5078 233.834C35.5078 235.006 35.778 235.947 36.3184 236.656C36.8652 237.366 37.5944 237.721 38.5059 237.721C39.4238 237.721 40.153 237.363 40.6934 236.646C41.2337 235.924 41.5039 234.915 41.5039 233.619C41.5039 232.46 41.2272 231.523 40.6738 230.807C40.127 230.084 39.3978 229.723 38.4863 229.723C37.5944 229.723 36.875 230.077 36.3281 230.787C35.7812 231.497 35.5078 232.512 35.5078 233.834ZM47.2852 228.434L47.3438 229.762C48.151 228.746 49.2057 228.238 50.5078 228.238C52.7409 228.238 53.8672 229.498 53.8867 232.018V239H52.0801V232.008C52.0736 231.246 51.8978 230.683 51.5527 230.318C51.2142 229.954 50.6836 229.771 49.9609 229.771C49.375 229.771 48.8607 229.928 48.418 230.24C47.9753 230.553 47.6302 230.963 47.3828 231.471V239H45.5762V228.434H47.2852ZM62.7637 236.197C62.7637 235.709 62.5781 235.331 62.207 235.064C61.8424 234.791 61.2012 234.557 60.2832 234.361C59.3717 234.166 58.6458 233.932 58.1055 233.658C57.5716 233.385 57.1745 233.059 56.9141 232.682C56.6602 232.304 56.5332 231.855 56.5332 231.334C56.5332 230.468 56.8978 229.736 57.627 229.137C58.3626 228.538 59.3001 228.238 60.4395 228.238C61.6374 228.238 62.6074 228.548 63.3496 229.166C64.0983 229.785 64.4727 230.576 64.4727 231.539H62.6562C62.6562 231.044 62.4447 230.618 62.0215 230.26C61.6048 229.902 61.0775 229.723 60.4395 229.723C59.7819 229.723 59.2676 229.866 58.8965 230.152C58.5254 230.439 58.3398 230.813 58.3398 231.275C58.3398 231.712 58.5124 232.04 58.8574 232.262C59.2025 232.483 59.8242 232.695 60.7227 232.896C61.6276 233.098 62.36 233.339 62.9199 233.619C63.4798 233.899 63.8932 234.238 64.1602 234.635C64.4336 235.025 64.5703 235.504 64.5703 236.07C64.5703 237.014 64.1927 237.773 63.4375 238.346C62.6823 238.912 61.7025 239.195 60.498 239.195C59.6517 239.195 58.903 239.046 58.252 238.746C57.6009 238.447 57.0898 238.03 56.7188 237.496C56.3542 236.956 56.1719 236.373 56.1719 235.748H57.9785C58.0111 236.354 58.252 236.835 58.7012 237.193C59.1569 237.545 59.7559 237.721 60.498 237.721C61.1816 237.721 61.7285 237.584 62.1387 237.311C62.5553 237.031 62.7637 236.66 62.7637 236.197ZM68.8867 239H67.0801V228.434H68.8867V239ZM66.9336 225.631C66.9336 225.338 67.0215 225.09 67.1973 224.889C67.3796 224.687 67.6465 224.586 67.998 224.586C68.3496 224.586 68.6165 224.687 68.7988 224.889C68.9811 225.09 69.0723 225.338 69.0723 225.631C69.0723 225.924 68.9811 226.168 68.7988 226.363C68.6165 226.559 68.3496 226.656 67.998 226.656C67.6465 226.656 67.3796 226.559 67.1973 226.363C67.0215 226.168 66.9336 225.924 66.9336 225.631ZM77.9395 236.197C77.9395 235.709 77.7539 235.331 77.3828 235.064C77.0182 234.791 76.377 234.557 75.459 234.361C74.5475 234.166 73.8216 233.932 73.2812 233.658C72.7474 233.385 72.3503 233.059 72.0898 232.682C71.8359 232.304 71.709 231.855 71.709 231.334C71.709 230.468 72.0736 229.736 72.8027 229.137C73.5384 228.538 74.4759 228.238 75.6152 228.238C76.8132 228.238 77.7832 228.548 78.5254 229.166C79.2741 229.785 79.6484 230.576 79.6484 231.539H77.832C77.832 231.044 77.6204 230.618 77.1973 230.26C76.7806 229.902 76.2533 229.723 75.6152 229.723C74.9577 229.723 74.4434 229.866 74.0723 230.152C73.7012 230.439 73.5156 230.813 73.5156 231.275C73.5156 231.712 73.6882 232.04 74.0332 232.262C74.3783 232.483 75 232.695 75.8984 232.896C76.8034 233.098 77.5358 233.339 78.0957 233.619C78.6556 233.899 79.069 234.238 79.3359 234.635C79.6094 235.025 79.7461 235.504 79.7461 236.07C79.7461 237.014 79.3685 237.773 78.6133 238.346C77.8581 238.912 76.8783 239.195 75.6738 239.195C74.8275 239.195 74.0788 239.046 73.4277 238.746C72.7767 238.447 72.2656 238.03 71.8945 237.496C71.5299 236.956 71.3477 236.373 71.3477 235.748H73.1543C73.1868 236.354 73.4277 236.835 73.877 237.193C74.3327 237.545 74.9316 237.721 75.6738 237.721C76.3574 237.721 76.9043 237.584 77.3145 237.311C77.7311 237.031 77.9395 236.66 77.9395 236.197ZM84.5508 225.875V228.434H86.5234V229.83H84.5508V236.383C84.5508 236.806 84.6387 237.125 84.8145 237.34C84.9902 237.548 85.2897 237.652 85.7129 237.652C85.9212 237.652 86.2077 237.613 86.5723 237.535V239C86.097 239.13 85.6348 239.195 85.1855 239.195C84.3783 239.195 83.7695 238.951 83.3594 238.463C82.9492 237.975 82.7441 237.281 82.7441 236.383V229.83H80.8203V228.434H82.7441V225.875H84.5508ZM94.7949 236.197C94.7949 235.709 94.6094 235.331 94.2383 235.064C93.8737 234.791 93.2324 234.557 92.3145 234.361C91.403 234.166 90.6771 233.932 90.1367 233.658C89.6029 233.385 89.2057 233.059 88.9453 232.682C88.6914 232.304 88.5645 231.855 88.5645 231.334C88.5645 230.468 88.929 229.736 89.6582 229.137C90.3939 228.538 91.3314 228.238 92.4707 228.238C93.6686 228.238 94.6387 228.548 95.3809 229.166C96.1296 229.785 96.5039 230.576 96.5039 231.539H94.6875C94.6875 231.044 94.4759 230.618 94.0527 230.26C93.6361 229.902 93.1087 229.723 92.4707 229.723C91.8132 229.723 91.2988 229.866 90.9277 230.152C90.5566 230.439 90.3711 230.813 90.3711 231.275C90.3711 231.712 90.5436 232.04 90.8887 232.262C91.2337 232.483 91.8555 232.695 92.7539 232.896C93.6589 233.098 94.3913 233.339 94.9512 233.619C95.5111 233.899 95.9245 234.238 96.1914 234.635C96.4648 235.025 96.6016 235.504 96.6016 236.07C96.6016 237.014 96.224 237.773 95.4688 238.346C94.7135 238.912 93.7337 239.195 92.5293 239.195C91.6829 239.195 90.9342 239.046 90.2832 238.746C89.6322 238.447 89.1211 238.03 88.75 237.496C88.3854 236.956 88.2031 236.373 88.2031 235.748H90.0098C90.0423 236.354 90.2832 236.835 90.7324 237.193C91.1882 237.545 91.7871 237.721 92.5293 237.721C93.2129 237.721 93.7598 237.584 94.1699 237.311C94.5866 237.031 94.7949 236.66 94.7949 236.197ZM103.438 233.619C103.438 232.584 103.639 231.653 104.043 230.826C104.453 229.999 105.02 229.361 105.742 228.912C106.471 228.463 107.301 228.238 108.232 228.238C109.671 228.238 110.833 228.736 111.719 229.732C112.611 230.729 113.057 232.053 113.057 233.707V233.834C113.057 234.863 112.858 235.787 112.461 236.607C112.07 237.421 111.507 238.056 110.771 238.512C110.042 238.967 109.202 239.195 108.252 239.195C106.82 239.195 105.658 238.697 104.766 237.701C103.88 236.705 103.438 235.387 103.438 233.746V233.619ZM105.254 233.834C105.254 235.006 105.524 235.947 106.064 236.656C106.611 237.366 107.34 237.721 108.252 237.721C109.17 237.721 109.899 237.363 110.439 236.646C110.98 235.924 111.25 234.915 111.25 233.619C111.25 232.46 110.973 231.523 110.42 230.807C109.873 230.084 109.144 229.723 108.232 229.723C107.34 229.723 106.621 230.077 106.074 230.787C105.527 231.497 105.254 232.512 105.254 233.834ZM116.211 239V229.83H114.541V228.434H116.211V227.35C116.211 226.217 116.514 225.341 117.119 224.723C117.725 224.104 118.581 223.795 119.688 223.795C120.104 223.795 120.518 223.85 120.928 223.961L120.83 225.426C120.524 225.367 120.199 225.338 119.854 225.338C119.268 225.338 118.815 225.51 118.496 225.855C118.177 226.194 118.018 226.682 118.018 227.32V228.434H120.273V229.83H118.018V239H116.211ZM134.141 224.771V226.305H133.809C132.402 226.331 131.283 226.747 130.449 227.555C129.616 228.362 129.134 229.498 129.004 230.963C129.753 230.104 130.775 229.674 132.07 229.674C133.307 229.674 134.294 230.11 135.029 230.982C135.771 231.855 136.143 232.981 136.143 234.361C136.143 235.826 135.742 236.998 134.941 237.877C134.147 238.756 133.079 239.195 131.738 239.195C130.378 239.195 129.274 238.674 128.428 237.633C127.581 236.585 127.158 235.237 127.158 233.59V232.896C127.158 230.279 127.715 228.281 128.828 226.9C129.948 225.514 131.611 224.804 133.818 224.771H134.141ZM131.768 231.178C131.149 231.178 130.579 231.363 130.059 231.734C129.538 232.105 129.176 232.571 128.975 233.131V233.795C128.975 234.967 129.238 235.911 129.766 236.627C130.293 237.343 130.951 237.701 131.738 237.701C132.552 237.701 133.19 237.402 133.652 236.803C134.121 236.204 134.355 235.419 134.355 234.449C134.355 233.473 134.118 232.685 133.643 232.086C133.174 231.48 132.549 231.178 131.768 231.178ZM138.828 240.221H137.275L143.213 224.781H144.756L138.828 240.221ZM155.146 228.492C155.146 229.202 154.958 229.833 154.58 230.387C154.209 230.94 153.704 231.373 153.066 231.686C153.809 232.005 154.395 232.47 154.824 233.082C155.26 233.694 155.479 234.387 155.479 235.162C155.479 236.393 155.062 237.372 154.229 238.102C153.402 238.831 152.311 239.195 150.957 239.195C149.59 239.195 148.493 238.831 147.666 238.102C146.846 237.366 146.436 236.386 146.436 235.162C146.436 234.394 146.644 233.701 147.061 233.082C147.484 232.464 148.066 231.995 148.809 231.676C148.177 231.363 147.679 230.93 147.314 230.377C146.95 229.824 146.768 229.195 146.768 228.492C146.768 227.294 147.152 226.344 147.92 225.641C148.688 224.938 149.701 224.586 150.957 224.586C152.207 224.586 153.216 224.938 153.984 225.641C154.759 226.344 155.146 227.294 155.146 228.492ZM153.672 235.123C153.672 234.329 153.418 233.681 152.91 233.18C152.409 232.678 151.751 232.428 150.938 232.428C150.124 232.428 149.469 232.675 148.975 233.17C148.486 233.665 148.242 234.316 148.242 235.123C148.242 235.93 148.48 236.565 148.955 237.027C149.437 237.49 150.104 237.721 150.957 237.721C151.803 237.721 152.467 237.49 152.949 237.027C153.431 236.559 153.672 235.924 153.672 235.123ZM150.957 226.07C150.247 226.07 149.671 226.292 149.229 226.734C148.792 227.171 148.574 227.766 148.574 228.521C148.574 229.244 148.789 229.83 149.219 230.279C149.655 230.722 150.234 230.943 150.957 230.943C151.68 230.943 152.256 230.722 152.686 230.279C153.122 229.83 153.34 229.244 153.34 228.521C153.34 227.799 153.115 227.21 152.666 226.754C152.217 226.298 151.647 226.07 150.957 226.07ZM171.035 235.289H165.078L163.74 239H161.807L167.236 224.781H168.877L174.316 239H172.393L171.035 235.289ZM165.645 233.746H170.479L168.057 227.096L165.645 233.746ZM178.652 224.781L183.301 236.383L187.949 224.781H190.381V239H188.506V233.463L188.682 227.486L184.014 239H182.578L177.92 227.516L178.105 233.463V239H176.23V224.781H178.652ZM193.691 239V224.781H197.705C198.942 224.781 200.036 225.055 200.986 225.602C201.937 226.148 202.669 226.926 203.184 227.936C203.704 228.945 203.968 230.104 203.975 231.412V232.32C203.975 233.661 203.714 234.837 203.193 235.846C202.679 236.855 201.94 237.63 200.977 238.17C200.02 238.71 198.903 238.987 197.627 239H193.691ZM195.566 226.324V237.467H197.539C198.984 237.467 200.107 237.018 200.908 236.119C201.715 235.221 202.119 233.941 202.119 232.281V231.451C202.119 229.837 201.738 228.583 200.977 227.691C200.221 226.793 199.147 226.337 197.754 226.324H195.566ZM216.992 233.248H213.652V239H211.768V224.781H216.475C218.076 224.781 219.307 225.146 220.166 225.875C221.032 226.604 221.465 227.665 221.465 229.059C221.465 229.944 221.224 230.715 220.742 231.373C220.267 232.031 219.603 232.522 218.75 232.848L222.09 238.883V239H220.078L216.992 233.248ZM213.652 231.715H216.533C217.464 231.715 218.203 231.474 218.75 230.992C219.303 230.51 219.58 229.866 219.58 229.059C219.58 228.18 219.316 227.506 218.789 227.037C218.268 226.568 217.513 226.331 216.523 226.324H213.652V231.715ZM230.342 239C230.238 238.792 230.153 238.421 230.088 237.887C229.248 238.759 228.245 239.195 227.08 239.195C226.038 239.195 225.182 238.902 224.512 238.316C223.848 237.724 223.516 236.975 223.516 236.07C223.516 234.97 223.932 234.117 224.766 233.512C225.605 232.9 226.784 232.594 228.301 232.594H230.059V231.764C230.059 231.132 229.87 230.631 229.492 230.26C229.115 229.882 228.558 229.693 227.822 229.693C227.178 229.693 226.637 229.856 226.201 230.182C225.765 230.507 225.547 230.901 225.547 231.363H223.73C223.73 230.836 223.916 230.328 224.287 229.84C224.665 229.345 225.173 228.954 225.811 228.668C226.455 228.382 227.161 228.238 227.93 228.238C229.147 228.238 230.101 228.544 230.791 229.156C231.481 229.762 231.839 230.598 231.865 231.666V236.529C231.865 237.499 231.989 238.271 232.236 238.844V239H230.342ZM227.344 237.623C227.91 237.623 228.447 237.477 228.955 237.184C229.463 236.891 229.831 236.51 230.059 236.041V233.873H228.643C226.429 233.873 225.322 234.521 225.322 235.816C225.322 236.383 225.511 236.826 225.889 237.145C226.266 237.464 226.751 237.623 227.344 237.623ZM234.258 233.629C234.258 232.008 234.642 230.706 235.41 229.723C236.178 228.733 237.184 228.238 238.428 228.238C239.665 228.238 240.645 228.661 241.367 229.508V224H243.174V239H241.514L241.426 237.867C240.703 238.753 239.697 239.195 238.408 239.195C237.184 239.195 236.185 238.694 235.41 237.691C234.642 236.689 234.258 235.38 234.258 233.766V233.629ZM236.064 233.834C236.064 235.032 236.312 235.969 236.807 236.646C237.301 237.324 237.985 237.662 238.857 237.662C240.003 237.662 240.84 237.148 241.367 236.119V231.266C240.827 230.27 239.997 229.771 238.877 229.771C237.992 229.771 237.301 230.113 236.807 230.797C236.312 231.48 236.064 232.493 236.064 233.834ZM250.371 239.195C248.939 239.195 247.773 238.727 246.875 237.789C245.977 236.845 245.527 235.585 245.527 234.01V233.678C245.527 232.63 245.726 231.695 246.123 230.875C246.527 230.048 247.087 229.404 247.803 228.941C248.525 228.473 249.307 228.238 250.146 228.238C251.52 228.238 252.588 228.691 253.35 229.596C254.111 230.501 254.492 231.796 254.492 233.482V234.234H247.334C247.36 235.276 247.663 236.119 248.242 236.764C248.828 237.402 249.57 237.721 250.469 237.721C251.107 237.721 251.647 237.59 252.09 237.33C252.533 237.07 252.92 236.725 253.252 236.295L254.355 237.154C253.47 238.515 252.142 239.195 250.371 239.195ZM250.146 229.723C249.417 229.723 248.805 229.99 248.311 230.523C247.816 231.051 247.51 231.793 247.393 232.75H252.686V232.613C252.633 231.695 252.386 230.986 251.943 230.484C251.501 229.977 250.902 229.723 250.146 229.723ZM256.113 233.619C256.113 232.584 256.315 231.653 256.719 230.826C257.129 229.999 257.695 229.361 258.418 228.912C259.147 228.463 259.977 228.238 260.908 228.238C262.347 228.238 263.509 228.736 264.395 229.732C265.286 230.729 265.732 232.053 265.732 233.707V233.834C265.732 234.863 265.534 235.787 265.137 236.607C264.746 237.421 264.183 238.056 263.447 238.512C262.718 238.967 261.878 239.195 260.928 239.195C259.495 239.195 258.333 238.697 257.441 237.701C256.556 236.705 256.113 235.387 256.113 233.746V233.619ZM257.93 233.834C257.93 235.006 258.2 235.947 258.74 236.656C259.287 237.366 260.016 237.721 260.928 237.721C261.846 237.721 262.575 237.363 263.115 236.646C263.656 235.924 263.926 234.915 263.926 233.619C263.926 232.46 263.649 231.523 263.096 230.807C262.549 230.084 261.82 229.723 260.908 229.723C260.016 229.723 259.297 230.077 258.75 230.787C258.203 231.497 257.93 232.512 257.93 233.834ZM269.707 228.434L269.766 229.762C270.573 228.746 271.628 228.238 272.93 228.238C275.163 228.238 276.289 229.498 276.309 232.018V239H274.502V232.008C274.495 231.246 274.32 230.683 273.975 230.318C273.636 229.954 273.105 229.771 272.383 229.771C271.797 229.771 271.283 229.928 270.84 230.24C270.397 230.553 270.052 230.963 269.805 231.471V239H267.998V228.434H269.707ZM50.5566 261.248H47.2168V267H45.332V252.781H50.0391C51.6406 252.781 52.8711 253.146 53.7305 253.875C54.5964 254.604 55.0293 255.665 55.0293 257.059C55.0293 257.944 54.7884 258.715 54.3066 259.373C53.8314 260.031 53.1673 260.522 52.3145 260.848L55.6543 266.883V267H53.6426L50.5566 261.248ZM47.2168 259.715H50.0977C51.0286 259.715 51.7676 259.474 52.3145 258.992C52.8678 258.51 53.1445 257.866 53.1445 257.059C53.1445 256.18 52.8809 255.506 52.3535 255.037C51.8327 254.568 51.0775 254.331 50.0879 254.324H47.2168V259.715ZM62.3047 258.23L65.7129 252.781H67.9199L63.4277 259.832L68.0273 267H65.8008L62.3047 261.453L58.7891 267H56.5723L61.1816 259.832L56.6797 252.781H58.877L62.3047 258.23ZM75.5273 259.871L76.25 252.781H83.5352V254.451H77.7832L77.3535 258.328C78.0501 257.918 78.8411 257.713 79.7266 257.713C81.0221 257.713 82.0508 258.143 82.8125 259.002C83.5742 259.855 83.9551 261.01 83.9551 262.469C83.9551 263.934 83.5579 265.089 82.7637 265.936C81.9759 266.775 80.8724 267.195 79.4531 267.195C78.1966 267.195 77.1712 266.847 76.377 266.15C75.5827 265.454 75.1302 264.49 75.0195 263.26H76.7285C76.8392 264.074 77.1289 264.689 77.5977 265.105C78.0664 265.516 78.6849 265.721 79.4531 265.721C80.293 265.721 80.9505 265.434 81.4258 264.861C81.9076 264.288 82.1484 263.497 82.1484 262.488C82.1484 261.538 81.888 260.776 81.3672 260.203C80.8529 259.624 80.166 259.334 79.3066 259.334C78.5189 259.334 77.9004 259.507 77.4512 259.852L76.9727 260.242L75.5273 259.871ZM95.1074 253.797L89.2188 267H87.3242L93.1934 254.266H85.498V252.781H95.1074V253.797ZM106.074 260.936C106.074 263.051 105.713 264.624 104.99 265.652C104.268 266.681 103.138 267.195 101.602 267.195C100.085 267.195 98.9616 266.694 98.2324 265.691C97.5033 264.682 97.1257 263.178 97.0996 261.18V258.768C97.0996 256.678 97.4609 255.125 98.1836 254.109C98.9062 253.094 100.039 252.586 101.582 252.586C103.112 252.586 104.238 253.077 104.961 254.061C105.684 255.037 106.055 256.548 106.074 258.592V260.936ZM104.268 258.465C104.268 256.935 104.053 255.822 103.623 255.125C103.193 254.422 102.513 254.07 101.582 254.07C100.658 254.07 99.9837 254.419 99.5605 255.115C99.1374 255.812 98.9193 256.883 98.9062 258.328V261.219C98.9062 262.755 99.1276 263.891 99.5703 264.627C100.02 265.356 100.697 265.721 101.602 265.721C102.493 265.721 103.154 265.376 103.584 264.686C104.02 263.995 104.248 262.908 104.268 261.424V258.465ZM108.936 268.221H107.383L113.32 252.781H114.863L108.936 268.221ZM117.461 259.871L118.184 252.781H125.469V254.451H119.717L119.287 258.328C119.984 257.918 120.775 257.713 121.66 257.713C122.956 257.713 123.984 258.143 124.746 259.002C125.508 259.855 125.889 261.01 125.889 262.469C125.889 263.934 125.492 265.089 124.697 265.936C123.91 266.775 122.806 267.195 121.387 267.195C120.13 267.195 119.105 266.847 118.311 266.15C117.516 265.454 117.064 264.49 116.953 263.26H118.662C118.773 264.074 119.062 264.689 119.531 265.105C120 265.516 120.618 265.721 121.387 265.721C122.227 265.721 122.884 265.434 123.359 264.861C123.841 264.288 124.082 263.497 124.082 262.488C124.082 261.538 123.822 260.776 123.301 260.203C122.786 259.624 122.1 259.334 121.24 259.334C120.452 259.334 119.834 259.507 119.385 259.852L118.906 260.242L117.461 259.871ZM137.041 253.797L131.152 267H129.258L135.127 254.266H127.432V252.781H137.041V253.797ZM148.008 260.936C148.008 263.051 147.646 264.624 146.924 265.652C146.201 266.681 145.072 267.195 143.535 267.195C142.018 267.195 140.895 266.694 140.166 265.691C139.437 264.682 139.059 263.178 139.033 261.18V258.768C139.033 256.678 139.395 255.125 140.117 254.109C140.84 253.094 141.973 252.586 143.516 252.586C145.046 252.586 146.172 253.077 146.895 254.061C147.617 255.037 147.988 256.548 148.008 258.592V260.936ZM146.201 258.465C146.201 256.935 145.986 255.822 145.557 255.125C145.127 254.422 144.447 254.07 143.516 254.07C142.591 254.07 141.917 254.419 141.494 255.115C141.071 255.812 140.853 256.883 140.84 258.328V261.219C140.84 262.755 141.061 263.891 141.504 264.627C141.953 265.356 142.63 265.721 143.535 265.721C144.427 265.721 145.088 265.376 145.518 264.686C145.954 263.995 146.182 262.908 146.201 261.424V258.465ZM159.238 260.936C159.238 263.051 158.877 264.624 158.154 265.652C157.432 266.681 156.302 267.195 154.766 267.195C153.249 267.195 152.126 266.694 151.396 265.691C150.667 264.682 150.29 263.178 150.264 261.18V258.768C150.264 256.678 150.625 255.125 151.348 254.109C152.07 253.094 153.203 252.586 154.746 252.586C156.276 252.586 157.402 253.077 158.125 254.061C158.848 255.037 159.219 256.548 159.238 258.592V260.936ZM157.432 258.465C157.432 256.935 157.217 255.822 156.787 255.125C156.357 254.422 155.677 254.07 154.746 254.07C153.822 254.07 153.148 254.419 152.725 255.115C152.301 255.812 152.083 256.883 152.07 258.328V261.219C152.07 262.755 152.292 263.891 152.734 264.627C153.184 265.356 153.861 265.721 154.766 265.721C155.658 265.721 156.318 265.376 156.748 264.686C157.184 263.995 157.412 262.908 157.432 261.424V258.465ZM176.055 264.51L178.086 256.434H179.893L176.816 267H175.352L172.783 258.992L170.283 267H168.818L165.752 256.434H167.549L169.629 264.344L172.09 256.434H173.545L176.055 264.51ZM183.701 267H181.895V256.434H183.701V267ZM181.748 253.631C181.748 253.338 181.836 253.09 182.012 252.889C182.194 252.687 182.461 252.586 182.812 252.586C183.164 252.586 183.431 252.687 183.613 252.889C183.796 253.09 183.887 253.338 183.887 253.631C183.887 253.924 183.796 254.168 183.613 254.363C183.431 254.559 183.164 254.656 182.812 254.656C182.461 254.656 182.194 254.559 182.012 254.363C181.836 254.168 181.748 253.924 181.748 253.631ZM189.053 253.875V256.434H191.025V257.83H189.053V264.383C189.053 264.806 189.141 265.125 189.316 265.34C189.492 265.548 189.792 265.652 190.215 265.652C190.423 265.652 190.71 265.613 191.074 265.535V267C190.599 267.13 190.137 267.195 189.688 267.195C188.88 267.195 188.271 266.951 187.861 266.463C187.451 265.975 187.246 265.281 187.246 264.383V257.83H185.322V256.434H187.246V253.875H189.053ZM194.951 257.713C195.752 256.73 196.794 256.238 198.076 256.238C200.309 256.238 201.436 257.498 201.455 260.018V267H199.648V260.008C199.642 259.246 199.466 258.683 199.121 258.318C198.783 257.954 198.252 257.771 197.529 257.771C196.943 257.771 196.429 257.928 195.986 258.24C195.544 258.553 195.199 258.963 194.951 259.471V267H193.145V252H194.951V257.713ZM214.873 267H213.057V254.959L209.414 256.297V254.656L214.59 252.713H214.873V267ZM227.256 252.771V254.305H226.924C225.518 254.331 224.398 254.747 223.564 255.555C222.731 256.362 222.249 257.498 222.119 258.963C222.868 258.104 223.89 257.674 225.186 257.674C226.423 257.674 227.409 258.11 228.145 258.982C228.887 259.855 229.258 260.981 229.258 262.361C229.258 263.826 228.857 264.998 228.057 265.877C227.262 266.756 226.195 267.195 224.854 267.195C223.493 267.195 222.389 266.674 221.543 265.633C220.697 264.585 220.273 263.237 220.273 261.59V260.896C220.273 258.279 220.83 256.281 221.943 254.9C223.063 253.514 224.727 252.804 226.934 252.771H227.256ZM224.883 259.178C224.264 259.178 223.695 259.363 223.174 259.734C222.653 260.105 222.292 260.571 222.09 261.131V261.795C222.09 262.967 222.354 263.911 222.881 264.627C223.408 265.343 224.066 265.701 224.854 265.701C225.667 265.701 226.305 265.402 226.768 264.803C227.236 264.204 227.471 263.419 227.471 262.449C227.471 261.473 227.233 260.685 226.758 260.086C226.289 259.48 225.664 259.178 224.883 259.178ZM242.363 265.135C241.882 265.825 241.208 266.342 240.342 266.688C239.482 267.026 238.48 267.195 237.334 267.195C236.175 267.195 235.146 266.925 234.248 266.385C233.35 265.838 232.653 265.063 232.158 264.061C231.67 263.058 231.419 261.896 231.406 260.574V259.334C231.406 257.192 231.904 255.532 232.9 254.354C233.903 253.175 235.309 252.586 237.119 252.586C238.604 252.586 239.798 252.967 240.703 253.729C241.608 254.484 242.161 255.558 242.363 256.951H240.488C240.137 255.07 239.017 254.129 237.129 254.129C235.872 254.129 234.919 254.572 234.268 255.457C233.623 256.336 233.298 257.612 233.291 259.285V260.447C233.291 262.042 233.656 263.312 234.385 264.256C235.114 265.193 236.1 265.662 237.344 265.662C238.047 265.662 238.662 265.584 239.189 265.428C239.717 265.271 240.153 265.008 240.498 264.637V261.443H237.207V259.92H242.363V265.135ZM245.498 267V252.781H250.146C251.689 252.781 252.848 253.1 253.623 253.738C254.404 254.376 254.795 255.32 254.795 256.57C254.795 257.234 254.606 257.824 254.229 258.338C253.851 258.846 253.337 259.24 252.686 259.52C253.454 259.734 254.059 260.145 254.502 260.75C254.951 261.349 255.176 262.065 255.176 262.898C255.176 264.174 254.762 265.177 253.936 265.906C253.109 266.635 251.94 267 250.43 267H245.498ZM247.373 260.35V265.467H250.469C251.341 265.467 252.028 265.242 252.529 264.793C253.037 264.337 253.291 263.712 253.291 262.918C253.291 261.206 252.36 260.35 250.498 260.35H247.373ZM247.373 258.846H250.205C251.025 258.846 251.68 258.641 252.168 258.23C252.663 257.82 252.91 257.264 252.91 256.561C252.91 255.779 252.682 255.213 252.227 254.861C251.771 254.503 251.077 254.324 250.146 254.324H247.373V258.846Z" fill="black"/>
<g clip-path="url(#clip0)">
<path d="M111.668 93.333H101.668C100.748 93.333 100.001 94.0797 100.001 94.9996C100.001 95.9195 100.748 96.6662 101.668 96.6662H111.668C112.586 96.6662 113.335 97.4145 113.335 98.3328V135C113.335 135.918 112.586 136.666 111.668 136.666H101.668C100.748 136.666 100.001 137.413 100.001 138.333C100.001 139.253 100.748 140 101.668 140H111.668C114.425 140 116.668 137.756 116.668 135V98.333C116.668 95.5764 114.425 93.333 111.668 93.333Z" fill="#FFAC22"/>
<path d="M121.668 103.333H135.001C136.946 103.333 140.251 105.813 143.168 108C146.824 110.743 150.28 113.333 153.334 113.333H163.334C165.866 113.333 167.123 114.482 167.156 114.512C167.481 114.837 167.908 115 168.334 115C168.761 115 169.188 114.837 169.513 114.512C170.164 113.86 170.164 112.807 169.513 112.155C169.293 111.935 167.246 110 163.334 110H153.334C151.389 110 148.084 107.52 145.168 105.333C141.511 102.59 138.056 100 135.001 100H121.668C120.748 100 120.001 100.747 120.001 101.667C120.001 102.587 120.748 103.333 121.668 103.333Z" fill="#FFAC22"/>
<path d="M141.668 96.6666H191.668C194.424 96.6666 196.668 94.4232 196.668 91.6666V55C196.668 52.2434 194.424 50 191.668 50H145.001C144.081 50 143.334 50.7467 143.334 51.6666V85C143.334 85.9199 144.081 86.6666 145.001 86.6666C145.921 86.6666 146.668 85.9199 146.668 85V53.3334H191.668C192.586 53.3334 193.334 54.0816 193.334 55V91.6666C193.334 92.585 192.586 93.3332 191.668 93.3332H141.668C140.749 93.3332 140.001 92.585 140.001 91.6666V45C140.001 43.9883 140.656 43.3334 141.668 43.3334H154.999C155.224 43.3701 155.808 44.025 156.121 44.3768C156.981 45.3434 158.158 46.6668 160.001 46.6668H188.334C189.254 46.6668 190.001 45.9201 190.001 45.0002C190.001 44.0803 189.254 43.3336 188.334 43.3336H160.001C159.654 43.3336 159.076 42.6836 158.611 42.1619C157.754 41.1982 156.688 40 155.001 40H141.668C138.818 40 136.668 42.15 136.668 45V91.6666C136.668 94.4232 138.911 96.6666 141.668 96.6666Z" fill="#FFAC22"/>
<path d="M199.108 110C198.218 108.458 196.779 107.355 195.059 106.895C193.338 106.432 191.541 106.668 190.104 107.505L170.923 116.842C167.941 118.333 164.931 118.333 158.334 118.333C151.884 118.333 142.041 116.705 141.943 116.69C141.033 116.537 140.174 117.153 140.024 118.058C139.873 118.967 140.486 119.827 141.393 119.977C141.808 120.046 151.608 121.667 158.334 121.667C165.254 121.667 168.728 121.667 172.396 119.832L191.668 110.447C192.439 110 193.338 109.883 194.196 110.113C195.056 110.345 195.776 110.897 196.219 111.667C197.139 113.258 196.593 115.302 194.954 116.248L172.419 130.273C172.371 130.305 167.566 133.333 156.668 133.333C147.221 133.333 132.623 125.29 132.413 125.175C132.263 125.102 128.648 123.333 121.668 123.333C120.748 123.333 120.001 124.08 120.001 125C120.001 125.92 120.748 126.667 121.668 126.667C127.729 126.667 130.853 128.125 130.859 128.125V128.123C131.488 128.473 146.356 136.667 156.668 136.667C168.701 136.667 174.038 133.2 174.214 133.082L196.668 119.107C199.849 117.268 200.944 113.183 199.108 110Z" fill="#FFAC22"/>
<path d="M108.334 129.167C108.334 127.789 107.213 126.667 105.834 126.667C104.456 126.667 103.334 127.789 103.334 129.167C103.334 130.545 104.456 131.667 105.834 131.667C107.213 131.667 108.334 130.545 108.334 129.167Z" fill="#FFAC22"/>
</g>
<defs>
<clipPath id="clip0">
<rect width="100" height="100" fill="white" transform="translate(100 40)"/>
</clipPath>
</defs>
</svg>
