<svg width="301" height="246" viewBox="0 0 301 246" fill="none" xmlns="http://www.w3.org/2000/svg">
<rect x="2" y="1.5" width="297" height="177" rx="14.5" stroke="white" stroke-width="3"/>
<path d="M131.438 211V196.781H135.451C136.688 196.781 137.782 197.055 138.732 197.602C139.683 198.148 140.415 198.926 140.93 199.936C141.451 200.945 141.714 202.104 141.721 203.412V204.32C141.721 205.661 141.46 206.837 140.939 207.846C140.425 208.855 139.686 209.63 138.723 210.17C137.766 210.71 136.649 210.987 135.373 211H131.438ZM133.312 198.324V209.467H135.285C136.73 209.467 137.854 209.018 138.654 208.119C139.462 207.221 139.865 205.941 139.865 204.281V203.451C139.865 201.837 139.484 200.583 138.723 199.691C137.967 198.793 136.893 198.337 135.5 198.324H133.312ZM150.803 211C150.699 210.792 150.614 210.421 150.549 209.887C149.709 210.759 148.706 211.195 147.541 211.195C146.499 211.195 145.643 210.902 144.973 210.316C144.309 209.724 143.977 208.975 143.977 208.07C143.977 206.97 144.393 206.117 145.227 205.512C146.066 204.9 147.245 204.594 148.762 204.594H150.52V203.764C150.52 203.132 150.331 202.631 149.953 202.26C149.576 201.882 149.019 201.693 148.283 201.693C147.639 201.693 147.098 201.856 146.662 202.182C146.226 202.507 146.008 202.901 146.008 203.363H144.191C144.191 202.836 144.377 202.328 144.748 201.84C145.126 201.345 145.633 200.954 146.271 200.668C146.916 200.382 147.622 200.238 148.391 200.238C149.608 200.238 150.562 200.544 151.252 201.156C151.942 201.762 152.3 202.598 152.326 203.666V208.529C152.326 209.499 152.45 210.271 152.697 210.844V211H150.803ZM147.805 209.623C148.371 209.623 148.908 209.477 149.416 209.184C149.924 208.891 150.292 208.51 150.52 208.041V205.873H149.104C146.89 205.873 145.783 206.521 145.783 207.816C145.783 208.383 145.972 208.826 146.35 209.145C146.727 209.464 147.212 209.623 147.805 209.623ZM157.609 197.875V200.434H159.582V201.83H157.609V208.383C157.609 208.806 157.697 209.125 157.873 209.34C158.049 209.548 158.348 209.652 158.771 209.652C158.98 209.652 159.266 209.613 159.631 209.535V211C159.156 211.13 158.693 211.195 158.244 211.195C157.437 211.195 156.828 210.951 156.418 210.463C156.008 209.975 155.803 209.281 155.803 208.383V201.83H153.879V200.434H155.803V197.875H157.609ZM168.225 211C168.12 210.792 168.036 210.421 167.971 209.887C167.131 210.759 166.128 211.195 164.963 211.195C163.921 211.195 163.065 210.902 162.395 210.316C161.73 209.724 161.398 208.975 161.398 208.07C161.398 206.97 161.815 206.117 162.648 205.512C163.488 204.9 164.667 204.594 166.184 204.594H167.941V203.764C167.941 203.132 167.753 202.631 167.375 202.26C166.997 201.882 166.441 201.693 165.705 201.693C165.061 201.693 164.52 201.856 164.084 202.182C163.648 202.507 163.43 202.901 163.43 203.363H161.613C161.613 202.836 161.799 202.328 162.17 201.84C162.548 201.345 163.055 200.954 163.693 200.668C164.338 200.382 165.044 200.238 165.812 200.238C167.03 200.238 167.984 200.544 168.674 201.156C169.364 201.762 169.722 202.598 169.748 203.666V208.529C169.748 209.499 169.872 210.271 170.119 210.844V211H168.225ZM165.227 209.623C165.793 209.623 166.33 209.477 166.838 209.184C167.346 208.891 167.714 208.51 167.941 208.041V205.873H166.525C164.312 205.873 163.205 206.521 163.205 207.816C163.205 208.383 163.394 208.826 163.771 209.145C164.149 209.464 164.634 209.623 165.227 209.623ZM115.451 233.834C115.451 235.442 115.083 236.738 114.348 237.721C113.612 238.704 112.616 239.195 111.359 239.195C110.077 239.195 109.068 238.788 108.332 237.975V243.062H106.525V228.434H108.176L108.264 229.605C108.999 228.694 110.021 228.238 111.33 228.238C112.6 228.238 113.602 228.717 114.338 229.674C115.08 230.631 115.451 231.962 115.451 233.668V233.834ZM113.645 233.629C113.645 232.438 113.391 231.497 112.883 230.807C112.375 230.117 111.678 229.771 110.793 229.771C109.699 229.771 108.879 230.257 108.332 231.227V236.275C108.872 237.239 109.699 237.721 110.812 237.721C111.678 237.721 112.365 237.379 112.873 236.695C113.387 236.005 113.645 234.983 113.645 233.629ZM122.863 230.055C122.59 230.009 122.294 229.986 121.975 229.986C120.79 229.986 119.986 230.491 119.562 231.5V239H117.756V228.434H119.514L119.543 229.654C120.135 228.71 120.975 228.238 122.062 228.238C122.414 228.238 122.681 228.284 122.863 228.375V230.055ZM123.859 233.619C123.859 232.584 124.061 231.653 124.465 230.826C124.875 229.999 125.441 229.361 126.164 228.912C126.893 228.463 127.723 228.238 128.654 228.238C130.093 228.238 131.255 228.736 132.141 229.732C133.033 230.729 133.479 232.053 133.479 233.707V233.834C133.479 234.863 133.28 235.787 132.883 236.607C132.492 237.421 131.929 238.056 131.193 238.512C130.464 238.967 129.624 239.195 128.674 239.195C127.242 239.195 126.079 238.697 125.188 237.701C124.302 236.705 123.859 235.387 123.859 233.746V233.619ZM125.676 233.834C125.676 235.006 125.946 235.947 126.486 236.656C127.033 237.366 127.762 237.721 128.674 237.721C129.592 237.721 130.321 237.363 130.861 236.646C131.402 235.924 131.672 234.915 131.672 233.619C131.672 232.46 131.395 231.523 130.842 230.807C130.295 230.084 129.566 229.723 128.654 229.723C127.762 229.723 127.043 230.077 126.496 230.787C125.949 231.497 125.676 232.512 125.676 233.834ZM138.195 225.875V228.434H140.168V229.83H138.195V236.383C138.195 236.806 138.283 237.125 138.459 237.34C138.635 237.548 138.934 237.652 139.357 237.652C139.566 237.652 139.852 237.613 140.217 237.535V239C139.742 239.13 139.279 239.195 138.83 239.195C138.023 239.195 137.414 238.951 137.004 238.463C136.594 237.975 136.389 237.281 136.389 236.383V229.83H134.465V228.434H136.389V225.875H138.195ZM146.672 239.195C145.24 239.195 144.074 238.727 143.176 237.789C142.277 236.845 141.828 235.585 141.828 234.01V233.678C141.828 232.63 142.027 231.695 142.424 230.875C142.827 230.048 143.387 229.404 144.104 228.941C144.826 228.473 145.607 228.238 146.447 228.238C147.821 228.238 148.889 228.691 149.65 229.596C150.412 230.501 150.793 231.796 150.793 233.482V234.234H143.635C143.661 235.276 143.964 236.119 144.543 236.764C145.129 237.402 145.871 237.721 146.77 237.721C147.408 237.721 147.948 237.59 148.391 237.33C148.833 237.07 149.221 236.725 149.553 236.295L150.656 237.154C149.771 238.515 148.443 239.195 146.672 239.195ZM146.447 229.723C145.718 229.723 145.106 229.99 144.611 230.523C144.117 231.051 143.811 231.793 143.693 232.75H148.986V232.613C148.934 231.695 148.687 230.986 148.244 230.484C147.801 229.977 147.202 229.723 146.447 229.723ZM157.131 237.721C157.775 237.721 158.339 237.525 158.82 237.135C159.302 236.744 159.569 236.256 159.621 235.67H161.33C161.298 236.275 161.089 236.852 160.705 237.398C160.321 237.945 159.807 238.382 159.162 238.707C158.524 239.033 157.847 239.195 157.131 239.195C155.692 239.195 154.546 238.717 153.693 237.76C152.847 236.796 152.424 235.481 152.424 233.814V233.512C152.424 232.483 152.613 231.568 152.99 230.768C153.368 229.967 153.908 229.345 154.611 228.902C155.321 228.46 156.158 228.238 157.121 228.238C158.306 228.238 159.289 228.593 160.07 229.303C160.858 230.012 161.278 230.934 161.33 232.066H159.621C159.569 231.383 159.309 230.823 158.84 230.387C158.378 229.944 157.805 229.723 157.121 229.723C156.203 229.723 155.49 230.055 154.982 230.719C154.481 231.376 154.23 232.33 154.23 233.58V233.922C154.23 235.139 154.481 236.077 154.982 236.734C155.484 237.392 156.2 237.721 157.131 237.721ZM165.812 225.875V228.434H167.785V229.83H165.812V236.383C165.812 236.806 165.9 237.125 166.076 237.34C166.252 237.548 166.551 237.652 166.975 237.652C167.183 237.652 167.469 237.613 167.834 237.535V239C167.359 239.13 166.896 239.195 166.447 239.195C165.64 239.195 165.031 238.951 164.621 238.463C164.211 237.975 164.006 237.281 164.006 236.383V229.83H162.082V228.434H164.006V225.875H165.812ZM171.867 239H170.061V228.434H171.867V239ZM169.914 225.631C169.914 225.338 170.002 225.09 170.178 224.889C170.36 224.687 170.627 224.586 170.979 224.586C171.33 224.586 171.597 224.687 171.779 224.889C171.962 225.09 172.053 225.338 172.053 225.631C172.053 225.924 171.962 226.168 171.779 226.363C171.597 226.559 171.33 226.656 170.979 226.656C170.627 226.656 170.36 226.559 170.178 226.363C170.002 226.168 169.914 225.924 169.914 225.631ZM174.289 233.619C174.289 232.584 174.491 231.653 174.895 230.826C175.305 229.999 175.871 229.361 176.594 228.912C177.323 228.463 178.153 228.238 179.084 228.238C180.523 228.238 181.685 228.736 182.57 229.732C183.462 230.729 183.908 232.053 183.908 233.707V233.834C183.908 234.863 183.71 235.787 183.312 236.607C182.922 237.421 182.359 238.056 181.623 238.512C180.894 238.967 180.054 239.195 179.104 239.195C177.671 239.195 176.509 238.697 175.617 237.701C174.732 236.705 174.289 235.387 174.289 233.746V233.619ZM176.105 233.834C176.105 235.006 176.376 235.947 176.916 236.656C177.463 237.366 178.192 237.721 179.104 237.721C180.021 237.721 180.751 237.363 181.291 236.646C181.831 235.924 182.102 234.915 182.102 233.619C182.102 232.46 181.825 231.523 181.271 230.807C180.725 230.084 179.995 229.723 179.084 229.723C178.192 229.723 177.473 230.077 176.926 230.787C176.379 231.497 176.105 232.512 176.105 233.834ZM187.883 228.434L187.941 229.762C188.749 228.746 189.803 228.238 191.105 228.238C193.339 228.238 194.465 229.498 194.484 232.018V239H192.678V232.008C192.671 231.246 192.495 230.683 192.15 230.318C191.812 229.954 191.281 229.771 190.559 229.771C189.973 229.771 189.458 229.928 189.016 230.24C188.573 230.553 188.228 230.963 187.98 231.471V239H186.174V228.434H187.883Z" fill="black"/>
<path d="M191.667 40H108.333C104.05 40 100 44.05 100 48.3334V61.6668C100 62.5867 100.747 63.3334 101.667 63.3334C102.587 63.3334 103.333 62.5867 103.333 61.6668V48.3334C103.333 45.9033 105.903 43.3334 108.333 43.3334H191.667C194.097 43.3334 196.667 45.9033 196.667 48.3334V103.333C196.667 104.253 197.413 105 198.333 105C199.253 105 200 104.253 200 103.333V48.3334C200 44.05 195.95 40 191.667 40Z" fill="#FFAC22"/>
<path d="M183.334 55C183.334 52.2434 181.09 50 178.334 50C175.577 50 173.334 52.2434 173.334 55C173.334 57.7566 175.577 60 178.334 60C181.09 60 183.334 57.7566 183.334 55ZM176.667 55C176.667 54.0816 177.415 53.3334 178.333 53.3334C179.252 53.3334 180 54.0816 180 55C180 55.9184 179.252 56.6666 178.333 56.6666C177.415 56.6666 176.667 55.9184 176.667 55Z" fill="#FFAC22"/>
<path d="M170 55C170 52.2434 167.756 50 165 50C162.243 50 160 52.2434 160 55C160 57.7566 162.243 60 165 60C167.756 60 170 57.7566 170 55ZM163.333 55C163.333 54.0816 164.081 53.3334 165 53.3334C165.918 53.3334 166.666 54.0816 166.666 55C166.666 55.9184 165.918 56.6666 165 56.6666C164.081 56.6666 163.333 55.9184 163.333 55Z" fill="#FFAC22"/>
<path d="M148.333 56.6662C149.253 56.6662 150 55.9195 150 54.9996C150 54.0797 149.253 53.333 148.333 53.333H118.333C117.414 53.333 116.667 54.0797 116.667 54.9996C116.667 55.9195 117.414 56.6662 118.333 56.6662H148.333Z" fill="#FFAC22"/>
<path d="M101.667 90.0002C102.587 90.0002 103.333 89.2535 103.333 88.3336V70.0002H191.667C192.587 70.0002 193.333 69.2535 193.333 68.3336C193.333 67.4137 192.587 66.667 191.667 66.667H101.667C100.747 66.667 100 67.4137 100 68.3336V88.3336C100 89.2535 100.747 90.0002 101.667 90.0002Z" fill="#FFAC22"/>
<path d="M155 120H108.333C105.903 120 103.333 117.43 103.333 115V96.6662H165C165.92 96.6662 166.667 95.9195 166.667 94.9996C166.667 94.0797 165.92 93.333 165 93.333H101.667C100.747 93.333 100 94.0797 100 94.9996V115C100 119.283 104.05 123.333 108.333 123.333H155C155.92 123.333 156.667 122.586 156.667 121.666C156.667 120.746 155.92 120 155 120Z" fill="#FFAC22"/>
<path d="M118.333 80C117.414 80 116.667 80.7467 116.667 81.6666C116.667 82.5865 117.414 83.3332 118.333 83.3332H148.333C149.253 83.3332 150 82.5865 150 81.6666C150 80.7467 149.253 80 148.333 80H118.333Z" fill="#FFAC22"/>
<path d="M191.666 106.667H190V100C190 94.485 185.515 90 180 90C174.485 90 170 94.485 170 100V106.667H168.333C163.738 106.667 160 110.405 160 115V131.667C160 136.262 163.738 140 168.333 140H191.667C196.262 140 200 136.262 200 131.667V115C200 110.405 196.262 106.667 191.666 106.667ZM173.333 100C173.333 96.3232 176.323 93.3334 180 93.3334C183.677 93.3334 186.666 96.3234 186.666 100V106.667H173.333V100H173.333ZM196.666 131.667C196.666 134.423 194.423 136.667 191.666 136.667H168.333C165.577 136.667 163.333 134.423 163.333 131.667V115C163.333 112.243 165.577 110 168.333 110H191.667C194.423 110 196.667 112.243 196.667 115V131.667H196.666Z" fill="#FFAC22"/>
<path d="M160 81.667C160 84.4236 162.243 86.667 165 86.667C167.756 86.667 170 84.4236 170 81.667C170 78.9103 167.756 76.667 165 76.667C162.243 76.667 160 78.9103 160 81.667ZM166.666 81.667C166.666 82.5854 165.918 83.3336 165 83.3336C164.081 83.3336 163.333 82.5854 163.333 81.667C163.333 80.7486 164.081 80.0004 165 80.0004C165.918 80.0004 166.666 80.7486 166.666 81.667Z" fill="#FFAC22"/>
<path d="M118.333 106.667C117.414 106.667 116.667 107.414 116.667 108.334C116.667 109.254 117.414 110 118.333 110H148.333C149.253 110 150 109.254 150 108.334C150 107.414 149.253 106.667 148.333 106.667H118.333Z" fill="#FFAC22"/>
<path d="M173.334 81.667C173.334 84.4236 175.577 86.667 178.334 86.667C181.09 86.667 183.334 84.4236 183.334 81.667C183.334 78.9103 181.09 76.667 178.334 76.667C175.577 76.667 173.334 78.9103 173.334 81.667ZM180 81.667C180 82.5854 179.252 83.3336 178.334 83.3336C177.415 83.3336 176.667 82.5854 176.667 81.667C176.667 80.7486 177.415 80.0004 178.334 80.0004C179.252 80.0004 180 80.7486 180 81.667Z" fill="#FFAC22"/>
<path d="M180 118.333C178.162 118.333 176.666 119.828 176.666 121.666C176.666 122.895 177.341 123.958 178.333 124.536V128.333C178.333 129.253 179.08 130 180 130C180.92 130 181.666 129.253 181.666 128.333V124.536C182.658 123.958 183.333 122.895 183.333 121.666C183.333 119.828 181.838 118.333 180 118.333Z" fill="#FFAC22"/>
</svg>
