<svg width="301" height="246" viewBox="0 0 301 246" fill="none" xmlns="http://www.w3.org/2000/svg">
<rect x="2" y="1.5" width="297" height="177" rx="14.5" stroke="white" stroke-width="3"/>
<path d="M45.8027 198.324H41.2324V211H39.3672V198.324H34.8066V196.781H45.8027V198.324ZM49.4355 201.713C50.2363 200.73 51.278 200.238 52.5605 200.238C54.7936 200.238 55.9199 201.498 55.9395 204.018V211H54.1328V204.008C54.1263 203.246 53.9505 202.683 53.6055 202.318C53.2669 201.954 52.7363 201.771 52.0137 201.771C51.4277 201.771 50.9134 201.928 50.4707 202.24C50.028 202.553 49.6829 202.963 49.4355 203.471V211H47.6289V196H49.4355V201.713ZM63.0293 211.195C61.597 211.195 60.4316 210.727 59.5332 209.789C58.6348 208.845 58.1855 207.585 58.1855 206.01V205.678C58.1855 204.63 58.3841 203.695 58.7812 202.875C59.1849 202.048 59.7448 201.404 60.4609 200.941C61.1836 200.473 61.9648 200.238 62.8047 200.238C64.1784 200.238 65.2461 200.691 66.0078 201.596C66.7695 202.501 67.1504 203.796 67.1504 205.482V206.234H59.9922C60.0182 207.276 60.321 208.119 60.9004 208.764C61.4863 209.402 62.2285 209.721 63.127 209.721C63.765 209.721 64.3053 209.59 64.748 209.33C65.1908 209.07 65.5781 208.725 65.9102 208.295L67.0137 209.154C66.1283 210.515 64.8001 211.195 63.0293 211.195ZM62.8047 201.723C62.0755 201.723 61.4635 201.99 60.9688 202.523C60.474 203.051 60.168 203.793 60.0508 204.75H65.3438V204.613C65.2917 203.695 65.0443 202.986 64.6016 202.484C64.1589 201.977 63.5599 201.723 62.8047 201.723ZM78.4492 209.721C79.0938 209.721 79.6569 209.525 80.1387 209.135C80.6204 208.744 80.8874 208.256 80.9395 207.67H82.6484C82.6159 208.275 82.4076 208.852 82.0234 209.398C81.6393 209.945 81.125 210.382 80.4805 210.707C79.8424 211.033 79.1654 211.195 78.4492 211.195C77.0104 211.195 75.8646 210.717 75.0117 209.76C74.1654 208.796 73.7422 207.481 73.7422 205.814V205.512C73.7422 204.483 73.931 203.568 74.3086 202.768C74.6862 201.967 75.2266 201.345 75.9297 200.902C76.6393 200.46 77.4759 200.238 78.4395 200.238C79.6243 200.238 80.6074 200.593 81.3887 201.303C82.1764 202.012 82.5964 202.934 82.6484 204.066H80.9395C80.8874 203.383 80.627 202.823 80.1582 202.387C79.696 201.944 79.123 201.723 78.4395 201.723C77.5215 201.723 76.8086 202.055 76.3008 202.719C75.7995 203.376 75.5488 204.33 75.5488 205.58V205.922C75.5488 207.139 75.7995 208.077 76.3008 208.734C76.8021 209.392 77.5182 209.721 78.4492 209.721ZM84.2012 205.619C84.2012 204.584 84.403 203.653 84.8066 202.826C85.2168 201.999 85.7832 201.361 86.5059 200.912C87.235 200.463 88.0651 200.238 88.9961 200.238C90.4349 200.238 91.597 200.736 92.4824 201.732C93.3743 202.729 93.8203 204.053 93.8203 205.707V205.834C93.8203 206.863 93.6217 207.787 93.2246 208.607C92.834 209.421 92.2708 210.056 91.5352 210.512C90.806 210.967 89.9661 211.195 89.0156 211.195C87.5833 211.195 86.4212 210.697 85.5293 209.701C84.6439 208.705 84.2012 207.387 84.2012 205.746V205.619ZM86.0176 205.834C86.0176 207.006 86.2878 207.947 86.8281 208.656C87.375 209.366 88.1042 209.721 89.0156 209.721C89.9336 209.721 90.6628 209.363 91.2031 208.646C91.7435 207.924 92.0137 206.915 92.0137 205.619C92.0137 204.46 91.737 203.523 91.1836 202.807C90.6367 202.084 89.9076 201.723 88.9961 201.723C88.1042 201.723 87.3848 202.077 86.8379 202.787C86.291 203.497 86.0176 204.512 86.0176 205.834ZM97.7852 200.434L97.834 201.605C98.6087 200.694 99.6536 200.238 100.969 200.238C102.447 200.238 103.452 200.805 103.986 201.938C104.338 201.43 104.794 201.02 105.354 200.707C105.92 200.395 106.587 200.238 107.355 200.238C109.673 200.238 110.852 201.465 110.891 203.92V211H109.084V204.027C109.084 203.272 108.911 202.709 108.566 202.338C108.221 201.96 107.642 201.771 106.828 201.771C106.158 201.771 105.601 201.973 105.158 202.377C104.715 202.774 104.458 203.311 104.387 203.988V211H102.57V204.076C102.57 202.54 101.818 201.771 100.314 201.771C99.1296 201.771 98.319 202.276 97.8828 203.285V211H96.0762V200.434H97.7852ZM114.514 211V201.83H112.844V200.434H114.514V199.35C114.514 198.217 114.816 197.341 115.422 196.723C116.027 196.104 116.883 195.795 117.99 195.795C118.407 195.795 118.82 195.85 119.23 195.961L119.133 197.426C118.827 197.367 118.501 197.338 118.156 197.338C117.57 197.338 117.118 197.51 116.799 197.855C116.48 198.194 116.32 198.682 116.32 199.32V200.434H118.576V201.83H116.32V211H114.514ZM120.1 205.619C120.1 204.584 120.301 203.653 120.705 202.826C121.115 201.999 121.682 201.361 122.404 200.912C123.133 200.463 123.964 200.238 124.895 200.238C126.333 200.238 127.495 200.736 128.381 201.732C129.273 202.729 129.719 204.053 129.719 205.707V205.834C129.719 206.863 129.52 207.787 129.123 208.607C128.732 209.421 128.169 210.056 127.434 210.512C126.704 210.967 125.865 211.195 124.914 211.195C123.482 211.195 122.32 210.697 121.428 209.701C120.542 208.705 120.1 207.387 120.1 205.746V205.619ZM121.916 205.834C121.916 207.006 122.186 207.947 122.727 208.656C123.273 209.366 124.003 209.721 124.914 209.721C125.832 209.721 126.561 209.363 127.102 208.646C127.642 207.924 127.912 206.915 127.912 205.619C127.912 204.46 127.635 203.523 127.082 202.807C126.535 202.084 125.806 201.723 124.895 201.723C124.003 201.723 123.283 202.077 122.736 202.787C122.189 203.497 121.916 204.512 121.916 205.834ZM137.092 202.055C136.818 202.009 136.522 201.986 136.203 201.986C135.018 201.986 134.214 202.491 133.791 203.5V211H131.984V200.434H133.742L133.771 201.654C134.364 200.71 135.204 200.238 136.291 200.238C136.643 200.238 136.91 200.284 137.092 200.375V202.055ZM141.701 197.875V200.434H143.674V201.83H141.701V208.383C141.701 208.806 141.789 209.125 141.965 209.34C142.141 209.548 142.44 209.652 142.863 209.652C143.072 209.652 143.358 209.613 143.723 209.535V211C143.247 211.13 142.785 211.195 142.336 211.195C141.529 211.195 140.92 210.951 140.51 210.463C140.1 209.975 139.895 209.281 139.895 208.383V201.83H137.971V200.434H139.895V197.875H141.701ZM152.316 211C152.212 210.792 152.128 210.421 152.062 209.887C151.223 210.759 150.22 211.195 149.055 211.195C148.013 211.195 147.157 210.902 146.486 210.316C145.822 209.724 145.49 208.975 145.49 208.07C145.49 206.97 145.907 206.117 146.74 205.512C147.58 204.9 148.758 204.594 150.275 204.594H152.033V203.764C152.033 203.132 151.844 202.631 151.467 202.26C151.089 201.882 150.533 201.693 149.797 201.693C149.152 201.693 148.612 201.856 148.176 202.182C147.74 202.507 147.521 202.901 147.521 203.363H145.705C145.705 202.836 145.891 202.328 146.262 201.84C146.639 201.345 147.147 200.954 147.785 200.668C148.43 200.382 149.136 200.238 149.904 200.238C151.122 200.238 152.076 200.544 152.766 201.156C153.456 201.762 153.814 202.598 153.84 203.666V208.529C153.84 209.499 153.964 210.271 154.211 210.844V211H152.316ZM149.318 209.623C149.885 209.623 150.422 209.477 150.93 209.184C151.438 208.891 151.805 208.51 152.033 208.041V205.873H150.617C148.404 205.873 147.297 206.521 147.297 207.816C147.297 208.383 147.486 208.826 147.863 209.145C148.241 209.464 148.726 209.623 149.318 209.623ZM165.617 205.834C165.617 207.449 165.246 208.747 164.504 209.73C163.762 210.707 162.766 211.195 161.516 211.195C160.181 211.195 159.149 210.723 158.42 209.779L158.332 211H156.672V196H158.479V201.596C159.208 200.691 160.214 200.238 161.496 200.238C162.779 200.238 163.785 200.723 164.514 201.693C165.249 202.663 165.617 203.992 165.617 205.678V205.834ZM163.811 205.629C163.811 204.398 163.573 203.448 163.098 202.777C162.622 202.107 161.939 201.771 161.047 201.771C159.855 201.771 158.999 202.325 158.479 203.432V208.002C159.032 209.109 159.895 209.662 161.066 209.662C161.932 209.662 162.606 209.327 163.088 208.656C163.57 207.986 163.811 206.977 163.811 205.629ZM169.865 211H168.059V196H169.865V211ZM177.15 211.195C175.718 211.195 174.553 210.727 173.654 209.789C172.756 208.845 172.307 207.585 172.307 206.01V205.678C172.307 204.63 172.505 203.695 172.902 202.875C173.306 202.048 173.866 201.404 174.582 200.941C175.305 200.473 176.086 200.238 176.926 200.238C178.299 200.238 179.367 200.691 180.129 201.596C180.891 202.501 181.271 203.796 181.271 205.482V206.234H174.113C174.139 207.276 174.442 208.119 175.021 208.764C175.607 209.402 176.35 209.721 177.248 209.721C177.886 209.721 178.426 209.59 178.869 209.33C179.312 209.07 179.699 208.725 180.031 208.295L181.135 209.154C180.249 210.515 178.921 211.195 177.15 211.195ZM176.926 201.723C176.197 201.723 175.585 201.99 175.09 202.523C174.595 203.051 174.289 203.793 174.172 204.75H179.465V204.613C179.413 203.695 179.165 202.986 178.723 202.484C178.28 201.977 177.681 201.723 176.926 201.723ZM197.277 205.834C197.277 207.449 196.906 208.747 196.164 209.73C195.422 210.707 194.426 211.195 193.176 211.195C191.841 211.195 190.809 210.723 190.08 209.779L189.992 211H188.332V196H190.139V201.596C190.868 200.691 191.874 200.238 193.156 200.238C194.439 200.238 195.445 200.723 196.174 201.693C196.91 202.663 197.277 203.992 197.277 205.678V205.834ZM195.471 205.629C195.471 204.398 195.233 203.448 194.758 202.777C194.283 202.107 193.599 201.771 192.707 201.771C191.516 201.771 190.66 202.325 190.139 203.432V208.002C190.692 209.109 191.555 209.662 192.727 209.662C193.592 209.662 194.266 209.327 194.748 208.656C195.23 207.986 195.471 206.977 195.471 205.629ZM206.086 209.955C205.383 210.782 204.351 211.195 202.99 211.195C201.864 211.195 201.005 210.87 200.412 210.219C199.826 209.561 199.53 208.591 199.523 207.309V200.434H201.33V207.26C201.33 208.861 201.981 209.662 203.283 209.662C204.663 209.662 205.581 209.148 206.037 208.119V200.434H207.844V211H206.125L206.086 209.955ZM216.75 208.197C216.75 207.709 216.564 207.331 216.193 207.064C215.829 206.791 215.188 206.557 214.27 206.361C213.358 206.166 212.632 205.932 212.092 205.658C211.558 205.385 211.161 205.059 210.9 204.682C210.646 204.304 210.52 203.855 210.52 203.334C210.52 202.468 210.884 201.736 211.613 201.137C212.349 200.538 213.286 200.238 214.426 200.238C215.624 200.238 216.594 200.548 217.336 201.166C218.085 201.785 218.459 202.576 218.459 203.539H216.643C216.643 203.044 216.431 202.618 216.008 202.26C215.591 201.902 215.064 201.723 214.426 201.723C213.768 201.723 213.254 201.866 212.883 202.152C212.512 202.439 212.326 202.813 212.326 203.275C212.326 203.712 212.499 204.04 212.844 204.262C213.189 204.483 213.811 204.695 214.709 204.896C215.614 205.098 216.346 205.339 216.906 205.619C217.466 205.899 217.88 206.238 218.146 206.635C218.42 207.025 218.557 207.504 218.557 208.07C218.557 209.014 218.179 209.773 217.424 210.346C216.669 210.912 215.689 211.195 214.484 211.195C213.638 211.195 212.889 211.046 212.238 210.746C211.587 210.447 211.076 210.03 210.705 209.496C210.34 208.956 210.158 208.373 210.158 207.748H211.965C211.997 208.354 212.238 208.835 212.688 209.193C213.143 209.545 213.742 209.721 214.484 209.721C215.168 209.721 215.715 209.584 216.125 209.311C216.542 209.031 216.75 208.66 216.75 208.197ZM222.873 211H221.066V200.434H222.873V211ZM220.92 197.631C220.92 197.338 221.008 197.09 221.184 196.889C221.366 196.687 221.633 196.586 221.984 196.586C222.336 196.586 222.603 196.687 222.785 196.889C222.967 197.09 223.059 197.338 223.059 197.631C223.059 197.924 222.967 198.168 222.785 198.363C222.603 198.559 222.336 198.656 221.984 198.656C221.633 198.656 221.366 198.559 221.184 198.363C221.008 198.168 220.92 197.924 220.92 197.631ZM227.482 200.434L227.541 201.762C228.348 200.746 229.403 200.238 230.705 200.238C232.938 200.238 234.064 201.498 234.084 204.018V211H232.277V204.008C232.271 203.246 232.095 202.683 231.75 202.318C231.411 201.954 230.881 201.771 230.158 201.771C229.572 201.771 229.058 201.928 228.615 202.24C228.173 202.553 227.827 202.963 227.58 203.471V211H225.773V200.434H227.482ZM241.193 211.195C239.761 211.195 238.596 210.727 237.697 209.789C236.799 208.845 236.35 207.585 236.35 206.01V205.678C236.35 204.63 236.548 203.695 236.945 202.875C237.349 202.048 237.909 201.404 238.625 200.941C239.348 200.473 240.129 200.238 240.969 200.238C242.342 200.238 243.41 200.691 244.172 201.596C244.934 202.501 245.314 203.796 245.314 205.482V206.234H238.156C238.182 207.276 238.485 208.119 239.064 208.764C239.65 209.402 240.393 209.721 241.291 209.721C241.929 209.721 242.469 209.59 242.912 209.33C243.355 209.07 243.742 208.725 244.074 208.295L245.178 209.154C244.292 210.515 242.964 211.195 241.193 211.195ZM240.969 201.723C240.24 201.723 239.628 201.99 239.133 202.523C238.638 203.051 238.332 203.793 238.215 204.75H243.508V204.613C243.456 203.695 243.208 202.986 242.766 202.484C242.323 201.977 241.724 201.723 240.969 201.723ZM253.566 208.197C253.566 207.709 253.381 207.331 253.01 207.064C252.645 206.791 252.004 206.557 251.086 206.361C250.174 206.166 249.449 205.932 248.908 205.658C248.374 205.385 247.977 205.059 247.717 204.682C247.463 204.304 247.336 203.855 247.336 203.334C247.336 202.468 247.701 201.736 248.43 201.137C249.165 200.538 250.103 200.238 251.242 200.238C252.44 200.238 253.41 200.548 254.152 201.166C254.901 201.785 255.275 202.576 255.275 203.539H253.459C253.459 203.044 253.247 202.618 252.824 202.26C252.408 201.902 251.88 201.723 251.242 201.723C250.585 201.723 250.07 201.866 249.699 202.152C249.328 202.439 249.143 202.813 249.143 203.275C249.143 203.712 249.315 204.04 249.66 204.262C250.005 204.483 250.627 204.695 251.525 204.896C252.43 205.098 253.163 205.339 253.723 205.619C254.283 205.899 254.696 206.238 254.963 206.635C255.236 207.025 255.373 207.504 255.373 208.07C255.373 209.014 254.995 209.773 254.24 210.346C253.485 210.912 252.505 211.195 251.301 211.195C250.454 211.195 249.706 211.046 249.055 210.746C248.404 210.447 247.893 210.03 247.521 209.496C247.157 208.956 246.975 208.373 246.975 207.748H248.781C248.814 208.354 249.055 208.835 249.504 209.193C249.96 209.545 250.559 209.721 251.301 209.721C251.984 209.721 252.531 209.584 252.941 209.311C253.358 209.031 253.566 208.66 253.566 208.197ZM263.879 208.197C263.879 207.709 263.693 207.331 263.322 207.064C262.958 206.791 262.316 206.557 261.398 206.361C260.487 206.166 259.761 205.932 259.221 205.658C258.687 205.385 258.29 205.059 258.029 204.682C257.775 204.304 257.648 203.855 257.648 203.334C257.648 202.468 258.013 201.736 258.742 201.137C259.478 200.538 260.415 200.238 261.555 200.238C262.753 200.238 263.723 200.548 264.465 201.166C265.214 201.785 265.588 202.576 265.588 203.539H263.771C263.771 203.044 263.56 202.618 263.137 202.26C262.72 201.902 262.193 201.723 261.555 201.723C260.897 201.723 260.383 201.866 260.012 202.152C259.641 202.439 259.455 202.813 259.455 203.275C259.455 203.712 259.628 204.04 259.973 204.262C260.318 204.483 260.939 204.695 261.838 204.896C262.743 205.098 263.475 205.339 264.035 205.619C264.595 205.899 265.008 206.238 265.275 206.635C265.549 207.025 265.686 207.504 265.686 208.07C265.686 209.014 265.308 209.773 264.553 210.346C263.798 210.912 262.818 211.195 261.613 211.195C260.767 211.195 260.018 211.046 259.367 210.746C258.716 210.447 258.205 210.03 257.834 209.496C257.469 208.956 257.287 208.373 257.287 207.748H259.094C259.126 208.354 259.367 208.835 259.816 209.193C260.272 209.545 260.871 209.721 261.613 209.721C262.297 209.721 262.844 209.584 263.254 209.311C263.671 209.031 263.879 208.66 263.879 208.197ZM80.5488 239C80.4447 238.792 80.36 238.421 80.2949 237.887C79.4551 238.759 78.4525 239.195 77.2871 239.195C76.2454 239.195 75.3893 238.902 74.7188 238.316C74.0547 237.724 73.7227 236.975 73.7227 236.07C73.7227 234.97 74.1393 234.117 74.9727 233.512C75.8125 232.9 76.9909 232.594 78.5078 232.594H80.2656V231.764C80.2656 231.132 80.0768 230.631 79.6992 230.26C79.3216 229.882 78.765 229.693 78.0293 229.693C77.3848 229.693 76.8444 229.856 76.4082 230.182C75.972 230.507 75.7539 230.901 75.7539 231.363H73.9375C73.9375 230.836 74.123 230.328 74.4941 229.84C74.8717 229.345 75.3796 228.954 76.0176 228.668C76.6621 228.382 77.3685 228.238 78.1367 228.238C79.3542 228.238 80.3079 228.544 80.998 229.156C81.6882 229.762 82.0462 230.598 82.0723 231.666V236.529C82.0723 237.499 82.196 238.271 82.4434 238.844V239H80.5488ZM77.5508 237.623C78.1172 237.623 78.6543 237.477 79.1621 237.184C79.6699 236.891 80.0378 236.51 80.2656 236.041V233.873H78.8496C76.6361 233.873 75.5293 234.521 75.5293 235.816C75.5293 236.383 75.7181 236.826 76.0957 237.145C76.4733 237.464 76.9583 237.623 77.5508 237.623ZM89.1426 237.721C89.7871 237.721 90.3503 237.525 90.832 237.135C91.3138 236.744 91.5807 236.256 91.6328 235.67H93.3418C93.3092 236.275 93.1009 236.852 92.7168 237.398C92.3327 237.945 91.8184 238.382 91.1738 238.707C90.5358 239.033 89.8587 239.195 89.1426 239.195C87.7038 239.195 86.5579 238.717 85.7051 237.76C84.8587 236.796 84.4355 235.481 84.4355 233.814V233.512C84.4355 232.483 84.6243 231.568 85.002 230.768C85.3796 229.967 85.9199 229.345 86.623 228.902C87.3327 228.46 88.1693 228.238 89.1328 228.238C90.3177 228.238 91.3008 228.593 92.082 229.303C92.8698 230.012 93.2897 230.934 93.3418 232.066H91.6328C91.5807 231.383 91.3203 230.823 90.8516 230.387C90.3893 229.944 89.8164 229.723 89.1328 229.723C88.2148 229.723 87.502 230.055 86.9941 230.719C86.4928 231.376 86.2422 232.33 86.2422 233.58V233.922C86.2422 235.139 86.4928 236.077 86.9941 236.734C87.4954 237.392 88.2116 237.721 89.1426 237.721ZM99.6113 237.721C100.256 237.721 100.819 237.525 101.301 237.135C101.783 236.744 102.049 236.256 102.102 235.67H103.811C103.778 236.275 103.57 236.852 103.186 237.398C102.801 237.945 102.287 238.382 101.643 238.707C101.005 239.033 100.327 239.195 99.6113 239.195C98.1725 239.195 97.0267 238.717 96.1738 237.76C95.3275 236.796 94.9043 235.481 94.9043 233.814V233.512C94.9043 232.483 95.0931 231.568 95.4707 230.768C95.8483 229.967 96.3887 229.345 97.0918 228.902C97.8014 228.46 98.638 228.238 99.6016 228.238C100.786 228.238 101.77 228.593 102.551 229.303C103.339 230.012 103.758 230.934 103.811 232.066H102.102C102.049 231.383 101.789 230.823 101.32 230.387C100.858 229.944 100.285 229.723 99.6016 229.723C98.6836 229.723 97.9707 230.055 97.4629 230.719C96.9616 231.376 96.7109 232.33 96.7109 233.58V233.922C96.7109 235.139 96.9616 236.077 97.4629 236.734C97.9642 237.392 98.6803 237.721 99.6113 237.721ZM105.363 233.619C105.363 232.584 105.565 231.653 105.969 230.826C106.379 229.999 106.945 229.361 107.668 228.912C108.397 228.463 109.227 228.238 110.158 228.238C111.597 228.238 112.759 228.736 113.645 229.732C114.536 230.729 114.982 232.053 114.982 233.707V233.834C114.982 234.863 114.784 235.787 114.387 236.607C113.996 237.421 113.433 238.056 112.697 238.512C111.968 238.967 111.128 239.195 110.178 239.195C108.745 239.195 107.583 238.697 106.691 237.701C105.806 236.705 105.363 235.387 105.363 233.746V233.619ZM107.18 233.834C107.18 235.006 107.45 235.947 107.99 236.656C108.537 237.366 109.266 237.721 110.178 237.721C111.096 237.721 111.825 237.363 112.365 236.646C112.906 235.924 113.176 234.915 113.176 233.619C113.176 232.46 112.899 231.523 112.346 230.807C111.799 230.084 111.07 229.723 110.158 229.723C109.266 229.723 108.547 230.077 108 230.787C107.453 231.497 107.18 232.512 107.18 233.834ZM123.771 237.955C123.068 238.782 122.036 239.195 120.676 239.195C119.549 239.195 118.69 238.87 118.098 238.219C117.512 237.561 117.215 236.591 117.209 235.309V228.434H119.016V235.26C119.016 236.861 119.667 237.662 120.969 237.662C122.349 237.662 123.267 237.148 123.723 236.119V228.434H125.529V239H123.811L123.771 237.955ZM129.992 228.434L130.051 229.762C130.858 228.746 131.913 228.238 133.215 228.238C135.448 228.238 136.574 229.498 136.594 232.018V239H134.787V232.008C134.781 231.246 134.605 230.683 134.26 230.318C133.921 229.954 133.391 229.771 132.668 229.771C132.082 229.771 131.568 229.928 131.125 230.24C130.682 230.553 130.337 230.963 130.09 231.471V239H128.283V228.434H129.992ZM141.77 225.875V228.434H143.742V229.83H141.77V236.383C141.77 236.806 141.857 237.125 142.033 237.34C142.209 237.548 142.508 237.652 142.932 237.652C143.14 237.652 143.426 237.613 143.791 237.535V239C143.316 239.13 142.854 239.195 142.404 239.195C141.597 239.195 140.988 238.951 140.578 238.463C140.168 237.975 139.963 237.281 139.963 236.383V229.83H138.039V228.434H139.963V225.875H141.77ZM152.785 239H150.979V228.434H152.785V239ZM150.832 225.631C150.832 225.338 150.92 225.09 151.096 224.889C151.278 224.687 151.545 224.586 151.896 224.586C152.248 224.586 152.515 224.687 152.697 224.889C152.88 225.09 152.971 225.338 152.971 225.631C152.971 225.924 152.88 226.168 152.697 226.363C152.515 226.559 152.248 226.656 151.896 226.656C151.545 226.656 151.278 226.559 151.096 226.363C150.92 226.168 150.832 225.924 150.832 225.631ZM157.395 228.434L157.453 229.762C158.26 228.746 159.315 228.238 160.617 228.238C162.85 228.238 163.977 229.498 163.996 232.018V239H162.189V232.008C162.183 231.246 162.007 230.683 161.662 230.318C161.324 229.954 160.793 229.771 160.07 229.771C159.484 229.771 158.97 229.928 158.527 230.24C158.085 230.553 157.74 230.963 157.492 231.471V239H155.686V228.434H157.395ZM169.172 225.875V228.434H171.145V229.83H169.172V236.383C169.172 236.806 169.26 237.125 169.436 237.34C169.611 237.548 169.911 237.652 170.334 237.652C170.542 237.652 170.829 237.613 171.193 237.535V239C170.718 239.13 170.256 239.195 169.807 239.195C168.999 239.195 168.391 238.951 167.98 238.463C167.57 237.975 167.365 237.281 167.365 236.383V229.83H165.441V228.434H167.365V225.875H169.172ZM177.648 239.195C176.216 239.195 175.051 238.727 174.152 237.789C173.254 236.845 172.805 235.585 172.805 234.01V233.678C172.805 232.63 173.003 231.695 173.4 230.875C173.804 230.048 174.364 229.404 175.08 228.941C175.803 228.473 176.584 228.238 177.424 228.238C178.798 228.238 179.865 228.691 180.627 229.596C181.389 230.501 181.77 231.796 181.77 233.482V234.234H174.611C174.637 235.276 174.94 236.119 175.52 236.764C176.105 237.402 176.848 237.721 177.746 237.721C178.384 237.721 178.924 237.59 179.367 237.33C179.81 237.07 180.197 236.725 180.529 236.295L181.633 237.154C180.747 238.515 179.419 239.195 177.648 239.195ZM177.424 229.723C176.695 229.723 176.083 229.99 175.588 230.523C175.093 231.051 174.787 231.793 174.67 232.75H179.963V232.613C179.911 231.695 179.663 230.986 179.221 230.484C178.778 229.977 178.179 229.723 177.424 229.723ZM188.977 230.055C188.703 230.009 188.407 229.986 188.088 229.986C186.903 229.986 186.099 230.491 185.676 231.5V239H183.869V228.434H185.627L185.656 229.654C186.249 228.71 187.089 228.238 188.176 228.238C188.527 228.238 188.794 228.284 188.977 228.375V230.055ZM191.691 239V229.83H190.021V228.434H191.691V227.35C191.691 226.217 191.994 225.341 192.6 224.723C193.205 224.104 194.061 223.795 195.168 223.795C195.585 223.795 195.998 223.85 196.408 223.961L196.311 225.426C196.005 225.367 195.679 225.338 195.334 225.338C194.748 225.338 194.296 225.51 193.977 225.855C193.658 226.194 193.498 226.682 193.498 227.32V228.434H195.754V229.83H193.498V239H191.691ZM204.279 239C204.175 238.792 204.09 238.421 204.025 237.887C203.186 238.759 202.183 239.195 201.018 239.195C199.976 239.195 199.12 238.902 198.449 238.316C197.785 237.724 197.453 236.975 197.453 236.07C197.453 234.97 197.87 234.117 198.703 233.512C199.543 232.9 200.721 232.594 202.238 232.594H203.996V231.764C203.996 231.132 203.807 230.631 203.43 230.26C203.052 229.882 202.495 229.693 201.76 229.693C201.115 229.693 200.575 229.856 200.139 230.182C199.702 230.507 199.484 230.901 199.484 231.363H197.668C197.668 230.836 197.854 230.328 198.225 229.84C198.602 229.345 199.11 228.954 199.748 228.668C200.393 228.382 201.099 228.238 201.867 228.238C203.085 228.238 204.038 228.544 204.729 229.156C205.419 229.762 205.777 230.598 205.803 231.666V236.529C205.803 237.499 205.926 238.271 206.174 238.844V239H204.279ZM201.281 237.623C201.848 237.623 202.385 237.477 202.893 237.184C203.4 236.891 203.768 236.51 203.996 236.041V233.873H202.58C200.367 233.873 199.26 234.521 199.26 235.816C199.26 236.383 199.449 236.826 199.826 237.145C200.204 237.464 200.689 237.623 201.281 237.623ZM212.873 237.721C213.518 237.721 214.081 237.525 214.562 237.135C215.044 236.744 215.311 236.256 215.363 235.67H217.072C217.04 236.275 216.831 236.852 216.447 237.398C216.063 237.945 215.549 238.382 214.904 238.707C214.266 239.033 213.589 239.195 212.873 239.195C211.434 239.195 210.288 238.717 209.436 237.76C208.589 236.796 208.166 235.481 208.166 233.814V233.512C208.166 232.483 208.355 231.568 208.732 230.768C209.11 229.967 209.65 229.345 210.354 228.902C211.063 228.46 211.9 228.238 212.863 228.238C214.048 228.238 215.031 228.593 215.812 229.303C216.6 230.012 217.02 230.934 217.072 232.066H215.363C215.311 231.383 215.051 230.823 214.582 230.387C214.12 229.944 213.547 229.723 212.863 229.723C211.945 229.723 211.232 230.055 210.725 230.719C210.223 231.376 209.973 232.33 209.973 233.58V233.922C209.973 235.139 210.223 236.077 210.725 236.734C211.226 237.392 211.942 237.721 212.873 237.721ZM223.488 239.195C222.056 239.195 220.891 238.727 219.992 237.789C219.094 236.845 218.645 235.585 218.645 234.01V233.678C218.645 232.63 218.843 231.695 219.24 230.875C219.644 230.048 220.204 229.404 220.92 228.941C221.643 228.473 222.424 228.238 223.264 228.238C224.637 228.238 225.705 228.691 226.467 229.596C227.229 230.501 227.609 231.796 227.609 233.482V234.234H220.451C220.477 235.276 220.78 236.119 221.359 236.764C221.945 237.402 222.688 237.721 223.586 237.721C224.224 237.721 224.764 237.59 225.207 237.33C225.65 237.07 226.037 236.725 226.369 236.295L227.473 237.154C226.587 238.515 225.259 239.195 223.488 239.195ZM223.264 229.723C222.535 229.723 221.923 229.99 221.428 230.523C220.933 231.051 220.627 231.793 220.51 232.75H225.803V232.613C225.751 231.695 225.503 230.986 225.061 230.484C224.618 229.977 224.019 229.723 223.264 229.723Z" fill="black"/>
<g clip-path="url(#clip0)">
<path d="M166.667 116.667C166.667 107.477 159.19 100 150 100C140.81 100 133.333 107.477 133.333 116.667C133.333 125.857 140.81 133.333 150 133.333C159.19 133.333 166.667 125.857 166.667 116.667ZM136.667 116.667C136.667 109.315 142.648 103.333 150 103.333C157.352 103.333 163.333 109.315 163.333 116.667C163.333 124.018 157.352 130 150 130C142.648 130 136.667 124.018 136.667 116.667Z" fill="#FFAC22"/>
<path d="M170 136.666H108.333C105.483 136.666 103.333 134.516 103.333 131.666V64.9996C103.333 64.0797 102.587 63.333 101.667 63.333C100.747 63.333 100 64.0797 100 64.9996V131.666C100 136.34 103.66 140 108.333 140H170C170.92 140 171.667 139.253 171.667 138.333C171.667 137.413 170.92 136.666 170 136.666Z" fill="#FFAC22"/>
<path d="M191.667 40H108.333C103.738 40 100 43.7383 100 48.3334V58.3334C100 59.2533 100.747 60 101.667 60H191.667C192.587 60 193.333 59.2533 193.333 58.3334C193.333 57.4135 192.587 56.6668 191.667 56.6668H103.333V48.3334C103.333 45.5768 105.577 43.3334 108.333 43.3334H191.667C194.423 43.3334 196.667 45.5768 196.667 48.3334V131.667C196.667 134.517 194.517 136.667 191.667 136.667H179.167L175.447 131.705C176.99 129.63 178.09 127.183 178.723 125.188C181.035 124.692 183.173 124.233 183.67 124.132C185.548 123.745 186.668 122.2 186.668 119.998C186.667 118.748 186.667 114.548 186.668 113.33C186.665 111.147 185.55 109.603 183.685 109.202L178.735 108.142C178.14 106.133 177.338 104.2 176.345 102.369C177.627 100.387 178.81 98.5586 179.088 98.1369C180.142 96.5352 179.842 94.652 178.285 93.0953L173.57 88.3803C172.023 86.8369 170.145 86.5336 168.538 87.5703L164.293 90.3186C162.462 89.3252 160.527 88.5236 158.518 87.9303C158.023 85.6252 157.568 83.4936 157.465 82.9969C157.08 81.1201 155.533 80.0002 153.333 80.0002H146.667C144.482 80.0002 142.938 81.1152 142.537 82.9836L141.477 87.9318C139.468 88.5268 137.533 89.3268 135.702 90.3219C133.722 89.0418 131.893 87.8586 131.47 87.5785C129.872 86.5285 127.987 86.8268 126.43 88.3836L121.715 93.0969C120.172 94.6402 119.868 96.5201 120.905 98.1269L123.653 102.372C122.658 104.202 121.858 106.138 121.263 108.147C118.958 108.642 116.825 109.099 116.328 109.202C114.453 109.59 113.333 111.135 113.333 113.335V120C113.333 122.183 114.448 123.727 116.317 124.13L121.277 125.192C122.167 128.012 123.738 130.905 125.429 132.782C126.044 133.467 127.097 133.52 127.782 132.905C128.467 132.29 128.522 131.237 127.905 130.552C126.133 128.582 124.775 125.517 124.215 123.354C124.057 122.744 123.567 122.273 122.95 122.142L117.017 120.87C116.895 120.843 116.667 120.795 116.667 120V113.334C116.667 112.535 116.912 112.484 117.002 112.465C117.57 112.349 120.28 111.769 122.95 111.194C123.567 111.062 124.057 110.592 124.213 109.982C124.835 107.577 125.785 105.282 127.037 103.16C127.356 102.617 127.343 101.94 127 101.41L123.705 96.3168C123.637 96.2117 123.51 96.015 124.071 95.4535L128.787 90.7385C129.348 90.1768 129.558 90.3117 129.638 90.3635C130.122 90.6818 132.448 92.1867 134.74 93.6686C135.27 94.0102 135.95 94.027 136.492 93.7053C138.613 92.4535 140.908 91.5035 143.312 90.882C143.923 90.7236 144.392 90.2338 144.525 89.617L145.797 83.682C145.823 83.5603 145.872 83.3338 146.667 83.3338H153.333C154.131 83.3338 154.181 83.5771 154.202 83.6688C154.317 84.2371 154.898 86.9471 155.471 89.617C155.603 90.2336 156.073 90.7236 156.683 90.8803C159.088 91.5019 161.383 92.452 163.505 93.702C164.048 94.0236 164.727 94.0086 165.257 93.6652L170.347 90.3703C170.452 90.3037 170.652 90.1736 171.213 90.7369L175.93 95.452C176.493 96.017 176.355 96.2252 176.303 96.3053C175.985 96.7887 174.48 99.1152 172.996 101.407C172.655 101.937 172.64 102.614 172.962 103.159C174.213 105.279 175.163 107.574 175.785 109.977C175.943 110.589 176.431 111.057 177.048 111.19L182.983 112.462C183.105 112.489 183.333 112.537 183.335 113.33C183.333 114.546 183.333 118.752 183.335 120C183.335 120.797 183.09 120.849 182.996 120.867C182.43 120.984 179.72 121.565 177.05 122.139C176.433 122.27 175.943 122.74 175.787 123.35C175.112 125.957 173.66 128.787 172.087 130.56C171.562 131.154 171.525 132.034 172 132.667L177 139.334C177.315 139.754 177.808 140 178.333 140H191.667C196.34 140 200 136.34 200 131.667V48.3334C200 43.7383 196.262 40 191.667 40Z" fill="#FFAC22"/>
<path d="M156.667 116.667C156.667 112.99 153.676 110 150 110C146.323 110 143.333 112.99 143.333 116.667C143.333 120.343 146.323 123.333 150 123.333C153.677 123.333 156.667 120.343 156.667 116.667ZM146.667 116.667C146.667 114.828 148.161 113.333 150 113.333C151.838 113.333 153.333 114.828 153.333 116.667C153.333 118.505 151.838 120 150 120C148.162 120 146.667 118.505 146.667 116.667Z" fill="#FFAC22"/>
<path d="M125 70.0002C125.92 70.0002 126.666 69.2535 126.666 68.3336C126.666 67.4137 125.92 66.667 125 66.667H111.666C110.746 66.667 110 67.4137 110 68.3336C110 69.2535 110.746 70.0002 111.666 70.0002H125Z" fill="#FFAC22"/>
<path d="M161.666 70.0002C162.586 70.0002 163.333 69.2535 163.333 68.3336C163.333 67.4137 162.586 66.667 161.666 66.667H155C154.08 66.667 153.333 67.4137 153.333 68.3336C153.333 69.2535 154.08 70.0002 155 70.0002H161.666Z" fill="#FFAC22"/>
<path d="M120 50.0004C120 51.8387 121.495 53.3338 123.333 53.3338C125.172 53.3338 126.667 51.8389 126.667 50.0004C126.667 48.1621 125.172 46.667 123.333 46.667C121.495 46.667 120 48.1621 120 50.0004Z" fill="#FFAC22"/>
<path d="M110 50.0004C110 51.8387 111.495 53.3338 113.333 53.3338C115.171 53.3338 116.667 51.8389 116.667 50.0004C116.667 48.1621 115.172 46.667 113.333 46.667C111.495 46.667 110 48.1621 110 50.0004Z" fill="#FFAC22"/>
<path d="M130 50.0004C130 51.8387 131.495 53.3338 133.334 53.3338C135.172 53.3338 136.667 51.8389 136.667 50.0004C136.667 48.1621 135.172 46.667 133.334 46.667C131.495 46.667 130 48.1621 130 50.0004Z" fill="#FFAC22"/>
<path d="M188.334 70.0002C189.253 70.0002 190 69.2535 190 68.3336C190 67.4137 189.253 66.667 188.334 66.667H181.667C180.747 66.667 180 67.4137 180 68.3336C180 69.2535 180.747 70.0002 181.667 70.0002H188.334Z" fill="#FFAC22"/>
<path d="M175 70.0002C175.92 70.0002 176.667 69.2535 176.667 68.3336C176.667 67.4137 175.92 66.667 175 66.667H168.333C167.414 66.667 166.667 67.4137 166.667 68.3336C166.667 69.2535 167.414 70.0002 168.333 70.0002H175Z" fill="#FFAC22"/>
</g>
<defs>
<clipPath id="clip0">
<rect width="100" height="100" fill="white" transform="translate(100 40)"/>
</clipPath>
</defs>
</svg>
