<svg width="300" height="274" viewBox="0 0 300 274" fill="none" xmlns="http://www.w3.org/2000/svg">
<path d="M59.4727 204.662C57.8646 204.2 56.6927 203.633 55.957 202.963C55.2279 202.286 54.8633 201.452 54.8633 200.463C54.8633 199.343 55.3092 198.419 56.2012 197.689C57.0996 196.954 58.265 196.586 59.6973 196.586C60.6738 196.586 61.543 196.775 62.3047 197.152C63.0729 197.53 63.6654 198.051 64.082 198.715C64.5052 199.379 64.7168 200.105 64.7168 200.893H62.832C62.832 200.033 62.5586 199.359 62.0117 198.871C61.4648 198.376 60.6934 198.129 59.6973 198.129C58.7728 198.129 58.0501 198.334 57.5293 198.744C57.015 199.148 56.7578 199.711 56.7578 200.434C56.7578 201.013 57.002 201.505 57.4902 201.908C57.985 202.305 58.8216 202.67 60 203.002C61.1849 203.334 62.1094 203.702 62.7734 204.105C63.444 204.503 63.9388 204.968 64.2578 205.502C64.5833 206.036 64.7461 206.664 64.7461 207.387C64.7461 208.539 64.2969 209.464 63.3984 210.16C62.5 210.85 61.2988 211.195 59.7949 211.195C58.8184 211.195 57.9069 211.01 57.0605 210.639C56.2142 210.261 55.5599 209.747 55.0977 209.096C54.6419 208.445 54.4141 207.706 54.4141 206.879H56.2988C56.2988 207.738 56.6146 208.419 57.2461 208.92C57.8841 209.415 58.7337 209.662 59.7949 209.662C60.7845 209.662 61.543 209.46 62.0703 209.057C62.5977 208.653 62.8613 208.103 62.8613 207.406C62.8613 206.71 62.6172 206.173 62.1289 205.795C61.6406 205.411 60.7552 205.033 59.4727 204.662ZM71.2598 211.195C69.8275 211.195 68.6621 210.727 67.7637 209.789C66.8652 208.845 66.416 207.585 66.416 206.01V205.678C66.416 204.63 66.6146 203.695 67.0117 202.875C67.4154 202.048 67.9753 201.404 68.6914 200.941C69.4141 200.473 70.1953 200.238 71.0352 200.238C72.4089 200.238 73.4766 200.691 74.2383 201.596C75 202.501 75.3809 203.796 75.3809 205.482V206.234H68.2227C68.2487 207.276 68.5514 208.119 69.1309 208.764C69.7168 209.402 70.459 209.721 71.3574 209.721C71.9954 209.721 72.5358 209.59 72.9785 209.33C73.4212 209.07 73.8086 208.725 74.1406 208.295L75.2441 209.154C74.3587 210.515 73.0306 211.195 71.2598 211.195ZM71.0352 201.723C70.306 201.723 69.694 201.99 69.1992 202.523C68.7044 203.051 68.3984 203.793 68.2812 204.75H73.5742V204.613C73.5221 203.695 73.2747 202.986 72.832 202.484C72.3893 201.977 71.7904 201.723 71.0352 201.723ZM81.7188 209.721C82.3633 209.721 82.9264 209.525 83.4082 209.135C83.89 208.744 84.1569 208.256 84.209 207.67H85.918C85.8854 208.275 85.6771 208.852 85.293 209.398C84.9089 209.945 84.3945 210.382 83.75 210.707C83.112 211.033 82.4349 211.195 81.7188 211.195C80.2799 211.195 79.1341 210.717 78.2812 209.76C77.4349 208.796 77.0117 207.481 77.0117 205.814V205.512C77.0117 204.483 77.2005 203.568 77.5781 202.768C77.9557 201.967 78.4961 201.345 79.1992 200.902C79.9089 200.46 80.7454 200.238 81.709 200.238C82.8939 200.238 83.877 200.593 84.6582 201.303C85.446 202.012 85.8659 202.934 85.918 204.066H84.209C84.1569 203.383 83.8965 202.823 83.4277 202.387C82.9655 201.944 82.3926 201.723 81.709 201.723C80.791 201.723 80.0781 202.055 79.5703 202.719C79.069 203.376 78.8184 204.33 78.8184 205.58V205.922C78.8184 207.139 79.069 208.077 79.5703 208.734C80.0716 209.392 80.7878 209.721 81.7188 209.721ZM94.4727 209.955C93.7695 210.782 92.7376 211.195 91.377 211.195C90.2507 211.195 89.3913 210.87 88.7988 210.219C88.2129 209.561 87.9167 208.591 87.9102 207.309V200.434H89.7168V207.26C89.7168 208.861 90.3678 209.662 91.6699 209.662C93.0501 209.662 93.9681 209.148 94.4238 208.119V200.434H96.2305V211H94.5117L94.4727 209.955ZM104.092 202.055C103.818 202.009 103.522 201.986 103.203 201.986C102.018 201.986 101.214 202.491 100.791 203.5V211H98.9844V200.434H100.742L100.771 201.654C101.364 200.71 102.204 200.238 103.291 200.238C103.643 200.238 103.91 200.284 104.092 200.375V202.055ZM107.725 211H105.918V200.434H107.725V211ZM105.771 197.631C105.771 197.338 105.859 197.09 106.035 196.889C106.217 196.687 106.484 196.586 106.836 196.586C107.188 196.586 107.454 196.687 107.637 196.889C107.819 197.09 107.91 197.338 107.91 197.631C107.91 197.924 107.819 198.168 107.637 198.363C107.454 198.559 107.188 198.656 106.836 198.656C106.484 198.656 106.217 198.559 106.035 198.363C105.859 198.168 105.771 197.924 105.771 197.631ZM113.076 197.875V200.434H115.049V201.83H113.076V208.383C113.076 208.806 113.164 209.125 113.34 209.34C113.516 209.548 113.815 209.652 114.238 209.652C114.447 209.652 114.733 209.613 115.098 209.535V211C114.622 211.13 114.16 211.195 113.711 211.195C112.904 211.195 112.295 210.951 111.885 210.463C111.475 209.975 111.27 209.281 111.27 208.383V201.83H109.346V200.434H111.27V197.875H113.076ZM120.625 208.354L123.086 200.434H125.02L120.771 212.631C120.114 214.389 119.069 215.268 117.637 215.268L117.295 215.238L116.621 215.111V213.646L117.109 213.686C117.721 213.686 118.197 213.562 118.535 213.314C118.88 213.067 119.163 212.615 119.385 211.957L119.785 210.883L116.016 200.434H117.988L120.625 208.354ZM125.625 210.053C125.625 209.74 125.716 209.48 125.898 209.271C126.087 209.063 126.367 208.959 126.738 208.959C127.109 208.959 127.389 209.063 127.578 209.271C127.773 209.48 127.871 209.74 127.871 210.053C127.871 210.352 127.773 210.603 127.578 210.805C127.389 211.007 127.109 211.107 126.738 211.107C126.367 211.107 126.087 211.007 125.898 210.805C125.716 210.603 125.625 210.352 125.625 210.053ZM145.537 198.324H140.967V211H139.102V198.324H134.541V196.781H145.537V198.324ZM149.17 201.713C149.971 200.73 151.012 200.238 152.295 200.238C154.528 200.238 155.654 201.498 155.674 204.018V211H153.867V204.008C153.861 203.246 153.685 202.683 153.34 202.318C153.001 201.954 152.471 201.771 151.748 201.771C151.162 201.771 150.648 201.928 150.205 202.24C149.762 202.553 149.417 202.963 149.17 203.471V211H147.363V196H149.17V201.713ZM162.764 211.195C161.331 211.195 160.166 210.727 159.268 209.789C158.369 208.845 157.92 207.585 157.92 206.01V205.678C157.92 204.63 158.118 203.695 158.516 202.875C158.919 202.048 159.479 201.404 160.195 200.941C160.918 200.473 161.699 200.238 162.539 200.238C163.913 200.238 164.98 200.691 165.742 201.596C166.504 202.501 166.885 203.796 166.885 205.482V206.234H159.727C159.753 207.276 160.055 208.119 160.635 208.764C161.221 209.402 161.963 209.721 162.861 209.721C163.499 209.721 164.04 209.59 164.482 209.33C164.925 209.07 165.312 208.725 165.645 208.295L166.748 209.154C165.863 210.515 164.535 211.195 162.764 211.195ZM162.539 201.723C161.81 201.723 161.198 201.99 160.703 202.523C160.208 203.051 159.902 203.793 159.785 204.75H165.078V204.613C165.026 203.695 164.779 202.986 164.336 202.484C163.893 201.977 163.294 201.723 162.539 201.723ZM175.645 200.434L175.693 201.605C176.468 200.694 177.513 200.238 178.828 200.238C180.306 200.238 181.312 200.805 181.846 201.938C182.197 201.43 182.653 201.02 183.213 200.707C183.779 200.395 184.447 200.238 185.215 200.238C187.533 200.238 188.711 201.465 188.75 203.92V211H186.943V204.027C186.943 203.272 186.771 202.709 186.426 202.338C186.081 201.96 185.501 201.771 184.688 201.771C184.017 201.771 183.46 201.973 183.018 202.377C182.575 202.774 182.318 203.311 182.246 203.988V211H180.43V204.076C180.43 202.54 179.678 201.771 178.174 201.771C176.989 201.771 176.178 202.276 175.742 203.285V211H173.936V200.434H175.645ZM191.006 205.619C191.006 204.584 191.208 203.653 191.611 202.826C192.021 201.999 192.588 201.361 193.311 200.912C194.04 200.463 194.87 200.238 195.801 200.238C197.24 200.238 198.402 200.736 199.287 201.732C200.179 202.729 200.625 204.053 200.625 205.707V205.834C200.625 206.863 200.426 207.787 200.029 208.607C199.639 209.421 199.076 210.056 198.34 210.512C197.611 210.967 196.771 211.195 195.82 211.195C194.388 211.195 193.226 210.697 192.334 209.701C191.449 208.705 191.006 207.387 191.006 205.746V205.619ZM192.822 205.834C192.822 207.006 193.092 207.947 193.633 208.656C194.18 209.366 194.909 209.721 195.82 209.721C196.738 209.721 197.467 209.363 198.008 208.646C198.548 207.924 198.818 206.915 198.818 205.619C198.818 204.46 198.542 203.523 197.988 202.807C197.441 202.084 196.712 201.723 195.801 201.723C194.909 201.723 194.189 202.077 193.643 202.787C193.096 203.497 192.822 204.512 192.822 205.834ZM202.451 205.629C202.451 204.008 202.835 202.706 203.604 201.723C204.372 200.733 205.378 200.238 206.621 200.238C207.858 200.238 208.838 200.661 209.561 201.508V196H211.367V211H209.707L209.619 209.867C208.896 210.753 207.891 211.195 206.602 211.195C205.378 211.195 204.378 210.694 203.604 209.691C202.835 208.689 202.451 207.38 202.451 205.766V205.629ZM204.258 205.834C204.258 207.032 204.505 207.969 205 208.646C205.495 209.324 206.178 209.662 207.051 209.662C208.197 209.662 209.033 209.148 209.561 208.119V203.266C209.02 202.27 208.19 201.771 207.07 201.771C206.185 201.771 205.495 202.113 205 202.797C204.505 203.48 204.258 204.493 204.258 205.834ZM220.703 209.955C220 210.782 218.968 211.195 217.607 211.195C216.481 211.195 215.622 210.87 215.029 210.219C214.443 209.561 214.147 208.591 214.141 207.309V200.434H215.947V207.26C215.947 208.861 216.598 209.662 217.9 209.662C219.281 209.662 220.199 209.148 220.654 208.119V200.434H222.461V211H220.742L220.703 209.955ZM227.178 211H225.371V196H227.178V211ZM236.602 211C236.497 210.792 236.413 210.421 236.348 209.887C235.508 210.759 234.505 211.195 233.34 211.195C232.298 211.195 231.442 210.902 230.771 210.316C230.107 209.724 229.775 208.975 229.775 208.07C229.775 206.97 230.192 206.117 231.025 205.512C231.865 204.9 233.044 204.594 234.561 204.594H236.318V203.764C236.318 203.132 236.13 202.631 235.752 202.26C235.374 201.882 234.818 201.693 234.082 201.693C233.438 201.693 232.897 201.856 232.461 202.182C232.025 202.507 231.807 202.901 231.807 203.363H229.99C229.99 202.836 230.176 202.328 230.547 201.84C230.924 201.345 231.432 200.954 232.07 200.668C232.715 200.382 233.421 200.238 234.189 200.238C235.407 200.238 236.361 200.544 237.051 201.156C237.741 201.762 238.099 202.598 238.125 203.666V208.529C238.125 209.499 238.249 210.271 238.496 210.844V211H236.602ZM233.604 209.623C234.17 209.623 234.707 209.477 235.215 209.184C235.723 208.891 236.09 208.51 236.318 208.041V205.873H234.902C232.689 205.873 231.582 206.521 231.582 207.816C231.582 208.383 231.771 208.826 232.148 209.145C232.526 209.464 233.011 209.623 233.604 209.623ZM246.064 202.055C245.791 202.009 245.495 201.986 245.176 201.986C243.991 201.986 243.187 202.491 242.764 203.5V211H240.957V200.434H242.715L242.744 201.654C243.337 200.71 244.176 200.238 245.264 200.238C245.615 200.238 245.882 200.284 246.064 200.375V202.055ZM25.918 237.721C26.5625 237.721 27.1257 237.525 27.6074 237.135C28.0892 236.744 28.3561 236.256 28.4082 235.67H30.1172C30.0846 236.275 29.8763 236.852 29.4922 237.398C29.1081 237.945 28.5938 238.382 27.9492 238.707C27.3112 239.033 26.6341 239.195 25.918 239.195C24.4792 239.195 23.3333 238.717 22.4805 237.76C21.6341 236.796 21.2109 235.481 21.2109 233.814V233.512C21.2109 232.483 21.3997 231.568 21.7773 230.768C22.1549 229.967 22.6953 229.345 23.3984 228.902C24.1081 228.46 24.9447 228.238 25.9082 228.238C27.0931 228.238 28.0762 228.593 28.8574 229.303C29.6452 230.012 30.0651 230.934 30.1172 232.066H28.4082C28.3561 231.383 28.0957 230.823 27.627 230.387C27.1647 229.944 26.5918 229.723 25.9082 229.723C24.9902 229.723 24.2773 230.055 23.7695 230.719C23.2682 231.376 23.0176 232.33 23.0176 233.58V233.922C23.0176 235.139 23.2682 236.077 23.7695 236.734C24.2708 237.392 24.987 237.721 25.918 237.721ZM36.5332 239.195C35.1009 239.195 33.9355 238.727 33.0371 237.789C32.1387 236.845 31.6895 235.585 31.6895 234.01V233.678C31.6895 232.63 31.888 231.695 32.2852 230.875C32.6888 230.048 33.2487 229.404 33.9648 228.941C34.6875 228.473 35.4688 228.238 36.3086 228.238C37.6823 228.238 38.75 228.691 39.5117 229.596C40.2734 230.501 40.6543 231.796 40.6543 233.482V234.234H33.4961C33.5221 235.276 33.8249 236.119 34.4043 236.764C34.9902 237.402 35.7324 237.721 36.6309 237.721C37.2689 237.721 37.8092 237.59 38.252 237.33C38.6947 237.07 39.082 236.725 39.4141 236.295L40.5176 237.154C39.6322 238.515 38.304 239.195 36.5332 239.195ZM36.3086 229.723C35.5794 229.723 34.9674 229.99 34.4727 230.523C33.9779 231.051 33.6719 231.793 33.5547 232.75H38.8477V232.613C38.7956 231.695 38.5482 230.986 38.1055 230.484C37.6628 229.977 37.0638 229.723 36.3086 229.723ZM44.4629 228.434L44.5215 229.762C45.3288 228.746 46.3835 228.238 47.6855 228.238C49.9186 228.238 51.0449 229.498 51.0645 232.018V239H49.2578V232.008C49.2513 231.246 49.0755 230.683 48.7305 230.318C48.3919 229.954 47.8613 229.771 47.1387 229.771C46.5527 229.771 46.0384 229.928 45.5957 230.24C45.153 230.553 44.8079 230.963 44.5605 231.471V239H42.7539V228.434H44.4629ZM56.2402 225.875V228.434H58.2129V229.83H56.2402V236.383C56.2402 236.806 56.3281 237.125 56.5039 237.34C56.6797 237.548 56.9792 237.652 57.4023 237.652C57.6107 237.652 57.8971 237.613 58.2617 237.535V239C57.7865 239.13 57.3242 239.195 56.875 239.195C56.0677 239.195 55.459 238.951 55.0488 238.463C54.6387 237.975 54.4336 237.281 54.4336 236.383V229.83H52.5098V228.434H54.4336V225.875H56.2402ZM65.4395 230.055C65.166 230.009 64.8698 229.986 64.5508 229.986C63.3659 229.986 62.5618 230.491 62.1387 231.5V239H60.332V228.434H62.0898L62.1191 229.654C62.7116 228.71 63.5514 228.238 64.6387 228.238C64.9902 228.238 65.2572 228.284 65.4395 228.375V230.055ZM71.2988 239.195C69.8665 239.195 68.7012 238.727 67.8027 237.789C66.9043 236.845 66.4551 235.585 66.4551 234.01V233.678C66.4551 232.63 66.6536 231.695 67.0508 230.875C67.4544 230.048 68.0143 229.404 68.7305 228.941C69.4531 228.473 70.2344 228.238 71.0742 228.238C72.4479 228.238 73.5156 228.691 74.2773 229.596C75.0391 230.501 75.4199 231.796 75.4199 233.482V234.234H68.2617C68.2878 235.276 68.5905 236.119 69.1699 236.764C69.7559 237.402 70.498 237.721 71.3965 237.721C72.0345 237.721 72.5749 237.59 73.0176 237.33C73.4603 237.07 73.8477 236.725 74.1797 236.295L75.2832 237.154C74.3978 238.515 73.0697 239.195 71.2988 239.195ZM71.0742 229.723C70.3451 229.723 69.7331 229.99 69.2383 230.523C68.7435 231.051 68.4375 231.793 68.3203 232.75H73.6133V232.613C73.5612 231.695 73.3138 230.986 72.8711 230.484C72.4284 229.977 71.8294 229.723 71.0742 229.723ZM83.6719 236.197C83.6719 235.709 83.4863 235.331 83.1152 235.064C82.7507 234.791 82.1094 234.557 81.1914 234.361C80.2799 234.166 79.554 233.932 79.0137 233.658C78.4798 233.385 78.0827 233.059 77.8223 232.682C77.5684 232.304 77.4414 231.855 77.4414 231.334C77.4414 230.468 77.806 229.736 78.5352 229.137C79.2708 228.538 80.2083 228.238 81.3477 228.238C82.5456 228.238 83.5156 228.548 84.2578 229.166C85.0065 229.785 85.3809 230.576 85.3809 231.539H83.5645C83.5645 231.044 83.3529 230.618 82.9297 230.26C82.513 229.902 81.9857 229.723 81.3477 229.723C80.6901 229.723 80.1758 229.866 79.8047 230.152C79.4336 230.439 79.248 230.813 79.248 231.275C79.248 231.712 79.4206 232.04 79.7656 232.262C80.1107 232.483 80.7324 232.695 81.6309 232.896C82.5358 233.098 83.2682 233.339 83.8281 233.619C84.388 233.899 84.8014 234.238 85.0684 234.635C85.3418 235.025 85.4785 235.504 85.4785 236.07C85.4785 237.014 85.1009 237.773 84.3457 238.346C83.5905 238.912 82.6107 239.195 81.4062 239.195C80.5599 239.195 79.8112 239.046 79.1602 238.746C78.5091 238.447 77.998 238.03 77.627 237.496C77.2624 236.956 77.0801 236.373 77.0801 235.748H78.8867C78.9193 236.354 79.1602 236.835 79.6094 237.193C80.0651 237.545 80.6641 237.721 81.4062 237.721C82.0898 237.721 82.6367 237.584 83.0469 237.311C83.4635 237.031 83.6719 236.66 83.6719 236.197ZM99.3164 239C99.2122 238.792 99.1276 238.421 99.0625 237.887C98.2227 238.759 97.2201 239.195 96.0547 239.195C95.013 239.195 94.1569 238.902 93.4863 238.316C92.8223 237.724 92.4902 236.975 92.4902 236.07C92.4902 234.97 92.9069 234.117 93.7402 233.512C94.5801 232.9 95.7585 232.594 97.2754 232.594H99.0332V231.764C99.0332 231.132 98.8444 230.631 98.4668 230.26C98.0892 229.882 97.5326 229.693 96.7969 229.693C96.1523 229.693 95.612 229.856 95.1758 230.182C94.7396 230.507 94.5215 230.901 94.5215 231.363H92.7051C92.7051 230.836 92.8906 230.328 93.2617 229.84C93.6393 229.345 94.1471 228.954 94.7852 228.668C95.4297 228.382 96.1361 228.238 96.9043 228.238C98.1217 228.238 99.0755 228.544 99.7656 229.156C100.456 229.762 100.814 230.598 100.84 231.666V236.529C100.84 237.499 100.964 238.271 101.211 238.844V239H99.3164ZM96.3184 237.623C96.8848 237.623 97.4219 237.477 97.9297 237.184C98.4375 236.891 98.8053 236.51 99.0332 236.041V233.873H97.6172C95.4036 233.873 94.2969 234.521 94.2969 235.816C94.2969 236.383 94.4857 236.826 94.8633 237.145C95.2409 237.464 95.7259 237.623 96.3184 237.623ZM108.779 230.055C108.506 230.009 108.21 229.986 107.891 229.986C106.706 229.986 105.902 230.491 105.479 231.5V239H103.672V228.434H105.43L105.459 229.654C106.051 228.71 106.891 228.238 107.979 228.238C108.33 228.238 108.597 228.284 108.779 228.375V230.055ZM114.639 239.195C113.206 239.195 112.041 238.727 111.143 237.789C110.244 236.845 109.795 235.585 109.795 234.01V233.678C109.795 232.63 109.993 231.695 110.391 230.875C110.794 230.048 111.354 229.404 112.07 228.941C112.793 228.473 113.574 228.238 114.414 228.238C115.788 228.238 116.855 228.691 117.617 229.596C118.379 230.501 118.76 231.796 118.76 233.482V234.234H111.602C111.628 235.276 111.93 236.119 112.51 236.764C113.096 237.402 113.838 237.721 114.736 237.721C115.374 237.721 115.915 237.59 116.357 237.33C116.8 237.07 117.188 236.725 117.52 236.295L118.623 237.154C117.738 238.515 116.41 239.195 114.639 239.195ZM114.414 229.723C113.685 229.723 113.073 229.99 112.578 230.523C112.083 231.051 111.777 231.793 111.66 232.75H116.953V232.613C116.901 231.695 116.654 230.986 116.211 230.484C115.768 229.977 115.169 229.723 114.414 229.723ZM134.746 233.834C134.746 235.442 134.378 236.738 133.643 237.721C132.907 238.704 131.911 239.195 130.654 239.195C129.372 239.195 128.363 238.788 127.627 237.975V243.062H125.82V228.434H127.471L127.559 229.605C128.294 228.694 129.316 228.238 130.625 228.238C131.895 228.238 132.897 228.717 133.633 229.674C134.375 230.631 134.746 231.962 134.746 233.668V233.834ZM132.939 233.629C132.939 232.438 132.686 231.497 132.178 230.807C131.67 230.117 130.973 229.771 130.088 229.771C128.994 229.771 128.174 230.257 127.627 231.227V236.275C128.167 237.239 128.994 237.721 130.107 237.721C130.973 237.721 131.66 237.379 132.168 236.695C132.682 236.005 132.939 234.983 132.939 233.629ZM139.014 239H137.207V224H139.014V239ZM148.438 239C148.333 238.792 148.249 238.421 148.184 237.887C147.344 238.759 146.341 239.195 145.176 239.195C144.134 239.195 143.278 238.902 142.607 238.316C141.943 237.724 141.611 236.975 141.611 236.07C141.611 234.97 142.028 234.117 142.861 233.512C143.701 232.9 144.88 232.594 146.396 232.594H148.154V231.764C148.154 231.132 147.965 230.631 147.588 230.26C147.21 229.882 146.654 229.693 145.918 229.693C145.273 229.693 144.733 229.856 144.297 230.182C143.861 230.507 143.643 230.901 143.643 231.363H141.826C141.826 230.836 142.012 230.328 142.383 229.84C142.76 229.345 143.268 228.954 143.906 228.668C144.551 228.382 145.257 228.238 146.025 228.238C147.243 228.238 148.197 228.544 148.887 229.156C149.577 229.762 149.935 230.598 149.961 231.666V236.529C149.961 237.499 150.085 238.271 150.332 238.844V239H148.438ZM145.439 237.623C146.006 237.623 146.543 237.477 147.051 237.184C147.559 236.891 147.926 236.51 148.154 236.041V233.873H146.738C144.525 233.873 143.418 234.521 143.418 235.816C143.418 236.383 143.607 236.826 143.984 237.145C144.362 237.464 144.847 237.623 145.439 237.623ZM157.031 237.721C157.676 237.721 158.239 237.525 158.721 237.135C159.202 236.744 159.469 236.256 159.521 235.67H161.23C161.198 236.275 160.99 236.852 160.605 237.398C160.221 237.945 159.707 238.382 159.062 238.707C158.424 239.033 157.747 239.195 157.031 239.195C155.592 239.195 154.447 238.717 153.594 237.76C152.747 236.796 152.324 235.481 152.324 233.814V233.512C152.324 232.483 152.513 231.568 152.891 230.768C153.268 229.967 153.809 229.345 154.512 228.902C155.221 228.46 156.058 228.238 157.021 228.238C158.206 228.238 159.189 228.593 159.971 229.303C160.758 230.012 161.178 230.934 161.23 232.066H159.521C159.469 231.383 159.209 230.823 158.74 230.387C158.278 229.944 157.705 229.723 157.021 229.723C156.104 229.723 155.391 230.055 154.883 230.719C154.382 231.376 154.131 232.33 154.131 233.58V233.922C154.131 235.139 154.382 236.077 154.883 236.734C155.384 237.392 156.1 237.721 157.031 237.721ZM167.646 239.195C166.214 239.195 165.049 238.727 164.15 237.789C163.252 236.845 162.803 235.585 162.803 234.01V233.678C162.803 232.63 163.001 231.695 163.398 230.875C163.802 230.048 164.362 229.404 165.078 228.941C165.801 228.473 166.582 228.238 167.422 228.238C168.796 228.238 169.863 228.691 170.625 229.596C171.387 230.501 171.768 231.796 171.768 233.482V234.234H164.609C164.635 235.276 164.938 236.119 165.518 236.764C166.104 237.402 166.846 237.721 167.744 237.721C168.382 237.721 168.923 237.59 169.365 237.33C169.808 237.07 170.195 236.725 170.527 236.295L171.631 237.154C170.745 238.515 169.417 239.195 167.646 239.195ZM167.422 229.723C166.693 229.723 166.081 229.99 165.586 230.523C165.091 231.051 164.785 231.793 164.668 232.75H169.961V232.613C169.909 231.695 169.661 230.986 169.219 230.484C168.776 229.977 168.177 229.723 167.422 229.723ZM173.428 233.629C173.428 232.008 173.812 230.706 174.58 229.723C175.348 228.733 176.354 228.238 177.598 228.238C178.835 228.238 179.814 228.661 180.537 229.508V224H182.344V239H180.684L180.596 237.867C179.873 238.753 178.867 239.195 177.578 239.195C176.354 239.195 175.355 238.694 174.58 237.691C173.812 236.689 173.428 235.38 173.428 233.766V233.629ZM175.234 233.834C175.234 235.032 175.482 235.969 175.977 236.646C176.471 237.324 177.155 237.662 178.027 237.662C179.173 237.662 180.01 237.148 180.537 236.119V231.266C179.997 230.27 179.167 229.771 178.047 229.771C177.161 229.771 176.471 230.113 175.977 230.797C175.482 231.48 175.234 232.493 175.234 233.834ZM192.08 239H190.273V228.434H192.08V239ZM190.127 225.631C190.127 225.338 190.215 225.09 190.391 224.889C190.573 224.687 190.84 224.586 191.191 224.586C191.543 224.586 191.81 224.687 191.992 224.889C192.174 225.09 192.266 225.338 192.266 225.631C192.266 225.924 192.174 226.168 191.992 226.363C191.81 226.559 191.543 226.656 191.191 226.656C190.84 226.656 190.573 226.559 190.391 226.363C190.215 226.168 190.127 225.924 190.127 225.631ZM196.689 228.434L196.748 229.762C197.555 228.746 198.61 228.238 199.912 228.238C202.145 228.238 203.271 229.498 203.291 232.018V239H201.484V232.008C201.478 231.246 201.302 230.683 200.957 230.318C200.618 229.954 200.088 229.771 199.365 229.771C198.779 229.771 198.265 229.928 197.822 230.24C197.38 230.553 197.035 230.963 196.787 231.471V239H194.98V228.434H196.689ZM217.129 236.197C217.129 235.709 216.943 235.331 216.572 235.064C216.208 234.791 215.566 234.557 214.648 234.361C213.737 234.166 213.011 233.932 212.471 233.658C211.937 233.385 211.54 233.059 211.279 232.682C211.025 232.304 210.898 231.855 210.898 231.334C210.898 230.468 211.263 229.736 211.992 229.137C212.728 228.538 213.665 228.238 214.805 228.238C216.003 228.238 216.973 228.548 217.715 229.166C218.464 229.785 218.838 230.576 218.838 231.539H217.021C217.021 231.044 216.81 230.618 216.387 230.26C215.97 229.902 215.443 229.723 214.805 229.723C214.147 229.723 213.633 229.866 213.262 230.152C212.891 230.439 212.705 230.813 212.705 231.275C212.705 231.712 212.878 232.04 213.223 232.262C213.568 232.483 214.189 232.695 215.088 232.896C215.993 233.098 216.725 233.339 217.285 233.619C217.845 233.899 218.258 234.238 218.525 234.635C218.799 235.025 218.936 235.504 218.936 236.07C218.936 237.014 218.558 237.773 217.803 238.346C217.048 238.912 216.068 239.195 214.863 239.195C214.017 239.195 213.268 239.046 212.617 238.746C211.966 238.447 211.455 238.03 211.084 237.496C210.719 236.956 210.537 236.373 210.537 235.748H212.344C212.376 236.354 212.617 236.835 213.066 237.193C213.522 237.545 214.121 237.721 214.863 237.721C215.547 237.721 216.094 237.584 216.504 237.311C216.921 237.031 217.129 236.66 217.129 236.197ZM225.674 239.195C224.242 239.195 223.076 238.727 222.178 237.789C221.279 236.845 220.83 235.585 220.83 234.01V233.678C220.83 232.63 221.029 231.695 221.426 230.875C221.829 230.048 222.389 229.404 223.105 228.941C223.828 228.473 224.609 228.238 225.449 228.238C226.823 228.238 227.891 228.691 228.652 229.596C229.414 230.501 229.795 231.796 229.795 233.482V234.234H222.637C222.663 235.276 222.965 236.119 223.545 236.764C224.131 237.402 224.873 237.721 225.771 237.721C226.41 237.721 226.95 237.59 227.393 237.33C227.835 237.07 228.223 236.725 228.555 236.295L229.658 237.154C228.773 238.515 227.445 239.195 225.674 239.195ZM225.449 229.723C224.72 229.723 224.108 229.99 223.613 230.523C223.118 231.051 222.812 231.793 222.695 232.75H227.988V232.613C227.936 231.695 227.689 230.986 227.246 230.484C226.803 229.977 226.204 229.723 225.449 229.723ZM236.133 237.721C236.777 237.721 237.34 237.525 237.822 237.135C238.304 236.744 238.571 236.256 238.623 235.67H240.332C240.299 236.275 240.091 236.852 239.707 237.398C239.323 237.945 238.809 238.382 238.164 238.707C237.526 239.033 236.849 239.195 236.133 239.195C234.694 239.195 233.548 238.717 232.695 237.76C231.849 236.796 231.426 235.481 231.426 233.814V233.512C231.426 232.483 231.615 231.568 231.992 230.768C232.37 229.967 232.91 229.345 233.613 228.902C234.323 228.46 235.16 228.238 236.123 228.238C237.308 228.238 238.291 228.593 239.072 229.303C239.86 230.012 240.28 230.934 240.332 232.066H238.623C238.571 231.383 238.311 230.823 237.842 230.387C237.38 229.944 236.807 229.723 236.123 229.723C235.205 229.723 234.492 230.055 233.984 230.719C233.483 231.376 233.232 232.33 233.232 233.58V233.922C233.232 235.139 233.483 236.077 233.984 236.734C234.486 237.392 235.202 237.721 236.133 237.721ZM248.887 237.955C248.184 238.782 247.152 239.195 245.791 239.195C244.665 239.195 243.805 238.87 243.213 238.219C242.627 237.561 242.331 236.591 242.324 235.309V228.434H244.131V235.26C244.131 236.861 244.782 237.662 246.084 237.662C247.464 237.662 248.382 237.148 248.838 236.119V228.434H250.645V239H248.926L248.887 237.955ZM258.506 230.055C258.232 230.009 257.936 229.986 257.617 229.986C256.432 229.986 255.628 230.491 255.205 231.5V239H253.398V228.434H255.156L255.186 229.654C255.778 228.71 256.618 228.238 257.705 228.238C258.057 228.238 258.324 228.284 258.506 228.375V230.055ZM262.139 239H260.332V228.434H262.139V239ZM260.186 225.631C260.186 225.338 260.273 225.09 260.449 224.889C260.632 224.687 260.898 224.586 261.25 224.586C261.602 224.586 261.868 224.687 262.051 224.889C262.233 225.09 262.324 225.338 262.324 225.631C262.324 225.924 262.233 226.168 262.051 226.363C261.868 226.559 261.602 226.656 261.25 226.656C260.898 226.656 260.632 226.559 260.449 226.363C260.273 226.168 260.186 225.924 260.186 225.631ZM267.49 225.875V228.434H269.463V229.83H267.49V236.383C267.49 236.806 267.578 237.125 267.754 237.34C267.93 237.548 268.229 237.652 268.652 237.652C268.861 237.652 269.147 237.613 269.512 237.535V239C269.036 239.13 268.574 239.195 268.125 239.195C267.318 239.195 266.709 238.951 266.299 238.463C265.889 237.975 265.684 237.281 265.684 236.383V229.83H263.76V228.434H265.684V225.875H267.49ZM275.039 236.354L277.5 228.434H279.434L275.186 240.631C274.528 242.389 273.483 243.268 272.051 243.268L271.709 243.238L271.035 243.111V241.646L271.523 241.686C272.135 241.686 272.611 241.562 272.949 241.314C273.294 241.067 273.577 240.615 273.799 239.957L274.199 238.883L270.43 228.434H272.402L275.039 236.354ZM82.2559 261.629C82.2559 259.982 82.6367 258.673 83.3984 257.703C84.1602 256.727 85.1693 256.238 86.4258 256.238C87.7148 256.238 88.7207 256.694 89.4434 257.605L89.5312 256.434H91.1816V266.746C91.1816 268.113 90.7747 269.191 89.9609 269.979C89.1536 270.766 88.0664 271.16 86.6992 271.16C85.9375 271.16 85.1921 270.997 84.4629 270.672C83.7337 270.346 83.1771 269.9 82.793 269.334L83.7305 268.25C84.5052 269.207 85.4525 269.686 86.5723 269.686C87.4512 269.686 88.1348 269.438 88.623 268.943C89.1178 268.449 89.3652 267.752 89.3652 266.854V265.945C88.6426 266.779 87.6562 267.195 86.4062 267.195C85.1693 267.195 84.1667 266.697 83.3984 265.701C82.6367 264.705 82.2559 263.348 82.2559 261.629ZM84.0723 261.834C84.0723 263.025 84.3164 263.963 84.8047 264.646C85.293 265.324 85.9766 265.662 86.8555 265.662C87.9948 265.662 88.8314 265.145 89.3652 264.109V259.285C88.8118 258.276 87.9818 257.771 86.875 257.771C85.9961 257.771 85.3092 258.113 84.8145 258.797C84.3197 259.48 84.0723 260.493 84.0723 261.834ZM100.439 265.955C99.7363 266.782 98.7044 267.195 97.3438 267.195C96.2174 267.195 95.3581 266.87 94.7656 266.219C94.1797 265.561 93.8835 264.591 93.877 263.309V256.434H95.6836V263.26C95.6836 264.861 96.3346 265.662 97.6367 265.662C99.0169 265.662 99.9349 265.148 100.391 264.119V256.434H102.197V267H100.479L100.439 265.955ZM111.475 267C111.37 266.792 111.286 266.421 111.221 265.887C110.381 266.759 109.378 267.195 108.213 267.195C107.171 267.195 106.315 266.902 105.645 266.316C104.98 265.724 104.648 264.975 104.648 264.07C104.648 262.97 105.065 262.117 105.898 261.512C106.738 260.9 107.917 260.594 109.434 260.594H111.191V259.764C111.191 259.132 111.003 258.631 110.625 258.26C110.247 257.882 109.691 257.693 108.955 257.693C108.311 257.693 107.77 257.856 107.334 258.182C106.898 258.507 106.68 258.901 106.68 259.363H104.863C104.863 258.836 105.049 258.328 105.42 257.84C105.798 257.345 106.305 256.954 106.943 256.668C107.588 256.382 108.294 256.238 109.062 256.238C110.28 256.238 111.234 256.544 111.924 257.156C112.614 257.762 112.972 258.598 112.998 259.666V264.529C112.998 265.499 113.122 266.271 113.369 266.844V267H111.475ZM108.477 265.623C109.043 265.623 109.58 265.477 110.088 265.184C110.596 264.891 110.964 264.51 111.191 264.041V261.873H109.775C107.562 261.873 106.455 262.521 106.455 263.816C106.455 264.383 106.644 264.826 107.021 265.145C107.399 265.464 107.884 265.623 108.477 265.623ZM120.938 258.055C120.664 258.009 120.368 257.986 120.049 257.986C118.864 257.986 118.06 258.491 117.637 259.5V267H115.83V256.434H117.588L117.617 257.654C118.21 256.71 119.049 256.238 120.137 256.238C120.488 256.238 120.755 256.284 120.938 256.375V258.055ZM121.973 261.629C121.973 260.008 122.357 258.706 123.125 257.723C123.893 256.733 124.899 256.238 126.143 256.238C127.38 256.238 128.359 256.661 129.082 257.508V252H130.889V267H129.229L129.141 265.867C128.418 266.753 127.412 267.195 126.123 267.195C124.899 267.195 123.9 266.694 123.125 265.691C122.357 264.689 121.973 263.38 121.973 261.766V261.629ZM123.779 261.834C123.779 263.032 124.027 263.969 124.521 264.646C125.016 265.324 125.7 265.662 126.572 265.662C127.718 265.662 128.555 265.148 129.082 264.119V259.266C128.542 258.27 127.712 257.771 126.592 257.771C125.706 257.771 125.016 258.113 124.521 258.797C124.027 259.48 123.779 260.493 123.779 261.834ZM138.086 267.195C136.654 267.195 135.488 266.727 134.59 265.789C133.691 264.845 133.242 263.585 133.242 262.01V261.678C133.242 260.63 133.441 259.695 133.838 258.875C134.242 258.048 134.801 257.404 135.518 256.941C136.24 256.473 137.021 256.238 137.861 256.238C139.235 256.238 140.303 256.691 141.064 257.596C141.826 258.501 142.207 259.796 142.207 261.482V262.234H135.049C135.075 263.276 135.378 264.119 135.957 264.764C136.543 265.402 137.285 265.721 138.184 265.721C138.822 265.721 139.362 265.59 139.805 265.33C140.247 265.07 140.635 264.725 140.967 264.295L142.07 265.154C141.185 266.515 139.857 267.195 138.086 267.195ZM137.861 257.723C137.132 257.723 136.52 257.99 136.025 258.523C135.531 259.051 135.225 259.793 135.107 260.75H140.4V260.613C140.348 259.695 140.101 258.986 139.658 258.484C139.215 257.977 138.617 257.723 137.861 257.723ZM143.867 261.629C143.867 260.008 144.251 258.706 145.02 257.723C145.788 256.733 146.794 256.238 148.037 256.238C149.274 256.238 150.254 256.661 150.977 257.508V252H152.783V267H151.123L151.035 265.867C150.312 266.753 149.307 267.195 148.018 267.195C146.794 267.195 145.794 266.694 145.02 265.691C144.251 264.689 143.867 263.38 143.867 261.766V261.629ZM145.674 261.834C145.674 263.032 145.921 263.969 146.416 264.646C146.911 265.324 147.594 265.662 148.467 265.662C149.613 265.662 150.449 265.148 150.977 264.119V259.266C150.436 258.27 149.606 257.771 148.486 257.771C147.601 257.771 146.911 258.113 146.416 258.797C145.921 259.48 145.674 260.493 145.674 261.834ZM167.08 267C166.976 266.792 166.891 266.421 166.826 265.887C165.986 266.759 164.984 267.195 163.818 267.195C162.777 267.195 161.921 266.902 161.25 266.316C160.586 265.724 160.254 264.975 160.254 264.07C160.254 262.97 160.671 262.117 161.504 261.512C162.344 260.9 163.522 260.594 165.039 260.594H166.797V259.764C166.797 259.132 166.608 258.631 166.23 258.26C165.853 257.882 165.296 257.693 164.561 257.693C163.916 257.693 163.376 257.856 162.939 258.182C162.503 258.507 162.285 258.901 162.285 259.363H160.469C160.469 258.836 160.654 258.328 161.025 257.84C161.403 257.345 161.911 256.954 162.549 256.668C163.193 256.382 163.9 256.238 164.668 256.238C165.885 256.238 166.839 256.544 167.529 257.156C168.219 257.762 168.577 258.598 168.604 259.666V264.529C168.604 265.499 168.727 266.271 168.975 266.844V267H167.08ZM164.082 265.623C164.648 265.623 165.186 265.477 165.693 265.184C166.201 264.891 166.569 264.51 166.797 264.041V261.873H165.381C163.167 261.873 162.061 262.521 162.061 263.816C162.061 264.383 162.249 264.826 162.627 265.145C163.005 265.464 163.49 265.623 164.082 265.623ZM176.543 258.055C176.27 258.009 175.973 257.986 175.654 257.986C174.469 257.986 173.665 258.491 173.242 259.5V267H171.436V256.434H173.193L173.223 257.654C173.815 256.71 174.655 256.238 175.742 256.238C176.094 256.238 176.361 256.284 176.543 256.375V258.055ZM182.402 267.195C180.97 267.195 179.805 266.727 178.906 265.789C178.008 264.845 177.559 263.585 177.559 262.01V261.678C177.559 260.63 177.757 259.695 178.154 258.875C178.558 258.048 179.118 257.404 179.834 256.941C180.557 256.473 181.338 256.238 182.178 256.238C183.551 256.238 184.619 256.691 185.381 257.596C186.143 258.501 186.523 259.796 186.523 261.482V262.234H179.365C179.391 263.276 179.694 264.119 180.273 264.764C180.859 265.402 181.602 265.721 182.5 265.721C183.138 265.721 183.678 265.59 184.121 265.33C184.564 265.07 184.951 264.725 185.283 264.295L186.387 265.154C185.501 266.515 184.173 267.195 182.402 267.195ZM182.178 257.723C181.449 257.723 180.837 257.99 180.342 258.523C179.847 259.051 179.541 259.793 179.424 260.75H184.717V260.613C184.665 259.695 184.417 258.986 183.975 258.484C183.532 257.977 182.933 257.723 182.178 257.723ZM195.146 267C195.042 266.792 194.958 266.421 194.893 265.887C194.053 266.759 193.05 267.195 191.885 267.195C190.843 267.195 189.987 266.902 189.316 266.316C188.652 265.724 188.32 264.975 188.32 264.07C188.32 262.97 188.737 262.117 189.57 261.512C190.41 260.9 191.589 260.594 193.105 260.594H194.863V259.764C194.863 259.132 194.674 258.631 194.297 258.26C193.919 257.882 193.363 257.693 192.627 257.693C191.982 257.693 191.442 257.856 191.006 258.182C190.57 258.507 190.352 258.901 190.352 259.363H188.535C188.535 258.836 188.721 258.328 189.092 257.84C189.469 257.345 189.977 256.954 190.615 256.668C191.26 256.382 191.966 256.238 192.734 256.238C193.952 256.238 194.906 256.544 195.596 257.156C196.286 257.762 196.644 258.598 196.67 259.666V264.529C196.67 265.499 196.794 266.271 197.041 266.844V267H195.146ZM192.148 265.623C192.715 265.623 193.252 265.477 193.76 265.184C194.268 264.891 194.635 264.51 194.863 264.041V261.873H193.447C191.234 261.873 190.127 262.521 190.127 263.816C190.127 264.383 190.316 264.826 190.693 265.145C191.071 265.464 191.556 265.623 192.148 265.623ZM205.654 264.197C205.654 263.709 205.469 263.331 205.098 263.064C204.733 262.791 204.092 262.557 203.174 262.361C202.262 262.166 201.536 261.932 200.996 261.658C200.462 261.385 200.065 261.059 199.805 260.682C199.551 260.304 199.424 259.855 199.424 259.334C199.424 258.468 199.788 257.736 200.518 257.137C201.253 256.538 202.191 256.238 203.33 256.238C204.528 256.238 205.498 256.548 206.24 257.166C206.989 257.785 207.363 258.576 207.363 259.539H205.547C205.547 259.044 205.335 258.618 204.912 258.26C204.495 257.902 203.968 257.723 203.33 257.723C202.673 257.723 202.158 257.866 201.787 258.152C201.416 258.439 201.23 258.813 201.23 259.275C201.23 259.712 201.403 260.04 201.748 260.262C202.093 260.483 202.715 260.695 203.613 260.896C204.518 261.098 205.251 261.339 205.811 261.619C206.37 261.899 206.784 262.238 207.051 262.635C207.324 263.025 207.461 263.504 207.461 264.07C207.461 265.014 207.083 265.773 206.328 266.346C205.573 266.912 204.593 267.195 203.389 267.195C202.542 267.195 201.794 267.046 201.143 266.746C200.492 266.447 199.98 266.03 199.609 265.496C199.245 264.956 199.062 264.373 199.062 263.748H200.869C200.902 264.354 201.143 264.835 201.592 265.193C202.048 265.545 202.646 265.721 203.389 265.721C204.072 265.721 204.619 265.584 205.029 265.311C205.446 265.031 205.654 264.66 205.654 264.197ZM209.854 266.053C209.854 265.74 209.945 265.48 210.127 265.271C210.316 265.063 210.596 264.959 210.967 264.959C211.338 264.959 211.618 265.063 211.807 265.271C212.002 265.48 212.1 265.74 212.1 266.053C212.1 266.352 212.002 266.603 211.807 266.805C211.618 267.007 211.338 267.107 210.967 267.107C210.596 267.107 210.316 267.007 210.127 266.805C209.945 266.603 209.854 266.352 209.854 266.053Z" fill="black"/>
<path d="M134.74 106.668C133.818 106.668 133.073 107.415 133.073 108.335C133.073 109.254 133.818 110.001 134.74 110.001H141.667C142.589 110.001 143.333 109.254 143.333 108.335C143.333 107.415 142.589 106.668 141.667 106.668H134.74Z" fill="#FFAC22"/>
<path d="M178.435 64.1368C181.373 69.5001 183.041 75.5284 183.298 81.6685H171.666C170.745 81.6685 170 82.4151 170 83.3351C170 84.255 170.745 85.0017 171.666 85.0017H185C185.921 85.0017 186.666 84.255 186.666 83.3351C186.666 76.0651 184.83 68.8718 181.356 62.5351C180.916 61.7284 179.901 61.4333 179.095 61.8751C178.288 62.3185 177.991 63.3302 178.435 64.1368Z" fill="#FFAC22"/>
<path d="M117.413 52.8637C123.319 47.8336 130.558 44.692 138.192 43.7037C127.894 52.7604 121.908 63.7637 120.395 76.4904C120.287 77.4037 120.94 78.232 121.853 78.3422C121.92 78.3488 121.987 78.3539 122.052 78.3539C122.885 78.3539 123.605 77.7307 123.707 76.884C125.277 63.6607 131.702 52.8141 143.334 43.7623C146.655 46.3506 149.59 49.1273 152.065 52.0273C152.667 52.7273 153.715 52.809 154.415 52.2123C155.115 51.6141 155.199 50.5623 154.602 49.8623C152.767 47.7141 150.677 45.6439 148.402 43.6539C158.03 44.8439 166.737 49.4172 173.152 56.6689H165.885C164.965 56.6689 164.219 57.4156 164.219 58.3355C164.219 59.2555 164.965 60.0021 165.885 60.0021H176.669H176.67C176.869 60.0021 177.065 59.9555 177.257 59.8838C177.324 59.8588 177.379 59.8221 177.441 59.7889C177.516 59.7488 177.594 59.7256 177.664 59.6738C177.697 59.6488 177.712 59.6121 177.744 59.5838C177.831 59.5088 177.901 59.4238 177.971 59.332C178.034 59.2471 178.096 59.1687 178.144 59.0754C178.189 58.9838 178.216 58.8871 178.244 58.7854C178.277 58.6754 178.304 58.567 178.312 58.452C178.314 58.4104 178.336 58.377 178.336 58.3354C178.336 58.2687 178.305 58.2137 178.299 58.1504C178.286 58.0354 178.267 57.9287 178.23 57.8188C178.195 57.7088 178.145 57.6104 178.089 57.5137C178.055 57.457 178.045 57.3938 178.007 57.3404C169.825 46.3303 157.198 40.0119 143.367 40.002H143.3C133.025 40.0053 123.065 43.6719 115.252 50.327C114.55 50.9236 114.469 51.9752 115.064 52.6752C115.662 53.3785 116.712 53.4586 117.413 52.8637Z" fill="#FFAC22"/>
<path d="M166.666 83.3348C166.666 73.6047 164.491 65.1514 160.02 57.4947C159.722 56.9814 159.173 56.668 158.58 56.668H136.277C135.355 56.668 134.61 57.4146 134.61 58.3346C134.61 59.2545 135.355 60.0012 136.277 60.0012H157.612C161.215 66.4762 163.087 73.5879 163.31 81.6678H128.333C127.412 81.6678 126.667 82.4145 126.667 83.3344C126.667 84.2543 127.412 85.001 128.333 85.001H165C165.922 85.0016 166.666 84.2549 166.666 83.3348Z" fill="#FFAC22"/>
<path d="M142.744 122.431C137.422 118.151 132.847 112.978 129.512 107.471C129.479 107.415 129.422 107.381 129.384 107.331C129.312 107.24 129.24 107.154 129.15 107.079C129.069 107.01 128.985 106.956 128.894 106.906C128.8 106.853 128.71 106.806 128.607 106.773C128.498 106.736 128.389 106.72 128.273 106.706C128.21 106.698 128.154 106.668 128.087 106.668H109.998C109.368 106.668 108.792 107.023 108.508 107.586C108.227 108.15 108.285 108.823 108.66 109.33C116.467 119.823 128.473 126.13 141.602 126.635C141.623 126.637 141.643 126.637 141.667 126.637C142.557 126.637 143.297 125.933 143.33 125.035C143.34 124.796 143.295 124.57 143.214 124.362C143.49 123.695 143.335 122.906 142.744 122.431ZM113.498 110.001H127.173C130.133 114.698 133.923 119.141 138.283 123.015C128.665 121.818 119.9 117.225 113.498 110.001Z" fill="#FFAC22"/>
<path d="M108.235 102.539C105.295 97.174 103.625 91.1441 103.368 85.0023H120.023C120.193 91.1574 121.313 96.9674 123.358 102.294C123.687 103.154 124.648 103.586 125.512 103.254C126.37 102.924 126.8 101.961 126.47 101.102C124.388 95.6754 123.333 89.697 123.333 83.3304V83.3254C123.33 82.3621 122.47 81.597 121.538 81.6687H101.667C100.745 81.6687 100 82.4154 100 83.3353C100 90.607 101.838 97.8019 105.313 104.142C105.615 104.694 106.187 105.007 106.775 105.007C107.047 105.007 107.322 104.94 107.575 104.802C108.382 104.359 108.678 103.346 108.235 102.539Z" fill="#FFAC22"/>
<path d="M102.181 76.5605C102.293 76.5855 102.405 76.5955 102.516 76.5955C103.291 76.5955 103.986 76.0522 104.146 75.2639C105.293 69.6656 107.556 64.5389 110.856 59.9973H121.666C122.588 59.9973 123.333 59.2506 123.333 58.3307C123.333 57.4107 122.588 56.6641 121.666 56.6641H110C109.963 56.6641 109.931 56.6824 109.895 56.6857C109.773 56.6941 109.663 56.7225 109.548 56.7557C109.451 56.7822 109.356 56.8074 109.268 56.8506C109.174 56.8973 109.095 56.9605 109.009 57.0256C108.918 57.0955 108.831 57.1623 108.754 57.2506C108.729 57.2789 108.694 57.2922 108.671 57.3238C104.804 62.4256 102.184 68.2355 100.881 74.5938C100.696 75.4957 101.28 76.3773 102.181 76.5605Z" fill="#FFAC22"/>
<path d="M179.5 105H178V99C178 94.0365 173.964 90 169 90C164.036 90 160 94.0365 160 99V105H158.5C154.365 105 151 108.364 151 112.5V127.5C151 131.635 154.364 135 158.5 135H179.5C183.636 135 187 131.636 187 127.5V112.5C187 108.365 183.636 105 179.5 105ZM163 99C163 95.6909 165.691 93.0001 169 93.0001C172.309 93.0001 175 95.6911 175 99V105H163V99H163ZM184 127.5C184 129.981 181.981 132 179.5 132H158.5C156.019 132 154 129.981 154 127.5V112.5C154 110.019 156.019 108 158.5 108H179.5C181.981 108 184 110.019 184 112.5V127.5H184Z" fill="#FFAC22"/>
<path d="M169 116C167.346 116 166 117.281 166 118.857C166 119.91 166.608 120.821 167.5 121.317V124.571C167.5 125.36 168.172 126 169 126C169.828 126 170.5 125.36 170.5 124.571V121.317C171.392 120.821 172 119.91 172 118.857C172 117.281 170.655 116 169 116Z" fill="#FFAC22"/>
</svg>
