<svg width="301" height="246" viewBox="0 0 301 246" fill="none" xmlns="http://www.w3.org/2000/svg">
<rect x="2" y="1.5" width="297" height="177" rx="14.5" stroke="white" stroke-width="3"/>
<path d="M86.5547 200.492C86.5547 201.202 86.3659 201.833 85.9883 202.387C85.6172 202.94 85.1126 203.373 84.4746 203.686C85.2168 204.005 85.8027 204.47 86.2324 205.082C86.6686 205.694 86.8867 206.387 86.8867 207.162C86.8867 208.393 86.4701 209.372 85.6367 210.102C84.8099 210.831 83.7194 211.195 82.3652 211.195C80.998 211.195 79.901 210.831 79.0742 210.102C78.2539 209.366 77.8438 208.386 77.8438 207.162C77.8438 206.394 78.0521 205.701 78.4688 205.082C78.8919 204.464 79.4746 203.995 80.2168 203.676C79.5853 203.363 79.0872 202.93 78.7227 202.377C78.3581 201.824 78.1758 201.195 78.1758 200.492C78.1758 199.294 78.5599 198.344 79.3281 197.641C80.0964 196.938 81.1087 196.586 82.3652 196.586C83.6152 196.586 84.6243 196.938 85.3926 197.641C86.1673 198.344 86.5547 199.294 86.5547 200.492ZM85.0801 207.123C85.0801 206.329 84.8262 205.681 84.3184 205.18C83.8171 204.678 83.1595 204.428 82.3457 204.428C81.5319 204.428 80.8776 204.675 80.3828 205.17C79.8945 205.665 79.6504 206.316 79.6504 207.123C79.6504 207.93 79.888 208.565 80.3633 209.027C80.8451 209.49 81.5124 209.721 82.3652 209.721C83.2116 209.721 83.8757 209.49 84.3574 209.027C84.8392 208.559 85.0801 207.924 85.0801 207.123ZM82.3652 198.07C81.6556 198.07 81.0794 198.292 80.6367 198.734C80.2005 199.171 79.9824 199.766 79.9824 200.521C79.9824 201.244 80.1973 201.83 80.627 202.279C81.0632 202.722 81.6426 202.943 82.3652 202.943C83.0879 202.943 83.6641 202.722 84.0938 202.279C84.5299 201.83 84.748 201.244 84.748 200.521C84.748 199.799 84.5234 199.21 84.0742 198.754C83.625 198.298 83.0553 198.07 82.3652 198.07ZM96.0176 200.434L96.0762 201.762C96.8835 200.746 97.9382 200.238 99.2402 200.238C101.473 200.238 102.6 201.498 102.619 204.018V211H100.812V204.008C100.806 203.246 100.63 202.683 100.285 202.318C99.9466 201.954 99.416 201.771 98.6934 201.771C98.1074 201.771 97.5931 201.928 97.1504 202.24C96.7077 202.553 96.3626 202.963 96.1152 203.471V211H94.3086V200.434H96.0176ZM109.729 211.195C108.296 211.195 107.131 210.727 106.232 209.789C105.334 208.845 104.885 207.585 104.885 206.01V205.678C104.885 204.63 105.083 203.695 105.48 202.875C105.884 202.048 106.444 201.404 107.16 200.941C107.883 200.473 108.664 200.238 109.504 200.238C110.878 200.238 111.945 200.691 112.707 201.596C113.469 202.501 113.85 203.796 113.85 205.482V206.234H106.691C106.717 207.276 107.02 208.119 107.6 208.764C108.186 209.402 108.928 209.721 109.826 209.721C110.464 209.721 111.005 209.59 111.447 209.33C111.89 209.07 112.277 208.725 112.609 208.295L113.713 209.154C112.827 210.515 111.499 211.195 109.729 211.195ZM109.504 201.723C108.775 201.723 108.163 201.99 107.668 202.523C107.173 203.051 106.867 203.793 106.75 204.75H112.043V204.613C111.991 203.695 111.743 202.986 111.301 202.484C110.858 201.977 110.259 201.723 109.504 201.723ZM122.473 209.955C121.77 210.782 120.738 211.195 119.377 211.195C118.251 211.195 117.391 210.87 116.799 210.219C116.213 209.561 115.917 208.591 115.91 207.309V200.434H117.717V207.26C117.717 208.861 118.368 209.662 119.67 209.662C121.05 209.662 121.968 209.148 122.424 208.119V200.434H124.23V211H122.512L122.473 209.955ZM132.092 202.055C131.818 202.009 131.522 201.986 131.203 201.986C130.018 201.986 129.214 202.491 128.791 203.5V211H126.984V200.434H128.742L128.771 201.654C129.364 200.71 130.204 200.238 131.291 200.238C131.643 200.238 131.91 200.284 132.092 200.375V202.055ZM139.895 211C139.79 210.792 139.706 210.421 139.641 209.887C138.801 210.759 137.798 211.195 136.633 211.195C135.591 211.195 134.735 210.902 134.064 210.316C133.4 209.724 133.068 208.975 133.068 208.07C133.068 206.97 133.485 206.117 134.318 205.512C135.158 204.9 136.337 204.594 137.854 204.594H139.611V203.764C139.611 203.132 139.423 202.631 139.045 202.26C138.667 201.882 138.111 201.693 137.375 201.693C136.73 201.693 136.19 201.856 135.754 202.182C135.318 202.507 135.1 202.901 135.1 203.363H133.283C133.283 202.836 133.469 202.328 133.84 201.84C134.217 201.345 134.725 200.954 135.363 200.668C136.008 200.382 136.714 200.238 137.482 200.238C138.7 200.238 139.654 200.544 140.344 201.156C141.034 201.762 141.392 202.598 141.418 203.666V208.529C141.418 209.499 141.542 210.271 141.789 210.844V211H139.895ZM136.896 209.623C137.463 209.623 138 209.477 138.508 209.184C139.016 208.891 139.383 208.51 139.611 208.041V205.873H138.195C135.982 205.873 134.875 206.521 134.875 207.816C134.875 208.383 135.064 208.826 135.441 209.145C135.819 209.464 136.304 209.623 136.896 209.623ZM146.213 211H144.406V196H146.213V211ZM155.783 200.434L155.842 201.762C156.649 200.746 157.704 200.238 159.006 200.238C161.239 200.238 162.365 201.498 162.385 204.018V211H160.578V204.008C160.572 203.246 160.396 202.683 160.051 202.318C159.712 201.954 159.182 201.771 158.459 201.771C157.873 201.771 157.359 201.928 156.916 202.24C156.473 202.553 156.128 202.963 155.881 203.471V211H154.074V200.434H155.783ZM169.494 211.195C168.062 211.195 166.896 210.727 165.998 209.789C165.1 208.845 164.65 207.585 164.65 206.01V205.678C164.65 204.63 164.849 203.695 165.246 202.875C165.65 202.048 166.21 201.404 166.926 200.941C167.648 200.473 168.43 200.238 169.27 200.238C170.643 200.238 171.711 200.691 172.473 201.596C173.234 202.501 173.615 203.796 173.615 205.482V206.234H166.457C166.483 207.276 166.786 208.119 167.365 208.764C167.951 209.402 168.693 209.721 169.592 209.721C170.23 209.721 170.77 209.59 171.213 209.33C171.656 209.07 172.043 208.725 172.375 208.295L173.479 209.154C172.593 210.515 171.265 211.195 169.494 211.195ZM169.27 201.723C168.54 201.723 167.928 201.99 167.434 202.523C166.939 203.051 166.633 203.793 166.516 204.75H171.809V204.613C171.757 203.695 171.509 202.986 171.066 202.484C170.624 201.977 170.025 201.723 169.27 201.723ZM178.166 197.875V200.434H180.139V201.83H178.166V208.383C178.166 208.806 178.254 209.125 178.43 209.34C178.605 209.548 178.905 209.652 179.328 209.652C179.536 209.652 179.823 209.613 180.188 209.535V211C179.712 211.13 179.25 211.195 178.801 211.195C177.993 211.195 177.385 210.951 176.975 210.463C176.564 209.975 176.359 209.281 176.359 208.383V201.83H174.436V200.434H176.359V197.875H178.166ZM191.613 208.51L193.645 200.434H195.451L192.375 211H190.91L188.342 202.992L185.842 211H184.377L181.311 200.434H183.107L185.188 208.344L187.648 200.434H189.104L191.613 208.51ZM196.818 205.619C196.818 204.584 197.02 203.653 197.424 202.826C197.834 201.999 198.4 201.361 199.123 200.912C199.852 200.463 200.682 200.238 201.613 200.238C203.052 200.238 204.214 200.736 205.1 201.732C205.992 202.729 206.438 204.053 206.438 205.707V205.834C206.438 206.863 206.239 207.787 205.842 208.607C205.451 209.421 204.888 210.056 204.152 210.512C203.423 210.967 202.583 211.195 201.633 211.195C200.201 211.195 199.038 210.697 198.146 209.701C197.261 208.705 196.818 207.387 196.818 205.746V205.619ZM198.635 205.834C198.635 207.006 198.905 207.947 199.445 208.656C199.992 209.366 200.721 209.721 201.633 209.721C202.551 209.721 203.28 209.363 203.82 208.646C204.361 207.924 204.631 206.915 204.631 205.619C204.631 204.46 204.354 203.523 203.801 202.807C203.254 202.084 202.525 201.723 201.613 201.723C200.721 201.723 200.002 202.077 199.455 202.787C198.908 203.497 198.635 204.512 198.635 205.834ZM213.811 202.055C213.537 202.009 213.241 201.986 212.922 201.986C211.737 201.986 210.933 202.491 210.51 203.5V211H208.703V200.434H210.461L210.49 201.654C211.083 200.71 211.923 200.238 213.01 200.238C213.361 200.238 213.628 200.284 213.811 200.375V202.055ZM218.43 206.107L217.297 207.289V211H215.49V196H217.297V205.072L218.264 203.91L221.555 200.434H223.752L219.641 204.848L224.23 211H222.111L218.43 206.107ZM88.8203 239C88.7161 238.792 88.6315 238.421 88.5664 237.887C87.7266 238.759 86.724 239.195 85.5586 239.195C84.5169 239.195 83.6608 238.902 82.9902 238.316C82.3262 237.724 81.9941 236.975 81.9941 236.07C81.9941 234.97 82.4108 234.117 83.2441 233.512C84.084 232.9 85.2624 232.594 86.7793 232.594H88.5371V231.764C88.5371 231.132 88.3483 230.631 87.9707 230.26C87.5931 229.882 87.0365 229.693 86.3008 229.693C85.6562 229.693 85.1159 229.856 84.6797 230.182C84.2435 230.507 84.0254 230.901 84.0254 231.363H82.209C82.209 230.836 82.3945 230.328 82.7656 229.84C83.1432 229.345 83.651 228.954 84.2891 228.668C84.9336 228.382 85.64 228.238 86.4082 228.238C87.6257 228.238 88.5794 228.544 89.2695 229.156C89.9596 229.762 90.3177 230.598 90.3438 231.666V236.529C90.3438 237.499 90.4674 238.271 90.7148 238.844V239H88.8203ZM85.8223 237.623C86.3887 237.623 86.9258 237.477 87.4336 237.184C87.9414 236.891 88.3092 236.51 88.5371 236.041V233.873H87.1211C84.9076 233.873 83.8008 234.521 83.8008 235.816C83.8008 236.383 83.9896 236.826 84.3672 237.145C84.7448 237.464 85.2298 237.623 85.8223 237.623ZM94.8848 228.434L94.9434 229.762C95.7507 228.746 96.8053 228.238 98.1074 228.238C100.34 228.238 101.467 229.498 101.486 232.018V239H99.6797V232.008C99.6732 231.246 99.4974 230.683 99.1523 230.318C98.8138 229.954 98.2832 229.771 97.5605 229.771C96.9746 229.771 96.4603 229.928 96.0176 230.24C95.5749 230.553 95.2298 230.963 94.9824 231.471V239H93.1758V228.434H94.8848ZM103.771 233.629C103.771 232.008 104.156 230.706 104.924 229.723C105.692 228.733 106.698 228.238 107.941 228.238C109.178 228.238 110.158 228.661 110.881 229.508V224H112.688V239H111.027L110.939 237.867C110.217 238.753 109.211 239.195 107.922 239.195C106.698 239.195 105.699 238.694 104.924 237.691C104.156 236.689 103.771 235.38 103.771 233.766V233.629ZM105.578 233.834C105.578 235.032 105.826 235.969 106.32 236.646C106.815 237.324 107.499 237.662 108.371 237.662C109.517 237.662 110.354 237.148 110.881 236.119V231.266C110.34 230.27 109.51 229.771 108.391 229.771C107.505 229.771 106.815 230.113 106.32 230.797C105.826 231.48 105.578 232.493 105.578 233.834ZM122.424 239H120.617V228.434H122.424V239ZM120.471 225.631C120.471 225.338 120.559 225.09 120.734 224.889C120.917 224.687 121.184 224.586 121.535 224.586C121.887 224.586 122.154 224.687 122.336 224.889C122.518 225.09 122.609 225.338 122.609 225.631C122.609 225.924 122.518 226.168 122.336 226.363C122.154 226.559 121.887 226.656 121.535 226.656C121.184 226.656 120.917 226.559 120.734 226.363C120.559 226.168 120.471 225.924 120.471 225.631ZM127.775 225.875V228.434H129.748V229.83H127.775V236.383C127.775 236.806 127.863 237.125 128.039 237.34C128.215 237.548 128.514 237.652 128.938 237.652C129.146 237.652 129.432 237.613 129.797 237.535V239C129.322 239.13 128.859 239.195 128.41 239.195C127.603 239.195 126.994 238.951 126.584 238.463C126.174 237.975 125.969 237.281 125.969 236.383V229.83H124.045V228.434H125.969V225.875H127.775ZM131.994 228.785L130.969 228.082C131.574 227.236 131.887 226.344 131.906 225.406V224H133.693V225.27C133.687 225.921 133.524 226.572 133.205 227.223C132.893 227.867 132.489 228.388 131.994 228.785ZM140.93 236.197C140.93 235.709 140.744 235.331 140.373 235.064C140.008 234.791 139.367 234.557 138.449 234.361C137.538 234.166 136.812 233.932 136.271 233.658C135.738 233.385 135.34 233.059 135.08 232.682C134.826 232.304 134.699 231.855 134.699 231.334C134.699 230.468 135.064 229.736 135.793 229.137C136.529 228.538 137.466 228.238 138.605 228.238C139.803 228.238 140.773 228.548 141.516 229.166C142.264 229.785 142.639 230.576 142.639 231.539H140.822C140.822 231.044 140.611 230.618 140.188 230.26C139.771 229.902 139.243 229.723 138.605 229.723C137.948 229.723 137.434 229.866 137.062 230.152C136.691 230.439 136.506 230.813 136.506 231.275C136.506 231.712 136.678 232.04 137.023 232.262C137.368 232.483 137.99 232.695 138.889 232.896C139.794 233.098 140.526 233.339 141.086 233.619C141.646 233.899 142.059 234.238 142.326 234.635C142.6 235.025 142.736 235.504 142.736 236.07C142.736 237.014 142.359 237.773 141.604 238.346C140.848 238.912 139.868 239.195 138.664 239.195C137.818 239.195 137.069 239.046 136.418 238.746C135.767 238.447 135.256 238.03 134.885 237.496C134.52 236.956 134.338 236.373 134.338 235.748H136.145C136.177 236.354 136.418 236.835 136.867 237.193C137.323 237.545 137.922 237.721 138.664 237.721C139.348 237.721 139.895 237.584 140.305 237.311C140.721 237.031 140.93 236.66 140.93 236.197ZM149.621 233.629C149.621 231.982 150.002 230.673 150.764 229.703C151.525 228.727 152.535 228.238 153.791 228.238C155.08 228.238 156.086 228.694 156.809 229.605L156.896 228.434H158.547V238.746C158.547 240.113 158.14 241.191 157.326 241.979C156.519 242.766 155.432 243.16 154.064 243.16C153.303 243.16 152.557 242.997 151.828 242.672C151.099 242.346 150.542 241.9 150.158 241.334L151.096 240.25C151.87 241.207 152.818 241.686 153.938 241.686C154.816 241.686 155.5 241.438 155.988 240.943C156.483 240.449 156.73 239.752 156.73 238.854V237.945C156.008 238.779 155.021 239.195 153.771 239.195C152.535 239.195 151.532 238.697 150.764 237.701C150.002 236.705 149.621 235.348 149.621 233.629ZM151.438 233.834C151.438 235.025 151.682 235.963 152.17 236.646C152.658 237.324 153.342 237.662 154.221 237.662C155.36 237.662 156.197 237.145 156.73 236.109V231.285C156.177 230.276 155.347 229.771 154.24 229.771C153.361 229.771 152.674 230.113 152.18 230.797C151.685 231.48 151.438 232.493 151.438 233.834ZM166.389 230.055C166.115 230.009 165.819 229.986 165.5 229.986C164.315 229.986 163.511 230.491 163.088 231.5V239H161.281V228.434H163.039L163.068 229.654C163.661 228.71 164.501 228.238 165.588 228.238C165.939 228.238 166.206 228.284 166.389 228.375V230.055ZM167.385 233.619C167.385 232.584 167.587 231.653 167.99 230.826C168.4 229.999 168.967 229.361 169.689 228.912C170.419 228.463 171.249 228.238 172.18 228.238C173.618 228.238 174.781 228.736 175.666 229.732C176.558 230.729 177.004 232.053 177.004 233.707V233.834C177.004 234.863 176.805 235.787 176.408 236.607C176.018 237.421 175.454 238.056 174.719 238.512C173.99 238.967 173.15 239.195 172.199 239.195C170.767 239.195 169.605 238.697 168.713 237.701C167.827 236.705 167.385 235.387 167.385 233.746V233.619ZM169.201 233.834C169.201 235.006 169.471 235.947 170.012 236.656C170.559 237.366 171.288 237.721 172.199 237.721C173.117 237.721 173.846 237.363 174.387 236.646C174.927 235.924 175.197 234.915 175.197 233.619C175.197 232.46 174.921 231.523 174.367 230.807C173.82 230.084 173.091 229.723 172.18 229.723C171.288 229.723 170.568 230.077 170.021 230.787C169.475 231.497 169.201 232.512 169.201 233.834ZM188.625 236.51L190.656 228.434H192.463L189.387 239H187.922L185.354 230.992L182.854 239H181.389L178.322 228.434H180.119L182.199 236.344L184.66 228.434H186.115L188.625 236.51ZM196.271 239H194.465V228.434H196.271V239ZM194.318 225.631C194.318 225.338 194.406 225.09 194.582 224.889C194.764 224.687 195.031 224.586 195.383 224.586C195.734 224.586 196.001 224.687 196.184 224.889C196.366 225.09 196.457 225.338 196.457 225.631C196.457 225.924 196.366 226.168 196.184 226.363C196.001 226.559 195.734 226.656 195.383 226.656C195.031 226.656 194.764 226.559 194.582 226.363C194.406 226.168 194.318 225.924 194.318 225.631ZM200.881 228.434L200.939 229.762C201.747 228.746 202.801 228.238 204.104 228.238C206.337 228.238 207.463 229.498 207.482 232.018V239H205.676V232.008C205.669 231.246 205.493 230.683 205.148 230.318C204.81 229.954 204.279 229.771 203.557 229.771C202.971 229.771 202.456 229.928 202.014 230.24C201.571 230.553 201.226 230.963 200.979 231.471V239H199.172V228.434H200.881ZM209.777 233.629C209.777 231.982 210.158 230.673 210.92 229.703C211.682 228.727 212.691 228.238 213.947 228.238C215.236 228.238 216.242 228.694 216.965 229.605L217.053 228.434H218.703V238.746C218.703 240.113 218.296 241.191 217.482 241.979C216.675 242.766 215.588 243.16 214.221 243.16C213.459 243.16 212.714 242.997 211.984 242.672C211.255 242.346 210.699 241.9 210.314 241.334L211.252 240.25C212.027 241.207 212.974 241.686 214.094 241.686C214.973 241.686 215.656 241.438 216.145 240.943C216.639 240.449 216.887 239.752 216.887 238.854V237.945C216.164 238.779 215.178 239.195 213.928 239.195C212.691 239.195 211.688 238.697 210.92 237.701C210.158 236.705 209.777 235.348 209.777 233.629ZM211.594 233.834C211.594 235.025 211.838 235.963 212.326 236.646C212.814 237.324 213.498 237.662 214.377 237.662C215.516 237.662 216.353 237.145 216.887 236.109V231.285C216.333 230.276 215.503 229.771 214.396 229.771C213.518 229.771 212.831 230.113 212.336 230.797C211.841 231.48 211.594 232.493 211.594 233.834Z" fill="black"/>
<path d="M196.372 85.2148C194.347 65.563 179.762 48.9331 160.428 44.5163C159.53 44.3097 158.638 44.873 158.433 45.7714C158.228 46.6681 158.788 47.563 159.687 47.7681C170.228 50.1747 179.245 56.5015 185.285 64.9997H179.202C178.28 64.9997 177.535 65.7464 177.535 66.6663C177.535 67.5863 178.28 68.3329 179.202 68.3329H187.423C190.43 73.4896 192.39 79.2812 193.042 85.3995C191.765 85.9462 190.777 87.0161 190.308 88.3329H180C179.078 88.3329 178.333 89.0796 178.333 89.9995C178.333 90.9195 179.078 91.6661 180 91.6661H190.308C190.998 93.6029 192.83 94.9995 195 94.9995C197.757 94.9995 200 92.7562 200 89.9995C200 87.7214 198.46 85.8163 196.372 85.2148ZM195 91.6663C194.08 91.6663 193.333 90.9181 193.333 89.9997C193.333 89.0997 194.053 88.3747 194.945 88.3447C194.96 88.3429 194.972 88.3429 194.987 88.3429C194.997 88.3411 195.003 88.3363 195.013 88.3345C195.927 88.3429 196.667 89.0845 196.667 89.9995C196.667 90.9181 195.92 91.6663 195 91.6663Z" fill="#FFAC22"/>
<path d="M105.616 82.4272C105.731 82.4504 105.846 82.4621 105.958 82.4621C106.731 82.4621 107.425 81.9221 107.59 81.1354C108.276 77.8303 109.371 74.6287 110.805 71.5803C111.086 71.6303 111.371 71.667 111.666 71.667C114.423 71.667 116.666 69.4236 116.666 66.667C116.666 63.9104 114.423 61.667 111.666 61.667C108.91 61.667 106.666 63.9104 106.666 66.667C106.666 67.9152 107.143 69.0453 107.901 69.9221C106.3 73.2787 105.085 76.8104 104.325 80.4555C104.136 81.357 104.716 82.2404 105.616 82.4272ZM111.666 65.0004C112.586 65.0004 113.333 65.7486 113.333 66.667C113.333 67.5854 112.586 68.3336 111.666 68.3336C110.746 68.3336 110 67.5854 110 66.667C110 65.7486 110.746 65.0004 111.666 65.0004Z" fill="#FFAC22"/>
<path d="M140.283 132.225C122.398 128.128 108.898 112.765 106.958 94.6C108.743 93.8367 110 92.0617 110 90C110 87.2434 107.757 85 105 85C102.243 85 100 87.2434 100 90C100 92.2783 101.54 94.1834 103.628 94.785C105.652 114.422 120.222 131.05 139.538 135.475C139.663 135.503 139.788 135.517 139.912 135.517C140.671 135.517 141.358 134.995 141.535 134.222C141.74 133.325 141.18 132.43 140.283 132.225ZM105.035 91.66C105.027 91.66 105.02 91.6566 105.013 91.6566C105.003 91.6584 104.997 91.6633 104.987 91.665C104.073 91.6566 103.333 90.915 103.333 90C103.333 89.0816 104.08 88.3334 105 88.3334C105.92 88.3334 106.666 89.0816 106.666 90C106.667 90.9066 105.937 91.64 105.035 91.66Z" fill="#FFAC22"/>
<path d="M194.38 97.5834C193.465 97.3951 192.595 97.9734 192.407 98.875C191.454 103.458 189.764 107.757 187.494 111.667H179.202C178.281 111.667 177.536 112.413 177.536 113.333C177.536 114.253 178.281 115 179.202 115H185.359C178.564 124.565 168.002 131.196 156.029 132.877C159.687 129.995 164.759 125.173 168.969 118.223C169.302 118.295 169.647 118.333 170 118.333C172.757 118.333 175 116.09 175 113.333C175 111.803 174.294 110.446 173.207 109.528C175.494 103.437 176.667 96.8781 176.667 89.9998C176.667 82.973 175.559 76.3631 173.399 70.3131C174.379 69.3998 175 68.108 175 66.6664C175 63.9098 172.757 61.6664 170 61.6664C169.789 61.6664 169.585 61.7031 169.381 61.7297C164.654 53.6764 158.696 48.6363 154.896 46.0131C154.965 45.6863 155.001 45.3465 155.001 44.9998C155 42.2434 152.757 40 150 40C147.732 40 145.834 41.5283 145.223 43.6018C133.879 44.7566 123.42 49.9801 115.652 58.4283C115.029 59.1051 115.074 60.16 115.75 60.7816C116.072 61.0766 116.475 61.2217 116.879 61.2217C117.327 61.2217 117.777 61.0416 118.105 60.6834C124.959 53.2316 134.065 48.4816 143.987 47.1066C139.682 50.49 133.657 56.3367 129.212 65H120.834C119.912 65 119.167 65.7467 119.167 66.6666C119.167 67.5865 119.912 68.3332 120.834 68.3332H127.652C125.255 73.9449 123.612 80.5916 123.399 88.3332H115C114.079 88.3332 113.334 89.0799 113.334 89.9998C113.334 90.9197 114.079 91.6664 115 91.6664H123.395C123.592 99.4731 125.098 106.115 127.34 111.666H120.833C119.912 111.666 119.167 112.413 119.167 113.333C119.167 114.253 119.912 115 120.833 115H128.825C133.692 124.926 140.675 130.936 145.103 133.99C145.035 134.316 145 134.653 145 135C145 137.756 147.243 140 150 140C152.278 140 154.183 138.46 154.783 136.373C174.833 134.315 191.548 119.373 195.672 99.5531C195.86 98.6533 195.28 97.7699 194.38 97.5834ZM170 115C169.08 115 168.334 114.252 168.334 113.333C168.334 112.415 169.08 111.667 170 111.667C170.92 111.667 171.667 112.415 171.667 113.333C171.667 114.252 170.92 115 170 115ZM170 65C170.92 65 171.667 65.7482 171.667 66.6666C171.667 67.585 170.92 68.3332 170 68.3332C169.08 68.3332 168.334 67.585 168.334 66.6666C168.334 65.7482 169.08 65 170 65ZM150 43.3334C150.92 43.3334 151.667 44.0816 151.667 45C151.667 45.9184 150.92 46.6666 150 46.6666C149.092 46.6666 148.357 45.935 148.34 45.0299C148.34 45.0248 148.342 45.0199 148.342 45.0133C148.342 45.0049 148.337 45 148.335 44.9916C148.34 44.0768 149.084 43.3334 150 43.3334ZM151.667 90C151.667 90.9184 150.92 91.6666 150 91.6666C149.08 91.6666 148.334 90.9184 148.334 90C148.334 89.0816 149.08 88.3334 150 88.3334C150.92 88.3334 151.667 89.0816 151.667 90ZM131.845 113.563C131.855 113.485 131.892 113.415 131.892 113.333C131.892 112.752 131.575 112.263 131.123 111.967C128.495 106.077 126.667 98.8449 126.667 90C126.667 80.925 128.779 73.4084 131.758 67.3199C131.76 67.3166 131.76 67.3148 131.762 67.3115C136.295 58.0482 142.83 52.0982 147.008 48.9814C147.408 49.2832 147.852 49.5215 148.333 49.6914V65H136.667C135.745 65 135 65.7467 135 66.6666C135 67.5865 135.745 68.3332 136.667 68.3332H148.333V85.3066C146.92 85.81 145.81 86.9217 145.308 88.3334H131.667C130.745 88.3334 130 89.0801 130 90C130 90.9199 130.745 91.6666 131.667 91.6666H145.308C145.81 93.0783 146.92 94.1898 148.333 94.6916V111.667H136.667C135.745 111.667 135 112.413 135 113.333C135 114.253 135.745 115 136.667 115H148.333V130.306C147.787 130.501 147.292 130.788 146.85 131.148C142.729 128.278 136.334 122.703 131.845 113.563ZM150 136.667C149.08 136.667 148.334 135.918 148.334 135C148.334 134.082 149.08 133.333 150 133.333C150.909 133.333 151.644 134.065 151.66 134.97C151.66 134.975 151.658 134.98 151.658 134.987C151.658 134.995 151.664 135 151.665 135.01C151.659 135.923 150.917 136.667 150 136.667ZM152.99 131.017C152.59 130.717 152.147 130.478 151.667 130.307V94.6934C153.602 94.0018 155 92.1701 155 90C155 87.8299 153.602 85.9982 151.667 85.3066V49.6934C152.212 49.4984 152.707 49.2133 153.147 48.8533C156.657 51.3 162.057 55.9217 166.39 63.225C165.91 63.7268 165.545 64.3316 165.309 65H155.834C154.912 65 154.167 65.7467 154.167 66.6666C154.167 67.5865 154.912 68.3332 155.834 68.3332H165.309C165.999 70.2699 167.83 71.6666 170 71.6666C170.114 71.6666 170.22 71.6398 170.33 71.6332C172.145 76.7883 173.142 82.3898 173.299 88.3332H160C159.079 88.3332 158.334 89.0799 158.334 89.9998C158.334 90.9197 159.079 91.6664 160 91.6664H173.297C173.125 97.5281 172.049 103.125 170.094 108.343C170.062 108.341 170.034 108.333 170 108.333C167.83 108.333 165.998 109.73 165.309 111.667H155.834C154.912 111.667 154.167 112.413 154.167 113.333C154.167 114.253 154.912 115 155.834 115H165.309C165.5 115.54 165.782 116.033 166.139 116.47C161.789 123.66 156.444 128.438 152.99 131.017Z" fill="#FFAC22"/>
</svg>
