<svg width="300" height="302" viewBox="0 0 300 302" fill="none" xmlns="http://www.w3.org/2000/svg">
<path d="M41.1328 205.434V211H39.2578V196.781H44.502C46.0579 196.781 47.2754 197.178 48.1543 197.973C49.0397 198.767 49.4824 199.818 49.4824 201.127C49.4824 202.507 49.0495 203.572 48.1836 204.32C47.3242 205.062 46.0905 205.434 44.4824 205.434H41.1328ZM41.1328 203.9H44.502C45.5046 203.9 46.2728 203.666 46.8066 203.197C47.3405 202.722 47.6074 202.038 47.6074 201.146C47.6074 200.3 47.3405 199.623 46.8066 199.115C46.2728 198.607 45.5404 198.344 44.6094 198.324H41.1328V203.9ZM56.6992 202.055C56.4258 202.009 56.1296 201.986 55.8105 201.986C54.6257 201.986 53.8216 202.491 53.3984 203.5V211H51.5918V200.434H53.3496L53.3789 201.654C53.9714 200.71 54.8112 200.238 55.8984 200.238C56.25 200.238 56.5169 200.284 56.6992 200.375V202.055ZM57.6953 205.619C57.6953 204.584 57.8971 203.653 58.3008 202.826C58.7109 201.999 59.2773 201.361 60 200.912C60.7292 200.463 61.5592 200.238 62.4902 200.238C63.929 200.238 65.0911 200.736 65.9766 201.732C66.8685 202.729 67.3145 204.053 67.3145 205.707V205.834C67.3145 206.863 67.1159 207.787 66.7188 208.607C66.3281 209.421 65.765 210.056 65.0293 210.512C64.3001 210.967 63.4603 211.195 62.5098 211.195C61.0775 211.195 59.9154 210.697 59.0234 209.701C58.138 208.705 57.6953 207.387 57.6953 205.746V205.619ZM59.5117 205.834C59.5117 207.006 59.7819 207.947 60.3223 208.656C60.8691 209.366 61.5983 209.721 62.5098 209.721C63.4277 209.721 64.1569 209.363 64.6973 208.646C65.2376 207.924 65.5078 206.915 65.5078 205.619C65.5078 204.46 65.2311 203.523 64.6777 202.807C64.1309 202.084 63.4017 201.723 62.4902 201.723C61.5983 201.723 60.8789 202.077 60.332 202.787C59.7852 203.497 59.5117 204.512 59.5117 205.834ZM72.0312 197.875V200.434H74.0039V201.83H72.0312V208.383C72.0312 208.806 72.1191 209.125 72.2949 209.34C72.4707 209.548 72.7702 209.652 73.1934 209.652C73.4017 209.652 73.6882 209.613 74.0527 209.535V211C73.5775 211.13 73.1152 211.195 72.666 211.195C71.8587 211.195 71.25 210.951 70.8398 210.463C70.4297 209.975 70.2246 209.281 70.2246 208.383V201.83H68.3008V200.434H70.2246V197.875H72.0312ZM80.5078 211.195C79.0755 211.195 77.9102 210.727 77.0117 209.789C76.1133 208.845 75.6641 207.585 75.6641 206.01V205.678C75.6641 204.63 75.8626 203.695 76.2598 202.875C76.6634 202.048 77.2233 201.404 77.9395 200.941C78.6621 200.473 79.4434 200.238 80.2832 200.238C81.6569 200.238 82.7246 200.691 83.4863 201.596C84.248 202.501 84.6289 203.796 84.6289 205.482V206.234H77.4707C77.4967 207.276 77.7995 208.119 78.3789 208.764C78.9648 209.402 79.707 209.721 80.6055 209.721C81.2435 209.721 81.7839 209.59 82.2266 209.33C82.6693 209.07 83.0566 208.725 83.3887 208.295L84.4922 209.154C83.6068 210.515 82.2786 211.195 80.5078 211.195ZM80.2832 201.723C79.554 201.723 78.9421 201.99 78.4473 202.523C77.9525 203.051 77.6465 203.793 77.5293 204.75H82.8223V204.613C82.7702 203.695 82.5228 202.986 82.0801 202.484C81.6374 201.977 81.0384 201.723 80.2832 201.723ZM90.9668 209.721C91.6113 209.721 92.1745 209.525 92.6562 209.135C93.138 208.744 93.4049 208.256 93.457 207.67H95.166C95.1335 208.275 94.9251 208.852 94.541 209.398C94.1569 209.945 93.6426 210.382 92.998 210.707C92.36 211.033 91.6829 211.195 90.9668 211.195C89.528 211.195 88.3822 210.717 87.5293 209.76C86.6829 208.796 86.2598 207.481 86.2598 205.814V205.512C86.2598 204.483 86.4486 203.568 86.8262 202.768C87.2038 201.967 87.7441 201.345 88.4473 200.902C89.1569 200.46 89.9935 200.238 90.957 200.238C92.1419 200.238 93.125 200.593 93.9062 201.303C94.694 202.012 95.1139 202.934 95.166 204.066H93.457C93.4049 203.383 93.1445 202.823 92.6758 202.387C92.2135 201.944 91.6406 201.723 90.957 201.723C90.0391 201.723 89.3262 202.055 88.8184 202.719C88.3171 203.376 88.0664 204.33 88.0664 205.58V205.922C88.0664 207.139 88.3171 208.077 88.8184 208.734C89.3197 209.392 90.0358 209.721 90.9668 209.721ZM99.6484 197.875V200.434H101.621V201.83H99.6484V208.383C99.6484 208.806 99.7363 209.125 99.9121 209.34C100.088 209.548 100.387 209.652 100.811 209.652C101.019 209.652 101.305 209.613 101.67 209.535V211C101.195 211.13 100.732 211.195 100.283 211.195C99.4759 211.195 98.8672 210.951 98.457 210.463C98.0469 209.975 97.8418 209.281 97.8418 208.383V201.83H95.918V200.434H97.8418V197.875H99.6484ZM105.703 211H103.896V200.434H105.703V211ZM103.75 197.631C103.75 197.338 103.838 197.09 104.014 196.889C104.196 196.687 104.463 196.586 104.814 196.586C105.166 196.586 105.433 196.687 105.615 196.889C105.798 197.09 105.889 197.338 105.889 197.631C105.889 197.924 105.798 198.168 105.615 198.363C105.433 198.559 105.166 198.656 104.814 198.656C104.463 198.656 104.196 198.559 104.014 198.363C103.838 198.168 103.75 197.924 103.75 197.631ZM108.125 205.619C108.125 204.584 108.327 203.653 108.73 202.826C109.141 201.999 109.707 201.361 110.43 200.912C111.159 200.463 111.989 200.238 112.92 200.238C114.359 200.238 115.521 200.736 116.406 201.732C117.298 202.729 117.744 204.053 117.744 205.707V205.834C117.744 206.863 117.546 207.787 117.148 208.607C116.758 209.421 116.195 210.056 115.459 210.512C114.73 210.967 113.89 211.195 112.939 211.195C111.507 211.195 110.345 210.697 109.453 209.701C108.568 208.705 108.125 207.387 108.125 205.746V205.619ZM109.941 205.834C109.941 207.006 110.212 207.947 110.752 208.656C111.299 209.366 112.028 209.721 112.939 209.721C113.857 209.721 114.587 209.363 115.127 208.646C115.667 207.924 115.938 206.915 115.938 205.619C115.938 204.46 115.661 203.523 115.107 202.807C114.561 202.084 113.831 201.723 112.92 201.723C112.028 201.723 111.309 202.077 110.762 202.787C110.215 203.497 109.941 204.512 109.941 205.834ZM121.719 200.434L121.777 201.762C122.585 200.746 123.639 200.238 124.941 200.238C127.174 200.238 128.301 201.498 128.32 204.018V211H126.514V204.008C126.507 203.246 126.331 202.683 125.986 202.318C125.648 201.954 125.117 201.771 124.395 201.771C123.809 201.771 123.294 201.928 122.852 202.24C122.409 202.553 122.064 202.963 121.816 203.471V211H120.01V200.434H121.719ZM131.084 210.053C131.084 209.74 131.175 209.48 131.357 209.271C131.546 209.063 131.826 208.959 132.197 208.959C132.568 208.959 132.848 209.063 133.037 209.271C133.232 209.48 133.33 209.74 133.33 210.053C133.33 210.352 133.232 210.603 133.037 210.805C132.848 211.007 132.568 211.107 132.197 211.107C131.826 211.107 131.546 211.007 131.357 210.805C131.175 210.603 131.084 210.352 131.084 210.053ZM149.6 204.428H143.438V209.467H150.596V211H141.562V196.781H150.498V198.324H143.438V202.895H149.6V204.428ZM159.17 211C159.066 210.792 158.981 210.421 158.916 209.887C158.076 210.759 157.074 211.195 155.908 211.195C154.867 211.195 154.01 210.902 153.34 210.316C152.676 209.724 152.344 208.975 152.344 208.07C152.344 206.97 152.76 206.117 153.594 205.512C154.434 204.9 155.612 204.594 157.129 204.594H158.887V203.764C158.887 203.132 158.698 202.631 158.32 202.26C157.943 201.882 157.386 201.693 156.65 201.693C156.006 201.693 155.465 201.856 155.029 202.182C154.593 202.507 154.375 202.901 154.375 203.363H152.559C152.559 202.836 152.744 202.328 153.115 201.84C153.493 201.345 154.001 200.954 154.639 200.668C155.283 200.382 155.99 200.238 156.758 200.238C157.975 200.238 158.929 200.544 159.619 201.156C160.309 201.762 160.667 202.598 160.693 203.666V208.529C160.693 209.499 160.817 210.271 161.064 210.844V211H159.17ZM156.172 209.623C156.738 209.623 157.275 209.477 157.783 209.184C158.291 208.891 158.659 208.51 158.887 208.041V205.873H157.471C155.257 205.873 154.15 206.521 154.15 207.816C154.15 208.383 154.339 208.826 154.717 209.145C155.094 209.464 155.579 209.623 156.172 209.623ZM167.764 209.721C168.408 209.721 168.971 209.525 169.453 209.135C169.935 208.744 170.202 208.256 170.254 207.67H171.963C171.93 208.275 171.722 208.852 171.338 209.398C170.954 209.945 170.439 210.382 169.795 210.707C169.157 211.033 168.48 211.195 167.764 211.195C166.325 211.195 165.179 210.717 164.326 209.76C163.48 208.796 163.057 207.481 163.057 205.814V205.512C163.057 204.483 163.245 203.568 163.623 202.768C164.001 201.967 164.541 201.345 165.244 200.902C165.954 200.46 166.79 200.238 167.754 200.238C168.939 200.238 169.922 200.593 170.703 201.303C171.491 202.012 171.911 202.934 171.963 204.066H170.254C170.202 203.383 169.941 202.823 169.473 202.387C169.01 201.944 168.438 201.723 167.754 201.723C166.836 201.723 166.123 202.055 165.615 202.719C165.114 203.376 164.863 204.33 164.863 205.58V205.922C164.863 207.139 165.114 208.077 165.615 208.734C166.117 209.392 166.833 209.721 167.764 209.721ZM175.801 201.713C176.602 200.73 177.643 200.238 178.926 200.238C181.159 200.238 182.285 201.498 182.305 204.018V211H180.498V204.008C180.492 203.246 180.316 202.683 179.971 202.318C179.632 201.954 179.102 201.771 178.379 201.771C177.793 201.771 177.279 201.928 176.836 202.24C176.393 202.553 176.048 202.963 175.801 203.471V211H173.994V196H175.801V201.713ZM191.67 200.434L191.719 201.605C192.493 200.694 193.538 200.238 194.854 200.238C196.331 200.238 197.337 200.805 197.871 201.938C198.223 201.43 198.678 201.02 199.238 200.707C199.805 200.395 200.472 200.238 201.24 200.238C203.558 200.238 204.736 201.465 204.775 203.92V211H202.969V204.027C202.969 203.272 202.796 202.709 202.451 202.338C202.106 201.96 201.527 201.771 200.713 201.771C200.042 201.771 199.486 201.973 199.043 202.377C198.6 202.774 198.343 203.311 198.271 203.988V211H196.455V204.076C196.455 202.54 195.703 201.771 194.199 201.771C193.014 201.771 192.204 202.276 191.768 203.285V211H189.961V200.434H191.67ZM207.031 205.619C207.031 204.584 207.233 203.653 207.637 202.826C208.047 201.999 208.613 201.361 209.336 200.912C210.065 200.463 210.895 200.238 211.826 200.238C213.265 200.238 214.427 200.736 215.312 201.732C216.204 202.729 216.65 204.053 216.65 205.707V205.834C216.65 206.863 216.452 207.787 216.055 208.607C215.664 209.421 215.101 210.056 214.365 210.512C213.636 210.967 212.796 211.195 211.846 211.195C210.413 211.195 209.251 210.697 208.359 209.701C207.474 208.705 207.031 207.387 207.031 205.746V205.619ZM208.848 205.834C208.848 207.006 209.118 207.947 209.658 208.656C210.205 209.366 210.934 209.721 211.846 209.721C212.764 209.721 213.493 209.363 214.033 208.646C214.574 207.924 214.844 206.915 214.844 205.619C214.844 204.46 214.567 203.523 214.014 202.807C213.467 202.084 212.738 201.723 211.826 201.723C210.934 201.723 210.215 202.077 209.668 202.787C209.121 203.497 208.848 204.512 208.848 205.834ZM218.477 205.629C218.477 204.008 218.861 202.706 219.629 201.723C220.397 200.733 221.403 200.238 222.646 200.238C223.883 200.238 224.863 200.661 225.586 201.508V196H227.393V211H225.732L225.645 209.867C224.922 210.753 223.916 211.195 222.627 211.195C221.403 211.195 220.404 210.694 219.629 209.691C218.861 208.689 218.477 207.38 218.477 205.766V205.629ZM220.283 205.834C220.283 207.032 220.531 207.969 221.025 208.646C221.52 209.324 222.204 209.662 223.076 209.662C224.222 209.662 225.059 209.148 225.586 208.119V203.266C225.046 202.27 224.215 201.771 223.096 201.771C222.21 201.771 221.52 202.113 221.025 202.797C220.531 203.48 220.283 204.493 220.283 205.834ZM236.729 209.955C236.025 210.782 234.993 211.195 233.633 211.195C232.507 211.195 231.647 210.87 231.055 210.219C230.469 209.561 230.173 208.591 230.166 207.309V200.434H231.973V207.26C231.973 208.861 232.624 209.662 233.926 209.662C235.306 209.662 236.224 209.148 236.68 208.119V200.434H238.486V211H236.768L236.729 209.955ZM243.203 211H241.396V196H243.203V211ZM252.627 211C252.523 210.792 252.438 210.421 252.373 209.887C251.533 210.759 250.531 211.195 249.365 211.195C248.324 211.195 247.467 210.902 246.797 210.316C246.133 209.724 245.801 208.975 245.801 208.07C245.801 206.97 246.217 206.117 247.051 205.512C247.891 204.9 249.069 204.594 250.586 204.594H252.344V203.764C252.344 203.132 252.155 202.631 251.777 202.26C251.4 201.882 250.843 201.693 250.107 201.693C249.463 201.693 248.923 201.856 248.486 202.182C248.05 202.507 247.832 202.901 247.832 203.363H246.016C246.016 202.836 246.201 202.328 246.572 201.84C246.95 201.345 247.458 200.954 248.096 200.668C248.74 200.382 249.447 200.238 250.215 200.238C251.432 200.238 252.386 200.544 253.076 201.156C253.766 201.762 254.124 202.598 254.15 203.666V208.529C254.15 209.499 254.274 210.271 254.521 210.844V211H252.627ZM249.629 209.623C250.195 209.623 250.732 209.477 251.24 209.184C251.748 208.891 252.116 208.51 252.344 208.041V205.873H250.928C248.714 205.873 247.607 206.521 247.607 207.816C247.607 208.383 247.796 208.826 248.174 209.145C248.551 209.464 249.036 209.623 249.629 209.623ZM262.09 202.055C261.816 202.009 261.52 201.986 261.201 201.986C260.016 201.986 259.212 202.491 258.789 203.5V211H256.982V200.434H258.74L258.77 201.654C259.362 200.71 260.202 200.238 261.289 200.238C261.641 200.238 261.908 200.284 262.09 200.375V202.055ZM39.375 237.721C40.0195 237.721 40.5827 237.525 41.0645 237.135C41.5462 236.744 41.8132 236.256 41.8652 235.67H43.5742C43.5417 236.275 43.3333 236.852 42.9492 237.398C42.5651 237.945 42.0508 238.382 41.4062 238.707C40.7682 239.033 40.0911 239.195 39.375 239.195C37.9362 239.195 36.7904 238.717 35.9375 237.76C35.0911 236.796 34.668 235.481 34.668 233.814V233.512C34.668 232.483 34.8568 231.568 35.2344 230.768C35.612 229.967 36.1523 229.345 36.8555 228.902C37.5651 228.46 38.4017 228.238 39.3652 228.238C40.5501 228.238 41.5332 228.593 42.3145 229.303C43.1022 230.012 43.5221 230.934 43.5742 232.066H41.8652C41.8132 231.383 41.5527 230.823 41.084 230.387C40.6217 229.944 40.0488 229.723 39.3652 229.723C38.4473 229.723 37.7344 230.055 37.2266 230.719C36.7253 231.376 36.4746 232.33 36.4746 233.58V233.922C36.4746 235.139 36.7253 236.077 37.2266 236.734C37.7279 237.392 38.444 237.721 39.375 237.721ZM49.9902 239.195C48.5579 239.195 47.3926 238.727 46.4941 237.789C45.5957 236.845 45.1465 235.585 45.1465 234.01V233.678C45.1465 232.63 45.3451 231.695 45.7422 230.875C46.1458 230.048 46.7057 229.404 47.4219 228.941C48.1445 228.473 48.9258 228.238 49.7656 228.238C51.1393 228.238 52.207 228.691 52.9688 229.596C53.7305 230.501 54.1113 231.796 54.1113 233.482V234.234H46.9531C46.9792 235.276 47.2819 236.119 47.8613 236.764C48.4473 237.402 49.1895 237.721 50.0879 237.721C50.7259 237.721 51.2663 237.59 51.709 237.33C52.1517 237.07 52.5391 236.725 52.8711 236.295L53.9746 237.154C53.0892 238.515 51.7611 239.195 49.9902 239.195ZM49.7656 229.723C49.0365 229.723 48.4245 229.99 47.9297 230.523C47.4349 231.051 47.1289 231.793 47.0117 232.75H52.3047V232.613C52.2526 231.695 52.0052 230.986 51.5625 230.484C51.1198 229.977 50.5208 229.723 49.7656 229.723ZM57.9199 228.434L57.9785 229.762C58.7858 228.746 59.8405 228.238 61.1426 228.238C63.3757 228.238 64.502 229.498 64.5215 232.018V239H62.7148V232.008C62.7083 231.246 62.5326 230.683 62.1875 230.318C61.849 229.954 61.3184 229.771 60.5957 229.771C60.0098 229.771 59.4954 229.928 59.0527 230.24C58.61 230.553 58.265 230.963 58.0176 231.471V239H56.2109V228.434H57.9199ZM69.6973 225.875V228.434H71.6699V229.83H69.6973V236.383C69.6973 236.806 69.7852 237.125 69.9609 237.34C70.1367 237.548 70.4362 237.652 70.8594 237.652C71.0677 237.652 71.3542 237.613 71.7188 237.535V239C71.2435 239.13 70.7812 239.195 70.332 239.195C69.5247 239.195 68.916 238.951 68.5059 238.463C68.0957 237.975 67.8906 237.281 67.8906 236.383V229.83H65.9668V228.434H67.8906V225.875H69.6973ZM78.8965 230.055C78.623 230.009 78.3268 229.986 78.0078 229.986C76.8229 229.986 76.0189 230.491 75.5957 231.5V239H73.7891V228.434H75.5469L75.5762 229.654C76.1686 228.71 77.0085 228.238 78.0957 228.238C78.4473 228.238 78.7142 228.284 78.8965 228.375V230.055ZM84.7559 239.195C83.3236 239.195 82.1582 238.727 81.2598 237.789C80.3613 236.845 79.9121 235.585 79.9121 234.01V233.678C79.9121 232.63 80.1107 231.695 80.5078 230.875C80.9115 230.048 81.4714 229.404 82.1875 228.941C82.9102 228.473 83.6914 228.238 84.5312 228.238C85.9049 228.238 86.9727 228.691 87.7344 229.596C88.4961 230.501 88.877 231.796 88.877 233.482V234.234H81.7188C81.7448 235.276 82.0475 236.119 82.627 236.764C83.2129 237.402 83.9551 237.721 84.8535 237.721C85.4915 237.721 86.0319 237.59 86.4746 237.33C86.9173 237.07 87.3047 236.725 87.6367 236.295L88.7402 237.154C87.8548 238.515 86.5267 239.195 84.7559 239.195ZM84.5312 229.723C83.8021 229.723 83.1901 229.99 82.6953 230.523C82.2005 231.051 81.8945 231.793 81.7773 232.75H87.0703V232.613C87.0182 231.695 86.7708 230.986 86.3281 230.484C85.8854 229.977 85.2865 229.723 84.5312 229.723ZM97.9004 239H96.0938V228.434H97.9004V239ZM95.9473 225.631C95.9473 225.338 96.0352 225.09 96.2109 224.889C96.3932 224.687 96.6602 224.586 97.0117 224.586C97.3633 224.586 97.6302 224.687 97.8125 224.889C97.9948 225.09 98.0859 225.338 98.0859 225.631C98.0859 225.924 97.9948 226.168 97.8125 226.363C97.6302 226.559 97.3633 226.656 97.0117 226.656C96.6602 226.656 96.3932 226.559 96.2109 226.363C96.0352 226.168 95.9473 225.924 95.9473 225.631ZM106.953 236.197C106.953 235.709 106.768 235.331 106.396 235.064C106.032 234.791 105.391 234.557 104.473 234.361C103.561 234.166 102.835 233.932 102.295 233.658C101.761 233.385 101.364 233.059 101.104 232.682C100.85 232.304 100.723 231.855 100.723 231.334C100.723 230.468 101.087 229.736 101.816 229.137C102.552 228.538 103.49 228.238 104.629 228.238C105.827 228.238 106.797 228.548 107.539 229.166C108.288 229.785 108.662 230.576 108.662 231.539H106.846C106.846 231.044 106.634 230.618 106.211 230.26C105.794 229.902 105.267 229.723 104.629 229.723C103.971 229.723 103.457 229.866 103.086 230.152C102.715 230.439 102.529 230.813 102.529 231.275C102.529 231.712 102.702 232.04 103.047 232.262C103.392 232.483 104.014 232.695 104.912 232.896C105.817 233.098 106.549 233.339 107.109 233.619C107.669 233.899 108.083 234.238 108.35 234.635C108.623 235.025 108.76 235.504 108.76 236.07C108.76 237.014 108.382 237.773 107.627 238.346C106.872 238.912 105.892 239.195 104.688 239.195C103.841 239.195 103.092 239.046 102.441 238.746C101.79 238.447 101.279 238.03 100.908 237.496C100.544 236.956 100.361 236.373 100.361 235.748H102.168C102.201 236.354 102.441 236.835 102.891 237.193C103.346 237.545 103.945 237.721 104.688 237.721C105.371 237.721 105.918 237.584 106.328 237.311C106.745 237.031 106.953 236.66 106.953 236.197ZM120.459 239.195C119.027 239.195 117.861 238.727 116.963 237.789C116.064 236.845 115.615 235.585 115.615 234.01V233.678C115.615 232.63 115.814 231.695 116.211 230.875C116.615 230.048 117.174 229.404 117.891 228.941C118.613 228.473 119.395 228.238 120.234 228.238C121.608 228.238 122.676 228.691 123.438 229.596C124.199 230.501 124.58 231.796 124.58 233.482V234.234H117.422C117.448 235.276 117.751 236.119 118.33 236.764C118.916 237.402 119.658 237.721 120.557 237.721C121.195 237.721 121.735 237.59 122.178 237.33C122.62 237.07 123.008 236.725 123.34 236.295L124.443 237.154C123.558 238.515 122.23 239.195 120.459 239.195ZM120.234 229.723C119.505 229.723 118.893 229.99 118.398 230.523C117.904 231.051 117.598 231.793 117.48 232.75H122.773V232.613C122.721 231.695 122.474 230.986 122.031 230.484C121.589 229.977 120.99 229.723 120.234 229.723ZM126.24 233.629C126.24 231.969 126.621 230.657 127.383 229.693C128.145 228.723 129.167 228.238 130.449 228.238C131.699 228.238 132.686 228.658 133.408 229.498L133.486 228.434H135.146V243.062H133.34V238.023C132.611 238.805 131.641 239.195 130.43 239.195C129.154 239.195 128.135 238.701 127.373 237.711C126.618 236.715 126.24 235.396 126.24 233.756V233.629ZM128.047 233.834C128.047 235.045 128.301 235.995 128.809 236.686C129.323 237.376 130.013 237.721 130.879 237.721C131.953 237.721 132.773 237.245 133.34 236.295V231.119C132.767 230.188 131.953 229.723 130.898 229.723C130.026 229.723 129.333 230.071 128.818 230.768C128.304 231.458 128.047 232.48 128.047 233.834ZM144.57 237.955C143.867 238.782 142.835 239.195 141.475 239.195C140.348 239.195 139.489 238.87 138.896 238.219C138.311 237.561 138.014 236.591 138.008 235.309V228.434H139.814V235.26C139.814 236.861 140.465 237.662 141.768 237.662C143.148 237.662 144.066 237.148 144.521 236.119V228.434H146.328V239H144.609L144.57 237.955ZM151.045 239H149.238V228.434H151.045V239ZM149.092 225.631C149.092 225.338 149.18 225.09 149.355 224.889C149.538 224.687 149.805 224.586 150.156 224.586C150.508 224.586 150.775 224.687 150.957 224.889C151.139 225.09 151.23 225.338 151.23 225.631C151.23 225.924 151.139 226.168 150.957 226.363C150.775 226.559 150.508 226.656 150.156 226.656C149.805 226.656 149.538 226.559 149.355 226.363C149.18 226.168 149.092 225.924 149.092 225.631ZM162.871 233.834C162.871 235.442 162.503 236.738 161.768 237.721C161.032 238.704 160.036 239.195 158.779 239.195C157.497 239.195 156.488 238.788 155.752 237.975V243.062H153.945V228.434H155.596L155.684 229.605C156.419 228.694 157.441 228.238 158.75 228.238C160.02 228.238 161.022 228.717 161.758 229.674C162.5 230.631 162.871 231.962 162.871 233.668V233.834ZM161.064 233.629C161.064 232.438 160.811 231.497 160.303 230.807C159.795 230.117 159.098 229.771 158.213 229.771C157.119 229.771 156.299 230.257 155.752 231.227V236.275C156.292 237.239 157.119 237.721 158.232 237.721C159.098 237.721 159.785 237.379 160.293 236.695C160.807 236.005 161.064 234.983 161.064 233.629ZM174.102 233.834C174.102 235.442 173.734 236.738 172.998 237.721C172.262 238.704 171.266 239.195 170.01 239.195C168.727 239.195 167.718 238.788 166.982 237.975V243.062H165.176V228.434H166.826L166.914 229.605C167.65 228.694 168.672 228.238 169.98 228.238C171.25 228.238 172.253 228.717 172.988 229.674C173.73 230.631 174.102 231.962 174.102 233.668V233.834ZM172.295 233.629C172.295 232.438 172.041 231.497 171.533 230.807C171.025 230.117 170.329 229.771 169.443 229.771C168.35 229.771 167.529 230.257 166.982 231.227V236.275C167.523 237.239 168.35 237.721 169.463 237.721C170.329 237.721 171.016 237.379 171.523 236.695C172.038 236.005 172.295 234.983 172.295 233.629ZM180.791 239.195C179.359 239.195 178.193 238.727 177.295 237.789C176.396 236.845 175.947 235.585 175.947 234.01V233.678C175.947 232.63 176.146 231.695 176.543 230.875C176.947 230.048 177.507 229.404 178.223 228.941C178.945 228.473 179.727 228.238 180.566 228.238C181.94 228.238 183.008 228.691 183.77 229.596C184.531 230.501 184.912 231.796 184.912 233.482V234.234H177.754C177.78 235.276 178.083 236.119 178.662 236.764C179.248 237.402 179.99 237.721 180.889 237.721C181.527 237.721 182.067 237.59 182.51 237.33C182.952 237.07 183.34 236.725 183.672 236.295L184.775 237.154C183.89 238.515 182.562 239.195 180.791 239.195ZM180.566 229.723C179.837 229.723 179.225 229.99 178.73 230.523C178.236 231.051 177.93 231.793 177.812 232.75H183.105V232.613C183.053 231.695 182.806 230.986 182.363 230.484C181.921 229.977 181.322 229.723 180.566 229.723ZM186.572 233.629C186.572 232.008 186.956 230.706 187.725 229.723C188.493 228.733 189.499 228.238 190.742 228.238C191.979 228.238 192.959 228.661 193.682 229.508V224H195.488V239H193.828L193.74 237.867C193.018 238.753 192.012 239.195 190.723 239.195C189.499 239.195 188.499 238.694 187.725 237.691C186.956 236.689 186.572 235.38 186.572 233.766V233.629ZM188.379 233.834C188.379 235.032 188.626 235.969 189.121 236.646C189.616 237.324 190.299 237.662 191.172 237.662C192.318 237.662 193.154 237.148 193.682 236.119V231.266C193.141 230.27 192.311 229.771 191.191 229.771C190.306 229.771 189.616 230.113 189.121 230.797C188.626 231.48 188.379 232.493 188.379 233.834ZM212.617 236.51L214.648 228.434H216.455L213.379 239H211.914L209.346 230.992L206.846 239H205.381L202.314 228.434H204.111L206.191 236.344L208.652 228.434H210.107L212.617 236.51ZM220.264 239H218.457V228.434H220.264V239ZM218.311 225.631C218.311 225.338 218.398 225.09 218.574 224.889C218.757 224.687 219.023 224.586 219.375 224.586C219.727 224.586 219.993 224.687 220.176 224.889C220.358 225.09 220.449 225.338 220.449 225.631C220.449 225.924 220.358 226.168 220.176 226.363C219.993 226.559 219.727 226.656 219.375 226.656C219.023 226.656 218.757 226.559 218.574 226.363C218.398 226.168 218.311 225.924 218.311 225.631ZM225.615 225.875V228.434H227.588V229.83H225.615V236.383C225.615 236.806 225.703 237.125 225.879 237.34C226.055 237.548 226.354 237.652 226.777 237.652C226.986 237.652 227.272 237.613 227.637 237.535V239C227.161 239.13 226.699 239.195 226.25 239.195C225.443 239.195 224.834 238.951 224.424 238.463C224.014 237.975 223.809 237.281 223.809 236.383V229.83H221.885V228.434H223.809V225.875H225.615ZM231.514 229.713C232.314 228.73 233.356 228.238 234.639 228.238C236.872 228.238 237.998 229.498 238.018 232.018V239H236.211V232.008C236.204 231.246 236.029 230.683 235.684 230.318C235.345 229.954 234.814 229.771 234.092 229.771C233.506 229.771 232.992 229.928 232.549 230.24C232.106 230.553 231.761 230.963 231.514 231.471V239H229.707V224H231.514V229.713ZM252.207 239C252.103 238.792 252.018 238.421 251.953 237.887C251.113 238.759 250.111 239.195 248.945 239.195C247.904 239.195 247.048 238.902 246.377 238.316C245.713 237.724 245.381 236.975 245.381 236.07C245.381 234.97 245.798 234.117 246.631 233.512C247.471 232.9 248.649 232.594 250.166 232.594H251.924V231.764C251.924 231.132 251.735 230.631 251.357 230.26C250.98 229.882 250.423 229.693 249.688 229.693C249.043 229.693 248.503 229.856 248.066 230.182C247.63 230.507 247.412 230.901 247.412 231.363H245.596C245.596 230.836 245.781 230.328 246.152 229.84C246.53 229.345 247.038 228.954 247.676 228.668C248.32 228.382 249.027 228.238 249.795 228.238C251.012 228.238 251.966 228.544 252.656 229.156C253.346 229.762 253.704 230.598 253.73 231.666V236.529C253.73 237.499 253.854 238.271 254.102 238.844V239H252.207ZM249.209 237.623C249.775 237.623 250.312 237.477 250.82 237.184C251.328 236.891 251.696 236.51 251.924 236.041V233.873H250.508C248.294 233.873 247.188 234.521 247.188 235.816C247.188 236.383 247.376 236.826 247.754 237.145C248.132 237.464 248.617 237.623 249.209 237.623ZM258.271 228.434L258.33 229.762C259.137 228.746 260.192 228.238 261.494 228.238C263.727 228.238 264.854 229.498 264.873 232.018V239H263.066V232.008C263.06 231.246 262.884 230.683 262.539 230.318C262.201 229.954 261.67 229.771 260.947 229.771C260.361 229.771 259.847 229.928 259.404 230.24C258.962 230.553 258.617 230.963 258.369 231.471V239H256.562V228.434H258.271ZM52.8613 267.195C51.429 267.195 50.2637 266.727 49.3652 265.789C48.4668 264.845 48.0176 263.585 48.0176 262.01V261.678C48.0176 260.63 48.2161 259.695 48.6133 258.875C49.0169 258.048 49.5768 257.404 50.293 256.941C51.0156 256.473 51.7969 256.238 52.6367 256.238C54.0104 256.238 55.0781 256.691 55.8398 257.596C56.6016 258.501 56.9824 259.796 56.9824 261.482V262.234H49.8242C49.8503 263.276 50.153 264.119 50.7324 264.764C51.3184 265.402 52.0605 265.721 52.959 265.721C53.597 265.721 54.1374 265.59 54.5801 265.33C55.0228 265.07 55.4102 264.725 55.7422 264.295L56.8457 265.154C55.9603 266.515 54.6322 267.195 52.8613 267.195ZM52.6367 257.723C51.9076 257.723 51.2956 257.99 50.8008 258.523C50.306 259.051 50 259.793 49.8828 260.75H55.1758V260.613C55.1237 259.695 54.8763 258.986 54.4336 258.484C53.9909 257.977 53.3919 257.723 52.6367 257.723ZM59.9707 267V257.83H58.3008V256.434H59.9707V255.35C59.9707 254.217 60.2734 253.341 60.8789 252.723C61.4844 252.104 62.3405 251.795 63.4473 251.795C63.8639 251.795 64.2773 251.85 64.6875 251.961L64.5898 253.426C64.2839 253.367 63.9583 253.338 63.6133 253.338C63.0273 253.338 62.5749 253.51 62.2559 253.855C61.9368 254.194 61.7773 254.682 61.7773 255.32V256.434H64.0332V257.83H61.7773V267H59.9707ZM66.9238 267V257.83H65.2539V256.434H66.9238V255.35C66.9238 254.217 67.2266 253.341 67.832 252.723C68.4375 252.104 69.2936 251.795 70.4004 251.795C70.8171 251.795 71.2305 251.85 71.6406 251.961L71.543 253.426C71.237 253.367 70.9115 253.338 70.5664 253.338C69.9805 253.338 69.528 253.51 69.209 253.855C68.89 254.194 68.7305 254.682 68.7305 255.32V256.434H70.9863V257.83H68.7305V267H66.9238ZM77.1387 267.195C75.7064 267.195 74.541 266.727 73.6426 265.789C72.7441 264.845 72.2949 263.585 72.2949 262.01V261.678C72.2949 260.63 72.4935 259.695 72.8906 258.875C73.2943 258.048 73.8542 257.404 74.5703 256.941C75.293 256.473 76.0742 256.238 76.9141 256.238C78.2878 256.238 79.3555 256.691 80.1172 257.596C80.8789 258.501 81.2598 259.796 81.2598 261.482V262.234H74.1016C74.1276 263.276 74.4303 264.119 75.0098 264.764C75.5957 265.402 76.3379 265.721 77.2363 265.721C77.8743 265.721 78.4147 265.59 78.8574 265.33C79.3001 265.07 79.6875 264.725 80.0195 264.295L81.123 265.154C80.2376 266.515 78.9095 267.195 77.1387 267.195ZM76.9141 257.723C76.1849 257.723 75.5729 257.99 75.0781 258.523C74.5833 259.051 74.2773 259.793 74.1602 260.75H79.4531V260.613C79.401 259.695 79.1536 258.986 78.7109 258.484C78.2682 257.977 77.6693 257.723 76.9141 257.723ZM87.5977 265.721C88.2422 265.721 88.8053 265.525 89.2871 265.135C89.7689 264.744 90.0358 264.256 90.0879 263.67H91.7969C91.7643 264.275 91.556 264.852 91.1719 265.398C90.7878 265.945 90.2734 266.382 89.6289 266.707C88.9909 267.033 88.3138 267.195 87.5977 267.195C86.1589 267.195 85.013 266.717 84.1602 265.76C83.3138 264.796 82.8906 263.481 82.8906 261.814V261.512C82.8906 260.483 83.0794 259.568 83.457 258.768C83.8346 257.967 84.375 257.345 85.0781 256.902C85.7878 256.46 86.6243 256.238 87.5879 256.238C88.7728 256.238 89.7559 256.593 90.5371 257.303C91.3249 258.012 91.7448 258.934 91.7969 260.066H90.0879C90.0358 259.383 89.7754 258.823 89.3066 258.387C88.8444 257.944 88.2715 257.723 87.5879 257.723C86.6699 257.723 85.957 258.055 85.4492 258.719C84.9479 259.376 84.6973 260.33 84.6973 261.58V261.922C84.6973 263.139 84.9479 264.077 85.4492 264.734C85.9505 265.392 86.6667 265.721 87.5977 265.721ZM96.2793 253.875V256.434H98.252V257.83H96.2793V264.383C96.2793 264.806 96.3672 265.125 96.543 265.34C96.7188 265.548 97.0182 265.652 97.4414 265.652C97.6497 265.652 97.9362 265.613 98.3008 265.535V267C97.8255 267.13 97.3633 267.195 96.9141 267.195C96.1068 267.195 95.498 266.951 95.0879 266.463C94.6777 265.975 94.4727 265.281 94.4727 264.383V257.83H92.5488V256.434H94.4727V253.875H96.2793ZM102.334 267H100.527V256.434H102.334V267ZM100.381 253.631C100.381 253.338 100.469 253.09 100.645 252.889C100.827 252.687 101.094 252.586 101.445 252.586C101.797 252.586 102.064 252.687 102.246 252.889C102.428 253.09 102.52 253.338 102.52 253.631C102.52 253.924 102.428 254.168 102.246 254.363C102.064 254.559 101.797 254.656 101.445 254.656C101.094 254.656 100.827 254.559 100.645 254.363C100.469 254.168 100.381 253.924 100.381 253.631ZM108.721 264.549L111.338 256.434H113.184L109.395 267H108.018L104.189 256.434H106.035L108.721 264.549ZM119.17 267.195C117.738 267.195 116.572 266.727 115.674 265.789C114.775 264.845 114.326 263.585 114.326 262.01V261.678C114.326 260.63 114.525 259.695 114.922 258.875C115.326 258.048 115.885 257.404 116.602 256.941C117.324 256.473 118.105 256.238 118.945 256.238C120.319 256.238 121.387 256.691 122.148 257.596C122.91 258.501 123.291 259.796 123.291 261.482V262.234H116.133C116.159 263.276 116.462 264.119 117.041 264.764C117.627 265.402 118.369 265.721 119.268 265.721C119.906 265.721 120.446 265.59 120.889 265.33C121.331 265.07 121.719 264.725 122.051 264.295L123.154 265.154C122.269 266.515 120.941 267.195 119.17 267.195ZM118.945 257.723C118.216 257.723 117.604 257.99 117.109 258.523C116.615 259.051 116.309 259.793 116.191 260.75H121.484V260.613C121.432 259.695 121.185 258.986 120.742 258.484C120.299 257.977 119.701 257.723 118.945 257.723ZM130.957 267V257.83H129.287V256.434H130.957V255.535C130.957 254.357 131.292 253.439 131.963 252.781C132.64 252.124 133.594 251.795 134.824 251.795C135.553 251.795 136.475 251.993 137.588 252.391L137.285 253.914C136.471 253.589 135.697 253.426 134.961 253.426C134.186 253.426 133.626 253.602 133.281 253.953C132.943 254.298 132.773 254.819 132.773 255.516V256.434H134.932V257.83H132.773V267H130.957ZM138.486 267H136.67V256.434H138.486V267ZM146.533 258.055C146.26 258.009 145.964 257.986 145.645 257.986C144.46 257.986 143.656 258.491 143.232 259.5V267H141.426V256.434H143.184L143.213 257.654C143.805 256.71 144.645 256.238 145.732 256.238C146.084 256.238 146.351 256.284 146.533 256.375V258.055ZM152.393 267.195C150.96 267.195 149.795 266.727 148.896 265.789C147.998 264.845 147.549 263.585 147.549 262.01V261.678C147.549 260.63 147.747 259.695 148.145 258.875C148.548 258.048 149.108 257.404 149.824 256.941C150.547 256.473 151.328 256.238 152.168 256.238C153.542 256.238 154.609 256.691 155.371 257.596C156.133 258.501 156.514 259.796 156.514 261.482V262.234H149.355C149.382 263.276 149.684 264.119 150.264 264.764C150.85 265.402 151.592 265.721 152.49 265.721C153.128 265.721 153.669 265.59 154.111 265.33C154.554 265.07 154.941 264.725 155.273 264.295L156.377 265.154C155.492 266.515 154.163 267.195 152.393 267.195ZM152.168 257.723C151.439 257.723 150.827 257.99 150.332 258.523C149.837 259.051 149.531 259.793 149.414 260.75H154.707V260.613C154.655 259.695 154.408 258.986 153.965 258.484C153.522 257.977 152.923 257.723 152.168 257.723ZM172.5 261.834C172.5 263.442 172.132 264.738 171.396 265.721C170.661 266.704 169.665 267.195 168.408 267.195C167.126 267.195 166.117 266.788 165.381 265.975V271.062H163.574V256.434H165.225L165.312 257.605C166.048 256.694 167.07 256.238 168.379 256.238C169.648 256.238 170.651 256.717 171.387 257.674C172.129 258.631 172.5 259.962 172.5 261.668V261.834ZM170.693 261.629C170.693 260.438 170.439 259.497 169.932 258.807C169.424 258.117 168.727 257.771 167.842 257.771C166.748 257.771 165.928 258.257 165.381 259.227V264.275C165.921 265.239 166.748 265.721 167.861 265.721C168.727 265.721 169.414 265.379 169.922 264.695C170.436 264.005 170.693 262.983 170.693 261.629ZM179.912 258.055C179.639 258.009 179.342 257.986 179.023 257.986C177.839 257.986 177.035 258.491 176.611 259.5V267H174.805V256.434H176.562L176.592 257.654C177.184 256.71 178.024 256.238 179.111 256.238C179.463 256.238 179.73 256.284 179.912 256.375V258.055ZM180.908 261.619C180.908 260.584 181.11 259.653 181.514 258.826C181.924 257.999 182.49 257.361 183.213 256.912C183.942 256.463 184.772 256.238 185.703 256.238C187.142 256.238 188.304 256.736 189.189 257.732C190.081 258.729 190.527 260.053 190.527 261.707V261.834C190.527 262.863 190.329 263.787 189.932 264.607C189.541 265.421 188.978 266.056 188.242 266.512C187.513 266.967 186.673 267.195 185.723 267.195C184.29 267.195 183.128 266.697 182.236 265.701C181.351 264.705 180.908 263.387 180.908 261.746V261.619ZM182.725 261.834C182.725 263.006 182.995 263.947 183.535 264.656C184.082 265.366 184.811 265.721 185.723 265.721C186.641 265.721 187.37 265.363 187.91 264.646C188.451 263.924 188.721 262.915 188.721 261.619C188.721 260.46 188.444 259.523 187.891 258.807C187.344 258.084 186.615 257.723 185.703 257.723C184.811 257.723 184.092 258.077 183.545 258.787C182.998 259.497 182.725 260.512 182.725 261.834ZM195.244 253.875V256.434H197.217V257.83H195.244V264.383C195.244 264.806 195.332 265.125 195.508 265.34C195.684 265.548 195.983 265.652 196.406 265.652C196.615 265.652 196.901 265.613 197.266 265.535V267C196.79 267.13 196.328 267.195 195.879 267.195C195.072 267.195 194.463 266.951 194.053 266.463C193.643 265.975 193.438 265.281 193.438 264.383V257.83H191.514V256.434H193.438V253.875H195.244ZM203.721 267.195C202.288 267.195 201.123 266.727 200.225 265.789C199.326 264.845 198.877 263.585 198.877 262.01V261.678C198.877 260.63 199.076 259.695 199.473 258.875C199.876 258.048 200.436 257.404 201.152 256.941C201.875 256.473 202.656 256.238 203.496 256.238C204.87 256.238 205.938 256.691 206.699 257.596C207.461 258.501 207.842 259.796 207.842 261.482V262.234H200.684C200.71 263.276 201.012 264.119 201.592 264.764C202.178 265.402 202.92 265.721 203.818 265.721C204.456 265.721 204.997 265.59 205.439 265.33C205.882 265.07 206.27 264.725 206.602 264.295L207.705 265.154C206.82 266.515 205.492 267.195 203.721 267.195ZM203.496 257.723C202.767 257.723 202.155 257.99 201.66 258.523C201.165 259.051 200.859 259.793 200.742 260.75H206.035V260.613C205.983 259.695 205.736 258.986 205.293 258.484C204.85 257.977 204.251 257.723 203.496 257.723ZM214.18 265.721C214.824 265.721 215.387 265.525 215.869 265.135C216.351 264.744 216.618 264.256 216.67 263.67H218.379C218.346 264.275 218.138 264.852 217.754 265.398C217.37 265.945 216.855 266.382 216.211 266.707C215.573 267.033 214.896 267.195 214.18 267.195C212.741 267.195 211.595 266.717 210.742 265.76C209.896 264.796 209.473 263.481 209.473 261.814V261.512C209.473 260.483 209.661 259.568 210.039 258.768C210.417 257.967 210.957 257.345 211.66 256.902C212.37 256.46 213.206 256.238 214.17 256.238C215.355 256.238 216.338 256.593 217.119 257.303C217.907 258.012 218.327 258.934 218.379 260.066H216.67C216.618 259.383 216.357 258.823 215.889 258.387C215.426 257.944 214.854 257.723 214.17 257.723C213.252 257.723 212.539 258.055 212.031 258.719C211.53 259.376 211.279 260.33 211.279 261.58V261.922C211.279 263.139 211.53 264.077 212.031 264.734C212.533 265.392 213.249 265.721 214.18 265.721ZM222.861 253.875V256.434H224.834V257.83H222.861V264.383C222.861 264.806 222.949 265.125 223.125 265.34C223.301 265.548 223.6 265.652 224.023 265.652C224.232 265.652 224.518 265.613 224.883 265.535V267C224.408 267.13 223.945 267.195 223.496 267.195C222.689 267.195 222.08 266.951 221.67 266.463C221.26 265.975 221.055 265.281 221.055 264.383V257.83H219.131V256.434H221.055V253.875H222.861ZM228.916 267H227.109V256.434H228.916V267ZM226.963 253.631C226.963 253.338 227.051 253.09 227.227 252.889C227.409 252.687 227.676 252.586 228.027 252.586C228.379 252.586 228.646 252.687 228.828 252.889C229.01 253.09 229.102 253.338 229.102 253.631C229.102 253.924 229.01 254.168 228.828 254.363C228.646 254.559 228.379 254.656 228.027 254.656C227.676 254.656 227.409 254.559 227.227 254.363C227.051 254.168 226.963 253.924 226.963 253.631ZM231.338 261.619C231.338 260.584 231.54 259.653 231.943 258.826C232.354 257.999 232.92 257.361 233.643 256.912C234.372 256.463 235.202 256.238 236.133 256.238C237.572 256.238 238.734 256.736 239.619 257.732C240.511 258.729 240.957 260.053 240.957 261.707V261.834C240.957 262.863 240.758 263.787 240.361 264.607C239.971 265.421 239.408 266.056 238.672 266.512C237.943 266.967 237.103 267.195 236.152 267.195C234.72 267.195 233.558 266.697 232.666 265.701C231.781 264.705 231.338 263.387 231.338 261.746V261.619ZM233.154 261.834C233.154 263.006 233.424 263.947 233.965 264.656C234.512 265.366 235.241 265.721 236.152 265.721C237.07 265.721 237.799 265.363 238.34 264.646C238.88 263.924 239.15 262.915 239.15 261.619C239.15 260.46 238.874 259.523 238.32 258.807C237.773 258.084 237.044 257.723 236.133 257.723C235.241 257.723 234.521 258.077 233.975 258.787C233.428 259.497 233.154 260.512 233.154 261.834ZM244.932 256.434L244.99 257.762C245.798 256.746 246.852 256.238 248.154 256.238C250.387 256.238 251.514 257.498 251.533 260.018V267H249.727V260.008C249.72 259.246 249.544 258.683 249.199 258.318C248.861 257.954 248.33 257.771 247.607 257.771C247.021 257.771 246.507 257.928 246.064 258.24C245.622 258.553 245.277 258.963 245.029 259.471V267H243.223V256.434H244.932ZM120.01 292.197C120.01 291.709 119.824 291.331 119.453 291.064C119.089 290.791 118.447 290.557 117.529 290.361C116.618 290.166 115.892 289.932 115.352 289.658C114.818 289.385 114.421 289.059 114.16 288.682C113.906 288.304 113.779 287.855 113.779 287.334C113.779 286.468 114.144 285.736 114.873 285.137C115.609 284.538 116.546 284.238 117.686 284.238C118.883 284.238 119.854 284.548 120.596 285.166C121.344 285.785 121.719 286.576 121.719 287.539H119.902C119.902 287.044 119.691 286.618 119.268 286.26C118.851 285.902 118.324 285.723 117.686 285.723C117.028 285.723 116.514 285.866 116.143 286.152C115.771 286.439 115.586 286.813 115.586 287.275C115.586 287.712 115.758 288.04 116.104 288.262C116.449 288.483 117.07 288.695 117.969 288.896C118.874 289.098 119.606 289.339 120.166 289.619C120.726 289.899 121.139 290.238 121.406 290.635C121.68 291.025 121.816 291.504 121.816 292.07C121.816 293.014 121.439 293.773 120.684 294.346C119.928 294.912 118.949 295.195 117.744 295.195C116.898 295.195 116.149 295.046 115.498 294.746C114.847 294.447 114.336 294.03 113.965 293.496C113.6 292.956 113.418 292.373 113.418 291.748H115.225C115.257 292.354 115.498 292.835 115.947 293.193C116.403 293.545 117.002 293.721 117.744 293.721C118.428 293.721 118.975 293.584 119.385 293.311C119.801 293.031 120.01 292.66 120.01 292.197ZM127.627 292.354L130.088 284.434H132.021L127.773 296.631C127.116 298.389 126.071 299.268 124.639 299.268L124.297 299.238L123.623 299.111V297.646L124.111 297.686C124.723 297.686 125.199 297.562 125.537 297.314C125.882 297.067 126.165 296.615 126.387 295.957L126.787 294.883L123.018 284.434H124.99L127.627 292.354ZM139.795 292.197C139.795 291.709 139.609 291.331 139.238 291.064C138.874 290.791 138.232 290.557 137.314 290.361C136.403 290.166 135.677 289.932 135.137 289.658C134.603 289.385 134.206 289.059 133.945 288.682C133.691 288.304 133.564 287.855 133.564 287.334C133.564 286.468 133.929 285.736 134.658 285.137C135.394 284.538 136.331 284.238 137.471 284.238C138.669 284.238 139.639 284.548 140.381 285.166C141.13 285.785 141.504 286.576 141.504 287.539H139.688C139.688 287.044 139.476 286.618 139.053 286.26C138.636 285.902 138.109 285.723 137.471 285.723C136.813 285.723 136.299 285.866 135.928 286.152C135.557 286.439 135.371 286.813 135.371 287.275C135.371 287.712 135.544 288.04 135.889 288.262C136.234 288.483 136.855 288.695 137.754 288.896C138.659 289.098 139.391 289.339 139.951 289.619C140.511 289.899 140.924 290.238 141.191 290.635C141.465 291.025 141.602 291.504 141.602 292.07C141.602 293.014 141.224 293.773 140.469 294.346C139.714 294.912 138.734 295.195 137.529 295.195C136.683 295.195 135.934 295.046 135.283 294.746C134.632 294.447 134.121 294.03 133.75 293.496C133.385 292.956 133.203 292.373 133.203 291.748H135.01C135.042 292.354 135.283 292.835 135.732 293.193C136.188 293.545 136.787 293.721 137.529 293.721C138.213 293.721 138.76 293.584 139.17 293.311C139.587 293.031 139.795 292.66 139.795 292.197ZM146.406 281.875V284.434H148.379V285.83H146.406V292.383C146.406 292.806 146.494 293.125 146.67 293.34C146.846 293.548 147.145 293.652 147.568 293.652C147.777 293.652 148.063 293.613 148.428 293.535V295C147.952 295.13 147.49 295.195 147.041 295.195C146.234 295.195 145.625 294.951 145.215 294.463C144.805 293.975 144.6 293.281 144.6 292.383V285.83H142.676V284.434H144.6V281.875H146.406ZM154.883 295.195C153.451 295.195 152.285 294.727 151.387 293.789C150.488 292.845 150.039 291.585 150.039 290.01V289.678C150.039 288.63 150.238 287.695 150.635 286.875C151.038 286.048 151.598 285.404 152.314 284.941C153.037 284.473 153.818 284.238 154.658 284.238C156.032 284.238 157.1 284.691 157.861 285.596C158.623 286.501 159.004 287.796 159.004 289.482V290.234H151.846C151.872 291.276 152.174 292.119 152.754 292.764C153.34 293.402 154.082 293.721 154.98 293.721C155.618 293.721 156.159 293.59 156.602 293.33C157.044 293.07 157.432 292.725 157.764 292.295L158.867 293.154C157.982 294.515 156.654 295.195 154.883 295.195ZM154.658 285.723C153.929 285.723 153.317 285.99 152.822 286.523C152.327 287.051 152.021 287.793 151.904 288.75H157.197V288.613C157.145 287.695 156.898 286.986 156.455 286.484C156.012 285.977 155.413 285.723 154.658 285.723ZM162.803 284.434L162.852 285.605C163.626 284.694 164.671 284.238 165.986 284.238C167.464 284.238 168.47 284.805 169.004 285.938C169.355 285.43 169.811 285.02 170.371 284.707C170.938 284.395 171.605 284.238 172.373 284.238C174.691 284.238 175.869 285.465 175.908 287.92V295H174.102V288.027C174.102 287.272 173.929 286.709 173.584 286.338C173.239 285.96 172.66 285.771 171.846 285.771C171.175 285.771 170.618 285.973 170.176 286.377C169.733 286.774 169.476 287.311 169.404 287.988V295H167.588V288.076C167.588 286.54 166.836 285.771 165.332 285.771C164.147 285.771 163.337 286.276 162.9 287.285V295H161.094V284.434H162.803ZM178.682 294.053C178.682 293.74 178.773 293.48 178.955 293.271C179.144 293.063 179.424 292.959 179.795 292.959C180.166 292.959 180.446 293.063 180.635 293.271C180.83 293.48 180.928 293.74 180.928 294.053C180.928 294.352 180.83 294.603 180.635 294.805C180.446 295.007 180.166 295.107 179.795 295.107C179.424 295.107 179.144 295.007 178.955 294.805C178.773 294.603 178.682 294.352 178.682 294.053Z" fill="black"/>
<path d="M150 40C137.672 39.9826 125.776 44.5381 116.613 52.7851C115.264 53.9784 113.989 55.2524 112.795 56.6C95.0841 76.3721 95.9105 106.537 114.677 125.31C133.443 144.083 163.608 144.919 183.386 127.215C184.735 126.022 186.01 124.748 187.205 123.4C200.386 108.715 203.698 87.6512 195.659 69.6299C187.62 51.6086 169.733 40.0013 150 40ZM184.718 121.178C183.608 122.433 182.422 123.618 181.168 124.728C162.709 141.254 134.554 140.475 117.037 122.953C99.5207 105.431 98.7498 77.2756 115.281 58.8217C116.391 57.5674 117.577 56.3819 118.831 55.2717C137.29 38.7459 165.446 39.5253 182.962 57.047C200.479 74.5687 201.249 102.724 184.718 121.178Z" fill="#FFAC22"/>
<path d="M150 48.334C140.453 48.3411 131.198 51.6266 123.783 57.6407C123.417 57.9381 123.194 58.3768 123.17 58.848C123.145 59.3191 123.322 59.7786 123.655 60.1123L179.888 116.346C180.201 116.658 180.625 116.834 181.067 116.834H181.152C181.623 116.809 182.061 116.587 182.358 116.221C192.483 103.747 194.529 86.5616 187.616 72.0593C180.704 57.557 166.065 48.3244 150 48.334ZM171.51 103.254L142.885 74.629C143.336 73.8845 143.837 73.1718 144.385 72.4957C145.506 71.1667 146.713 69.9134 148 68.744L152.917 63.9107L153.018 67.8607C153.037 68.3607 153.073 68.8757 153.127 69.3607C153.473 72.7384 155.101 75.8547 157.677 78.0673L158.815 79.1057C161.746 81.5507 164.376 84.3358 166.648 87.4023C168.747 90.3639 170.289 93.6823 171.2 97.1957C171.671 99.1794 171.776 101.233 171.51 103.254ZM180.907 112.651L174.348 106.092C175.167 102.916 175.197 99.5878 174.435 96.3973C173.429 92.489 171.719 88.7966 169.39 85.5007C166.979 82.2198 164.181 79.2416 161.057 76.6307L159.922 75.5957C157.96 73.9239 156.714 71.5636 156.44 69.0007C156.393 68.5907 156.363 68.1673 156.35 67.7623L156.15 59.9623C156.133 59.2963 155.722 58.7042 155.103 58.4566C154.485 58.2089 153.778 58.3534 153.307 58.824L147.82 64.2923L145.703 66.334C144.31 67.6031 143.002 68.9639 141.79 70.4073C141.29 71.0123 140.858 71.614 140.457 72.2123L127.35 59.094C142.6 47.901 163.736 49.5128 177.112 62.8888C190.488 76.2648 192.1 97.401 180.907 112.651Z" fill="#FFAC22"/>
<path d="M169.268 112.814L120.111 63.6554C119.777 63.3223 119.318 63.146 118.848 63.1702C118.377 63.1943 117.939 63.4166 117.641 63.7821C104.198 80.3445 105.444 104.387 120.527 119.471C135.61 134.555 159.653 135.802 176.216 122.36C176.582 122.063 176.805 121.624 176.83 121.153C176.854 120.682 176.678 120.222 176.344 119.889L169.268 112.814ZM144.509 92.7671L165.616 113.874C161.385 116.938 156.254 118.507 151.033 118.334C148.473 118.338 145.922 118.024 143.439 117.4C139.088 116.421 135.129 114.164 132.069 110.919C128.42 106.276 127.315 100.123 129.123 94.5004L129.933 91.5821L131.978 93.8221C133.222 95.2027 134.857 96.1722 136.666 96.6021C137.19 96.7095 137.723 96.7653 138.258 96.7687C140.092 96.7831 141.86 96.0818 143.186 94.8137C143.765 94.2309 144.215 93.5339 144.509 92.7671ZM149.999 128.334C135.555 128.341 122.334 120.225 115.804 107.34C109.274 94.4563 110.546 78.9948 119.093 67.3504L141.473 89.7321C141.488 89.7887 141.506 89.8404 141.518 89.8987C141.755 90.8095 141.495 91.778 140.833 92.4471C139.884 93.2896 138.587 93.6202 137.351 93.3337C136.22 93.0473 135.202 92.427 134.429 91.5537L130.364 87.1037C129.955 86.6578 129.337 86.4685 128.749 86.609C128.16 86.7495 127.694 87.1979 127.531 87.7804L125.914 93.5921C123.807 100.3 125.175 107.616 129.564 113.109C133.068 116.863 137.616 119.481 142.623 120.625C145.372 121.318 148.197 121.668 151.033 121.667C157.136 121.854 163.119 119.936 167.976 116.235L172.643 120.902C166.076 125.721 158.145 128.324 149.999 128.334Z" fill="#FFAC22"/>
<path d="M137.083 106.524C135.766 104.869 135.041 102.82 135.023 100.704C134.972 99.7893 134.199 99.0829 133.283 99.1143C132.841 99.1342 132.426 99.3287 132.128 99.655C131.829 99.9813 131.673 100.413 131.693 100.854C131.743 103.725 132.759 106.496 134.576 108.719C137.192 111.454 140.561 113.35 144.256 114.166C144.835 114.316 145.45 114.145 145.868 113.717C146.286 113.289 146.442 112.67 146.278 112.095C146.114 111.52 145.654 111.077 145.073 110.934C142.035 110.279 139.256 108.746 137.083 106.524Z" fill="#FFAC22"/>
</svg>
