<svg width="301" height="246" viewBox="0 0 301 246" fill="none" xmlns="http://www.w3.org/2000/svg">
<rect x="2" y="1.5" width="297" height="177" rx="14.5" stroke="white" stroke-width="3"/>
<path d="M140.031 211H130.715V209.701L135.637 204.232C136.366 203.406 136.867 202.735 137.141 202.221C137.421 201.7 137.561 201.163 137.561 200.609C137.561 199.867 137.336 199.258 136.887 198.783C136.438 198.308 135.839 198.07 135.09 198.07C134.191 198.07 133.492 198.327 132.99 198.842C132.495 199.35 132.248 200.059 132.248 200.971H130.441C130.441 199.662 130.861 198.604 131.701 197.797C132.548 196.99 133.677 196.586 135.09 196.586C136.411 196.586 137.456 196.934 138.225 197.631C138.993 198.321 139.377 199.242 139.377 200.395C139.377 201.794 138.485 203.461 136.701 205.395L132.893 209.525H140.031V211ZM149.572 206.225H151.545V207.699H149.572V211H147.756V207.699H141.281V206.635L147.648 196.781H149.572V206.225ZM143.332 206.225H147.756V199.252L147.541 199.643L143.332 206.225ZM153.723 212.221H152.17L158.107 196.781H159.65L153.723 212.221ZM170.598 197.797L164.709 211H162.814L168.684 198.266H160.988V196.781H170.598V197.797ZM98.2441 236.197C98.2441 235.709 98.0586 235.331 97.6875 235.064C97.3229 234.791 96.6816 234.557 95.7637 234.361C94.8522 234.166 94.1263 233.932 93.5859 233.658C93.0521 233.385 92.6549 233.059 92.3945 232.682C92.1406 232.304 92.0137 231.855 92.0137 231.334C92.0137 230.468 92.3783 229.736 93.1074 229.137C93.8431 228.538 94.7806 228.238 95.9199 228.238C97.1178 228.238 98.0879 228.548 98.8301 229.166C99.5788 229.785 99.9531 230.576 99.9531 231.539H98.1367C98.1367 231.044 97.9251 230.618 97.502 230.26C97.0853 229.902 96.5579 229.723 95.9199 229.723C95.2624 229.723 94.748 229.866 94.377 230.152C94.0059 230.439 93.8203 230.813 93.8203 231.275C93.8203 231.712 93.9928 232.04 94.3379 232.262C94.6829 232.483 95.3047 232.695 96.2031 232.896C97.1081 233.098 97.8405 233.339 98.4004 233.619C98.9603 233.899 99.3737 234.238 99.6406 234.635C99.9141 235.025 100.051 235.504 100.051 236.07C100.051 237.014 99.6732 237.773 98.918 238.346C98.1628 238.912 97.1829 239.195 95.9785 239.195C95.1322 239.195 94.3835 239.046 93.7324 238.746C93.0814 238.447 92.5703 238.03 92.1992 237.496C91.8346 236.956 91.6523 236.373 91.6523 235.748H93.459C93.4915 236.354 93.7324 236.835 94.1816 237.193C94.6374 237.545 95.2363 237.721 95.9785 237.721C96.6621 237.721 97.209 237.584 97.6191 237.311C98.0358 237.031 98.2441 236.66 98.2441 236.197ZM108.928 237.955C108.225 238.782 107.193 239.195 105.832 239.195C104.706 239.195 103.846 238.87 103.254 238.219C102.668 237.561 102.372 236.591 102.365 235.309V228.434H104.172V235.26C104.172 236.861 104.823 237.662 106.125 237.662C107.505 237.662 108.423 237.148 108.879 236.119V228.434H110.686V239H108.967L108.928 237.955ZM122.365 233.834C122.365 235.442 121.997 236.738 121.262 237.721C120.526 238.704 119.53 239.195 118.273 239.195C116.991 239.195 115.982 238.788 115.246 237.975V243.062H113.439V228.434H115.09L115.178 229.605C115.913 228.694 116.936 228.238 118.244 228.238C119.514 228.238 120.516 228.717 121.252 229.674C121.994 230.631 122.365 231.962 122.365 233.668V233.834ZM120.559 233.629C120.559 232.438 120.305 231.497 119.797 230.807C119.289 230.117 118.592 229.771 117.707 229.771C116.613 229.771 115.793 230.257 115.246 231.227V236.275C115.786 237.239 116.613 237.721 117.727 237.721C118.592 237.721 119.279 237.379 119.787 236.695C120.301 236.005 120.559 234.983 120.559 233.629ZM133.596 233.834C133.596 235.442 133.228 236.738 132.492 237.721C131.757 238.704 130.76 239.195 129.504 239.195C128.221 239.195 127.212 238.788 126.477 237.975V243.062H124.67V228.434H126.32L126.408 229.605C127.144 228.694 128.166 228.238 129.475 228.238C130.744 228.238 131.747 228.717 132.482 229.674C133.225 230.631 133.596 231.962 133.596 233.668V233.834ZM131.789 233.629C131.789 232.438 131.535 231.497 131.027 230.807C130.52 230.117 129.823 229.771 128.938 229.771C127.844 229.771 127.023 230.257 126.477 231.227V236.275C127.017 237.239 127.844 237.721 128.957 237.721C129.823 237.721 130.51 237.379 131.018 236.695C131.532 236.005 131.789 234.983 131.789 233.629ZM135.422 233.619C135.422 232.584 135.624 231.653 136.027 230.826C136.438 229.999 137.004 229.361 137.727 228.912C138.456 228.463 139.286 228.238 140.217 228.238C141.656 228.238 142.818 228.736 143.703 229.732C144.595 230.729 145.041 232.053 145.041 233.707V233.834C145.041 234.863 144.842 235.787 144.445 236.607C144.055 237.421 143.492 238.056 142.756 238.512C142.027 238.967 141.187 239.195 140.236 239.195C138.804 239.195 137.642 238.697 136.75 237.701C135.865 236.705 135.422 235.387 135.422 233.746V233.619ZM137.238 233.834C137.238 235.006 137.508 235.947 138.049 236.656C138.596 237.366 139.325 237.721 140.236 237.721C141.154 237.721 141.883 237.363 142.424 236.646C142.964 235.924 143.234 234.915 143.234 233.619C143.234 232.46 142.958 231.523 142.404 230.807C141.857 230.084 141.128 229.723 140.217 229.723C139.325 229.723 138.605 230.077 138.059 230.787C137.512 231.497 137.238 232.512 137.238 233.834ZM152.414 230.055C152.141 230.009 151.844 229.986 151.525 229.986C150.34 229.986 149.536 230.491 149.113 231.5V239H147.307V228.434H149.064L149.094 229.654C149.686 228.71 150.526 228.238 151.613 228.238C151.965 228.238 152.232 228.284 152.414 228.375V230.055ZM157.023 225.875V228.434H158.996V229.83H157.023V236.383C157.023 236.806 157.111 237.125 157.287 237.34C157.463 237.548 157.762 237.652 158.186 237.652C158.394 237.652 158.68 237.613 159.045 237.535V239C158.57 239.13 158.107 239.195 157.658 239.195C156.851 239.195 156.242 238.951 155.832 238.463C155.422 237.975 155.217 237.281 155.217 236.383V229.83H153.293V228.434H155.217V225.875H157.023ZM168.527 225.875V228.434H170.5V229.83H168.527V236.383C168.527 236.806 168.615 237.125 168.791 237.34C168.967 237.548 169.266 237.652 169.689 237.652C169.898 237.652 170.184 237.613 170.549 237.535V239C170.074 239.13 169.611 239.195 169.162 239.195C168.355 239.195 167.746 238.951 167.336 238.463C166.926 237.975 166.721 237.281 166.721 236.383V229.83H164.797V228.434H166.721V225.875H168.527ZM177.004 239.195C175.572 239.195 174.406 238.727 173.508 237.789C172.609 236.845 172.16 235.585 172.16 234.01V233.678C172.16 232.63 172.359 231.695 172.756 230.875C173.16 230.048 173.719 229.404 174.436 228.941C175.158 228.473 175.939 228.238 176.779 228.238C178.153 228.238 179.221 228.691 179.982 229.596C180.744 230.501 181.125 231.796 181.125 233.482V234.234H173.967C173.993 235.276 174.296 236.119 174.875 236.764C175.461 237.402 176.203 237.721 177.102 237.721C177.74 237.721 178.28 237.59 178.723 237.33C179.165 237.07 179.553 236.725 179.885 236.295L180.988 237.154C180.103 238.515 178.775 239.195 177.004 239.195ZM176.779 229.723C176.05 229.723 175.438 229.99 174.943 230.523C174.449 231.051 174.143 231.793 174.025 232.75H179.318V232.613C179.266 231.695 179.019 230.986 178.576 230.484C178.133 229.977 177.535 229.723 176.779 229.723ZM189.748 239C189.644 238.792 189.559 238.421 189.494 237.887C188.654 238.759 187.652 239.195 186.486 239.195C185.445 239.195 184.589 238.902 183.918 238.316C183.254 237.724 182.922 236.975 182.922 236.07C182.922 234.97 183.339 234.117 184.172 233.512C185.012 232.9 186.19 232.594 187.707 232.594H189.465V231.764C189.465 231.132 189.276 230.631 188.898 230.26C188.521 229.882 187.964 229.693 187.229 229.693C186.584 229.693 186.044 229.856 185.607 230.182C185.171 230.507 184.953 230.901 184.953 231.363H183.137C183.137 230.836 183.322 230.328 183.693 229.84C184.071 229.345 184.579 228.954 185.217 228.668C185.861 228.382 186.568 228.238 187.336 228.238C188.553 228.238 189.507 228.544 190.197 229.156C190.887 229.762 191.245 230.598 191.271 231.666V236.529C191.271 237.499 191.395 238.271 191.643 238.844V239H189.748ZM186.75 237.623C187.316 237.623 187.854 237.477 188.361 237.184C188.869 236.891 189.237 236.51 189.465 236.041V233.873H188.049C185.835 233.873 184.729 234.521 184.729 235.816C184.729 236.383 184.917 236.826 185.295 237.145C185.673 237.464 186.158 237.623 186.75 237.623ZM195.803 228.434L195.852 229.605C196.626 228.694 197.671 228.238 198.986 228.238C200.464 228.238 201.47 228.805 202.004 229.938C202.355 229.43 202.811 229.02 203.371 228.707C203.938 228.395 204.605 228.238 205.373 228.238C207.691 228.238 208.869 229.465 208.908 231.92V239H207.102V232.027C207.102 231.272 206.929 230.709 206.584 230.338C206.239 229.96 205.66 229.771 204.846 229.771C204.175 229.771 203.618 229.973 203.176 230.377C202.733 230.774 202.476 231.311 202.404 231.988V239H200.588V232.076C200.588 230.54 199.836 229.771 198.332 229.771C197.147 229.771 196.337 230.276 195.9 231.285V239H194.094V228.434H195.803Z" fill="black"/>
<g clip-path="url(#clip0)">
<path d="M199.914 137.805C199.766 137.362 196.129 126.897 182.071 123.382C181.181 123.159 180.273 123.702 180.049 124.595C179.826 125.489 180.369 126.394 181.263 126.617C193.476 129.67 196.626 138.492 196.752 138.86C196.984 139.559 197.634 140 198.333 140C198.508 140 198.686 139.974 198.861 139.914C199.734 139.624 200.206 138.679 199.914 137.805Z" fill="#FFAC22"/>
<path d="M115 116.667H125C125.92 116.667 126.666 115.92 126.666 115C126.666 114.079 125.92 113.334 125 113.334H115C113.57 113.334 112.631 112.99 112.213 112.314C111.241 110.747 112.43 107.21 113.097 105.857C113.31 105.501 118.333 96.9723 118.333 83.3341V75.0008C118.333 48.8278 135.555 43.3345 150 43.3345C154.921 43.3345 165.163 43.3345 166.729 45.5062C166.793 45.5962 166.889 45.7294 166.753 46.1396C166.568 46.6947 166.686 47.3046 167.066 47.7495C167.448 48.1962 168.029 48.4095 168.608 48.3112C170.726 47.9613 172.593 48.4929 174.306 49.9429C178.778 53.7296 181.666 63.566 181.666 75.001V83.3343C181.666 97.6959 186.128 104.749 186.894 105.854C187.626 107.381 188.734 110.786 187.786 112.314C187.368 112.991 186.429 113.334 184.999 113.334H174.999C174.079 113.334 173.333 114.079 173.333 115C173.333 115.92 174.079 116.667 174.999 116.667H184.999C188.319 116.667 189.889 115.252 190.622 114.065C192.829 110.495 190.137 104.882 189.824 104.254C189.779 104.165 189.726 104.079 189.666 104C189.619 103.937 184.999 97.6121 184.999 83.334V75.0006C184.999 65.1541 182.758 52.7325 176.461 47.3991C174.559 45.7874 172.373 44.9341 170.049 44.8792C169.916 44.3377 169.676 43.8959 169.433 43.5576C167.063 40.2676 159.229 40.001 150 40.001C127.43 40.001 115 52.4309 115 75.0006V83.334C115 95.9922 110.285 104.065 110.177 104.254C109.862 104.882 107.17 110.495 109.377 114.065C110.11 115.252 111.682 116.667 115 116.667Z" fill="#FFAC22"/>
<path d="M117.93 123.382C103.87 126.897 100.233 137.362 100.087 137.805C99.795 138.679 100.267 139.624 101.14 139.914C101.315 139.974 101.493 140 101.667 140C102.365 140 103.015 139.559 103.248 138.86C103.278 138.769 106.435 129.692 118.738 126.617C119.632 126.394 120.173 125.489 119.95 124.596C119.728 123.702 118.823 123.159 117.93 123.382Z" fill="#FFAC22"/>
<path d="M176.598 124.593C176.568 124.473 176.516 124.366 176.461 124.255C176.431 124.196 176.424 124.131 176.386 124.075C176.369 124.048 176.341 124.036 176.323 124.011C176.253 123.916 176.164 123.841 176.074 123.763C175.993 123.693 175.918 123.621 175.826 123.57C175.796 123.551 175.778 123.523 175.746 123.508L169.08 120.175C168.546 119.91 167.908 119.946 167.411 120.28L157.41 126.946C156.945 127.255 156.666 127.774 156.666 128.333V134.243C155.675 135.036 153.241 136.666 150 136.666C146.791 136.666 144.333 135.028 143.333 134.238V128.333C143.333 127.774 143.055 127.254 142.592 126.946L132.592 120.279C132.093 119.946 131.455 119.906 130.922 120.174L124.255 123.508C124.225 123.523 124.209 123.551 124.18 123.566C124.082 123.621 124.004 123.696 123.917 123.771C123.832 123.848 123.749 123.918 123.682 124.006C123.662 124.033 123.632 124.046 123.614 124.075C123.574 124.134 123.567 124.203 123.535 124.266C123.484 124.371 123.434 124.473 123.404 124.586C123.379 124.689 123.37 124.789 123.364 124.894C123.357 125.001 123.352 125.104 123.365 125.213C123.382 125.326 123.417 125.431 123.455 125.539C123.479 125.608 123.477 125.678 123.51 125.744C123.525 125.775 123.554 125.793 123.57 125.821C123.625 125.916 123.697 125.994 123.77 126.078C123.847 126.166 123.919 126.251 124.01 126.319C124.037 126.338 124.049 126.368 124.077 126.386L134.077 133.053C134.36 133.241 134.682 133.333 134.999 133.333C135.539 133.333 136.065 133.071 136.387 132.589C136.897 131.824 136.69 130.789 135.925 130.279L128.315 125.206L131.547 123.588L140 129.224V134.999C140 135.441 140.177 135.864 140.488 136.178C140.645 136.333 144.375 139.999 150 139.999C155.627 139.999 159.356 136.333 159.512 136.178C159.825 135.864 160 135.441 160 134.999V129.224L168.455 123.588L171.686 125.204L164.077 130.279C163.31 130.789 163.103 131.824 163.613 132.589C163.935 133.071 164.463 133.333 165.002 133.333C165.32 133.333 165.642 133.241 165.925 133.053L175.925 126.386C175.951 126.368 175.965 126.339 175.99 126.321C176.083 126.251 176.158 126.163 176.236 126.073C176.306 125.991 176.376 125.916 176.43 125.826C176.446 125.796 176.476 125.776 176.493 125.744C176.528 125.675 176.526 125.6 176.551 125.528C176.586 125.426 176.62 125.326 176.635 125.219C176.65 125.104 176.645 124.996 176.637 124.881C176.629 124.783 176.623 124.69 176.598 124.593Z" fill="#FFAC22"/>
<path d="M169.875 62.3338C169.323 61.5989 168.281 61.4471 167.541 62.0004C154.81 71.5486 125.503 71.6669 125.208 71.6669C124.288 71.6669 123.542 72.4118 123.542 73.3335V80.0001C123.542 87.1533 128.792 100.89 130.385 104.078C132.413 108.135 141.288 118.333 150.208 118.333C157.585 118.333 164.916 111.368 168.386 106.662C172.956 106.631 176.666 102.91 176.666 98.3333C176.666 96.1433 175.823 94.0984 174.349 92.5667C175.73 88.1017 176.874 83.3367 176.874 80.0003C176.874 79.4768 176.628 78.9819 176.209 78.6669C174.539 77.4102 170.208 73.4036 170.208 70.0003C170.208 69.0787 169.461 68.3338 168.541 68.3338C167.621 68.3338 166.875 69.0787 166.875 70.0003C166.875 74.8187 171.631 79.227 173.519 80.787C173.364 83.5987 172.441 87.4318 171.313 91.1435C170.978 91.2652 170.669 91.4703 170.466 91.7968C170.096 92.3835 170.139 93.1101 170.516 93.645C169.208 97.5884 167.806 101.077 167.051 102.587C166.943 102.802 166.794 103.058 166.623 103.333H159.693C159.003 101.397 157.17 99.9999 154.999 99.9999C152.243 99.9999 150 102.241 150 105C150 107.756 152.243 110 154.999 110C157.169 110 159.003 108.602 159.693 106.666H164.086C160.774 110.446 155.38 115 150.208 115C142.771 115 134.861 105.58 133.366 102.587C131.698 99.2516 126.875 86.3033 126.875 80.0001V74.9751C133.485 74.8167 157.601 73.6218 169.541 64.6652C170.278 64.1139 170.428 63.0688 169.875 62.3338ZM173.003 96.6419C173.196 97.1802 173.333 97.7401 173.333 98.3335C173.333 100.252 172.235 101.902 170.645 102.74C171.281 101.272 172.131 99.1217 173.003 96.6419ZM155 106.667C154.081 106.667 153.333 105.919 153.333 105C153.333 104.08 154.081 103.334 155 103.334C155.92 103.334 156.666 104.08 156.666 105C156.666 105.918 155.92 106.667 155 106.667Z" fill="#FFAC22"/>
</g>
<defs>
<clipPath id="clip0">
<rect width="100" height="100" fill="white" transform="translate(100 40)"/>
</clipPath>
</defs>
</svg>
