<svg width="300" height="302" viewBox="0 0 300 302" fill="none" xmlns="http://www.w3.org/2000/svg">
<path d="M29.0723 204.662C27.4642 204.2 26.2923 203.633 25.5566 202.963C24.8275 202.286 24.4629 201.452 24.4629 200.463C24.4629 199.343 24.9089 198.419 25.8008 197.689C26.6992 196.954 27.8646 196.586 29.2969 196.586C30.2734 196.586 31.1426 196.775 31.9043 197.152C32.6725 197.53 33.265 198.051 33.6816 198.715C34.1048 199.379 34.3164 200.105 34.3164 200.893H32.4316C32.4316 200.033 32.1582 199.359 31.6113 198.871C31.0645 198.376 30.293 198.129 29.2969 198.129C28.3724 198.129 27.6497 198.334 27.1289 198.744C26.6146 199.148 26.3574 199.711 26.3574 200.434C26.3574 201.013 26.6016 201.505 27.0898 201.908C27.5846 202.305 28.4212 202.67 29.5996 203.002C30.7845 203.334 31.709 203.702 32.373 204.105C33.0436 204.503 33.5384 204.968 33.8574 205.502C34.1829 206.036 34.3457 206.664 34.3457 207.387C34.3457 208.539 33.8965 209.464 32.998 210.16C32.0996 210.85 30.8984 211.195 29.3945 211.195C28.418 211.195 27.5065 211.01 26.6602 210.639C25.8138 210.261 25.1595 209.747 24.6973 209.096C24.2415 208.445 24.0137 207.706 24.0137 206.879H25.8984C25.8984 207.738 26.2142 208.419 26.8457 208.92C27.4837 209.415 28.3333 209.662 29.3945 209.662C30.3841 209.662 31.1426 209.46 31.6699 209.057C32.1973 208.653 32.4609 208.103 32.4609 207.406C32.4609 206.71 32.2168 206.173 31.7285 205.795C31.2402 205.411 30.3548 205.033 29.0723 204.662ZM40.8594 211.195C39.4271 211.195 38.2617 210.727 37.3633 209.789C36.4648 208.845 36.0156 207.585 36.0156 206.01V205.678C36.0156 204.63 36.2142 203.695 36.6113 202.875C37.015 202.048 37.5749 201.404 38.291 200.941C39.0137 200.473 39.7949 200.238 40.6348 200.238C42.0085 200.238 43.0762 200.691 43.8379 201.596C44.5996 202.501 44.9805 203.796 44.9805 205.482V206.234H37.8223C37.8483 207.276 38.151 208.119 38.7305 208.764C39.3164 209.402 40.0586 209.721 40.957 209.721C41.5951 209.721 42.1354 209.59 42.5781 209.33C43.0208 209.07 43.4082 208.725 43.7402 208.295L44.8438 209.154C43.9583 210.515 42.6302 211.195 40.8594 211.195ZM40.6348 201.723C39.9056 201.723 39.2936 201.99 38.7988 202.523C38.304 203.051 37.998 203.793 37.8809 204.75H43.1738V204.613C43.1217 203.695 42.8743 202.986 42.4316 202.484C41.9889 201.977 41.39 201.723 40.6348 201.723ZM49.5312 197.875V200.434H51.5039V201.83H49.5312V208.383C49.5312 208.806 49.6191 209.125 49.7949 209.34C49.9707 209.548 50.2702 209.652 50.6934 209.652C50.9017 209.652 51.1882 209.613 51.5527 209.535V211C51.0775 211.13 50.6152 211.195 50.166 211.195C49.3587 211.195 48.75 210.951 48.3398 210.463C47.9297 209.975 47.7246 209.281 47.7246 208.383V201.83H45.8008V200.434H47.7246V197.875H49.5312ZM56.0742 197.875V200.434H58.0469V201.83H56.0742V208.383C56.0742 208.806 56.1621 209.125 56.3379 209.34C56.5137 209.548 56.8132 209.652 57.2363 209.652C57.4447 209.652 57.7311 209.613 58.0957 209.535V211C57.6204 211.13 57.1582 211.195 56.709 211.195C55.9017 211.195 55.293 210.951 54.8828 210.463C54.4727 209.975 54.2676 209.281 54.2676 208.383V201.83H52.3438V200.434H54.2676V197.875H56.0742ZM62.1289 211H60.3223V200.434H62.1289V211ZM60.1758 197.631C60.1758 197.338 60.2637 197.09 60.4395 196.889C60.6217 196.687 60.8887 196.586 61.2402 196.586C61.5918 196.586 61.8587 196.687 62.041 196.889C62.2233 197.09 62.3145 197.338 62.3145 197.631C62.3145 197.924 62.2233 198.168 62.041 198.363C61.8587 198.559 61.5918 198.656 61.2402 198.656C60.8887 198.656 60.6217 198.559 60.4395 198.363C60.2637 198.168 60.1758 197.924 60.1758 197.631ZM66.7383 200.434L66.7969 201.762C67.6042 200.746 68.6589 200.238 69.9609 200.238C72.194 200.238 73.3203 201.498 73.3398 204.018V211H71.5332V204.008C71.5267 203.246 71.3509 202.683 71.0059 202.318C70.6673 201.954 70.1367 201.771 69.4141 201.771C68.8281 201.771 68.3138 201.928 67.8711 202.24C67.4284 202.553 67.0833 202.963 66.8359 203.471V211H65.0293V200.434H66.7383ZM75.6348 205.629C75.6348 203.982 76.0156 202.673 76.7773 201.703C77.5391 200.727 78.5482 200.238 79.8047 200.238C81.0938 200.238 82.0996 200.694 82.8223 201.605L82.9102 200.434H84.5605V210.746C84.5605 212.113 84.1536 213.191 83.3398 213.979C82.5326 214.766 81.4453 215.16 80.0781 215.16C79.3164 215.16 78.571 214.997 77.8418 214.672C77.1126 214.346 76.556 213.9 76.1719 213.334L77.1094 212.25C77.8841 213.207 78.8314 213.686 79.9512 213.686C80.8301 213.686 81.5137 213.438 82.002 212.943C82.4967 212.449 82.7441 211.752 82.7441 210.854V209.945C82.0215 210.779 81.0352 211.195 79.7852 211.195C78.5482 211.195 77.5456 210.697 76.7773 209.701C76.0156 208.705 75.6348 207.348 75.6348 205.629ZM77.4512 205.834C77.4512 207.025 77.6953 207.963 78.1836 208.646C78.6719 209.324 79.3555 209.662 80.2344 209.662C81.3737 209.662 82.2103 209.145 82.7441 208.109V203.285C82.1908 202.276 81.3607 201.771 80.2539 201.771C79.375 201.771 78.6882 202.113 78.1934 202.797C77.6986 203.48 77.4512 204.493 77.4512 205.834ZM98.7793 209.955C98.0762 210.782 97.0443 211.195 95.6836 211.195C94.5573 211.195 93.6979 210.87 93.1055 210.219C92.5195 209.561 92.2233 208.591 92.2168 207.309V200.434H94.0234V207.26C94.0234 208.861 94.6745 209.662 95.9766 209.662C97.3568 209.662 98.2747 209.148 98.7305 208.119V200.434H100.537V211H98.8184L98.7793 209.955ZM112.217 205.834C112.217 207.442 111.849 208.738 111.113 209.721C110.378 210.704 109.382 211.195 108.125 211.195C106.842 211.195 105.833 210.788 105.098 209.975V215.062H103.291V200.434H104.941L105.029 201.605C105.765 200.694 106.787 200.238 108.096 200.238C109.365 200.238 110.368 200.717 111.104 201.674C111.846 202.631 112.217 203.962 112.217 205.668V205.834ZM110.41 205.629C110.41 204.438 110.156 203.497 109.648 202.807C109.141 202.117 108.444 201.771 107.559 201.771C106.465 201.771 105.645 202.257 105.098 203.227V208.275C105.638 209.239 106.465 209.721 107.578 209.721C108.444 209.721 109.131 209.379 109.639 208.695C110.153 208.005 110.41 206.983 110.41 205.629ZM126.006 211C125.902 210.792 125.817 210.421 125.752 209.887C124.912 210.759 123.91 211.195 122.744 211.195C121.702 211.195 120.846 210.902 120.176 210.316C119.512 209.724 119.18 208.975 119.18 208.07C119.18 206.97 119.596 206.117 120.43 205.512C121.27 204.9 122.448 204.594 123.965 204.594H125.723V203.764C125.723 203.132 125.534 202.631 125.156 202.26C124.779 201.882 124.222 201.693 123.486 201.693C122.842 201.693 122.301 201.856 121.865 202.182C121.429 202.507 121.211 202.901 121.211 203.363H119.395C119.395 202.836 119.58 202.328 119.951 201.84C120.329 201.345 120.837 200.954 121.475 200.668C122.119 200.382 122.826 200.238 123.594 200.238C124.811 200.238 125.765 200.544 126.455 201.156C127.145 201.762 127.503 202.598 127.529 203.666V208.529C127.529 209.499 127.653 210.271 127.9 210.844V211H126.006ZM123.008 209.623C123.574 209.623 124.111 209.477 124.619 209.184C125.127 208.891 125.495 208.51 125.723 208.041V205.873H124.307C122.093 205.873 120.986 206.521 120.986 207.816C120.986 208.383 121.175 208.826 121.553 209.145C121.93 209.464 122.415 209.623 123.008 209.623ZM134.883 205.629C134.883 204.008 135.267 202.706 136.035 201.723C136.803 200.733 137.809 200.238 139.053 200.238C140.29 200.238 141.27 200.661 141.992 201.508V196H143.799V211H142.139L142.051 209.867C141.328 210.753 140.322 211.195 139.033 211.195C137.809 211.195 136.81 210.694 136.035 209.691C135.267 208.689 134.883 207.38 134.883 205.766V205.629ZM136.689 205.834C136.689 207.032 136.937 207.969 137.432 208.646C137.926 209.324 138.61 209.662 139.482 209.662C140.628 209.662 141.465 209.148 141.992 208.119V203.266C141.452 202.27 140.622 201.771 139.502 201.771C138.617 201.771 137.926 202.113 137.432 202.797C136.937 203.48 136.689 204.493 136.689 205.834ZM153.135 211C153.031 210.792 152.946 210.421 152.881 209.887C152.041 210.759 151.038 211.195 149.873 211.195C148.831 211.195 147.975 210.902 147.305 210.316C146.641 209.724 146.309 208.975 146.309 208.07C146.309 206.97 146.725 206.117 147.559 205.512C148.398 204.9 149.577 204.594 151.094 204.594H152.852V203.764C152.852 203.132 152.663 202.631 152.285 202.26C151.908 201.882 151.351 201.693 150.615 201.693C149.971 201.693 149.43 201.856 148.994 202.182C148.558 202.507 148.34 202.901 148.34 203.363H146.523C146.523 202.836 146.709 202.328 147.08 201.84C147.458 201.345 147.965 200.954 148.604 200.668C149.248 200.382 149.954 200.238 150.723 200.238C151.94 200.238 152.894 200.544 153.584 201.156C154.274 201.762 154.632 202.598 154.658 203.666V208.529C154.658 209.499 154.782 210.271 155.029 210.844V211H153.135ZM150.137 209.623C150.703 209.623 151.24 209.477 151.748 209.184C152.256 208.891 152.624 208.51 152.852 208.041V205.873H151.436C149.222 205.873 148.115 206.521 148.115 207.816C148.115 208.383 148.304 208.826 148.682 209.145C149.059 209.464 149.544 209.623 150.137 209.623ZM159.941 197.875V200.434H161.914V201.83H159.941V208.383C159.941 208.806 160.029 209.125 160.205 209.34C160.381 209.548 160.68 209.652 161.104 209.652C161.312 209.652 161.598 209.613 161.963 209.535V211C161.488 211.13 161.025 211.195 160.576 211.195C159.769 211.195 159.16 210.951 158.75 210.463C158.34 209.975 158.135 209.281 158.135 208.383V201.83H156.211V200.434H158.135V197.875H159.941ZM170.557 211C170.452 210.792 170.368 210.421 170.303 209.887C169.463 210.759 168.46 211.195 167.295 211.195C166.253 211.195 165.397 210.902 164.727 210.316C164.062 209.724 163.73 208.975 163.73 208.07C163.73 206.97 164.147 206.117 164.98 205.512C165.82 204.9 166.999 204.594 168.516 204.594H170.273V203.764C170.273 203.132 170.085 202.631 169.707 202.26C169.329 201.882 168.773 201.693 168.037 201.693C167.393 201.693 166.852 201.856 166.416 202.182C165.98 202.507 165.762 202.901 165.762 203.363H163.945C163.945 202.836 164.131 202.328 164.502 201.84C164.88 201.345 165.387 200.954 166.025 200.668C166.67 200.382 167.376 200.238 168.145 200.238C169.362 200.238 170.316 200.544 171.006 201.156C171.696 201.762 172.054 202.598 172.08 203.666V208.529C172.08 209.499 172.204 210.271 172.451 210.844V211H170.557ZM167.559 209.623C168.125 209.623 168.662 209.477 169.17 209.184C169.678 208.891 170.046 208.51 170.273 208.041V205.873H168.857C166.644 205.873 165.537 206.521 165.537 207.816C165.537 208.383 165.726 208.826 166.104 209.145C166.481 209.464 166.966 209.623 167.559 209.623ZM184.111 209.721C184.756 209.721 185.319 209.525 185.801 209.135C186.283 208.744 186.549 208.256 186.602 207.67H188.311C188.278 208.275 188.07 208.852 187.686 209.398C187.301 209.945 186.787 210.382 186.143 210.707C185.505 211.033 184.827 211.195 184.111 211.195C182.673 211.195 181.527 210.717 180.674 209.76C179.827 208.796 179.404 207.481 179.404 205.814V205.512C179.404 204.483 179.593 203.568 179.971 202.768C180.348 201.967 180.889 201.345 181.592 200.902C182.301 200.46 183.138 200.238 184.102 200.238C185.286 200.238 186.27 200.593 187.051 201.303C187.839 202.012 188.258 202.934 188.311 204.066H186.602C186.549 203.383 186.289 202.823 185.82 202.387C185.358 201.944 184.785 201.723 184.102 201.723C183.184 201.723 182.471 202.055 181.963 202.719C181.462 203.376 181.211 204.33 181.211 205.58V205.922C181.211 207.139 181.462 208.077 181.963 208.734C182.464 209.392 183.18 209.721 184.111 209.721ZM194.727 211.195C193.294 211.195 192.129 210.727 191.23 209.789C190.332 208.845 189.883 207.585 189.883 206.01V205.678C189.883 204.63 190.081 203.695 190.479 202.875C190.882 202.048 191.442 201.404 192.158 200.941C192.881 200.473 193.662 200.238 194.502 200.238C195.876 200.238 196.943 200.691 197.705 201.596C198.467 202.501 198.848 203.796 198.848 205.482V206.234H191.689C191.715 207.276 192.018 208.119 192.598 208.764C193.184 209.402 193.926 209.721 194.824 209.721C195.462 209.721 196.003 209.59 196.445 209.33C196.888 209.07 197.275 208.725 197.607 208.295L198.711 209.154C197.826 210.515 196.497 211.195 194.727 211.195ZM194.502 201.723C193.773 201.723 193.161 201.99 192.666 202.523C192.171 203.051 191.865 203.793 191.748 204.75H197.041V204.613C196.989 203.695 196.742 202.986 196.299 202.484C195.856 201.977 195.257 201.723 194.502 201.723ZM202.656 200.434L202.715 201.762C203.522 200.746 204.577 200.238 205.879 200.238C208.112 200.238 209.238 201.498 209.258 204.018V211H207.451V204.008C207.445 203.246 207.269 202.683 206.924 202.318C206.585 201.954 206.055 201.771 205.332 201.771C204.746 201.771 204.232 201.928 203.789 202.24C203.346 202.553 203.001 202.963 202.754 203.471V211H200.947V200.434H202.656ZM214.434 197.875V200.434H216.406V201.83H214.434V208.383C214.434 208.806 214.521 209.125 214.697 209.34C214.873 209.548 215.173 209.652 215.596 209.652C215.804 209.652 216.09 209.613 216.455 209.535V211C215.98 211.13 215.518 211.195 215.068 211.195C214.261 211.195 213.652 210.951 213.242 210.463C212.832 209.975 212.627 209.281 212.627 208.383V201.83H210.703V200.434H212.627V197.875H214.434ZM223.633 202.055C223.359 202.009 223.063 201.986 222.744 201.986C221.559 201.986 220.755 202.491 220.332 203.5V211H218.525V200.434H220.283L220.312 201.654C220.905 200.71 221.745 200.238 222.832 200.238C223.184 200.238 223.451 200.284 223.633 200.375V202.055ZM229.492 211.195C228.06 211.195 226.895 210.727 225.996 209.789C225.098 208.845 224.648 207.585 224.648 206.01V205.678C224.648 204.63 224.847 203.695 225.244 202.875C225.648 202.048 226.208 201.404 226.924 200.941C227.646 200.473 228.428 200.238 229.268 200.238C230.641 200.238 231.709 200.691 232.471 201.596C233.232 202.501 233.613 203.796 233.613 205.482V206.234H226.455C226.481 207.276 226.784 208.119 227.363 208.764C227.949 209.402 228.691 209.721 229.59 209.721C230.228 209.721 230.768 209.59 231.211 209.33C231.654 209.07 232.041 208.725 232.373 208.295L233.477 209.154C232.591 210.515 231.263 211.195 229.492 211.195ZM229.268 201.723C228.538 201.723 227.926 201.99 227.432 202.523C226.937 203.051 226.631 203.793 226.514 204.75H231.807V204.613C231.755 203.695 231.507 202.986 231.064 202.484C230.622 201.977 230.023 201.723 229.268 201.723ZM250.029 208.51L252.061 200.434H253.867L250.791 211H249.326L246.758 202.992L244.258 211H242.793L239.727 200.434H241.523L243.604 208.344L246.064 200.434H247.52L250.029 208.51ZM257.676 211H255.869V200.434H257.676V211ZM255.723 197.631C255.723 197.338 255.811 197.09 255.986 196.889C256.169 196.687 256.436 196.586 256.787 196.586C257.139 196.586 257.406 196.687 257.588 196.889C257.77 197.09 257.861 197.338 257.861 197.631C257.861 197.924 257.77 198.168 257.588 198.363C257.406 198.559 257.139 198.656 256.787 198.656C256.436 198.656 256.169 198.559 255.986 198.363C255.811 198.168 255.723 197.924 255.723 197.631ZM263.027 197.875V200.434H265V201.83H263.027V208.383C263.027 208.806 263.115 209.125 263.291 209.34C263.467 209.548 263.766 209.652 264.189 209.652C264.398 209.652 264.684 209.613 265.049 209.535V211C264.574 211.13 264.111 211.195 263.662 211.195C262.855 211.195 262.246 210.951 261.836 210.463C261.426 209.975 261.221 209.281 261.221 208.383V201.83H259.297V200.434H261.221V197.875H263.027ZM268.926 201.713C269.727 200.73 270.768 200.238 272.051 200.238C274.284 200.238 275.41 201.498 275.43 204.018V211H273.623V204.008C273.617 203.246 273.441 202.683 273.096 202.318C272.757 201.954 272.227 201.771 271.504 201.771C270.918 201.771 270.404 201.928 269.961 202.24C269.518 202.553 269.173 202.963 268.926 203.471V211H267.119V196H268.926V201.713ZM6.5918 228.434L6.64062 229.605C7.41536 228.694 8.46029 228.238 9.77539 228.238C11.2533 228.238 12.2591 228.805 12.793 229.938C13.1445 229.43 13.6003 229.02 14.1602 228.707C14.7266 228.395 15.3939 228.238 16.1621 228.238C18.4798 228.238 19.6582 229.465 19.6973 231.92V239H17.8906V232.027C17.8906 231.272 17.7181 230.709 17.373 230.338C17.028 229.96 16.4486 229.771 15.6348 229.771C14.9642 229.771 14.4076 229.973 13.9648 230.377C13.5221 230.774 13.265 231.311 13.1934 231.988V239H11.377V232.076C11.377 230.54 10.625 229.771 9.12109 229.771C7.9362 229.771 7.12565 230.276 6.68945 231.285V239H4.88281V228.434H6.5918ZM21.9531 233.619C21.9531 232.584 22.1549 231.653 22.5586 230.826C22.9688 229.999 23.5352 229.361 24.2578 228.912C24.987 228.463 25.8171 228.238 26.748 228.238C28.1868 228.238 29.349 228.736 30.2344 229.732C31.1263 230.729 31.5723 232.053 31.5723 233.707V233.834C31.5723 234.863 31.3737 235.787 30.9766 236.607C30.5859 237.421 30.0228 238.056 29.2871 238.512C28.5579 238.967 27.7181 239.195 26.7676 239.195C25.3353 239.195 24.1732 238.697 23.2812 237.701C22.3958 236.705 21.9531 235.387 21.9531 233.746V233.619ZM23.7695 233.834C23.7695 235.006 24.0397 235.947 24.5801 236.656C25.127 237.366 25.8561 237.721 26.7676 237.721C27.6855 237.721 28.4147 237.363 28.9551 236.646C29.4954 235.924 29.7656 234.915 29.7656 233.619C29.7656 232.46 29.4889 231.523 28.9355 230.807C28.3887 230.084 27.6595 229.723 26.748 229.723C25.8561 229.723 25.1367 230.077 24.5898 230.787C24.043 231.497 23.7695 232.512 23.7695 233.834ZM38.9453 230.055C38.6719 230.009 38.3757 229.986 38.0566 229.986C36.8717 229.986 36.0677 230.491 35.6445 231.5V239H33.8379V228.434H35.5957L35.625 229.654C36.2174 228.71 37.0573 228.238 38.1445 228.238C38.4961 228.238 38.763 228.284 38.9453 228.375V230.055ZM44.8047 239.195C43.3724 239.195 42.207 238.727 41.3086 237.789C40.4102 236.845 39.9609 235.585 39.9609 234.01V233.678C39.9609 232.63 40.1595 231.695 40.5566 230.875C40.9603 230.048 41.5202 229.404 42.2363 228.941C42.959 228.473 43.7402 228.238 44.5801 228.238C45.9538 228.238 47.0215 228.691 47.7832 229.596C48.5449 230.501 48.9258 231.796 48.9258 233.482V234.234H41.7676C41.7936 235.276 42.0964 236.119 42.6758 236.764C43.2617 237.402 44.0039 237.721 44.9023 237.721C45.5404 237.721 46.0807 237.59 46.5234 237.33C46.9661 237.07 47.3535 236.725 47.6855 236.295L48.7891 237.154C47.9036 238.515 46.5755 239.195 44.8047 239.195ZM44.5801 229.723C43.8509 229.723 43.2389 229.99 42.7441 230.523C42.2493 231.051 41.9434 231.793 41.8262 232.75H47.1191V232.613C47.0671 231.695 46.8197 230.986 46.377 230.484C45.9342 229.977 45.3353 229.723 44.5801 229.723ZM58.4375 225.875V228.434H60.4102V229.83H58.4375V236.383C58.4375 236.806 58.5254 237.125 58.7012 237.34C58.877 237.548 59.1764 237.652 59.5996 237.652C59.8079 237.652 60.0944 237.613 60.459 237.535V239C59.9837 239.13 59.5215 239.195 59.0723 239.195C58.265 239.195 57.6562 238.951 57.2461 238.463C56.8359 237.975 56.6309 237.281 56.6309 236.383V229.83H54.707V228.434H56.6309V225.875H58.4375ZM64.3359 229.713C65.1367 228.73 66.1784 228.238 67.4609 228.238C69.694 228.238 70.8203 229.498 70.8398 232.018V239H69.0332V232.008C69.0267 231.246 68.8509 230.683 68.5059 230.318C68.1673 229.954 67.6367 229.771 66.9141 229.771C66.3281 229.771 65.8138 229.928 65.3711 230.24C64.9284 230.553 64.5833 230.963 64.3359 231.471V239H62.5293V224H64.3359V229.713ZM80.0684 239C79.9642 238.792 79.8796 238.421 79.8145 237.887C78.9746 238.759 77.972 239.195 76.8066 239.195C75.765 239.195 74.9089 238.902 74.2383 238.316C73.5742 237.724 73.2422 236.975 73.2422 236.07C73.2422 234.97 73.6589 234.117 74.4922 233.512C75.332 232.9 76.5104 232.594 78.0273 232.594H79.7852V231.764C79.7852 231.132 79.5964 230.631 79.2188 230.26C78.8411 229.882 78.2845 229.693 77.5488 229.693C76.9043 229.693 76.3639 229.856 75.9277 230.182C75.4915 230.507 75.2734 230.901 75.2734 231.363H73.457C73.457 230.836 73.6426 230.328 74.0137 229.84C74.3913 229.345 74.8991 228.954 75.5371 228.668C76.1816 228.382 76.888 228.238 77.6562 228.238C78.8737 228.238 79.8275 228.544 80.5176 229.156C81.2077 229.762 81.5658 230.598 81.5918 231.666V236.529C81.5918 237.499 81.7155 238.271 81.9629 238.844V239H80.0684ZM77.0703 237.623C77.6367 237.623 78.1738 237.477 78.6816 237.184C79.1895 236.891 79.5573 236.51 79.7852 236.041V233.873H78.3691C76.1556 233.873 75.0488 234.521 75.0488 235.816C75.0488 236.383 75.2376 236.826 75.6152 237.145C75.9928 237.464 76.4779 237.623 77.0703 237.623ZM86.1328 228.434L86.1914 229.762C86.9987 228.746 88.0534 228.238 89.3555 228.238C91.5885 228.238 92.7148 229.498 92.7344 232.018V239H90.9277V232.008C90.9212 231.246 90.7454 230.683 90.4004 230.318C90.0618 229.954 89.5312 229.771 88.8086 229.771C88.2227 229.771 87.7083 229.928 87.2656 230.24C86.8229 230.553 86.4779 230.963 86.2305 231.471V239H84.4238V228.434H86.1328ZM102.861 231.012H104.219C105.072 230.999 105.742 230.774 106.23 230.338C106.719 229.902 106.963 229.312 106.963 228.57C106.963 226.904 106.133 226.07 104.473 226.07C103.691 226.07 103.066 226.295 102.598 226.744C102.135 227.187 101.904 227.776 101.904 228.512H100.098C100.098 227.385 100.508 226.451 101.328 225.709C102.155 224.96 103.203 224.586 104.473 224.586C105.814 224.586 106.865 224.941 107.627 225.65C108.389 226.36 108.77 227.346 108.77 228.609C108.77 229.228 108.568 229.827 108.164 230.406C107.767 230.986 107.223 231.419 106.533 231.705C107.314 231.952 107.917 232.363 108.34 232.936C108.77 233.508 108.984 234.208 108.984 235.035C108.984 236.311 108.568 237.324 107.734 238.072C106.901 238.821 105.817 239.195 104.482 239.195C103.148 239.195 102.061 238.834 101.221 238.111C100.387 237.389 99.9707 236.435 99.9707 235.25H101.787C101.787 235.999 102.031 236.598 102.52 237.047C103.008 237.496 103.662 237.721 104.482 237.721C105.355 237.721 106.022 237.493 106.484 237.037C106.947 236.581 107.178 235.927 107.178 235.074C107.178 234.247 106.924 233.613 106.416 233.17C105.908 232.727 105.176 232.499 104.219 232.486H102.861V231.012ZM120.381 232.936C120.381 235.051 120.02 236.624 119.297 237.652C118.574 238.681 117.445 239.195 115.908 239.195C114.391 239.195 113.268 238.694 112.539 237.691C111.81 236.682 111.432 235.178 111.406 233.18V230.768C111.406 228.678 111.768 227.125 112.49 226.109C113.213 225.094 114.346 224.586 115.889 224.586C117.419 224.586 118.545 225.077 119.268 226.061C119.99 227.037 120.361 228.548 120.381 230.592V232.936ZM118.574 230.465C118.574 228.935 118.359 227.822 117.93 227.125C117.5 226.422 116.82 226.07 115.889 226.07C114.964 226.07 114.29 226.419 113.867 227.115C113.444 227.812 113.226 228.883 113.213 230.328V233.219C113.213 234.755 113.434 235.891 113.877 236.627C114.326 237.356 115.003 237.721 115.908 237.721C116.8 237.721 117.461 237.376 117.891 236.686C118.327 235.995 118.555 234.908 118.574 233.424V230.465ZM131.611 232.936C131.611 235.051 131.25 236.624 130.527 237.652C129.805 238.681 128.675 239.195 127.139 239.195C125.622 239.195 124.499 238.694 123.77 237.691C123.04 236.682 122.663 235.178 122.637 233.18V230.768C122.637 228.678 122.998 227.125 123.721 226.109C124.443 225.094 125.576 224.586 127.119 224.586C128.649 224.586 129.775 225.077 130.498 226.061C131.221 227.037 131.592 228.548 131.611 230.592V232.936ZM129.805 230.465C129.805 228.935 129.59 227.822 129.16 227.125C128.73 226.422 128.05 226.07 127.119 226.07C126.195 226.07 125.521 226.419 125.098 227.115C124.674 227.812 124.456 228.883 124.443 230.328V233.219C124.443 234.755 124.665 235.891 125.107 236.627C125.557 237.356 126.234 237.721 127.139 237.721C128.031 237.721 128.691 237.376 129.121 236.686C129.557 235.995 129.785 234.908 129.805 233.424V230.465ZM140.771 228.434L140.82 229.605C141.595 228.694 142.64 228.238 143.955 228.238C145.433 228.238 146.439 228.805 146.973 229.938C147.324 229.43 147.78 229.02 148.34 228.707C148.906 228.395 149.574 228.238 150.342 228.238C152.66 228.238 153.838 229.465 153.877 231.92V239H152.07V232.027C152.07 231.272 151.898 230.709 151.553 230.338C151.208 229.96 150.628 229.771 149.814 229.771C149.144 229.771 148.587 229.973 148.145 230.377C147.702 230.774 147.445 231.311 147.373 231.988V239H145.557V232.076C145.557 230.54 144.805 229.771 143.301 229.771C142.116 229.771 141.305 230.276 140.869 231.285V239H139.062V228.434H140.771ZM163.135 239C163.031 238.792 162.946 238.421 162.881 237.887C162.041 238.759 161.038 239.195 159.873 239.195C158.831 239.195 157.975 238.902 157.305 238.316C156.641 237.724 156.309 236.975 156.309 236.07C156.309 234.97 156.725 234.117 157.559 233.512C158.398 232.9 159.577 232.594 161.094 232.594H162.852V231.764C162.852 231.132 162.663 230.631 162.285 230.26C161.908 229.882 161.351 229.693 160.615 229.693C159.971 229.693 159.43 229.856 158.994 230.182C158.558 230.507 158.34 230.901 158.34 231.363H156.523C156.523 230.836 156.709 230.328 157.08 229.84C157.458 229.345 157.965 228.954 158.604 228.668C159.248 228.382 159.954 228.238 160.723 228.238C161.94 228.238 162.894 228.544 163.584 229.156C164.274 229.762 164.632 230.598 164.658 231.666V236.529C164.658 237.499 164.782 238.271 165.029 238.844V239H163.135ZM160.137 237.623C160.703 237.623 161.24 237.477 161.748 237.184C162.256 236.891 162.624 236.51 162.852 236.041V233.873H161.436C159.222 233.873 158.115 234.521 158.115 235.816C158.115 236.383 158.304 236.826 158.682 237.145C159.059 237.464 159.544 237.623 160.137 237.623ZM171.729 237.721C172.373 237.721 172.936 237.525 173.418 237.135C173.9 236.744 174.167 236.256 174.219 235.67H175.928C175.895 236.275 175.687 236.852 175.303 237.398C174.919 237.945 174.404 238.382 173.76 238.707C173.122 239.033 172.445 239.195 171.729 239.195C170.29 239.195 169.144 238.717 168.291 237.76C167.445 236.796 167.021 235.481 167.021 233.814V233.512C167.021 232.483 167.21 231.568 167.588 230.768C167.965 229.967 168.506 229.345 169.209 228.902C169.919 228.46 170.755 228.238 171.719 228.238C172.904 228.238 173.887 228.593 174.668 229.303C175.456 230.012 175.876 230.934 175.928 232.066H174.219C174.167 231.383 173.906 230.823 173.438 230.387C172.975 229.944 172.402 229.723 171.719 229.723C170.801 229.723 170.088 230.055 169.58 230.719C169.079 231.376 168.828 232.33 168.828 233.58V233.922C168.828 235.139 169.079 236.077 169.58 236.734C170.081 237.392 170.798 237.721 171.729 237.721ZM179.766 229.713C180.566 228.73 181.608 228.238 182.891 228.238C185.124 228.238 186.25 229.498 186.27 232.018V239H184.463V232.008C184.456 231.246 184.281 230.683 183.936 230.318C183.597 229.954 183.066 229.771 182.344 229.771C181.758 229.771 181.243 229.928 180.801 230.24C180.358 230.553 180.013 230.963 179.766 231.471V239H177.959V224H179.766V229.713ZM190.684 228.434L190.742 229.762C191.549 228.746 192.604 228.238 193.906 228.238C196.139 228.238 197.266 229.498 197.285 232.018V239H195.479V232.008C195.472 231.246 195.296 230.683 194.951 230.318C194.613 229.954 194.082 229.771 193.359 229.771C192.773 229.771 192.259 229.928 191.816 230.24C191.374 230.553 191.029 230.963 190.781 231.471V239H188.975V228.434H190.684ZM204.395 239.195C202.962 239.195 201.797 238.727 200.898 237.789C200 236.845 199.551 235.585 199.551 234.01V233.678C199.551 232.63 199.749 231.695 200.146 230.875C200.55 230.048 201.11 229.404 201.826 228.941C202.549 228.473 203.33 228.238 204.17 228.238C205.544 228.238 206.611 228.691 207.373 229.596C208.135 230.501 208.516 231.796 208.516 233.482V234.234H201.357C201.383 235.276 201.686 236.119 202.266 236.764C202.852 237.402 203.594 237.721 204.492 237.721C205.13 237.721 205.671 237.59 206.113 237.33C206.556 237.07 206.943 236.725 207.275 236.295L208.379 237.154C207.493 238.515 206.165 239.195 204.395 239.195ZM204.17 229.723C203.441 229.723 202.829 229.99 202.334 230.523C201.839 231.051 201.533 231.793 201.416 232.75H206.709V232.613C206.657 231.695 206.41 230.986 205.967 230.484C205.524 229.977 204.925 229.723 204.17 229.723ZM216.768 236.197C216.768 235.709 216.582 235.331 216.211 235.064C215.846 234.791 215.205 234.557 214.287 234.361C213.376 234.166 212.65 233.932 212.109 233.658C211.576 233.385 211.178 233.059 210.918 232.682C210.664 232.304 210.537 231.855 210.537 231.334C210.537 230.468 210.902 229.736 211.631 229.137C212.367 228.538 213.304 228.238 214.443 228.238C215.641 228.238 216.611 228.548 217.354 229.166C218.102 229.785 218.477 230.576 218.477 231.539H216.66C216.66 231.044 216.449 230.618 216.025 230.26C215.609 229.902 215.081 229.723 214.443 229.723C213.786 229.723 213.271 229.866 212.9 230.152C212.529 230.439 212.344 230.813 212.344 231.275C212.344 231.712 212.516 232.04 212.861 232.262C213.206 232.483 213.828 232.695 214.727 232.896C215.632 233.098 216.364 233.339 216.924 233.619C217.484 233.899 217.897 234.238 218.164 234.635C218.438 235.025 218.574 235.504 218.574 236.07C218.574 237.014 218.197 237.773 217.441 238.346C216.686 238.912 215.706 239.195 214.502 239.195C213.656 239.195 212.907 239.046 212.256 238.746C211.605 238.447 211.094 238.03 210.723 237.496C210.358 236.956 210.176 236.373 210.176 235.748H211.982C212.015 236.354 212.256 236.835 212.705 237.193C213.161 237.545 213.76 237.721 214.502 237.721C215.186 237.721 215.732 237.584 216.143 237.311C216.559 237.031 216.768 236.66 216.768 236.197ZM230.996 230.055C230.723 230.009 230.426 229.986 230.107 229.986C228.923 229.986 228.118 230.491 227.695 231.5V239H225.889V228.434H227.646L227.676 229.654C228.268 228.71 229.108 228.238 230.195 228.238C230.547 228.238 230.814 228.284 230.996 228.375V230.055ZM236.855 239.195C235.423 239.195 234.258 238.727 233.359 237.789C232.461 236.845 232.012 235.585 232.012 234.01V233.678C232.012 232.63 232.21 231.695 232.607 230.875C233.011 230.048 233.571 229.404 234.287 228.941C235.01 228.473 235.791 228.238 236.631 228.238C238.005 228.238 239.072 228.691 239.834 229.596C240.596 230.501 240.977 231.796 240.977 233.482V234.234H233.818C233.844 235.276 234.147 236.119 234.727 236.764C235.312 237.402 236.055 237.721 236.953 237.721C237.591 237.721 238.132 237.59 238.574 237.33C239.017 237.07 239.404 236.725 239.736 236.295L240.84 237.154C239.954 238.515 238.626 239.195 236.855 239.195ZM236.631 229.723C235.902 229.723 235.29 229.99 234.795 230.523C234.3 231.051 233.994 231.793 233.877 232.75H239.17V232.613C239.118 231.695 238.87 230.986 238.428 230.484C237.985 229.977 237.386 229.723 236.631 229.723ZM242.637 233.629C242.637 231.969 243.018 230.657 243.779 229.693C244.541 228.723 245.563 228.238 246.846 228.238C248.096 228.238 249.082 228.658 249.805 229.498L249.883 228.434H251.543V243.062H249.736V238.023C249.007 238.805 248.037 239.195 246.826 239.195C245.55 239.195 244.531 238.701 243.77 237.711C243.014 236.715 242.637 235.396 242.637 233.756V233.629ZM244.443 233.834C244.443 235.045 244.697 235.995 245.205 236.686C245.719 237.376 246.41 237.721 247.275 237.721C248.35 237.721 249.17 237.245 249.736 236.295V231.119C249.163 230.188 248.35 229.723 247.295 229.723C246.423 229.723 245.729 230.071 245.215 230.768C244.701 231.458 244.443 232.48 244.443 233.834ZM260.967 237.955C260.264 238.782 259.232 239.195 257.871 239.195C256.745 239.195 255.885 238.87 255.293 238.219C254.707 237.561 254.411 236.591 254.404 235.309V228.434H256.211V235.26C256.211 236.861 256.862 237.662 258.164 237.662C259.544 237.662 260.462 237.148 260.918 236.119V228.434H262.725V239H261.006L260.967 237.955ZM267.441 239H265.635V228.434H267.441V239ZM265.488 225.631C265.488 225.338 265.576 225.09 265.752 224.889C265.934 224.687 266.201 224.586 266.553 224.586C266.904 224.586 267.171 224.687 267.354 224.889C267.536 225.09 267.627 225.338 267.627 225.631C267.627 225.924 267.536 226.168 267.354 226.363C267.171 226.559 266.904 226.656 266.553 226.656C266.201 226.656 265.934 226.559 265.752 226.363C265.576 226.168 265.488 225.924 265.488 225.631ZM275.449 230.055C275.176 230.009 274.88 229.986 274.561 229.986C273.376 229.986 272.572 230.491 272.148 231.5V239H270.342V228.434H272.1L272.129 229.654C272.721 228.71 273.561 228.238 274.648 228.238C275 228.238 275.267 228.284 275.449 228.375V230.055ZM281.309 239.195C279.876 239.195 278.711 238.727 277.812 237.789C276.914 236.845 276.465 235.585 276.465 234.01V233.678C276.465 232.63 276.663 231.695 277.061 230.875C277.464 230.048 278.024 229.404 278.74 228.941C279.463 228.473 280.244 228.238 281.084 228.238C282.458 228.238 283.525 228.691 284.287 229.596C285.049 230.501 285.43 231.796 285.43 233.482V234.234H278.271C278.298 235.276 278.6 236.119 279.18 236.764C279.766 237.402 280.508 237.721 281.406 237.721C282.044 237.721 282.585 237.59 283.027 237.33C283.47 237.07 283.857 236.725 284.189 236.295L285.293 237.154C284.408 238.515 283.079 239.195 281.309 239.195ZM281.084 229.723C280.355 229.723 279.743 229.99 279.248 230.523C278.753 231.051 278.447 231.793 278.33 232.75H283.623V232.613C283.571 231.695 283.324 230.986 282.881 230.484C282.438 229.977 281.839 229.723 281.084 229.723ZM293.682 236.197C293.682 235.709 293.496 235.331 293.125 235.064C292.76 234.791 292.119 234.557 291.201 234.361C290.29 234.166 289.564 233.932 289.023 233.658C288.49 233.385 288.092 233.059 287.832 232.682C287.578 232.304 287.451 231.855 287.451 231.334C287.451 230.468 287.816 229.736 288.545 229.137C289.281 228.538 290.218 228.238 291.357 228.238C292.555 228.238 293.525 228.548 294.268 229.166C295.016 229.785 295.391 230.576 295.391 231.539H293.574C293.574 231.044 293.363 230.618 292.939 230.26C292.523 229.902 291.995 229.723 291.357 229.723C290.7 229.723 290.186 229.866 289.814 230.152C289.443 230.439 289.258 230.813 289.258 231.275C289.258 231.712 289.43 232.04 289.775 232.262C290.12 232.483 290.742 232.695 291.641 232.896C292.546 233.098 293.278 233.339 293.838 233.619C294.398 233.899 294.811 234.238 295.078 234.635C295.352 235.025 295.488 235.504 295.488 236.07C295.488 237.014 295.111 237.773 294.355 238.346C293.6 238.912 292.62 239.195 291.416 239.195C290.57 239.195 289.821 239.046 289.17 238.746C288.519 238.447 288.008 238.03 287.637 237.496C287.272 236.956 287.09 236.373 287.09 235.748H288.896C288.929 236.354 289.17 236.835 289.619 237.193C290.075 237.545 290.674 237.721 291.416 237.721C292.1 237.721 292.646 237.584 293.057 237.311C293.473 237.031 293.682 236.66 293.682 236.197ZM25.6445 261.834C25.6445 263.449 25.2734 264.747 24.5312 265.73C23.7891 266.707 22.793 267.195 21.543 267.195C20.2083 267.195 19.1764 266.723 18.4473 265.779L18.3594 267H16.6992V252H18.5059V257.596C19.235 256.691 20.2409 256.238 21.5234 256.238C22.806 256.238 23.8118 256.723 24.541 257.693C25.2767 258.663 25.6445 259.992 25.6445 261.678V261.834ZM23.8379 261.629C23.8379 260.398 23.6003 259.448 23.125 258.777C22.6497 258.107 21.9661 257.771 21.0742 257.771C19.8828 257.771 19.0267 258.325 18.5059 259.432V264.002C19.0592 265.109 19.9219 265.662 21.0938 265.662C21.9596 265.662 22.6335 265.327 23.1152 264.656C23.597 263.986 23.8379 262.977 23.8379 261.629ZM27.4512 261.619C27.4512 260.584 27.653 259.653 28.0566 258.826C28.4668 257.999 29.0332 257.361 29.7559 256.912C30.485 256.463 31.3151 256.238 32.2461 256.238C33.6849 256.238 34.847 256.736 35.7324 257.732C36.6243 258.729 37.0703 260.053 37.0703 261.707V261.834C37.0703 262.863 36.8717 263.787 36.4746 264.607C36.084 265.421 35.5208 266.056 34.7852 266.512C34.056 266.967 33.2161 267.195 32.2656 267.195C30.8333 267.195 29.6712 266.697 28.7793 265.701C27.8939 264.705 27.4512 263.387 27.4512 261.746V261.619ZM29.2676 261.834C29.2676 263.006 29.5378 263.947 30.0781 264.656C30.625 265.366 31.3542 265.721 32.2656 265.721C33.1836 265.721 33.9128 265.363 34.4531 264.646C34.9935 263.924 35.2637 262.915 35.2637 261.619C35.2637 260.46 34.987 259.523 34.4336 258.807C33.8867 258.084 33.1576 257.723 32.2461 257.723C31.3542 257.723 30.6348 258.077 30.0879 258.787C29.541 259.497 29.2676 260.512 29.2676 261.834ZM41.7871 253.875V256.434H43.7598V257.83H41.7871V264.383C41.7871 264.806 41.875 265.125 42.0508 265.34C42.2266 265.548 42.526 265.652 42.9492 265.652C43.1576 265.652 43.444 265.613 43.8086 265.535V267C43.3333 267.13 42.8711 267.195 42.4219 267.195C41.6146 267.195 41.0059 266.951 40.5957 266.463C40.1855 265.975 39.9805 265.281 39.9805 264.383V257.83H38.0566V256.434H39.9805V253.875H41.7871ZM47.6855 257.713C48.4863 256.73 49.528 256.238 50.8105 256.238C53.0436 256.238 54.1699 257.498 54.1895 260.018V267H52.3828V260.008C52.3763 259.246 52.2005 258.683 51.8555 258.318C51.5169 257.954 50.9863 257.771 50.2637 257.771C49.6777 257.771 49.1634 257.928 48.7207 258.24C48.278 258.553 47.9329 258.963 47.6855 259.471V267H45.8789V252H47.6855V257.713ZM63.6621 257.713C64.4629 256.73 65.5046 256.238 66.7871 256.238C69.0202 256.238 70.1465 257.498 70.166 260.018V267H68.3594V260.008C68.3529 259.246 68.1771 258.683 67.832 258.318C67.4935 257.954 66.9629 257.771 66.2402 257.771C65.6543 257.771 65.14 257.928 64.6973 258.24C64.2546 258.553 63.9095 258.963 63.6621 259.471V267H61.8555V252H63.6621V257.713ZM74.834 267H73.0273V256.434H74.834V267ZM72.8809 253.631C72.8809 253.338 72.9688 253.09 73.1445 252.889C73.3268 252.687 73.5938 252.586 73.9453 252.586C74.2969 252.586 74.5638 252.687 74.7461 252.889C74.9284 253.09 75.0195 253.338 75.0195 253.631C75.0195 253.924 74.9284 254.168 74.7461 254.363C74.5638 254.559 74.2969 254.656 73.9453 254.656C73.5938 254.656 73.3268 254.559 73.1445 254.363C72.9688 254.168 72.8809 253.924 72.8809 253.631ZM77.3047 261.629C77.3047 259.982 77.6855 258.673 78.4473 257.703C79.209 256.727 80.2181 256.238 81.4746 256.238C82.7637 256.238 83.7695 256.694 84.4922 257.605L84.5801 256.434H86.2305V266.746C86.2305 268.113 85.8236 269.191 85.0098 269.979C84.2025 270.766 83.1152 271.16 81.748 271.16C80.9863 271.16 80.2409 270.997 79.5117 270.672C78.7826 270.346 78.2259 269.9 77.8418 269.334L78.7793 268.25C79.554 269.207 80.5013 269.686 81.6211 269.686C82.5 269.686 83.1836 269.438 83.6719 268.943C84.1667 268.449 84.4141 267.752 84.4141 266.854V265.945C83.6914 266.779 82.7051 267.195 81.4551 267.195C80.2181 267.195 79.2155 266.697 78.4473 265.701C77.6855 264.705 77.3047 263.348 77.3047 261.629ZM79.1211 261.834C79.1211 263.025 79.3652 263.963 79.8535 264.646C80.3418 265.324 81.0254 265.662 81.9043 265.662C83.0436 265.662 83.8802 265.145 84.4141 264.109V259.285C83.8607 258.276 83.0306 257.771 81.9238 257.771C81.0449 257.771 80.3581 258.113 79.8633 258.797C79.3685 259.48 79.1211 260.493 79.1211 261.834ZM90.7715 257.713C91.5723 256.73 92.6139 256.238 93.8965 256.238C96.1296 256.238 97.2559 257.498 97.2754 260.018V267H95.4688V260.008C95.4622 259.246 95.2865 258.683 94.9414 258.318C94.6029 257.954 94.0723 257.771 93.3496 257.771C92.7637 257.771 92.2493 257.928 91.8066 258.24C91.3639 258.553 91.0189 258.963 90.7715 259.471V267H88.9648V252H90.7715V257.713ZM113.867 261.834C113.867 263.442 113.499 264.738 112.764 265.721C112.028 266.704 111.032 267.195 109.775 267.195C108.493 267.195 107.484 266.788 106.748 265.975V271.062H104.941V256.434H106.592L106.68 257.605C107.415 256.694 108.438 256.238 109.746 256.238C111.016 256.238 112.018 256.717 112.754 257.674C113.496 258.631 113.867 259.962 113.867 261.668V261.834ZM112.061 261.629C112.061 260.438 111.807 259.497 111.299 258.807C110.791 258.117 110.094 257.771 109.209 257.771C108.115 257.771 107.295 258.257 106.748 259.227V264.275C107.288 265.239 108.115 265.721 109.229 265.721C110.094 265.721 110.781 265.379 111.289 264.695C111.803 264.005 112.061 262.983 112.061 261.629ZM121.279 258.055C121.006 258.009 120.71 257.986 120.391 257.986C119.206 257.986 118.402 258.491 117.979 259.5V267H116.172V256.434H117.93L117.959 257.654C118.551 256.71 119.391 256.238 120.479 256.238C120.83 256.238 121.097 256.284 121.279 256.375V258.055ZM122.275 261.619C122.275 260.584 122.477 259.653 122.881 258.826C123.291 257.999 123.857 257.361 124.58 256.912C125.309 256.463 126.139 256.238 127.07 256.238C128.509 256.238 129.671 256.736 130.557 257.732C131.449 258.729 131.895 260.053 131.895 261.707V261.834C131.895 262.863 131.696 263.787 131.299 264.607C130.908 265.421 130.345 266.056 129.609 266.512C128.88 266.967 128.04 267.195 127.09 267.195C125.658 267.195 124.495 266.697 123.604 265.701C122.718 264.705 122.275 263.387 122.275 261.746V261.619ZM124.092 261.834C124.092 263.006 124.362 263.947 124.902 264.656C125.449 265.366 126.178 265.721 127.09 265.721C128.008 265.721 128.737 265.363 129.277 264.646C129.818 263.924 130.088 262.915 130.088 261.619C130.088 260.46 129.811 259.523 129.258 258.807C128.711 258.084 127.982 257.723 127.07 257.723C126.178 257.723 125.459 258.077 124.912 258.787C124.365 259.497 124.092 260.512 124.092 261.834ZM135.049 267V257.83H133.379V256.434H135.049V255.35C135.049 254.217 135.352 253.341 135.957 252.723C136.562 252.104 137.419 251.795 138.525 251.795C138.942 251.795 139.355 251.85 139.766 251.961L139.668 253.426C139.362 253.367 139.036 253.338 138.691 253.338C138.105 253.338 137.653 253.51 137.334 253.855C137.015 254.194 136.855 254.682 136.855 255.32V256.434H139.111V257.83H136.855V267H135.049ZM145.264 267.195C143.831 267.195 142.666 266.727 141.768 265.789C140.869 264.845 140.42 263.585 140.42 262.01V261.678C140.42 260.63 140.618 259.695 141.016 258.875C141.419 258.048 141.979 257.404 142.695 256.941C143.418 256.473 144.199 256.238 145.039 256.238C146.413 256.238 147.48 256.691 148.242 257.596C149.004 258.501 149.385 259.796 149.385 261.482V262.234H142.227C142.253 263.276 142.555 264.119 143.135 264.764C143.721 265.402 144.463 265.721 145.361 265.721C145.999 265.721 146.54 265.59 146.982 265.33C147.425 265.07 147.812 264.725 148.145 264.295L149.248 265.154C148.363 266.515 147.035 267.195 145.264 267.195ZM145.039 257.723C144.31 257.723 143.698 257.99 143.203 258.523C142.708 259.051 142.402 259.793 142.285 260.75H147.578V260.613C147.526 259.695 147.279 258.986 146.836 258.484C146.393 257.977 145.794 257.723 145.039 257.723ZM157.637 264.197C157.637 263.709 157.451 263.331 157.08 263.064C156.715 262.791 156.074 262.557 155.156 262.361C154.245 262.166 153.519 261.932 152.979 261.658C152.445 261.385 152.048 261.059 151.787 260.682C151.533 260.304 151.406 259.855 151.406 259.334C151.406 258.468 151.771 257.736 152.5 257.137C153.236 256.538 154.173 256.238 155.312 256.238C156.51 256.238 157.48 256.548 158.223 257.166C158.971 257.785 159.346 258.576 159.346 259.539H157.529C157.529 259.044 157.318 258.618 156.895 258.26C156.478 257.902 155.951 257.723 155.312 257.723C154.655 257.723 154.141 257.866 153.77 258.152C153.398 258.439 153.213 258.813 153.213 259.275C153.213 259.712 153.385 260.04 153.73 260.262C154.076 260.483 154.697 260.695 155.596 260.896C156.501 261.098 157.233 261.339 157.793 261.619C158.353 261.899 158.766 262.238 159.033 262.635C159.307 263.025 159.443 263.504 159.443 264.07C159.443 265.014 159.066 265.773 158.311 266.346C157.555 266.912 156.576 267.195 155.371 267.195C154.525 267.195 153.776 267.046 153.125 266.746C152.474 266.447 151.963 266.03 151.592 265.496C151.227 264.956 151.045 264.373 151.045 263.748H152.852C152.884 264.354 153.125 264.835 153.574 265.193C154.03 265.545 154.629 265.721 155.371 265.721C156.055 265.721 156.602 265.584 157.012 265.311C157.428 265.031 157.637 264.66 157.637 264.197ZM167.949 264.197C167.949 263.709 167.764 263.331 167.393 263.064C167.028 262.791 166.387 262.557 165.469 262.361C164.557 262.166 163.831 261.932 163.291 261.658C162.757 261.385 162.36 261.059 162.1 260.682C161.846 260.304 161.719 259.855 161.719 259.334C161.719 258.468 162.083 257.736 162.812 257.137C163.548 256.538 164.486 256.238 165.625 256.238C166.823 256.238 167.793 256.548 168.535 257.166C169.284 257.785 169.658 258.576 169.658 259.539H167.842C167.842 259.044 167.63 258.618 167.207 258.26C166.79 257.902 166.263 257.723 165.625 257.723C164.967 257.723 164.453 257.866 164.082 258.152C163.711 258.439 163.525 258.813 163.525 259.275C163.525 259.712 163.698 260.04 164.043 260.262C164.388 260.483 165.01 260.695 165.908 260.896C166.813 261.098 167.546 261.339 168.105 261.619C168.665 261.899 169.079 262.238 169.346 262.635C169.619 263.025 169.756 263.504 169.756 264.07C169.756 265.014 169.378 265.773 168.623 266.346C167.868 266.912 166.888 267.195 165.684 267.195C164.837 267.195 164.089 267.046 163.438 266.746C162.786 266.447 162.275 266.03 161.904 265.496C161.54 264.956 161.357 264.373 161.357 263.748H163.164C163.197 264.354 163.438 264.835 163.887 265.193C164.342 265.545 164.941 265.721 165.684 265.721C166.367 265.721 166.914 265.584 167.324 265.311C167.741 265.031 167.949 264.66 167.949 264.197ZM174.072 267H172.266V256.434H174.072V267ZM172.119 253.631C172.119 253.338 172.207 253.09 172.383 252.889C172.565 252.687 172.832 252.586 173.184 252.586C173.535 252.586 173.802 252.687 173.984 252.889C174.167 253.09 174.258 253.338 174.258 253.631C174.258 253.924 174.167 254.168 173.984 254.363C173.802 254.559 173.535 254.656 173.184 254.656C172.832 254.656 172.565 254.559 172.383 254.363C172.207 254.168 172.119 253.924 172.119 253.631ZM176.494 261.619C176.494 260.584 176.696 259.653 177.1 258.826C177.51 257.999 178.076 257.361 178.799 256.912C179.528 256.463 180.358 256.238 181.289 256.238C182.728 256.238 183.89 256.736 184.775 257.732C185.667 258.729 186.113 260.053 186.113 261.707V261.834C186.113 262.863 185.915 263.787 185.518 264.607C185.127 265.421 184.564 266.056 183.828 266.512C183.099 266.967 182.259 267.195 181.309 267.195C179.876 267.195 178.714 266.697 177.822 265.701C176.937 264.705 176.494 263.387 176.494 261.746V261.619ZM178.311 261.834C178.311 263.006 178.581 263.947 179.121 264.656C179.668 265.366 180.397 265.721 181.309 265.721C182.227 265.721 182.956 265.363 183.496 264.646C184.036 263.924 184.307 262.915 184.307 261.619C184.307 260.46 184.03 259.523 183.477 258.807C182.93 258.084 182.201 257.723 181.289 257.723C180.397 257.723 179.678 258.077 179.131 258.787C178.584 259.497 178.311 260.512 178.311 261.834ZM190.088 256.434L190.146 257.762C190.954 256.746 192.008 256.238 193.311 256.238C195.544 256.238 196.67 257.498 196.689 260.018V267H194.883V260.008C194.876 259.246 194.701 258.683 194.355 258.318C194.017 257.954 193.486 257.771 192.764 257.771C192.178 257.771 191.663 257.928 191.221 258.24C190.778 258.553 190.433 258.963 190.186 259.471V267H188.379V256.434H190.088ZM205.938 267C205.833 266.792 205.749 266.421 205.684 265.887C204.844 266.759 203.841 267.195 202.676 267.195C201.634 267.195 200.778 266.902 200.107 266.316C199.443 265.724 199.111 264.975 199.111 264.07C199.111 262.97 199.528 262.117 200.361 261.512C201.201 260.9 202.38 260.594 203.896 260.594H205.654V259.764C205.654 259.132 205.465 258.631 205.088 258.26C204.71 257.882 204.154 257.693 203.418 257.693C202.773 257.693 202.233 257.856 201.797 258.182C201.361 258.507 201.143 258.901 201.143 259.363H199.326C199.326 258.836 199.512 258.328 199.883 257.84C200.26 257.345 200.768 256.954 201.406 256.668C202.051 256.382 202.757 256.238 203.525 256.238C204.743 256.238 205.697 256.544 206.387 257.156C207.077 257.762 207.435 258.598 207.461 259.666V264.529C207.461 265.499 207.585 266.271 207.832 266.844V267H205.938ZM202.939 265.623C203.506 265.623 204.043 265.477 204.551 265.184C205.059 264.891 205.426 264.51 205.654 264.041V261.873H204.238C202.025 261.873 200.918 262.521 200.918 263.816C200.918 264.383 201.107 264.826 201.484 265.145C201.862 265.464 202.347 265.623 202.939 265.623ZM212.256 267H210.449V252H212.256V267ZM217.119 267H215.312V256.434H217.119V267ZM215.166 253.631C215.166 253.338 215.254 253.09 215.43 252.889C215.612 252.687 215.879 252.586 216.23 252.586C216.582 252.586 216.849 252.687 217.031 252.889C217.214 253.09 217.305 253.338 217.305 253.631C217.305 253.924 217.214 254.168 217.031 254.363C216.849 254.559 216.582 254.656 216.23 254.656C215.879 254.656 215.612 254.559 215.43 254.363C215.254 254.168 215.166 253.924 215.166 253.631ZM226.172 264.197C226.172 263.709 225.986 263.331 225.615 263.064C225.251 262.791 224.609 262.557 223.691 262.361C222.78 262.166 222.054 261.932 221.514 261.658C220.98 261.385 220.583 261.059 220.322 260.682C220.068 260.304 219.941 259.855 219.941 259.334C219.941 258.468 220.306 257.736 221.035 257.137C221.771 256.538 222.708 256.238 223.848 256.238C225.046 256.238 226.016 256.548 226.758 257.166C227.507 257.785 227.881 258.576 227.881 259.539H226.064C226.064 259.044 225.853 258.618 225.43 258.26C225.013 257.902 224.486 257.723 223.848 257.723C223.19 257.723 222.676 257.866 222.305 258.152C221.934 258.439 221.748 258.813 221.748 259.275C221.748 259.712 221.921 260.04 222.266 260.262C222.611 260.483 223.232 260.695 224.131 260.896C225.036 261.098 225.768 261.339 226.328 261.619C226.888 261.899 227.301 262.238 227.568 262.635C227.842 263.025 227.979 263.504 227.979 264.07C227.979 265.014 227.601 265.773 226.846 266.346C226.09 266.912 225.111 267.195 223.906 267.195C223.06 267.195 222.311 267.046 221.66 266.746C221.009 266.447 220.498 266.03 220.127 265.496C219.762 264.956 219.58 264.373 219.58 263.748H221.387C221.419 264.354 221.66 264.835 222.109 265.193C222.565 265.545 223.164 265.721 223.906 265.721C224.59 265.721 225.137 265.584 225.547 265.311C225.964 265.031 226.172 264.66 226.172 264.197ZM232.031 256.434L232.08 257.605C232.855 256.694 233.9 256.238 235.215 256.238C236.693 256.238 237.699 256.805 238.232 257.938C238.584 257.43 239.04 257.02 239.6 256.707C240.166 256.395 240.833 256.238 241.602 256.238C243.919 256.238 245.098 257.465 245.137 259.92V267H243.33V260.027C243.33 259.272 243.158 258.709 242.812 258.338C242.467 257.96 241.888 257.771 241.074 257.771C240.404 257.771 239.847 257.973 239.404 258.377C238.962 258.774 238.704 259.311 238.633 259.988V267H236.816V260.076C236.816 258.54 236.064 257.771 234.561 257.771C233.376 257.771 232.565 258.276 232.129 259.285V267H230.322V256.434H232.031ZM259.355 267C259.251 266.792 259.167 266.421 259.102 265.887C258.262 266.759 257.259 267.195 256.094 267.195C255.052 267.195 254.196 266.902 253.525 266.316C252.861 265.724 252.529 264.975 252.529 264.07C252.529 262.97 252.946 262.117 253.779 261.512C254.619 260.9 255.798 260.594 257.314 260.594H259.072V259.764C259.072 259.132 258.883 258.631 258.506 258.26C258.128 257.882 257.572 257.693 256.836 257.693C256.191 257.693 255.651 257.856 255.215 258.182C254.779 258.507 254.561 258.901 254.561 259.363H252.744C252.744 258.836 252.93 258.328 253.301 257.84C253.678 257.345 254.186 256.954 254.824 256.668C255.469 256.382 256.175 256.238 256.943 256.238C258.161 256.238 259.115 256.544 259.805 257.156C260.495 257.762 260.853 258.598 260.879 259.666V264.529C260.879 265.499 261.003 266.271 261.25 266.844V267H259.355ZM256.357 265.623C256.924 265.623 257.461 265.477 257.969 265.184C258.477 264.891 258.844 264.51 259.072 264.041V261.873H257.656C255.443 261.873 254.336 262.521 254.336 263.816C254.336 264.383 254.525 264.826 254.902 265.145C255.28 265.464 255.765 265.623 256.357 265.623ZM265.42 256.434L265.479 257.762C266.286 256.746 267.34 256.238 268.643 256.238C270.876 256.238 272.002 257.498 272.021 260.018V267H270.215V260.008C270.208 259.246 270.033 258.683 269.688 258.318C269.349 257.954 268.818 257.771 268.096 257.771C267.51 257.771 266.995 257.928 266.553 258.24C266.11 258.553 265.765 258.963 265.518 259.471V267H263.711V256.434H265.42ZM274.307 261.629C274.307 260.008 274.691 258.706 275.459 257.723C276.227 256.733 277.233 256.238 278.477 256.238C279.714 256.238 280.693 256.661 281.416 257.508V252H283.223V267H281.562L281.475 265.867C280.752 266.753 279.746 267.195 278.457 267.195C277.233 267.195 276.234 266.694 275.459 265.691C274.691 264.689 274.307 263.38 274.307 261.766V261.629ZM276.113 261.834C276.113 263.032 276.361 263.969 276.855 264.646C277.35 265.324 278.034 265.662 278.906 265.662C280.052 265.662 280.889 265.148 281.416 264.119V259.266C280.876 258.27 280.046 257.771 278.926 257.771C278.04 257.771 277.35 258.113 276.855 258.797C276.361 259.48 276.113 260.493 276.113 261.834ZM81.2012 292.197C81.2012 291.709 81.0156 291.331 80.6445 291.064C80.2799 290.791 79.6387 290.557 78.7207 290.361C77.8092 290.166 77.0833 289.932 76.543 289.658C76.0091 289.385 75.612 289.059 75.3516 288.682C75.0977 288.304 74.9707 287.855 74.9707 287.334C74.9707 286.468 75.3353 285.736 76.0645 285.137C76.8001 284.538 77.7376 284.238 78.877 284.238C80.0749 284.238 81.0449 284.548 81.7871 285.166C82.5358 285.785 82.9102 286.576 82.9102 287.539H81.0938C81.0938 287.044 80.8822 286.618 80.459 286.26C80.0423 285.902 79.515 285.723 78.877 285.723C78.2194 285.723 77.7051 285.866 77.334 286.152C76.9629 286.439 76.7773 286.813 76.7773 287.275C76.7773 287.712 76.9499 288.04 77.2949 288.262C77.64 288.483 78.2617 288.695 79.1602 288.896C80.0651 289.098 80.7975 289.339 81.3574 289.619C81.9173 289.899 82.3307 290.238 82.5977 290.635C82.8711 291.025 83.0078 291.504 83.0078 292.07C83.0078 293.014 82.6302 293.773 81.875 294.346C81.1198 294.912 80.14 295.195 78.9355 295.195C78.0892 295.195 77.3405 295.046 76.6895 294.746C76.0384 294.447 75.5273 294.03 75.1562 293.496C74.7917 292.956 74.6094 292.373 74.6094 291.748H76.416C76.4486 292.354 76.6895 292.835 77.1387 293.193C77.5944 293.545 78.1934 293.721 78.9355 293.721C79.6191 293.721 80.166 293.584 80.5762 293.311C80.9928 293.031 81.2012 292.66 81.2012 292.197ZM91.8848 295C91.7806 294.792 91.696 294.421 91.6309 293.887C90.791 294.759 89.7884 295.195 88.623 295.195C87.5814 295.195 86.7253 294.902 86.0547 294.316C85.3906 293.724 85.0586 292.975 85.0586 292.07C85.0586 290.97 85.4753 290.117 86.3086 289.512C87.1484 288.9 88.3268 288.594 89.8438 288.594H91.6016V287.764C91.6016 287.132 91.4128 286.631 91.0352 286.26C90.6576 285.882 90.1009 285.693 89.3652 285.693C88.7207 285.693 88.1803 285.856 87.7441 286.182C87.3079 286.507 87.0898 286.901 87.0898 287.363H85.2734C85.2734 286.836 85.459 286.328 85.8301 285.84C86.2077 285.345 86.7155 284.954 87.3535 284.668C87.998 284.382 88.7044 284.238 89.4727 284.238C90.6901 284.238 91.6439 284.544 92.334 285.156C93.0241 285.762 93.3822 286.598 93.4082 287.666V292.529C93.4082 293.499 93.5319 294.271 93.7793 294.844V295H91.8848ZM88.8867 293.623C89.4531 293.623 89.9902 293.477 90.498 293.184C91.0059 292.891 91.3737 292.51 91.6016 292.041V289.873H90.1855C87.972 289.873 86.8652 290.521 86.8652 291.816C86.8652 292.383 87.054 292.826 87.4316 293.145C87.8092 293.464 88.2943 293.623 88.8867 293.623ZM97.1289 295V285.83H95.459V284.434H97.1289V283.35C97.1289 282.217 97.4316 281.341 98.0371 280.723C98.6426 280.104 99.4987 279.795 100.605 279.795C101.022 279.795 101.436 279.85 101.846 279.961L101.748 281.426C101.442 281.367 101.117 281.338 100.771 281.338C100.186 281.338 99.7331 281.51 99.4141 281.855C99.0951 282.194 98.9355 282.682 98.9355 283.32V284.434H101.191V285.83H98.9355V295H97.1289ZM107.344 295.195C105.911 295.195 104.746 294.727 103.848 293.789C102.949 292.845 102.5 291.585 102.5 290.01V289.678C102.5 288.63 102.699 287.695 103.096 286.875C103.499 286.048 104.059 285.404 104.775 284.941C105.498 284.473 106.279 284.238 107.119 284.238C108.493 284.238 109.561 284.691 110.322 285.596C111.084 286.501 111.465 287.796 111.465 289.482V290.234H104.307C104.333 291.276 104.635 292.119 105.215 292.764C105.801 293.402 106.543 293.721 107.441 293.721C108.079 293.721 108.62 293.59 109.062 293.33C109.505 293.07 109.893 292.725 110.225 292.295L111.328 293.154C110.443 294.515 109.115 295.195 107.344 295.195ZM107.119 285.723C106.39 285.723 105.778 285.99 105.283 286.523C104.788 287.051 104.482 287.793 104.365 288.75H109.658V288.613C109.606 287.695 109.359 286.986 108.916 286.484C108.473 285.977 107.874 285.723 107.119 285.723ZM116.016 281.875V284.434H117.988V285.83H116.016V292.383C116.016 292.806 116.104 293.125 116.279 293.34C116.455 293.548 116.755 293.652 117.178 293.652C117.386 293.652 117.673 293.613 118.037 293.535V295C117.562 295.13 117.1 295.195 116.65 295.195C115.843 295.195 115.234 294.951 114.824 294.463C114.414 293.975 114.209 293.281 114.209 292.383V285.83H112.285V284.434H114.209V281.875H116.016ZM123.564 292.354L126.025 284.434H127.959L123.711 296.631C123.053 298.389 122.008 299.268 120.576 299.268L120.234 299.238L119.561 299.111V297.646L120.049 297.686C120.661 297.686 121.136 297.562 121.475 297.314C121.82 297.067 122.103 296.615 122.324 295.957L122.725 294.883L118.955 284.434H120.928L123.564 292.354ZM136.24 284.434L136.289 285.605C137.064 284.694 138.109 284.238 139.424 284.238C140.902 284.238 141.908 284.805 142.441 285.938C142.793 285.43 143.249 285.02 143.809 284.707C144.375 284.395 145.042 284.238 145.811 284.238C148.128 284.238 149.307 285.465 149.346 287.92V295H147.539V288.027C147.539 287.272 147.367 286.709 147.021 286.338C146.676 285.96 146.097 285.771 145.283 285.771C144.613 285.771 144.056 285.973 143.613 286.377C143.171 286.774 142.913 287.311 142.842 287.988V295H141.025V288.076C141.025 286.54 140.273 285.771 138.77 285.771C137.585 285.771 136.774 286.276 136.338 287.285V295H134.531V284.434H136.24ZM156.465 295.195C155.033 295.195 153.867 294.727 152.969 293.789C152.07 292.845 151.621 291.585 151.621 290.01V289.678C151.621 288.63 151.82 287.695 152.217 286.875C152.62 286.048 153.18 285.404 153.896 284.941C154.619 284.473 155.4 284.238 156.24 284.238C157.614 284.238 158.682 284.691 159.443 285.596C160.205 286.501 160.586 287.796 160.586 289.482V290.234H153.428C153.454 291.276 153.757 292.119 154.336 292.764C154.922 293.402 155.664 293.721 156.562 293.721C157.201 293.721 157.741 293.59 158.184 293.33C158.626 293.07 159.014 292.725 159.346 292.295L160.449 293.154C159.564 294.515 158.236 295.195 156.465 295.195ZM156.24 285.723C155.511 285.723 154.899 285.99 154.404 286.523C153.91 287.051 153.604 287.793 153.486 288.75H158.779V288.613C158.727 287.695 158.48 286.986 158.037 286.484C157.594 285.977 156.995 285.723 156.24 285.723ZM169.209 295C169.105 294.792 169.02 294.421 168.955 293.887C168.115 294.759 167.113 295.195 165.947 295.195C164.906 295.195 164.049 294.902 163.379 294.316C162.715 293.724 162.383 292.975 162.383 292.07C162.383 290.97 162.799 290.117 163.633 289.512C164.473 288.9 165.651 288.594 167.168 288.594H168.926V287.764C168.926 287.132 168.737 286.631 168.359 286.26C167.982 285.882 167.425 285.693 166.689 285.693C166.045 285.693 165.505 285.856 165.068 286.182C164.632 286.507 164.414 286.901 164.414 287.363H162.598C162.598 286.836 162.783 286.328 163.154 285.84C163.532 285.345 164.04 284.954 164.678 284.668C165.322 284.382 166.029 284.238 166.797 284.238C168.014 284.238 168.968 284.544 169.658 285.156C170.348 285.762 170.706 286.598 170.732 287.666V292.529C170.732 293.499 170.856 294.271 171.104 294.844V295H169.209ZM166.211 293.623C166.777 293.623 167.314 293.477 167.822 293.184C168.33 292.891 168.698 292.51 168.926 292.041V289.873H167.51C165.296 289.873 164.189 290.521 164.189 291.816C164.189 292.383 164.378 292.826 164.756 293.145C165.133 293.464 165.618 293.623 166.211 293.623ZM179.717 292.197C179.717 291.709 179.531 291.331 179.16 291.064C178.796 290.791 178.154 290.557 177.236 290.361C176.325 290.166 175.599 289.932 175.059 289.658C174.525 289.385 174.128 289.059 173.867 288.682C173.613 288.304 173.486 287.855 173.486 287.334C173.486 286.468 173.851 285.736 174.58 285.137C175.316 284.538 176.253 284.238 177.393 284.238C178.59 284.238 179.561 284.548 180.303 285.166C181.051 285.785 181.426 286.576 181.426 287.539H179.609C179.609 287.044 179.398 286.618 178.975 286.26C178.558 285.902 178.031 285.723 177.393 285.723C176.735 285.723 176.221 285.866 175.85 286.152C175.479 286.439 175.293 286.813 175.293 287.275C175.293 287.712 175.465 288.04 175.811 288.262C176.156 288.483 176.777 288.695 177.676 288.896C178.581 289.098 179.313 289.339 179.873 289.619C180.433 289.899 180.846 290.238 181.113 290.635C181.387 291.025 181.523 291.504 181.523 292.07C181.523 293.014 181.146 293.773 180.391 294.346C179.635 294.912 178.656 295.195 177.451 295.195C176.605 295.195 175.856 295.046 175.205 294.746C174.554 294.447 174.043 294.03 173.672 293.496C173.307 292.956 173.125 292.373 173.125 291.748H174.932C174.964 292.354 175.205 292.835 175.654 293.193C176.11 293.545 176.709 293.721 177.451 293.721C178.135 293.721 178.682 293.584 179.092 293.311C179.508 293.031 179.717 292.66 179.717 292.197ZM190.4 293.955C189.697 294.782 188.665 295.195 187.305 295.195C186.178 295.195 185.319 294.87 184.727 294.219C184.141 293.561 183.844 292.591 183.838 291.309V284.434H185.645V291.26C185.645 292.861 186.296 293.662 187.598 293.662C188.978 293.662 189.896 293.148 190.352 292.119V284.434H192.158V295H190.439L190.4 293.955ZM200.02 286.055C199.746 286.009 199.45 285.986 199.131 285.986C197.946 285.986 197.142 286.491 196.719 287.5V295H194.912V284.434H196.67L196.699 285.654C197.292 284.71 198.132 284.238 199.219 284.238C199.57 284.238 199.837 284.284 200.02 284.375V286.055ZM205.879 295.195C204.447 295.195 203.281 294.727 202.383 293.789C201.484 292.845 201.035 291.585 201.035 290.01V289.678C201.035 288.63 201.234 287.695 201.631 286.875C202.035 286.048 202.594 285.404 203.311 284.941C204.033 284.473 204.814 284.238 205.654 284.238C207.028 284.238 208.096 284.691 208.857 285.596C209.619 286.501 210 287.796 210 289.482V290.234H202.842C202.868 291.276 203.171 292.119 203.75 292.764C204.336 293.402 205.078 293.721 205.977 293.721C206.615 293.721 207.155 293.59 207.598 293.33C208.04 293.07 208.428 292.725 208.76 292.295L209.863 293.154C208.978 294.515 207.65 295.195 205.879 295.195ZM205.654 285.723C204.925 285.723 204.313 285.99 203.818 286.523C203.324 287.051 203.018 287.793 202.9 288.75H208.193V288.613C208.141 287.695 207.894 286.986 207.451 286.484C207.008 285.977 206.41 285.723 205.654 285.723ZM218.252 292.197C218.252 291.709 218.066 291.331 217.695 291.064C217.331 290.791 216.689 290.557 215.771 290.361C214.86 290.166 214.134 289.932 213.594 289.658C213.06 289.385 212.663 289.059 212.402 288.682C212.148 288.304 212.021 287.855 212.021 287.334C212.021 286.468 212.386 285.736 213.115 285.137C213.851 284.538 214.788 284.238 215.928 284.238C217.126 284.238 218.096 284.548 218.838 285.166C219.587 285.785 219.961 286.576 219.961 287.539H218.145C218.145 287.044 217.933 286.618 217.51 286.26C217.093 285.902 216.566 285.723 215.928 285.723C215.27 285.723 214.756 285.866 214.385 286.152C214.014 286.439 213.828 286.813 213.828 287.275C213.828 287.712 214.001 288.04 214.346 288.262C214.691 288.483 215.312 288.695 216.211 288.896C217.116 289.098 217.848 289.339 218.408 289.619C218.968 289.899 219.382 290.238 219.648 290.635C219.922 291.025 220.059 291.504 220.059 292.07C220.059 293.014 219.681 293.773 218.926 294.346C218.171 294.912 217.191 295.195 215.986 295.195C215.14 295.195 214.391 295.046 213.74 294.746C213.089 294.447 212.578 294.03 212.207 293.496C211.842 292.956 211.66 292.373 211.66 291.748H213.467C213.499 292.354 213.74 292.835 214.189 293.193C214.645 293.545 215.244 293.721 215.986 293.721C216.67 293.721 217.217 293.584 217.627 293.311C218.044 293.031 218.252 292.66 218.252 292.197ZM222.451 294.053C222.451 293.74 222.542 293.48 222.725 293.271C222.913 293.063 223.193 292.959 223.564 292.959C223.936 292.959 224.215 293.063 224.404 293.271C224.6 293.48 224.697 293.74 224.697 294.053C224.697 294.352 224.6 294.603 224.404 294.805C224.215 295.007 223.936 295.107 223.564 295.107C223.193 295.107 222.913 295.007 222.725 294.805C222.542 294.603 222.451 294.352 222.451 294.053Z" fill="black"/>
<path d="M191.667 40H108.333C104.05 40 100 44.05 100 48.3334V61.6668C100 62.5867 100.747 63.3334 101.667 63.3334C102.587 63.3334 103.333 62.5867 103.333 61.6668V48.3334C103.333 45.9033 105.903 43.3334 108.333 43.3334H191.667C194.097 43.3334 196.667 45.9033 196.667 48.3334V103.333C196.667 104.253 197.413 105 198.333 105C199.253 105 200 104.253 200 103.333V48.3334C200 44.05 195.95 40 191.667 40Z" fill="#FFAC22"/>
<path d="M183.334 55C183.334 52.2434 181.09 50 178.334 50C175.577 50 173.334 52.2434 173.334 55C173.334 57.7566 175.577 60 178.334 60C181.09 60 183.334 57.7566 183.334 55ZM176.667 55C176.667 54.0816 177.415 53.3334 178.333 53.3334C179.252 53.3334 180 54.0816 180 55C180 55.9184 179.252 56.6666 178.333 56.6666C177.415 56.6666 176.667 55.9184 176.667 55Z" fill="#FFAC22"/>
<path d="M170 55C170 52.2434 167.756 50 165 50C162.243 50 160 52.2434 160 55C160 57.7566 162.243 60 165 60C167.756 60 170 57.7566 170 55ZM163.333 55C163.333 54.0816 164.081 53.3334 165 53.3334C165.918 53.3334 166.666 54.0816 166.666 55C166.666 55.9184 165.918 56.6666 165 56.6666C164.081 56.6666 163.333 55.9184 163.333 55Z" fill="#FFAC22"/>
<path d="M148.333 56.6672C149.253 56.6672 150 55.9205 150 55.0006C150 54.0807 149.253 53.334 148.333 53.334H118.333C117.413 53.334 116.667 54.0807 116.667 55.0006C116.667 55.9205 117.413 56.6672 118.333 56.6672H148.333Z" fill="#FFAC22"/>
<path d="M101.667 89.9992C102.587 89.9992 103.333 89.2525 103.333 88.3326V69.9992H191.667C192.587 69.9992 193.333 69.2525 193.333 68.3326C193.333 67.4127 192.587 66.666 191.667 66.666H101.667C100.747 66.666 100 67.4127 100 68.3326V88.3326C100 89.2525 100.747 89.9992 101.667 89.9992Z" fill="#FFAC22"/>
<path d="M155 120.001H108.333C105.903 120.001 103.333 117.431 103.333 115.001V96.6672H165C165.92 96.6672 166.667 95.9205 166.667 95.0006C166.667 94.0807 165.92 93.334 165 93.334H101.667C100.747 93.334 100 94.0807 100 95.0006V115.001C100 119.284 104.05 123.334 108.333 123.334H155C155.92 123.334 156.667 122.587 156.667 121.667C156.667 120.747 155.92 120.001 155 120.001Z" fill="#FFAC22"/>
<path d="M118.333 80C117.413 80 116.667 80.7467 116.667 81.6666C116.667 82.5865 117.413 83.3332 118.333 83.3332H148.333C149.253 83.3332 150 82.5865 150 81.6666C150 80.7467 149.253 80 148.333 80H118.333Z" fill="#FFAC22"/>
<path d="M191.667 106.667H190V100C190 94.485 185.515 90 180 90C174.485 90 170 94.485 170 100V106.667H168.333C163.738 106.667 160 110.405 160 115V131.667C160 136.262 163.738 140 168.333 140H191.667C196.262 140 200 136.262 200 131.667V115C200 110.405 196.262 106.667 191.667 106.667ZM173.333 100C173.333 96.3232 176.323 93.3334 180 93.3334C183.677 93.3334 186.667 96.3234 186.667 100V106.667H173.333V100H173.333ZM196.667 131.667C196.667 134.423 194.423 136.667 191.667 136.667H168.333C165.577 136.667 163.333 134.423 163.333 131.667V115C163.333 112.243 165.577 110 168.333 110H191.667C194.423 110 196.667 112.243 196.667 115V131.667H196.667Z" fill="#FFAC22"/>
<path d="M160 81.666C160 84.4227 162.243 86.666 165 86.666C167.756 86.666 170 84.4227 170 81.666C170 78.9094 167.756 76.666 165 76.666C162.243 76.666 160 78.9094 160 81.666ZM166.666 81.666C166.666 82.5844 165.918 83.3326 165 83.3326C164.081 83.3326 163.333 82.5844 163.333 81.666C163.333 80.7477 164.081 79.9994 165 79.9994C165.918 79.9994 166.666 80.7477 166.666 81.666Z" fill="#FFAC22"/>
<path d="M118.333 106.666C117.413 106.666 116.667 107.413 116.667 108.333C116.667 109.253 117.413 109.999 118.333 109.999H148.333C149.253 109.999 150 109.253 150 108.333C150 107.413 149.253 106.666 148.333 106.666H118.333Z" fill="#FFAC22"/>
<path d="M173.334 81.666C173.334 84.4227 175.577 86.666 178.334 86.666C181.09 86.666 183.334 84.4227 183.334 81.666C183.334 78.9094 181.09 76.666 178.334 76.666C175.577 76.666 173.334 78.9094 173.334 81.666ZM180 81.666C180 82.5844 179.252 83.3326 178.334 83.3326C177.415 83.3326 176.667 82.5844 176.667 81.666C176.667 80.7477 177.415 79.9994 178.334 79.9994C179.252 79.9994 180 80.7477 180 81.666Z" fill="#FFAC22"/>
<path d="M179.999 118.334C178.161 118.334 176.666 119.829 176.666 121.667C176.666 122.896 177.341 123.959 178.333 124.537V128.334C178.333 129.254 179.079 130.001 179.999 130.001C180.919 130.001 181.666 129.254 181.666 128.334V124.537C182.657 123.959 183.332 122.896 183.332 121.667C183.333 119.829 181.838 118.334 179.999 118.334Z" fill="#FFAC22"/>
</svg>
