<svg width="301" height="246" viewBox="0 0 301 246" fill="none" xmlns="http://www.w3.org/2000/svg">
<rect x="2" y="1.5" width="297" height="177" rx="14.5" stroke="white" stroke-width="3"/>
<path d="M125.988 204.721H120.021V211H118.146V196.781H126.955V198.324H120.021V203.188H125.988V204.721ZM130.881 211H129.074V196H130.881V211ZM138.166 211.195C136.734 211.195 135.568 210.727 134.67 209.789C133.771 208.845 133.322 207.585 133.322 206.01V205.678C133.322 204.63 133.521 203.695 133.918 202.875C134.322 202.048 134.882 201.404 135.598 200.941C136.32 200.473 137.102 200.238 137.941 200.238C139.315 200.238 140.383 200.691 141.145 201.596C141.906 202.501 142.287 203.796 142.287 205.482V206.234H135.129C135.155 207.276 135.458 208.119 136.037 208.764C136.623 209.402 137.365 209.721 138.264 209.721C138.902 209.721 139.442 209.59 139.885 209.33C140.327 209.07 140.715 208.725 141.047 208.295L142.15 209.154C141.265 210.515 139.937 211.195 138.166 211.195ZM137.941 201.723C137.212 201.723 136.6 201.99 136.105 202.523C135.611 203.051 135.305 203.793 135.188 204.75H140.48V204.613C140.428 203.695 140.181 202.986 139.738 202.484C139.296 201.977 138.697 201.723 137.941 201.723ZM147.932 204.291L150.275 200.434H152.385L148.928 205.658L152.492 211H150.402L147.961 207.045L145.52 211H143.42L146.984 205.658L143.527 200.434H145.617L147.932 204.291ZM156.271 211H154.465V200.434H156.271V211ZM154.318 197.631C154.318 197.338 154.406 197.09 154.582 196.889C154.764 196.687 155.031 196.586 155.383 196.586C155.734 196.586 156.001 196.687 156.184 196.889C156.366 197.09 156.457 197.338 156.457 197.631C156.457 197.924 156.366 198.168 156.184 198.363C156.001 198.559 155.734 198.656 155.383 198.656C155.031 198.656 154.764 198.559 154.582 198.363C154.406 198.168 154.318 197.924 154.318 197.631ZM168.117 205.834C168.117 207.449 167.746 208.747 167.004 209.73C166.262 210.707 165.266 211.195 164.016 211.195C162.681 211.195 161.649 210.723 160.92 209.779L160.832 211H159.172V196H160.979V201.596C161.708 200.691 162.714 200.238 163.996 200.238C165.279 200.238 166.285 200.723 167.014 201.693C167.749 202.663 168.117 203.992 168.117 205.678V205.834ZM166.311 205.629C166.311 204.398 166.073 203.448 165.598 202.777C165.122 202.107 164.439 201.771 163.547 201.771C162.355 201.771 161.499 202.325 160.979 203.432V208.002C161.532 209.109 162.395 209.662 163.566 209.662C164.432 209.662 165.106 209.327 165.588 208.656C166.07 207.986 166.311 206.977 166.311 205.629ZM172.365 211H170.559V196H172.365V211ZM179.65 211.195C178.218 211.195 177.053 210.727 176.154 209.789C175.256 208.845 174.807 207.585 174.807 206.01V205.678C174.807 204.63 175.005 203.695 175.402 202.875C175.806 202.048 176.366 201.404 177.082 200.941C177.805 200.473 178.586 200.238 179.426 200.238C180.799 200.238 181.867 200.691 182.629 201.596C183.391 202.501 183.771 203.796 183.771 205.482V206.234H176.613C176.639 207.276 176.942 208.119 177.521 208.764C178.107 209.402 178.85 209.721 179.748 209.721C180.386 209.721 180.926 209.59 181.369 209.33C181.812 209.07 182.199 208.725 182.531 208.295L183.635 209.154C182.749 210.515 181.421 211.195 179.65 211.195ZM179.426 201.723C178.697 201.723 178.085 201.99 177.59 202.523C177.095 203.051 176.789 203.793 176.672 204.75H181.965V204.613C181.913 203.695 181.665 202.986 181.223 202.484C180.78 201.977 180.181 201.723 179.426 201.723ZM99.4648 233.834C99.4648 235.449 99.0938 236.747 98.3516 237.73C97.6094 238.707 96.6133 239.195 95.3633 239.195C94.0286 239.195 92.9967 238.723 92.2676 237.779L92.1797 239H90.5195V224H92.3262V229.596C93.0553 228.691 94.0612 228.238 95.3438 228.238C96.6263 228.238 97.6322 228.723 98.3613 229.693C99.097 230.663 99.4648 231.992 99.4648 233.678V233.834ZM97.6582 233.629C97.6582 232.398 97.4206 231.448 96.9453 230.777C96.4701 230.107 95.7865 229.771 94.8945 229.771C93.7031 229.771 92.847 230.325 92.3262 231.432V236.002C92.8796 237.109 93.7422 237.662 94.9141 237.662C95.7799 237.662 96.4538 237.327 96.9355 236.656C97.4173 235.986 97.6582 234.977 97.6582 233.629ZM103.713 239H101.906V228.434H103.713V239ZM101.76 225.631C101.76 225.338 101.848 225.09 102.023 224.889C102.206 224.687 102.473 224.586 102.824 224.586C103.176 224.586 103.443 224.687 103.625 224.889C103.807 225.09 103.898 225.338 103.898 225.631C103.898 225.924 103.807 226.168 103.625 226.363C103.443 226.559 103.176 226.656 102.824 226.656C102.473 226.656 102.206 226.559 102.023 226.363C101.848 226.168 101.76 225.924 101.76 225.631ZM108.576 239H106.77V224H108.576V239ZM113.439 239H111.633V224H113.439V239ZM118.303 239H116.496V228.434H118.303V239ZM116.35 225.631C116.35 225.338 116.438 225.09 116.613 224.889C116.796 224.687 117.062 224.586 117.414 224.586C117.766 224.586 118.033 224.687 118.215 224.889C118.397 225.09 118.488 225.338 118.488 225.631C118.488 225.924 118.397 226.168 118.215 226.363C118.033 226.559 117.766 226.656 117.414 226.656C117.062 226.656 116.796 226.559 116.613 226.363C116.438 226.168 116.35 225.924 116.35 225.631ZM122.912 228.434L122.971 229.762C123.778 228.746 124.833 228.238 126.135 228.238C128.368 228.238 129.494 229.498 129.514 232.018V239H127.707V232.008C127.701 231.246 127.525 230.683 127.18 230.318C126.841 229.954 126.311 229.771 125.588 229.771C125.002 229.771 124.488 229.928 124.045 230.24C123.602 230.553 123.257 230.963 123.01 231.471V239H121.203V228.434H122.912ZM131.809 233.629C131.809 231.982 132.189 230.673 132.951 229.703C133.713 228.727 134.722 228.238 135.979 228.238C137.268 228.238 138.273 228.694 138.996 229.605L139.084 228.434H140.734V238.746C140.734 240.113 140.327 241.191 139.514 241.979C138.706 242.766 137.619 243.16 136.252 243.16C135.49 243.16 134.745 242.997 134.016 242.672C133.286 242.346 132.73 241.9 132.346 241.334L133.283 240.25C134.058 241.207 135.005 241.686 136.125 241.686C137.004 241.686 137.688 241.438 138.176 240.943C138.671 240.449 138.918 239.752 138.918 238.854V237.945C138.195 238.779 137.209 239.195 135.959 239.195C134.722 239.195 133.719 238.697 132.951 237.701C132.189 236.705 131.809 235.348 131.809 233.629ZM133.625 233.834C133.625 235.025 133.869 235.963 134.357 236.646C134.846 237.324 135.529 237.662 136.408 237.662C137.548 237.662 138.384 237.145 138.918 236.109V231.285C138.365 230.276 137.535 229.771 136.428 229.771C135.549 229.771 134.862 230.113 134.367 230.797C133.872 231.48 133.625 232.493 133.625 233.834ZM154.582 236.197C154.582 235.709 154.396 235.331 154.025 235.064C153.661 234.791 153.02 234.557 152.102 234.361C151.19 234.166 150.464 233.932 149.924 233.658C149.39 233.385 148.993 233.059 148.732 232.682C148.479 232.304 148.352 231.855 148.352 231.334C148.352 230.468 148.716 229.736 149.445 229.137C150.181 228.538 151.118 228.238 152.258 228.238C153.456 228.238 154.426 228.548 155.168 229.166C155.917 229.785 156.291 230.576 156.291 231.539H154.475C154.475 231.044 154.263 230.618 153.84 230.26C153.423 229.902 152.896 229.723 152.258 229.723C151.6 229.723 151.086 229.866 150.715 230.152C150.344 230.439 150.158 230.813 150.158 231.275C150.158 231.712 150.331 232.04 150.676 232.262C151.021 232.483 151.643 232.695 152.541 232.896C153.446 233.098 154.178 233.339 154.738 233.619C155.298 233.899 155.712 234.238 155.979 234.635C156.252 235.025 156.389 235.504 156.389 236.07C156.389 237.014 156.011 237.773 155.256 238.346C154.501 238.912 153.521 239.195 152.316 239.195C151.47 239.195 150.721 239.046 150.07 238.746C149.419 238.447 148.908 238.03 148.537 237.496C148.173 236.956 147.99 236.373 147.99 235.748H149.797C149.829 236.354 150.07 236.835 150.52 237.193C150.975 237.545 151.574 237.721 152.316 237.721C153 237.721 153.547 237.584 153.957 237.311C154.374 237.031 154.582 236.66 154.582 236.197ZM162.199 236.354L164.66 228.434H166.594L162.346 240.631C161.688 242.389 160.643 243.268 159.211 243.268L158.869 243.238L158.195 243.111V241.646L158.684 241.686C159.296 241.686 159.771 241.562 160.109 241.314C160.454 241.067 160.738 240.615 160.959 239.957L161.359 238.883L157.59 228.434H159.562L162.199 236.354ZM174.367 236.197C174.367 235.709 174.182 235.331 173.811 235.064C173.446 234.791 172.805 234.557 171.887 234.361C170.975 234.166 170.249 233.932 169.709 233.658C169.175 233.385 168.778 233.059 168.518 232.682C168.264 232.304 168.137 231.855 168.137 231.334C168.137 230.468 168.501 229.736 169.23 229.137C169.966 228.538 170.904 228.238 172.043 228.238C173.241 228.238 174.211 228.548 174.953 229.166C175.702 229.785 176.076 230.576 176.076 231.539H174.26C174.26 231.044 174.048 230.618 173.625 230.26C173.208 229.902 172.681 229.723 172.043 229.723C171.385 229.723 170.871 229.866 170.5 230.152C170.129 230.439 169.943 230.813 169.943 231.275C169.943 231.712 170.116 232.04 170.461 232.262C170.806 232.483 171.428 232.695 172.326 232.896C173.231 233.098 173.964 233.339 174.523 233.619C175.083 233.899 175.497 234.238 175.764 234.635C176.037 235.025 176.174 235.504 176.174 236.07C176.174 237.014 175.796 237.773 175.041 238.346C174.286 238.912 173.306 239.195 172.102 239.195C171.255 239.195 170.507 239.046 169.855 238.746C169.204 238.447 168.693 238.03 168.322 237.496C167.958 236.956 167.775 236.373 167.775 235.748H169.582C169.615 236.354 169.855 236.835 170.305 237.193C170.76 237.545 171.359 237.721 172.102 237.721C172.785 237.721 173.332 237.584 173.742 237.311C174.159 237.031 174.367 236.66 174.367 236.197ZM180.979 225.875V228.434H182.951V229.83H180.979V236.383C180.979 236.806 181.066 237.125 181.242 237.34C181.418 237.548 181.717 237.652 182.141 237.652C182.349 237.652 182.635 237.613 183 237.535V239C182.525 239.13 182.062 239.195 181.613 239.195C180.806 239.195 180.197 238.951 179.787 238.463C179.377 237.975 179.172 237.281 179.172 236.383V229.83H177.248V228.434H179.172V225.875H180.979ZM189.455 239.195C188.023 239.195 186.857 238.727 185.959 237.789C185.061 236.845 184.611 235.585 184.611 234.01V233.678C184.611 232.63 184.81 231.695 185.207 230.875C185.611 230.048 186.171 229.404 186.887 228.941C187.609 228.473 188.391 228.238 189.23 228.238C190.604 228.238 191.672 228.691 192.434 229.596C193.195 230.501 193.576 231.796 193.576 233.482V234.234H186.418C186.444 235.276 186.747 236.119 187.326 236.764C187.912 237.402 188.654 237.721 189.553 237.721C190.191 237.721 190.731 237.59 191.174 237.33C191.617 237.07 192.004 236.725 192.336 236.295L193.439 237.154C192.554 238.515 191.226 239.195 189.455 239.195ZM189.23 229.723C188.501 229.723 187.889 229.99 187.395 230.523C186.9 231.051 186.594 231.793 186.477 232.75H191.77V232.613C191.717 231.695 191.47 230.986 191.027 230.484C190.585 229.977 189.986 229.723 189.23 229.723ZM197.375 228.434L197.424 229.605C198.199 228.694 199.243 228.238 200.559 228.238C202.036 228.238 203.042 228.805 203.576 229.938C203.928 229.43 204.383 229.02 204.943 228.707C205.51 228.395 206.177 228.238 206.945 228.238C209.263 228.238 210.441 229.465 210.48 231.92V239H208.674V232.027C208.674 231.272 208.501 230.709 208.156 230.338C207.811 229.96 207.232 229.771 206.418 229.771C205.747 229.771 205.191 229.973 204.748 230.377C204.305 230.774 204.048 231.311 203.977 231.988V239H202.16V232.076C202.16 230.54 201.408 229.771 199.904 229.771C198.719 229.771 197.909 230.276 197.473 231.285V239H195.666V228.434H197.375Z" fill="black"/>
<g clip-path="url(#clip0)">
<path d="M148.333 56.4297V64.9996C148.333 65.9195 149.08 66.6662 150 66.6662C150.92 66.6662 151.667 65.9195 151.667 64.9996V56.4297C154.535 55.6848 156.667 53.0963 156.667 49.9996C156.667 46.3229 153.676 43.333 150 43.333C146.323 43.333 143.333 46.323 143.333 49.9996C143.333 53.0963 145.467 55.6846 148.333 56.4297ZM150 46.6662C151.838 46.6662 153.333 48.1611 153.333 49.9996C153.333 51.8379 151.838 53.333 150 53.333C148.162 53.333 146.667 51.8381 146.667 49.9996C146.667 48.1613 148.162 46.6662 150 46.6662Z" fill="#FFAC22"/>
<path d="M123.298 88.0213C123.963 88.0213 124.592 87.6195 124.85 86.9629C125.187 86.1062 124.765 85.1379 123.908 84.8012L113.27 80.6195C113.29 80.4111 113.333 80.2111 113.333 79.9996C113.333 76.3228 110.343 73.333 106.667 73.333C102.99 73.333 100 76.3228 100 79.9996C100 83.6764 102.99 86.6662 106.667 86.6662C108.945 86.6662 110.958 85.5145 112.16 83.7645L122.69 87.9045C122.89 87.983 123.095 88.0213 123.298 88.0213ZM106.667 83.333C104.828 83.333 103.333 81.8381 103.333 79.9996C103.333 78.1611 104.828 76.6662 106.667 76.6662C108.505 76.6662 110 78.1611 110 79.9996C110 81.8381 108.505 83.333 106.667 83.333Z" fill="#FFAC22"/>
<path d="M193.333 73.333C189.657 73.333 186.667 76.323 186.667 79.9996C186.667 80.2113 186.708 80.4113 186.728 80.6195L176.09 84.8029C175.235 85.1396 174.814 86.108 175.15 86.9646C175.409 87.6197 176.037 88.0213 176.702 88.0213C176.905 88.0213 177.112 87.9846 177.312 87.9047L187.84 83.7646C189.044 85.5146 191.055 86.6664 193.334 86.6664C197.01 86.6664 200 83.6764 200 79.9998C200 76.3232 197.01 73.333 193.333 73.333ZM193.333 83.333C191.495 83.333 190 81.8381 190 79.9996C190 78.1611 191.495 76.6662 193.333 76.6662C195.172 76.6662 196.667 78.1611 196.667 79.9996C196.667 81.8381 195.172 83.333 193.333 83.333Z" fill="#FFAC22"/>
<path d="M176.666 123.333C175.736 123.333 174.853 123.526 174.05 123.871L166.738 115.133C166.15 114.427 165.101 114.333 164.391 114.923C163.685 115.514 163.591 116.564 164.183 117.271L171.425 125.929C170.545 127.058 170 128.459 170 129.999C170 133.676 172.99 136.666 176.666 136.666C180.343 136.666 183.333 133.676 183.333 129.999C183.333 126.322 180.343 123.333 176.666 123.333ZM176.666 133.333C174.828 133.333 173.333 131.838 173.333 129.999C173.333 128.161 174.828 126.666 176.666 126.666C178.505 126.666 180 128.161 180 129.999C180 131.837 178.505 133.333 176.666 133.333Z" fill="#FFAC22"/>
<path d="M150 85C151.838 85 153.333 86.4949 153.333 88.3334C153.333 89.2533 154.078 90 155 90C155.922 90 156.667 89.2533 156.667 88.3334C156.667 85.2367 154.535 82.6484 151.667 81.9033V81.6666C151.667 80.7467 150.92 80 150 80C149.08 80 148.333 80.7467 148.333 81.6666V81.9033C145.467 82.6482 143.333 85.2367 143.333 88.3334C143.333 92.0102 146.323 95 150 95C151.838 95 153.333 96.4949 153.333 98.3334C153.333 100.172 151.838 101.667 150 101.667C148.162 101.667 146.667 100.172 146.667 98.3334C146.667 97.4135 145.92 96.6668 145 96.6668C144.08 96.6668 143.333 97.4135 143.333 98.3334C143.333 101.43 145.467 104.018 148.333 104.763V105C148.333 105.92 149.08 106.667 150 106.667C150.92 106.667 151.667 105.92 151.667 105V104.763C154.535 104.019 156.667 101.43 156.667 98.3334C156.667 94.6566 153.676 91.6668 150 91.6668C148.162 91.6668 146.667 90.1719 146.667 88.3334C146.667 86.4949 148.162 85 150 85Z" fill="#FFAC22"/>
<path d="M135.608 114.923C134.903 114.333 133.85 114.424 133.262 115.133L125.95 123.871C125.147 123.526 124.263 123.333 123.333 123.333C119.657 123.333 116.667 126.323 116.667 129.999C116.667 133.676 119.657 136.666 123.333 136.666C127.01 136.666 130 133.676 130 129.999C130 128.459 129.453 127.059 128.575 125.929L135.818 117.271C136.408 116.564 136.315 115.514 135.608 114.923ZM123.333 133.333C121.495 133.333 120 131.838 120 129.999C120 128.161 121.495 126.666 123.333 126.666C125.172 126.666 126.667 128.161 126.667 129.999C126.667 131.838 125.172 133.333 123.333 133.333Z" fill="#FFAC22"/>
<path d="M173.333 93.3334C173.333 80.4668 162.867 70 150 70C137.133 70 126.666 80.4666 126.666 93.3334C126.666 106.2 137.133 116.667 150 116.667C162.866 116.667 173.333 106.2 173.333 93.3334ZM150 113.333C138.972 113.333 130 104.362 130 93.3334C130 82.3051 138.972 73.3334 150 73.3334C161.028 73.3334 170 82.3051 170 93.3334C170 104.362 161.028 113.333 150 113.333Z" fill="#FFAC22"/>
</g>
<defs>
<clipPath id="clip0">
<rect width="100" height="100" fill="white" transform="translate(100 40)"/>
</clipPath>
</defs>
</svg>
