<svg width="300" height="246" viewBox="0 0 300 246" fill="none" xmlns="http://www.w3.org/2000/svg">
<path d="M85.1465 204.428H78.9844V209.467H86.1426V211H77.1094V196.781H86.0449V198.324H78.9844V202.895H85.1465V204.428ZM94.7168 211C94.6126 210.792 94.528 210.421 94.4629 209.887C93.623 210.759 92.6204 211.195 91.4551 211.195C90.4134 211.195 89.5573 210.902 88.8867 210.316C88.2227 209.724 87.8906 208.975 87.8906 208.07C87.8906 206.97 88.3073 206.117 89.1406 205.512C89.9805 204.9 91.1589 204.594 92.6758 204.594H94.4336V203.764C94.4336 203.132 94.2448 202.631 93.8672 202.26C93.4896 201.882 92.9329 201.693 92.1973 201.693C91.5527 201.693 91.0124 201.856 90.5762 202.182C90.14 202.507 89.9219 202.901 89.9219 203.363H88.1055C88.1055 202.836 88.291 202.328 88.6621 201.84C89.0397 201.345 89.5475 200.954 90.1855 200.668C90.8301 200.382 91.5365 200.238 92.3047 200.238C93.5221 200.238 94.4759 200.544 95.166 201.156C95.8561 201.762 96.2142 202.598 96.2402 203.666V208.529C96.2402 209.499 96.3639 210.271 96.6113 210.844V211H94.7168ZM91.7188 209.623C92.2852 209.623 92.8223 209.477 93.3301 209.184C93.8379 208.891 94.2057 208.51 94.4336 208.041V205.873H93.0176C90.804 205.873 89.6973 206.521 89.6973 207.816C89.6973 208.383 89.8861 208.826 90.2637 209.145C90.6413 209.464 91.1263 209.623 91.7188 209.623ZM103.311 209.721C103.955 209.721 104.518 209.525 105 209.135C105.482 208.744 105.749 208.256 105.801 207.67H107.51C107.477 208.275 107.269 208.852 106.885 209.398C106.501 209.945 105.986 210.382 105.342 210.707C104.704 211.033 104.027 211.195 103.311 211.195C101.872 211.195 100.726 210.717 99.873 209.76C99.0267 208.796 98.6035 207.481 98.6035 205.814V205.512C98.6035 204.483 98.7923 203.568 99.1699 202.768C99.5475 201.967 100.088 201.345 100.791 200.902C101.501 200.46 102.337 200.238 103.301 200.238C104.486 200.238 105.469 200.593 106.25 201.303C107.038 202.012 107.458 202.934 107.51 204.066H105.801C105.749 203.383 105.488 202.823 105.02 202.387C104.557 201.944 103.984 201.723 103.301 201.723C102.383 201.723 101.67 202.055 101.162 202.719C100.661 203.376 100.41 204.33 100.41 205.58V205.922C100.41 207.139 100.661 208.077 101.162 208.734C101.663 209.392 102.38 209.721 103.311 209.721ZM111.348 201.713C112.148 200.73 113.19 200.238 114.473 200.238C116.706 200.238 117.832 201.498 117.852 204.018V211H116.045V204.008C116.038 203.246 115.863 202.683 115.518 202.318C115.179 201.954 114.648 201.771 113.926 201.771C113.34 201.771 112.826 201.928 112.383 202.24C111.94 202.553 111.595 202.963 111.348 203.471V211H109.541V196H111.348V201.713ZM125.078 205.629C125.078 204.008 125.462 202.706 126.23 201.723C126.999 200.733 128.005 200.238 129.248 200.238C130.485 200.238 131.465 200.661 132.188 201.508V196H133.994V211H132.334L132.246 209.867C131.523 210.753 130.518 211.195 129.229 211.195C128.005 211.195 127.005 210.694 126.23 209.691C125.462 208.689 125.078 207.38 125.078 205.766V205.629ZM126.885 205.834C126.885 207.032 127.132 207.969 127.627 208.646C128.122 209.324 128.805 209.662 129.678 209.662C130.824 209.662 131.66 209.148 132.188 208.119V203.266C131.647 202.27 130.817 201.771 129.697 201.771C128.812 201.771 128.122 202.113 127.627 202.797C127.132 203.48 126.885 204.493 126.885 205.834ZM143.33 211C143.226 210.792 143.141 210.421 143.076 209.887C142.236 210.759 141.234 211.195 140.068 211.195C139.027 211.195 138.171 210.902 137.5 210.316C136.836 209.724 136.504 208.975 136.504 208.07C136.504 206.97 136.921 206.117 137.754 205.512C138.594 204.9 139.772 204.594 141.289 204.594H143.047V203.764C143.047 203.132 142.858 202.631 142.48 202.26C142.103 201.882 141.546 201.693 140.811 201.693C140.166 201.693 139.626 201.856 139.189 202.182C138.753 202.507 138.535 202.901 138.535 203.363H136.719C136.719 202.836 136.904 202.328 137.275 201.84C137.653 201.345 138.161 200.954 138.799 200.668C139.443 200.382 140.15 200.238 140.918 200.238C142.135 200.238 143.089 200.544 143.779 201.156C144.469 201.762 144.827 202.598 144.854 203.666V208.529C144.854 209.499 144.977 210.271 145.225 210.844V211H143.33ZM140.332 209.623C140.898 209.623 141.436 209.477 141.943 209.184C142.451 208.891 142.819 208.51 143.047 208.041V205.873H141.631C139.417 205.873 138.311 206.521 138.311 207.816C138.311 208.383 138.499 208.826 138.877 209.145C139.255 209.464 139.74 209.623 140.332 209.623ZM150.137 197.875V200.434H152.109V201.83H150.137V208.383C150.137 208.806 150.225 209.125 150.4 209.34C150.576 209.548 150.876 209.652 151.299 209.652C151.507 209.652 151.794 209.613 152.158 209.535V211C151.683 211.13 151.221 211.195 150.771 211.195C149.964 211.195 149.355 210.951 148.945 210.463C148.535 209.975 148.33 209.281 148.33 208.383V201.83H146.406V200.434H148.33V197.875H150.137ZM160.752 211C160.648 210.792 160.563 210.421 160.498 209.887C159.658 210.759 158.656 211.195 157.49 211.195C156.449 211.195 155.592 210.902 154.922 210.316C154.258 209.724 153.926 208.975 153.926 208.07C153.926 206.97 154.342 206.117 155.176 205.512C156.016 204.9 157.194 204.594 158.711 204.594H160.469V203.764C160.469 203.132 160.28 202.631 159.902 202.26C159.525 201.882 158.968 201.693 158.232 201.693C157.588 201.693 157.048 201.856 156.611 202.182C156.175 202.507 155.957 202.901 155.957 203.363H154.141C154.141 202.836 154.326 202.328 154.697 201.84C155.075 201.345 155.583 200.954 156.221 200.668C156.865 200.382 157.572 200.238 158.34 200.238C159.557 200.238 160.511 200.544 161.201 201.156C161.891 201.762 162.249 202.598 162.275 203.666V208.529C162.275 209.499 162.399 210.271 162.646 210.844V211H160.752ZM157.754 209.623C158.32 209.623 158.857 209.477 159.365 209.184C159.873 208.891 160.241 208.51 160.469 208.041V205.873H159.053C156.839 205.873 155.732 206.521 155.732 207.816C155.732 208.383 155.921 208.826 156.299 209.145C156.676 209.464 157.161 209.623 157.754 209.623ZM174.307 209.721C174.951 209.721 175.514 209.525 175.996 209.135C176.478 208.744 176.745 208.256 176.797 207.67H178.506C178.473 208.275 178.265 208.852 177.881 209.398C177.497 209.945 176.982 210.382 176.338 210.707C175.7 211.033 175.023 211.195 174.307 211.195C172.868 211.195 171.722 210.717 170.869 209.76C170.023 208.796 169.6 207.481 169.6 205.814V205.512C169.6 204.483 169.788 203.568 170.166 202.768C170.544 201.967 171.084 201.345 171.787 200.902C172.497 200.46 173.333 200.238 174.297 200.238C175.482 200.238 176.465 200.593 177.246 201.303C178.034 202.012 178.454 202.934 178.506 204.066H176.797C176.745 203.383 176.484 202.823 176.016 202.387C175.553 201.944 174.98 201.723 174.297 201.723C173.379 201.723 172.666 202.055 172.158 202.719C171.657 203.376 171.406 204.33 171.406 205.58V205.922C171.406 207.139 171.657 208.077 172.158 208.734C172.66 209.392 173.376 209.721 174.307 209.721ZM184.922 211.195C183.49 211.195 182.324 210.727 181.426 209.789C180.527 208.845 180.078 207.585 180.078 206.01V205.678C180.078 204.63 180.277 203.695 180.674 202.875C181.077 202.048 181.637 201.404 182.354 200.941C183.076 200.473 183.857 200.238 184.697 200.238C186.071 200.238 187.139 200.691 187.9 201.596C188.662 202.501 189.043 203.796 189.043 205.482V206.234H181.885C181.911 207.276 182.214 208.119 182.793 208.764C183.379 209.402 184.121 209.721 185.02 209.721C185.658 209.721 186.198 209.59 186.641 209.33C187.083 209.07 187.471 208.725 187.803 208.295L188.906 209.154C188.021 210.515 186.693 211.195 184.922 211.195ZM184.697 201.723C183.968 201.723 183.356 201.99 182.861 202.523C182.367 203.051 182.061 203.793 181.943 204.75H187.236V204.613C187.184 203.695 186.937 202.986 186.494 202.484C186.051 201.977 185.452 201.723 184.697 201.723ZM192.852 200.434L192.91 201.762C193.717 200.746 194.772 200.238 196.074 200.238C198.307 200.238 199.434 201.498 199.453 204.018V211H197.646V204.008C197.64 203.246 197.464 202.683 197.119 202.318C196.781 201.954 196.25 201.771 195.527 201.771C194.941 201.771 194.427 201.928 193.984 202.24C193.542 202.553 193.197 202.963 192.949 203.471V211H191.143V200.434H192.852ZM204.629 197.875V200.434H206.602V201.83H204.629V208.383C204.629 208.806 204.717 209.125 204.893 209.34C205.068 209.548 205.368 209.652 205.791 209.652C205.999 209.652 206.286 209.613 206.65 209.535V211C206.175 211.13 205.713 211.195 205.264 211.195C204.456 211.195 203.848 210.951 203.438 210.463C203.027 209.975 202.822 209.281 202.822 208.383V201.83H200.898V200.434H202.822V197.875H204.629ZM213.828 202.055C213.555 202.009 213.258 201.986 212.939 201.986C211.755 201.986 210.951 202.491 210.527 203.5V211H208.721V200.434H210.479L210.508 201.654C211.1 200.71 211.94 200.238 213.027 200.238C213.379 200.238 213.646 200.284 213.828 200.375V202.055ZM219.688 211.195C218.255 211.195 217.09 210.727 216.191 209.789C215.293 208.845 214.844 207.585 214.844 206.01V205.678C214.844 204.63 215.042 203.695 215.439 202.875C215.843 202.048 216.403 201.404 217.119 200.941C217.842 200.473 218.623 200.238 219.463 200.238C220.837 200.238 221.904 200.691 222.666 201.596C223.428 202.501 223.809 203.796 223.809 205.482V206.234H216.65C216.676 207.276 216.979 208.119 217.559 208.764C218.145 209.402 218.887 209.721 219.785 209.721C220.423 209.721 220.964 209.59 221.406 209.33C221.849 209.07 222.236 208.725 222.568 208.295L223.672 209.154C222.786 210.515 221.458 211.195 219.688 211.195ZM219.463 201.723C218.734 201.723 218.122 201.99 217.627 202.523C217.132 203.051 216.826 203.793 216.709 204.75H222.002V204.613C221.95 203.695 221.702 202.986 221.26 202.484C220.817 201.977 220.218 201.723 219.463 201.723ZM106.367 239H104.561V228.434H106.367V239ZM104.414 225.631C104.414 225.338 104.502 225.09 104.678 224.889C104.86 224.687 105.127 224.586 105.479 224.586C105.83 224.586 106.097 224.687 106.279 224.889C106.462 225.09 106.553 225.338 106.553 225.631C106.553 225.924 106.462 226.168 106.279 226.363C106.097 226.559 105.83 226.656 105.479 226.656C105.127 226.656 104.86 226.559 104.678 226.363C104.502 226.168 104.414 225.924 104.414 225.631ZM115.42 236.197C115.42 235.709 115.234 235.331 114.863 235.064C114.499 234.791 113.857 234.557 112.939 234.361C112.028 234.166 111.302 233.932 110.762 233.658C110.228 233.385 109.831 233.059 109.57 232.682C109.316 232.304 109.189 231.855 109.189 231.334C109.189 230.468 109.554 229.736 110.283 229.137C111.019 228.538 111.956 228.238 113.096 228.238C114.294 228.238 115.264 228.548 116.006 229.166C116.755 229.785 117.129 230.576 117.129 231.539H115.312C115.312 231.044 115.101 230.618 114.678 230.26C114.261 229.902 113.734 229.723 113.096 229.723C112.438 229.723 111.924 229.866 111.553 230.152C111.182 230.439 110.996 230.813 110.996 231.275C110.996 231.712 111.169 232.04 111.514 232.262C111.859 232.483 112.48 232.695 113.379 232.896C114.284 233.098 115.016 233.339 115.576 233.619C116.136 233.899 116.549 234.238 116.816 234.635C117.09 235.025 117.227 235.504 117.227 236.07C117.227 237.014 116.849 237.773 116.094 238.346C115.339 238.912 114.359 239.195 113.154 239.195C112.308 239.195 111.559 239.046 110.908 238.746C110.257 238.447 109.746 238.03 109.375 237.496C109.01 236.956 108.828 236.373 108.828 235.748H110.635C110.667 236.354 110.908 236.835 111.357 237.193C111.813 237.545 112.412 237.721 113.154 237.721C113.838 237.721 114.385 237.584 114.795 237.311C115.212 237.031 115.42 236.66 115.42 236.197ZM126.24 228.434L126.289 229.605C127.064 228.694 128.109 228.238 129.424 228.238C130.902 228.238 131.908 228.805 132.441 229.938C132.793 229.43 133.249 229.02 133.809 228.707C134.375 228.395 135.042 228.238 135.811 228.238C138.128 228.238 139.307 229.465 139.346 231.92V239H137.539V232.027C137.539 231.272 137.367 230.709 137.021 230.338C136.676 229.96 136.097 229.771 135.283 229.771C134.613 229.771 134.056 229.973 133.613 230.377C133.171 230.774 132.913 231.311 132.842 231.988V239H131.025V232.076C131.025 230.54 130.273 229.771 128.77 229.771C127.585 229.771 126.774 230.276 126.338 231.285V239H124.531V228.434H126.24ZM141.602 233.619C141.602 232.584 141.803 231.653 142.207 230.826C142.617 229.999 143.184 229.361 143.906 228.912C144.635 228.463 145.465 228.238 146.396 228.238C147.835 228.238 148.997 228.736 149.883 229.732C150.775 230.729 151.221 232.053 151.221 233.707V233.834C151.221 234.863 151.022 235.787 150.625 236.607C150.234 237.421 149.671 238.056 148.936 238.512C148.206 238.967 147.367 239.195 146.416 239.195C144.984 239.195 143.822 238.697 142.93 237.701C142.044 236.705 141.602 235.387 141.602 233.746V233.619ZM143.418 233.834C143.418 235.006 143.688 235.947 144.229 236.656C144.775 237.366 145.505 237.721 146.416 237.721C147.334 237.721 148.063 237.363 148.604 236.646C149.144 235.924 149.414 234.915 149.414 233.619C149.414 232.46 149.137 231.523 148.584 230.807C148.037 230.084 147.308 229.723 146.396 229.723C145.505 229.723 144.785 230.077 144.238 230.787C143.691 231.497 143.418 232.512 143.418 233.834ZM153.047 233.629C153.047 232.008 153.431 230.706 154.199 229.723C154.967 228.733 155.973 228.238 157.217 228.238C158.454 228.238 159.434 228.661 160.156 229.508V224H161.963V239H160.303L160.215 237.867C159.492 238.753 158.486 239.195 157.197 239.195C155.973 239.195 154.974 238.694 154.199 237.691C153.431 236.689 153.047 235.38 153.047 233.766V233.629ZM154.854 233.834C154.854 235.032 155.101 235.969 155.596 236.646C156.09 237.324 156.774 237.662 157.646 237.662C158.792 237.662 159.629 237.148 160.156 236.119V231.266C159.616 230.27 158.786 229.771 157.666 229.771C156.781 229.771 156.09 230.113 155.596 230.797C155.101 231.48 154.854 232.493 154.854 233.834ZM171.299 237.955C170.596 238.782 169.564 239.195 168.203 239.195C167.077 239.195 166.217 238.87 165.625 238.219C165.039 237.561 164.743 236.591 164.736 235.309V228.434H166.543V235.26C166.543 236.861 167.194 237.662 168.496 237.662C169.876 237.662 170.794 237.148 171.25 236.119V228.434H173.057V239H171.338L171.299 237.955ZM177.773 239H175.967V224H177.773V239ZM187.197 239C187.093 238.792 187.008 238.421 186.943 237.887C186.104 238.759 185.101 239.195 183.936 239.195C182.894 239.195 182.038 238.902 181.367 238.316C180.703 237.724 180.371 236.975 180.371 236.07C180.371 234.97 180.788 234.117 181.621 233.512C182.461 232.9 183.639 232.594 185.156 232.594H186.914V231.764C186.914 231.132 186.725 230.631 186.348 230.26C185.97 229.882 185.413 229.693 184.678 229.693C184.033 229.693 183.493 229.856 183.057 230.182C182.62 230.507 182.402 230.901 182.402 231.363H180.586C180.586 230.836 180.771 230.328 181.143 229.84C181.52 229.345 182.028 228.954 182.666 228.668C183.311 228.382 184.017 228.238 184.785 228.238C186.003 228.238 186.956 228.544 187.646 229.156C188.337 229.762 188.695 230.598 188.721 231.666V236.529C188.721 237.499 188.844 238.271 189.092 238.844V239H187.197ZM184.199 237.623C184.766 237.623 185.303 237.477 185.811 237.184C186.318 236.891 186.686 236.51 186.914 236.041V233.873H185.498C183.285 233.873 182.178 234.521 182.178 235.816C182.178 236.383 182.367 236.826 182.744 237.145C183.122 237.464 183.607 237.623 184.199 237.623ZM196.66 230.055C196.387 230.009 196.09 229.986 195.771 229.986C194.587 229.986 193.783 230.491 193.359 231.5V239H191.553V228.434H193.311L193.34 229.654C193.932 228.71 194.772 228.238 195.859 228.238C196.211 228.238 196.478 228.284 196.66 228.375V230.055Z" fill="black"/>
<path d="M121.667 123.333H108.334C107.412 123.333 106.667 124.08 106.667 125C106.667 125.92 107.412 126.666 108.334 126.666H121.667C122.589 126.666 123.334 125.92 123.334 125C123.334 124.08 122.588 123.333 121.667 123.333Z" fill="#FFAC22"/>
<path d="M121.667 130H108.334C107.412 130 106.667 130.747 106.667 131.667C106.667 132.587 107.412 133.333 108.334 133.333H121.667C122.589 133.333 123.334 132.587 123.334 131.667C123.334 130.747 122.588 130 121.667 130Z" fill="#FFAC22"/>
<path d="M131.666 83.3334H165C173.271 83.3334 180 76.6033 180 68.3334C180 60.0635 173.271 53.3334 165 53.3334C161.523 53.3334 158.135 54.55 155.455 56.7602C154.746 57.3451 154.645 58.3969 155.232 59.1051C155.816 59.815 156.865 59.9184 157.578 59.3318C159.66 57.6135 162.297 56.6668 165 56.6668C171.432 56.6668 176.666 61.9002 176.666 68.3334C176.666 74.7668 171.432 80 165 80H131.666C127.071 80 123.333 76.2617 123.333 71.6666C123.333 68.0217 125.77 64.7432 129.258 63.6898C130.098 63.4365 130.596 62.5748 130.399 61.7182C130.134 60.5715 129.999 59.4332 129.999 58.3332C129.999 50.0633 136.728 43.3332 144.999 43.3332C150.091 43.3332 154.793 45.8832 157.576 50.1549C158.078 50.9281 159.115 51.1432 159.883 50.6416C160.655 50.1383 160.871 49.1049 160.37 48.335C156.968 43.1166 151.221 40 145 40C134.891 40 126.666 48.225 126.666 58.3334C126.666 59.2184 126.736 60.1201 126.875 61.0268C122.708 62.8885 120 66.9951 120 71.6668C120 78.1 125.235 83.3334 131.666 83.3334Z" fill="#FFAC22"/>
<path d="M115 103.334C115.922 103.334 116.667 102.587 116.667 101.667V96.667H145.309C145.81 98.0787 146.92 99.1902 148.334 99.692V101.667C148.334 102.587 149.078 103.334 150 103.334C150.922 103.334 151.667 102.587 151.667 101.667V99.6935C153.08 99.1902 154.19 98.0785 154.692 96.6668H183.335V101.667C183.335 102.587 184.08 103.333 185.002 103.333C185.923 103.333 186.668 102.587 186.668 101.667V95.0002C186.668 94.0803 185.923 93.3336 185.002 93.3336H154.692C154.19 91.9219 153.08 90.8103 151.667 90.3068V88.3336C151.667 87.4137 150.922 86.667 150 86.667C149.079 86.667 148.334 87.4137 148.334 88.3336V90.3068C146.92 90.8102 145.811 91.9219 145.309 93.3336H115C114.079 93.3336 113.334 94.0803 113.334 95.0002V101.667C113.334 102.587 114.079 103.334 115 103.334ZM150 93.3336C150.92 93.3336 151.667 94.0818 151.667 95.0002C151.667 95.9185 150.92 96.6668 150 96.6668C149.08 96.6668 148.334 95.9185 148.334 95.0002C148.334 94.0818 149.08 93.3336 150 93.3336Z" fill="#FFAC22"/>
<path d="M108.334 120H115C115.922 120 116.667 119.254 116.667 118.334C116.667 117.414 115.922 116.667 115 116.667H108.334C107.412 116.667 106.667 117.414 106.667 118.334C106.667 119.254 107.412 120 108.334 120Z" fill="#FFAC22"/>
<path d="M126.667 106.667H103.333C101.495 106.667 100 108.162 100 110V136.667C100 138.505 101.495 140 103.333 140H126.667C128.505 140 130 138.505 130 136.667V110C130 108.162 128.505 106.667 126.667 106.667ZM103.333 136.667V110H126.667L126.669 136.667H103.333Z" fill="#FFAC22"/>
<path d="M156.667 130H143.333C142.411 130 141.667 130.747 141.667 131.667C141.667 132.587 142.411 133.333 143.333 133.333H156.667C157.588 133.333 158.333 132.587 158.333 131.667C158.333 130.747 157.588 130 156.667 130Z" fill="#FFAC22"/>
<path d="M191.666 123.333H178.333C177.411 123.333 176.666 124.08 176.666 125C176.666 125.92 177.411 126.666 178.333 126.666H191.666C192.588 126.666 193.333 125.92 193.333 125C193.333 124.08 192.588 123.333 191.666 123.333Z" fill="#FFAC22"/>
<path d="M191.666 130H178.333C177.411 130 176.666 130.747 176.666 131.667C176.666 132.587 177.411 133.333 178.333 133.333H191.666C192.588 133.333 193.333 132.587 193.333 131.667C193.333 130.747 192.588 130 191.666 130Z" fill="#FFAC22"/>
<path d="M196.666 106.667H173.333C171.495 106.667 170 108.162 170 110V136.667C170 138.505 171.495 140 173.333 140H196.667C198.505 140 200 138.505 200 136.667V110C200 108.162 198.505 106.667 196.666 106.667ZM173.333 136.667V110H196.667L196.668 136.667H173.333Z" fill="#FFAC22"/>
<path d="M143.333 120H150C150.922 120 151.667 119.254 151.667 118.334C151.667 117.414 150.922 116.667 150 116.667H143.333C142.412 116.667 141.667 117.414 141.667 118.334C141.667 119.254 142.412 120 143.333 120Z" fill="#FFAC22"/>
<path d="M156.667 123.333H143.333C142.411 123.333 141.667 124.08 141.667 125C141.667 125.92 142.411 126.666 143.333 126.666H156.667C157.588 126.666 158.333 125.92 158.333 125C158.333 124.08 157.588 123.333 156.667 123.333Z" fill="#FFAC22"/>
<path d="M178.333 120H185C185.922 120 186.666 119.254 186.666 118.334C186.666 117.414 185.922 116.667 185 116.667H178.333C177.412 116.667 176.667 117.414 176.667 118.334C176.667 119.254 177.412 120 178.333 120Z" fill="#FFAC22"/>
<path d="M161.666 106.667H138.333C136.495 106.667 135 108.162 135 110V136.667C135 138.505 136.495 140 138.333 140H161.667C163.505 140 165 138.505 165 136.667V110C165 108.162 163.505 106.667 161.666 106.667ZM138.333 136.667V110H161.667L161.668 136.667H138.333Z" fill="#FFAC22"/>
</svg>
