<svg width="300" height="302" viewBox="0 0 300 302" fill="none" xmlns="http://www.w3.org/2000/svg">
<path d="M47.3145 206.488C47.1387 207.992 46.582 209.154 45.6445 209.975C44.7135 210.788 43.4733 211.195 41.9238 211.195C40.2441 211.195 38.8965 210.593 37.8809 209.389C36.8717 208.184 36.3672 206.573 36.3672 204.555V203.188C36.3672 201.866 36.6016 200.704 37.0703 199.701C37.5456 198.699 38.2161 197.93 39.082 197.396C39.9479 196.856 40.9505 196.586 42.0898 196.586C43.6003 196.586 44.8112 197.009 45.7227 197.855C46.6341 198.695 47.1647 199.861 47.3145 201.352H45.4297C45.2669 200.219 44.9121 199.398 44.3652 198.891C43.8249 198.383 43.0664 198.129 42.0898 198.129C40.8919 198.129 39.9512 198.572 39.2676 199.457C38.5905 200.342 38.252 201.602 38.252 203.236V204.613C38.252 206.156 38.5742 207.383 39.2188 208.295C39.8633 209.206 40.765 209.662 41.9238 209.662C42.9655 209.662 43.763 209.428 44.3164 208.959C44.8763 208.484 45.2474 207.66 45.4297 206.488H47.3145ZM49.1211 205.619C49.1211 204.584 49.3229 203.653 49.7266 202.826C50.1367 201.999 50.7031 201.361 51.4258 200.912C52.1549 200.463 52.985 200.238 53.916 200.238C55.3548 200.238 56.5169 200.736 57.4023 201.732C58.2943 202.729 58.7402 204.053 58.7402 205.707V205.834C58.7402 206.863 58.5417 207.787 58.1445 208.607C57.7539 209.421 57.1908 210.056 56.4551 210.512C55.7259 210.967 54.8861 211.195 53.9355 211.195C52.5033 211.195 51.3411 210.697 50.4492 209.701C49.5638 208.705 49.1211 207.387 49.1211 205.746V205.619ZM50.9375 205.834C50.9375 207.006 51.2077 207.947 51.748 208.656C52.2949 209.366 53.0241 209.721 53.9355 209.721C54.8535 209.721 55.5827 209.363 56.123 208.646C56.6634 207.924 56.9336 206.915 56.9336 205.619C56.9336 204.46 56.6569 203.523 56.1035 202.807C55.5566 202.084 54.8275 201.723 53.916 201.723C53.0241 201.723 52.3047 202.077 51.7578 202.787C51.2109 203.497 50.9375 204.512 50.9375 205.834ZM60.5273 205.619C60.5273 204.584 60.7292 203.653 61.1328 202.826C61.543 201.999 62.1094 201.361 62.832 200.912C63.5612 200.463 64.3913 200.238 65.3223 200.238C66.7611 200.238 67.9232 200.736 68.8086 201.732C69.7005 202.729 70.1465 204.053 70.1465 205.707V205.834C70.1465 206.863 69.9479 207.787 69.5508 208.607C69.1602 209.421 68.597 210.056 67.8613 210.512C67.1322 210.967 66.2923 211.195 65.3418 211.195C63.9095 211.195 62.7474 210.697 61.8555 209.701C60.9701 208.705 60.5273 207.387 60.5273 205.746V205.619ZM62.3438 205.834C62.3438 207.006 62.6139 207.947 63.1543 208.656C63.7012 209.366 64.4303 209.721 65.3418 209.721C66.2598 209.721 66.9889 209.363 67.5293 208.646C68.0697 207.924 68.3398 206.915 68.3398 205.619C68.3398 204.46 68.0632 203.523 67.5098 202.807C66.9629 202.084 66.2337 201.723 65.3223 201.723C64.4303 201.723 63.7109 202.077 63.1641 202.787C62.6172 203.497 62.3438 204.512 62.3438 205.834ZM74.375 211H72.5684V196H74.375V211ZM79.2383 211H77.4316V200.434H79.2383V211ZM77.2852 197.631C77.2852 197.338 77.373 197.09 77.5488 196.889C77.7311 196.687 77.998 196.586 78.3496 196.586C78.7012 196.586 78.9681 196.687 79.1504 196.889C79.3327 197.09 79.4238 197.338 79.4238 197.631C79.4238 197.924 79.3327 198.168 79.1504 198.363C78.9681 198.559 78.7012 198.656 78.3496 198.656C77.998 198.656 77.7311 198.559 77.5488 198.363C77.373 198.168 77.2852 197.924 77.2852 197.631ZM83.8477 200.434L83.9062 201.762C84.7135 200.746 85.7682 200.238 87.0703 200.238C89.3034 200.238 90.4297 201.498 90.4492 204.018V211H88.6426V204.008C88.6361 203.246 88.4603 202.683 88.1152 202.318C87.7767 201.954 87.2461 201.771 86.5234 201.771C85.9375 201.771 85.4232 201.928 84.9805 202.24C84.5378 202.553 84.1927 202.963 83.9453 203.471V211H82.1387V200.434H83.8477ZM92.7441 205.629C92.7441 203.982 93.125 202.673 93.8867 201.703C94.6484 200.727 95.6576 200.238 96.9141 200.238C98.2031 200.238 99.209 200.694 99.9316 201.605L100.02 200.434H101.67V210.746C101.67 212.113 101.263 213.191 100.449 213.979C99.6419 214.766 98.5547 215.16 97.1875 215.16C96.4258 215.16 95.6803 214.997 94.9512 214.672C94.222 214.346 93.6654 213.9 93.2812 213.334L94.2188 212.25C94.9935 213.207 95.9408 213.686 97.0605 213.686C97.9395 213.686 98.623 213.438 99.1113 212.943C99.6061 212.449 99.8535 211.752 99.8535 210.854V209.945C99.1309 210.779 98.1445 211.195 96.8945 211.195C95.6576 211.195 94.6549 210.697 93.8867 209.701C93.125 208.705 92.7441 207.348 92.7441 205.629ZM94.5605 205.834C94.5605 207.025 94.8047 207.963 95.293 208.646C95.7812 209.324 96.4648 209.662 97.3438 209.662C98.4831 209.662 99.3197 209.145 99.8535 208.109V203.285C99.3001 202.276 98.4701 201.771 97.3633 201.771C96.4844 201.771 95.7975 202.113 95.3027 202.797C94.8079 203.48 94.5605 204.493 94.5605 205.834ZM104.346 210.053C104.346 209.74 104.437 209.48 104.619 209.271C104.808 209.063 105.088 208.959 105.459 208.959C105.83 208.959 106.11 209.063 106.299 209.271C106.494 209.48 106.592 209.74 106.592 210.053C106.592 210.352 106.494 210.603 106.299 210.805C106.11 211.007 105.83 211.107 105.459 211.107C105.088 211.107 104.808 211.007 104.619 210.805C104.437 210.603 104.346 210.352 104.346 210.053ZM104.355 201.43C104.355 201.117 104.447 200.857 104.629 200.648C104.818 200.44 105.098 200.336 105.469 200.336C105.84 200.336 106.12 200.44 106.309 200.648C106.504 200.857 106.602 201.117 106.602 201.43C106.602 201.729 106.504 201.98 106.309 202.182C106.12 202.383 105.84 202.484 105.469 202.484C105.098 202.484 104.818 202.383 104.629 202.182C104.447 201.98 104.355 201.729 104.355 201.43ZM116.016 201.713C116.816 200.73 117.858 200.238 119.141 200.238C121.374 200.238 122.5 201.498 122.52 204.018V211H120.713V204.008C120.706 203.246 120.531 202.683 120.186 202.318C119.847 201.954 119.316 201.771 118.594 201.771C118.008 201.771 117.493 201.928 117.051 202.24C116.608 202.553 116.263 202.963 116.016 203.471V211H114.209V196H116.016V201.713ZM127.188 211H125.381V200.434H127.188V211ZM125.234 197.631C125.234 197.338 125.322 197.09 125.498 196.889C125.68 196.687 125.947 196.586 126.299 196.586C126.65 196.586 126.917 196.687 127.1 196.889C127.282 197.09 127.373 197.338 127.373 197.631C127.373 197.924 127.282 198.168 127.1 198.363C126.917 198.559 126.65 198.656 126.299 198.656C125.947 198.656 125.68 198.559 125.498 198.363C125.322 198.168 125.234 197.924 125.234 197.631ZM129.658 205.629C129.658 203.982 130.039 202.673 130.801 201.703C131.562 200.727 132.572 200.238 133.828 200.238C135.117 200.238 136.123 200.694 136.846 201.605L136.934 200.434H138.584V210.746C138.584 212.113 138.177 213.191 137.363 213.979C136.556 214.766 135.469 215.16 134.102 215.16C133.34 215.16 132.594 214.997 131.865 214.672C131.136 214.346 130.579 213.9 130.195 213.334L131.133 212.25C131.908 213.207 132.855 213.686 133.975 213.686C134.854 213.686 135.537 213.438 136.025 212.943C136.52 212.449 136.768 211.752 136.768 210.854V209.945C136.045 210.779 135.059 211.195 133.809 211.195C132.572 211.195 131.569 210.697 130.801 209.701C130.039 208.705 129.658 207.348 129.658 205.629ZM131.475 205.834C131.475 207.025 131.719 207.963 132.207 208.646C132.695 209.324 133.379 209.662 134.258 209.662C135.397 209.662 136.234 209.145 136.768 208.109V203.285C136.214 202.276 135.384 201.771 134.277 201.771C133.398 201.771 132.712 202.113 132.217 202.797C131.722 203.48 131.475 204.493 131.475 205.834ZM143.125 201.713C143.926 200.73 144.967 200.238 146.25 200.238C148.483 200.238 149.609 201.498 149.629 204.018V211H147.822V204.008C147.816 203.246 147.64 202.683 147.295 202.318C146.956 201.954 146.426 201.771 145.703 201.771C145.117 201.771 144.603 201.928 144.16 202.24C143.717 202.553 143.372 202.963 143.125 203.471V211H141.318V196H143.125V201.713ZM159.746 197.875V200.434H161.719V201.83H159.746V208.383C159.746 208.806 159.834 209.125 160.01 209.34C160.186 209.548 160.485 209.652 160.908 209.652C161.117 209.652 161.403 209.613 161.768 209.535V211C161.292 211.13 160.83 211.195 160.381 211.195C159.574 211.195 158.965 210.951 158.555 210.463C158.145 209.975 157.939 209.281 157.939 208.383V201.83H156.016V200.434H157.939V197.875H159.746ZM168.223 211.195C166.79 211.195 165.625 210.727 164.727 209.789C163.828 208.845 163.379 207.585 163.379 206.01V205.678C163.379 204.63 163.577 203.695 163.975 202.875C164.378 202.048 164.938 201.404 165.654 200.941C166.377 200.473 167.158 200.238 167.998 200.238C169.372 200.238 170.439 200.691 171.201 201.596C171.963 202.501 172.344 203.796 172.344 205.482V206.234H165.186C165.212 207.276 165.514 208.119 166.094 208.764C166.68 209.402 167.422 209.721 168.32 209.721C168.958 209.721 169.499 209.59 169.941 209.33C170.384 209.07 170.771 208.725 171.104 208.295L172.207 209.154C171.322 210.515 169.993 211.195 168.223 211.195ZM167.998 201.723C167.269 201.723 166.657 201.99 166.162 202.523C165.667 203.051 165.361 203.793 165.244 204.75H170.537V204.613C170.485 203.695 170.238 202.986 169.795 202.484C169.352 201.977 168.753 201.723 167.998 201.723ZM178.682 209.721C179.326 209.721 179.889 209.525 180.371 209.135C180.853 208.744 181.12 208.256 181.172 207.67H182.881C182.848 208.275 182.64 208.852 182.256 209.398C181.872 209.945 181.357 210.382 180.713 210.707C180.075 211.033 179.398 211.195 178.682 211.195C177.243 211.195 176.097 210.717 175.244 209.76C174.398 208.796 173.975 207.481 173.975 205.814V205.512C173.975 204.483 174.163 203.568 174.541 202.768C174.919 201.967 175.459 201.345 176.162 200.902C176.872 200.46 177.708 200.238 178.672 200.238C179.857 200.238 180.84 200.593 181.621 201.303C182.409 202.012 182.829 202.934 182.881 204.066H181.172C181.12 203.383 180.859 202.823 180.391 202.387C179.928 201.944 179.355 201.723 178.672 201.723C177.754 201.723 177.041 202.055 176.533 202.719C176.032 203.376 175.781 204.33 175.781 205.58V205.922C175.781 207.139 176.032 208.077 176.533 208.734C177.035 209.392 177.751 209.721 178.682 209.721ZM186.719 201.713C187.52 200.73 188.561 200.238 189.844 200.238C192.077 200.238 193.203 201.498 193.223 204.018V211H191.416V204.008C191.41 203.246 191.234 202.683 190.889 202.318C190.55 201.954 190.02 201.771 189.297 201.771C188.711 201.771 188.197 201.928 187.754 202.24C187.311 202.553 186.966 202.963 186.719 203.471V211H184.912V196H186.719V201.713ZM205.127 209.721C205.771 209.721 206.335 209.525 206.816 209.135C207.298 208.744 207.565 208.256 207.617 207.67H209.326C209.294 208.275 209.085 208.852 208.701 209.398C208.317 209.945 207.803 210.382 207.158 210.707C206.52 211.033 205.843 211.195 205.127 211.195C203.688 211.195 202.542 210.717 201.689 209.76C200.843 208.796 200.42 207.481 200.42 205.814V205.512C200.42 204.483 200.609 203.568 200.986 202.768C201.364 201.967 201.904 201.345 202.607 200.902C203.317 200.46 204.154 200.238 205.117 200.238C206.302 200.238 207.285 200.593 208.066 201.303C208.854 202.012 209.274 202.934 209.326 204.066H207.617C207.565 203.383 207.305 202.823 206.836 202.387C206.374 201.944 205.801 201.723 205.117 201.723C204.199 201.723 203.486 202.055 202.979 202.719C202.477 203.376 202.227 204.33 202.227 205.58V205.922C202.227 207.139 202.477 208.077 202.979 208.734C203.48 209.392 204.196 209.721 205.127 209.721ZM210.879 205.619C210.879 204.584 211.081 203.653 211.484 202.826C211.895 201.999 212.461 201.361 213.184 200.912C213.913 200.463 214.743 200.238 215.674 200.238C217.113 200.238 218.275 200.736 219.16 201.732C220.052 202.729 220.498 204.053 220.498 205.707V205.834C220.498 206.863 220.299 207.787 219.902 208.607C219.512 209.421 218.949 210.056 218.213 210.512C217.484 210.967 216.644 211.195 215.693 211.195C214.261 211.195 213.099 210.697 212.207 209.701C211.322 208.705 210.879 207.387 210.879 205.746V205.619ZM212.695 205.834C212.695 207.006 212.965 207.947 213.506 208.656C214.053 209.366 214.782 209.721 215.693 209.721C216.611 209.721 217.34 209.363 217.881 208.646C218.421 207.924 218.691 206.915 218.691 205.619C218.691 204.46 218.415 203.523 217.861 202.807C217.314 202.084 216.585 201.723 215.674 201.723C214.782 201.723 214.062 202.077 213.516 202.787C212.969 203.497 212.695 204.512 212.695 205.834ZM222.285 205.619C222.285 204.584 222.487 203.653 222.891 202.826C223.301 201.999 223.867 201.361 224.59 200.912C225.319 200.463 226.149 200.238 227.08 200.238C228.519 200.238 229.681 200.736 230.566 201.732C231.458 202.729 231.904 204.053 231.904 205.707V205.834C231.904 206.863 231.706 207.787 231.309 208.607C230.918 209.421 230.355 210.056 229.619 210.512C228.89 210.967 228.05 211.195 227.1 211.195C225.667 211.195 224.505 210.697 223.613 209.701C222.728 208.705 222.285 207.387 222.285 205.746V205.619ZM224.102 205.834C224.102 207.006 224.372 207.947 224.912 208.656C225.459 209.366 226.188 209.721 227.1 209.721C228.018 209.721 228.747 209.363 229.287 208.646C229.827 207.924 230.098 206.915 230.098 205.619C230.098 204.46 229.821 203.523 229.268 202.807C228.721 202.084 227.992 201.723 227.08 201.723C226.188 201.723 225.469 202.077 224.922 202.787C224.375 203.497 224.102 204.512 224.102 205.834ZM236.133 211H234.326V196H236.133V211ZM240.996 211H239.189V200.434H240.996V211ZM239.043 197.631C239.043 197.338 239.131 197.09 239.307 196.889C239.489 196.687 239.756 196.586 240.107 196.586C240.459 196.586 240.726 196.687 240.908 196.889C241.09 197.09 241.182 197.338 241.182 197.631C241.182 197.924 241.09 198.168 240.908 198.363C240.726 198.559 240.459 198.656 240.107 198.656C239.756 198.656 239.489 198.559 239.307 198.363C239.131 198.168 239.043 197.924 239.043 197.631ZM245.605 200.434L245.664 201.762C246.471 200.746 247.526 200.238 248.828 200.238C251.061 200.238 252.188 201.498 252.207 204.018V211H250.4V204.008C250.394 203.246 250.218 202.683 249.873 202.318C249.535 201.954 249.004 201.771 248.281 201.771C247.695 201.771 247.181 201.928 246.738 202.24C246.296 202.553 245.951 202.963 245.703 203.471V211H243.896V200.434H245.605ZM254.502 205.629C254.502 203.982 254.883 202.673 255.645 201.703C256.406 200.727 257.415 200.238 258.672 200.238C259.961 200.238 260.967 200.694 261.689 201.605L261.777 200.434H263.428V210.746C263.428 212.113 263.021 213.191 262.207 213.979C261.4 214.766 260.312 215.16 258.945 215.16C258.184 215.16 257.438 214.997 256.709 214.672C255.98 214.346 255.423 213.9 255.039 213.334L255.977 212.25C256.751 213.207 257.699 213.686 258.818 213.686C259.697 213.686 260.381 213.438 260.869 212.943C261.364 212.449 261.611 211.752 261.611 210.854V209.945C260.889 210.779 259.902 211.195 258.652 211.195C257.415 211.195 256.413 210.697 255.645 209.701C254.883 208.705 254.502 207.348 254.502 205.629ZM256.318 205.834C256.318 207.025 256.562 207.963 257.051 208.646C257.539 209.324 258.223 209.662 259.102 209.662C260.241 209.662 261.077 209.145 261.611 208.109V203.285C261.058 202.276 260.228 201.771 259.121 201.771C258.242 201.771 257.555 202.113 257.061 202.797C256.566 203.48 256.318 204.493 256.318 205.834ZM42.1777 236.197C42.1777 235.709 41.9922 235.331 41.6211 235.064C41.2565 234.791 40.6152 234.557 39.6973 234.361C38.7858 234.166 38.0599 233.932 37.5195 233.658C36.9857 233.385 36.5885 233.059 36.3281 232.682C36.0742 232.304 35.9473 231.855 35.9473 231.334C35.9473 230.468 36.3118 229.736 37.041 229.137C37.7767 228.538 38.7142 228.238 39.8535 228.238C41.0514 228.238 42.0215 228.548 42.7637 229.166C43.5124 229.785 43.8867 230.576 43.8867 231.539H42.0703C42.0703 231.044 41.8587 230.618 41.4355 230.26C41.0189 229.902 40.4915 229.723 39.8535 229.723C39.196 229.723 38.6816 229.866 38.3105 230.152C37.9395 230.439 37.7539 230.813 37.7539 231.275C37.7539 231.712 37.9264 232.04 38.2715 232.262C38.6165 232.483 39.2383 232.695 40.1367 232.896C41.0417 233.098 41.7741 233.339 42.334 233.619C42.8939 233.899 43.3073 234.238 43.5742 234.635C43.8477 235.025 43.9844 235.504 43.9844 236.07C43.9844 237.014 43.6068 237.773 42.8516 238.346C42.0964 238.912 41.1165 239.195 39.9121 239.195C39.0658 239.195 38.3171 239.046 37.666 238.746C37.015 238.447 36.5039 238.03 36.1328 237.496C35.7682 236.956 35.5859 236.373 35.5859 235.748H37.3926C37.4251 236.354 37.666 236.835 38.1152 237.193C38.571 237.545 39.1699 237.721 39.9121 237.721C40.5957 237.721 41.1426 237.584 41.5527 237.311C41.9694 237.031 42.1777 236.66 42.1777 236.197ZM49.7949 236.354L52.2559 228.434H54.1895L49.9414 240.631C49.2839 242.389 48.2389 243.268 46.8066 243.268L46.4648 243.238L45.791 243.111V241.646L46.2793 241.686C46.8913 241.686 47.3665 241.562 47.7051 241.314C48.0501 241.067 48.3333 240.615 48.5547 239.957L48.9551 238.883L45.1855 228.434H47.1582L49.7949 236.354ZM61.9629 236.197C61.9629 235.709 61.7773 235.331 61.4062 235.064C61.0417 234.791 60.4004 234.557 59.4824 234.361C58.571 234.166 57.8451 233.932 57.3047 233.658C56.7708 233.385 56.3737 233.059 56.1133 232.682C55.8594 232.304 55.7324 231.855 55.7324 231.334C55.7324 230.468 56.097 229.736 56.8262 229.137C57.5618 228.538 58.4993 228.238 59.6387 228.238C60.8366 228.238 61.8066 228.548 62.5488 229.166C63.2975 229.785 63.6719 230.576 63.6719 231.539H61.8555C61.8555 231.044 61.6439 230.618 61.2207 230.26C60.804 229.902 60.2767 229.723 59.6387 229.723C58.9811 229.723 58.4668 229.866 58.0957 230.152C57.7246 230.439 57.5391 230.813 57.5391 231.275C57.5391 231.712 57.7116 232.04 58.0566 232.262C58.4017 232.483 59.0234 232.695 59.9219 232.896C60.8268 233.098 61.5592 233.339 62.1191 233.619C62.679 233.899 63.0924 234.238 63.3594 234.635C63.6328 235.025 63.7695 235.504 63.7695 236.07C63.7695 237.014 63.3919 237.773 62.6367 238.346C61.8815 238.912 60.9017 239.195 59.6973 239.195C58.8509 239.195 58.1022 239.046 57.4512 238.746C56.8001 238.447 56.2891 238.03 55.918 237.496C55.5534 236.956 55.3711 236.373 55.3711 235.748H57.1777C57.2103 236.354 57.4512 236.835 57.9004 237.193C58.3561 237.545 58.9551 237.721 59.6973 237.721C60.3809 237.721 60.9277 237.584 61.3379 237.311C61.7546 237.031 61.9629 236.66 61.9629 236.197ZM68.5742 225.875V228.434H70.5469V229.83H68.5742V236.383C68.5742 236.806 68.6621 237.125 68.8379 237.34C69.0137 237.548 69.3132 237.652 69.7363 237.652C69.9447 237.652 70.2311 237.613 70.5957 237.535V239C70.1204 239.13 69.6582 239.195 69.209 239.195C68.4017 239.195 67.793 238.951 67.3828 238.463C66.9727 237.975 66.7676 237.281 66.7676 236.383V229.83H64.8438V228.434H66.7676V225.875H68.5742ZM77.0508 239.195C75.6185 239.195 74.4531 238.727 73.5547 237.789C72.6562 236.845 72.207 235.585 72.207 234.01V233.678C72.207 232.63 72.4056 231.695 72.8027 230.875C73.2064 230.048 73.7663 229.404 74.4824 228.941C75.2051 228.473 75.9863 228.238 76.8262 228.238C78.1999 228.238 79.2676 228.691 80.0293 229.596C80.791 230.501 81.1719 231.796 81.1719 233.482V234.234H74.0137C74.0397 235.276 74.3424 236.119 74.9219 236.764C75.5078 237.402 76.25 237.721 77.1484 237.721C77.7865 237.721 78.3268 237.59 78.7695 237.33C79.2122 237.07 79.5996 236.725 79.9316 236.295L81.0352 237.154C80.1497 238.515 78.8216 239.195 77.0508 239.195ZM76.8262 229.723C76.097 229.723 75.485 229.99 74.9902 230.523C74.4954 231.051 74.1895 231.793 74.0723 232.75H79.3652V232.613C79.3132 231.695 79.0658 230.986 78.623 230.484C78.1803 229.977 77.5814 229.723 76.8262 229.723ZM84.9707 228.434L85.0195 229.605C85.7943 228.694 86.8392 228.238 88.1543 228.238C89.6322 228.238 90.638 228.805 91.1719 229.938C91.5234 229.43 91.9792 229.02 92.5391 228.707C93.1055 228.395 93.7728 228.238 94.541 228.238C96.8587 228.238 98.0371 229.465 98.0762 231.92V239H96.2695V232.027C96.2695 231.272 96.097 230.709 95.752 230.338C95.4069 229.96 94.8275 229.771 94.0137 229.771C93.3431 229.771 92.7865 229.973 92.3438 230.377C91.901 230.774 91.6439 231.311 91.5723 231.988V239H89.7559V232.076C89.7559 230.54 89.0039 229.771 87.5 229.771C86.3151 229.771 85.5046 230.276 85.0684 231.285V239H83.2617V228.434H84.9707ZM107.734 239H105.928V228.434H107.734V239ZM105.781 225.631C105.781 225.338 105.869 225.09 106.045 224.889C106.227 224.687 106.494 224.586 106.846 224.586C107.197 224.586 107.464 224.687 107.646 224.889C107.829 225.09 107.92 225.338 107.92 225.631C107.92 225.924 107.829 226.168 107.646 226.363C107.464 226.559 107.197 226.656 106.846 226.656C106.494 226.656 106.227 226.559 106.045 226.363C105.869 226.168 105.781 225.924 105.781 225.631ZM116.787 236.197C116.787 235.709 116.602 235.331 116.23 235.064C115.866 234.791 115.225 234.557 114.307 234.361C113.395 234.166 112.669 233.932 112.129 233.658C111.595 233.385 111.198 233.059 110.938 232.682C110.684 232.304 110.557 231.855 110.557 231.334C110.557 230.468 110.921 229.736 111.65 229.137C112.386 228.538 113.324 228.238 114.463 228.238C115.661 228.238 116.631 228.548 117.373 229.166C118.122 229.785 118.496 230.576 118.496 231.539H116.68C116.68 231.044 116.468 230.618 116.045 230.26C115.628 229.902 115.101 229.723 114.463 229.723C113.805 229.723 113.291 229.866 112.92 230.152C112.549 230.439 112.363 230.813 112.363 231.275C112.363 231.712 112.536 232.04 112.881 232.262C113.226 232.483 113.848 232.695 114.746 232.896C115.651 233.098 116.383 233.339 116.943 233.619C117.503 233.899 117.917 234.238 118.184 234.635C118.457 235.025 118.594 235.504 118.594 236.07C118.594 237.014 118.216 237.773 117.461 238.346C116.706 238.912 115.726 239.195 114.521 239.195C113.675 239.195 112.926 239.046 112.275 238.746C111.624 238.447 111.113 238.03 110.742 237.496C110.378 236.956 110.195 236.373 110.195 235.748H112.002C112.035 236.354 112.275 236.835 112.725 237.193C113.18 237.545 113.779 237.721 114.521 237.721C115.205 237.721 115.752 237.584 116.162 237.311C116.579 237.031 116.787 236.66 116.787 236.197ZM135.264 236.51L137.295 228.434H139.102L136.025 239H134.561L131.992 230.992L129.492 239H128.027L124.961 228.434H126.758L128.838 236.344L131.299 228.434H132.754L135.264 236.51ZM140.469 233.619C140.469 232.584 140.671 231.653 141.074 230.826C141.484 229.999 142.051 229.361 142.773 228.912C143.503 228.463 144.333 228.238 145.264 228.238C146.702 228.238 147.865 228.736 148.75 229.732C149.642 230.729 150.088 232.053 150.088 233.707V233.834C150.088 234.863 149.889 235.787 149.492 236.607C149.102 237.421 148.538 238.056 147.803 238.512C147.074 238.967 146.234 239.195 145.283 239.195C143.851 239.195 142.689 238.697 141.797 237.701C140.911 236.705 140.469 235.387 140.469 233.746V233.619ZM142.285 233.834C142.285 235.006 142.555 235.947 143.096 236.656C143.643 237.366 144.372 237.721 145.283 237.721C146.201 237.721 146.93 237.363 147.471 236.646C148.011 235.924 148.281 234.915 148.281 233.619C148.281 232.46 148.005 231.523 147.451 230.807C146.904 230.084 146.175 229.723 145.264 229.723C144.372 229.723 143.652 230.077 143.105 230.787C142.559 231.497 142.285 232.512 142.285 233.834ZM157.461 230.055C157.188 230.009 156.891 229.986 156.572 229.986C155.387 229.986 154.583 230.491 154.16 231.5V239H152.354V228.434H154.111L154.141 229.654C154.733 228.71 155.573 228.238 156.66 228.238C157.012 228.238 157.279 228.284 157.461 228.375V230.055ZM162.08 234.107L160.947 235.289V239H159.141V224H160.947V233.072L161.914 231.91L165.205 228.434H167.402L163.291 232.848L167.881 239H165.762L162.08 234.107ZM171.23 239H169.424V228.434H171.23V239ZM169.277 225.631C169.277 225.338 169.365 225.09 169.541 224.889C169.723 224.687 169.99 224.586 170.342 224.586C170.693 224.586 170.96 224.687 171.143 224.889C171.325 225.09 171.416 225.338 171.416 225.631C171.416 225.924 171.325 226.168 171.143 226.363C170.96 226.559 170.693 226.656 170.342 226.656C169.99 226.656 169.723 226.559 169.541 226.363C169.365 226.168 169.277 225.924 169.277 225.631ZM175.84 228.434L175.898 229.762C176.706 228.746 177.76 228.238 179.062 228.238C181.296 228.238 182.422 229.498 182.441 232.018V239H180.635V232.008C180.628 231.246 180.452 230.683 180.107 230.318C179.769 229.954 179.238 229.771 178.516 229.771C177.93 229.771 177.415 229.928 176.973 230.24C176.53 230.553 176.185 230.963 175.938 231.471V239H174.131V228.434H175.84ZM184.736 233.629C184.736 231.982 185.117 230.673 185.879 229.703C186.641 228.727 187.65 228.238 188.906 228.238C190.195 228.238 191.201 228.694 191.924 229.605L192.012 228.434H193.662V238.746C193.662 240.113 193.255 241.191 192.441 241.979C191.634 242.766 190.547 243.16 189.18 243.16C188.418 243.16 187.673 242.997 186.943 242.672C186.214 242.346 185.658 241.9 185.273 241.334L186.211 240.25C186.986 241.207 187.933 241.686 189.053 241.686C189.932 241.686 190.615 241.438 191.104 240.943C191.598 240.449 191.846 239.752 191.846 238.854V237.945C191.123 238.779 190.137 239.195 188.887 239.195C187.65 239.195 186.647 238.697 185.879 237.701C185.117 236.705 184.736 235.348 184.736 233.629ZM186.553 233.834C186.553 235.025 186.797 235.963 187.285 236.646C187.773 237.324 188.457 237.662 189.336 237.662C190.475 237.662 191.312 237.145 191.846 236.109V231.285C191.292 230.276 190.462 229.771 189.355 229.771C188.477 229.771 187.79 230.113 187.295 230.797C186.8 231.48 186.553 232.493 186.553 233.834ZM207.881 239C207.777 238.792 207.692 238.421 207.627 237.887C206.787 238.759 205.785 239.195 204.619 239.195C203.577 239.195 202.721 238.902 202.051 238.316C201.387 237.724 201.055 236.975 201.055 236.07C201.055 234.97 201.471 234.117 202.305 233.512C203.145 232.9 204.323 232.594 205.84 232.594H207.598V231.764C207.598 231.132 207.409 230.631 207.031 230.26C206.654 229.882 206.097 229.693 205.361 229.693C204.717 229.693 204.176 229.856 203.74 230.182C203.304 230.507 203.086 230.901 203.086 231.363H201.27C201.27 230.836 201.455 230.328 201.826 229.84C202.204 229.345 202.712 228.954 203.35 228.668C203.994 228.382 204.701 228.238 205.469 228.238C206.686 228.238 207.64 228.544 208.33 229.156C209.02 229.762 209.378 230.598 209.404 231.666V236.529C209.404 237.499 209.528 238.271 209.775 238.844V239H207.881ZM204.883 237.623C205.449 237.623 205.986 237.477 206.494 237.184C207.002 236.891 207.37 236.51 207.598 236.041V233.873H206.182C203.968 233.873 202.861 234.521 202.861 235.816C202.861 236.383 203.05 236.826 203.428 237.145C203.805 237.464 204.29 237.623 204.883 237.623ZM214.688 225.875V228.434H216.66V229.83H214.688V236.383C214.688 236.806 214.775 237.125 214.951 237.34C215.127 237.548 215.426 237.652 215.85 237.652C216.058 237.652 216.344 237.613 216.709 237.535V239C216.234 239.13 215.771 239.195 215.322 239.195C214.515 239.195 213.906 238.951 213.496 238.463C213.086 237.975 212.881 237.281 212.881 236.383V229.83H210.957V228.434H212.881V225.875H214.688ZM228.125 239.195C226.693 239.195 225.527 238.727 224.629 237.789C223.73 236.845 223.281 235.585 223.281 234.01V233.678C223.281 232.63 223.48 231.695 223.877 230.875C224.281 230.048 224.84 229.404 225.557 228.941C226.279 228.473 227.061 228.238 227.9 228.238C229.274 228.238 230.342 228.691 231.104 229.596C231.865 230.501 232.246 231.796 232.246 233.482V234.234H225.088C225.114 235.276 225.417 236.119 225.996 236.764C226.582 237.402 227.324 237.721 228.223 237.721C228.861 237.721 229.401 237.59 229.844 237.33C230.286 237.07 230.674 236.725 231.006 236.295L232.109 237.154C231.224 238.515 229.896 239.195 228.125 239.195ZM227.9 229.723C227.171 229.723 226.559 229.99 226.064 230.523C225.57 231.051 225.264 231.793 225.146 232.75H230.439V232.613C230.387 231.695 230.14 230.986 229.697 230.484C229.255 229.977 228.656 229.723 227.9 229.723ZM240.869 239C240.765 238.792 240.68 238.421 240.615 237.887C239.775 238.759 238.773 239.195 237.607 239.195C236.566 239.195 235.71 238.902 235.039 238.316C234.375 237.724 234.043 236.975 234.043 236.07C234.043 234.97 234.46 234.117 235.293 233.512C236.133 232.9 237.311 232.594 238.828 232.594H240.586V231.764C240.586 231.132 240.397 230.631 240.02 230.26C239.642 229.882 239.085 229.693 238.35 229.693C237.705 229.693 237.165 229.856 236.729 230.182C236.292 230.507 236.074 230.901 236.074 231.363H234.258C234.258 230.836 234.443 230.328 234.814 229.84C235.192 229.345 235.7 228.954 236.338 228.668C236.982 228.382 237.689 228.238 238.457 228.238C239.674 228.238 240.628 228.544 241.318 229.156C242.008 229.762 242.367 230.598 242.393 231.666V236.529C242.393 237.499 242.516 238.271 242.764 238.844V239H240.869ZM237.871 237.623C238.438 237.623 238.975 237.477 239.482 237.184C239.99 236.891 240.358 236.51 240.586 236.041V233.873H239.17C236.956 233.873 235.85 234.521 235.85 235.816C235.85 236.383 236.038 236.826 236.416 237.145C236.794 237.464 237.279 237.623 237.871 237.623ZM249.463 237.721C250.107 237.721 250.671 237.525 251.152 237.135C251.634 236.744 251.901 236.256 251.953 235.67H253.662C253.63 236.275 253.421 236.852 253.037 237.398C252.653 237.945 252.139 238.382 251.494 238.707C250.856 239.033 250.179 239.195 249.463 239.195C248.024 239.195 246.878 238.717 246.025 237.76C245.179 236.796 244.756 235.481 244.756 233.814V233.512C244.756 232.483 244.945 231.568 245.322 230.768C245.7 229.967 246.24 229.345 246.943 228.902C247.653 228.46 248.49 228.238 249.453 228.238C250.638 228.238 251.621 228.593 252.402 229.303C253.19 230.012 253.61 230.934 253.662 232.066H251.953C251.901 231.383 251.641 230.823 251.172 230.387C250.71 229.944 250.137 229.723 249.453 229.723C248.535 229.723 247.822 230.055 247.314 230.719C246.813 231.376 246.562 232.33 246.562 233.58V233.922C246.562 235.139 246.813 236.077 247.314 236.734C247.816 237.392 248.532 237.721 249.463 237.721ZM257.5 229.713C258.301 228.73 259.342 228.238 260.625 228.238C262.858 228.238 263.984 229.498 264.004 232.018V239H262.197V232.008C262.191 231.246 262.015 230.683 261.67 230.318C261.331 229.954 260.801 229.771 260.078 229.771C259.492 229.771 258.978 229.928 258.535 230.24C258.092 230.553 257.747 230.963 257.5 231.471V239H255.693V224H257.5V229.713ZM25.791 256.434L25.8398 257.605C26.6146 256.694 27.6595 256.238 28.9746 256.238C30.4525 256.238 31.4583 256.805 31.9922 257.938C32.3438 257.43 32.7995 257.02 33.3594 256.707C33.9258 256.395 34.5931 256.238 35.3613 256.238C37.679 256.238 38.8574 257.465 38.8965 259.92V267H37.0898V260.027C37.0898 259.272 36.9173 258.709 36.5723 258.338C36.2272 257.96 35.6478 257.771 34.834 257.771C34.1634 257.771 33.6068 257.973 33.1641 258.377C32.7214 258.774 32.4642 259.311 32.3926 259.988V267H30.5762V260.076C30.5762 258.54 29.8242 257.771 28.3203 257.771C27.1354 257.771 26.3249 258.276 25.8887 259.285V267H24.082V256.434H25.791ZM41.1523 261.619C41.1523 260.584 41.3542 259.653 41.7578 258.826C42.168 257.999 42.7344 257.361 43.457 256.912C44.1862 256.463 45.0163 256.238 45.9473 256.238C47.3861 256.238 48.5482 256.736 49.4336 257.732C50.3255 258.729 50.7715 260.053 50.7715 261.707V261.834C50.7715 262.863 50.5729 263.787 50.1758 264.607C49.7852 265.421 49.222 266.056 48.4863 266.512C47.7572 266.967 46.9173 267.195 45.9668 267.195C44.5345 267.195 43.3724 266.697 42.4805 265.701C41.5951 264.705 41.1523 263.387 41.1523 261.746V261.619ZM42.9688 261.834C42.9688 263.006 43.2389 263.947 43.7793 264.656C44.3262 265.366 45.0553 265.721 45.9668 265.721C46.8848 265.721 47.6139 265.363 48.1543 264.646C48.6947 263.924 48.9648 262.915 48.9648 261.619C48.9648 260.46 48.6882 259.523 48.1348 258.807C47.5879 258.084 46.8587 257.723 45.9473 257.723C45.0553 257.723 44.3359 258.077 43.7891 258.787C43.2422 259.497 42.9688 260.512 42.9688 261.834ZM52.5977 261.629C52.5977 260.008 52.9818 258.706 53.75 257.723C54.5182 256.733 55.5241 256.238 56.7676 256.238C58.0046 256.238 58.9844 256.661 59.707 257.508V252H61.5137V267H59.8535L59.7656 265.867C59.043 266.753 58.0371 267.195 56.748 267.195C55.5241 267.195 54.5247 266.694 53.75 265.691C52.9818 264.689 52.5977 263.38 52.5977 261.766V261.629ZM54.4043 261.834C54.4043 263.032 54.6517 263.969 55.1465 264.646C55.6413 265.324 56.3249 265.662 57.1973 265.662C58.3431 265.662 59.1797 265.148 59.707 264.119V259.266C59.1667 258.27 58.3366 257.771 57.2168 257.771C56.3314 257.771 55.6413 258.113 55.1465 258.797C54.6517 259.48 54.4043 260.493 54.4043 261.834ZM70.8496 265.955C70.1465 266.782 69.1146 267.195 67.7539 267.195C66.6276 267.195 65.7682 266.87 65.1758 266.219C64.5898 265.561 64.2936 264.591 64.2871 263.309V256.434H66.0938V263.26C66.0938 264.861 66.7448 265.662 68.0469 265.662C69.4271 265.662 70.3451 265.148 70.8008 264.119V256.434H72.6074V267H70.8887L70.8496 265.955ZM77.3242 267H75.5176V252H77.3242V267ZM84.6094 267.195C83.1771 267.195 82.0117 266.727 81.1133 265.789C80.2148 264.845 79.7656 263.585 79.7656 262.01V261.678C79.7656 260.63 79.9642 259.695 80.3613 258.875C80.765 258.048 81.3249 257.404 82.041 256.941C82.7637 256.473 83.5449 256.238 84.3848 256.238C85.7585 256.238 86.8262 256.691 87.5879 257.596C88.3496 258.501 88.7305 259.796 88.7305 261.482V262.234H81.5723C81.5983 263.276 81.901 264.119 82.4805 264.764C83.0664 265.402 83.8086 265.721 84.707 265.721C85.3451 265.721 85.8854 265.59 86.3281 265.33C86.7708 265.07 87.1582 264.725 87.4902 264.295L88.5938 265.154C87.7083 266.515 86.3802 267.195 84.6094 267.195ZM84.3848 257.723C83.6556 257.723 83.0436 257.99 82.5488 258.523C82.054 259.051 81.748 259.793 81.6309 260.75H86.9238V260.613C86.8717 259.695 86.6243 258.986 86.1816 258.484C85.7389 257.977 85.14 257.723 84.3848 257.723ZM90.8691 266.053C90.8691 265.74 90.9603 265.48 91.1426 265.271C91.3314 265.063 91.6113 264.959 91.9824 264.959C92.3535 264.959 92.6335 265.063 92.8223 265.271C93.0176 265.48 93.1152 265.74 93.1152 266.053C93.1152 266.352 93.0176 266.603 92.8223 266.805C92.6335 267.007 92.3535 267.107 91.9824 267.107C91.6113 267.107 91.3314 267.007 91.1426 266.805C90.9603 266.603 90.8691 266.352 90.8691 266.053ZM101.348 267V252.781H105.361C106.598 252.781 107.692 253.055 108.643 253.602C109.593 254.148 110.326 254.926 110.84 255.936C111.361 256.945 111.624 258.104 111.631 259.412V260.32C111.631 261.661 111.37 262.837 110.85 263.846C110.335 264.855 109.596 265.63 108.633 266.17C107.676 266.71 106.559 266.987 105.283 267H101.348ZM103.223 254.324V265.467H105.195C106.641 265.467 107.764 265.018 108.564 264.119C109.372 263.221 109.775 261.941 109.775 260.281V259.451C109.775 257.837 109.395 256.583 108.633 255.691C107.878 254.793 106.803 254.337 105.41 254.324H103.223ZM118.574 267.195C117.142 267.195 115.977 266.727 115.078 265.789C114.18 264.845 113.73 263.585 113.73 262.01V261.678C113.73 260.63 113.929 259.695 114.326 258.875C114.73 258.048 115.29 257.404 116.006 256.941C116.729 256.473 117.51 256.238 118.35 256.238C119.723 256.238 120.791 256.691 121.553 257.596C122.314 258.501 122.695 259.796 122.695 261.482V262.234H115.537C115.563 263.276 115.866 264.119 116.445 264.764C117.031 265.402 117.773 265.721 118.672 265.721C119.31 265.721 119.85 265.59 120.293 265.33C120.736 265.07 121.123 264.725 121.455 264.295L122.559 265.154C121.673 266.515 120.345 267.195 118.574 267.195ZM118.35 257.723C117.62 257.723 117.008 257.99 116.514 258.523C116.019 259.051 115.713 259.793 115.596 260.75H120.889V260.613C120.837 259.695 120.589 258.986 120.146 258.484C119.704 257.977 119.105 257.723 118.35 257.723ZM127.246 253.875V256.434H129.219V257.83H127.246V264.383C127.246 264.806 127.334 265.125 127.51 265.34C127.686 265.548 127.985 265.652 128.408 265.652C128.617 265.652 128.903 265.613 129.268 265.535V267C128.792 267.13 128.33 267.195 127.881 267.195C127.074 267.195 126.465 266.951 126.055 266.463C125.645 265.975 125.439 265.281 125.439 264.383V257.83H123.516V256.434H125.439V253.875H127.246ZM137.861 267C137.757 266.792 137.673 266.421 137.607 265.887C136.768 266.759 135.765 267.195 134.6 267.195C133.558 267.195 132.702 266.902 132.031 266.316C131.367 265.724 131.035 264.975 131.035 264.07C131.035 262.97 131.452 262.117 132.285 261.512C133.125 260.9 134.303 260.594 135.82 260.594H137.578V259.764C137.578 259.132 137.389 258.631 137.012 258.26C136.634 257.882 136.077 257.693 135.342 257.693C134.697 257.693 134.157 257.856 133.721 258.182C133.285 258.507 133.066 258.901 133.066 259.363H131.25C131.25 258.836 131.436 258.328 131.807 257.84C132.184 257.345 132.692 256.954 133.33 256.668C133.975 256.382 134.681 256.238 135.449 256.238C136.667 256.238 137.62 256.544 138.311 257.156C139.001 257.762 139.359 258.598 139.385 259.666V264.529C139.385 265.499 139.508 266.271 139.756 266.844V267H137.861ZM134.863 265.623C135.43 265.623 135.967 265.477 136.475 265.184C136.982 264.891 137.35 264.51 137.578 264.041V261.873H136.162C133.949 261.873 132.842 262.521 132.842 263.816C132.842 264.383 133.031 264.826 133.408 265.145C133.786 265.464 134.271 265.623 134.863 265.623ZM144.18 267H142.373V256.434H144.18V267ZM142.227 253.631C142.227 253.338 142.314 253.09 142.49 252.889C142.673 252.687 142.939 252.586 143.291 252.586C143.643 252.586 143.91 252.687 144.092 252.889C144.274 253.09 144.365 253.338 144.365 253.631C144.365 253.924 144.274 254.168 144.092 254.363C143.91 254.559 143.643 254.656 143.291 254.656C142.939 254.656 142.673 254.559 142.49 254.363C142.314 254.168 142.227 253.924 142.227 253.631ZM149.043 267H147.236V252H149.043V267ZM158.096 264.197C158.096 263.709 157.91 263.331 157.539 263.064C157.174 262.791 156.533 262.557 155.615 262.361C154.704 262.166 153.978 261.932 153.438 261.658C152.904 261.385 152.507 261.059 152.246 260.682C151.992 260.304 151.865 259.855 151.865 259.334C151.865 258.468 152.23 257.736 152.959 257.137C153.695 256.538 154.632 256.238 155.771 256.238C156.969 256.238 157.939 256.548 158.682 257.166C159.43 257.785 159.805 258.576 159.805 259.539H157.988C157.988 259.044 157.777 258.618 157.354 258.26C156.937 257.902 156.41 257.723 155.771 257.723C155.114 257.723 154.6 257.866 154.229 258.152C153.857 258.439 153.672 258.813 153.672 259.275C153.672 259.712 153.844 260.04 154.189 260.262C154.535 260.483 155.156 260.695 156.055 260.896C156.96 261.098 157.692 261.339 158.252 261.619C158.812 261.899 159.225 262.238 159.492 262.635C159.766 263.025 159.902 263.504 159.902 264.07C159.902 265.014 159.525 265.773 158.77 266.346C158.014 266.912 157.035 267.195 155.83 267.195C154.984 267.195 154.235 267.046 153.584 266.746C152.933 266.447 152.422 266.03 152.051 265.496C151.686 264.956 151.504 264.373 151.504 263.748H153.311C153.343 264.354 153.584 264.835 154.033 265.193C154.489 265.545 155.088 265.721 155.83 265.721C156.514 265.721 157.061 265.584 157.471 265.311C157.887 265.031 158.096 264.66 158.096 264.197ZM171.455 265.721C172.1 265.721 172.663 265.525 173.145 265.135C173.626 264.744 173.893 264.256 173.945 263.67H175.654C175.622 264.275 175.413 264.852 175.029 265.398C174.645 265.945 174.131 266.382 173.486 266.707C172.848 267.033 172.171 267.195 171.455 267.195C170.016 267.195 168.87 266.717 168.018 265.76C167.171 264.796 166.748 263.481 166.748 261.814V261.512C166.748 260.483 166.937 259.568 167.314 258.768C167.692 257.967 168.232 257.345 168.936 256.902C169.645 256.46 170.482 256.238 171.445 256.238C172.63 256.238 173.613 256.593 174.395 257.303C175.182 258.012 175.602 258.934 175.654 260.066H173.945C173.893 259.383 173.633 258.823 173.164 258.387C172.702 257.944 172.129 257.723 171.445 257.723C170.527 257.723 169.814 258.055 169.307 258.719C168.805 259.376 168.555 260.33 168.555 261.58V261.922C168.555 263.139 168.805 264.077 169.307 264.734C169.808 265.392 170.524 265.721 171.455 265.721ZM184.209 267C184.105 266.792 184.02 266.421 183.955 265.887C183.115 266.759 182.113 267.195 180.947 267.195C179.906 267.195 179.049 266.902 178.379 266.316C177.715 265.724 177.383 264.975 177.383 264.07C177.383 262.97 177.799 262.117 178.633 261.512C179.473 260.9 180.651 260.594 182.168 260.594H183.926V259.764C183.926 259.132 183.737 258.631 183.359 258.26C182.982 257.882 182.425 257.693 181.689 257.693C181.045 257.693 180.505 257.856 180.068 258.182C179.632 258.507 179.414 258.901 179.414 259.363H177.598C177.598 258.836 177.783 258.328 178.154 257.84C178.532 257.345 179.04 256.954 179.678 256.668C180.322 256.382 181.029 256.238 181.797 256.238C183.014 256.238 183.968 256.544 184.658 257.156C185.348 257.762 185.706 258.598 185.732 259.666V264.529C185.732 265.499 185.856 266.271 186.104 266.844V267H184.209ZM181.211 265.623C181.777 265.623 182.314 265.477 182.822 265.184C183.33 264.891 183.698 264.51 183.926 264.041V261.873H182.51C180.296 261.873 179.189 262.521 179.189 263.816C179.189 264.383 179.378 264.826 179.756 265.145C180.133 265.464 180.618 265.623 181.211 265.623ZM190.273 256.434L190.332 257.762C191.139 256.746 192.194 256.238 193.496 256.238C195.729 256.238 196.855 257.498 196.875 260.018V267H195.068V260.008C195.062 259.246 194.886 258.683 194.541 258.318C194.202 257.954 193.672 257.771 192.949 257.771C192.363 257.771 191.849 257.928 191.406 258.24C190.964 258.553 190.618 258.963 190.371 259.471V267H188.564V256.434H190.273ZM213.506 261.834C213.506 263.449 213.135 264.747 212.393 265.73C211.65 266.707 210.654 267.195 209.404 267.195C208.07 267.195 207.038 266.723 206.309 265.779L206.221 267H204.561V252H206.367V257.596C207.096 256.691 208.102 256.238 209.385 256.238C210.667 256.238 211.673 256.723 212.402 257.693C213.138 258.663 213.506 259.992 213.506 261.678V261.834ZM211.699 261.629C211.699 260.398 211.462 259.448 210.986 258.777C210.511 258.107 209.827 257.771 208.936 257.771C207.744 257.771 206.888 258.325 206.367 259.432V264.002C206.921 265.109 207.783 265.662 208.955 265.662C209.821 265.662 210.495 265.327 210.977 264.656C211.458 263.986 211.699 262.977 211.699 261.629ZM220.176 267.195C218.743 267.195 217.578 266.727 216.68 265.789C215.781 264.845 215.332 263.585 215.332 262.01V261.678C215.332 260.63 215.531 259.695 215.928 258.875C216.331 258.048 216.891 257.404 217.607 256.941C218.33 256.473 219.111 256.238 219.951 256.238C221.325 256.238 222.393 256.691 223.154 257.596C223.916 258.501 224.297 259.796 224.297 261.482V262.234H217.139C217.165 263.276 217.467 264.119 218.047 264.764C218.633 265.402 219.375 265.721 220.273 265.721C220.911 265.721 221.452 265.59 221.895 265.33C222.337 265.07 222.725 264.725 223.057 264.295L224.16 265.154C223.275 266.515 221.947 267.195 220.176 267.195ZM219.951 257.723C219.222 257.723 218.61 257.99 218.115 258.523C217.62 259.051 217.314 259.793 217.197 260.75H222.49V260.613C222.438 259.695 222.191 258.986 221.748 258.484C221.305 257.977 220.706 257.723 219.951 257.723ZM230.928 261.629C230.928 259.982 231.309 258.673 232.07 257.703C232.832 256.727 233.841 256.238 235.098 256.238C236.387 256.238 237.393 256.694 238.115 257.605L238.203 256.434H239.854V266.746C239.854 268.113 239.447 269.191 238.633 269.979C237.826 270.766 236.738 271.16 235.371 271.16C234.609 271.16 233.864 270.997 233.135 270.672C232.406 270.346 231.849 269.9 231.465 269.334L232.402 268.25C233.177 269.207 234.124 269.686 235.244 269.686C236.123 269.686 236.807 269.438 237.295 268.943C237.79 268.449 238.037 267.752 238.037 266.854V265.945C237.314 266.779 236.328 267.195 235.078 267.195C233.841 267.195 232.839 266.697 232.07 265.701C231.309 264.705 230.928 263.348 230.928 261.629ZM232.744 261.834C232.744 263.025 232.988 263.963 233.477 264.646C233.965 265.324 234.648 265.662 235.527 265.662C236.667 265.662 237.503 265.145 238.037 264.109V259.285C237.484 258.276 236.654 257.771 235.547 257.771C234.668 257.771 233.981 258.113 233.486 258.797C232.992 259.48 232.744 260.493 232.744 261.834ZM244.551 267H242.744V256.434H244.551V267ZM242.598 253.631C242.598 253.338 242.686 253.09 242.861 252.889C243.044 252.687 243.311 252.586 243.662 252.586C244.014 252.586 244.281 252.687 244.463 252.889C244.645 253.09 244.736 253.338 244.736 253.631C244.736 253.924 244.645 254.168 244.463 254.363C244.281 254.559 244.014 254.656 243.662 254.656C243.311 254.656 243.044 254.559 242.861 254.363C242.686 254.168 242.598 253.924 242.598 253.631ZM250.938 264.549L253.555 256.434H255.4L251.611 267H250.234L246.406 256.434H248.252L250.938 264.549ZM261.387 267.195C259.954 267.195 258.789 266.727 257.891 265.789C256.992 264.845 256.543 263.585 256.543 262.01V261.678C256.543 260.63 256.742 259.695 257.139 258.875C257.542 258.048 258.102 257.404 258.818 256.941C259.541 256.473 260.322 256.238 261.162 256.238C262.536 256.238 263.604 256.691 264.365 257.596C265.127 258.501 265.508 259.796 265.508 261.482V262.234H258.35C258.376 263.276 258.678 264.119 259.258 264.764C259.844 265.402 260.586 265.721 261.484 265.721C262.122 265.721 262.663 265.59 263.105 265.33C263.548 265.07 263.936 264.725 264.268 264.295L265.371 265.154C264.486 266.515 263.158 267.195 261.387 267.195ZM261.162 257.723C260.433 257.723 259.821 257.99 259.326 258.523C258.831 259.051 258.525 259.793 258.408 260.75H263.701V260.613C263.649 259.695 263.402 258.986 262.959 258.484C262.516 257.977 261.917 257.723 261.162 257.723ZM269.316 256.434L269.375 257.762C270.182 256.746 271.237 256.238 272.539 256.238C274.772 256.238 275.898 257.498 275.918 260.018V267H274.111V260.008C274.105 259.246 273.929 258.683 273.584 258.318C273.245 257.954 272.715 257.771 271.992 257.771C271.406 257.771 270.892 257.928 270.449 258.24C270.007 258.553 269.661 258.963 269.414 259.471V267H267.607V256.434H269.316ZM99.5312 293.955C98.8281 294.782 97.7962 295.195 96.4355 295.195C95.3092 295.195 94.4499 294.87 93.8574 294.219C93.2715 293.561 92.9753 292.591 92.9688 291.309V284.434H94.7754V291.26C94.7754 292.861 95.4264 293.662 96.7285 293.662C98.1087 293.662 99.0267 293.148 99.4824 292.119V284.434H101.289V295H99.5703L99.5312 293.955ZM112.969 289.834C112.969 291.442 112.601 292.738 111.865 293.721C111.13 294.704 110.133 295.195 108.877 295.195C107.594 295.195 106.585 294.788 105.85 293.975V299.062H104.043V284.434H105.693L105.781 285.605C106.517 284.694 107.539 284.238 108.848 284.238C110.117 284.238 111.12 284.717 111.855 285.674C112.598 286.631 112.969 287.962 112.969 289.668V289.834ZM111.162 289.629C111.162 288.438 110.908 287.497 110.4 286.807C109.893 286.117 109.196 285.771 108.311 285.771C107.217 285.771 106.396 286.257 105.85 287.227V292.275C106.39 293.239 107.217 293.721 108.33 293.721C109.196 293.721 109.883 293.379 110.391 292.695C110.905 292.005 111.162 290.983 111.162 289.629ZM114.795 289.619C114.795 288.584 114.997 287.653 115.4 286.826C115.811 285.999 116.377 285.361 117.1 284.912C117.829 284.463 118.659 284.238 119.59 284.238C121.029 284.238 122.191 284.736 123.076 285.732C123.968 286.729 124.414 288.053 124.414 289.707V289.834C124.414 290.863 124.215 291.787 123.818 292.607C123.428 293.421 122.865 294.056 122.129 294.512C121.4 294.967 120.56 295.195 119.609 295.195C118.177 295.195 117.015 294.697 116.123 293.701C115.238 292.705 114.795 291.387 114.795 289.746V289.619ZM116.611 289.834C116.611 291.006 116.882 291.947 117.422 292.656C117.969 293.366 118.698 293.721 119.609 293.721C120.527 293.721 121.257 293.363 121.797 292.646C122.337 291.924 122.607 290.915 122.607 289.619C122.607 288.46 122.331 287.523 121.777 286.807C121.23 286.084 120.501 285.723 119.59 285.723C118.698 285.723 117.979 286.077 117.432 286.787C116.885 287.497 116.611 288.512 116.611 289.834ZM128.389 284.434L128.447 285.762C129.255 284.746 130.309 284.238 131.611 284.238C133.844 284.238 134.971 285.498 134.99 288.018V295H133.184V288.008C133.177 287.246 133.001 286.683 132.656 286.318C132.318 285.954 131.787 285.771 131.064 285.771C130.479 285.771 129.964 285.928 129.521 286.24C129.079 286.553 128.734 286.963 128.486 287.471V295H126.68V284.434H128.389ZM147.783 286.055C147.51 286.009 147.214 285.986 146.895 285.986C145.71 285.986 144.906 286.491 144.482 287.5V295H142.676V284.434H144.434L144.463 285.654C145.055 284.71 145.895 284.238 146.982 284.238C147.334 284.238 147.601 284.284 147.783 284.375V286.055ZM153.643 295.195C152.21 295.195 151.045 294.727 150.146 293.789C149.248 292.845 148.799 291.585 148.799 290.01V289.678C148.799 288.63 148.997 287.695 149.395 286.875C149.798 286.048 150.358 285.404 151.074 284.941C151.797 284.473 152.578 284.238 153.418 284.238C154.792 284.238 155.859 284.691 156.621 285.596C157.383 286.501 157.764 287.796 157.764 289.482V290.234H150.605C150.632 291.276 150.934 292.119 151.514 292.764C152.1 293.402 152.842 293.721 153.74 293.721C154.378 293.721 154.919 293.59 155.361 293.33C155.804 293.07 156.191 292.725 156.523 292.295L157.627 293.154C156.742 294.515 155.413 295.195 153.643 295.195ZM153.418 285.723C152.689 285.723 152.077 285.99 151.582 286.523C151.087 287.051 150.781 287.793 150.664 288.75H155.957V288.613C155.905 287.695 155.658 286.986 155.215 286.484C154.772 285.977 154.173 285.723 153.418 285.723ZM159.424 289.629C159.424 287.969 159.805 286.657 160.566 285.693C161.328 284.723 162.35 284.238 163.633 284.238C164.883 284.238 165.869 284.658 166.592 285.498L166.67 284.434H168.33V299.062H166.523V294.023C165.794 294.805 164.824 295.195 163.613 295.195C162.337 295.195 161.318 294.701 160.557 293.711C159.801 292.715 159.424 291.396 159.424 289.756V289.629ZM161.23 289.834C161.23 291.045 161.484 291.995 161.992 292.686C162.507 293.376 163.197 293.721 164.062 293.721C165.137 293.721 165.957 293.245 166.523 292.295V287.119C165.951 286.188 165.137 285.723 164.082 285.723C163.21 285.723 162.516 286.071 162.002 286.768C161.488 287.458 161.23 288.48 161.23 289.834ZM177.754 293.955C177.051 294.782 176.019 295.195 174.658 295.195C173.532 295.195 172.673 294.87 172.08 294.219C171.494 293.561 171.198 292.591 171.191 291.309V284.434H172.998V291.26C172.998 292.861 173.649 293.662 174.951 293.662C176.331 293.662 177.249 293.148 177.705 292.119V284.434H179.512V295H177.793L177.754 293.955ZM186.65 295.195C185.218 295.195 184.053 294.727 183.154 293.789C182.256 292.845 181.807 291.585 181.807 290.01V289.678C181.807 288.63 182.005 287.695 182.402 286.875C182.806 286.048 183.366 285.404 184.082 284.941C184.805 284.473 185.586 284.238 186.426 284.238C187.799 284.238 188.867 284.691 189.629 285.596C190.391 286.501 190.771 287.796 190.771 289.482V290.234H183.613C183.639 291.276 183.942 292.119 184.521 292.764C185.107 293.402 185.85 293.721 186.748 293.721C187.386 293.721 187.926 293.59 188.369 293.33C188.812 293.07 189.199 292.725 189.531 292.295L190.635 293.154C189.749 294.515 188.421 295.195 186.65 295.195ZM186.426 285.723C185.697 285.723 185.085 285.99 184.59 286.523C184.095 287.051 183.789 287.793 183.672 288.75H188.965V288.613C188.913 287.695 188.665 286.986 188.223 286.484C187.78 285.977 187.181 285.723 186.426 285.723ZM199.023 292.197C199.023 291.709 198.838 291.331 198.467 291.064C198.102 290.791 197.461 290.557 196.543 290.361C195.632 290.166 194.906 289.932 194.365 289.658C193.831 289.385 193.434 289.059 193.174 288.682C192.92 288.304 192.793 287.855 192.793 287.334C192.793 286.468 193.158 285.736 193.887 285.137C194.622 284.538 195.56 284.238 196.699 284.238C197.897 284.238 198.867 284.548 199.609 285.166C200.358 285.785 200.732 286.576 200.732 287.539H198.916C198.916 287.044 198.704 286.618 198.281 286.26C197.865 285.902 197.337 285.723 196.699 285.723C196.042 285.723 195.527 285.866 195.156 286.152C194.785 286.439 194.6 286.813 194.6 287.275C194.6 287.712 194.772 288.04 195.117 288.262C195.462 288.483 196.084 288.695 196.982 288.896C197.887 289.098 198.62 289.339 199.18 289.619C199.74 289.899 200.153 290.238 200.42 290.635C200.693 291.025 200.83 291.504 200.83 292.07C200.83 293.014 200.452 293.773 199.697 294.346C198.942 294.912 197.962 295.195 196.758 295.195C195.911 295.195 195.163 295.046 194.512 294.746C193.861 294.447 193.35 294.03 192.979 293.496C192.614 292.956 192.432 292.373 192.432 291.748H194.238C194.271 292.354 194.512 292.835 194.961 293.193C195.417 293.545 196.016 293.721 196.758 293.721C197.441 293.721 197.988 293.584 198.398 293.311C198.815 293.031 199.023 292.66 199.023 292.197ZM205.635 281.875V284.434H207.607V285.83H205.635V292.383C205.635 292.806 205.723 293.125 205.898 293.34C206.074 293.548 206.374 293.652 206.797 293.652C207.005 293.652 207.292 293.613 207.656 293.535V295C207.181 295.13 206.719 295.195 206.27 295.195C205.462 295.195 204.854 294.951 204.443 294.463C204.033 293.975 203.828 293.281 203.828 292.383V285.83H201.904V284.434H203.828V281.875H205.635Z" fill="black"/>
<g clip-path="url(#clip0)">
<path d="M118.333 128.334C118.333 129.254 119.078 130.001 120 130.001C125.515 130.001 130 125.516 130 120.001C130 119.081 129.255 118.334 128.333 118.334C127.412 118.334 126.667 119.081 126.667 120.001C126.667 123.677 123.677 126.667 120 126.667C119.078 126.667 118.333 127.414 118.333 128.334Z" fill="#FFAC22"/>
<path d="M130 102.694V56.666C130 51.151 125.515 46.666 120 46.666C114.485 46.666 110 51.151 110 56.666V88.3326C110 89.2525 110.745 89.9992 111.667 89.9992C112.588 89.9992 113.333 89.2525 113.333 88.3326V86.666H115C115.922 86.666 116.667 85.9193 116.667 84.9994C116.667 84.0795 115.922 83.3328 115 83.3328H113.333V76.6662H115C115.922 76.6662 116.667 75.9195 116.667 74.9996C116.667 74.0797 115.922 73.333 115 73.333H113.333V66.6664H115C115.922 66.6664 116.667 65.9197 116.667 64.9998C116.667 64.0799 115.922 63.3332 115 63.3332H113.333V56.666C113.333 52.9893 116.323 49.9994 120 49.9994C123.677 49.9994 126.667 52.9895 126.667 56.666V103.683C126.667 104.309 127.017 104.883 127.573 105.168C133.182 108.038 136.667 113.721 136.667 119.999C136.667 129.189 129.19 136.666 120 136.666C110.81 136.666 103.333 129.189 103.333 119.999C103.333 113.721 106.818 108.038 112.427 105.168C112.983 104.883 113.333 104.309 113.333 103.683V96.6662H121.667C122.588 96.6662 123.333 95.9195 123.333 94.9996C123.333 94.0797 122.588 93.333 121.667 93.333H111.667C110.745 93.333 110 94.0797 110 94.9996V102.695C103.805 106.269 100 112.809 100 119.999C100 131.028 108.972 139.999 120 139.999C131.028 139.999 140 131.028 140 119.999C140 112.809 136.195 106.269 130 102.694Z" fill="#FFAC22"/>
<path d="M198.333 70H192.356L194.511 67.8449C195.163 67.1932 195.163 66.1398 194.511 65.4883C193.86 64.8365 192.806 64.8365 192.155 65.4883L187.643 70H182.356L187.845 64.5117C188.496 63.86 188.496 62.8066 187.845 62.1551C187.193 61.5035 186.14 61.5033 185.488 62.1551L177.643 70H175.69L174.023 68.3334L185.69 56.6668H188.333C189.255 56.6668 190 55.9201 190 55.0002C190 54.0803 189.255 53.3336 188.333 53.3336H186.666V51.667C186.666 50.7471 185.922 50.0004 185 50.0004C184.078 50.0004 183.333 50.7471 183.333 51.667V54.3104L171.667 65.977L170 64.3104V62.357L177.845 54.5117C178.496 53.86 178.496 52.8066 177.845 52.1551C177.193 51.5035 176.14 51.5035 175.488 52.1551L170 57.6434V52.3566L174.511 47.8449C175.163 47.1934 175.163 46.1398 174.511 45.4883C173.86 44.8367 172.806 44.8365 172.155 45.4883L170 47.6434V41.6666C170 40.7467 169.255 40 168.333 40C167.411 40 166.666 40.7467 166.666 41.6666V47.6434L164.511 45.4883C163.86 44.8365 162.806 44.8365 162.155 45.4883C161.503 46.14 161.503 47.1934 162.155 47.8449L166.666 52.3566V57.6434L161.178 52.1551C160.526 51.5035 159.473 51.5035 158.822 52.1551C158.17 52.8068 158.17 53.8602 158.822 54.5117L166.666 62.3566V64.31L165 65.9766L153.333 54.31V51.6666C153.333 50.7467 152.588 50 151.667 50C150.745 50 150 50.7467 150 51.6666V53.3332H148.333C147.411 53.3332 146.666 54.0799 146.666 54.9998C146.666 55.9197 147.411 56.6664 148.333 56.6664H150.976L162.643 68.333L160.976 69.9996H159.023L151.178 62.1547C150.526 61.5029 149.473 61.5029 148.822 62.1547C148.17 62.8064 148.17 63.8598 148.822 64.5113L154.31 69.9996H149.023L144.511 65.4879C143.86 64.8361 142.806 64.8361 142.155 65.4879C141.503 66.1395 141.503 67.193 142.155 67.8445L144.31 69.9996H138.333C137.411 69.9996 136.666 70.7463 136.666 71.6662C136.666 72.5861 137.411 73.3328 138.333 73.3328H144.31L142.155 75.4883C141.503 76.14 141.503 77.1934 142.155 77.8449C142.48 78.1699 142.907 78.3332 143.333 78.3332C143.76 78.3332 144.186 78.1699 144.511 77.8449L149.023 73.3332H154.31L148.822 78.8215C148.17 79.473 148.17 80.5266 148.822 81.1781C149.147 81.5031 149.573 81.6664 150 81.6664C150.427 81.6664 150.853 81.5031 151.178 81.1781L159.023 73.3332H160.976L162.643 74.9998L150.976 86.6664H148.333C147.411 86.6664 146.666 87.4131 146.666 88.333C146.666 89.2529 147.411 89.9996 148.333 89.9996H150V91.6662C150 92.5861 150.745 93.3328 151.666 93.3328C152.588 93.3328 153.333 92.5861 153.333 91.6662V89.0229L164.999 77.3563L166.666 79.0229V80.9762L158.821 88.8211C158.17 89.4729 158.17 90.5262 158.821 91.1777C159.473 91.8295 160.526 91.8295 161.178 91.1777L166.666 85.6895V90.9762L162.154 95.4879C161.503 96.1396 161.503 97.193 162.154 97.8445C162.806 98.4961 163.859 98.4961 164.511 97.8445L166.666 95.6895V101.666C166.666 102.588 167.411 103.333 168.333 103.333C169.254 103.333 169.999 102.588 169.999 101.666V95.6895L172.154 97.8445C172.479 98.1695 172.906 98.3328 173.333 98.3328C173.759 98.3328 174.186 98.1695 174.511 97.8445C175.163 97.1928 175.163 96.1395 174.511 95.4879L169.999 90.9762V85.6895L175.488 91.1777C175.813 91.5027 176.239 91.666 176.666 91.666C177.093 91.666 177.519 91.5027 177.844 91.1777C178.496 90.526 178.496 89.4727 177.844 88.8211L170 80.9768V79.0234L171.666 77.3568L183.333 89.0234V91.6668C183.333 92.5867 184.078 93.3334 184.999 93.3334C185.921 93.3334 186.666 92.5867 186.666 91.6668V90H188.333C189.254 90 189.999 89.2533 189.999 88.3334C189.999 87.4135 189.254 86.6668 188.333 86.6668H185.689L174.023 75L175.69 73.3334H177.643L185.488 81.1783C185.813 81.5033 186.24 81.6666 186.666 81.6666C187.093 81.6666 187.519 81.5033 187.844 81.1783C188.496 80.5266 188.496 79.4732 187.844 78.8217L182.356 73.3334H187.643L192.155 77.8451C192.48 78.1701 192.906 78.3334 193.333 78.3334C193.759 78.3334 194.186 78.1701 194.511 77.8451C195.163 77.1934 195.163 76.14 194.511 75.4885L192.356 73.3334H198.333C199.255 73.3334 199.999 72.5867 199.999 71.6668C200 70.7467 199.255 70 198.333 70ZM168.333 75.9768L164.023 71.6668L168.333 67.3568L172.643 71.6668L168.333 75.9768Z" fill="#FFAC22"/>
</g>
<defs>
<clipPath id="clip0">
<rect width="100" height="100" fill="white" transform="translate(100 40)"/>
</clipPath>
</defs>
</svg>
