<svg width="300" height="274" viewBox="0 0 300 274" fill="none" xmlns="http://www.w3.org/2000/svg">
<path d="M42.9297 204.428H36.7676V209.467H43.9258V211H34.8926V196.781H43.8281V198.324H36.7676V202.895H42.9297V204.428ZM52.5 211C52.3958 210.792 52.3112 210.421 52.2461 209.887C51.4062 210.759 50.4036 211.195 49.2383 211.195C48.1966 211.195 47.3405 210.902 46.6699 210.316C46.0059 209.724 45.6738 208.975 45.6738 208.07C45.6738 206.97 46.0905 206.117 46.9238 205.512C47.7637 204.9 48.9421 204.594 50.459 204.594H52.2168V203.764C52.2168 203.132 52.028 202.631 51.6504 202.26C51.2728 201.882 50.7161 201.693 49.9805 201.693C49.3359 201.693 48.7956 201.856 48.3594 202.182C47.9232 202.507 47.7051 202.901 47.7051 203.363H45.8887C45.8887 202.836 46.0742 202.328 46.4453 201.84C46.8229 201.345 47.3307 200.954 47.9688 200.668C48.6133 200.382 49.3197 200.238 50.0879 200.238C51.3053 200.238 52.2591 200.544 52.9492 201.156C53.6393 201.762 53.9974 202.598 54.0234 203.666V208.529C54.0234 209.499 54.1471 210.271 54.3945 210.844V211H52.5ZM49.502 209.623C50.0684 209.623 50.6055 209.477 51.1133 209.184C51.6211 208.891 51.9889 208.51 52.2168 208.041V205.873H50.8008C48.5872 205.873 47.4805 206.521 47.4805 207.816C47.4805 208.383 47.6693 208.826 48.0469 209.145C48.4245 209.464 48.9095 209.623 49.502 209.623ZM61.0938 209.721C61.7383 209.721 62.3014 209.525 62.7832 209.135C63.265 208.744 63.5319 208.256 63.584 207.67H65.293C65.2604 208.275 65.0521 208.852 64.668 209.398C64.2839 209.945 63.7695 210.382 63.125 210.707C62.487 211.033 61.8099 211.195 61.0938 211.195C59.6549 211.195 58.5091 210.717 57.6562 209.76C56.8099 208.796 56.3867 207.481 56.3867 205.814V205.512C56.3867 204.483 56.5755 203.568 56.9531 202.768C57.3307 201.967 57.8711 201.345 58.5742 200.902C59.2839 200.46 60.1204 200.238 61.084 200.238C62.2689 200.238 63.252 200.593 64.0332 201.303C64.821 202.012 65.2409 202.934 65.293 204.066H63.584C63.5319 203.383 63.2715 202.823 62.8027 202.387C62.3405 201.944 61.7676 201.723 61.084 201.723C60.166 201.723 59.4531 202.055 58.9453 202.719C58.444 203.376 58.1934 204.33 58.1934 205.58V205.922C58.1934 207.139 58.444 208.077 58.9453 208.734C59.4466 209.392 60.1628 209.721 61.0938 209.721ZM69.1309 201.713C69.9316 200.73 70.9733 200.238 72.2559 200.238C74.4889 200.238 75.6152 201.498 75.6348 204.018V211H73.8281V204.008C73.8216 203.246 73.6458 202.683 73.3008 202.318C72.9622 201.954 72.4316 201.771 71.709 201.771C71.123 201.771 70.6087 201.928 70.166 202.24C69.7233 202.553 69.3783 202.963 69.1309 203.471V211H67.3242V196H69.1309V201.713ZM85 200.434L85.0488 201.605C85.8236 200.694 86.8685 200.238 88.1836 200.238C89.6615 200.238 90.6673 200.805 91.2012 201.938C91.5527 201.43 92.0085 201.02 92.5684 200.707C93.1348 200.395 93.8021 200.238 94.5703 200.238C96.888 200.238 98.0664 201.465 98.1055 203.92V211H96.2988V204.027C96.2988 203.272 96.1263 202.709 95.7812 202.338C95.4362 201.96 94.8568 201.771 94.043 201.771C93.3724 201.771 92.8158 201.973 92.373 202.377C91.9303 202.774 91.6732 203.311 91.6016 203.988V211H89.7852V204.076C89.7852 202.54 89.0332 201.771 87.5293 201.771C86.3444 201.771 85.5339 202.276 85.0977 203.285V211H83.291V200.434H85ZM100.361 205.619C100.361 204.584 100.563 203.653 100.967 202.826C101.377 201.999 101.943 201.361 102.666 200.912C103.395 200.463 104.225 200.238 105.156 200.238C106.595 200.238 107.757 200.736 108.643 201.732C109.535 202.729 109.98 204.053 109.98 205.707V205.834C109.98 206.863 109.782 207.787 109.385 208.607C108.994 209.421 108.431 210.056 107.695 210.512C106.966 210.967 106.126 211.195 105.176 211.195C103.743 211.195 102.581 210.697 101.689 209.701C100.804 208.705 100.361 207.387 100.361 205.746V205.619ZM102.178 205.834C102.178 207.006 102.448 207.947 102.988 208.656C103.535 209.366 104.264 209.721 105.176 209.721C106.094 209.721 106.823 209.363 107.363 208.646C107.904 207.924 108.174 206.915 108.174 205.619C108.174 204.46 107.897 203.523 107.344 202.807C106.797 202.084 106.068 201.723 105.156 201.723C104.264 201.723 103.545 202.077 102.998 202.787C102.451 203.497 102.178 204.512 102.178 205.834ZM111.807 205.629C111.807 204.008 112.191 202.706 112.959 201.723C113.727 200.733 114.733 200.238 115.977 200.238C117.214 200.238 118.193 200.661 118.916 201.508V196H120.723V211H119.062L118.975 209.867C118.252 210.753 117.246 211.195 115.957 211.195C114.733 211.195 113.734 210.694 112.959 209.691C112.191 208.689 111.807 207.38 111.807 205.766V205.629ZM113.613 205.834C113.613 207.032 113.861 207.969 114.355 208.646C114.85 209.324 115.534 209.662 116.406 209.662C117.552 209.662 118.389 209.148 118.916 208.119V203.266C118.376 202.27 117.546 201.771 116.426 201.771C115.54 201.771 114.85 202.113 114.355 202.797C113.861 203.48 113.613 204.493 113.613 205.834ZM130.059 209.955C129.355 210.782 128.324 211.195 126.963 211.195C125.837 211.195 124.977 210.87 124.385 210.219C123.799 209.561 123.503 208.591 123.496 207.309V200.434H125.303V207.26C125.303 208.861 125.954 209.662 127.256 209.662C128.636 209.662 129.554 209.148 130.01 208.119V200.434H131.816V211H130.098L130.059 209.955ZM136.533 211H134.727V196H136.533V211ZM143.818 211.195C142.386 211.195 141.221 210.727 140.322 209.789C139.424 208.845 138.975 207.585 138.975 206.01V205.678C138.975 204.63 139.173 203.695 139.57 202.875C139.974 202.048 140.534 201.404 141.25 200.941C141.973 200.473 142.754 200.238 143.594 200.238C144.967 200.238 146.035 200.691 146.797 201.596C147.559 202.501 147.939 203.796 147.939 205.482V206.234H140.781C140.807 207.276 141.11 208.119 141.689 208.764C142.275 209.402 143.018 209.721 143.916 209.721C144.554 209.721 145.094 209.59 145.537 209.33C145.98 209.07 146.367 208.725 146.699 208.295L147.803 209.154C146.917 210.515 145.589 211.195 143.818 211.195ZM143.594 201.723C142.865 201.723 142.253 201.99 141.758 202.523C141.263 203.051 140.957 203.793 140.84 204.75H146.133V204.613C146.081 203.695 145.833 202.986 145.391 202.484C144.948 201.977 144.349 201.723 143.594 201.723ZM156.963 211H155.156V200.434H156.963V211ZM155.01 197.631C155.01 197.338 155.098 197.09 155.273 196.889C155.456 196.687 155.723 196.586 156.074 196.586C156.426 196.586 156.693 196.687 156.875 196.889C157.057 197.09 157.148 197.338 157.148 197.631C157.148 197.924 157.057 198.168 156.875 198.363C156.693 198.559 156.426 198.656 156.074 198.656C155.723 198.656 155.456 198.559 155.273 198.363C155.098 198.168 155.01 197.924 155.01 197.631ZM161.572 200.434L161.631 201.762C162.438 200.746 163.493 200.238 164.795 200.238C167.028 200.238 168.154 201.498 168.174 204.018V211H166.367V204.008C166.361 203.246 166.185 202.683 165.84 202.318C165.501 201.954 164.971 201.771 164.248 201.771C163.662 201.771 163.148 201.928 162.705 202.24C162.262 202.553 161.917 202.963 161.67 203.471V211H159.863V200.434H161.572ZM175.137 209.721C175.781 209.721 176.344 209.525 176.826 209.135C177.308 208.744 177.575 208.256 177.627 207.67H179.336C179.303 208.275 179.095 208.852 178.711 209.398C178.327 209.945 177.812 210.382 177.168 210.707C176.53 211.033 175.853 211.195 175.137 211.195C173.698 211.195 172.552 210.717 171.699 209.76C170.853 208.796 170.43 207.481 170.43 205.814V205.512C170.43 204.483 170.618 203.568 170.996 202.768C171.374 201.967 171.914 201.345 172.617 200.902C173.327 200.46 174.163 200.238 175.127 200.238C176.312 200.238 177.295 200.593 178.076 201.303C178.864 202.012 179.284 202.934 179.336 204.066H177.627C177.575 203.383 177.314 202.823 176.846 202.387C176.383 201.944 175.811 201.723 175.127 201.723C174.209 201.723 173.496 202.055 172.988 202.719C172.487 203.376 172.236 204.33 172.236 205.58V205.922C172.236 207.139 172.487 208.077 172.988 208.734C173.49 209.392 174.206 209.721 175.137 209.721ZM183.33 211H181.523V196H183.33V211ZM192.754 209.955C192.051 210.782 191.019 211.195 189.658 211.195C188.532 211.195 187.673 210.87 187.08 210.219C186.494 209.561 186.198 208.591 186.191 207.309V200.434H187.998V207.26C187.998 208.861 188.649 209.662 189.951 209.662C191.331 209.662 192.249 209.148 192.705 208.119V200.434H194.512V211H192.793L192.754 209.955ZM196.826 205.629C196.826 204.008 197.21 202.706 197.979 201.723C198.747 200.733 199.753 200.238 200.996 200.238C202.233 200.238 203.213 200.661 203.936 201.508V196H205.742V211H204.082L203.994 209.867C203.271 210.753 202.266 211.195 200.977 211.195C199.753 211.195 198.753 210.694 197.979 209.691C197.21 208.689 196.826 207.38 196.826 205.766V205.629ZM198.633 205.834C198.633 207.032 198.88 207.969 199.375 208.646C199.87 209.324 200.553 209.662 201.426 209.662C202.572 209.662 203.408 209.148 203.936 208.119V203.266C203.395 202.27 202.565 201.771 201.445 201.771C200.56 201.771 199.87 202.113 199.375 202.797C198.88 203.48 198.633 204.493 198.633 205.834ZM212.939 211.195C211.507 211.195 210.342 210.727 209.443 209.789C208.545 208.845 208.096 207.585 208.096 206.01V205.678C208.096 204.63 208.294 203.695 208.691 202.875C209.095 202.048 209.655 201.404 210.371 200.941C211.094 200.473 211.875 200.238 212.715 200.238C214.089 200.238 215.156 200.691 215.918 201.596C216.68 202.501 217.061 203.796 217.061 205.482V206.234H209.902C209.928 207.276 210.231 208.119 210.811 208.764C211.396 209.402 212.139 209.721 213.037 209.721C213.675 209.721 214.215 209.59 214.658 209.33C215.101 209.07 215.488 208.725 215.82 208.295L216.924 209.154C216.038 210.515 214.71 211.195 212.939 211.195ZM212.715 201.723C211.986 201.723 211.374 201.99 210.879 202.523C210.384 203.051 210.078 203.793 209.961 204.75H215.254V204.613C215.202 203.695 214.954 202.986 214.512 202.484C214.069 201.977 213.47 201.723 212.715 201.723ZM225.312 208.197C225.312 207.709 225.127 207.331 224.756 207.064C224.391 206.791 223.75 206.557 222.832 206.361C221.921 206.166 221.195 205.932 220.654 205.658C220.12 205.385 219.723 205.059 219.463 204.682C219.209 204.304 219.082 203.855 219.082 203.334C219.082 202.468 219.447 201.736 220.176 201.137C220.911 200.538 221.849 200.238 222.988 200.238C224.186 200.238 225.156 200.548 225.898 201.166C226.647 201.785 227.021 202.576 227.021 203.539H225.205C225.205 203.044 224.993 202.618 224.57 202.26C224.154 201.902 223.626 201.723 222.988 201.723C222.331 201.723 221.816 201.866 221.445 202.152C221.074 202.439 220.889 202.813 220.889 203.275C220.889 203.712 221.061 204.04 221.406 204.262C221.751 204.483 222.373 204.695 223.271 204.896C224.176 205.098 224.909 205.339 225.469 205.619C226.029 205.899 226.442 206.238 226.709 206.635C226.982 207.025 227.119 207.504 227.119 208.07C227.119 209.014 226.742 209.773 225.986 210.346C225.231 210.912 224.251 211.195 223.047 211.195C222.201 211.195 221.452 211.046 220.801 210.746C220.15 210.447 219.639 210.03 219.268 209.496C218.903 208.956 218.721 208.373 218.721 207.748H220.527C220.56 208.354 220.801 208.835 221.25 209.193C221.706 209.545 222.305 209.721 223.047 209.721C223.73 209.721 224.277 209.584 224.688 209.311C225.104 209.031 225.312 208.66 225.312 208.197ZM236.875 203.012H238.232C239.085 202.999 239.756 202.774 240.244 202.338C240.732 201.902 240.977 201.312 240.977 200.57C240.977 198.904 240.146 198.07 238.486 198.07C237.705 198.07 237.08 198.295 236.611 198.744C236.149 199.187 235.918 199.776 235.918 200.512H234.111C234.111 199.385 234.521 198.451 235.342 197.709C236.169 196.96 237.217 196.586 238.486 196.586C239.827 196.586 240.879 196.941 241.641 197.65C242.402 198.36 242.783 199.346 242.783 200.609C242.783 201.228 242.581 201.827 242.178 202.406C241.781 202.986 241.237 203.419 240.547 203.705C241.328 203.952 241.93 204.363 242.354 204.936C242.783 205.508 242.998 206.208 242.998 207.035C242.998 208.311 242.581 209.324 241.748 210.072C240.915 210.821 239.831 211.195 238.496 211.195C237.161 211.195 236.074 210.834 235.234 210.111C234.401 209.389 233.984 208.435 233.984 207.25H235.801C235.801 207.999 236.045 208.598 236.533 209.047C237.021 209.496 237.676 209.721 238.496 209.721C239.368 209.721 240.036 209.493 240.498 209.037C240.96 208.581 241.191 207.927 241.191 207.074C241.191 206.247 240.938 205.613 240.43 205.17C239.922 204.727 239.189 204.499 238.232 204.486H236.875V203.012ZM254.395 204.936C254.395 207.051 254.033 208.624 253.311 209.652C252.588 210.681 251.458 211.195 249.922 211.195C248.405 211.195 247.282 210.694 246.553 209.691C245.824 208.682 245.446 207.178 245.42 205.18V202.768C245.42 200.678 245.781 199.125 246.504 198.109C247.227 197.094 248.359 196.586 249.902 196.586C251.432 196.586 252.559 197.077 253.281 198.061C254.004 199.037 254.375 200.548 254.395 202.592V204.936ZM252.588 202.465C252.588 200.935 252.373 199.822 251.943 199.125C251.514 198.422 250.833 198.07 249.902 198.07C248.978 198.07 248.304 198.419 247.881 199.115C247.458 199.812 247.24 200.883 247.227 202.328V205.219C247.227 206.755 247.448 207.891 247.891 208.627C248.34 209.356 249.017 209.721 249.922 209.721C250.814 209.721 251.475 209.376 251.904 208.686C252.34 207.995 252.568 206.908 252.588 205.424V202.465ZM265.625 204.936C265.625 207.051 265.264 208.624 264.541 209.652C263.818 210.681 262.689 211.195 261.152 211.195C259.635 211.195 258.512 210.694 257.783 209.691C257.054 208.682 256.676 207.178 256.65 205.18V202.768C256.65 200.678 257.012 199.125 257.734 198.109C258.457 197.094 259.59 196.586 261.133 196.586C262.663 196.586 263.789 197.077 264.512 198.061C265.234 199.037 265.605 200.548 265.625 202.592V204.936ZM263.818 202.465C263.818 200.935 263.604 199.822 263.174 199.125C262.744 198.422 262.064 198.07 261.133 198.07C260.208 198.07 259.535 198.419 259.111 199.115C258.688 199.812 258.47 200.883 258.457 202.328V205.219C258.457 206.755 258.678 207.891 259.121 208.627C259.57 209.356 260.247 209.721 261.152 209.721C262.044 209.721 262.705 209.376 263.135 208.686C263.571 207.995 263.799 206.908 263.818 205.424V202.465ZM33.6035 229.713C34.4043 228.73 35.446 228.238 36.7285 228.238C38.9616 228.238 40.0879 229.498 40.1074 232.018V239H38.3008V232.008C38.2943 231.246 38.1185 230.683 37.7734 230.318C37.4349 229.954 36.9043 229.771 36.1816 229.771C35.5957 229.771 35.0814 229.928 34.6387 230.24C34.196 230.553 33.8509 230.963 33.6035 231.471V239H31.7969V224H33.6035V229.713ZM44.7754 239H42.9688V228.434H44.7754V239ZM42.8223 225.631C42.8223 225.338 42.9102 225.09 43.0859 224.889C43.2682 224.687 43.5352 224.586 43.8867 224.586C44.2383 224.586 44.5052 224.687 44.6875 224.889C44.8698 225.09 44.9609 225.338 44.9609 225.631C44.9609 225.924 44.8698 226.168 44.6875 226.363C44.5052 226.559 44.2383 226.656 43.8867 226.656C43.5352 226.656 43.2682 226.559 43.0859 226.363C42.9102 226.168 42.8223 225.924 42.8223 225.631ZM47.2461 233.629C47.2461 231.982 47.627 230.673 48.3887 229.703C49.1504 228.727 50.1595 228.238 51.416 228.238C52.7051 228.238 53.7109 228.694 54.4336 229.605L54.5215 228.434H56.1719V238.746C56.1719 240.113 55.765 241.191 54.9512 241.979C54.1439 242.766 53.0566 243.16 51.6895 243.16C50.9277 243.16 50.1823 242.997 49.4531 242.672C48.724 242.346 48.1673 241.9 47.7832 241.334L48.7207 240.25C49.4954 241.207 50.4427 241.686 51.5625 241.686C52.4414 241.686 53.125 241.438 53.6133 240.943C54.1081 240.449 54.3555 239.752 54.3555 238.854V237.945C53.6328 238.779 52.6465 239.195 51.3965 239.195C50.1595 239.195 49.1569 238.697 48.3887 237.701C47.627 236.705 47.2461 235.348 47.2461 233.629ZM49.0625 233.834C49.0625 235.025 49.3066 235.963 49.7949 236.646C50.2832 237.324 50.9668 237.662 51.8457 237.662C52.985 237.662 53.8216 237.145 54.3555 236.109V231.285C53.8021 230.276 52.972 229.771 51.8652 229.771C50.9863 229.771 50.2995 230.113 49.8047 230.797C49.3099 231.48 49.0625 232.493 49.0625 233.834ZM60.7129 229.713C61.5137 228.73 62.5553 228.238 63.8379 228.238C66.071 228.238 67.1973 229.498 67.2168 232.018V239H65.4102V232.008C65.4036 231.246 65.2279 230.683 64.8828 230.318C64.5443 229.954 64.0137 229.771 63.291 229.771C62.7051 229.771 62.1908 229.928 61.748 230.24C61.3053 230.553 60.9603 230.963 60.7129 231.471V239H58.9062V224H60.7129V229.713ZM73.6816 233.697H68.916V232.223H73.6816V233.697ZM75.0098 233.629C75.0098 231.969 75.3906 230.657 76.1523 229.693C76.9141 228.723 77.9362 228.238 79.2188 228.238C80.4688 228.238 81.4551 228.658 82.1777 229.498L82.2559 228.434H83.916V243.062H82.1094V238.023C81.3802 238.805 80.4102 239.195 79.1992 239.195C77.9232 239.195 76.9043 238.701 76.1426 237.711C75.3874 236.715 75.0098 235.396 75.0098 233.756V233.629ZM76.8164 233.834C76.8164 235.045 77.0703 235.995 77.5781 236.686C78.0924 237.376 78.7826 237.721 79.6484 237.721C80.7227 237.721 81.543 237.245 82.1094 236.295V231.119C81.5365 230.188 80.7227 229.723 79.668 229.723C78.7956 229.723 78.1022 230.071 77.5879 230.768C77.0736 231.458 76.8164 232.48 76.8164 233.834ZM93.3398 237.955C92.6367 238.782 91.6048 239.195 90.2441 239.195C89.1178 239.195 88.2585 238.87 87.666 238.219C87.0801 237.561 86.7839 236.591 86.7773 235.309V228.434H88.584V235.26C88.584 236.861 89.235 237.662 90.5371 237.662C91.9173 237.662 92.8353 237.148 93.291 236.119V228.434H95.0977V239H93.3789L93.3398 237.955ZM104.375 239C104.271 238.792 104.186 238.421 104.121 237.887C103.281 238.759 102.279 239.195 101.113 239.195C100.072 239.195 99.2155 238.902 98.5449 238.316C97.8809 237.724 97.5488 236.975 97.5488 236.07C97.5488 234.97 97.9655 234.117 98.7988 233.512C99.6387 232.9 100.817 232.594 102.334 232.594H104.092V231.764C104.092 231.132 103.903 230.631 103.525 230.26C103.148 229.882 102.591 229.693 101.855 229.693C101.211 229.693 100.671 229.856 100.234 230.182C99.7982 230.507 99.5801 230.901 99.5801 231.363H97.7637C97.7637 230.836 97.9492 230.328 98.3203 229.84C98.6979 229.345 99.2057 228.954 99.8438 228.668C100.488 228.382 101.195 228.238 101.963 228.238C103.18 228.238 104.134 228.544 104.824 229.156C105.514 229.762 105.872 230.598 105.898 231.666V236.529C105.898 237.499 106.022 238.271 106.27 238.844V239H104.375ZM101.377 237.623C101.943 237.623 102.48 237.477 102.988 237.184C103.496 236.891 103.864 236.51 104.092 236.041V233.873H102.676C100.462 233.873 99.3555 234.521 99.3555 235.816C99.3555 236.383 99.5443 236.826 99.9219 237.145C100.299 237.464 100.785 237.623 101.377 237.623ZM110.693 239H108.887V224H110.693V239ZM115.557 239H113.75V228.434H115.557V239ZM113.604 225.631C113.604 225.338 113.691 225.09 113.867 224.889C114.049 224.687 114.316 224.586 114.668 224.586C115.02 224.586 115.286 224.687 115.469 224.889C115.651 225.09 115.742 225.338 115.742 225.631C115.742 225.924 115.651 226.168 115.469 226.363C115.286 226.559 115.02 226.656 114.668 226.656C114.316 226.656 114.049 226.559 113.867 226.363C113.691 226.168 113.604 225.924 113.604 225.631ZM120.908 225.875V228.434H122.881V229.83H120.908V236.383C120.908 236.806 120.996 237.125 121.172 237.34C121.348 237.548 121.647 237.652 122.07 237.652C122.279 237.652 122.565 237.613 122.93 237.535V239C122.454 239.13 121.992 239.195 121.543 239.195C120.736 239.195 120.127 238.951 119.717 238.463C119.307 237.975 119.102 237.281 119.102 236.383V229.83H117.178V228.434H119.102V225.875H120.908ZM128.457 236.354L130.918 228.434H132.852L128.604 240.631C127.946 242.389 126.901 243.268 125.469 243.268L125.127 243.238L124.453 243.111V241.646L124.941 241.686C125.553 241.686 126.029 241.562 126.367 241.314C126.712 241.067 126.995 240.615 127.217 239.957L127.617 238.883L123.848 228.434H125.82L128.457 236.354ZM145.957 239C145.853 238.792 145.768 238.421 145.703 237.887C144.863 238.759 143.861 239.195 142.695 239.195C141.654 239.195 140.798 238.902 140.127 238.316C139.463 237.724 139.131 236.975 139.131 236.07C139.131 234.97 139.548 234.117 140.381 233.512C141.221 232.9 142.399 232.594 143.916 232.594H145.674V231.764C145.674 231.132 145.485 230.631 145.107 230.26C144.73 229.882 144.173 229.693 143.438 229.693C142.793 229.693 142.253 229.856 141.816 230.182C141.38 230.507 141.162 230.901 141.162 231.363H139.346C139.346 230.836 139.531 230.328 139.902 229.84C140.28 229.345 140.788 228.954 141.426 228.668C142.07 228.382 142.777 228.238 143.545 228.238C144.762 228.238 145.716 228.544 146.406 229.156C147.096 229.762 147.454 230.598 147.48 231.666V236.529C147.48 237.499 147.604 238.271 147.852 238.844V239H145.957ZM142.959 237.623C143.525 237.623 144.062 237.477 144.57 237.184C145.078 236.891 145.446 236.51 145.674 236.041V233.873H144.258C142.044 233.873 140.938 234.521 140.938 235.816C140.938 236.383 141.126 236.826 141.504 237.145C141.882 237.464 142.367 237.623 142.959 237.623ZM152.021 228.434L152.08 229.762C152.887 228.746 153.942 228.238 155.244 228.238C157.477 228.238 158.604 229.498 158.623 232.018V239H156.816V232.008C156.81 231.246 156.634 230.683 156.289 230.318C155.951 229.954 155.42 229.771 154.697 229.771C154.111 229.771 153.597 229.928 153.154 230.24C152.712 230.553 152.367 230.963 152.119 231.471V239H150.312V228.434H152.021ZM160.908 233.629C160.908 232.008 161.292 230.706 162.061 229.723C162.829 228.733 163.835 228.238 165.078 228.238C166.315 228.238 167.295 228.661 168.018 229.508V224H169.824V239H168.164L168.076 237.867C167.354 238.753 166.348 239.195 165.059 239.195C163.835 239.195 162.835 238.694 162.061 237.691C161.292 236.689 160.908 235.38 160.908 233.766V233.629ZM162.715 233.834C162.715 235.032 162.962 235.969 163.457 236.646C163.952 237.324 164.635 237.662 165.508 237.662C166.654 237.662 167.49 237.148 168.018 236.119V231.266C167.477 230.27 166.647 229.771 165.527 229.771C164.642 229.771 163.952 230.113 163.457 230.797C162.962 231.48 162.715 232.493 162.715 233.834ZM181.982 239.195C180.55 239.195 179.385 238.727 178.486 237.789C177.588 236.845 177.139 235.585 177.139 234.01V233.678C177.139 232.63 177.337 231.695 177.734 230.875C178.138 230.048 178.698 229.404 179.414 228.941C180.137 228.473 180.918 228.238 181.758 228.238C183.132 228.238 184.199 228.691 184.961 229.596C185.723 230.501 186.104 231.796 186.104 233.482V234.234H178.945C178.971 235.276 179.274 236.119 179.854 236.764C180.439 237.402 181.182 237.721 182.08 237.721C182.718 237.721 183.258 237.59 183.701 237.33C184.144 237.07 184.531 236.725 184.863 236.295L185.967 237.154C185.081 238.515 183.753 239.195 181.982 239.195ZM181.758 229.723C181.029 229.723 180.417 229.99 179.922 230.523C179.427 231.051 179.121 231.793 179.004 232.75H184.297V232.613C184.245 231.695 183.997 230.986 183.555 230.484C183.112 229.977 182.513 229.723 181.758 229.723ZM189.912 228.434L189.971 229.762C190.778 228.746 191.833 228.238 193.135 228.238C195.368 228.238 196.494 229.498 196.514 232.018V239H194.707V232.008C194.701 231.246 194.525 230.683 194.18 230.318C193.841 229.954 193.311 229.771 192.588 229.771C192.002 229.771 191.488 229.928 191.045 230.24C190.602 230.553 190.257 230.963 190.01 231.471V239H188.203V228.434H189.912ZM198.799 233.629C198.799 232.008 199.183 230.706 199.951 229.723C200.719 228.733 201.725 228.238 202.969 228.238C204.206 228.238 205.186 228.661 205.908 229.508V224H207.715V239H206.055L205.967 237.867C205.244 238.753 204.238 239.195 202.949 239.195C201.725 239.195 200.726 238.694 199.951 237.691C199.183 236.689 198.799 235.38 198.799 233.766V233.629ZM200.605 233.834C200.605 235.032 200.853 235.969 201.348 236.646C201.842 237.324 202.526 237.662 203.398 237.662C204.544 237.662 205.381 237.148 205.908 236.119V231.266C205.368 230.27 204.538 229.771 203.418 229.771C202.533 229.771 201.842 230.113 201.348 230.797C200.853 231.48 200.605 232.493 200.605 233.834ZM217.051 237.955C216.348 238.782 215.316 239.195 213.955 239.195C212.829 239.195 211.969 238.87 211.377 238.219C210.791 237.561 210.495 236.591 210.488 235.309V228.434H212.295V235.26C212.295 236.861 212.946 237.662 214.248 237.662C215.628 237.662 216.546 237.148 217.002 236.119V228.434H218.809V239H217.09L217.051 237.955ZM226.67 230.055C226.396 230.009 226.1 229.986 225.781 229.986C224.596 229.986 223.792 230.491 223.369 231.5V239H221.562V228.434H223.32L223.35 229.654C223.942 228.71 224.782 228.238 225.869 228.238C226.221 228.238 226.488 228.284 226.67 228.375V230.055ZM234.473 239C234.368 238.792 234.284 238.421 234.219 237.887C233.379 238.759 232.376 239.195 231.211 239.195C230.169 239.195 229.313 238.902 228.643 238.316C227.979 237.724 227.646 236.975 227.646 236.07C227.646 234.97 228.063 234.117 228.896 233.512C229.736 232.9 230.915 232.594 232.432 232.594H234.189V231.764C234.189 231.132 234.001 230.631 233.623 230.26C233.245 229.882 232.689 229.693 231.953 229.693C231.309 229.693 230.768 229.856 230.332 230.182C229.896 230.507 229.678 230.901 229.678 231.363H227.861C227.861 230.836 228.047 230.328 228.418 229.84C228.796 229.345 229.303 228.954 229.941 228.668C230.586 228.382 231.292 228.238 232.061 228.238C233.278 228.238 234.232 228.544 234.922 229.156C235.612 229.762 235.97 230.598 235.996 231.666V236.529C235.996 237.499 236.12 238.271 236.367 238.844V239H234.473ZM231.475 237.623C232.041 237.623 232.578 237.477 233.086 237.184C233.594 236.891 233.962 236.51 234.189 236.041V233.873H232.773C230.56 233.873 229.453 234.521 229.453 235.816C229.453 236.383 229.642 236.826 230.02 237.145C230.397 237.464 230.882 237.623 231.475 237.623ZM240.537 228.434L240.596 229.762C241.403 228.746 242.458 228.238 243.76 228.238C245.993 228.238 247.119 229.498 247.139 232.018V239H245.332V232.008C245.326 231.246 245.15 230.683 244.805 230.318C244.466 229.954 243.936 229.771 243.213 229.771C242.627 229.771 242.113 229.928 241.67 230.24C241.227 230.553 240.882 230.963 240.635 231.471V239H238.828V228.434H240.537ZM254.102 237.721C254.746 237.721 255.309 237.525 255.791 237.135C256.273 236.744 256.54 236.256 256.592 235.67H258.301C258.268 236.275 258.06 236.852 257.676 237.398C257.292 237.945 256.777 238.382 256.133 238.707C255.495 239.033 254.818 239.195 254.102 239.195C252.663 239.195 251.517 238.717 250.664 237.76C249.818 236.796 249.395 235.481 249.395 233.814V233.512C249.395 232.483 249.583 231.568 249.961 230.768C250.339 229.967 250.879 229.345 251.582 228.902C252.292 228.46 253.128 228.238 254.092 228.238C255.277 228.238 256.26 228.593 257.041 229.303C257.829 230.012 258.249 230.934 258.301 232.066H256.592C256.54 231.383 256.279 230.823 255.811 230.387C255.348 229.944 254.775 229.723 254.092 229.723C253.174 229.723 252.461 230.055 251.953 230.719C251.452 231.376 251.201 232.33 251.201 233.58V233.922C251.201 235.139 251.452 236.077 251.953 236.734C252.454 237.392 253.171 237.721 254.102 237.721ZM264.717 239.195C263.285 239.195 262.119 238.727 261.221 237.789C260.322 236.845 259.873 235.585 259.873 234.01V233.678C259.873 232.63 260.072 231.695 260.469 230.875C260.872 230.048 261.432 229.404 262.148 228.941C262.871 228.473 263.652 228.238 264.492 228.238C265.866 228.238 266.934 228.691 267.695 229.596C268.457 230.501 268.838 231.796 268.838 233.482V234.234H261.68C261.706 235.276 262.008 236.119 262.588 236.764C263.174 237.402 263.916 237.721 264.814 237.721C265.452 237.721 265.993 237.59 266.436 237.33C266.878 237.07 267.266 236.725 267.598 236.295L268.701 237.154C267.816 238.515 266.488 239.195 264.717 239.195ZM264.492 229.723C263.763 229.723 263.151 229.99 262.656 230.523C262.161 231.051 261.855 231.793 261.738 232.75H267.031V232.613C266.979 231.695 266.732 230.986 266.289 230.484C265.846 229.977 265.247 229.723 264.492 229.723ZM62.0898 265.721C62.7344 265.721 63.2975 265.525 63.7793 265.135C64.2611 264.744 64.528 264.256 64.5801 263.67H66.2891C66.2565 264.275 66.0482 264.852 65.6641 265.398C65.2799 265.945 64.7656 266.382 64.1211 266.707C63.4831 267.033 62.806 267.195 62.0898 267.195C60.651 267.195 59.5052 266.717 58.6523 265.76C57.806 264.796 57.3828 263.481 57.3828 261.814V261.512C57.3828 260.483 57.5716 259.568 57.9492 258.768C58.3268 257.967 58.8672 257.345 59.5703 256.902C60.2799 256.46 61.1165 256.238 62.0801 256.238C63.265 256.238 64.248 256.593 65.0293 257.303C65.8171 258.012 66.237 258.934 66.2891 260.066H64.5801C64.528 259.383 64.2676 258.823 63.7988 258.387C63.3366 257.944 62.7637 257.723 62.0801 257.723C61.1621 257.723 60.4492 258.055 59.9414 258.719C59.4401 259.376 59.1895 260.33 59.1895 261.58V261.922C59.1895 263.139 59.4401 264.077 59.9414 264.734C60.4427 265.392 61.1589 265.721 62.0898 265.721ZM67.8418 261.619C67.8418 260.584 68.0436 259.653 68.4473 258.826C68.8574 257.999 69.4238 257.361 70.1465 256.912C70.8757 256.463 71.7057 256.238 72.6367 256.238C74.0755 256.238 75.2376 256.736 76.123 257.732C77.015 258.729 77.4609 260.053 77.4609 261.707V261.834C77.4609 262.863 77.2624 263.787 76.8652 264.607C76.4746 265.421 75.9115 266.056 75.1758 266.512C74.4466 266.967 73.6068 267.195 72.6562 267.195C71.224 267.195 70.0618 266.697 69.1699 265.701C68.2845 264.705 67.8418 263.387 67.8418 261.746V261.619ZM69.6582 261.834C69.6582 263.006 69.9284 263.947 70.4688 264.656C71.0156 265.366 71.7448 265.721 72.6562 265.721C73.5742 265.721 74.3034 265.363 74.8438 264.646C75.3841 263.924 75.6543 262.915 75.6543 261.619C75.6543 260.46 75.3776 259.523 74.8242 258.807C74.2773 258.084 73.5482 257.723 72.6367 257.723C71.7448 257.723 71.0254 258.077 70.4785 258.787C69.9316 259.497 69.6582 260.512 69.6582 261.834ZM81.4258 256.434L81.4746 257.605C82.2493 256.694 83.2943 256.238 84.6094 256.238C86.0872 256.238 87.0931 256.805 87.627 257.938C87.9785 257.43 88.4342 257.02 88.9941 256.707C89.5605 256.395 90.2279 256.238 90.9961 256.238C93.3138 256.238 94.4922 257.465 94.5312 259.92V267H92.7246V260.027C92.7246 259.272 92.5521 258.709 92.207 258.338C91.862 257.96 91.2826 257.771 90.4688 257.771C89.7982 257.771 89.2415 257.973 88.7988 258.377C88.3561 258.774 88.099 259.311 88.0273 259.988V267H86.2109V260.076C86.2109 258.54 85.459 257.771 83.9551 257.771C82.7702 257.771 81.9596 258.276 81.5234 259.285V267H79.7168V256.434H81.4258ZM106.191 261.834C106.191 263.442 105.824 264.738 105.088 265.721C104.352 266.704 103.356 267.195 102.1 267.195C100.817 267.195 99.8079 266.788 99.0723 265.975V271.062H97.2656V256.434H98.916L99.0039 257.605C99.7396 256.694 100.762 256.238 102.07 256.238C103.34 256.238 104.342 256.717 105.078 257.674C105.82 258.631 106.191 259.962 106.191 261.668V261.834ZM104.385 261.629C104.385 260.438 104.131 259.497 103.623 258.807C103.115 258.117 102.419 257.771 101.533 257.771C100.439 257.771 99.6191 258.257 99.0723 259.227V264.275C99.6126 265.239 100.439 265.721 101.553 265.721C102.419 265.721 103.105 265.379 103.613 264.695C104.128 264.005 104.385 262.983 104.385 261.629ZM115.02 265.955C114.316 266.782 113.285 267.195 111.924 267.195C110.798 267.195 109.938 266.87 109.346 266.219C108.76 265.561 108.464 264.591 108.457 263.309V256.434H110.264V263.26C110.264 264.861 110.915 265.662 112.217 265.662C113.597 265.662 114.515 265.148 114.971 264.119V256.434H116.777V267H115.059L115.02 265.955ZM121.982 253.875V256.434H123.955V257.83H121.982V264.383C121.982 264.806 122.07 265.125 122.246 265.34C122.422 265.548 122.721 265.652 123.145 265.652C123.353 265.652 123.639 265.613 124.004 265.535V267C123.529 267.13 123.066 267.195 122.617 267.195C121.81 267.195 121.201 266.951 120.791 266.463C120.381 265.975 120.176 265.281 120.176 264.383V257.83H118.252V256.434H120.176V253.875H121.982ZM128.037 267H126.23V256.434H128.037V267ZM126.084 253.631C126.084 253.338 126.172 253.09 126.348 252.889C126.53 252.687 126.797 252.586 127.148 252.586C127.5 252.586 127.767 252.687 127.949 252.889C128.132 253.09 128.223 253.338 128.223 253.631C128.223 253.924 128.132 254.168 127.949 254.363C127.767 254.559 127.5 254.656 127.148 254.656C126.797 254.656 126.53 254.559 126.348 254.363C126.172 254.168 126.084 253.924 126.084 253.631ZM132.646 256.434L132.705 257.762C133.512 256.746 134.567 256.238 135.869 256.238C138.102 256.238 139.229 257.498 139.248 260.018V267H137.441V260.008C137.435 259.246 137.259 258.683 136.914 258.318C136.576 257.954 136.045 257.771 135.322 257.771C134.736 257.771 134.222 257.928 133.779 258.24C133.337 258.553 132.992 258.963 132.744 259.471V267H130.938V256.434H132.646ZM141.543 261.629C141.543 259.982 141.924 258.673 142.686 257.703C143.447 256.727 144.456 256.238 145.713 256.238C147.002 256.238 148.008 256.694 148.73 257.605L148.818 256.434H150.469V266.746C150.469 268.113 150.062 269.191 149.248 269.979C148.441 270.766 147.354 271.16 145.986 271.16C145.225 271.16 144.479 270.997 143.75 270.672C143.021 270.346 142.464 269.9 142.08 269.334L143.018 268.25C143.792 269.207 144.74 269.686 145.859 269.686C146.738 269.686 147.422 269.438 147.91 268.943C148.405 268.449 148.652 267.752 148.652 266.854V265.945C147.93 266.779 146.943 267.195 145.693 267.195C144.456 267.195 143.454 266.697 142.686 265.701C141.924 264.705 141.543 263.348 141.543 261.629ZM143.359 261.834C143.359 263.025 143.604 263.963 144.092 264.646C144.58 265.324 145.264 265.662 146.143 265.662C147.282 265.662 148.118 265.145 148.652 264.109V259.285C148.099 258.276 147.269 257.771 146.162 257.771C145.283 257.771 144.596 258.113 144.102 258.797C143.607 259.48 143.359 260.493 143.359 261.834ZM159.863 256.434L159.912 257.605C160.687 256.694 161.732 256.238 163.047 256.238C164.525 256.238 165.531 256.805 166.064 257.938C166.416 257.43 166.872 257.02 167.432 256.707C167.998 256.395 168.665 256.238 169.434 256.238C171.751 256.238 172.93 257.465 172.969 259.92V267H171.162V260.027C171.162 259.272 170.99 258.709 170.645 258.338C170.299 257.96 169.72 257.771 168.906 257.771C168.236 257.771 167.679 257.973 167.236 258.377C166.794 258.774 166.536 259.311 166.465 259.988V267H164.648V260.076C164.648 258.54 163.896 257.771 162.393 257.771C161.208 257.771 160.397 258.276 159.961 259.285V267H158.154V256.434H159.863ZM182.227 267C182.122 266.792 182.038 266.421 181.973 265.887C181.133 266.759 180.13 267.195 178.965 267.195C177.923 267.195 177.067 266.902 176.396 266.316C175.732 265.724 175.4 264.975 175.4 264.07C175.4 262.97 175.817 262.117 176.65 261.512C177.49 260.9 178.669 260.594 180.186 260.594H181.943V259.764C181.943 259.132 181.755 258.631 181.377 258.26C180.999 257.882 180.443 257.693 179.707 257.693C179.062 257.693 178.522 257.856 178.086 258.182C177.65 258.507 177.432 258.901 177.432 259.363H175.615C175.615 258.836 175.801 258.328 176.172 257.84C176.549 257.345 177.057 256.954 177.695 256.668C178.34 256.382 179.046 256.238 179.814 256.238C181.032 256.238 181.986 256.544 182.676 257.156C183.366 257.762 183.724 258.598 183.75 259.666V264.529C183.75 265.499 183.874 266.271 184.121 266.844V267H182.227ZM179.229 265.623C179.795 265.623 180.332 265.477 180.84 265.184C181.348 264.891 181.715 264.51 181.943 264.041V261.873H180.527C178.314 261.873 177.207 262.521 177.207 263.816C177.207 264.383 177.396 264.826 177.773 265.145C178.151 265.464 178.636 265.623 179.229 265.623ZM190.82 265.721C191.465 265.721 192.028 265.525 192.51 265.135C192.992 264.744 193.258 264.256 193.311 263.67H195.02C194.987 264.275 194.779 264.852 194.395 265.398C194.01 265.945 193.496 266.382 192.852 266.707C192.214 267.033 191.536 267.195 190.82 267.195C189.382 267.195 188.236 266.717 187.383 265.76C186.536 264.796 186.113 263.481 186.113 261.814V261.512C186.113 260.483 186.302 259.568 186.68 258.768C187.057 257.967 187.598 257.345 188.301 256.902C189.01 256.46 189.847 256.238 190.811 256.238C191.995 256.238 192.979 256.593 193.76 257.303C194.548 258.012 194.967 258.934 195.02 260.066H193.311C193.258 259.383 192.998 258.823 192.529 258.387C192.067 257.944 191.494 257.723 190.811 257.723C189.893 257.723 189.18 258.055 188.672 258.719C188.171 259.376 187.92 260.33 187.92 261.58V261.922C187.92 263.139 188.171 264.077 188.672 264.734C189.173 265.392 189.889 265.721 190.82 265.721ZM198.857 257.713C199.658 256.73 200.7 256.238 201.982 256.238C204.215 256.238 205.342 257.498 205.361 260.018V267H203.555V260.008C203.548 259.246 203.372 258.683 203.027 258.318C202.689 257.954 202.158 257.771 201.436 257.771C200.85 257.771 200.335 257.928 199.893 258.24C199.45 258.553 199.105 258.963 198.857 259.471V267H197.051V252H198.857V257.713ZM210.029 267H208.223V256.434H210.029V267ZM208.076 253.631C208.076 253.338 208.164 253.09 208.34 252.889C208.522 252.687 208.789 252.586 209.141 252.586C209.492 252.586 209.759 252.687 209.941 252.889C210.124 253.09 210.215 253.338 210.215 253.631C210.215 253.924 210.124 254.168 209.941 254.363C209.759 254.559 209.492 254.656 209.141 254.656C208.789 254.656 208.522 254.559 208.34 254.363C208.164 254.168 208.076 253.924 208.076 253.631ZM214.639 256.434L214.697 257.762C215.505 256.746 216.559 256.238 217.861 256.238C220.094 256.238 221.221 257.498 221.24 260.018V267H219.434V260.008C219.427 259.246 219.251 258.683 218.906 258.318C218.568 257.954 218.037 257.771 217.314 257.771C216.729 257.771 216.214 257.928 215.771 258.24C215.329 258.553 214.984 258.963 214.736 259.471V267H212.93V256.434H214.639ZM228.35 267.195C226.917 267.195 225.752 266.727 224.854 265.789C223.955 264.845 223.506 263.585 223.506 262.01V261.678C223.506 260.63 223.704 259.695 224.102 258.875C224.505 258.048 225.065 257.404 225.781 256.941C226.504 256.473 227.285 256.238 228.125 256.238C229.499 256.238 230.566 256.691 231.328 257.596C232.09 258.501 232.471 259.796 232.471 261.482V262.234H225.312C225.339 263.276 225.641 264.119 226.221 264.764C226.807 265.402 227.549 265.721 228.447 265.721C229.085 265.721 229.626 265.59 230.068 265.33C230.511 265.07 230.898 264.725 231.23 264.295L232.334 265.154C231.449 266.515 230.12 267.195 228.35 267.195ZM228.125 257.723C227.396 257.723 226.784 257.99 226.289 258.523C225.794 259.051 225.488 259.793 225.371 260.75H230.664V260.613C230.612 259.695 230.365 258.986 229.922 258.484C229.479 257.977 228.88 257.723 228.125 257.723ZM240.723 264.197C240.723 263.709 240.537 263.331 240.166 263.064C239.801 262.791 239.16 262.557 238.242 262.361C237.331 262.166 236.605 261.932 236.064 261.658C235.531 261.385 235.133 261.059 234.873 260.682C234.619 260.304 234.492 259.855 234.492 259.334C234.492 258.468 234.857 257.736 235.586 257.137C236.322 256.538 237.259 256.238 238.398 256.238C239.596 256.238 240.566 256.548 241.309 257.166C242.057 257.785 242.432 258.576 242.432 259.539H240.615C240.615 259.044 240.404 258.618 239.98 258.26C239.564 257.902 239.036 257.723 238.398 257.723C237.741 257.723 237.227 257.866 236.855 258.152C236.484 258.439 236.299 258.813 236.299 259.275C236.299 259.712 236.471 260.04 236.816 260.262C237.161 260.483 237.783 260.695 238.682 260.896C239.587 261.098 240.319 261.339 240.879 261.619C241.439 261.899 241.852 262.238 242.119 262.635C242.393 263.025 242.529 263.504 242.529 264.07C242.529 265.014 242.152 265.773 241.396 266.346C240.641 266.912 239.661 267.195 238.457 267.195C237.611 267.195 236.862 267.046 236.211 266.746C235.56 266.447 235.049 266.03 234.678 265.496C234.313 264.956 234.131 264.373 234.131 263.748H235.938C235.97 264.354 236.211 264.835 236.66 265.193C237.116 265.545 237.715 265.721 238.457 265.721C239.141 265.721 239.688 265.584 240.098 265.311C240.514 265.031 240.723 264.66 240.723 264.197Z" fill="black"/>
<g clip-path="url(#clip0)">
<path d="M158.334 126.667H141.667C140.747 126.667 140 127.414 140 128.334C140 129.254 140.747 130 141.667 130H158.334C159.253 130 160 129.254 160 128.334C160 127.414 159.253 126.667 158.334 126.667Z" fill="#FFAC22"/>
<path d="M119.167 43.333H108.333C103.738 43.333 100 47.0713 100 51.6662V125C100 129.595 103.738 133.333 108.333 133.333H118.333C119.253 133.333 120 132.586 120 131.666C120 130.746 119.253 130 118.333 130H108.333C105.577 130 103.333 127.756 103.333 125V51.6662C103.333 48.9096 105.577 46.6662 108.333 46.6662H119.167C120.087 46.6662 120.833 45.9195 120.833 44.9996C120.833 44.0797 120.087 43.333 119.167 43.333Z" fill="#FFAC22"/>
<path d="M158.334 120H141.667C140.747 120 140 120.747 140 121.667C140 122.587 140.747 123.333 141.667 123.333H158.334C159.253 123.333 160 122.587 160 121.667C160 120.747 159.253 120 158.334 120Z" fill="#FFAC22"/>
<path d="M168.334 86.667H131.667C130.747 86.667 130 87.4137 130 88.3336C130 89.2535 130.747 90.0002 131.667 90.0002H168.334C169.253 90.0002 170 89.2535 170 88.3336C170 87.4137 169.254 86.667 168.334 86.667Z" fill="#FFAC22"/>
<path d="M151.717 81.6666C151.717 80.7467 150.972 80 150.05 80H150.034C149.114 80 148.375 80.7467 148.375 81.6666C148.375 82.5865 149.13 83.3332 150.05 83.3332C150.972 83.3334 151.717 82.5867 151.717 81.6666Z" fill="#FFAC22"/>
<path d="M153.334 110C153.334 108.162 151.839 106.667 150 106.667C148.162 106.667 146.667 108.162 146.667 110C146.667 111.839 148.162 113.334 150 113.334C151.839 113.334 153.334 111.839 153.334 110Z" fill="#FFAC22"/>
<path d="M118.383 53.333H118.367C117.447 53.333 116.708 54.0797 116.708 54.9996C116.708 55.9195 117.464 56.6662 118.383 56.6662C119.305 56.6662 120.05 55.9195 120.05 54.9996C120.05 54.0797 119.305 53.333 118.383 53.333Z" fill="#FFAC22"/>
<path d="M118.334 120H115C114.08 120 113.334 120.747 113.334 121.667C113.334 122.587 114.08 123.333 115 123.333H118.334C119.254 123.333 120 122.587 120 121.667C120 120.747 119.254 120 118.334 120Z" fill="#FFAC22"/>
<path d="M118.383 66.667H118.367C117.447 66.667 116.708 67.4137 116.708 68.3336C116.708 69.2535 117.464 70.0002 118.383 70.0002C119.305 70.0002 120.05 69.2535 120.05 68.3336C120.05 67.4137 119.305 66.667 118.383 66.667Z" fill="#FFAC22"/>
<path d="M118.334 113.333H115C114.08 113.333 113.334 114.08 113.334 115C113.334 115.92 114.08 116.666 115 116.666H118.334C119.254 116.666 120 115.92 120 115C120 114.08 119.254 113.333 118.334 113.333Z" fill="#FFAC22"/>
<path d="M118.334 86.667H108.334C107.414 86.667 106.667 87.4137 106.667 88.3336C106.667 89.2535 107.413 90.0004 108.334 90.0004H118.334C119.253 90.0004 120 89.2537 120 88.3338C120 87.4139 119.253 86.667 118.334 86.667Z" fill="#FFAC22"/>
<path d="M108.334 76.6662H118.334C119.253 76.6662 120 75.9195 120 74.9996C120 74.0797 119.253 73.333 118.334 73.333H108.334C107.414 73.333 106.667 74.0797 106.667 74.9996C106.667 75.9195 107.413 76.6662 108.334 76.6662Z" fill="#FFAC22"/>
<path d="M118.383 80H118.367C117.447 80 116.708 80.7467 116.708 81.6666C116.708 82.5865 117.464 83.3332 118.383 83.3332C119.305 83.3332 120.05 82.5865 120.05 81.6666C120.05 80.7467 119.305 80 118.383 80Z" fill="#FFAC22"/>
<path d="M108.334 63.3332H118.334C119.253 63.3332 120 62.5865 120 61.6666C120 60.7467 119.253 60 118.334 60H108.334C107.414 60 106.667 60.7467 106.667 61.6666C106.667 62.5865 107.413 63.3332 108.334 63.3332Z" fill="#FFAC22"/>
<path d="M168.334 40H131.667C127.072 40 123.333 43.7383 123.333 48.3334V131.667C123.333 136.262 127.072 140 131.667 140H168.333C172.928 140 176.667 136.262 176.667 131.667V48.3334C176.667 43.7383 172.928 40 168.334 40ZM173.334 131.667C173.334 134.423 171.09 136.667 168.334 136.667H131.667C128.91 136.667 126.667 134.423 126.667 131.667V48.3334C126.667 45.5768 128.91 43.3334 131.667 43.3334H168.333C171.09 43.3334 173.333 45.5768 173.333 48.3334V131.667H173.334Z" fill="#FFAC22"/>
<path d="M181.667 76.6662H191.667C192.587 76.6662 193.334 75.9195 193.334 74.9996C193.334 74.0797 192.587 73.333 191.667 73.333H181.667C180.747 73.333 180 74.0797 180 74.9996C180 75.9195 180.747 76.6662 181.667 76.6662Z" fill="#FFAC22"/>
<path d="M181.7 66.667C180.78 66.667 180.042 67.4137 180.042 68.3336C180.042 69.2535 180.797 70.0002 181.717 70.0002C182.639 70.0002 183.384 69.2535 183.384 68.3336C183.384 67.4137 182.639 66.667 181.717 66.667H181.7Z" fill="#FFAC22"/>
<path d="M181.7 80C180.78 80 180.042 80.7467 180.042 81.6666C180.042 82.5865 180.797 83.3332 181.717 83.3332C182.639 83.3332 183.384 82.5865 183.384 81.6666C183.384 80.7467 182.639 80 181.717 80H181.7Z" fill="#FFAC22"/>
<path d="M181.717 56.6662C182.639 56.6662 183.384 55.9195 183.384 54.9996C183.384 54.0797 182.639 53.333 181.717 53.333H181.7C180.78 53.333 180.042 54.0797 180.042 54.9996C180.042 55.9195 180.797 56.6662 181.717 56.6662Z" fill="#FFAC22"/>
<path d="M181.667 90.0002H191.667C192.587 90.0002 193.334 89.2535 193.334 88.3336C193.334 87.4137 192.587 86.667 191.667 86.667H181.667C180.747 86.667 180 87.4137 180 88.3336C180 89.2535 180.747 90.0002 181.667 90.0002Z" fill="#FFAC22"/>
<path d="M181.667 123.333H185C185.92 123.333 186.667 122.587 186.667 121.667C186.667 120.747 185.92 120 185 120H181.667C180.747 120 180 120.747 180 121.667C180 122.587 180.747 123.333 181.667 123.333Z" fill="#FFAC22"/>
<path d="M181.667 116.666H185C185.92 116.666 186.667 115.92 186.667 115C186.667 114.08 185.92 113.333 185 113.333H181.667C180.747 113.333 180 114.08 180 115C180 115.92 180.747 116.666 181.667 116.666Z" fill="#FFAC22"/>
<path d="M191.667 43.333H180.833C179.913 43.333 179.167 44.0797 179.167 44.9996C179.167 45.9195 179.913 46.6662 180.833 46.6662H191.667C194.423 46.6662 196.667 48.9096 196.667 51.6662V125C196.667 127.756 194.423 130 191.667 130H181.667C180.747 130 180 130.746 180 131.666C180 132.586 180.747 133.333 181.667 133.333H191.667C196.262 133.333 200 129.595 200 124.999V51.6662C200 47.0713 196.262 43.333 191.667 43.333Z" fill="#FFAC22"/>
<path d="M151.717 54.9996C151.717 54.0797 150.972 53.333 150.05 53.333H150.034C149.114 53.333 148.375 54.0797 148.375 54.9996C148.375 55.9195 149.13 56.6662 150.05 56.6662C150.972 56.6662 151.717 55.9195 151.717 54.9996Z" fill="#FFAC22"/>
<path d="M168.334 60H131.667C130.747 60 130 60.7467 130 61.6666C130 62.5865 130.747 63.3332 131.667 63.3332H168.334C169.253 63.3332 170 62.5865 170 61.6666C170 60.7467 169.254 60 168.334 60Z" fill="#FFAC22"/>
<path d="M151.717 68.3336C151.717 67.4137 150.972 66.667 150.05 66.667H150.034C149.114 66.667 148.375 67.4137 148.375 68.3336C148.375 69.2535 149.13 70.0002 150.05 70.0002C150.972 70.0002 151.717 69.2535 151.717 68.3336Z" fill="#FFAC22"/>
<path d="M181.667 63.3332H191.667C192.587 63.3332 193.334 62.5865 193.334 61.6666C193.334 60.7467 192.587 60 191.667 60H181.667C180.747 60 180 60.7467 180 61.6666C180 62.5865 180.747 63.3332 181.667 63.3332Z" fill="#FFAC22"/>
<path d="M168.334 46.667H131.667C130.747 46.667 130 47.4137 130 48.3336C130 49.2535 130.747 50.0002 131.667 50.0002H168.334C169.253 50.0002 170 49.2535 170 48.3336C170 47.4137 169.254 46.667 168.334 46.667Z" fill="#FFAC22"/>
<path d="M168.334 73.333H131.667C130.747 73.333 130 74.0797 130 74.9996C130 75.9195 130.747 76.6662 131.667 76.6662H168.334C169.253 76.6662 170 75.9195 170 74.9996C170 74.0797 169.254 73.333 168.334 73.333Z" fill="#FFAC22"/>
</g>
<defs>
<clipPath id="clip0">
<rect width="100" height="100" fill="white" transform="translate(100 40)"/>
</clipPath>
</defs>
</svg>
