<svg width="1044" height="603" viewBox="0 0 1044 603" fill="none" xmlns="http://www.w3.org/2000/svg">
<path d="M207.01 300.777L149.025 267.343L148.07 267.821L206.055 301.255L207.01 300.777ZM202.52 303.452L144.535 270.018L143.58 270.495L201.565 303.93L202.52 303.452ZM193.541 308.611L135.556 275.176L134.601 275.654L192.586 309.088L193.541 308.611ZM175.486 319.023L117.501 285.589L116.546 286.066L174.531 319.501L175.486 319.023ZM184.466 313.865L126.481 280.43L125.526 280.908L183.511 314.342L184.466 313.865ZM188.956 311.19L130.971 277.755L130.015 278.233L188 311.668L188.956 311.19ZM198.031 306.031L140.046 272.597L139.09 273.075L197.075 306.509L198.031 306.031ZM211.5 298.198L153.515 264.764L152.56 265.241L210.545 298.676L211.5 298.198ZM225.065 290.365L167.08 256.931L166.125 257.408L224.11 290.843L225.065 290.365ZM179.976 316.444L121.991 283.009L121.036 283.487L179.021 316.922L179.976 316.444ZM220.575 293.04L162.59 259.605L161.635 260.083L219.62 293.517L220.575 293.04ZM215.99 295.619L158.005 262.185L157.05 262.662L215.035 296.097L215.99 295.619ZM526.358 116.41L468.373 82.9755L467.417 83.4532L525.402 116.888L526.358 116.41ZM503.813 129.402L445.828 95.9672L444.873 96.4449L502.858 129.879L503.813 129.402ZM508.398 126.823L450.413 93.388L449.458 93.8656L507.443 127.3L508.398 126.823ZM539.922 108.577L481.937 75.1423L480.982 75.62L538.967 109.054L539.922 108.577ZM544.412 105.998L486.427 72.5631L485.472 73.0407L543.457 106.475L544.412 105.998ZM535.433 111.252L477.448 77.8171L476.492 78.2947L534.477 111.729L535.433 111.252ZM548.902 103.418L490.917 69.9838L489.962 70.4615L547.947 103.896L548.902 103.418ZM553.392 100.839L495.407 67.4046L494.452 67.8823L552.436 101.317L553.392 100.839ZM512.888 124.243L454.903 90.8088L453.948 91.2864L511.933 124.721L512.888 124.243ZM521.868 118.989L463.883 85.5548L462.928 86.0324L520.913 119.467L521.868 118.989ZM517.378 121.664L459.393 88.2295L458.438 88.7072L516.423 122.142L517.378 121.664ZM530.847 113.831L472.862 80.3963L471.907 80.8739L529.892 114.308L530.847 113.831ZM503.909 494.029L561.894 527.463L562.849 526.986L504.864 493.551L503.909 494.029ZM499.323 496.704L557.308 530.138L558.264 529.661L500.279 496.226L499.323 496.704ZM494.834 499.283L552.819 532.717L553.774 532.24L495.789 498.805L494.834 499.283ZM508.398 491.45L566.383 524.884L567.339 524.407L509.354 490.972L508.398 491.45ZM490.344 501.862L548.329 535.297L549.284 534.819L491.299 501.384L490.344 501.862ZM535.433 475.879L593.418 509.313L594.373 508.836L536.388 475.401L535.433 475.879ZM530.943 478.458L588.928 511.892L589.883 511.415L531.898 477.98L530.943 478.458ZM526.453 481.037L584.438 514.472L585.393 513.994L527.408 480.56L526.453 481.037ZM539.922 473.204L597.907 506.638L598.863 506.161L540.878 472.726L539.922 473.204ZM512.888 488.87L570.873 522.305L571.828 521.827L513.844 488.393L512.888 488.87ZM521.868 483.616L579.853 517.051L580.808 516.573L522.823 483.139L521.868 483.616ZM517.378 486.291L575.363 519.726L576.318 519.248L518.333 485.814L517.378 486.291ZM854.78 291.416L912.765 324.85L913.72 324.373L855.735 290.938L854.78 291.416ZM859.27 288.837L917.255 322.271L918.21 321.793L860.225 288.359L859.27 288.837ZM868.345 283.678L926.33 317.113L927.285 316.635L869.3 283.2L868.345 283.678ZM863.759 286.257L921.744 319.692L922.7 319.214L864.715 285.78L863.759 286.257ZM850.29 294.091L908.275 327.525L909.23 327.047L851.245 293.613L850.29 294.091ZM823.256 309.661L881.241 343.096L882.196 342.618L824.211 309.184L823.256 309.661ZM845.8 296.67L903.785 330.104L904.741 329.627L846.756 296.192L845.8 296.67ZM827.746 307.082L885.731 340.517L886.686 340.039L828.701 306.605L827.746 307.082ZM818.766 312.241L876.751 345.675L877.706 345.198L819.721 311.763L818.766 312.241ZM832.236 304.503L890.221 337.938L891.176 337.46L833.191 304.025L832.236 304.503ZM841.311 299.249L899.296 332.684L900.251 332.206L842.266 298.771L841.311 299.249ZM836.725 301.828L894.71 335.263L895.666 334.785L837.681 301.351L836.725 301.828ZM305.403 476.93L385.168 430.885H353.262L308.269 456.869C307.314 456.582 306.167 456.678 305.403 457.06C304.448 457.633 304.448 458.493 305.403 459.066C306.359 459.639 307.887 459.639 308.842 459.066C309.606 458.588 309.797 457.92 309.224 457.346L353.836 431.65H382.112L304.543 476.452L305.403 476.93ZM330.622 480.56C329.667 481.133 329.667 481.992 330.622 482.566C331.578 483.139 333.106 483.139 334.061 482.566C334.826 482.088 335.017 481.419 334.444 480.846L374.66 457.633L373.705 457.155L333.488 480.369C332.533 480.082 331.387 480.177 330.622 480.56ZM254.583 365.258L361.287 303.643L360.331 303.166L253.628 364.781L254.583 365.258ZM251.717 340.326V320.934H250.475V340.708L259.264 345.771L313.81 314.247L156.381 223.4L155.426 223.878L311.899 314.247L259.168 344.72L251.717 340.326ZM247.896 352.171L253.341 349.019L244.552 343.956V323.226L225.925 334.021L235.382 339.466L236.337 338.988L227.835 334.021L243.311 325.041V344.338L251.526 349.114L247.896 351.216L222.772 336.696L221.817 337.173L247.896 352.171ZM317.917 482.184C318.682 481.706 318.873 481.037 318.299 480.464L373.228 448.749L372.272 448.271L317.344 479.986C316.389 479.7 315.243 479.795 314.478 480.177C313.523 480.751 313.523 481.61 314.478 482.184C315.434 482.757 316.962 482.757 317.917 482.184ZM356.415 506.352L357.37 506.83L408.859 477.121V465.848L425.099 475.21L363.77 510.651L364.726 511.128L426.914 475.21L407.617 464.033V476.834L356.415 506.352ZM231.179 301.542L195.738 321.984L217.327 334.403L252.768 313.96L231.179 301.542ZM250.953 313.96L217.327 333.352L197.553 321.984L231.179 302.592L250.953 313.96ZM436.562 511.224L435.607 510.746L411.725 524.502L412.68 524.98L436.562 511.224ZM381.92 512.179L436.466 480.655L485.472 508.931H460.635L435.32 494.316L385.455 523.069L386.41 523.547L435.32 495.271L460.157 509.6H488.624L436.466 479.509L381.061 511.51L381.92 512.179ZM468.373 505.301L437.231 487.342L388.034 515.714L388.989 516.191L437.231 488.297L467.417 505.683L468.373 505.301ZM444.3 520.968L412.967 539.118L413.922 539.595L445.255 521.445L444.3 520.968ZM440.574 548.097L493.496 517.529H474.773L431.212 542.652L432.168 543.13L475.346 518.197H490.439L439.714 547.429L440.574 548.097ZM294.227 314.533L261.652 333.352V310.808L231.274 293.326L180.167 322.844L247.227 361.533L331.196 313.005L155.712 211.746L154.757 212.224L329.285 313.005L247.132 360.482L181.887 322.844L231.179 294.377L260.219 311.19V335.263L295.946 314.629L136.32 222.445L0.38501 300.873L1.34028 301.351L136.416 223.4L294.227 314.533ZM501.712 517.338L438.568 553.829L439.523 554.307L501.807 518.388L552.054 547.429L618.541 509.027L501.329 441.393L500.374 441.871L616.726 509.027L552.054 546.378L501.712 517.338ZM457.578 522.783L442.198 513.899L414.018 530.234L402.65 523.642L437.04 503.773L454.043 513.516H493.687V512.752H454.521L436.944 502.722L400.739 523.642L413.922 531.285L442.103 514.949L455.667 522.783L420.131 543.225L421.087 543.799L457.578 522.783ZM296.997 472.058L297.952 472.535L360.713 436.331L359.758 435.853L296.997 472.058ZM609.944 143.158L583.96 128.16L583.005 128.638L608.129 143.158L604.594 145.259L596.379 140.483H563.04L578.515 131.503L587.017 136.471L587.973 135.993L578.515 130.548L559.888 141.343H595.806L604.594 146.406L609.944 143.158ZM557.69 113.067L522.25 133.509L543.839 145.928L579.28 125.485L557.69 113.067ZM577.465 125.485L543.839 144.877L524.065 133.509L557.69 114.117L577.465 125.485ZM529.223 4.45222L399.975 79.0589L418.794 89.949L548.042 15.3423L529.223 4.45222ZM546.227 15.3423L418.794 88.8982L401.79 79.0589L529.223 5.50302L546.227 15.3423ZM589.883 144.591H555.684V145.355H589.31L596.761 149.654L544.03 180.127L387.652 89.758L386.697 90.2356L544.126 181.082L598.672 149.558L589.883 144.591ZM559.123 103.992L508.016 133.509L538.394 150.991H577.465L544.89 169.81L386.888 78.7723L521.963 0.726659L521.008 0.249023L385.073 78.7723L544.699 170.956L580.426 150.322H538.776L509.736 133.509L559.028 105.042L624.273 142.68L542.12 190.157L367.591 89.3759L366.636 89.8535L542.12 191.208L626.088 142.68L559.123 103.992ZM527.886 12.1899L413.444 78.2947L420.322 82.2113L534.764 16.1065L527.886 12.1899ZM532.853 16.1065L420.227 81.1605L415.259 78.2947L527.886 13.2407L532.853 16.1065ZM678.819 254.16C679.583 253.683 679.774 253.014 679.201 252.441L728.971 223.687V196.08L646.817 243.461L647.773 243.939L727.729 197.799V223.305L678.341 251.772C677.386 251.485 676.24 251.581 675.475 251.963C674.52 252.536 674.52 253.396 675.475 253.969C676.335 254.638 677.864 254.638 678.819 254.16ZM717.221 218.72C718.176 218.146 718.176 217.287 717.221 216.714C716.266 216.14 714.737 216.14 713.782 216.714C713.018 217.191 712.827 217.86 713.4 218.433L643.665 258.746C642.71 258.459 641.563 258.554 640.799 258.937C639.844 259.51 639.844 260.369 640.799 260.943C641.754 261.516 643.283 261.516 644.238 260.943C645.002 260.465 645.193 259.796 644.62 259.223L714.355 218.911C715.215 219.197 716.361 219.197 717.221 218.72ZM645.671 130.835L696.491 101.508L695.536 101.03L644.334 130.548V149.558L523.11 219.484L413.062 155.958V132.745L352.689 97.8778L351.734 98.3554L411.725 133.032V156.245L523.014 220.535L645.48 149.845L645.671 130.835ZM525.88 208.594L632.584 146.979L631.628 146.501L524.925 208.116L525.88 208.594ZM509.449 200.569L510.405 200.092L430.83 154.143V138.381L524.065 192.259L525.02 191.781L429.589 136.662V154.525L509.449 200.569ZM603.257 54.604L550.335 85.1727H569.058L612.619 60.049L611.663 59.5714L568.485 84.504H553.392L604.117 55.0816L603.257 54.604ZM657.421 78.9634L608.415 107.239L583.578 92.9104H555.111L607.269 123.001L662.675 90.9998L661.72 90.5222L607.174 122.046L558.264 93.6746H583.101L608.415 108.29L658.281 79.5366L657.421 78.9634ZM542.024 85.3637L605.167 48.8723L604.212 48.3947L542.024 84.3129L491.777 55.2727L425.29 93.6746L542.502 161.308L543.457 160.83L427.105 93.6746L491.777 56.3235L542.024 85.3637ZM723.43 189.87C722.475 189.297 720.946 189.297 719.991 189.87C719.227 190.348 719.036 191.017 719.609 191.59L620.07 249.002L621.025 249.479L720.564 192.068C721.52 192.354 722.666 192.259 723.43 191.877C724.29 191.303 724.29 190.348 723.43 189.87ZM575.363 97.3046L606.505 115.264L655.701 86.8922L654.746 86.4145L606.505 114.308L576.318 96.9225L575.363 97.3046ZM680.061 92.0506L679.105 91.573L616.917 127.491L636.214 138.668V125.867L687.321 96.3493L686.366 95.8717L634.876 125.581V136.853L618.637 127.491L680.061 92.0506ZM607.174 91.4775L608.129 91.9551L632.011 78.1992L631.055 77.7215L607.174 91.4775ZM548.042 33.7791L522.632 48.4902L543.552 60.5267L568.963 45.8155L548.042 33.7791ZM567.148 45.8155L543.552 59.4759L524.543 48.4902L548.138 34.8299L567.148 45.8155ZM586.158 79.9187L601.537 88.8027L629.718 72.4676L641.086 79.0589L606.696 98.9286L589.883 89.0893H550.239V89.8535H589.405L606.887 99.9794L643.092 79.0589L629.909 71.4168L601.728 87.7519L588.164 79.9187L623.604 59.4759L622.649 58.9027L586.158 79.9187ZM549.475 26.1369L509.449 49.2545L542.215 68.1688L582.145 45.0513L549.475 26.1369ZM580.33 45.0513L542.12 67.118L511.169 49.2545L549.38 27.1877L580.33 45.0513ZM599.436 81.7337L630.769 63.5835L629.813 63.1059L598.481 81.2561L599.436 81.7337ZM551.004 17.0618L493.592 50.2097L540.496 77.3394L597.907 44.1915L551.004 17.0618ZM596.092 44.096L540.496 76.1931L495.407 50.1142L551.004 18.0171L596.092 44.096ZM711.489 184.903C710.725 185.381 710.534 186.049 711.107 186.623L611.568 244.034L612.523 244.512L712.062 187.1C713.018 187.387 714.164 187.291 714.928 186.909C715.883 186.336 715.883 185.476 714.928 184.903C713.973 184.425 712.444 184.425 711.489 184.903ZM400.262 260.847C401.217 261.42 402.745 261.42 403.701 260.847C404.656 260.274 404.656 259.414 403.701 258.841C402.936 258.363 401.695 258.363 400.835 258.65L331.1 218.338C331.578 217.764 331.482 217.096 330.718 216.618C329.763 216.045 328.234 216.045 327.279 216.618C326.324 217.191 326.324 218.051 327.279 218.624C328.043 219.102 329.285 219.102 330.145 218.815L399.88 259.128C399.306 259.701 399.402 260.465 400.262 260.847ZM424.335 249.002L324.795 191.59C325.273 191.017 325.177 190.348 324.413 189.87C323.458 189.297 321.929 189.297 320.974 189.87C320.019 190.444 320.019 191.303 320.974 191.877C321.738 192.354 322.98 192.354 323.84 192.068L423.379 249.479L424.335 249.002ZM703.943 420.473L621.789 373.092L620.834 373.569L700.79 419.709H656.657L607.269 391.242C607.747 390.669 607.651 390 606.887 389.522C605.932 388.949 604.403 388.949 603.448 389.522C602.493 390.095 602.493 390.955 603.448 391.528C604.212 392.006 605.454 392.006 606.314 391.719L656.083 420.473H703.943ZM271.396 160.735C271.873 160.161 271.778 159.493 271.013 159.015C270.058 158.442 268.53 158.442 267.574 159.015C266.619 159.588 266.619 160.448 267.574 161.021C268.339 161.499 269.581 161.499 270.44 161.212L309.511 183.757V192.736L274.835 172.676L273.879 173.153L310.753 194.456V183.375L271.396 160.735ZM620.07 353.317L719.609 410.729C719.131 411.302 719.227 411.971 719.991 412.449C720.946 413.022 722.475 413.022 723.43 412.449C724.385 411.876 724.385 411.016 723.43 410.443C722.666 409.965 721.424 409.965 720.564 410.252L620.929 352.744L620.07 353.317ZM252.386 177.643C252.863 177.07 252.768 176.401 252.004 175.923C251.048 175.35 249.52 175.35 248.565 175.923C247.609 176.497 247.609 177.356 248.565 177.93C249.329 178.407 250.571 178.407 251.43 178.121L296.042 203.817V220.153L218.474 175.35L217.518 175.828L297.283 221.872V203.435L252.386 177.643ZM278.942 156.34L318.395 179.076H337.596L300.722 157.773L299.767 158.251L334.444 178.312H318.873L279.802 155.767C280.28 155.194 280.184 154.525 279.42 154.048C278.465 153.475 276.936 153.475 275.981 154.048C275.026 154.621 275.026 155.481 275.981 156.054C276.841 156.531 277.987 156.627 278.942 156.34ZM210.736 192.736L250.953 215.949L251.908 215.472L211.691 192.259C212.169 191.685 212.073 191.017 211.309 190.539C210.354 189.966 208.825 189.966 207.87 190.539C206.915 191.112 206.915 191.972 207.87 192.545C208.634 192.927 209.876 193.023 210.736 192.736ZM226.02 171.052L225.065 171.529L287.826 207.734L288.781 207.256L226.02 171.052ZM315.434 196.175V223.783L365.203 252.536C364.726 253.109 364.821 253.778 365.585 254.256C366.541 254.829 368.069 254.829 369.024 254.256C369.98 253.683 369.98 252.823 369.024 252.25C368.26 251.772 367.018 251.772 366.159 252.059L316.771 223.592V198.086L396.727 244.225L397.682 243.748L315.434 196.175ZM595.328 369.557C594.373 368.984 592.844 368.984 591.889 369.557C590.934 370.13 590.934 370.99 591.889 371.563C592.653 372.041 593.895 372.041 594.755 371.754L664.49 412.067C664.012 412.64 664.108 413.308 664.872 413.786C665.827 414.359 667.356 414.359 668.311 413.786C669.266 413.213 669.266 412.353 668.311 411.78C667.547 411.302 666.305 411.302 665.445 411.589L595.71 371.277C596.188 370.703 596.092 370.035 595.328 369.557ZM449.076 232.667C450.031 233.24 451.56 233.24 452.515 232.667C453.47 232.093 453.47 231.234 452.515 230.661C451.751 230.183 450.509 230.183 449.649 230.469L379.914 190.157C380.392 189.584 380.297 188.915 379.532 188.438C378.577 187.864 377.049 187.864 376.093 188.438C375.138 189.011 375.138 189.87 376.093 190.444C376.858 190.921 378.099 190.921 378.959 190.635L448.694 230.947C448.121 231.52 448.312 232.189 449.076 232.667ZM323.362 114.977L322.407 115.455L373.705 145.068L374.66 144.591L323.362 114.977ZM325.177 126.727L372.368 153.952L373.323 153.475L326.133 126.249C326.61 125.676 326.515 125.007 325.751 124.53C324.795 123.957 323.267 123.957 322.312 124.53C321.356 125.103 321.356 125.963 322.312 126.536C323.076 126.918 324.222 127.014 325.177 126.727ZM591.889 230.756C590.934 231.329 590.934 232.189 591.889 232.762C592.844 233.335 594.373 233.335 595.328 232.762C596.092 232.284 596.283 231.616 595.71 231.043L665.445 190.73C666.4 191.017 667.547 190.921 668.311 190.539C669.266 189.966 669.266 189.106 668.311 188.533C667.356 187.96 665.827 187.96 664.872 188.533C664.108 189.011 663.917 189.679 664.49 190.253L594.755 230.565C593.8 230.183 592.653 230.278 591.889 230.756ZM606.505 210.409C605.55 210.122 604.403 210.218 603.639 210.6C602.684 211.173 602.684 212.033 603.639 212.606C604.594 213.179 606.123 213.179 607.078 212.606C607.842 212.128 608.033 211.46 607.46 210.886L656.848 182.419H700.981L621.025 228.559L621.98 229.037L704.134 181.655H656.37L606.505 210.409ZM297.857 129.593L296.901 130.07L359.663 166.275L360.618 165.798L297.857 129.593ZM308.269 145.355L353.262 171.338H385.168L305.403 125.294L304.448 125.772L382.016 170.574H353.74L309.129 144.877C309.606 144.304 309.511 143.635 308.747 143.158C307.791 142.584 306.263 142.584 305.308 143.158C304.352 143.731 304.352 144.591 305.308 145.164C306.167 145.641 307.314 145.641 308.269 145.355ZM644.143 341.377C643.187 340.803 641.659 340.803 640.704 341.377C639.748 341.95 639.748 342.809 640.704 343.383C641.468 343.86 642.71 343.86 643.569 343.574L713.304 383.886C712.827 384.459 712.922 385.128 713.686 385.606C714.642 386.179 716.17 386.179 717.125 385.606C718.081 385.032 718.081 384.173 717.125 383.6C716.361 383.122 715.119 383.122 714.259 383.408L644.525 343.096C645.002 342.523 644.907 341.854 644.143 341.377ZM239.585 248.715H266.906L346.48 294.664L347.435 294.186L267.479 248.046H236.528L331.96 303.166L332.915 302.688L239.585 248.715ZM728.971 406.048V378.441L679.201 349.687C679.679 349.114 679.583 348.446 678.819 347.968C677.864 347.395 676.335 347.395 675.38 347.968C674.425 348.541 674.425 349.401 675.38 349.974C676.144 350.452 677.386 350.452 678.246 350.165L727.633 378.632V404.138L647.677 357.998L646.722 358.476L728.971 406.048ZM467.704 220.057C467.226 220.63 467.322 221.299 468.086 221.777C469.041 222.35 470.57 222.35 471.525 221.777C472.48 221.203 472.48 220.344 471.525 219.77C470.761 219.293 469.519 219.293 468.659 219.579L394.626 176.783H348.868L282.572 138.572L281.617 139.05L348.199 177.547H393.957L467.704 220.057ZM340.366 181.751L422.52 229.132L423.475 228.654L343.519 182.515H387.652L437.04 210.982C436.562 211.555 436.658 212.224 437.422 212.701C438.377 213.275 439.905 213.275 440.861 212.701C441.816 212.128 441.816 211.269 440.861 210.695C440.097 210.218 438.855 210.218 437.995 210.504L388.13 181.751H340.366ZM908.275 364.016L1022.72 297.912L1015.84 293.995L901.397 360.1L908.275 364.016ZM903.212 360.004L1015.84 294.95L1020.81 297.816L908.18 362.87L903.212 360.004ZM826.408 236.106L877.897 206.397L876.942 205.919L825.835 235.437H803.768L823.065 246.614L885.253 210.695L884.298 210.218L822.969 245.658L806.73 236.297H826.408V236.106ZM688.563 335.454C689.04 334.881 688.945 334.212 688.181 333.734C687.225 333.161 685.697 333.161 684.742 333.734C683.786 334.308 683.786 335.167 684.742 335.74C685.506 336.218 686.748 336.218 687.607 335.931L768.232 382.453H801.667L852.01 411.589L852.965 411.111L802.24 381.784H768.805L688.563 335.454ZM663.63 300.586L784.854 230.661H817.811L869.013 201.143L868.058 200.665L817.142 229.896H784.185L661.72 300.586L773.009 364.876H813.226L873.217 399.553L874.172 399.075L813.799 364.207H773.582L663.63 300.586ZM790.108 238.016L789.153 237.538L682.449 299.058L683.404 299.536L790.108 238.016ZM882.96 282.15V265.719L858.123 251.39L907.033 223.114L906.078 222.636L856.308 251.39L881.623 266.006V280.335L832.618 252.059L887.164 220.535L886.208 220.057L830.803 252.059L882.96 282.15ZM764.411 289.41L881.623 357.043L948.11 318.641L897.863 289.696L960.146 253.778L959.191 253.3L896.048 289.696L946.295 318.737L881.623 356.088L765.271 288.932L764.411 289.41ZM903.212 257.122L934.545 238.971L933.59 238.494L902.257 256.644L903.212 257.122ZM746.452 472.631L747.407 472.153L684.646 435.853L683.691 436.331L746.452 472.631ZM940.85 242.601L905.409 263.14L891.844 255.307L920.025 238.971L906.842 231.329L870.637 252.25L888.119 262.376V285.016H889.361V262.089L872.548 252.345L906.938 232.476L918.306 239.067L890.029 255.307L905.409 264.191L941.71 243.079L940.85 242.601ZM876.083 269.922L845.896 252.536L894.137 224.642L893.182 224.165L843.985 252.536L875.127 270.495L876.083 269.922ZM940.85 249.479L939.895 249.002L896.334 274.125V284.92L949.256 254.351L948.301 253.874L897.576 283.105V274.412L940.85 249.479ZM381.156 139.719V159.015L461.781 205.537C461.304 206.11 461.399 206.779 462.163 207.256C463.119 207.83 464.647 207.83 465.602 207.256C466.558 206.683 466.558 205.823 465.602 205.25C464.838 204.773 463.596 204.773 462.736 205.059L382.494 158.729V139.432L331.673 110.105L330.718 110.583L381.156 139.719ZM765.367 445.883L725.914 423.148H706.713L743.586 444.45L744.542 443.973L709.865 423.912H725.436L764.507 446.456C764.029 447.03 764.125 447.698 764.889 448.176C765.844 448.749 767.373 448.749 768.328 448.176C769.283 447.603 769.283 446.743 768.328 446.17C767.468 445.692 766.322 445.597 765.367 445.883ZM332.342 187.1L431.881 244.512L432.836 244.034L333.297 186.623C333.775 186.049 333.679 185.381 332.915 184.903C331.96 184.33 330.431 184.33 329.476 184.903C328.521 185.476 328.521 186.336 329.476 186.909C330.24 187.387 331.387 187.482 332.342 187.1ZM712.062 415.123L612.523 357.712L611.568 358.189L711.107 415.601C710.629 416.174 710.725 416.843 711.489 417.321C712.444 417.894 713.973 417.894 714.928 417.321C715.883 416.747 715.883 415.888 714.928 415.315C714.164 414.837 712.922 414.741 712.062 415.123ZM736.04 456.869L691.046 430.885H659.14L738.905 476.93L739.861 476.452L662.293 431.65H690.569L735.18 457.442C734.702 458.015 734.798 458.684 735.562 459.161C736.517 459.735 738.046 459.735 739.001 459.161C739.956 458.588 739.956 457.729 739.001 457.155C738.237 456.678 736.995 456.582 736.04 456.869ZM576.7 382.167C577.178 381.593 577.083 380.925 576.318 380.447C575.363 379.874 573.835 379.874 572.879 380.447C571.924 381.02 571.924 381.88 572.879 382.453C573.643 382.931 574.885 382.931 575.745 382.644L649.779 425.44H695.536L761.832 463.651L762.787 463.174L696.205 424.676H650.447L576.7 382.167ZM772.913 441.585C772.436 442.158 772.531 442.826 773.295 443.304C774.25 443.877 775.779 443.877 776.734 443.304C777.69 442.731 777.69 441.871 776.734 441.298C775.97 440.82 774.728 440.82 773.868 441.107L734.798 418.562V409.583L769.474 429.644L770.429 429.166L733.556 407.863V418.945L772.913 441.585ZM832.904 418.849L778.072 387.134L777.116 387.612L832.044 419.327C831.567 419.9 831.662 420.569 832.427 421.046C833.382 421.619 834.91 421.619 835.866 421.046C836.821 420.473 836.821 419.613 835.866 419.04C835.101 418.562 833.86 418.467 832.904 418.849ZM659.714 330.391C658.758 330.964 658.758 331.824 659.714 332.397C660.478 332.875 661.72 332.875 662.579 332.588L736.231 375.098V401.559L802.813 440.056L803.768 439.578L737.473 401.368V374.907L663.439 332.11C663.917 331.537 663.821 330.869 663.057 330.391C662.197 329.818 660.669 329.818 659.714 330.391ZM791.923 424.581C791.445 425.154 791.541 425.823 792.305 426.3C793.26 426.873 794.789 426.873 795.744 426.3C796.699 425.727 796.699 424.867 795.744 424.294C794.98 423.816 793.738 423.816 792.878 424.103L748.267 398.406V382.071L825.835 426.873L826.79 426.396L747.025 380.352V398.788L791.923 424.581ZM833.573 409.487L793.356 386.274L792.401 386.752L832.618 409.965C832.14 410.538 832.235 411.207 833 411.685C833.955 412.258 835.483 412.258 836.439 411.685C837.394 411.111 837.394 410.252 836.439 409.678C835.675 409.296 834.528 409.201 833.573 409.487ZM818.289 431.172L819.244 430.694L756.482 394.49L755.527 394.967L818.289 431.172ZM884.393 251.581L885.349 252.059L909.23 238.303L908.275 237.825L884.393 251.581ZM743.682 157.773L706.808 179.076H726.009L765.462 156.34C766.417 156.627 767.564 156.531 768.328 156.149C769.283 155.576 769.283 154.716 768.328 154.143C767.373 153.57 765.844 153.57 764.889 154.143C764.125 154.621 763.934 155.29 764.507 155.863L725.436 178.312H709.865L744.542 158.251L743.682 157.773ZM804.246 353.891H776.925L697.351 307.942L696.396 308.42L776.352 354.559H807.303L711.871 299.44L710.916 299.918L804.246 353.891ZM756.482 207.83L819.244 171.625L818.289 171.147L755.527 207.352L756.482 207.83ZM736.326 227.126L662.579 269.636C661.624 269.349 660.478 269.445 659.714 269.827C658.758 270.4 658.758 271.26 659.714 271.833C660.669 272.406 662.197 272.406 663.152 271.833C663.917 271.355 664.108 270.686 663.535 270.113L737.568 227.317V200.856L803.864 162.645L802.909 162.168L736.326 200.665V227.126ZM649.779 176.783L575.745 219.579C574.79 219.293 573.643 219.388 572.879 219.77C571.924 220.344 571.924 221.203 572.879 221.777C573.835 222.35 575.363 222.35 576.318 221.777C577.083 221.299 577.274 220.63 576.7 220.057L650.352 177.547H696.109L762.692 139.05L761.736 138.572L695.441 176.783H649.779ZM713.782 121.664C714.737 121.091 714.737 120.231 713.782 119.658C712.827 119.085 711.298 119.085 710.343 119.658C709.579 120.136 709.388 120.804 709.961 121.377L669.744 144.591L670.699 145.068L710.916 121.855C711.776 122.142 712.922 122.046 713.782 121.664ZM661.911 139.432V158.729L581.668 205.059C580.713 204.773 579.566 204.868 578.802 205.25C577.847 205.823 577.847 206.683 578.802 207.256C579.757 207.83 581.286 207.83 582.241 207.256C583.005 206.779 583.196 206.11 582.623 205.537L663.248 159.015V139.719L713.591 110.583L712.635 110.105L661.911 139.432ZM748.267 203.913L792.878 178.121C793.834 178.407 794.98 178.312 795.744 177.93C796.699 177.356 796.699 176.497 795.744 175.923C794.789 175.35 793.26 175.35 792.305 175.923C791.541 176.401 791.35 177.07 791.923 177.643L746.93 203.626V222.063L826.695 176.019L825.74 175.541L748.172 220.344L748.267 203.913ZM672.036 153.952L726.965 122.237C727.92 122.524 729.066 122.428 729.83 122.046C730.786 121.473 730.786 120.613 729.83 120.04C728.875 119.467 727.347 119.467 726.391 120.04C725.627 120.518 725.436 121.186 726.009 121.76L671.081 153.475L672.036 153.952ZM691.142 171.338L736.135 145.355C737.09 145.641 738.237 145.546 739.001 145.164C739.956 144.591 739.956 143.731 739.001 143.158C738.046 142.584 736.517 142.584 735.562 143.158C734.798 143.635 734.607 144.304 735.18 144.877L690.569 170.669H662.293L739.861 125.867L738.905 125.39L659.14 171.434L691.142 171.338ZM684.646 166.371L747.407 130.166L746.452 129.688L683.691 165.893L684.646 166.371ZM770.429 173.249L769.474 172.771L734.798 192.832V183.852L773.868 161.308C774.824 161.594 775.97 161.499 776.734 161.117C777.69 160.544 777.69 159.684 776.734 159.111C775.779 158.538 774.25 158.538 773.295 159.111C772.531 159.588 772.34 160.257 772.913 160.83L733.46 183.566V194.647L770.429 173.249ZM749.604 288.168L782.179 269.349V291.893L812.557 309.375L863.664 279.857L796.604 241.169L712.635 289.696L888.119 390.955L889.074 390.477L714.451 289.696L796.604 242.219L861.849 279.857L812.557 308.324L783.517 291.511V267.439L747.79 288.072L907.415 380.256L1043.35 301.733L1042.4 301.255L907.32 379.205L749.604 288.168ZM812.557 301.16L847.997 280.717L826.408 268.298L790.968 288.741L812.557 301.16ZM792.878 288.646L826.504 269.254L846.278 280.621L812.652 300.013L792.878 288.646ZM795.84 250.53L790.395 253.683L799.183 258.746V279.475L817.811 268.68L808.354 263.235L807.398 263.713L815.9 268.68L800.425 277.66V258.363L792.21 253.587L795.744 251.485L820.868 266.006L821.823 265.528L795.84 250.53ZM792.114 262.376V281.768H793.356V261.993L784.568 256.931L730.021 288.454L887.45 379.301L888.405 378.823L731.932 288.454L784.663 257.981L792.114 262.376ZM906.842 371.659L1036.09 297.052L1017.27 286.162L888.023 360.769L906.842 371.659ZM889.838 360.864L1017.27 287.308L1034.28 297.147L906.842 370.703L889.838 360.864ZM828.128 187.673C829.083 187.1 829.083 186.24 828.128 185.667C827.173 185.094 825.644 185.094 824.689 185.667C823.925 186.145 823.734 186.814 824.307 187.387L777.116 214.612L778.072 215.09L825.262 187.864C826.122 188.151 827.364 188.151 828.128 187.673ZM793.356 215.949L844.654 186.336L843.699 185.858L792.401 215.472L793.356 215.949ZM768.328 219.675L687.703 266.197C686.748 265.91 685.601 266.006 684.837 266.388C683.882 266.961 683.882 267.821 684.837 268.394C685.792 268.967 687.321 268.967 688.276 268.394C689.04 267.916 689.231 267.247 688.658 266.674L768.901 220.344H802.336L853.06 191.017L852.105 190.539L801.762 219.675H768.328ZM959.86 300.873L985.27 286.162L964.35 274.125L938.939 288.837L959.86 300.873ZM940.85 288.837L964.445 275.176L983.455 286.162L959.86 299.822L940.85 288.837ZM956.898 317.686L1014.31 284.538L967.406 257.408L909.995 290.556L956.898 317.686ZM911.81 290.556L967.406 258.459L1012.5 284.538L956.898 316.635L911.81 290.556ZM958.522 308.515L998.548 285.398L965.782 266.483L925.757 289.601L958.522 308.515ZM927.667 289.601L965.878 267.534L996.829 285.398L958.618 307.464L927.667 289.601ZM534.286 402.036L533.331 402.514L612.905 448.462V464.224L519.671 410.347L518.715 410.825L614.147 465.944V448.08L534.286 402.036ZM356.128 333.83C355.364 334.308 355.173 334.976 355.746 335.549L275.503 381.88H242.069L191.344 411.207L192.299 411.685L242.642 382.549H276.076L356.701 336.027C357.657 336.314 358.803 336.218 359.567 335.836C360.522 335.263 360.522 334.403 359.567 333.83C358.612 333.257 357.083 333.257 356.128 333.83ZM138.326 339.466L151.891 347.299L123.711 363.634L136.893 371.277L173.098 350.356L155.617 340.23V317.59H154.375V340.517L171.379 350.261L136.989 370.13L125.621 363.539L153.802 347.204L138.422 338.32L102.121 359.336L103.077 359.813L138.326 339.466ZM218.569 426.778L296.137 381.976V398.311L251.526 424.103C250.571 423.816 249.424 423.912 248.66 424.294C247.705 424.867 247.705 425.727 248.66 426.3C249.615 426.873 251.144 426.873 252.099 426.3C252.863 425.823 253.054 425.154 252.481 424.581L297.474 398.597V380.161L217.614 426.3L218.569 426.778ZM102.981 353.222L103.936 353.7L147.497 328.576V317.781L94.5748 348.35L95.5301 348.828L146.255 319.596V328.289L102.981 353.222ZM226.02 431.172L288.781 394.967L287.826 394.49L225.065 430.694L226.02 431.172ZM216.276 414.55C215.321 415.123 215.321 415.983 216.276 416.556C217.232 417.13 218.76 417.13 219.715 416.556C220.48 416.079 220.671 415.41 220.097 414.837L267.288 387.612L266.333 387.134L219.142 414.359C218.187 414.073 217.041 414.073 216.276 414.55ZM159.342 351.12L158.387 350.643L134.505 364.399L135.46 364.876L159.342 351.12ZM160.871 320.552V336.982L185.708 351.311L136.798 379.587L137.753 380.065L187.618 351.311L162.304 336.696V322.367L211.309 350.643L156.763 382.167L157.718 382.644L213.124 350.643L160.871 320.552ZM97.4406 283.965L162.112 246.614L278.465 313.769L279.42 313.292L162.208 245.658L95.6256 283.965L145.873 313.005L83.6847 348.923L84.64 349.401L147.783 312.909L97.4406 283.965ZM239.967 367.36L220.671 356.183L158.482 392.101L159.438 392.579L220.766 357.234L237.006 366.596H217.423L165.934 396.305L166.889 396.782L217.996 367.264H239.967V367.36ZM140.619 345.58L109.286 363.73L110.241 364.207L141.574 346.057L140.619 345.58ZM167.653 332.779L197.84 350.165L149.598 378.059L150.554 378.537L199.75 350.165L168.608 332.206L167.653 332.779ZM437.899 391.815C438.855 392.101 440.001 392.006 440.765 391.624C441.72 391.051 441.72 390.191 440.765 389.618C439.81 389.045 438.282 389.045 437.326 389.618C436.562 390.095 436.371 390.764 436.944 391.337L387.557 419.804H343.423L423.379 373.665L422.424 373.187L340.271 420.569H388.034L437.899 391.815ZM279.515 448.08C280.28 447.603 280.471 446.934 279.897 446.361L318.968 423.816H334.539L299.863 443.877L300.818 444.355L337.691 423.052H318.49L279.038 445.788C278.082 445.501 276.936 445.597 276.172 445.979C275.217 446.552 275.217 447.412 276.172 447.985C277.032 448.654 278.56 448.654 279.515 448.08ZM200.61 416.461L251.908 386.847L250.953 386.37L199.655 415.983L200.61 416.461ZM471.525 382.549C472.48 381.976 472.48 381.116 471.525 380.543C470.57 379.97 469.041 379.97 468.086 380.543C467.322 381.02 467.131 381.689 467.704 382.262L394.052 424.772H348.295L281.712 463.269L282.668 463.747L348.964 425.536H394.721L468.755 382.74C469.519 383.026 470.665 382.931 471.525 382.549ZM270.44 441.011C269.485 440.725 268.339 440.82 267.574 441.202C266.619 441.776 266.619 442.635 267.574 443.208C268.53 443.782 270.058 443.782 271.013 443.208C271.778 442.731 271.969 442.062 271.396 441.489L310.848 418.754V407.672L273.975 428.975L274.93 429.453L309.606 409.392V418.371L270.44 441.011ZM449.076 369.557C448.312 370.035 448.121 370.703 448.694 371.277L378.959 411.589C378.004 411.302 376.858 411.398 376.093 411.78C375.138 412.353 375.138 413.213 376.093 413.786C377.049 414.359 378.577 414.359 379.532 413.786C380.297 413.308 380.488 412.64 379.914 412.067L449.649 371.754C450.605 372.041 451.751 371.945 452.515 371.563C453.47 370.99 453.47 370.13 452.515 369.557C451.56 368.984 450.031 368.984 449.076 369.557ZM327.183 383.504C326.228 384.077 326.228 384.937 327.183 385.51C328.139 386.083 329.667 386.083 330.622 385.51C331.387 385.032 331.578 384.364 331.005 383.791L400.739 343.478C401.695 343.765 402.841 343.669 403.605 343.287C404.56 342.714 404.56 341.854 403.605 341.281C402.65 340.708 401.121 340.708 400.166 341.281C399.402 341.759 399.211 342.427 399.784 343L330.049 383.313C329.094 383.026 327.948 383.122 327.183 383.504ZM381.252 330.391C380.488 330.869 380.297 331.537 380.87 332.11L306.836 374.907V401.368L240.54 439.578L241.496 440.056L308.078 401.559V375.098L381.729 332.588C382.685 332.875 383.831 332.779 384.595 332.397C385.551 331.824 385.551 330.964 384.595 330.391C383.64 329.818 382.112 329.818 381.252 330.391ZM365.49 348.159C364.726 348.637 364.535 349.305 365.108 349.878L315.434 378.537V406.144L397.587 358.762L396.632 358.285L316.675 404.329V378.823L366.063 350.356C367.018 350.643 368.165 350.547 368.929 350.165C369.884 349.592 369.884 348.732 368.929 348.159C367.974 347.586 366.445 347.586 365.49 348.159ZM431.881 357.616L332.342 415.028C331.387 414.741 330.24 414.837 329.476 415.219C328.521 415.792 328.521 416.652 329.476 417.225C330.431 417.798 331.96 417.798 332.915 417.225C333.679 416.747 333.87 416.079 333.297 415.506L432.836 358.094L431.881 357.616ZM423.379 352.744L323.84 410.156C322.885 409.869 321.738 409.965 320.974 410.347C320.019 410.92 320.019 411.78 320.974 412.353C321.929 412.926 323.458 412.926 324.413 412.353C325.177 411.876 325.368 411.207 324.795 410.634L424.335 353.222L423.379 352.744ZM356.701 266.292L276.076 219.77H242.642L192.299 190.635L191.344 191.112L242.069 220.439H275.503L355.746 266.77C355.268 267.343 355.364 268.012 356.128 268.489C357.083 269.062 358.612 269.062 359.567 268.489C360.522 267.916 360.522 267.056 359.567 266.483C358.803 266.006 357.657 265.91 356.701 266.292ZM170.519 203.149L169.564 203.626L229.937 238.494H270.154L380.201 302.019L258.977 371.945H226.02L174.818 401.463L175.773 401.941L226.593 372.614H259.55L382.016 301.924L270.727 237.825H230.51L170.519 203.149ZM398.16 471.867L347.34 501.193L348.295 501.671L399.497 472.153V453.143L520.721 383.217L630.769 446.743V469.956L691.142 504.823L692.097 504.346L632.106 469.669V446.456L520.817 382.167L398.351 452.857L398.16 471.867ZM382.398 443.495L462.641 397.164C463.596 397.451 464.743 397.355 465.507 396.973C466.462 396.4 466.462 395.54 465.507 394.967C464.551 394.394 463.023 394.394 462.068 394.967C461.304 395.445 461.113 396.114 461.686 396.687L381.061 443.208V462.505L330.718 491.641L331.673 492.118L382.398 462.792V443.495ZM484.708 498.614L535.815 469.096L505.437 451.615H466.366L498.941 432.796L656.752 523.929L521.677 601.879L522.632 602.357L658.567 523.833L499.037 431.745L463.31 452.379H504.959L534 469.192L484.708 497.563L419.463 459.926L501.616 412.449L676.144 513.23L677.099 512.752L501.712 411.493L417.743 460.021L484.708 498.614ZM517.951 394.107L411.247 455.723L412.203 456.2L518.906 394.585L517.951 394.107ZM578.706 394.967C577.751 395.54 577.751 396.4 578.706 396.973C579.471 397.451 580.713 397.451 581.572 397.164L661.815 443.495V462.792L712.54 492.118L713.495 491.641L663.152 462.6V443.304L582.528 396.687C583.005 396.114 582.91 395.445 582.145 394.967C581.19 394.49 579.662 394.49 578.706 394.967ZM721.042 487.342L721.997 486.864L670.699 457.251L669.744 457.729L721.042 487.342ZM208.539 181.177C207.583 181.751 207.583 182.61 208.539 183.184C209.303 183.661 210.545 183.661 211.404 183.375L266.333 215.09L267.288 214.612L212.36 182.897C212.837 182.324 212.742 181.655 211.978 181.177C211.022 180.7 209.494 180.7 208.539 181.177ZM384.595 271.833C385.551 271.26 385.551 270.4 384.595 269.827C383.831 269.349 382.589 269.349 381.729 269.636L308.078 227.126V200.665L241.496 162.168L240.54 162.645L306.836 200.856V227.317L380.87 270.113C380.392 270.686 380.488 271.355 381.252 271.833C382.112 272.406 383.64 272.406 384.595 271.833ZM486.045 489.635L521.486 469.192L499.897 456.773L464.456 477.216L486.045 489.635ZM466.271 477.216L499.897 457.824L519.671 469.192L486.045 488.584L466.271 477.216ZM719.227 475.592L672.036 448.271L671.081 448.749L718.272 475.974C717.794 476.547 717.89 477.216 718.654 477.694C719.609 478.267 721.137 478.267 722.093 477.694C723.048 477.121 723.048 476.261 722.093 475.688C721.328 475.306 720.087 475.21 719.227 475.592ZM85.2131 294.186L45.2828 317.208L78.0486 336.123L118.074 313.005L85.2131 294.186ZM116.164 313.1L77.9531 335.167L47.0023 317.304L85.2131 295.237L116.164 313.1ZM500.279 542.175L474.868 556.886L495.789 568.922L521.199 554.211L500.279 542.175ZM519.289 554.211L495.693 567.871L476.683 556.886L500.279 543.225L519.289 554.211ZM86.8371 285.016L29.4253 318.163L76.3291 345.293L133.741 312.145L86.8371 285.016ZM131.926 312.145L76.3291 344.242L31.2403 318.163L86.8371 286.066L131.926 312.145ZM135.556 238.685L21.0189 304.79L27.8968 308.706L142.338 242.601L135.556 238.685ZM140.523 242.697L27.8968 307.655L22.9294 304.79L135.556 239.736L140.523 242.697ZM136.893 230.947L7.64507 305.554L26.4639 316.444L155.712 241.837L136.893 230.947ZM153.897 241.837L26.4639 315.393L9.46009 305.554L136.893 231.998L153.897 241.837ZM83.8757 301.828L58.4655 316.444L79.386 328.48L104.796 313.769L83.8757 301.828ZM102.981 313.865L79.386 327.525L60.2805 316.444L83.8757 302.784L102.981 313.865ZM433.887 459.544L459.871 474.541L460.826 474.064L435.702 459.544L439.332 457.442L447.548 462.218H480.887L465.411 471.198L456.909 466.23L455.954 466.708L465.411 472.153L484.039 461.359H448.121L439.332 456.296L433.887 459.544ZM453.852 458.111H488.051V457.346H454.426L446.974 453.048L499.705 422.575L656.179 512.943L657.134 512.466L499.61 421.524L445.064 453.048L453.852 458.111ZM624.942 512.752L495.693 587.359L514.512 598.249L643.76 523.642L624.942 512.752ZM641.945 523.642L514.512 597.198L497.508 587.359L624.942 513.803L641.945 523.642ZM503.24 525.457L445.828 558.605L492.732 585.735L550.144 552.587L503.24 525.457ZM548.329 552.492L492.732 584.589L447.643 558.51L503.24 526.413L548.329 552.492ZM501.616 534.532L461.59 557.65L494.356 576.564L534.382 553.447L501.616 534.532ZM532.471 553.447L494.26 575.514L463.31 557.65L501.52 535.583L532.471 553.447ZM623.509 520.49L509.067 586.595L515.945 590.511L630.387 524.407L623.509 520.49ZM628.572 524.407L515.945 589.461L510.978 586.595L623.604 521.541L628.572 524.407Z" fill="url(#paint0_radial)"/>
<path d="M623.509 347.108L623.318 365.45L662.197 280.43L662.293 262.089L623.509 347.108Z" fill="url(#paint1_linear)"/>
<path d="M476.874 369.939L476.683 388.185L623.318 365.45L623.509 347.108L476.874 369.939Z" fill="url(#paint2_linear)"/>
<path d="M369.12 307.656L368.929 325.997L476.683 388.185L476.875 369.94L369.12 307.656Z" fill="url(#paint3_linear)"/>
<path d="M623.509 347.108L662.293 262.089L554.538 199.901L407.904 222.636L369.12 307.656L476.874 369.939L623.509 347.108Z" fill="url(#paint4_linear)"/>
<path d="M373.896 306.127L410.483 226.075L553.774 203.818L657.516 263.618L620.929 343.765L477.639 366.023L373.896 306.127Z" fill="url(#paint5_linear)"/>
<path d="M410.483 240.213L553.774 217.956L652.453 274.794L657.516 263.618L553.774 203.818L410.483 226.075L373.896 306.127L379.055 309.089L410.483 240.213Z" fill="url(#paint6_linear)"/>
<g style="mix-blend-mode:color-dodge">
<path d="M485.494 371.786C487.862 367.449 465.057 350.498 434.533 333.896C404.009 317.295 377.389 307.395 375.02 311.732C372.652 316.068 395.457 333.02 425.981 349.621C456.505 366.223 483.126 376.122 485.494 371.786Z" fill="url(#paint7_radial)"/>
</g>
<path d="M630.195 275.176L605.836 328.481L605.55 328.958L579.184 333.066L557.308 336.505L486.427 347.491L479.836 348.541L469.71 342.619L433.219 321.603L397.969 301.255L422.519 247.378L433.219 245.754L469.71 240.118L486.427 237.443L548.233 227.891L557.308 233.049L579.184 245.754L605.836 261.134L630.195 275.176Z" fill="url(#paint8_linear)"/>
<path d="M486.427 237.443V347.49L557.308 336.505V233.049L548.329 227.89L486.427 237.443ZM433.219 321.603L469.614 342.618V240.118L433.219 245.754V321.603ZM579.184 245.754V333.066L605.549 328.958L605.741 328.48V261.038L579.184 245.754Z" fill="url(#paint9_linear)"/>
<path d="M580.319 266.215C583.077 264.606 585.491 263.802 587.56 263.802C589.628 263.802 591.582 264.376 593.651 265.526L608.938 274.376L602.616 278.054L588.134 269.663C586.985 268.974 586.065 268.629 585.261 268.629C584.456 268.629 583.307 269.089 581.813 269.893C579.974 270.928 579.054 271.732 578.94 272.192C578.825 272.652 579.399 273.341 580.549 274.031L595.03 282.421L588.709 286.099L567.791 273.916L573.997 270.353L576.526 271.847C575.147 270.468 576.296 268.514 580.319 266.215Z" fill="white"/>
<path d="M543.999 298.627L563.653 300.926L556.412 305.063L537.103 302.65L534.919 293.34L542.16 289.087L543.999 298.627Z" fill="white"/>
<path d="M462.165 254.492C468.142 251.044 474.348 247.941 480.785 245.297L488.37 249.78C481.934 252.078 475.613 255.067 469.406 258.63C462.05 262.882 460.556 266.215 464.694 268.629L481.589 278.399C483.773 279.663 486.302 279.893 489.175 279.203C492.048 278.514 495.382 277.019 499.174 274.836C501.358 273.571 503.312 272.077 505.036 270.353L495.267 264.721L488.37 268.744L481.819 264.951L498.37 255.412L520.208 268.054C518.828 269.778 516.645 271.732 513.886 274.031C511.013 276.33 508.254 278.169 505.381 279.893C503.082 281.272 500.783 282.421 498.715 283.341C496.646 284.26 494.347 285.18 491.933 285.984C489.52 286.789 487.221 287.249 485.037 287.478C482.854 287.708 480.67 287.593 478.486 287.249C476.187 286.789 474.118 286.099 472.165 284.95L454.694 274.836C452.511 273.571 451.016 272.192 450.212 270.698C449.407 269.204 449.292 267.71 449.752 266.445C450.212 265.066 451.131 263.687 452.396 262.193C453.775 260.699 455.154 259.434 456.763 258.17C458.372 256.791 460.211 255.641 462.165 254.492Z" fill="white"/>
<path d="M575.032 284.145L561.354 291.961L563.308 293.11C564.458 293.8 565.722 294.029 567.101 293.915C568.48 293.685 570.319 292.995 572.618 291.616C574.687 290.466 576.756 288.857 578.709 287.018L582.732 289.317C580.663 291.156 578.135 292.88 575.261 294.604C567.791 298.857 561.814 299.776 557.332 297.133L549.861 292.765C547.217 291.156 546.183 289.547 546.757 287.938C547.332 286.214 549.401 284.49 552.849 282.421C556.067 280.582 559.056 279.433 561.699 279.203C564.343 278.973 567.101 279.548 569.859 281.157L575.032 284.145ZM554.803 288.168L557.791 289.892L565.377 285.524L562.389 283.8C561.699 283.455 560.895 283.226 560.09 283.34C559.17 283.455 558.021 283.915 556.642 284.72C555.148 285.639 554.228 286.329 554.113 286.789C553.883 287.363 554.113 287.823 554.803 288.168Z" fill="white"/>
<path d="M542.275 313.224L512.047 295.753L518.368 292.076L548.596 309.546L542.275 313.224Z" fill="white"/>
<path d="M519.633 306.558C521.127 306.903 522.506 307.477 524 308.282L530.207 311.845C531.586 312.649 532.505 313.454 533.08 314.258C533.655 315.063 533.77 315.868 533.655 316.442C533.54 317.132 533.08 317.821 532.39 318.626C531.701 319.431 530.896 320.005 530.092 320.58C529.287 321.155 528.368 321.729 527.103 322.419C525.839 323.108 524.805 323.683 523.885 324.143C522.966 324.603 521.816 325.062 520.552 325.407C519.288 325.867 518.024 326.097 516.874 326.097C515.725 326.212 514.461 325.982 513.081 325.752C511.702 325.407 510.323 324.947 508.944 324.143L502.737 320.58C501.358 319.775 500.324 318.856 499.749 318.051C499.174 317.247 498.944 316.442 499.059 315.753C499.174 315.063 499.634 314.373 500.324 313.569C501.013 312.764 501.818 312.19 502.622 311.615C503.427 311.155 504.346 310.466 505.496 309.776C506.645 309.086 507.679 308.512 508.599 308.052C509.518 307.592 510.668 307.132 511.932 306.788C513.311 306.328 514.576 306.098 515.725 306.098C516.874 306.098 518.139 306.328 519.633 306.558ZM524.575 315.982L516.644 311.385C515.495 310.695 514.461 310.466 513.426 310.466C512.392 310.581 511.013 311.04 509.289 312.075C507.564 313.109 506.645 313.914 506.53 314.488C506.415 315.063 506.99 315.753 508.024 316.327L515.955 320.925C517.104 321.614 518.139 321.844 519.058 321.729C519.977 321.614 521.472 321.155 523.196 320.12C524.92 319.086 525.954 318.281 526.069 317.706C526.069 317.247 525.609 316.672 524.575 315.982Z" fill="white"/>
<path d="M489.29 311.385L494.117 314.144L485.382 319.201L508.599 332.648L501.818 336.556L478.716 323.109L469.981 328.051L465.154 325.292L489.29 311.385Z" fill="white"/>
<defs>
<radialGradient id="paint0_radial" cx="0" cy="0" r="1" gradientUnits="userSpaceOnUse" gradientTransform="translate(521.5 230) rotate(-90) scale(195.5)">
<stop stop-color="#FFAC22"/>
<stop offset="1" stop-color="white"/>
</radialGradient>
<linearGradient id="paint1_linear" x1="680.285" y1="245.363" x2="627.275" y2="369.234" gradientUnits="userSpaceOnUse">
<stop stop-color="#FFCE7D"/>
<stop offset="1" stop-color="#FFAC22"/>
</linearGradient>
<linearGradient id="paint2_linear" x1="721.975" y1="416.849" x2="537.493" y2="384.565" gradientUnits="userSpaceOnUse">
<stop stop-color="#FFE1B0"/>
<stop offset="1" stop-color="#FFAC22"/>
</linearGradient>
<linearGradient id="paint3_linear" x1="530.46" y1="512.688" x2="433.206" y2="381.008" gradientUnits="userSpaceOnUse">
<stop stop-color="#FFE1B0"/>
<stop offset="1" stop-color="#FFAC22"/>
</linearGradient>
<linearGradient id="paint4_linear" x1="415.624" y1="223.97" x2="618.199" y2="347.276" gradientUnits="userSpaceOnUse">
<stop stop-color="#FFBF56"/>
<stop offset="1" stop-color="#FFE1B0"/>
</linearGradient>
<linearGradient id="paint5_linear" x1="418.803" y1="225.905" x2="614.943" y2="345.295" gradientUnits="userSpaceOnUse">
<stop stop-color="#FFAC22"/>
<stop offset="1" stop-color="#FFE1B0"/>
</linearGradient>
<linearGradient id="paint6_linear" x1="418.58" y1="225.769" x2="607.45" y2="340.734" gradientUnits="userSpaceOnUse">
<stop stop-color="#E79000"/>
<stop offset="1" stop-color="#FF9F00"/>
</linearGradient>
<radialGradient id="paint7_radial" cx="0" cy="0" r="1" gradientUnits="userSpaceOnUse" gradientTransform="translate(430.242 341.746) rotate(28.5407) scale(62.869 8.95441)">
<stop offset="0.00031472" stop-color="white"/>
<stop offset="0.29" stop-color="#A6A6A6" stop-opacity="0.7103"/>
<stop offset="0.5445" stop-color="#5F5F5F" stop-opacity="0.4557"/>
<stop offset="0.7546" stop-color="#2B2B2B" stop-opacity="0.2455"/>
<stop offset="0.9125" stop-color="#0C0C0C" stop-opacity="0.0875766"/>
<stop offset="1" stop-opacity="0"/>
</radialGradient>
<linearGradient id="paint8_linear" x1="434.098" y1="239.539" x2="595.924" y2="338.042" gradientUnits="userSpaceOnUse">
<stop stop-color="#FFCE7D"/>
<stop offset="1" stop-color="#FFAC22"/>
</linearGradient>
<linearGradient id="paint9_linear" x1="519.525" y1="161.452" x2="519.525" y2="321.518" gradientUnits="userSpaceOnUse">
<stop stop-color="#FFAC22"/>
<stop offset="1" stop-color="white" stop-opacity="0"/>
</linearGradient>
</defs>
</svg>
