<svg width="400" height="85" viewBox="0 0 400 85" fill="none" xmlns="http://www.w3.org/2000/svg">
<path d="M34.6392 40.5214C36.437 43.6676 32.3919 44.5665 30.5941 44.7912C27.8975 45.0159 27.2233 43.4429 27.6727 41.4203C27.8975 40.7462 28.3469 40.072 28.7964 39.6225C29.2458 39.1731 30.1447 38.7236 30.8189 38.7236C31.493 38.7236 32.3919 38.7236 32.8414 39.1731C33.7403 39.3978 34.1897 39.8473 34.6392 40.5214Z" fill="#EB1A6B"/>
<path d="M45.426 34.9028C43.4034 50.6335 70.8198 47.2627 70.3704 59.6225C73.0671 56.0269 74.1907 46.5885 66.3254 41.6446C59.1342 37.1501 49.9205 39.622 45.426 34.9028Z" fill="#EB1A6B"/>
<path d="M61.3815 28.8352C61.1568 28.6105 60.9321 28.6105 60.9321 28.3857C60.9321 28.6105 61.1568 28.8352 61.3815 28.8352Z" fill="#EB1A6B"/>
<path d="M67.6738 40.2965C67.4491 39.8471 67.2244 39.3976 66.7749 38.9482C65.876 37.5998 64.5277 36.7009 62.9546 36.4762C62.0557 36.2515 60.9321 36.0267 59.8085 36.0267C58.6849 36.0267 57.786 35.802 56.6623 35.802C54.4151 35.5773 52.3926 35.3526 50.1453 34.9031C49.6959 34.6784 49.0217 34.6784 48.5723 34.4537C48.3475 34.4537 48.1228 34.2289 47.6734 34.2289C47.4486 34.0042 47.2239 34.0042 46.7745 33.7795C45.6508 33.33 44.7519 32.4311 44.0778 31.757C42.5047 30.1839 41.1563 28.3861 39.808 26.813C38.4597 25.0152 37.336 23.4422 35.763 21.8691C34.4146 20.296 32.6168 18.9477 30.819 18.0488C29.0212 17.1499 26.774 16.4757 24.7515 16.251C26.9987 16.0263 29.2459 16.251 31.2685 17.1499C33.291 18.0488 35.3135 19.1724 36.8866 20.7455C38.0102 21.6444 38.9091 22.768 39.808 23.8916C46.7745 22.5433 52.1679 23.6669 56.4376 26.1389C57.786 26.813 59.1343 27.7119 60.2579 28.8355C60.4827 29.0603 60.7074 29.0603 60.7074 29.285C61.6063 30.1839 62.5052 31.0828 63.1794 31.9817C66.3255 34.9031 67.6738 38.274 67.6738 40.2965Z" fill="#EB1A6B"/>
<path d="M25.4255 18.0483C27.2233 18.2731 29.0211 18.9472 30.1447 20.2956C31.2684 21.6439 31.7178 23.4417 32.1673 25.0148C32.392 26.3632 32.6167 27.7115 33.0662 28.8351C33.2909 29.5093 33.7403 29.9587 33.9651 30.4082C34.1898 30.8576 34.6392 31.3071 34.864 31.7565V31.9813V32.206C34.1898 32.8802 32.6167 32.206 31.9425 31.7565C30.8189 31.3071 29.92 30.4082 29.0211 29.5093C26.5491 26.8126 25.2008 22.7676 25.2008 19.172C25.2008 18.9472 25.4255 18.4978 25.4255 18.0483Z" fill="#EB1A6B"/>
<path d="M54.6397 49.5098C50.8193 60.0718 68.1231 67.263 61.6061 78.0498C68.1231 75.3531 71.2693 67.0383 68.5726 60.5213C66.3253 54.6784 59.1341 52.4312 54.6397 49.5098Z" fill="#EB1A6B"/>
<path d="M31.9425 63.2178C33.0662 62.5436 34.1898 61.8694 35.3134 61.1952C36.437 60.7458 37.7854 60.2963 39.1337 60.0716C41.6057 59.6222 44.3024 59.3975 46.3249 58.4986C47.4485 58.0491 48.3474 57.5997 49.2463 56.7008C50.1452 56.0266 50.5947 55.1277 51.0441 54.0041C51.4936 52.8804 51.4936 51.7568 51.4936 50.6332C51.4936 49.2848 51.0441 48.1612 50.5947 47.0376C51.4936 47.9365 52.1678 49.2848 52.6172 50.6332C53.0666 51.9815 53.0667 53.3299 52.8419 54.6782C52.6172 56.0266 51.7183 57.3749 50.8194 58.4986C49.9205 59.3975 48.5722 60.2964 47.2238 60.7458C45.8755 61.1953 44.5271 61.42 43.1788 61.6447C41.8304 61.6447 40.7068 61.8694 39.3585 61.8694C36.8865 61.8694 34.4145 62.3189 31.9425 63.2178Z" fill="#EB1A6B"/>
<path d="M56.2127 81.8702C55.7633 82.095 55.5386 82.5444 55.0891 82.7691C54.6397 82.9939 54.1902 83.2186 53.7408 83.4433C52.8419 83.8928 51.7183 84.1175 50.5946 84.1175C47.6732 84.1175 45.6507 81.8702 44.5271 79.3983C43.6282 77.8252 43.1787 76.0274 42.2798 74.4543C40.9315 72.2071 38.4595 70.4093 35.7628 70.634C34.6392 70.8587 33.5156 71.3082 33.0661 72.2071C31.493 74.6791 33.7403 78.2746 36.8864 77.8252C37.1112 77.8252 37.3359 77.8252 37.5606 77.6005C37.7853 77.6005 38.01 77.3757 38.2348 77.151C38.6842 76.7016 38.9089 76.2521 39.1337 75.8027C39.3584 75.3532 39.3584 74.679 39.3584 74.0049C39.1337 73.3307 38.9089 72.8813 38.4595 72.6565C39.1337 72.8813 39.5831 73.3307 39.8078 74.0049C39.5831 75.1285 39.5831 75.8027 39.5831 76.4769C39.3584 77.151 39.1337 77.8252 38.6842 78.2746C38.4595 78.4994 38.2348 78.7241 37.7853 78.9488C37.5606 79.1735 37.1112 79.3983 36.8864 79.3983C36.2123 79.623 35.5381 79.623 34.8639 79.623C33.965 79.3983 32.8414 79.1735 32.1672 78.4994C31.2683 77.8252 30.5941 76.7016 29.6952 76.0274C28.7963 74.9038 27.6727 74.2296 26.3244 73.5554C25.4255 73.106 24.5266 72.8813 23.6277 72.6565C23.1782 72.6565 22.7288 72.4318 22.2793 72.4318C22.0546 72.4318 20.931 72.2071 20.931 72.2071C22.5041 70.8587 24.0771 69.7351 25.6502 68.6115C27.448 67.4879 29.2458 66.8137 31.2683 66.1395C33.2908 65.4653 35.3134 65.4653 37.5606 65.6901C38.6842 65.9148 39.5831 66.1395 40.7067 66.589C41.8304 67.0384 42.7293 67.7126 43.6282 68.3868C44.5271 69.2857 45.2012 70.1846 45.6507 71.0835C46.1001 71.9824 46.3249 73.106 46.5496 74.2296C47.2238 77.3758 46.999 82.3197 51.0441 82.9939C51.2688 82.9939 51.4935 82.9939 51.7183 82.9939H52.3924C52.8419 82.9939 53.2913 82.9939 53.7408 82.7691C54.4149 82.7691 55.3138 82.3197 56.2127 81.8702Z" fill="#EB1A6B"/>
<path d="M28.5718 34.0042C28.3471 34.6784 28.1223 35.1278 27.8976 35.5773C27.2234 36.4762 26.3245 37.1504 25.4256 37.5998C24.5267 38.0493 23.6278 38.274 22.5042 38.274C22.2795 38.274 22.0548 38.274 21.83 38.274C21.1559 38.274 20.7064 38.4987 20.0323 38.9482C19.5828 39.3976 19.1334 39.8471 19.1334 40.5212C19.1334 40.746 18.9086 41.1954 18.9086 41.4201C18.9086 42.319 18.6839 42.9932 18.6839 44.1168C18.4592 45.9146 18.0097 47.4877 17.3356 49.0608C16.4367 51.0833 15.313 52.8811 15.5378 55.1283C15.7625 56.7014 16.4367 57.825 17.5603 58.7239C19.3581 60.7465 23.6278 61.6454 22.7289 66.3646C22.0548 69.286 17.3356 72.2074 10.8185 73.331C11.4927 73.331 9.91965 70.6343 9.91965 70.4096C9.24547 69.286 8.34657 68.1624 7.89712 67.0387C6.7735 64.7915 6.32405 61.8701 6.7735 59.3981C7.22295 56.7014 9.24547 54.6789 10.8185 52.4316C12.8411 49.9597 14.8636 46.8135 15.313 43.4427C15.313 42.7685 15.5378 41.6449 15.7625 40.746C15.9872 39.6223 16.2119 38.7234 16.6614 37.5998C16.8861 36.9256 17.3356 36.4762 18.0097 35.802C18.2345 35.5773 18.4592 35.1278 18.4592 34.9031C18.4592 34.4537 18.4592 34.229 18.2345 33.7795L7.6724 14.6779L22.9537 33.5548C23.1784 33.7795 23.4031 34.0042 23.6278 34.0042C23.8526 34.229 24.0773 34.229 24.5267 34.229C24.7515 34.229 24.9762 34.229 25.4256 34.0042C25.6504 33.7795 25.8751 33.7795 26.0998 33.5548C26.3245 33.3301 26.3245 33.1053 26.3245 32.6559C26.3245 32.4312 26.3245 31.9817 26.0998 31.757C25.2009 30.4086 24.0773 29.285 22.9537 27.9367L19.1334 23.2174L11.4927 13.779L0.930664 0.520264L12.3916 12.8801L20.4817 21.8691L24.5267 26.3636C25.8751 27.9367 27.2234 29.285 28.5718 31.0828L28.7965 31.3075V31.757C28.7965 32.6559 28.7965 33.3301 28.5718 34.0042Z" fill="#EB1A6B"/>
<path d="M32.1674 78.2735C31.4933 77.5993 30.8191 76.9252 30.1449 76.251C30.8191 77.1499 31.2685 77.8241 32.1674 78.2735Z" fill="#EB1A6B"/>
<path fill-rule="evenodd" clip-rule="evenodd" d="M230.15 27.4871C222.734 29.2849 219.363 35.1278 221.386 42.0942C222.284 45.0157 224.981 48.1618 229.026 50.4091C235.993 54.4541 238.24 56.0272 239.364 58.4991C240.262 60.5217 240.487 61.1958 240.038 63.2184C238.914 67.7128 235.768 69.9601 231.273 69.9601C226.779 69.9601 223.633 67.4881 222.734 63.2184C222.509 61.4206 222.06 60.9711 221.386 60.9711C220.487 60.9711 220.262 61.4206 220.262 65.6903V70.4095L223.183 71.3084C227.903 72.8815 234.42 72.6568 238.24 70.859C245.881 67.2634 248.802 60.2969 245.431 53.7799C244.083 51.3079 240.937 48.6113 235.543 45.2404C229.7 41.6448 227.228 39.1728 226.779 36.7008C226.105 32.6558 229.7 29.5097 234.644 29.5097C238.465 29.5097 240.038 30.4086 241.386 33.33C242.285 35.1278 242.734 35.802 243.858 35.802C244.982 35.802 245.206 35.5772 244.757 34.4536C244.532 33.7794 244.307 31.9816 244.307 30.6333C244.307 28.8355 244.083 27.9366 243.409 27.7119C241.835 27.0377 232.172 26.813 230.15 27.4871ZM81.8316 29.0602C81.8316 29.9591 82.281 30.1838 83.1799 30.1838C85.8766 30.1838 86.1013 30.858 86.3261 47.2629C86.5508 61.4206 86.7755 62.5442 87.8991 64.7914C89.4722 67.7128 91.7195 69.7354 95.0903 71.3084C97.3376 72.4321 98.9106 72.6568 103.63 72.6568C108.574 72.6568 109.697 72.4321 112.394 71.0837C114.192 70.1848 116.439 68.6118 117.338 67.4881C120.484 63.6678 120.934 61.6453 121.158 45.9146C121.608 30.6333 121.608 30.4086 124.08 30.4086C124.754 30.4086 124.979 29.9591 124.979 29.2849C124.979 28.1613 124.529 28.1613 118.237 28.1613C111.945 28.1613 111.495 28.1613 111.495 29.2849C111.495 30.1838 111.945 30.4086 113.293 30.6333C116.214 30.858 116.439 31.9816 116.439 45.9146C116.439 60.0722 115.99 62.7689 112.844 65.6903C110.147 68.387 107.9 69.2859 104.079 69.2859C98.6859 69.2859 94.6409 66.8139 93.5173 62.3195C93.0678 60.7464 92.8431 55.353 93.0678 45.6898L93.2925 31.3075L95.315 30.6333C96.4387 30.1838 97.3376 29.5097 97.5623 29.0602C97.787 28.1613 96.8881 28.1613 89.9217 28.1613C82.281 27.9366 81.8316 27.9366 81.8316 29.0602ZM134.192 29.0602C134.192 29.9591 134.642 30.1838 135.765 30.1838C138.687 30.1838 140.26 31.3075 140.934 33.7794C141.384 35.1278 141.384 41.6448 141.384 50.8585C141.159 67.4881 140.934 68.6117 137.563 69.2859C136.44 69.5106 135.99 69.9601 135.99 70.6343C135.99 71.5332 136.44 71.7579 143.856 71.7579C151.047 71.7579 151.721 71.7579 151.721 70.859C151.721 70.1848 151.047 69.7354 149.249 69.2859C147.002 68.6117 146.777 68.387 146.103 66.5892C145.204 63.8925 145.204 38.4986 145.878 38.7234C146.103 38.7234 148.35 40.9706 150.822 43.892C153.294 46.8135 159.811 54.2294 165.654 60.2969C174.643 69.9601 176.216 71.7579 177.564 71.7579H179.137L179.362 51.9821C179.587 37.8245 179.811 31.9816 180.261 31.5322C180.71 31.0827 181.834 30.6333 182.733 30.4086C183.857 30.1838 184.531 29.7344 184.531 29.2849C184.531 28.6108 183.182 28.386 176.89 28.386C169.474 28.1613 169.249 28.1613 169.249 29.2849C169.249 30.1838 169.699 30.4086 170.598 30.4086C171.272 30.4086 172.62 31.0827 173.519 31.7569L175.092 33.1053L175.317 46.5887C175.317 54.2294 175.317 60.0722 175.092 60.0722C174.868 60.0722 173.07 58.2744 171.272 56.2519C169.474 54.2294 164.305 48.3865 159.811 43.4426C155.317 38.4986 150.373 33.1053 148.799 31.3075L146.103 28.1613H140.26C134.417 27.9366 134.192 27.9366 134.192 29.0602ZM193.07 29.0602C193.07 29.9591 193.52 30.1838 194.643 30.1838C195.542 30.1838 196.666 30.6333 197.34 31.0827C198.464 31.7569 198.464 32.8805 198.688 48.3865C198.913 67.7128 198.688 68.8365 195.317 69.2859C193.744 69.5106 193.07 69.9601 193.07 70.6343C193.07 71.5332 193.744 71.7579 201.61 71.7579C209.7 71.7579 210.149 71.7579 210.149 70.6343C210.149 69.7354 209.7 69.5106 208.801 69.5106C208.127 69.5106 207.003 69.0612 206.329 68.6118C205.205 67.9376 205.205 66.8139 204.981 50.1843C204.756 33.1053 204.756 32.4311 205.88 31.3075C206.554 30.6333 207.677 30.1838 208.352 30.1838C209.475 30.1838 209.7 29.9591 209.7 29.0602C209.7 27.9366 209.25 27.9366 201.16 27.9366C193.52 27.9366 193.07 27.9366 193.07 29.0602ZM252.173 29.0602C252.398 29.7344 252.847 30.1838 253.746 30.1838C254.42 30.1838 255.544 30.858 256.218 31.5322C256.892 32.2064 260.712 41.4201 264.982 52.4316L272.398 71.9826L274.421 72.2073L276.443 72.4321L281.612 58.4991C284.533 50.8585 287.23 43.892 287.455 43.2179C288.129 41.8695 288.129 42.0942 289.927 46.5887C290.825 49.2854 293.522 56.0272 295.769 61.87L299.814 72.4321H301.612C302.511 72.4321 303.41 72.2073 303.635 71.7579C303.859 71.3084 306.331 64.7914 309.478 57.1508C312.399 49.5101 315.77 40.9706 316.893 38.2739C319.365 31.9816 319.815 31.3075 321.613 30.6333C322.512 30.4086 323.186 29.7344 323.186 29.2849C323.186 28.6108 322.062 28.386 316.444 28.386C310.152 28.386 309.702 28.386 309.702 29.5097C309.702 30.4086 310.152 30.6333 311.051 30.6333C313.298 30.6333 314.197 31.3075 314.197 32.6558C314.197 33.7794 303.41 62.7689 302.736 63.4431C302.286 63.8925 292.623 36.9256 292.398 34.2289C291.949 31.7569 293.073 30.6333 295.545 30.6333C296.444 30.6333 296.893 30.4086 296.893 29.5097C296.893 28.386 296.444 28.386 288.129 28.386C279.814 28.386 279.364 28.386 279.364 29.5097C279.364 30.1838 279.814 30.6333 280.263 30.6333C282.061 30.6333 284.308 32.4311 284.983 34.0042C285.881 36.4761 285.207 38.9481 280.039 52.4316L275.769 63.8925L274.87 61.6453C274.421 60.5217 271.724 53.3305 269.027 45.9146C263.634 31.3075 263.634 30.6333 267.229 30.6333C268.578 30.6333 268.802 30.4086 268.802 29.5097C268.802 28.386 268.353 28.386 260.488 28.386C251.948 27.9366 251.723 27.9366 252.173 29.0602ZM365.883 29.5097C365.883 29.5097 365.883 30.1838 365.883 30.4086C365.883 30.6333 366.558 30.6333 366.558 30.6333C367.007 30.6333 367.232 30.858 367.681 30.858C369.479 31.3075 370.603 31.5322 371.052 32.6558C371.277 33.33 371.502 36.0267 371.502 50.1843C371.502 65.0161 371.502 66.8139 371.052 67.7128C370.603 68.8365 369.704 69.5106 367.456 70.1848C367.456 70.1848 366.558 70.4095 366.333 70.6343C366.108 70.859 366.108 71.3084 366.108 71.3084C366.108 71.3084 366.108 71.7579 366.333 71.9826C366.558 72.2073 367.232 72.2073 367.232 72.2073H372.85H382.288C382.288 72.2073 382.738 72.2073 382.962 71.9826C383.187 71.7579 383.187 71.3084 383.187 71.3084C383.187 71.3084 383.187 70.859 382.962 70.6343C382.738 70.4095 381.839 70.1848 381.839 70.1848C379.816 69.7354 378.693 69.0612 378.243 67.9376C377.794 67.0387 377.794 65.0161 377.794 60.2969V53.5552C378.019 53.7799 378.243 53.7799 378.468 54.0047C379.592 54.6788 380.94 55.8024 385.884 55.8024C391.952 56.0272 395.547 53.3305 397.794 50.1843C400.042 47.0382 400.716 42.0942 399.143 36.7008C397.57 31.5322 392.85 28.1613 386.333 27.9366C382.962 27.7119 377.794 27.9366 375.097 28.1613H374.423C371.951 28.1613 368.805 28.6108 367.232 28.6108C366.782 28.6108 366.782 28.6108 366.558 28.8355C365.883 29.2849 365.883 29.5097 365.883 29.5097ZM390.828 50.1843C393.3 47.9371 393.3 44.3415 393.3 41.8695C393.075 38.2739 391.502 31.3075 383.412 31.3075C381.389 31.3075 377.569 31.5322 377.344 34.2289C377.12 34.6783 377.12 38.0492 377.12 42.9931V51.0832L378.019 51.5327C378.468 51.7574 379.142 51.9821 380.041 52.2068C383.412 53.1057 388.356 52.4316 390.828 50.1843ZM339.141 28.6108C339.815 28.386 340.265 28.1613 340.265 28.1613C340.265 28.1613 341.164 27.7119 341.388 28.1613C341.388 28.386 341.838 29.0602 342.737 31.3075C342.962 31.7569 343.186 32.2064 343.186 32.6558C344.31 35.802 346.108 40.2964 347.007 42.7684C347.905 45.2404 349.703 49.7349 351.052 53.3305C352.4 56.7013 353.973 60.9711 354.872 62.9936C355.546 65.0162 356.67 66.8139 356.894 67.2634C357.119 67.4881 357.119 67.7128 357.344 67.9376C358.018 68.8365 358.692 70.1848 360.265 70.4095C360.265 70.4095 361.389 70.6343 361.614 70.859C361.838 71.0837 361.838 71.3084 361.838 71.3084V71.9826C361.838 71.9826 361.838 72.2073 361.614 72.2073C361.614 72.4321 361.164 72.2073 361.164 72.2073H351.726H344.984C344.984 72.2073 344.759 72.2073 344.535 72.2073C344.31 72.2073 344.31 71.7579 344.31 71.7579V71.3084C344.31 71.3084 344.31 70.859 344.535 70.6343C344.759 70.4095 345.883 70.1848 345.883 70.1848C347.905 69.9601 348.804 68.387 349.029 67.4881V67.2634C349.479 66.3645 349.254 65.6903 347.231 60.9711C345.883 57.825 345.434 56.9261 345.209 56.7013C344.984 56.7013 341.388 56.7013 337.568 56.7013H330.152L329.703 57.825C328.354 61.4206 327.231 64.7914 327.231 65.6903C326.781 67.4881 327.456 69.7354 330.152 70.1848C330.152 70.1848 331.276 70.4095 331.501 70.6343C331.725 70.859 331.95 71.3084 331.95 71.3084V71.7579C331.95 71.7579 331.95 71.9826 331.725 72.2073C331.501 72.4321 331.051 72.2073 331.051 72.2073H324.085H317.343C317.343 72.2073 317.118 72.2073 316.893 71.9826C316.669 71.7579 316.669 71.5332 316.669 71.5332V71.0837C316.669 71.0837 316.669 70.859 317.118 70.4095C317.568 69.9601 318.467 69.9601 318.467 69.9601C320.264 69.7354 321.388 67.7128 322.062 66.5892C322.062 66.5892 322.062 66.3645 322.287 66.3645C322.512 65.9151 323.635 63.4431 324.759 60.7464C325.882 58.0497 327.006 54.9036 327.456 54.0047C328.804 50.6338 330.152 47.4876 332.175 42.5437C333.298 39.847 334.871 35.802 335.77 33.5547L337.343 29.5097L339.141 28.6108ZM338.692 38.2739C339.141 39.1728 339.591 40.5212 339.815 41.1953C340.04 41.8695 340.939 43.892 341.613 45.6898C342.287 47.4876 343.186 49.5102 343.636 50.4091C344.085 51.308 344.31 51.9821 344.31 51.9821C344.31 51.9821 341.613 51.9821 338.242 51.9821C334.422 51.9821 332.175 51.9821 332.175 51.7574C332.175 51.7574 332.399 51.308 332.399 50.8585C332.624 50.1843 333.973 46.5887 336.669 38.9481C337.119 37.8245 337.568 36.7009 337.568 36.4761C337.793 36.4761 338.018 36.7009 338.692 38.2739Z" fill="#1D1D1B"/>
</svg>
