<svg width="37" height="32" viewBox="0 0 37 32" fill="none" xmlns="http://www.w3.org/2000/svg">
<path fill-rule="evenodd" clip-rule="evenodd" d="M9.40242 0.851807H27.2826L36.1083 16.1913L27.2826 31.5936L9.40242 31.4002L0.408203 16.3503L9.40242 0.851807ZM21.1539 22.1331C22.1852 21.9744 23.0314 21.7761 23.6925 21.5381V14.8542H18.635V16.8772H20.7374V19.8721C19.9969 20.0704 19.3028 20.1696 18.6549 20.1696C17.4913 20.1696 16.5922 20.044 15.9575 19.7927C15.3361 19.5415 15.0253 19.0854 15.0253 18.4242V13.2477C15.0253 11.9519 16.1426 11.3041 18.3772 11.3041C20.2944 11.3041 22.0398 11.4892 23.6132 11.8594V9.51905C21.9472 9.24138 20.2019 9.10255 18.3772 9.10255C17.769 9.10255 17.1872 9.1356 16.6319 9.20171C16.0897 9.2546 15.5212 9.38021 14.9262 9.57855C14.3312 9.76366 13.8221 10.0017 13.399 10.2925C12.9759 10.5834 12.6255 10.9867 12.3478 11.5024C12.0702 12.0181 11.9313 12.6131 11.9313 13.2874V18.6424C11.9313 19.2506 12.0503 19.7795 12.2883 20.2291C12.5263 20.6786 12.8371 21.0356 13.2205 21.3001C13.6172 21.5645 14.0998 21.7827 14.6683 21.9546C15.2501 22.1132 15.8253 22.219 16.3939 22.2719C16.9756 22.338 17.6235 22.3711 18.3375 22.3711C19.197 22.3711 20.1358 22.2917 21.1539 22.1331Z" fill="url(#paint0_radial)"/>
<defs>
<radialGradient id="paint0_radial" cx="0" cy="0" r="1" gradientUnits="userSpaceOnUse" gradientTransform="translate(-7.20156 7.64359) rotate(30.0537) scale(93.8601 1335.95)">
<stop stop-color="#FFAC22"/>
<stop offset="0.270833" stop-color="#FFCA73"/>
<stop offset="0.5" stop-color="#FFAC22"/>
<stop offset="0.760417" stop-color="#FFD083"/>
<stop offset="1" stop-color="#FFAC22"/>
</radialGradient>
</defs>
</svg>
