<svg width="308" height="106" viewBox="0 0 308 106" fill="none" xmlns="http://www.w3.org/2000/svg">
<path d="M9.25479 4.305V3.305H8.25479V4.305H9.25479ZM17.8348 4.305H18.8348V3.305H17.8348V4.305ZM17.8348 40V41H18.8348V40H17.8348ZM9.25479 40H8.25479V41H9.25479V40ZM9.25479 5.305H17.8348V3.305H9.25479V5.305ZM16.8348 4.305V40H18.8348V4.305H16.8348ZM17.8348 39H9.25479V41H17.8348V39ZM10.2548 40V4.305H8.25479V40H10.2548ZM25.1992 13.38V12.38H24.1992V13.38H25.1992ZM33.1192 13.38H34.1192V12.38H33.1192V13.38ZM33.1192 16.625H32.1192L34.0902 16.8642L33.1192 16.625ZM48.7942 14.7L48.1176 15.4363L48.1279 15.4458L48.1385 15.455L48.7942 14.7ZM50.8842 40V41H51.8842V40H50.8842ZM42.8542 40H41.8542V41H42.8542V40ZM42.5242 19.21L41.5825 19.5463L41.5929 19.5755L41.6051 19.6039L42.5242 19.21ZM41.3142 18.11L40.9631 19.0463L40.9722 19.0497L40.9814 19.053L41.3142 18.11ZM35.0992 18.11L35.3417 19.0801L35.3643 19.0745L35.3865 19.0678L35.0992 18.11ZM33.2292 40V41H34.2292V40H33.2292ZM25.1992 40H24.1992V41H25.1992V40ZM25.1992 14.38H33.1192V12.38H25.1992V14.38ZM32.1192 13.38V16.625H34.1192V13.38H32.1192ZM34.0902 16.8642C34.3133 15.9586 34.9248 15.2265 36.1246 14.6923C37.3619 14.1415 39.1771 13.83 41.6442 13.83V11.83C39.0513 11.83 36.9157 12.151 35.3113 12.8652C33.6695 13.596 32.5484 14.7614 32.1482 16.3858L34.0902 16.8642ZM41.6442 13.83C44.9935 13.83 47.0491 14.4544 48.1176 15.4363L49.4708 13.9637C47.826 12.4522 45.1149 11.83 41.6442 11.83V13.83ZM48.1385 15.455C49.2319 16.4046 49.8842 17.9962 49.8842 20.475H51.8842C51.8842 17.6738 51.1431 15.4154 49.4499 13.945L48.1385 15.455ZM49.8842 20.475V40H51.8842V20.475H49.8842ZM50.8842 39H42.8542V41H50.8842V39ZM43.8542 40V21.52H41.8542V40H43.8542ZM43.8542 21.52C43.8542 20.4524 43.7444 19.5184 43.4433 18.8161L41.6051 19.6039C41.744 19.9282 41.8542 20.5342 41.8542 21.52H43.8542ZM43.4659 18.8737C43.1597 18.0162 42.4876 17.4637 41.647 17.167L40.9814 19.053C41.3874 19.1963 41.522 19.3771 41.5825 19.5463L43.4659 18.8737ZM41.6653 17.1737C40.9029 16.8878 39.8362 16.78 38.5642 16.78V18.78C39.7856 18.78 40.5521 18.8922 40.9631 19.0463L41.6653 17.1737ZM38.5642 16.78C36.9704 16.78 35.6926 16.888 34.8119 17.1522L35.3865 19.0678C35.9725 18.892 37.0046 18.78 38.5642 18.78V16.78ZM34.8567 17.1399C33.9357 17.3701 33.1454 17.8565 32.7198 18.7078L34.5086 19.6022C34.5963 19.4268 34.7961 19.2166 35.3417 19.0801L34.8567 17.1399ZM32.7198 18.7078C32.357 19.4334 32.2292 20.4122 32.2292 21.52H34.2292C34.2292 20.5011 34.3581 19.9033 34.5086 19.6022L32.7198 18.7078ZM32.2292 21.52V40H34.2292V21.52H32.2292ZM33.2292 39H25.1992V41H33.2292V39ZM26.1992 40V13.38H24.1992V40H26.1992ZM67.8092 40.385L67.9283 39.3921L67.8092 40.385ZM65.0592 39.725L65.3979 38.7841L65.3816 38.7783L65.3652 38.773L65.0592 39.725ZM62.5292 38.35L61.8438 39.0782L61.8542 39.088L61.8648 39.0974L62.5292 38.35ZM60.9892 35.93L61.9199 35.5643L61.9166 35.556L61.9132 35.5476L60.9892 35.93ZM60.3292 18.33H61.3292V17.33H60.3292V18.33ZM54.9392 18.33H53.9392V19.33H54.9392V18.33ZM54.9392 13.38V12.38H53.9392V13.38H54.9392ZM60.3292 13.38V14.38H61.3292V13.38H60.3292ZM60.3292 5.68V4.68H59.3292V5.68H60.3292ZM68.3592 5.68H69.3592V4.68H68.3592V5.68ZM68.3592 13.38H67.3592V14.38H68.3592V13.38ZM75.6742 13.38H76.6742V12.38H75.6742V13.38ZM75.6742 18.33V19.33H76.6742V18.33H75.6742ZM68.3592 18.33V17.33H67.3592V18.33H68.3592ZM68.6892 33.785L67.7405 34.1012L67.7433 34.1095L67.7462 34.1178L68.6892 33.785ZM69.9542 35.16L69.5284 36.0648L69.5506 36.0753L69.5734 36.0847L69.9542 35.16ZM75.6742 35.27H76.6742V34.1298L75.5437 34.2785L75.6742 35.27ZM75.6742 40.275L75.7799 41.2694L76.6742 41.1743V40.275H75.6742ZM71.2192 39.55C69.8857 39.55 68.7918 39.4957 67.9283 39.3921L67.69 41.3779C68.6599 41.4943 69.8393 41.55 71.2192 41.55V39.55ZM67.9283 39.3921C67.0906 39.2916 66.2475 39.09 65.3979 38.7841L64.7204 40.6659C65.7042 41.02 66.6944 41.2584 67.69 41.3779L67.9283 39.3921ZM65.3652 38.773C64.4423 38.4763 63.7293 38.0788 63.1935 37.6026L61.8648 39.0974C62.649 39.7945 63.6227 40.3137 64.7532 40.677L65.3652 38.773ZM63.2145 37.6218C62.7251 37.1612 62.2843 36.4918 61.9199 35.5643L60.0584 36.2957C60.5007 37.4216 61.0865 38.3655 61.8438 39.0782L63.2145 37.6218ZM61.9132 35.5476C61.5327 34.6282 61.3292 33.5341 61.3292 32.245H59.3292C59.3292 33.7426 59.5656 35.1051 60.0651 36.3124L61.9132 35.5476ZM61.3292 32.245V18.33H59.3292V32.245H61.3292ZM60.3292 17.33H54.9392V19.33H60.3292V17.33ZM55.9392 18.33V13.38H53.9392V18.33H55.9392ZM54.9392 14.38H60.3292V12.38H54.9392V14.38ZM61.3292 13.38V5.68H59.3292V13.38H61.3292ZM60.3292 6.68H68.3592V4.68H60.3292V6.68ZM67.3592 5.68V13.38H69.3592V5.68H67.3592ZM68.3592 14.38H75.6742V12.38H68.3592V14.38ZM74.6742 13.38V18.33H76.6742V13.38H74.6742ZM75.6742 17.33H68.3592V19.33H75.6742V17.33ZM67.3592 18.33V30.87H69.3592V18.33H67.3592ZM67.3592 30.87C67.3592 32.1862 67.469 33.2867 67.7405 34.1012L69.6378 33.4688C69.4693 32.9633 69.3592 32.1205 69.3592 30.87H67.3592ZM67.7462 34.1178C68.0593 35.0049 68.6745 35.663 69.5284 36.0648L70.38 34.2552C69.9872 34.0703 69.7591 33.8117 69.6322 33.4522L67.7462 34.1178ZM69.5734 36.0847C70.3828 36.4179 71.4967 36.545 72.8142 36.545V34.545C71.5649 34.545 70.7722 34.4154 70.3349 34.2353L69.5734 36.0847ZM72.8142 36.545C73.4023 36.545 74.4177 36.4439 75.8046 36.2615L75.5437 34.2785C74.1439 34.4627 73.2526 34.545 72.8142 34.545V36.545ZM74.6742 35.27V40.275H76.6742V35.27H74.6742ZM75.5684 39.2806C73.8677 39.4615 72.4199 39.55 71.2192 39.55V41.55C72.5118 41.55 74.0339 41.4551 75.7799 41.2694L75.5684 39.2806ZM80.3066 13.38V12.38H79.3066V13.38H80.3066ZM87.9516 13.38H88.9516V12.38H87.9516V13.38ZM88.9966 15.58L88.2398 14.9264L88.2398 14.9264L88.9966 15.58ZM91.6366 13.6L91.2137 12.6937L91.2019 12.6994L91.6366 13.6ZM97.7416 12.83H98.7416V11.83H97.7416V12.83ZM97.7416 19.485V20.485H98.7416V19.485H97.7416ZM89.9316 20.53L89.3966 19.6852L89.3901 19.6893L89.3836 19.6935L89.9316 20.53ZM88.3366 40V41H89.3366V40H88.3366ZM80.3066 40H79.3066V41H80.3066V40ZM80.3066 14.38H87.9516V12.38H80.3066V14.38ZM86.9516 13.38V18.055H88.9516V13.38H86.9516ZM88.9516 18.055C88.9516 17.5097 89.171 16.908 89.7534 16.2336L88.2398 14.9264C87.4289 15.8653 86.9516 16.9136 86.9516 18.055H88.9516ZM89.7534 16.2336C90.3516 15.5411 91.1178 14.9609 92.0714 14.5006L91.2019 12.6994C90.0288 13.2658 89.035 14.0056 88.2398 14.9264L89.7534 16.2336ZM92.0595 14.5062C93.0458 14.0459 93.9838 13.83 94.8816 13.83V11.83C93.6528 11.83 92.4274 12.1274 91.2137 12.6938L92.0595 14.5062ZM94.8816 13.83H97.7416V11.83H94.8816V13.83ZM96.7416 12.83V19.485H98.7416V12.83H96.7416ZM97.7416 18.485H94.9916V20.485H97.7416V18.485ZM94.9916 18.485C92.6527 18.485 90.7362 18.8367 89.3966 19.6852L90.4667 21.3748C91.327 20.8299 92.7839 20.485 94.9916 20.485V18.485ZM89.3836 19.6935C87.9619 20.625 87.3366 22.1471 87.3366 23.995H89.3366C89.3366 22.6162 89.7746 21.8284 90.4796 21.3665L89.3836 19.6935ZM87.3366 23.995V40H89.3366V23.995H87.3366ZM88.3366 39H80.3066V41H88.3366V39ZM81.3066 40V13.38H79.3066V40H81.3066ZM110.857 40.385L110.96 39.3903L110.96 39.3903L110.857 40.385ZM107.447 39.725L107.179 40.6885L107.184 40.6898L107.447 39.725ZM104.257 38.185L103.603 38.9418L103.613 38.9505L103.624 38.959L104.257 38.185ZM102.222 35.27L103.137 34.8663L103.132 34.8562L102.222 35.27ZM102.222 18.385L103.145 18.7696L103.145 18.7696L102.222 18.385ZM104.367 15.305L103.738 14.5278L103.732 14.5322L103.727 14.5368L104.367 15.305ZM107.392 13.765L107.7 14.7164L107.708 14.7138L107.716 14.7109L107.392 13.765ZM111.132 12.94L111.079 11.9414L111.06 11.9424L111.041 11.9441L111.132 12.94ZM118.942 12.995L118.832 13.9889L118.851 13.9911L118.871 13.9925L118.942 12.995ZM122.297 13.655L122.589 12.6986L122.587 12.698L122.297 13.655ZM125.487 15.305L124.833 16.0618L124.842 16.069L124.85 16.076L125.487 15.305ZM127.632 18.275L128.555 17.8904L128.549 17.8747L128.541 17.8592L127.632 18.275ZM127.632 35.215L126.717 34.8114L126.712 34.8227L126.707 34.8342L127.632 35.215ZM125.597 38.13L124.96 37.359L124.949 37.3681L125.597 38.13ZM122.572 39.67L122.854 40.6294L122.863 40.6268L122.872 40.624L122.572 39.67ZM118.887 40.385L118.796 39.3891L118.787 39.39L118.887 40.385ZM118.337 35.215L118.612 36.1765L118.633 36.1706L118.653 36.1637L118.337 35.215ZM119.932 34.06L119.091 33.5192L119.077 33.5412L119.064 33.5639L119.932 34.06ZM119.272 18.66L119.878 17.8646L119.878 17.8646L119.272 18.66ZM109.867 34.06L108.999 34.5561L109.012 34.5788L109.026 34.6008L109.867 34.06ZM111.517 35.215L111.201 36.1637L111.221 36.1706L111.242 36.1765L111.517 35.215ZM114.927 39.55C113.295 39.55 111.976 39.4954 110.96 39.3903L110.754 41.3797C111.865 41.4946 113.259 41.55 114.927 41.55V39.55ZM110.96 39.3903C109.959 39.2868 108.876 39.0783 107.71 38.7602L107.184 40.6898C108.438 41.0317 109.628 41.2632 110.754 41.3797L110.96 39.3903ZM107.715 38.7615C106.488 38.4208 105.561 37.9602 104.89 37.411L103.624 38.959C104.566 39.7298 105.766 40.2958 107.179 40.6885L107.715 38.7615ZM104.911 37.4282C104.243 36.8515 103.643 36.0139 103.137 34.8664L101.307 35.6736C101.901 37.0195 102.658 38.1252 103.603 38.9418L104.911 37.4282ZM103.132 34.8562C102.656 33.8086 102.397 32.4912 102.397 30.87H100.397C100.397 32.6955 100.688 34.3114 101.312 35.6838L103.132 34.8562ZM102.397 30.87V23.005H100.397V30.87H102.397ZM102.397 23.005C102.397 21.3474 102.656 19.9431 103.145 18.7696L101.299 18.0004C100.688 19.4669 100.397 21.1426 100.397 23.005H102.397ZM103.145 18.7696C103.648 17.5622 104.278 16.6809 105.007 16.0732L103.727 14.5368C102.696 15.3958 101.896 16.5678 101.299 18.0004L103.145 18.7696ZM104.996 16.0822C105.645 15.5567 106.534 15.0935 107.7 14.7164L107.084 12.8136C105.756 13.2432 104.629 13.8066 103.738 14.5278L104.996 16.0822ZM107.716 14.7109C108.933 14.2939 110.101 14.0379 111.223 13.9359L111.041 11.9441C109.743 12.0621 108.418 12.3561 107.068 12.8191L107.716 14.7109ZM111.185 13.9386C112.564 13.866 113.811 13.83 114.927 13.83V11.83C113.769 11.83 112.486 11.8673 111.079 11.9414L111.185 13.9386ZM114.927 13.83C116.598 13.83 117.895 13.8848 118.832 13.9889L119.052 12.0011C118.009 11.8852 116.629 11.83 114.927 11.83V13.83ZM118.871 13.9925C119.809 14.0595 120.853 14.2622 122.007 14.612L122.587 12.698C121.321 12.3144 120.129 12.0772 119.013 11.9975L118.871 13.9925ZM122.005 14.6113C123.229 14.9855 124.158 15.4787 124.833 16.0618L126.141 14.5482C125.202 13.738 124.005 13.1311 122.589 12.6986L122.005 14.6113ZM124.85 16.076C125.548 16.6526 126.181 17.5064 126.722 18.6908L128.541 17.8592C127.91 16.4769 127.112 15.3507 126.124 14.534L124.85 16.076ZM126.709 18.6596C127.196 19.8286 127.457 21.268 127.457 23.005H129.457C129.457 21.0753 129.168 19.3614 128.555 17.8904L126.709 18.6596ZM127.457 23.005V30.87H129.457V23.005H127.457ZM127.457 30.87C127.457 32.4097 127.2 33.7157 126.717 34.8114L128.547 35.6186C129.164 34.2209 129.457 32.6303 129.457 30.87H127.457ZM126.707 34.8342C126.242 35.964 125.651 36.7885 124.96 37.359L126.234 38.901C127.23 38.0782 127.995 36.9593 128.557 35.5957L126.707 34.8342ZM124.949 37.3681C124.35 37.8776 123.475 38.3379 122.272 38.716L122.872 40.624C124.236 40.1954 125.377 39.6291 126.245 38.8919L124.949 37.3681ZM122.29 38.7106C121.101 39.0602 119.937 39.2854 118.796 39.3891L118.978 41.3809C120.257 41.2646 121.549 41.0132 122.854 40.6294L122.29 38.7106ZM118.787 39.39C117.731 39.4957 116.446 39.55 114.927 39.55V41.55C116.488 41.55 117.843 41.4943 118.986 41.38L118.787 39.39ZM114.927 36.545C116.457 36.545 117.706 36.4354 118.612 36.1765L118.062 34.2535C117.428 34.4346 116.404 34.545 114.927 34.545V36.545ZM118.653 36.1637C119.569 35.8584 120.346 35.3515 120.8 34.5561L119.064 33.5639C118.932 33.7951 118.645 34.0583 118.021 34.2663L118.653 36.1637ZM120.773 34.6008C121.253 33.8545 121.427 32.8787 121.427 31.805H119.427C119.427 32.7113 119.271 33.2388 119.091 33.5192L120.773 34.6008ZM121.427 31.805V21.74H119.427V31.805H121.427ZM121.427 21.74C121.427 20.1267 121.004 18.7221 119.878 17.8646L118.666 19.4554C119.08 19.7713 119.427 20.4199 119.427 21.74H121.427ZM119.878 17.8646C119.326 17.4442 118.608 17.1822 117.807 17.0199C116.996 16.8556 116.031 16.78 114.927 16.78V18.78C115.95 18.78 116.772 18.851 117.41 18.9801C118.057 19.1111 118.448 19.2891 118.666 19.4554L119.878 17.8646ZM114.927 16.78C113.823 16.78 112.858 16.8556 112.047 17.0199C111.246 17.1822 110.528 17.4442 109.976 17.8646L111.188 19.4554C111.406 19.2891 111.797 19.1111 112.444 18.9801C113.081 18.851 113.904 18.78 114.927 18.78V16.78ZM109.976 17.8646C108.85 18.7221 108.427 20.1267 108.427 21.74H110.427C110.427 20.4199 110.774 19.7713 111.188 19.4554L109.976 17.8646ZM108.427 21.74V31.805H110.427V21.74H108.427ZM108.427 31.805C108.427 32.8652 108.579 33.8217 108.999 34.5561L110.735 33.5639C110.568 33.2716 110.427 32.7248 110.427 31.805H108.427ZM109.026 34.6008C109.515 35.361 110.286 35.8588 111.201 36.1637L111.833 34.2663C111.208 34.0579 110.879 33.7856 110.708 33.5192L109.026 34.6008ZM111.242 36.1765C112.148 36.4354 113.397 36.545 114.927 36.545V34.545C113.45 34.545 112.426 34.4346 111.792 34.2535L111.242 36.1765ZM137.961 39.89L137.659 40.8432L137.669 40.8466L137.68 40.8497L137.961 39.89ZM134.826 37.25L133.916 37.6658L133.916 37.6658L134.826 37.25ZM136.421 14.645L135.838 13.8324L135.829 13.8386L136.421 14.645ZM148.686 13.16L148.469 14.1362L148.489 14.1407L148.51 14.1444L148.686 13.16ZM151.161 14.205L150.525 14.9769L150.539 14.9884L150.553 14.9994L151.161 14.205ZM153.086 16.35L152.264 16.9192L154.086 19.5513V16.35H153.086ZM153.086 1.5V0.499997H152.086V1.5H153.086ZM161.116 1.5H162.116V0.499997H161.116V1.5ZM161.116 40V41H162.116V40H161.116ZM153.361 40H152.361V41H153.361V40ZM153.361 36.975H154.361V33.4677L152.511 36.4476L153.361 36.975ZM151.546 39.23L152.164 40.0163L152.17 40.0109L151.546 39.23ZM149.346 40.165L149.121 39.1906L149.108 39.1936L149.095 39.197L149.346 40.165ZM152.646 34.28L153.497 34.8041L153.506 34.7903L153.514 34.7761L152.646 34.28ZM152.591 19.21L151.723 19.7061L151.744 19.7437L151.769 19.7792L152.591 19.21ZM150.941 18.11L150.666 19.0716L150.678 19.0748L150.941 18.11ZM143.791 18.11L144.033 19.0801L144.056 19.0745L144.078 19.0678L143.791 18.11ZM142.306 19.155L141.411 18.7078L141.404 18.7218L141.398 18.7359L142.306 19.155ZM142.306 34.115L141.377 34.4864L141.393 34.525L141.411 34.5622L142.306 34.115ZM143.736 35.215L144.037 34.2614L144.037 34.2614L143.736 35.215ZM144.946 39.55C141.812 39.55 139.602 39.3284 138.242 38.9303L137.68 40.8497C139.326 41.3316 141.773 41.55 144.946 41.55V39.55ZM138.263 38.9368C136.994 38.5343 136.19 37.8289 135.735 36.8342L133.916 37.6658C134.635 39.2377 135.921 40.2924 137.659 40.8432L138.263 38.9368ZM135.735 36.8342C135.241 35.7531 134.946 33.9332 134.946 31.255H132.946C132.946 34.0035 133.237 36.1802 133.916 37.6658L135.735 36.8342ZM134.946 31.255V20.86H132.946V31.255H134.946ZM134.946 20.86C134.946 18.0988 135.718 16.4006 137.012 15.4514L135.829 13.8386C133.824 15.3094 132.946 17.7545 132.946 20.86H134.946ZM137.004 15.4575C138.431 14.4336 140.883 13.83 144.561 13.83V11.83C140.758 11.83 137.784 12.4364 135.838 13.8325L137.004 15.4575ZM144.561 13.83C146.293 13.83 147.584 13.9394 148.469 14.1362L148.903 12.1838C147.808 11.9406 146.349 11.83 144.561 11.83V13.83ZM148.51 14.1444C149.416 14.3062 150.067 14.6001 150.525 14.9769L151.797 13.4331C151.007 12.7833 150.009 12.3805 148.862 12.1756L148.51 14.1444ZM150.553 14.9994C151.064 15.3902 151.637 16.0147 152.264 16.9192L153.908 15.7808C153.214 14.7786 152.504 13.9732 151.768 13.4106L150.553 14.9994ZM154.086 16.35V1.5H152.086V16.35H154.086ZM153.086 2.5H161.116V0.499997H153.086V2.5ZM160.116 1.5V40H162.116V1.5H160.116ZM161.116 39H153.361V41H161.116V39ZM154.361 40V36.975H152.361V40H154.361ZM152.511 36.4476C151.872 37.4772 151.339 38.1151 150.921 38.4491L152.17 40.0109C152.853 39.4649 153.53 38.5994 154.21 37.5024L152.511 36.4476ZM150.928 38.4437C150.573 38.7224 149.996 38.9886 149.121 39.1906L149.571 41.1394C150.602 40.9014 151.492 40.5443 152.164 40.0163L150.928 38.4437ZM149.095 39.197C148.23 39.4211 146.866 39.55 144.946 39.55V41.55C146.912 41.55 148.481 41.4222 149.597 41.133L149.095 39.197ZM146.981 36.545C148.789 36.545 150.199 36.4545 151.153 36.2472L150.728 34.2928C149.996 34.4521 148.765 34.545 146.981 34.545V36.545ZM151.153 36.2472C152.121 36.0368 153 35.6122 153.497 34.8041L151.794 33.7559C151.705 33.9012 151.448 34.1365 150.728 34.2928L151.153 36.2472ZM153.514 34.7761C153.934 34.0418 154.086 33.0852 154.086 32.025H152.086C152.086 32.9448 151.945 33.4916 151.778 33.7839L153.514 34.7761ZM154.086 32.025V21.3H152.086V32.025H154.086ZM154.086 21.3C154.086 20.2889 153.908 19.3562 153.413 18.6408L151.769 19.7792C151.933 20.0171 152.086 20.4777 152.086 21.3H154.086ZM153.459 18.7139C152.988 17.889 152.159 17.4058 151.204 17.1452L150.678 19.0748C151.336 19.2542 151.607 19.5043 151.723 19.7061L153.459 18.7139ZM151.216 17.1485C150.307 16.8888 149.019 16.78 147.421 16.78V18.78C148.976 18.78 150.035 18.8912 150.666 19.0715L151.216 17.1485ZM147.421 16.78C145.725 16.78 144.388 16.8869 143.503 17.1522L144.078 19.0678C144.661 18.8931 145.743 18.78 147.421 18.78V16.78ZM143.548 17.1399C142.627 17.3701 141.837 17.8565 141.411 18.7078L143.2 19.6022C143.288 19.4268 143.488 19.2166 144.033 19.0801L143.548 17.1399ZM141.398 18.7359C141.08 19.4255 140.976 20.4239 140.976 21.575H142.976C142.976 20.4528 143.092 19.8378 143.214 19.5741L141.398 18.7359ZM140.976 21.575V31.75H142.976V21.575H140.976ZM140.976 31.75C140.976 32.8244 141.088 33.7619 141.377 34.4864L143.234 33.7436C143.084 33.3681 142.976 32.7289 142.976 31.75H140.976ZM141.411 34.5622C141.82 35.3795 142.554 35.8905 143.435 36.1686L144.037 34.2614C143.524 34.0995 143.305 33.8771 143.2 33.6678L141.411 34.5622ZM143.435 36.1686C144.284 36.4368 145.493 36.545 146.981 36.545V34.545C145.535 34.545 144.581 34.4332 144.037 34.2614L143.435 36.1686ZM170.213 38.735L169.536 39.4713L169.546 39.4808L169.557 39.49L170.213 38.735ZM168.178 13.38V12.38H167.178V13.38H168.178ZM176.208 13.38H177.208V12.38H176.208V13.38ZM176.483 34.115L175.541 34.4513L175.551 34.4805L175.564 34.5089L176.483 34.115ZM177.693 35.215L177.342 36.1513L177.351 36.1547L177.36 36.158L177.693 35.215ZM183.963 35.27L184.205 36.2401L184.228 36.2345L184.25 36.2278L183.963 35.27ZM185.833 13.38V12.38H184.833V13.38H185.833ZM193.863 13.38H194.863V12.38H193.863V13.38ZM193.863 40V41H194.863V40H193.863ZM185.943 40H184.943V41H185.943V40ZM185.943 36.755H186.943L184.969 36.5291L185.943 36.755ZM177.418 39.55C174.068 39.55 171.979 38.9441 170.868 37.98L169.557 39.49C171.233 40.9459 173.947 41.55 177.418 41.55V39.55ZM170.889 37.9987C169.815 37.0113 169.178 35.3886 169.178 32.905H167.178C167.178 35.7014 167.897 37.9653 169.536 39.4713L170.889 37.9987ZM169.178 32.905V13.38H167.178V32.905H169.178ZM168.178 14.38H176.208V12.38H168.178V14.38ZM175.208 13.38V31.805H177.208V13.38H175.208ZM175.208 31.805C175.208 32.8636 175.299 33.7729 175.541 34.4513L177.424 33.7787C177.3 33.4305 177.208 32.7997 177.208 31.805H175.208ZM175.564 34.5089C175.905 35.3047 176.534 35.8484 177.342 36.1513L178.044 34.2787C177.678 34.1416 177.501 33.952 177.402 33.7211L175.564 34.5089ZM177.36 36.158C178.147 36.4357 179.22 36.545 180.498 36.545V34.545C179.282 34.545 178.485 34.4343 178.026 34.272L177.36 36.158ZM180.498 36.545C182.088 36.545 183.346 36.4549 184.205 36.2401L183.72 34.2999C183.113 34.4517 182.061 34.545 180.498 34.545V36.545ZM184.25 36.2278C185.156 35.9562 185.925 35.4516 186.342 34.6172L184.553 33.7228C184.457 33.9151 184.237 34.1438 183.675 34.3122L184.25 36.2278ZM186.342 34.6172C186.705 33.8916 186.833 32.9127 186.833 31.805H184.833C184.833 32.8239 184.704 33.4217 184.553 33.7228L186.342 34.6172ZM186.833 31.805V13.38H184.833V31.805H186.833ZM185.833 14.38H193.863V12.38H185.833V14.38ZM192.863 13.38V40H194.863V13.38H192.863ZM193.863 39H185.943V41H193.863V39ZM186.943 40V36.755H184.943V40H186.943ZM184.969 36.5291C184.76 37.4266 184.163 38.1544 182.965 38.6877C181.728 39.2382 179.904 39.55 177.418 39.55V41.55C180.028 41.55 182.173 41.2293 183.778 40.5148C185.422 39.7831 186.538 38.6134 186.917 36.9809L184.969 36.5291ZM210.568 40.44L210.658 39.4441L210.636 39.4421L210.613 39.441L210.568 40.44ZM207.598 40.165L207.474 41.1573L207.474 41.1573L207.598 40.165ZM204.683 39.395L204.235 40.2894L204.244 40.2937L204.253 40.2979L204.683 39.395ZM202.373 37.745L203.045 37.0051L203.029 36.9898L203.011 36.9752L202.373 37.745ZM201.768 16.46L200.944 15.8935L200.941 15.8967L201.768 16.46ZM203.528 14.865L204.054 15.7153L204.065 15.7087L203.528 14.865ZM205.948 13.655L205.631 12.7063L205.619 12.7106L205.606 12.7152L205.948 13.655ZM211.503 12.83V11.83H211.481L211.459 11.8309L211.503 12.83ZM222.503 13.82H223.503V12.9984L222.697 12.839L222.503 13.82ZM222.503 19.1L222.276 20.0739L223.503 20.3598V19.1H222.503ZM222.888 34.335H223.888V33.0937L222.675 33.3579L222.888 34.335ZM222.888 39.615L223.071 40.598L223.888 40.4455V39.615H222.888ZM213.868 39.55C212.486 39.55 211.421 39.5134 210.658 39.4441L210.477 41.4359C211.328 41.5132 212.462 41.55 213.868 41.55V39.55ZM210.613 39.441C209.842 39.406 208.88 39.3175 207.722 39.1727L207.474 41.1573C208.662 41.3059 209.68 41.4007 210.522 41.439L210.613 39.441ZM207.722 39.1727C206.617 39.0346 205.757 38.7989 205.113 38.4921L204.253 40.2979C205.149 40.7244 206.232 41.0021 207.474 41.1573L207.722 39.1727ZM205.13 38.5006C204.5 38.1858 203.805 37.6957 203.045 37.0051L201.7 38.4849C202.554 39.2609 203.398 39.8709 204.235 40.2894L205.13 38.5006ZM203.011 36.9752C201.837 36.0021 201.118 34.2359 201.118 31.365H199.118C199.118 34.5075 199.901 36.9946 201.734 38.5148L203.011 36.9752ZM201.118 31.365V22.51H199.118V31.365H201.118ZM201.118 22.51C201.118 20.2425 201.632 18.4347 202.594 17.0233L200.941 15.8967C199.704 17.712 199.118 19.9375 199.118 22.51H201.118ZM202.592 17.0265C202.898 16.5806 203.371 16.1381 204.054 15.7153L203.001 14.0147C202.144 14.5452 201.444 15.1661 200.944 15.8935L202.592 17.0265ZM204.065 15.7087C204.817 15.23 205.558 14.8606 206.289 14.5948L205.606 12.7152C204.724 13.036 203.852 13.4733 202.991 14.0213L204.065 15.7087ZM206.264 14.6037C206.84 14.4118 207.65 14.2388 208.72 14.0962L208.456 12.1138C207.325 12.2645 206.376 12.4582 205.631 12.7063L206.264 14.6037ZM208.72 14.0962C209.799 13.9523 210.74 13.8641 211.546 13.8291L211.459 11.8309C210.579 11.8692 209.576 11.9643 208.456 12.1138L208.72 14.0962ZM211.503 13.83H214.418V11.83H211.503V13.83ZM214.418 13.83C216.377 13.83 219 14.1466 222.309 14.801L222.697 12.839C219.332 12.1734 216.565 11.83 214.418 11.83V13.83ZM221.503 13.82V19.1H223.503V13.82H221.503ZM222.73 18.1261C218.933 17.2415 215.947 16.78 213.813 16.78V18.78C215.712 18.78 218.519 19.1985 222.276 20.0739L222.73 18.1261ZM213.813 16.78C211.88 16.78 210.255 17.0996 209.088 17.8855C207.85 18.7188 207.258 19.9862 207.258 21.52H209.258C209.258 20.5604 209.591 19.9579 210.205 19.5445C210.889 19.0838 212.042 18.78 213.813 18.78V16.78ZM207.258 21.52V31.31H209.258V21.52H207.258ZM207.258 31.31C207.258 32.9963 207.886 34.3868 209.214 35.3079C210.475 36.183 212.243 36.545 214.363 36.545V34.545C212.412 34.545 211.127 34.2012 210.354 33.6646C209.647 33.174 209.258 32.447 209.258 31.31H207.258ZM214.363 36.545C216.452 36.545 219.378 36.1228 223.101 35.3121L222.675 33.3579C218.99 34.1605 216.233 34.545 214.363 34.545V36.545ZM221.888 34.335V39.615H223.888V34.335H221.888ZM222.704 38.632C219.413 39.2469 216.469 39.55 213.868 39.55V41.55C216.62 41.55 219.689 41.2298 223.071 40.598L222.704 38.632ZM227.641 3.755V2.755H226.641V3.755H227.641ZM235.671 3.755H236.671V2.755H235.671V3.755ZM235.671 10.245V11.245H236.671V10.245H235.671ZM227.641 10.245H226.641V11.245H227.641V10.245ZM227.641 13.38V12.38H226.641V13.38H227.641ZM235.671 13.38H236.671V12.38H235.671V13.38ZM235.671 40V41H236.671V40H235.671ZM227.641 40H226.641V41H227.641V40ZM227.641 4.755H235.671V2.755H227.641V4.755ZM234.671 3.755V10.245H236.671V3.755H234.671ZM235.671 9.245H227.641V11.245H235.671V9.245ZM228.641 10.245V3.755H226.641V10.245H228.641ZM227.641 14.38H235.671V12.38H227.641V14.38ZM234.671 13.38V40H236.671V13.38H234.671ZM235.671 39H227.641V41H235.671V39ZM228.641 40V13.38H226.641V40H228.641ZM242.943 13.38V12.38H241.943V13.38H242.943ZM250.863 13.38H251.863V12.38H250.863V13.38ZM250.863 16.625H249.863L251.834 16.8642L250.863 16.625ZM266.538 14.7L265.862 15.4363L265.872 15.4458L265.883 15.455L266.538 14.7ZM268.628 40V41H269.628V40H268.628ZM260.598 40H259.598V41H260.598V40ZM260.268 19.21L259.327 19.5463L259.337 19.5755L259.349 19.6039L260.268 19.21ZM259.058 18.11L258.707 19.0463L258.716 19.0497L258.726 19.053L259.058 18.11ZM252.843 18.11L253.086 19.0801L253.108 19.0745L253.131 19.0678L252.843 18.11ZM250.973 40V41H251.973V40H250.973ZM242.943 40H241.943V41H242.943V40ZM242.943 14.38H250.863V12.38H242.943V14.38ZM249.863 13.38V16.625H251.863V13.38H249.863ZM251.834 16.8642C252.057 15.9586 252.669 15.2265 253.869 14.6923C255.106 14.1415 256.921 13.83 259.388 13.83V11.83C256.795 11.83 254.66 12.151 253.055 12.8652C251.414 13.596 250.293 14.7614 249.892 16.3858L251.834 16.8642ZM259.388 13.83C262.738 13.83 264.793 14.4544 265.862 15.4363L267.215 13.9637C265.57 12.4522 262.859 11.83 259.388 11.83V13.83ZM265.883 15.455C266.976 16.4046 267.628 17.9962 267.628 20.475H269.628C269.628 17.6738 268.887 15.4154 267.194 13.945L265.883 15.455ZM267.628 20.475V40H269.628V20.475H267.628ZM268.628 39H260.598V41H268.628V39ZM261.598 40V21.52H259.598V40H261.598ZM261.598 21.52C261.598 20.4524 261.488 19.5184 261.187 18.8161L259.349 19.6039C259.488 19.9282 259.598 20.5342 259.598 21.52H261.598ZM261.21 18.8737C260.904 18.0162 260.232 17.4637 259.391 17.167L258.726 19.053C259.132 19.1963 259.266 19.3771 259.327 19.5463L261.21 18.8737ZM259.409 17.1737C258.647 16.8878 257.58 16.78 256.308 16.78V18.78C257.53 18.78 258.296 18.8922 258.707 19.0463L259.409 17.1737ZM256.308 16.78C254.715 16.78 253.437 16.888 252.556 17.1522L253.131 19.0678C253.717 18.892 254.749 18.78 256.308 18.78V16.78ZM252.601 17.1399C251.68 17.3701 250.89 17.8565 250.464 18.7078L252.253 19.6022C252.34 19.4268 252.54 19.2166 253.086 19.0801L252.601 17.1399ZM250.464 18.7078C250.101 19.4334 249.973 20.4122 249.973 21.52H251.973C251.973 20.5011 252.102 19.9033 252.253 19.6022L250.464 18.7078ZM249.973 21.52V40H251.973V21.52H249.973ZM250.973 39H242.943V41H250.973V39ZM243.943 40V13.38H241.943V40H243.943ZM276.808 51.715H275.808V52.5997L276.686 52.7075L276.808 51.715ZM276.808 46.325L276.945 45.3344L275.808 45.1772V46.325H276.808ZM292.263 45.72L291.663 44.92L291.663 44.92L292.263 45.72ZM294.023 37.03H295.023V33.8287L293.201 36.4608L294.023 37.03ZM292.098 39.23L292.706 40.0244L292.72 40.0134L292.734 40.0019L292.098 39.23ZM289.623 40.22L289.448 39.2356L289.427 39.2393L289.406 39.2438L289.623 40.22ZM279.283 39.835L278.967 40.7837L278.977 40.7871L278.988 40.7903L279.283 39.835ZM275.928 37.36L275.068 37.8706L275.076 37.8826L275.928 37.36ZM275.818 16.46L274.924 16.0128L274.919 16.0228L274.914 16.033L275.818 16.46ZM279.118 13.655L278.789 12.7108L278.782 12.7133L279.118 13.655ZM290.283 13.16L290.5 12.1838L290.493 12.1822L290.283 13.16ZM294.298 16.405L293.449 16.9324L295.298 19.9123V16.405H294.298ZM294.298 13.38V12.38H293.298V13.38H294.298ZM302.053 13.38H303.053V12.38H302.053V13.38ZM298.148 49.57L297.613 48.7254L297.606 48.7298L297.599 48.7343L298.148 49.57ZM291.878 35.215L291.615 34.2502L291.604 34.2535L291.878 35.215ZM293.528 34.17L292.687 33.6292L292.682 33.6375L292.677 33.6459L293.528 34.17ZM293.583 19.1L292.715 19.5961L292.723 19.6103L292.732 19.6241L293.583 19.1ZM284.673 18.11L284.372 17.1564L284.372 17.1564L284.673 18.11ZM283.243 19.265L282.337 18.8421L282.33 18.8565L282.324 18.8711L283.243 19.265ZM283.243 34.225L282.324 34.6189L282.342 34.6599L282.363 34.6991L283.243 34.225ZM284.728 35.27L284.441 36.2278L284.463 36.2345L284.486 36.2401L284.728 35.27ZM286.433 51.1C282.114 51.1 278.957 50.9713 276.93 50.7225L276.686 52.7075C278.84 52.972 282.099 53.1 286.433 53.1V51.1ZM277.808 51.715V46.325H275.808V51.715H277.808ZM276.671 47.3156C280.156 47.7975 283.41 48.04 286.433 48.04V46.04C283.516 46.04 280.354 45.8059 276.945 45.3344L276.671 47.3156ZM286.433 48.04C289.203 48.04 291.422 47.6008 292.863 46.52L291.663 44.92C290.758 45.5992 289.09 46.04 286.433 46.04V48.04ZM292.863 46.52C294.379 45.383 295.023 43.554 295.023 41.32H293.023C293.023 43.1927 292.494 44.297 291.663 44.92L292.863 46.52ZM295.023 41.32V37.03H293.023V41.32H295.023ZM293.201 36.4608C292.573 37.3683 291.991 38.0228 291.463 38.4581L292.734 40.0019C293.452 39.4106 294.154 38.5984 294.845 37.5992L293.201 36.4608ZM291.491 38.4356C291.029 38.7889 290.367 39.0714 289.448 39.2356L289.799 41.2044C290.933 41.0019 291.921 40.6244 292.706 40.0244L291.491 38.4356ZM289.406 39.2438C288.521 39.4406 287.23 39.55 285.498 39.55V41.55C287.286 41.55 288.746 41.4394 289.84 41.1962L289.406 39.2438ZM285.498 39.55C282.942 39.55 280.983 39.3142 279.579 38.8797L278.988 40.7903C280.664 41.3091 282.848 41.55 285.498 41.55V39.55ZM279.6 38.8863C278.232 38.4306 277.329 37.7322 276.781 36.8374L275.076 37.8826C275.921 39.2611 277.254 40.2127 278.967 40.7837L279.6 38.8863ZM276.788 36.8495C276.218 35.8897 275.883 34.4777 275.883 32.52H273.883C273.883 34.669 274.245 36.4837 275.068 37.8705L276.788 36.8495ZM275.883 32.52V22.125H273.883V32.52H275.883ZM275.883 22.125C275.883 19.7282 276.191 18.012 276.723 16.887L274.914 16.033C274.199 17.548 273.883 19.6084 273.883 22.125H275.883ZM276.713 16.9072C277.245 15.8436 278.129 15.0702 279.455 14.5967L278.782 12.7133C277.028 13.3398 275.712 14.4364 274.924 16.0128L276.713 16.9072ZM279.448 14.5992C280.867 14.104 282.991 13.83 285.883 13.83V11.83C282.909 11.83 280.523 12.106 278.789 12.7108L279.448 14.5992ZM285.883 13.83C287.767 13.83 289.15 13.9399 290.074 14.1378L290.493 12.1822C289.363 11.9401 287.813 11.83 285.883 11.83V13.83ZM290.066 14.1362C290.97 14.337 291.546 14.6163 291.888 14.9093L293.189 13.3907C292.504 12.8037 291.577 12.423 290.5 12.1838L290.066 14.1362ZM291.888 14.9093C292.283 15.2482 292.805 15.8953 293.449 16.9324L295.148 15.8776C294.472 14.788 293.82 13.9318 293.189 13.3907L291.888 14.9093ZM295.298 16.405V13.38H293.298V16.405H295.298ZM294.298 14.38H302.053V12.38H294.298V14.38ZM301.053 13.38V41.43H303.053V13.38H301.053ZM301.053 41.43C301.053 44.953 299.859 47.3018 297.613 48.7254L298.684 50.4146C301.644 48.5382 303.053 45.4603 303.053 41.43H301.053ZM297.599 48.7343C295.274 50.262 291.604 51.1 286.433 51.1V53.1C291.749 53.1 295.889 52.2513 298.697 50.4057L297.599 48.7343ZM288.358 36.545C289.956 36.545 291.244 36.4362 292.153 36.1765L291.604 34.2535C290.972 34.4338 289.914 34.545 288.358 34.545V36.545ZM292.141 36.1798C293.074 35.9253 293.901 35.4729 294.38 34.6941L292.677 33.6459C292.569 33.8204 292.295 34.0647 291.615 34.2502L292.141 36.1798ZM294.369 34.7108C294.843 33.9742 295.023 33.0435 295.023 32.025H293.023C293.023 32.8399 292.874 33.3391 292.687 33.6292L294.369 34.7108ZM295.023 32.025V21.3H293.023V32.025H295.023ZM295.023 21.3C295.023 20.2486 294.874 19.2898 294.435 18.5759L292.732 19.6241C292.879 19.8635 293.023 20.3714 293.023 21.3H295.023ZM294.452 18.6039C293.963 17.7493 293.082 17.2932 292.091 17.0778L291.666 19.0322C292.362 19.1834 292.617 19.4241 292.715 19.5961L294.452 18.6039ZM292.091 17.0778C291.137 16.8705 289.727 16.78 287.918 16.78V18.78C289.703 18.78 290.933 18.8729 291.666 19.0322L292.091 17.0778ZM287.918 16.78C286.431 16.78 285.221 16.8882 284.372 17.1564L284.974 19.0636C285.518 18.8918 286.473 18.78 287.918 18.78V16.78ZM284.372 17.1564C283.467 17.4421 282.736 17.9872 282.337 18.8421L284.149 19.6879C284.264 19.4428 284.486 19.2179 284.974 19.0636L284.372 17.1564ZM282.324 18.8711C282.023 19.5734 281.913 20.5074 281.913 21.575H283.913C283.913 20.5892 284.023 19.9832 284.162 19.6589L282.324 18.8711ZM281.913 21.575V31.75H283.913V21.575H281.913ZM281.913 31.75C281.913 32.9108 282.02 33.9086 282.324 34.6189L284.162 33.8311C284.027 33.5147 283.913 32.8625 283.913 31.75H281.913ZM282.363 34.6991C282.79 35.4916 283.56 35.9635 284.441 36.2278L285.016 34.3122C284.43 34.1365 284.21 33.9117 284.124 33.7509L282.363 34.6991ZM284.486 36.2401C285.348 36.4557 286.665 36.545 288.358 36.545V34.545C286.678 34.545 285.575 34.451 284.971 34.2999L284.486 36.2401ZM14.7428 104.385L14.8619 103.392L14.7428 104.385ZM11.9928 103.725L12.3315 102.784L12.3152 102.778L12.2988 102.773L11.9928 103.725ZM9.46275 102.35L8.77739 103.078L8.78775 103.088L8.79839 103.097L9.46275 102.35ZM7.92275 99.93L8.85351 99.5643L8.85021 99.556L8.84677 99.5476L7.92275 99.93ZM7.26275 82.33H8.26275V81.33H7.26275V82.33ZM1.87275 82.33H0.872754V83.33H1.87275V82.33ZM1.87275 77.38V76.38H0.872754V77.38H1.87275ZM7.26275 77.38V78.38H8.26275V77.38H7.26275ZM7.26275 69.68V68.68H6.26275V69.68H7.26275ZM15.2928 69.68H16.2928V68.68H15.2928V69.68ZM15.2928 77.38H14.2928V78.38H15.2928V77.38ZM22.6078 77.38H23.6078V76.38H22.6078V77.38ZM22.6078 82.33V83.33H23.6078V82.33H22.6078ZM15.2928 82.33V81.33H14.2928V82.33H15.2928ZM15.6228 97.785L14.6741 98.1012L14.6768 98.1095L14.6798 98.1178L15.6228 97.785ZM16.8878 99.16L16.462 100.065L16.4842 100.075L16.507 100.085L16.8878 99.16ZM22.6078 99.27H23.6078V98.1298L22.4773 98.2785L22.6078 99.27ZM22.6078 104.275L22.7135 105.269L23.6078 105.174V104.275H22.6078ZM18.1528 103.55C16.8193 103.55 15.7254 103.496 14.8619 103.392L14.6236 105.378C15.5935 105.494 16.7729 105.55 18.1528 105.55V103.55ZM14.8619 103.392C14.0242 103.292 13.1811 103.09 12.3315 102.784L11.654 104.666C12.6378 105.02 13.628 105.258 14.6236 105.378L14.8619 103.392ZM12.2988 102.773C11.3759 102.476 10.6629 102.079 10.1271 101.603L8.79839 103.097C9.58264 103.795 10.5563 104.314 11.6867 104.677L12.2988 102.773ZM10.1481 101.622C9.65872 101.161 9.21785 100.492 8.85351 99.5643L6.992 100.296C7.43433 101.422 8.02012 102.365 8.77739 103.078L10.1481 101.622ZM8.84677 99.5476C8.46631 98.6282 8.26275 97.5341 8.26275 96.245H6.26275C6.26275 97.7426 6.4992 99.1051 6.99874 100.312L8.84677 99.5476ZM8.26275 96.245V82.33H6.26275V96.245H8.26275ZM7.26275 81.33H1.87275V83.33H7.26275V81.33ZM2.87275 82.33V77.38H0.872754V82.33H2.87275ZM1.87275 78.38H7.26275V76.38H1.87275V78.38ZM8.26275 77.38V69.68H6.26275V77.38H8.26275ZM7.26275 70.68H15.2928V68.68H7.26275V70.68ZM14.2928 69.68V77.38H16.2928V69.68H14.2928ZM15.2928 78.38H22.6078V76.38H15.2928V78.38ZM21.6078 77.38V82.33H23.6078V77.38H21.6078ZM22.6078 81.33H15.2928V83.33H22.6078V81.33ZM14.2928 82.33V94.87H16.2928V82.33H14.2928ZM14.2928 94.87C14.2928 96.1862 14.4026 97.2867 14.6741 98.1012L16.5714 97.4688C16.4029 96.9633 16.2928 96.1205 16.2928 94.87H14.2928ZM14.6798 98.1178C14.9929 99.0049 15.6081 99.663 16.462 100.065L17.3136 98.2552C16.9208 98.0703 16.6926 97.8117 16.5657 97.4522L14.6798 98.1178ZM16.507 100.085C17.3163 100.418 18.4303 100.545 19.7478 100.545V98.545C18.4985 98.545 17.7058 98.4154 17.2685 98.2353L16.507 100.085ZM19.7478 100.545C20.3359 100.545 21.3513 100.444 22.7382 100.261L22.4773 98.2785C21.0775 98.4627 20.1862 98.545 19.7478 98.545V100.545ZM21.6078 99.27V104.275H23.6078V99.27H21.6078ZM22.502 103.281C20.8013 103.462 19.3535 103.55 18.1528 103.55V105.55C19.4454 105.55 20.9675 105.455 22.7135 105.269L22.502 103.281ZM27.2402 65.5V64.5H26.2402V65.5H27.2402ZM35.2702 65.5H36.2702V64.5H35.2702V65.5ZM35.2702 80.625H34.2702L36.2502 80.8238L35.2702 80.625ZM50.8352 78.7L50.1586 79.4363L50.1689 79.4458L50.1795 79.455L50.8352 78.7ZM52.9252 104V105H53.9252V104H52.9252ZM44.8952 104H43.8952V105H44.8952V104ZM44.5652 83.155L43.6235 83.4913L43.6385 83.5335L43.6573 83.5741L44.5652 83.155ZM43.4102 82.11L43.0591 83.0463L43.0853 83.0561L43.1119 83.0645L43.4102 82.11ZM37.1402 82.055L37.3828 83.0251L37.3828 83.0251L37.1402 82.055ZM35.6552 83.1L36.5357 83.5741L36.5429 83.5608L36.5496 83.5472L35.6552 83.1ZM35.2702 104V105H36.2702V104H35.2702ZM27.2402 104H26.2402V105H27.2402V104ZM27.2402 66.5H35.2702V64.5H27.2402V66.5ZM34.2702 65.5V80.625H36.2702V65.5H34.2702ZM36.2502 80.8238C36.4302 79.937 36.9969 79.2194 38.1701 78.6903C39.3855 78.1422 41.1973 77.83 43.6852 77.83V75.83C41.0764 75.83 38.9374 76.1503 37.3479 76.8672C35.716 77.6031 34.6236 78.783 34.2902 80.4262L36.2502 80.8238ZM43.6852 77.83C47.0345 77.83 49.0901 78.4544 50.1586 79.4363L51.5118 77.9637C49.867 76.4522 47.1559 75.83 43.6852 75.83V77.83ZM50.1795 79.455C51.2729 80.4046 51.9252 81.9962 51.9252 84.475H53.9252C53.9252 81.6738 53.1842 79.4154 51.4909 77.945L50.1795 79.455ZM51.9252 84.475V104H53.9252V84.475H51.9252ZM52.9252 103H44.8952V105H52.9252V103ZM45.8952 104V85.41H43.8952V104H45.8952ZM45.8952 85.41C45.8952 84.3509 45.7878 83.4176 45.4732 82.7359L43.6573 83.5741C43.7826 83.8457 43.8952 84.4157 43.8952 85.41H45.8952ZM45.507 82.8187C45.2035 81.969 44.551 81.4188 43.7085 81.1555L43.1119 83.0645C43.4428 83.1679 43.5602 83.3143 43.6235 83.4913L45.507 82.8187ZM43.7613 81.1737C42.997 80.887 41.9096 80.78 40.6052 80.78V82.78C41.8675 82.78 42.6501 82.893 43.0591 83.0463L43.7613 81.1737ZM40.6052 80.78C39.0151 80.78 37.7568 80.8701 36.8977 81.0849L37.3828 83.0251C37.9903 82.8733 39.0419 82.78 40.6052 82.78V80.78ZM36.8977 81.0849C35.9767 81.3151 35.1864 81.8015 34.7608 82.6528L36.5496 83.5472C36.6373 83.3718 36.8371 83.1616 37.3828 83.0251L36.8977 81.0849ZM34.7747 82.6259C34.395 83.3312 34.2702 84.3118 34.2702 85.41H36.2702C36.2702 84.3815 36.4021 83.8222 36.5357 83.5741L34.7747 82.6259ZM34.2702 85.41V104H36.2702V85.41H34.2702ZM35.2702 103H27.2402V105H35.2702V103ZM28.2402 104V65.5H26.2402V104H28.2402ZM62.3702 79.085L61.7995 78.2638L61.7929 78.2684L62.3702 79.085ZM81.5652 79.03L80.9628 79.8282L80.9712 79.8345L80.9797 79.8407L81.5652 79.03ZM84.5352 92.835V93.835H85.5352V92.835H84.5352ZM67.2652 92.835V91.835H66.2652V92.835H67.2652ZM68.9152 98.555L69.4297 97.6975L69.4297 97.6975L68.9152 98.555ZM83.7652 98.39H84.7652V97.1298L83.5379 97.4162L83.7652 98.39ZM83.7652 103.505L83.974 104.483L84.7652 104.314V103.505H83.7652ZM76.8902 88.27V89.27H77.8902V88.27H76.8902ZM75.7902 82.44L75.2562 83.2855L75.2659 83.2916L75.2757 83.2975L75.7902 82.44ZM68.3102 82.44L67.7554 81.6079L67.7455 81.6147L68.3102 82.44ZM67.2652 88.27H66.2652V89.27H67.2652V88.27ZM73.3152 103.55C68.6728 103.55 65.3588 102.835 63.2352 101.538C61.1919 100.29 60.1802 98.463 60.1802 95.915H58.1802C58.1802 99.1237 59.5243 101.615 62.1926 103.245C64.7807 104.826 68.5342 105.55 73.3152 105.55V103.55ZM60.1802 95.915V86.345H58.1802V95.915H60.1802ZM60.1802 86.345C60.1802 83.2315 61.1591 81.1657 62.9474 79.9016L61.7929 78.2684C59.3279 80.011 58.1802 82.7852 58.1802 86.345H60.1802ZM62.9408 79.9062C64.8559 78.5754 67.9284 77.83 72.3252 77.83V75.83C67.7753 75.83 64.2111 76.588 61.7995 78.2638L62.9408 79.9062ZM72.3252 77.83C76.4669 77.83 79.2799 78.5581 80.9628 79.8282L82.1676 78.2318C79.9638 76.5686 76.6167 75.83 72.3252 75.83V77.83ZM80.9797 79.8407C82.6029 81.013 83.5352 83.0783 83.5352 86.345H85.5352C85.5352 82.7184 84.4875 79.907 82.1507 78.2193L80.9797 79.8407ZM83.5352 86.345V92.835H85.5352V86.345H83.5352ZM84.5352 91.835H67.2652V93.835H84.5352V91.835ZM66.2652 92.835V95.255H68.2652V92.835H66.2652ZM66.2652 95.255C66.2652 97.0637 66.9349 98.533 68.4007 99.4125L69.4297 97.6975C68.6955 97.257 68.2652 96.5263 68.2652 95.255H66.2652ZM68.4007 99.4125C69.7569 100.226 71.9866 100.545 74.8552 100.545V98.545C72.0038 98.545 70.2735 98.2038 69.4297 97.6975L68.4007 99.4125ZM74.8552 100.545C77.5897 100.545 80.6378 100.147 83.9924 99.3638L83.5379 97.4162C80.2926 98.1734 77.4007 98.545 74.8552 98.545V100.545ZM82.7652 98.39V103.505H84.7652V98.39H82.7652ZM83.5564 102.527C80.3687 103.208 76.9559 103.55 73.3152 103.55V105.55C77.0811 105.55 80.635 105.196 83.974 104.483L83.5564 102.527ZM77.8902 88.27V84.42H75.8902V88.27H77.8902ZM77.8902 84.42C77.8902 83.2012 77.3498 82.2096 76.3047 81.5825L75.2757 83.2975C75.6973 83.5504 75.8902 83.8788 75.8902 84.42H77.8902ZM76.3242 81.5945C75.3715 80.9928 73.93 80.78 72.2152 80.78V82.78C73.8737 82.78 74.8155 83.0072 75.2562 83.2855L76.3242 81.5945ZM72.2152 80.78C71.2112 80.78 70.3398 80.8364 69.6148 80.959C68.9055 81.0789 68.2553 81.2747 67.7555 81.6079L68.8649 83.272C69.025 83.1653 69.3556 83.0311 69.9481 82.931C70.5247 82.8336 71.2759 82.78 72.2152 82.78V80.78ZM67.7455 81.6147C66.7767 82.2775 66.2652 83.2462 66.2652 84.42H68.2652C68.2652 83.9071 68.4503 83.5558 68.8749 83.2653L67.7455 81.6147ZM66.2652 84.42V88.27H68.2652V84.42H66.2652ZM67.2652 89.27H76.8902V87.27H67.2652V89.27ZM115.229 104.275L115.113 105.268L115.113 105.268L115.229 104.275ZM110.554 103.34L110.828 102.378L110.82 102.376L110.811 102.374L110.554 103.34ZM106.484 101.58L105.897 102.39L105.906 102.397L105.916 102.403L106.484 101.58ZM103.899 98.61L103.009 99.0673L103.015 99.0782L103.021 99.0889L103.899 98.61ZM104.009 74.52L104.898 74.9763L104.903 74.9672L104.009 74.52ZM106.979 71.055L106.43 70.2189L106.418 70.2267L106.979 71.055ZM111.159 69.075L110.842 68.1263L110.836 68.1285L111.159 69.075ZM115.999 67.975L115.888 66.9811L115.883 66.9817L115.999 67.975ZM135.304 68.91H136.304V68.0629L135.468 67.9236L135.304 68.91ZM135.304 75.4L135.069 76.3721L136.304 76.6701V75.4H135.304ZM113.964 97.345L113.557 98.2588L113.565 98.2621L113.964 97.345ZM127.329 97.62L127.587 98.5859L128.329 98.3874V97.62H127.329ZM127.329 89.315H128.329V88.315H127.329V89.315ZM121.499 89.315H120.499V90.315H121.499V89.315ZM121.499 83.705V82.705H120.499V83.705H121.499ZM135.524 83.705H136.524V82.705H135.524V83.705ZM135.524 102.24L135.862 103.181L136.524 102.943V102.24H135.524ZM128.484 103.89L128.332 102.902L128.33 102.902L128.484 103.89ZM120.674 103.55C118.648 103.55 116.873 103.459 115.344 103.282L115.113 105.268C116.737 105.457 118.592 105.55 120.674 105.55V103.55ZM115.344 103.282C113.822 103.105 112.317 102.804 110.828 102.378L110.279 104.302C111.871 104.756 113.482 105.079 115.113 105.268L115.344 103.282ZM110.811 102.374C109.238 101.954 107.995 101.408 107.051 100.757L105.916 102.403C107.099 103.219 108.569 103.846 110.296 104.306L110.811 102.374ZM107.07 100.77C106.133 100.092 105.369 99.2172 104.777 98.1311L103.021 99.0889C103.748 100.423 104.707 101.528 105.897 102.39L107.07 100.77ZM104.788 98.1527C104.21 97.0299 103.909 95.7239 103.909 94.21H101.909C101.909 95.9961 102.267 97.6235 103.009 99.0673L104.788 98.1527ZM103.909 94.21V79.36H101.909V94.21H103.909ZM103.909 79.36C103.909 77.7031 104.246 76.2492 104.898 74.9763L103.119 74.0637C102.305 75.6508 101.909 77.4236 101.909 79.36H103.909ZM104.903 74.9672C105.567 73.64 106.447 72.6219 107.539 71.8833L106.418 70.2267C105.017 71.1748 103.917 72.4666 103.114 74.0728L104.903 74.9672ZM107.527 71.891C108.617 71.1758 109.931 70.5499 111.481 70.0215L110.836 68.1285C109.159 68.7001 107.687 69.3941 106.43 70.2189L107.527 71.891ZM111.475 70.0237C113.066 69.4934 114.612 69.143 116.114 68.9683L115.883 66.9817C114.232 67.1737 112.551 67.5566 110.842 68.1263L111.475 70.0237ZM116.109 68.9689C117.381 68.8276 118.937 68.755 120.784 68.755V66.755C118.89 66.755 117.256 66.8291 115.888 66.9811L116.109 68.9689ZM120.784 68.755C125.793 68.755 130.578 69.1361 135.139 69.8964L135.468 67.9236C130.79 67.1439 125.894 66.755 120.784 66.755V68.755ZM134.304 68.91V75.4H136.304V68.91H134.304ZM135.538 74.4279C131.192 73.3789 126.271 72.86 120.784 72.86V74.86C126.149 74.86 130.908 75.3678 135.069 76.3721L135.538 74.4279ZM120.784 72.86C117.621 72.86 115.087 73.3127 113.311 74.3424C111.452 75.4204 110.489 77.0982 110.489 79.25H112.489C112.489 77.8085 113.075 76.7913 114.314 76.0726C115.637 75.3057 117.749 74.86 120.784 74.86V72.86ZM110.489 79.25V93.605H112.489V79.25H110.489ZM110.489 93.605C110.489 94.6458 110.735 95.5976 111.273 96.4119C111.811 97.2245 112.595 97.831 113.557 98.2588L114.37 96.4312C113.682 96.1257 113.229 95.7422 112.941 95.3081C112.655 94.8758 112.489 94.3242 112.489 93.605H110.489ZM113.565 98.2621C115.442 99.0784 118.139 99.445 121.554 99.445V97.445C118.222 97.445 115.858 97.0783 114.362 96.4279L113.565 98.2621ZM121.554 99.445C123.452 99.445 125.465 99.1545 127.587 98.5859L127.07 96.6541C125.086 97.1855 123.249 97.445 121.554 97.445V99.445ZM128.329 97.62V89.315H126.329V97.62H128.329ZM127.329 88.315H121.499V90.315H127.329V88.315ZM122.499 89.315V83.705H120.499V89.315H122.499ZM121.499 84.705H135.524V82.705H121.499V84.705ZM134.524 83.705V102.24H136.524V83.705H134.524ZM135.185 101.299C133.434 101.93 131.155 102.467 128.332 102.902L128.636 104.878C131.532 104.433 133.947 103.87 135.862 103.181L135.185 101.299ZM128.33 102.902C125.548 103.335 122.996 103.55 120.674 103.55V105.55C123.117 105.55 125.773 105.325 128.638 104.878L128.33 102.902ZM163.384 74.41H164.384V73.41H163.384V74.41ZM152.384 74.41H151.384V75.41H152.384V74.41ZM152.384 68.305V67.305H151.384V68.305H152.384ZM182.909 68.305H183.909V67.305H182.909V68.305ZM182.909 74.41V75.41H183.909V74.41H182.909ZM171.964 74.41V73.41H170.964V74.41H171.964ZM171.964 104V105H172.964V104H171.964ZM163.384 104H162.384V105H163.384V104ZM163.384 73.41H152.384V75.41H163.384V73.41ZM153.384 74.41V68.305H151.384V74.41H153.384ZM152.384 69.305H182.909V67.305H152.384V69.305ZM181.909 68.305V74.41H183.909V68.305H181.909ZM182.909 73.41H171.964V75.41H182.909V73.41ZM170.964 74.41V104H172.964V74.41H170.964ZM171.964 103H163.384V105H171.964V103ZM164.384 104V74.41H162.384V104H164.384ZM196.204 104.385L196.307 103.39L196.307 103.39L196.204 104.385ZM192.794 103.725L192.526 104.689L192.531 104.69L192.794 103.725ZM189.604 102.185L188.95 102.942L188.96 102.951L188.97 102.959L189.604 102.185ZM187.569 99.27L188.484 98.8663L188.479 98.8562L187.569 99.27ZM187.569 82.385L188.492 82.7696L188.492 82.7696L187.569 82.385ZM189.714 79.305L189.084 78.5278L189.079 78.5322L189.073 78.5368L189.714 79.305ZM192.739 77.765L193.046 78.7164L193.055 78.7138L193.063 78.7109L192.739 77.765ZM196.479 76.94L196.426 75.9414L196.407 75.9424L196.388 75.9441L196.479 76.94ZM204.289 76.995L204.178 77.9889L204.198 77.9911L204.217 77.9925L204.289 76.995ZM207.644 77.655L207.936 76.6986L207.934 76.698L207.644 77.655ZM210.834 79.305L210.18 80.0618L210.188 80.069L210.197 80.076L210.834 79.305ZM212.979 82.275L213.902 81.8904L213.895 81.8747L213.888 81.8592L212.979 82.275ZM212.979 99.215L212.064 98.8114L212.059 98.8227L212.054 98.8342L212.979 99.215ZM210.944 102.13L210.307 101.359L210.296 101.368L210.944 102.13ZM207.919 103.67L208.201 104.629L208.21 104.627L208.218 104.624L207.919 103.67ZM204.234 104.385L204.143 103.389L204.134 103.39L204.234 104.385ZM203.684 99.215L203.958 100.177L203.979 100.171L204 100.164L203.684 99.215ZM205.279 98.06L204.437 97.5192L204.423 97.5412L204.41 97.5639L205.279 98.06ZM204.619 82.66L205.225 81.8646L205.225 81.8646L204.619 82.66ZM195.214 98.06L194.345 98.5561L194.358 98.5788L194.372 98.6008L195.214 98.06ZM196.864 99.215L196.547 100.164L196.568 100.171L196.589 100.177L196.864 99.215ZM200.274 103.55C198.642 103.55 197.323 103.495 196.307 103.39L196.101 105.38C197.211 105.495 198.606 105.55 200.274 105.55V103.55ZM196.307 103.39C195.306 103.287 194.223 103.078 193.057 102.76L192.531 104.69C193.784 105.032 194.975 105.263 196.101 105.38L196.307 103.39ZM193.061 102.761C191.835 102.421 190.908 101.96 190.237 101.411L188.97 102.959C189.913 103.73 191.112 104.296 192.526 104.689L193.061 102.761ZM190.257 101.428C189.59 100.851 188.99 100.014 188.484 98.8664L186.654 99.6736C187.247 101.019 188.004 102.125 188.95 102.942L190.257 101.428ZM188.479 98.8562C188.003 97.8086 187.744 96.4912 187.744 94.87H185.744C185.744 96.6955 186.034 98.3114 186.658 99.6838L188.479 98.8562ZM187.744 94.87V87.005H185.744V94.87H187.744ZM187.744 87.005C187.744 85.3474 188.003 83.9431 188.492 82.7696L186.646 82.0004C186.035 83.4669 185.744 85.1426 185.744 87.005H187.744ZM188.492 82.7696C188.995 81.5622 189.625 80.6809 190.354 80.0732L189.073 78.5368C188.043 79.3958 187.242 80.5678 186.646 82.0004L188.492 82.7696ZM190.343 80.0822C190.992 79.5567 191.881 79.0935 193.046 78.7164L192.431 76.8136C191.103 77.2432 189.975 77.8066 189.084 78.5278L190.343 80.0822ZM193.063 78.7109C194.279 78.2939 195.447 78.0379 196.569 77.9359L196.388 75.9441C195.09 76.0621 193.765 76.3561 192.414 76.8191L193.063 78.7109ZM196.531 77.9386C197.911 77.866 199.158 77.83 200.274 77.83V75.83C199.116 75.83 197.833 75.8673 196.426 75.9414L196.531 77.9386ZM200.274 77.83C201.945 77.83 203.241 77.8848 204.178 77.9889L204.399 76.0011C203.356 75.8852 201.976 75.83 200.274 75.83V77.83ZM204.217 77.9925C205.155 78.0595 206.199 78.2622 207.354 78.612L207.934 76.698C206.668 76.3144 205.475 76.0772 204.36 75.9975L204.217 77.9925ZM207.351 78.6113C208.576 78.9855 209.505 79.4787 210.18 80.0618L211.487 78.5482C210.549 77.738 209.351 77.1311 207.936 76.6986L207.351 78.6113ZM210.197 80.076C210.895 80.6526 211.528 81.5064 212.069 82.6908L213.888 81.8592C213.256 80.4769 212.459 79.3507 211.471 78.534L210.197 80.076ZM212.056 82.6596C212.543 83.8286 212.804 85.268 212.804 87.005H214.804C214.804 85.0753 214.515 83.3614 213.902 81.8904L212.056 82.6596ZM212.804 87.005V94.87H214.804V87.005H212.804ZM212.804 94.87C212.804 96.4097 212.547 97.7157 212.064 98.8114L213.894 99.6186C214.51 98.2209 214.804 96.6303 214.804 94.87H212.804ZM212.054 98.8342C211.589 99.964 210.997 100.788 210.307 101.359L211.581 102.901C212.576 102.078 213.342 100.959 213.903 99.5957L212.054 98.8342ZM210.296 101.368C209.697 101.878 208.822 102.338 207.619 102.716L208.218 104.624C209.582 104.195 210.724 103.629 211.591 102.892L210.296 101.368ZM207.636 102.711C206.448 103.06 205.284 103.285 204.143 103.389L204.324 105.381C205.603 105.265 206.896 105.013 208.201 104.629L207.636 102.711ZM204.134 103.39C203.077 103.496 201.792 103.55 200.274 103.55V105.55C201.835 105.55 203.19 105.494 204.333 105.38L204.134 103.39ZM200.274 100.545C201.804 100.545 203.052 100.435 203.958 100.177L203.409 98.2535C202.775 98.4346 201.75 98.545 200.274 98.545V100.545ZM204 100.164C204.916 99.8584 205.692 99.3515 206.147 98.5561L204.41 97.5639C204.278 97.7951 203.992 98.0583 203.367 98.2663L204 100.164ZM206.12 98.6008C206.6 97.8545 206.774 96.8787 206.774 95.805H204.774C204.774 96.7113 204.618 97.2388 204.437 97.5192L206.12 98.6008ZM206.774 95.805V85.74H204.774V95.805H206.774ZM206.774 85.74C206.774 84.1267 206.35 82.7221 205.225 81.8646L204.013 83.4554C204.427 83.7713 204.774 84.4199 204.774 85.74H206.774ZM205.225 81.8646C204.673 81.4442 203.955 81.1822 203.153 81.0199C202.342 80.8556 201.377 80.78 200.274 80.78V82.78C201.297 82.78 202.119 82.851 202.756 82.9801C203.403 83.1111 203.794 83.2891 204.013 83.4554L205.225 81.8646ZM200.274 80.78C199.17 80.78 198.205 80.8556 197.394 81.0199C196.592 81.1822 195.874 81.4442 195.323 81.8646L196.535 83.4554C196.753 83.2891 197.144 83.1111 197.791 82.9801C198.428 82.851 199.251 82.78 200.274 82.78V80.78ZM195.323 81.8646C194.197 82.7221 193.774 84.1267 193.774 85.74H195.774C195.774 84.4199 196.12 83.7713 196.535 83.4554L195.323 81.8646ZM193.774 85.74V95.805H195.774V85.74H193.774ZM193.774 95.805C193.774 96.8652 193.926 97.8217 194.345 98.5561L196.082 97.5639C195.915 97.2716 195.774 96.7248 195.774 95.805H193.774ZM194.372 98.6008C194.861 99.361 195.633 99.8588 196.547 100.164L197.18 98.2663C196.555 98.0579 196.226 97.7856 196.055 97.5192L194.372 98.6008ZM196.589 100.177C197.495 100.435 198.744 100.545 200.274 100.545V98.545C198.797 98.545 197.772 98.4346 197.138 98.2535L196.589 100.177ZM220.062 65.5V64.5H219.062V65.5H220.062ZM228.092 65.5H229.092V64.5H228.092V65.5ZM228.092 104V105H229.092V104H228.092ZM220.062 104H219.062V105H220.062V104ZM228.422 89.04L227.622 88.44L227.205 88.9963L227.582 89.5811L228.422 89.04ZM237.167 77.38V76.38H236.667L236.367 76.78L237.167 77.38ZM246.352 77.38L247.135 78.0029L248.427 76.38H246.352V77.38ZM237.112 88.985L236.33 88.3621L235.876 88.9328L236.28 89.5397L237.112 88.985ZM247.122 104V105H248.991L247.955 103.445L247.122 104ZM238.047 104L237.207 104.541L237.502 105H238.047V104ZM220.062 66.5H228.092V64.5H220.062V66.5ZM227.092 65.5V104H229.092V65.5H227.092ZM228.092 103H220.062V105H228.092V103ZM221.062 104V65.5H219.062V104H221.062ZM229.222 89.64L237.967 77.98L236.367 76.78L227.622 88.44L229.222 89.64ZM237.167 78.38H246.352V76.38H237.167V78.38ZM245.57 76.7571L236.33 88.3621L237.895 89.6079L247.135 78.0029L245.57 76.7571ZM236.28 89.5397L246.29 104.555L247.955 103.445L237.945 88.4303L236.28 89.5397ZM247.122 103H238.047V105H247.122V103ZM238.888 103.459L229.263 88.4989L227.582 89.5811L237.207 104.541L238.888 103.459ZM252.185 79.085L251.614 78.2638L251.607 78.2684L252.185 79.085ZM271.38 79.03L270.777 79.8282L270.786 79.8345L270.794 79.8407L271.38 79.03ZM274.35 92.835V93.835H275.35V92.835H274.35ZM257.08 92.835V91.835H256.08V92.835H257.08ZM258.73 98.555L259.244 97.6975L259.244 97.6975L258.73 98.555ZM273.58 98.39H274.58V97.1298L273.352 97.4162L273.58 98.39ZM273.58 103.505L273.788 104.483L274.58 104.314V103.505H273.58ZM266.705 88.27V89.27H267.705V88.27H266.705ZM265.605 82.44L265.071 83.2855L265.08 83.2916L265.09 83.2975L265.605 82.44ZM258.125 82.44L257.57 81.6079L257.56 81.6147L258.125 82.44ZM257.08 88.27H256.08V89.27H257.08V88.27ZM263.13 103.55C258.487 103.55 255.173 102.835 253.05 101.538C251.006 100.29 249.995 98.463 249.995 95.915H247.995C247.995 99.1237 249.339 101.615 252.007 103.245C254.595 104.826 258.349 105.55 263.13 105.55V103.55ZM249.995 95.915V86.345H247.995V95.915H249.995ZM249.995 86.345C249.995 83.2315 250.974 81.1657 252.762 79.9016L251.607 78.2684C249.142 80.011 247.995 82.7852 247.995 86.345H249.995ZM252.755 79.9062C254.67 78.5754 257.743 77.83 262.14 77.83V75.83C257.59 75.83 254.026 76.588 251.614 78.2638L252.755 79.9062ZM262.14 77.83C266.281 77.83 269.094 78.5581 270.777 79.8282L271.982 78.2318C269.778 76.5686 266.431 75.83 262.14 75.83V77.83ZM270.794 79.8407C272.417 81.013 273.35 83.0783 273.35 86.345H275.35C275.35 82.7184 274.302 79.907 271.965 78.2193L270.794 79.8407ZM273.35 86.345V92.835H275.35V86.345H273.35ZM274.35 91.835H257.08V93.835H274.35V91.835ZM256.08 92.835V95.255H258.08V92.835H256.08ZM256.08 95.255C256.08 97.0637 256.749 98.533 258.215 99.4125L259.244 97.6975C258.51 97.257 258.08 96.5263 258.08 95.255H256.08ZM258.215 99.4125C259.571 100.226 261.801 100.545 264.67 100.545V98.545C261.818 98.545 260.088 98.2038 259.244 97.6975L258.215 99.4125ZM264.67 100.545C267.404 100.545 270.452 100.147 273.807 99.3638L273.352 97.4162C270.107 98.1734 267.215 98.545 264.67 98.545V100.545ZM272.58 98.39V103.505H274.58V98.39H272.58ZM273.371 102.527C270.183 103.208 266.77 103.55 263.13 103.55V105.55C266.896 105.55 270.449 105.196 273.788 104.483L273.371 102.527ZM267.705 88.27V84.42H265.705V88.27H267.705ZM267.705 84.42C267.705 83.2012 267.164 82.2096 266.119 81.5825L265.09 83.2975C265.512 83.5504 265.705 83.8788 265.705 84.42H267.705ZM266.139 81.5945C265.186 80.9928 263.744 80.78 262.03 80.78V82.78C263.688 82.78 264.63 83.0072 265.071 83.2855L266.139 81.5945ZM262.03 80.78C261.026 80.78 260.154 80.8364 259.429 80.959C258.72 81.0789 258.07 81.2747 257.57 81.6079L258.679 83.272C258.839 83.1653 259.17 83.0311 259.763 82.931C260.339 82.8336 261.09 82.78 262.03 82.78V80.78ZM257.56 81.6147C256.591 82.2775 256.08 83.2462 256.08 84.42H258.08C258.08 83.9071 258.265 83.5558 258.689 83.2653L257.56 81.6147ZM256.08 84.42V88.27H258.08V84.42H256.08ZM257.08 89.27H266.705V87.27H257.08V89.27ZM280.487 77.38V76.38H279.487V77.38H280.487ZM288.407 77.38H289.407V76.38H288.407V77.38ZM288.407 80.625H287.407L289.378 80.8642L288.407 80.625ZM304.082 78.7L303.406 79.4363L303.416 79.4458L303.427 79.455L304.082 78.7ZM306.172 104V105H307.172V104H306.172ZM298.142 104H297.142V105H298.142V104ZM297.812 83.21L296.871 83.5463L296.881 83.5755L296.893 83.6039L297.812 83.21ZM296.602 82.11L296.251 83.0463L296.26 83.0497L296.269 83.053L296.602 82.11ZM290.387 82.11L290.63 83.0801L290.652 83.0745L290.675 83.0678L290.387 82.11ZM288.517 104V105H289.517V104H288.517ZM280.487 104H279.487V105H280.487V104ZM280.487 78.38H288.407V76.38H280.487V78.38ZM287.407 77.38V80.625H289.407V77.38H287.407ZM289.378 80.8642C289.601 79.9586 290.213 79.2265 291.413 78.6923C292.65 78.1415 294.465 77.83 296.932 77.83V75.83C294.339 75.83 292.204 76.151 290.599 76.8652C288.958 77.596 287.837 78.7614 287.436 80.3858L289.378 80.8642ZM296.932 77.83C300.282 77.83 302.337 78.4544 303.406 79.4363L304.759 77.9637C303.114 76.4522 300.403 75.83 296.932 75.83V77.83ZM303.427 79.455C304.52 80.4046 305.172 81.9962 305.172 84.475H307.172C307.172 81.6738 306.431 79.4154 304.738 77.945L303.427 79.455ZM305.172 84.475V104H307.172V84.475H305.172ZM306.172 103H298.142V105H306.172V103ZM299.142 104V85.52H297.142V104H299.142ZM299.142 85.52C299.142 84.4524 299.032 83.5184 298.731 82.8161L296.893 83.6039C297.032 83.9282 297.142 84.5342 297.142 85.52H299.142ZM298.754 82.8737C298.448 82.0162 297.776 81.4637 296.935 81.167L296.269 83.053C296.676 83.1963 296.81 83.3771 296.871 83.5463L298.754 82.8737ZM296.953 81.1737C296.191 80.8878 295.124 80.78 293.852 80.78V82.78C295.074 82.78 295.84 82.8922 296.251 83.0463L296.953 81.1737ZM293.852 80.78C292.259 80.78 290.981 80.888 290.1 81.1522L290.675 83.0678C291.261 82.892 292.293 82.78 293.852 82.78V80.78ZM290.145 81.1399C289.224 81.3701 288.433 81.8565 288.008 82.7078L289.797 83.6022C289.884 83.4268 290.084 83.2166 290.63 83.0801L290.145 81.1399ZM288.008 82.7078C287.645 83.4334 287.517 84.4122 287.517 85.52H289.517C289.517 84.5011 289.646 83.9033 289.797 83.6022L288.008 82.7078ZM287.517 85.52V104H289.517V85.52H287.517ZM288.517 103H280.487V105H288.517V103ZM281.487 104V77.38H279.487V104H281.487Z" fill="#FFAC22"/>
</svg>
