<svg width="100" height="100" viewBox="0 0 100 100" fill="none" xmlns="http://www.w3.org/2000/svg">
<g clip-path="url(#clip0)">
<path d="M66.6642 59.9997C83.2053 59.9997 96.6633 46.5417 96.6633 30.0006C96.6633 13.4595 83.2053 0.00146484 66.6642 0.00146484C50.123 0.00146484 36.665 13.4595 36.665 30.0006C36.665 46.5417 50.123 59.9997 66.6642 59.9997ZM66.6642 3.33457C81.367 3.33457 93.33 15.2975 93.33 30.0004C93.33 44.7033 81.367 56.6662 66.6642 56.6662C51.9613 56.6662 39.9983 44.7033 39.9983 30.0004C39.9983 15.2975 51.9613 3.33457 66.6642 3.33457Z" fill="#FFAC22"/>
<path d="M66.6644 38.3336C64.8262 38.3336 63.3311 36.8388 63.3311 35.0003C63.3311 34.0804 62.5862 33.3338 61.6646 33.3338C60.7429 33.3338 59.998 34.0804 59.998 35.0003C59.998 38.0969 62.1296 40.6851 64.9979 41.4302V41.6669C64.9979 42.5868 65.7428 43.3335 66.6644 43.3335C67.5861 43.3335 68.331 42.5868 68.331 41.6669V41.4302C71.1993 40.6853 73.3308 38.0969 73.3308 35.0003C73.3308 31.3237 70.3409 28.3339 66.6644 28.3339C64.8262 28.3339 63.3311 26.8391 63.3311 25.0006C63.3311 23.1624 64.826 21.6673 66.6644 21.6673C68.5027 21.6673 69.9977 23.1622 69.9977 25.0006C69.9977 25.9205 70.7426 26.6672 71.6643 26.6672C72.5859 26.6672 73.3308 25.9205 73.3308 25.0006C73.3308 21.904 71.1993 19.3158 68.331 18.5707V18.334C68.331 17.4141 67.5861 16.6675 66.6644 16.6675C65.7428 16.6675 64.9979 17.4141 64.9979 18.334V18.5707C62.1296 19.3156 59.998 21.904 59.998 25.0006C59.998 28.6773 62.988 31.667 66.6644 31.667C68.5027 31.667 69.9977 33.1619 69.9977 35.0003C69.9977 36.8388 68.5029 38.3336 66.6644 38.3336Z" fill="#FFAC22"/>
<path d="M66.6645 53.3332C79.5308 53.3332 89.9973 42.8669 89.9973 30.0005C89.9973 17.1341 79.531 6.66797 66.6645 6.66797C53.7981 6.66797 43.332 17.1343 43.332 30.0007C43.332 42.8671 53.7983 53.3332 66.6645 53.3332ZM66.6645 10.0013C77.6925 10.0013 86.664 18.9727 86.664 30.0007C86.664 41.0287 77.6925 50.0001 66.6645 50.0001C55.6366 50.0001 46.6651 41.0287 46.6651 30.0007C46.6651 18.9727 55.6366 10.0013 66.6645 10.0013Z" fill="#FFAC22"/>
<path d="M8.33286 89.1654C8.33286 87.7872 7.21121 86.6655 5.83293 86.6655C4.45465 86.6655 3.33301 87.7872 3.33301 89.1654C3.33301 90.5437 4.45465 91.6654 5.83293 91.6654C7.21121 91.6654 8.33286 90.5437 8.33286 89.1654Z" fill="#FFAC22"/>
<path d="M99.1034 69.9994C97.2652 66.8145 93.1735 65.7245 90.1004 67.5046L70.9193 76.841C67.9378 78.3326 64.9279 78.3326 58.3314 78.3326C51.8833 78.3326 42.0385 76.7043 41.9385 76.6892C41.0319 76.5375 40.172 77.1509 40.022 78.0576C39.8702 78.9659 40.4837 79.8259 41.3919 79.9759C41.8051 80.0458 51.6048 81.6659 58.3314 81.6659C65.2511 81.6659 68.7244 81.6659 72.3927 79.831L91.6638 70.4463C92.4337 70.0014 93.3304 69.883 94.1938 70.1129C95.0522 70.3445 95.7721 70.8962 96.2154 71.6661C96.6621 72.4378 96.7805 73.336 96.5504 74.1962C96.3203 75.0563 95.7688 75.7744 94.9504 76.2479L72.4161 90.2724C72.3695 90.3041 67.5612 93.3323 56.665 93.3323C47.2171 93.3323 32.6208 85.2892 32.4107 85.1742C32.2589 85.1009 28.6457 83.3326 21.6661 83.3326C20.7444 83.3326 19.9995 84.0793 19.9995 84.9992C19.9995 85.9191 20.7444 86.6657 21.6661 86.6657C27.7276 86.6657 30.8508 88.1241 30.8574 88.1241V88.1223C31.4875 88.4723 46.3536 96.6654 56.665 96.6654C68.6981 96.6654 74.0345 93.1989 74.2112 93.0806L96.6639 79.106C98.2054 78.216 99.3087 76.7777 99.7689 75.0594C100.232 73.3376 99.9935 71.541 99.1034 69.9994Z" fill="#FFAC22"/>
<path d="M21.6656 63.3328H34.9986C36.9434 63.3328 40.2484 65.8128 43.1649 67.9993C46.8215 70.7426 50.2765 73.3325 53.3313 73.3325H63.331C65.8625 73.3325 67.1191 74.4807 67.1525 74.5108C67.4775 74.8358 67.9043 74.9991 68.3308 74.9991C68.7576 74.9991 69.1841 74.8358 69.5091 74.5108C70.1606 73.8591 70.1606 72.8058 69.5091 72.1542C69.2892 71.9343 67.2426 69.9992 63.331 69.9992H53.3313C51.3864 69.9992 48.0814 67.5192 45.1649 65.3328C41.5084 62.5895 38.0534 59.9995 34.9986 59.9995H21.6656C20.7439 59.9995 19.999 60.7462 19.999 61.6661C19.999 62.586 20.7439 63.3328 21.6656 63.3328Z" fill="#FFAC22"/>
<path d="M11.6663 53.3333H1.66655C0.7449 53.3333 0 54.0799 0 54.9998C0 55.9197 0.7449 56.6664 1.66655 56.6664H11.6663C12.5862 56.6664 13.3328 57.4146 13.3328 58.3329V94.9985C13.3328 95.9168 12.5862 96.665 11.6663 96.665H1.66655C0.7449 96.665 0 97.4117 0 98.3316C0 99.2515 0.7449 99.9981 1.66655 99.9981H11.6663C14.4228 99.9981 16.6661 97.7548 16.6661 94.9983V58.3331C16.6661 55.5765 14.4228 53.3333 11.6663 53.3333Z" fill="#FFAC22"/>
</g>
<defs>
<clipPath id="clip0">
<rect width="100" height="100" fill="white"/>
</clipPath>
</defs>
</svg>
