<svg width="100" height="100" viewBox="0 0 100 100" fill="none" xmlns="http://www.w3.org/2000/svg">
<path d="M58.3337 86.6665H41.6671C40.7472 86.6665 40.0005 87.4132 40.0005 88.3331C40.0005 89.253 40.7472 89.9997 41.6671 89.9997H58.3337C59.2536 89.9997 60.0003 89.253 60.0003 88.3331C60.0003 87.4132 59.2536 86.6665 58.3337 86.6665Z" fill="#FFAC22"/>
<path d="M19.1666 3.3335H8.3334C3.73828 3.3335 0 7.07178 0 11.6667V85.0001C0 89.595 3.73828 93.3335 8.3334 93.3335H18.3334C19.2533 93.3335 20 92.5868 20 91.6669C20 90.747 19.2533 90.0003 18.3334 90.0003H8.3334C5.57676 90.0003 3.3334 87.7569 3.3334 85.0003V11.6667C3.3334 8.91006 5.57676 6.6667 8.3334 6.6667H19.1668C20.0867 6.6667 20.8334 5.92002 20.8334 5.0001C20.8334 4.08018 20.0867 3.3335 19.1666 3.3335Z" fill="#FFAC22"/>
<path d="M58.3337 80H41.6671C40.7472 80 40.0005 80.7467 40.0005 81.6666C40.0005 82.5865 40.7472 83.3332 41.6671 83.3332H58.3337C59.2536 83.3332 60.0003 82.5865 60.0003 81.6666C60.0003 80.7467 59.2536 80 58.3337 80Z" fill="#FFAC22"/>
<path d="M68.3339 46.6665H31.6671C30.7472 46.6665 30.0005 47.4132 30.0005 48.3331C30.0005 49.253 30.7472 49.9997 31.6671 49.9997H68.3337C69.2536 49.9997 70.0003 49.253 70.0003 48.3331C70.0003 47.4132 69.2538 46.6665 68.3339 46.6665Z" fill="#FFAC22"/>
<path d="M51.7166 41.6666C51.7166 40.7467 50.9717 40 50.05 40H50.0334C49.1135 40 48.375 40.7467 48.375 41.6666C48.375 42.5865 49.1301 43.3332 50.05 43.3332C50.9717 43.3334 51.7166 42.5867 51.7166 41.6666Z" fill="#FFAC22"/>
<path d="M53.3338 69.9999C53.3338 68.1616 51.8389 66.6665 50.0004 66.6665C48.1621 66.6665 46.667 68.1614 46.667 69.9999C46.667 71.8384 48.1619 73.3333 50.0004 73.3333C51.8387 73.3333 53.3338 71.8382 53.3338 69.9999Z" fill="#FFAC22"/>
<path d="M18.3835 13.3335H18.3669C17.447 13.3335 16.7085 14.0802 16.7085 15.0001C16.7085 15.92 17.4636 16.6667 18.3835 16.6667C19.3052 16.6667 20.0501 15.92 20.0501 15.0001C20.0501 14.0802 19.3052 13.3335 18.3835 13.3335Z" fill="#FFAC22"/>
<path d="M18.3335 80H15.0001C14.0802 80 13.3335 80.7467 13.3335 81.6666C13.3335 82.5865 14.0802 83.3332 15.0001 83.3332H18.3335C19.2534 83.3332 20.0001 82.5865 20.0001 81.6666C20.0001 80.7467 19.2534 80 18.3335 80Z" fill="#FFAC22"/>
<path d="M18.3835 26.6665H18.3669C17.447 26.6665 16.7085 27.4132 16.7085 28.3331C16.7085 29.253 17.4636 29.9997 18.3835 29.9997C19.3052 29.9997 20.0501 29.253 20.0501 28.3331C20.0501 27.4132 19.3052 26.6665 18.3835 26.6665Z" fill="#FFAC22"/>
<path d="M18.3335 73.3335H15.0001C14.0802 73.3335 13.3335 74.0802 13.3335 75.0001C13.3335 75.92 14.0802 76.6667 15.0001 76.6667H18.3335C19.2534 76.6667 20.0001 75.92 20.0001 75.0001C20.0001 74.0802 19.2534 73.3335 18.3335 73.3335Z" fill="#FFAC22"/>
<path d="M18.3336 46.6665H8.33359C7.41367 46.6665 6.66699 47.4132 6.66699 48.3331C6.66699 49.253 7.41348 49.9999 8.33359 49.9999H18.3336C19.2535 49.9999 20.0002 49.2532 20.0002 48.3333C20.0002 47.4134 19.2535 46.6665 18.3336 46.6665Z" fill="#FFAC22"/>
<path d="M8.33359 36.6667H18.3336C19.2535 36.6667 20.0002 35.92 20.0002 35.0001C20.0002 34.0802 19.2535 33.3335 18.3336 33.3335H8.33359C7.41367 33.3335 6.66699 34.0802 6.66699 35.0001C6.66699 35.92 7.41348 36.6667 8.33359 36.6667Z" fill="#FFAC22"/>
<path d="M18.3835 40H18.3669C17.447 40 16.7085 40.7467 16.7085 41.6666C16.7085 42.5865 17.4636 43.3332 18.3835 43.3332C19.3052 43.3332 20.0501 42.5865 20.0501 41.6666C20.0501 40.7467 19.3052 40 18.3835 40Z" fill="#FFAC22"/>
<path d="M8.33359 23.3337H18.3336C19.2535 23.3337 20.0002 22.587 20.0002 21.6671C20.0002 20.7472 19.2535 20.0005 18.3336 20.0005H8.33359C7.41367 20.0005 6.66699 20.7472 6.66699 21.6671C6.66699 22.587 7.41348 23.3337 8.33359 23.3337Z" fill="#FFAC22"/>
<path d="M68.3337 0H31.6669C27.072 0 23.3335 3.73828 23.3335 8.3334V91.6668C23.3335 96.2617 27.0718 100 31.6669 100H68.3335C72.9284 100 76.6669 96.2619 76.6669 91.6668V8.3334C76.6669 3.73828 72.9286 0 68.3337 0ZM73.3337 91.6666C73.3337 94.4232 71.0903 96.6666 68.3337 96.6666H31.6669C28.9103 96.6666 26.6669 94.4232 26.6669 91.6666V8.3334C26.6669 5.57676 28.9103 3.3334 31.6669 3.3334H68.3335C71.0901 3.3334 73.3335 5.57676 73.3335 8.3334V91.6666H73.3337Z" fill="#FFAC22"/>
<path d="M81.6671 36.6667H91.6671C92.587 36.6667 93.3337 35.92 93.3337 35.0001C93.3337 34.0802 92.587 33.3335 91.6671 33.3335H81.6671C80.7472 33.3335 80.0005 34.0802 80.0005 35.0001C80.0005 35.92 80.7472 36.6667 81.6671 36.6667Z" fill="#FFAC22"/>
<path d="M81.7004 26.6665C80.7805 26.6665 80.042 27.4132 80.042 28.3331C80.042 29.253 80.7971 29.9997 81.717 29.9997C82.6387 29.9997 83.3836 29.253 83.3836 28.3331C83.3836 27.4132 82.6387 26.6665 81.717 26.6665H81.7004Z" fill="#FFAC22"/>
<path d="M81.7004 40C80.7805 40 80.042 40.7467 80.042 41.6666C80.042 42.5865 80.7971 43.3332 81.717 43.3332C82.6387 43.3332 83.3836 42.5865 83.3836 41.6666C83.3836 40.7467 82.6387 40 81.717 40H81.7004Z" fill="#FFAC22"/>
<path d="M81.717 16.6667C82.6387 16.6667 83.3836 15.92 83.3836 15.0001C83.3836 14.0802 82.6387 13.3335 81.717 13.3335H81.7004C80.7805 13.3335 80.042 14.0802 80.042 15.0001C80.042 15.92 80.7971 16.6667 81.717 16.6667Z" fill="#FFAC22"/>
<path d="M81.6671 49.9997H91.6671C92.587 49.9997 93.3337 49.253 93.3337 48.3331C93.3337 47.4132 92.587 46.6665 91.6671 46.6665H81.6671C80.7472 46.6665 80.0005 47.4132 80.0005 48.3331C80.0005 49.253 80.7472 49.9997 81.6671 49.9997Z" fill="#FFAC22"/>
<path d="M81.6671 83.3332H85.0005C85.9204 83.3332 86.6671 82.5865 86.6671 81.6666C86.6671 80.7467 85.9204 80 85.0005 80H81.6671C80.7472 80 80.0005 80.7467 80.0005 81.6666C80.0005 82.5865 80.7472 83.3332 81.6671 83.3332Z" fill="#FFAC22"/>
<path d="M81.6671 76.6667H85.0005C85.9204 76.6667 86.6671 75.92 86.6671 75.0001C86.6671 74.0802 85.9204 73.3335 85.0005 73.3335H81.6671C80.7472 73.3335 80.0005 74.0802 80.0005 75.0001C80.0005 75.92 80.7472 76.6667 81.6671 76.6667Z" fill="#FFAC22"/>
<path d="M91.6665 3.3335H80.8331C79.9132 3.3335 79.1665 4.08018 79.1665 5.0001C79.1665 5.92002 79.9132 6.6667 80.8331 6.6667H91.6665C94.4231 6.6667 96.6665 8.91006 96.6665 11.6667V85.0001C96.6665 87.7567 94.4231 90.0001 91.6665 90.0001H81.6665C80.7466 90.0001 79.9999 90.7468 79.9999 91.6667C79.9999 92.5866 80.7466 93.3333 81.6665 93.3333H91.6665C96.2614 93.3333 99.9999 89.595 99.9999 84.9999V11.6667C99.9999 7.07178 96.2616 3.3335 91.6665 3.3335Z" fill="#FFAC22"/>
<path d="M51.7166 15.0001C51.7166 14.0802 50.9717 13.3335 50.05 13.3335H50.0334C49.1135 13.3335 48.375 14.0802 48.375 15.0001C48.375 15.92 49.1301 16.6667 50.05 16.6667C50.9717 16.6667 51.7166 15.92 51.7166 15.0001Z" fill="#FFAC22"/>
<path d="M68.3339 20H31.6671C30.7472 20 30.0005 20.7467 30.0005 21.6666C30.0005 22.5865 30.7472 23.3332 31.6671 23.3332H68.3337C69.2536 23.3332 70.0003 22.5865 70.0003 21.6666C70.0003 20.7467 69.2538 20 68.3339 20Z" fill="#FFAC22"/>
<path d="M51.7166 28.3336C51.7166 27.4137 50.9717 26.667 50.05 26.667H50.0334C49.1135 26.667 48.375 27.4137 48.375 28.3336C48.375 29.2535 49.1301 30.0002 50.05 30.0002C50.9717 30.0002 51.7166 29.2535 51.7166 28.3336Z" fill="#FFAC22"/>
<path d="M81.6671 23.3337H91.6671C92.587 23.3337 93.3337 22.587 93.3337 21.6671C93.3337 20.7472 92.587 20.0005 91.6671 20.0005H81.6671C80.7472 20.0005 80.0005 20.7472 80.0005 21.6671C80.0005 22.587 80.7472 23.3337 81.6671 23.3337Z" fill="#FFAC22"/>
<path d="M68.3339 6.6665H31.6671C30.7472 6.6665 30.0005 7.41318 30.0005 8.33311C30.0005 9.25303 30.7472 9.99971 31.6671 9.99971H68.3337C69.2536 9.99971 70.0003 9.25303 70.0003 8.33311C70.0005 7.41318 69.2538 6.6665 68.3339 6.6665Z" fill="#FFAC22"/>
<path d="M68.3339 33.3335H31.6671C30.7472 33.3335 30.0005 34.0802 30.0005 35.0001C30.0005 35.92 30.7472 36.6667 31.6671 36.6667H68.3337C69.2536 36.6667 70.0003 35.92 70.0003 35.0001C70.0003 34.0802 69.2538 33.3335 68.3339 33.3335Z" fill="#FFAC22"/>
</svg>
