<svg width="100" height="100" viewBox="0 0 100 100" fill="none" xmlns="http://www.w3.org/2000/svg">
<path d="M21.6668 83.3335H8.33359C7.41191 83.3335 6.66699 84.0802 6.66699 85.0001C6.66699 85.92 7.41191 86.6667 8.33359 86.6667H21.667C22.5887 86.6667 23.3336 85.92 23.3336 85.0001C23.3336 84.0802 22.5885 83.3335 21.6668 83.3335Z" fill="#FFAC22"/>
<path d="M21.6668 90H8.33359C7.41191 90 6.66699 90.7467 6.66699 91.6666C6.66699 92.5865 7.41191 93.3332 8.33359 93.3332H21.667C22.5887 93.3332 23.3336 92.5865 23.3336 91.6666C23.3336 90.7467 22.5885 90 21.6668 90Z" fill="#FFAC22"/>
<path d="M31.6661 43.3334H64.9995C73.2712 43.3334 79.9995 36.6033 79.9995 28.3334C79.9995 20.0635 73.2712 13.3334 64.9995 13.3334C61.5229 13.3334 58.1345 14.55 55.4546 16.7602C54.7462 17.3451 54.6446 18.3969 55.2313 19.1051C55.8163 19.815 56.8647 19.9184 57.578 19.3318C59.6597 17.6135 62.2964 16.6668 64.9997 16.6668C71.4313 16.6668 76.6663 21.9002 76.6663 28.3334C76.6663 34.7668 71.4313 40 64.9997 40H31.6661C27.0712 40 23.3327 36.2617 23.3327 31.6666C23.3327 28.0217 25.7694 24.7432 29.2577 23.6898C30.0978 23.4365 30.596 22.5748 30.3993 21.7182C30.1343 20.5715 29.9993 19.4332 29.9993 18.3332C29.9993 10.0633 36.7276 3.3332 44.9993 3.3332C50.0909 3.3332 54.7927 5.8832 57.5761 10.1549C58.0778 10.9281 59.1144 11.1432 59.8827 10.6416C60.6544 10.1383 60.871 9.10488 60.3694 8.33496C56.9679 3.1166 51.2212 0 44.9995 0C34.8911 0 26.6661 8.225 26.6661 18.3334C26.6661 19.2184 26.736 20.1201 26.8745 21.0268C22.7079 22.8885 19.9995 26.9951 19.9995 31.6668C19.9995 38.1 25.2345 43.3334 31.6661 43.3334Z" fill="#FFAC22"/>
<path d="M15.0001 63.3331C15.9218 63.3331 16.6667 62.5864 16.6667 61.6665V56.6665H45.3083C45.8101 58.0782 46.92 59.1897 48.3333 59.6915V61.6665C48.3333 62.5864 49.0782 63.3331 49.9999 63.3331C50.9216 63.3331 51.6665 62.5864 51.6665 61.6665V59.6931C53.0798 59.1897 54.1897 58.078 54.6915 56.6663H83.3349V61.6663C83.3349 62.5862 84.0798 63.3329 85.0015 63.3329C85.9231 63.3329 86.6681 62.5862 86.6681 61.6663V54.9997C86.6681 54.0798 85.9231 53.3331 85.0015 53.3331H54.6917C54.1899 51.9214 53.08 50.8099 51.6667 50.3063V48.3331C51.6667 47.4132 50.9218 46.6665 50.0001 46.6665C49.0784 46.6665 48.3335 47.4132 48.3335 48.3331V50.3063C46.9202 50.8097 45.8103 51.9214 45.3085 53.3331H15.0001C14.0784 53.3331 13.3335 54.0798 13.3335 54.9997V61.6663C13.3335 62.5864 14.0784 63.3331 15.0001 63.3331ZM50.0001 53.3331C50.92 53.3331 51.6667 54.0813 51.6667 54.9997C51.6667 55.9181 50.92 56.6663 50.0001 56.6663C49.0802 56.6663 48.3335 55.9181 48.3335 54.9997C48.3335 54.0813 49.0802 53.3331 50.0001 53.3331Z" fill="#FFAC22"/>
<path d="M8.33359 80.0002H15.0002C15.9219 80.0002 16.6668 79.2535 16.6668 78.3336C16.6668 77.4137 15.9219 76.667 15.0002 76.667H8.33359C7.41191 76.667 6.66699 77.4137 6.66699 78.3336C6.66699 79.2535 7.41191 80.0002 8.33359 80.0002Z" fill="#FFAC22"/>
<path d="M26.6666 66.6665H3.3334C1.49492 66.6665 0 68.1616 0 69.9999V96.6665C0 98.505 1.49492 99.9999 3.3334 99.9999H26.6668C28.5051 99.9999 30.0002 98.505 30.0002 96.6665V69.9999C30 68.1616 28.5051 66.6665 26.6666 66.6665ZM3.3334 96.6665V69.9999H26.6668L26.6686 96.6665H3.3334Z" fill="#FFAC22"/>
<path d="M56.6665 90H43.3331C42.4114 90 41.6665 90.7467 41.6665 91.6666C41.6665 92.5865 42.4114 93.3332 43.3331 93.3332H56.6665C57.5882 93.3332 58.3331 92.5865 58.3331 91.6666C58.3331 90.7467 57.5882 90 56.6665 90Z" fill="#FFAC22"/>
<path d="M91.6665 83.3335H78.3331C77.4114 83.3335 76.6665 84.0802 76.6665 85.0001C76.6665 85.92 77.4114 86.6667 78.3331 86.6667H91.6665C92.5882 86.6667 93.3331 85.92 93.3331 85.0001C93.3331 84.0802 92.5882 83.3335 91.6665 83.3335Z" fill="#FFAC22"/>
<path d="M91.6665 90H78.3331C77.4114 90 76.6665 90.7467 76.6665 91.6666C76.6665 92.5865 77.4114 93.3332 78.3331 93.3332H91.6665C92.5882 93.3332 93.3331 92.5865 93.3331 91.6666C93.3331 90.7467 92.5882 90 91.6665 90Z" fill="#FFAC22"/>
<path d="M96.6661 66.6665H73.3329C71.4946 66.6665 69.9995 68.1614 69.9995 69.9999V96.6665C69.9995 98.5048 71.4944 99.9999 73.3329 99.9999H96.6663C98.5046 99.9999 99.9997 98.505 99.9997 96.6665V69.9999C99.9995 68.1616 98.5046 66.6665 96.6661 66.6665ZM73.3329 96.6665V69.9999H96.6663L96.6681 96.6665H73.3329Z" fill="#FFAC22"/>
<path d="M43.3336 80.0002H50.0002C50.9219 80.0002 51.6668 79.2535 51.6668 78.3336C51.6668 77.4137 50.9219 76.667 50.0002 76.667H43.3336C42.4119 76.667 41.667 77.4137 41.667 78.3336C41.667 79.2535 42.4119 80.0002 43.3336 80.0002Z" fill="#FFAC22"/>
<path d="M56.6665 83.3335H43.3331C42.4114 83.3335 41.6665 84.0802 41.6665 85.0001C41.6665 85.92 42.4114 86.6667 43.3331 86.6667H56.6665C57.5882 86.6667 58.3331 85.92 58.3331 85.0001C58.3331 84.0802 57.5882 83.3335 56.6665 83.3335Z" fill="#FFAC22"/>
<path d="M78.3331 80.0002H84.9997C85.9214 80.0002 86.6663 79.2535 86.6663 78.3336C86.6663 77.4137 85.9214 76.667 84.9997 76.667H78.3331C77.4114 76.667 76.6665 77.4137 76.6665 78.3336C76.6665 79.2535 77.4114 80.0002 78.3331 80.0002Z" fill="#FFAC22"/>
<path d="M61.6666 66.6665H38.3334C36.4951 66.6665 35 68.1614 35 69.9999V96.6665C35 98.5048 36.4949 99.9999 38.3334 99.9999H61.6668C63.5051 99.9999 65.0002 98.505 65.0002 96.6665V69.9999C65 68.1616 63.5051 66.6665 61.6666 66.6665ZM38.3334 96.6665V69.9999H61.6668L61.6685 96.6665H38.3334Z" fill="#FFAC22"/>
</svg>
