<svg width="100" height="100" viewBox="0 0 100 100" fill="none" xmlns="http://www.w3.org/2000/svg">
<path d="M11.6681 53.3335H1.66807C0.748144 53.3335 0.00146484 54.0802 0.00146484 55.0001C0.00146484 55.92 0.748144 56.6667 1.66807 56.6667H11.6681C12.5864 56.6667 13.3347 57.4149 13.3347 58.3333V95.0001C13.3347 95.9185 12.5864 96.6667 11.6681 96.6667H1.66807C0.748144 96.6667 0.00146484 97.4134 0.00146484 98.3333C0.00146484 99.2532 0.747949 100 1.66807 100H11.6681C14.4247 100 16.6681 97.7567 16.6681 95.0001V58.3335C16.6681 55.5769 14.4247 53.3335 11.6681 53.3335Z" fill="#FFAC22"/>
<path d="M21.6676 63.3334H35.001C36.9459 63.3334 40.251 65.8135 43.1676 68C46.8242 70.7434 50.2793 73.3334 53.3342 73.3334H63.3342C65.8658 73.3334 67.1225 74.4816 67.1559 74.5117C67.4809 74.8367 67.9076 75 68.3342 75C68.7609 75 69.1875 74.8367 69.5125 74.5117C70.1641 73.86 70.1641 72.8066 69.5125 72.1551C69.2926 71.9351 67.2459 70 63.3342 70H53.3342C51.3893 70 48.0842 67.5199 45.1676 65.3334C41.5109 62.59 38.0559 60 35.001 60H21.6676C20.7477 60 20.001 60.7467 20.001 61.6666C20.001 62.5865 20.7475 63.3334 21.6676 63.3334Z" fill="#FFAC22"/>
<path d="M41.668 56.6666H91.668C94.4246 56.6666 96.668 54.4232 96.668 51.6666V15C96.668 12.2434 94.4246 10 91.668 10H45.0012C44.0813 10 43.3346 10.7467 43.3346 11.6666V45C43.3346 45.9199 44.0813 46.6666 45.0012 46.6666C45.9211 46.6666 46.6678 45.9199 46.6678 45V13.3334H91.6678C92.5861 13.3334 93.3344 14.0816 93.3344 15V51.6666C93.3344 52.585 92.5861 53.3332 91.6678 53.3332H41.6678C40.7494 53.3332 40.0012 52.585 40.0012 51.6666V5C40.0012 3.98828 40.6562 3.3334 41.6678 3.3334H54.9994C55.2244 3.37012 55.8078 4.025 56.1211 4.37676C56.9811 5.34336 58.1578 6.6668 60.0012 6.6668H88.3346C89.2545 6.6668 90.0012 5.92012 90.0012 5.0002C90.0012 4.08027 89.2545 3.33359 88.3346 3.33359H60.0012C59.6545 3.33359 59.0762 2.68359 58.6111 2.16191C57.7545 1.19824 56.6879 0 55.0012 0H41.668C38.818 0 36.668 2.15 36.668 5V51.6666C36.668 54.4232 38.9111 56.6666 41.668 56.6666Z" fill="#FFAC22"/>
<path d="M99.1074 70C98.2174 68.4584 96.7791 67.3551 95.0592 66.8949C93.3375 66.4316 91.5408 66.6681 90.1041 67.5049L70.9225 76.8416C67.9408 78.3332 64.9309 78.3332 58.3342 78.3332C51.8842 78.3332 42.0408 76.7049 41.9426 76.6898C41.0326 76.5365 40.1742 77.1531 40.0242 78.0582C39.8725 78.9666 40.4859 79.8265 41.3926 79.9765C41.8076 80.0465 51.6076 81.6666 58.3342 81.6666C65.2541 81.6666 68.7275 81.6666 72.3959 79.8316L91.6676 70.4467C92.4393 70 93.3375 69.8834 94.1959 70.1133C95.0559 70.3449 95.776 70.8967 96.2191 71.6666C97.1391 73.2582 96.5924 75.3015 94.9541 76.2482L72.4191 90.2734C72.3709 90.3051 67.5658 93.3334 56.6676 93.3334C47.2209 93.3334 32.6227 85.29 32.4125 85.175C32.2625 85.1017 28.6475 83.3334 21.6676 83.3334C20.7477 83.3334 20.001 84.0801 20.001 85C20.001 85.9199 20.7477 86.6666 21.6676 86.6666C27.7293 86.6666 30.8525 88.125 30.8592 88.125V88.1232C31.4875 88.4732 46.3559 96.6666 56.6676 96.6666C68.701 96.6666 74.0375 93.2 74.2143 93.0816L96.6676 79.1066C99.8492 77.2683 100.944 73.1834 99.1074 70Z" fill="#FFAC22"/>
<path d="M8.33447 89.1665C8.33447 87.7882 7.21279 86.6665 5.83447 86.6665C4.45615 86.6665 3.33447 87.7882 3.33447 89.1665C3.33447 90.5448 4.45615 91.6665 5.83447 91.6665C7.21279 91.6665 8.33447 90.5448 8.33447 89.1665Z" fill="#FFAC22"/>
</svg>
