<svg width="100" height="100" viewBox="0 0 100 100" fill="none" xmlns="http://www.w3.org/2000/svg">
<g clip-path="url(#clip0)">
<path d="M22.1803 23.6166C21.3099 23.6973 20.6413 24.4211 20.6289 25.2948V33.4322C20.6413 34.3059 21.3099 35.0297 22.1803 35.1104L27.0478 35.5806C27.5954 37.5833 28.4081 39.5036 29.4638 41.2905L26.3873 45.0051C25.8315 45.6762 25.8793 46.6603 26.496 47.2754L32.2487 53.0157C32.8647 53.63 33.847 53.6761 34.5173 53.1211L38.2435 50.0315C40.0353 51.0781 41.9548 51.8876 43.955 52.4418L44.4235 57.287C44.5075 58.1516 45.233 58.812 46.1026 58.8145H54.2507C55.1203 58.812 55.8465 58.1508 55.9297 57.2853L56.3983 52.4434C58.4042 51.9016 60.3278 51.0929 62.1188 50.0406L65.8359 53.1219C66.5054 53.6769 67.4878 53.6308 68.1037 53.0165L73.8556 47.2762C74.4723 46.6603 74.5193 45.6762 73.9626 45.0051L70.8763 41.2831C71.9221 39.4937 72.7324 37.5759 73.2882 35.579L78.1063 35.1104C78.975 35.0281 79.6428 34.3051 79.6552 33.4322V25.2948C79.6428 24.4211 78.9742 23.6973 78.1038 23.6166L73.2355 23.1464C72.6879 21.1438 71.8752 19.2235 70.8195 17.4357L73.8959 13.7211C74.4493 13.0533 74.4048 12.075 73.7946 11.4591L68.1119 5.71876C67.4968 5.09705 66.5087 5.04847 65.8359 5.60677L62.1098 8.69639C60.3179 7.6506 58.3984 6.84031 56.3991 6.28695L55.9297 1.48537C55.8424 0.628972 55.112 -0.017442 54.2507 -0.000149358H46.1026C45.2412 -0.017442 44.5117 0.628972 44.4235 1.48537L43.955 6.30589C41.9499 6.84443 40.0255 7.64895 38.2344 8.69803L34.5173 5.61171C33.8487 5.05588 32.8663 5.10035 32.2495 5.71382L26.4977 11.4533C25.8817 12.0684 25.8348 13.0517 26.3906 13.7228L29.477 17.444C28.4279 19.2334 27.6127 21.1495 27.0527 23.1464L22.1803 23.6166ZM30.06 25.0766C30.6067 22.6351 31.59 20.3121 32.961 18.2189C33.3645 17.5996 33.3176 16.791 32.8457 16.222L29.9694 12.7536L33.5465 9.18387L37.0174 12.0627C37.5897 12.537 38.4049 12.5806 39.025 12.1706C41.1067 10.7913 43.4296 9.81464 45.872 9.29175C46.5851 9.15423 47.1228 8.56628 47.1961 7.84411L47.6334 3.37273H52.7199L53.1563 7.84329C53.2288 8.57122 53.7673 9.16576 54.4845 9.31069C56.9277 9.84758 59.2532 10.8242 61.3481 12.192C61.9673 12.5872 62.771 12.537 63.3359 12.066L66.8002 9.19129L70.3205 12.747L67.4375 16.2228C66.9632 16.7959 66.9204 17.6128 67.3321 18.2329C68.7147 20.3113 69.6946 22.6301 70.2225 25.0692C70.3905 25.7889 70.999 26.32 71.7352 26.3892L76.2815 26.8265V31.9022L71.8019 32.3379C71.0731 32.4079 70.4703 32.9365 70.3056 33.6504C69.7564 36.092 68.7724 38.415 67.3988 40.5082C66.9945 41.1258 67.0398 41.9353 67.51 42.5043L70.3847 45.9735L66.8068 49.544L63.3351 46.6652C62.7628 46.1909 61.9475 46.1472 61.3283 46.5573C59.2458 47.9366 56.9228 48.9132 54.4804 49.4361C53.7616 49.5926 53.2263 50.1954 53.1563 50.9274L52.7199 55.4416H47.6334L47.1961 50.9282C47.1253 50.1954 46.5884 49.5926 45.8679 49.4386C43.4247 48.8976 41.0992 47.9177 39.0052 46.5466C38.3868 46.1489 37.5823 46.1975 37.0165 46.666L33.5448 49.5448L29.9677 45.9743L32.8441 42.5051C33.3192 41.932 33.362 41.1151 32.9495 40.495C31.5677 38.4166 30.5878 36.0969 30.06 33.6579C29.892 32.9382 29.2826 32.407 28.5473 32.3379L24.0018 31.9006V26.8265L28.5489 26.3892C29.2818 26.3209 29.8895 25.793 30.06 25.0766Z" fill="#FFAC22"/>
<path d="M50.1473 45.4547C59.0316 45.4432 66.2261 38.2338 66.2179 29.3495C66.2105 20.4652 59.0036 13.2682 50.1193 13.2715C41.235 13.2756 34.0347 20.4792 34.0347 29.3635C34.0503 38.2527 41.2589 45.4506 50.1473 45.4547ZM50.1473 16.6452C57.1689 16.6567 62.8524 22.3559 62.845 29.3775C62.8376 36.3991 57.1409 42.0859 50.1193 42.0826C43.0976 42.0785 37.4076 36.3851 37.4076 29.3635C37.4216 22.3369 43.1207 16.6468 50.1473 16.6452Z" fill="#FFAC22"/>
<path d="M14.7261 71.5711V78.4577C14.7261 79.389 15.4813 80.1441 16.4126 80.1441C17.3439 80.1441 18.099 79.389 18.099 78.4577V73.3605H48.455V78.4577C48.455 79.389 49.2101 80.1441 50.1414 80.1441C51.0728 80.1441 51.8279 79.389 51.8279 78.4577V73.3605H82.1838V78.4577C82.1838 79.389 82.9389 80.1441 83.8702 80.1441C84.8016 80.1441 85.5567 79.389 85.5567 78.4577V71.5711C85.5682 71.1421 85.4011 70.7271 85.0939 70.4274C84.7876 70.1268 84.3693 69.967 83.9402 69.9876H51.8279V65.247C51.8279 64.3157 51.0728 63.5605 50.1414 63.5605C49.2101 63.5605 48.455 64.3157 48.455 65.247V69.9876H16.3426C15.9136 69.967 15.4953 70.1268 15.1889 70.4274C14.8818 70.7271 14.7146 71.1421 14.7261 71.5711Z" fill="#FFAC22"/>
<path d="M50.1416 82.5098C45.312 82.5098 41.3965 86.4245 41.3965 91.2549C41.3957 96.0845 45.3112 100 50.1416 100C54.9712 100 58.8867 96.0845 58.8867 91.2549C58.881 86.427 54.9695 82.5147 50.1416 82.5098ZM50.1416 96.6271C47.1747 96.6271 44.7694 94.2218 44.7694 91.2549C44.7694 88.288 47.1747 85.8826 50.1416 85.8826C53.1085 85.8826 55.5139 88.288 55.5139 91.2549C55.5106 94.2202 53.1069 96.623 50.1416 96.6263V96.6271Z" fill="#FFAC22"/>
<path d="M83.8701 82.5098C79.0405 82.5098 75.125 86.4245 75.125 91.2549C75.1242 96.0845 79.0397 100 83.8701 100C88.6997 100 92.6152 96.0845 92.6152 91.2549C92.6095 86.427 88.6981 82.5147 83.8701 82.5098ZM83.8701 96.6271C80.9032 96.6271 78.4979 94.2218 78.4979 91.2549C78.4979 88.288 80.9032 85.8826 83.8701 85.8826C86.837 85.8826 89.2424 88.288 89.2424 91.2549C89.2391 94.2202 86.8354 96.623 83.8701 96.6263V96.6271Z" fill="#FFAC22"/>
<path d="M16.4131 82.5098C11.5835 82.5098 7.66797 86.4245 7.66797 91.2549C7.66715 96.0845 11.5827 100 16.4131 100C21.2427 100 25.1582 96.0845 25.1582 91.2549C25.1524 86.427 21.241 82.5147 16.4131 82.5098ZM16.4131 96.6271C13.4462 96.6271 11.0409 94.2218 11.0409 91.2549C11.0409 88.288 13.4462 85.8826 16.4131 85.8826C19.38 85.8826 21.7853 88.288 21.7853 91.2549C21.782 94.2202 19.3784 96.623 16.4131 96.6263V96.6271Z" fill="#FFAC22"/>
</g>
<defs>
<clipPath id="clip0">
<rect width="100" height="100" fill="white"/>
</clipPath>
</defs>
</svg>
