<svg width="100" height="100" viewBox="0 0 100 100" fill="none" xmlns="http://www.w3.org/2000/svg">
<path d="M96.3717 45.215C94.3467 25.5633 79.7617 8.93338 60.4283 4.51659C59.5301 4.30995 58.6383 4.87323 58.4334 5.77167C58.2283 6.66835 58.7885 7.56327 59.6867 7.76834C70.2283 10.175 79.2449 16.5017 85.285 25H79.2016C78.2799 25 77.535 25.7467 77.535 26.6666C77.535 27.5865 78.2799 28.3332 79.2016 28.3332H87.4233C90.4299 33.4898 92.3899 39.2814 93.0416 45.3998C91.7649 45.9465 90.7766 47.0164 90.3082 48.3332H80C79.0783 48.3332 78.3334 49.0799 78.3334 49.9998C78.3334 50.9197 79.0783 51.6664 80 51.6664H90.3084C90.9985 53.6031 92.8301 54.9998 95 54.9998C97.7567 54.9998 100 52.7564 100 49.9998C100 47.7217 98.46 45.8166 96.3717 45.215ZM95 51.6666C94.0801 51.6666 93.3334 50.9183 93.3334 50C93.3334 49.1 94.0533 48.375 94.9451 48.3449C94.9602 48.3431 94.9719 48.3431 94.9867 48.3431C94.9967 48.3414 95.0033 48.3365 95.0133 48.3347C95.9266 48.3431 96.6666 49.0847 96.6666 49.9998C96.6666 50.9183 95.9199 51.6666 95 51.6666Z" fill="#FFAC22"/>
<path d="M5.61628 42.4267C5.73132 42.4499 5.84636 42.4616 5.95788 42.4616C6.73112 42.4616 7.42448 41.9216 7.58952 41.1349C8.27624 37.8298 9.37116 34.6282 10.8046 31.5798C11.0862 31.6298 11.3712 31.6665 11.6663 31.6665C14.4229 31.6665 16.6663 29.4231 16.6663 26.6665C16.6663 23.9099 14.4229 21.6665 11.6663 21.6665C8.90964 21.6665 6.66628 23.9099 6.66628 26.6665C6.66628 27.9147 7.14284 29.0448 7.90124 29.9216C6.29948 33.2782 5.08464 36.8099 4.32448 40.455C4.13639 41.3565 4.71628 42.2399 5.61628 42.4267ZM11.6663 24.9999C12.5862 24.9999 13.3329 25.7481 13.3329 26.6665C13.3329 27.5849 12.5862 28.3331 11.6663 28.3331C10.7464 28.3331 9.99968 27.5849 9.99968 26.6665C9.99968 25.7481 10.7464 24.9999 11.6663 24.9999Z" fill="#FFAC22"/>
<path d="M40.2834 92.225C22.3984 88.1283 8.89844 72.765 6.9584 54.6C8.74336 53.8367 10 52.0617 10 50C10 47.2434 7.75664 45 5 45C2.24336 45 0 47.2434 0 50C0 52.2783 1.54004 54.1834 3.62832 54.785C5.65156 74.4217 20.2217 91.05 39.5383 95.475C39.6633 95.5033 39.7883 95.5166 39.9115 95.5166C40.6715 95.5166 41.3582 94.9949 41.5348 94.2217C41.74 93.325 41.1801 92.4301 40.2834 92.225ZM5.03496 51.66C5.02656 51.66 5.01992 51.6566 5.01328 51.6566C5.00332 51.6584 4.99668 51.6633 4.98652 51.665C4.07324 51.6566 3.3332 50.915 3.3332 50C3.3332 49.0816 4.07988 48.3334 4.9998 48.3334C5.91973 48.3334 6.66641 49.0816 6.66641 50C6.6666 50.9066 5.93672 51.64 5.03496 51.66Z" fill="#FFAC22"/>
<path d="M94.3802 57.5834C93.4651 57.3951 92.5952 57.9734 92.4069 58.875C91.4536 63.4584 89.7636 67.7566 87.4937 71.6666H79.2021C78.2804 71.6666 77.5355 72.4133 77.5355 73.3332C77.5355 74.2531 78.2804 74.9998 79.2021 74.9998H85.3587C78.5638 84.5648 68.0021 91.1965 56.0286 92.8766C59.687 89.9949 64.7587 85.1732 68.9687 78.2232C69.3021 78.2949 69.647 78.3332 70.0003 78.3332C72.7569 78.3332 75.0003 76.0899 75.0003 73.3332C75.0003 71.8031 74.2937 70.4465 73.2069 69.5281C75.4937 63.4365 76.6669 56.8781 76.6669 49.9998C76.6669 42.973 75.5585 36.3631 73.3985 30.3131C74.3786 29.3998 75.0003 28.108 75.0003 26.6664C75.0003 23.9098 72.7569 21.6664 70.0003 21.6664C69.7886 21.6664 69.5853 21.7031 69.3804 21.7297C64.6536 13.6764 58.6954 8.63633 54.8954 6.01309C54.9653 5.68633 55.0005 5.34649 55.0005 4.99981C55.0001 2.24336 52.7567 0 50.0001 0C47.7317 0 45.8335 1.52832 45.2233 3.60176C33.8784 4.75664 23.42 9.98008 15.6519 18.4283C15.0286 19.1051 15.0735 20.16 15.7501 20.7816C16.0718 21.0766 16.4751 21.2217 16.8784 21.2217C17.3267 21.2217 17.7767 21.0416 18.1052 20.6834C24.9585 13.2316 34.0651 8.48164 43.9868 7.10664C39.6817 10.49 33.6567 16.3367 29.2118 25H20.8335C19.9118 25 19.1669 25.7467 19.1669 26.6666C19.1669 27.5865 19.9118 28.3332 20.8335 28.3332H27.6519C25.2552 33.9449 23.6118 40.5916 23.3985 48.3332H15.0001C14.0784 48.3332 13.3335 49.0799 13.3335 49.9998C13.3335 50.9197 14.0784 51.6664 15.0001 51.6664H23.395C23.5917 59.4731 25.0983 66.1147 27.3399 71.6664H20.8333C19.9116 71.6664 19.1667 72.4131 19.1667 73.333C19.1667 74.2529 19.9116 74.9996 20.8333 74.9996H28.8249C33.6915 84.9264 40.6749 90.9363 45.1032 93.9897C45.0349 94.3164 44.9999 94.6529 44.9999 94.9996C44.9999 97.7563 47.2433 99.9996 49.9999 99.9996C52.2782 99.9996 54.1833 98.4596 54.7833 96.3731C74.8333 94.3147 91.5483 79.373 95.6716 59.5531C95.8601 58.6533 95.2802 57.7699 94.3802 57.5834ZM70.0001 75C69.0802 75 68.3335 74.2518 68.3335 73.3334C68.3335 72.415 69.0802 71.6668 70.0001 71.6668C70.92 71.6668 71.6667 72.415 71.6667 73.3334C71.6667 74.2518 70.92 75 70.0001 75ZM70.0001 25C70.92 25 71.6667 25.7482 71.6667 26.6666C71.6667 27.585 70.92 28.3332 70.0001 28.3332C69.0802 28.3332 68.3335 27.585 68.3335 26.6666C68.3335 25.7482 69.0802 25 70.0001 25ZM50.0001 3.3334C50.92 3.3334 51.6667 4.08164 51.6667 5C51.6667 5.91836 50.92 6.6666 50.0001 6.6666C49.0917 6.6666 48.3567 5.93496 48.3401 5.02988C48.3401 5.02481 48.3419 5.01992 48.3419 5.01328C48.3419 5.00488 48.3368 5 48.3353 4.9916C48.3401 4.07676 49.0835 3.3334 50.0001 3.3334ZM51.6667 50C51.6667 50.9184 50.92 51.6666 50.0001 51.6666C49.0802 51.6666 48.3335 50.9184 48.3335 50C48.3335 49.0816 49.0802 48.3334 50.0001 48.3334C50.92 48.3334 51.6667 49.0816 51.6667 50ZM31.845 73.5633C31.855 73.485 31.8917 73.415 31.8917 73.3332C31.8917 72.7516 31.5751 72.2633 31.1233 71.9666C28.495 66.0766 26.6667 58.8449 26.6667 50C26.6667 40.925 28.7784 33.4084 31.7583 27.3199C31.7601 27.3166 31.7601 27.3148 31.7616 27.3115C36.295 18.0482 42.83 12.0982 47.0083 8.98145C47.4083 9.2832 47.8517 9.52149 48.3333 9.69141V25H36.6667C35.745 25 35.0001 25.7467 35.0001 26.6666C35.0001 27.5865 35.745 28.3332 36.6667 28.3332H48.3333V45.3066C46.92 45.81 45.8101 46.9217 45.3083 48.3334H31.6667C30.745 48.3334 30.0001 49.0801 30.0001 50C30.0001 50.9199 30.745 51.6666 31.6667 51.6666H45.3083C45.8101 53.0783 46.92 54.1898 48.3333 54.6916V71.6666H36.6667C35.745 71.6666 35.0001 72.4133 35.0001 73.3332C35.0001 74.2531 35.745 74.9998 36.6667 74.9998H48.3333V90.3064C47.7866 90.5014 47.2917 90.7881 46.8499 91.1481C42.7284 88.2783 36.3335 82.7033 31.845 73.5633ZM50.0001 96.6666C49.0802 96.6666 48.3335 95.9184 48.3335 95C48.3335 94.0816 49.0802 93.3334 50.0001 93.3334C50.9085 93.3334 51.6435 94.065 51.6601 94.9701C51.6601 94.9752 51.6583 94.9801 51.6583 94.9867C51.6583 94.9951 51.6634 95 51.6649 95.01C51.6585 95.9234 50.9167 96.6666 50.0001 96.6666ZM52.9901 91.0166C52.5901 90.7166 52.1468 90.4783 51.6667 90.3066V54.6934C53.6017 54.0018 55.0001 52.1701 55.0001 50C55.0001 47.8299 53.6019 45.9982 51.6667 45.3066V9.69336C52.2116 9.49844 52.7067 9.21328 53.1468 8.85332C56.6567 11.3 62.0567 15.9217 66.3901 23.225C65.9101 23.7268 65.5452 24.3316 65.3085 25H55.8335C54.9118 25 54.1669 25.7467 54.1669 26.6666C54.1669 27.5865 54.9118 28.3332 55.8335 28.3332H65.3085C65.9985 30.2699 67.8302 31.6666 70.0001 31.6666C70.1134 31.6666 70.22 31.6398 70.3302 31.6332C72.1452 36.7883 73.1419 42.3898 73.2985 48.3332H60.0001C59.0784 48.3332 58.3335 49.0799 58.3335 49.9998C58.3335 50.9197 59.0784 51.6664 60.0001 51.6664H73.2968C73.1251 57.5281 72.0485 63.1248 70.0935 68.3432C70.0618 68.3414 70.0335 68.3332 70.0001 68.3332C67.8302 68.3332 65.9983 69.7299 65.3085 71.6666H55.8335C54.9118 71.6666 54.1669 72.4133 54.1669 73.3332C54.1669 74.2531 54.9118 74.9998 55.8335 74.9998H65.3085C65.5001 75.5398 65.7817 76.0332 66.1386 76.4697C61.7884 83.66 56.4435 88.4383 52.9901 91.0166Z" fill="#FFAC22"/>
</svg>
