<svg width="100" height="100" viewBox="0 0 100 100" fill="none" xmlns="http://www.w3.org/2000/svg">
<path d="M91.6666 0H8.3334C4.05 0 0 4.05 0 8.3334V21.6668C0 22.5867 0.74668 23.3334 1.6666 23.3334C2.58652 23.3334 3.3332 22.5867 3.3332 21.6668V8.3334C3.3332 5.90332 5.90312 3.3334 8.3332 3.3334H91.6666C94.0967 3.3334 96.6666 5.90332 96.6666 8.3334V63.3334C96.6666 64.2533 97.4133 65 98.3332 65C99.2531 65 99.9998 64.2533 99.9998 63.3334V8.3334C100 4.05 95.95 0 91.6666 0Z" fill="#FFAC22"/>
<path d="M83.3335 15C83.3335 12.2434 81.0901 10 78.3335 10C75.5768 10 73.3335 12.2434 73.3335 15C73.3335 17.7566 75.5768 20 78.3335 20C81.0901 20 83.3335 17.7566 83.3335 15ZM76.6667 15C76.6667 14.0816 77.4149 13.3334 78.3333 13.3334C79.2517 13.3334 79.9999 14.0816 79.9999 15C79.9999 15.9184 79.2517 16.6666 78.3333 16.6666C77.4151 16.6666 76.6667 15.9184 76.6667 15Z" fill="#FFAC22"/>
<path d="M70 15C70 12.2434 67.7566 10 65 10C62.2434 10 60 12.2434 60 15C60 17.7566 62.2434 20 65 20C67.7566 20 70 17.7566 70 15ZM63.3334 15C63.3334 14.0816 64.0816 13.3334 65 13.3334C65.9184 13.3334 66.6666 14.0816 66.6666 15C66.6666 15.9184 65.9184 16.6666 65 16.6666C64.0816 16.6666 63.3334 15.9184 63.3334 15Z" fill="#FFAC22"/>
<path d="M48.3336 16.6666C49.2535 16.6666 50.0002 15.9199 50.0002 15C50.0002 14.0801 49.2535 13.3334 48.3336 13.3334H18.3336C17.4137 13.3334 16.667 14.0801 16.667 15C16.667 15.9199 17.4137 16.6666 18.3336 16.6666H48.3336Z" fill="#FFAC22"/>
<path d="M1.6666 50.0001C2.58652 50.0001 3.3332 49.2534 3.3332 48.3335V30.0001H91.6666C92.5865 30.0001 93.3332 29.2534 93.3332 28.3335C93.3332 27.4136 92.5865 26.6669 91.6666 26.6669H1.6666C0.74668 26.6669 0 27.4136 0 28.3335V48.3335C0 49.2534 0.74668 50.0001 1.6666 50.0001Z" fill="#FFAC22"/>
<path d="M55 80.0001H8.3334C5.90332 80.0001 3.3334 77.4302 3.3334 75.0001V56.6667H65C65.9199 56.6667 66.6666 55.92 66.6666 55.0001C66.6666 54.0802 65.9199 53.3335 65 53.3335H1.6666C0.74668 53.3335 0 54.0802 0 55.0001V75.0001C0 79.2835 4.05 83.3335 8.3334 83.3335H55C55.9199 83.3335 56.6666 82.5868 56.6666 81.6669C56.6666 80.747 55.9199 80.0001 55 80.0001Z" fill="#FFAC22"/>
<path d="M18.3336 40C17.4137 40 16.667 40.7467 16.667 41.6666C16.667 42.5865 17.4137 43.3332 18.3336 43.3332H48.3336C49.2535 43.3332 50.0002 42.5865 50.0002 41.6666C50.0002 40.7467 49.2535 40 48.3336 40H18.3336Z" fill="#FFAC22"/>
<path d="M91.6666 66.6666H90V60C90 54.485 85.515 50 80 50C74.485 50 70 54.485 70 60V66.6666H68.3334C63.7385 66.6666 60 70.4049 60 75V91.6666C60 96.2615 63.7383 100 68.3334 100H91.6668C96.2617 100 100 96.2617 100 91.6666V75C100 70.4051 96.2617 66.6666 91.6666 66.6666ZM73.3334 60C73.3334 56.3232 76.3234 53.3334 80 53.3334C83.6768 53.3334 86.6666 56.3234 86.6666 60V66.6666H73.3332V60H73.3334ZM96.6666 91.6666C96.6666 94.4232 94.4232 96.6666 91.6666 96.6666H68.3334C65.5768 96.6666 63.3334 94.4232 63.3334 91.6666V75C63.3334 72.2434 65.5768 70 68.3334 70H91.6668C94.4234 70 96.6668 72.2434 96.6668 75V91.6666H96.6666Z" fill="#FFAC22"/>
<path d="M60 41.6666C60 44.4233 62.2434 46.6666 65 46.6666C67.7566 46.6666 70 44.4233 70 41.6666C70 38.91 67.7566 36.6666 65 36.6666C62.2434 36.6666 60 38.91 60 41.6666ZM66.6666 41.6666C66.6666 42.585 65.9184 43.3332 65 43.3332C64.0816 43.3332 63.3334 42.585 63.3334 41.6666C63.3334 40.7483 64.0816 40 65 40C65.9184 40 66.6666 40.7483 66.6666 41.6666Z" fill="#FFAC22"/>
<path d="M18.3336 66.6666C17.4137 66.6666 16.667 67.4133 16.667 68.3332C16.667 69.2531 17.4137 69.9998 18.3336 69.9998H48.3336C49.2535 69.9998 50.0002 69.2531 50.0002 68.3332C50.0002 67.4133 49.2535 66.6666 48.3336 66.6666H18.3336Z" fill="#FFAC22"/>
<path d="M73.3335 41.6666C73.3335 44.4233 75.5768 46.6666 78.3335 46.6666C81.0901 46.6666 83.3335 44.4233 83.3335 41.6666C83.3335 38.91 81.0901 36.6666 78.3335 36.6666C75.5768 36.6666 73.3335 38.91 73.3335 41.6666ZM80.0001 41.6666C80.0001 42.585 79.2518 43.3332 78.3335 43.3332C77.4151 43.3332 76.6669 42.585 76.6669 41.6666C76.6669 40.7483 77.4151 40 78.3335 40C79.2518 40 80.0001 40.7483 80.0001 41.6666Z" fill="#FFAC22"/>
<path d="M79.9999 78.3335C78.1616 78.3335 76.6665 79.8284 76.6665 81.6669C76.6665 82.8952 77.3415 83.9585 78.3331 84.5368V88.3335C78.3331 89.2534 79.0798 90.0001 79.9997 90.0001C80.9196 90.0001 81.6663 89.2534 81.6663 88.3335V84.5368C82.6579 83.9585 83.3329 82.8952 83.3329 81.6669C83.3333 79.8284 81.8382 78.3335 79.9999 78.3335Z" fill="#FFAC22"/>
</svg>
