<svg width="104" height="91" viewBox="0 0 104 91" fill="none" xmlns="http://www.w3.org/2000/svg">
<path fill-rule="evenodd" clip-rule="evenodd" d="M26.1455 0.637451H78.1218L103.777 45.2282L78.1218 90.0013L26.1455 89.4394L0 45.6903L26.1455 0.637451ZM60.3065 62.5007C63.3045 62.0395 65.7644 61.4629 67.6862 60.7711V41.3416H52.9844V47.2224H59.0958V55.9281C56.9434 56.5047 54.9255 56.793 53.0421 56.793C49.6597 56.793 47.0461 56.4278 45.2011 55.6975C43.3946 54.9672 42.4914 53.6412 42.4914 51.7194V36.6717C42.4914 32.9049 45.7392 31.0216 52.2349 31.0216C57.8082 31.0216 62.8817 31.5597 67.4556 32.6359V25.8327C62.6127 25.0255 57.5391 24.622 52.2349 24.622C50.4669 24.622 48.7757 24.718 47.1614 24.9102C45.5855 25.064 43.9328 25.4291 42.2031 26.0057C40.4735 26.5438 38.9937 27.2356 37.7638 28.0812C36.5338 28.9268 35.5153 30.0991 34.7081 31.5981C33.9009 33.0971 33.4974 34.8267 33.4974 36.787V52.3536C33.4974 54.1216 33.8433 55.6591 34.5351 56.9659C35.227 58.2727 36.1302 59.3105 37.2449 60.0792C38.398 60.848 39.8009 61.4822 41.4536 61.9818C43.1448 62.4431 44.8168 62.7505 46.4695 62.9043C48.1607 63.0965 50.0441 63.1926 52.1196 63.1926C54.618 63.1926 57.3469 62.9619 60.3065 62.5007Z" fill="url(#paint0_radial)"/>
<defs>
<radialGradient id="paint0_radial" cx="0" cy="0" r="1" gradientUnits="userSpaceOnUse" gradientTransform="translate(-22.121 20.3807) rotate(30.0537) scale(272.844 3883.51)">
<stop stop-color="#FFAC22"/>
<stop offset="0.270833" stop-color="#FFCA73"/>
<stop offset="0.5" stop-color="#FFAC22"/>
<stop offset="0.760417" stop-color="#FFD083"/>
<stop offset="1" stop-color="#FFAC22"/>
</radialGradient>
</defs>
</svg>
