<svg width="100" height="100" viewBox="0 0 100 100" fill="none" xmlns="http://www.w3.org/2000/svg">
<g clip-path="url(#clip0)">
<path d="M99.9145 97.8048C99.7663 97.3614 96.1296 86.8965 82.0713 83.3817C81.1813 83.1584 80.2731 83.7016 80.0497 84.595C79.8264 85.4883 80.3696 86.3932 81.2629 86.6166C93.4761 89.6699 96.6261 98.4915 96.7528 98.8598C96.9844 99.5583 97.6344 99.9999 98.3329 99.9999C98.5079 99.9999 98.6862 99.9731 98.8612 99.9132C99.7344 99.6231 100.206 98.678 99.9145 97.8048Z" fill="#FFAC22"/>
<path d="M14.9998 76.6666H24.9997C25.9196 76.6666 26.6663 75.9199 26.6663 75C26.6663 74.0783 25.9196 73.3334 24.9997 73.3334H14.9998C13.5698 73.3334 12.6315 72.9901 12.2131 72.3135C11.2415 70.7469 12.4297 67.2102 13.0965 65.8569C13.3098 65.5003 18.3332 56.972 18.3332 43.3339V35.0006C18.3332 8.8276 35.5547 3.33429 49.9995 3.33429C54.9211 3.33429 65.1626 3.33429 66.7294 5.50595C66.7927 5.59599 66.8894 5.72919 66.7529 6.13934C66.5679 6.69442 66.6863 7.30437 67.0661 7.74929C67.4478 8.19596 68.0294 8.40924 68.6077 8.311C70.7261 7.96101 72.5926 8.49264 74.3061 9.94263C78.7777 13.7293 81.666 23.5657 81.666 35.0008V43.3341C81.666 57.6957 86.1277 64.7489 86.8943 65.8538C87.6259 67.3803 88.7343 70.7854 87.7859 72.3137C87.3675 72.9903 86.4292 73.3336 84.9992 73.3336H74.9993C74.0793 73.3336 73.3327 74.0785 73.3327 75.0002C73.3327 75.9201 74.0793 76.6668 74.9993 76.6668H84.9992C88.3191 76.6668 89.8892 75.2518 90.6224 74.065C92.829 70.4952 90.1374 64.8817 89.8241 64.2534C89.7792 64.1651 89.7259 64.0784 89.6657 64.0001C89.619 63.9368 84.9992 57.6119 84.9992 43.3337V35.0004C84.9992 25.1538 82.7576 12.7322 76.461 7.3989C74.5592 5.7872 72.3727 4.93389 70.0493 4.879C69.9159 4.33741 69.6761 3.89562 69.4327 3.55734C67.0628 0.267331 59.2295 0.000732422 49.9995 0.000732422C27.4298 0.000732422 14.9998 12.4307 14.9998 35.0004V43.3337C14.9998 55.992 10.2848 64.0651 10.1766 64.2534C9.8616 64.8817 7.17002 70.495 9.37664 74.065C10.1098 75.2516 11.6815 76.6666 14.9998 76.6666Z" fill="#FFAC22"/>
<path d="M17.9299 83.3815C3.87011 86.8965 0.233427 97.3615 0.086749 97.8046C-0.20485 98.6779 0.266825 99.623 1.14006 99.913C1.31506 99.973 1.49338 99.9997 1.66681 99.9997C2.36524 99.9997 3.01524 99.5581 3.24844 98.8597C3.27851 98.7681 6.43512 89.6914 18.7383 86.6164C19.6317 86.3932 20.1733 85.4881 19.95 84.5948C19.7282 83.7014 18.8233 83.1581 17.9299 83.3815Z" fill="#FFAC22"/>
<path d="M76.5977 84.593C76.5676 84.4731 76.5161 84.3662 76.461 84.2547C76.4309 84.1963 76.4243 84.1315 76.386 84.0746C76.3694 84.0479 76.3411 84.0364 76.3227 84.0114C76.2528 83.9164 76.1643 83.8414 76.0745 83.7631C75.9928 83.6932 75.9178 83.6215 75.8262 83.5698C75.7962 83.5514 75.778 83.5231 75.7462 83.508L69.0796 80.1747C68.5462 79.9096 67.908 79.9464 67.4113 80.2798L57.4096 86.9463C56.9446 87.2547 56.6663 87.7746 56.6663 88.333V94.2429C55.6747 95.0363 53.2413 96.6661 49.9997 96.6661C46.7914 96.6661 44.3332 95.0279 43.3332 94.2378V88.3328C43.3332 87.7744 43.0549 87.2545 42.5916 86.9461L32.5917 80.2796C32.0935 79.9462 31.455 79.9063 30.9218 80.1745L24.2553 83.5079C24.2252 83.5229 24.2086 83.5512 24.1803 83.5663C24.082 83.6213 24.0037 83.6963 23.917 83.7713C23.832 83.8481 23.7486 83.918 23.682 84.0063C23.6621 84.033 23.632 84.0463 23.6137 84.0746C23.5736 84.1346 23.567 84.203 23.5354 84.2662C23.4836 84.3713 23.4336 84.4729 23.4037 84.5862C23.3787 84.6895 23.3703 84.7895 23.3637 84.8946C23.357 85.0012 23.352 85.1045 23.3652 85.2129C23.3818 85.3262 23.417 85.4313 23.4553 85.5395C23.4785 85.6078 23.477 85.6778 23.5104 85.7446C23.5254 85.7746 23.5537 85.7928 23.5703 85.8213C23.6254 85.9162 23.6971 85.9946 23.7703 86.0779C23.8471 86.1662 23.9186 86.2514 24.0104 86.3195C24.0371 86.3379 24.0486 86.3678 24.077 86.3861L34.0769 93.0527C34.3603 93.241 34.6819 93.3328 34.9985 93.3328C35.5386 93.3328 36.0651 93.0711 36.3868 92.5894C36.8967 91.8244 36.6901 90.7894 35.9251 90.2795L28.3152 85.2063L31.5468 83.5879L40 89.2246V94.9996C40 95.4412 40.1768 95.8646 40.4883 96.1779C40.645 96.3329 44.375 99.9995 49.9999 99.9995C55.6266 99.9995 59.3565 96.3329 59.5116 96.1779C59.8248 95.8646 59.9998 95.4412 59.9998 94.9996V89.2246L68.4548 83.5879L71.6864 85.2045L64.0766 90.2795C63.31 90.7894 63.1033 91.8244 63.6133 92.5894C63.935 93.0711 64.4633 93.3328 65.0015 93.3328C65.3199 93.3328 65.6416 93.2412 65.9248 93.0527L75.9247 86.3861C75.9514 86.3678 75.9647 86.3395 75.9897 86.3211C76.0831 86.2512 76.1581 86.1627 76.2364 86.0729C76.3063 85.9912 76.3764 85.9162 76.4298 85.8262C76.4464 85.7961 76.4764 85.7762 76.493 85.7446C76.528 85.6746 76.5264 85.5996 76.5514 85.528C76.5864 85.4262 76.6198 85.3262 76.6348 85.2196C76.6499 85.1045 76.6448 84.9963 76.6366 84.8813C76.6294 84.783 76.6227 84.6897 76.5977 84.593Z" fill="#FFAC22"/>
<path d="M69.8744 22.3338C69.3227 21.5989 68.2811 21.4471 67.5411 22.0004C54.8096 31.5486 25.5032 31.6669 25.2081 31.6669C24.2882 31.6669 23.5415 32.4118 23.5415 33.3335V40.0001C23.5415 47.1533 28.7915 60.8899 30.3848 64.0781C32.4131 68.1347 41.288 78.3331 50.2078 78.3331C57.5845 78.3331 64.9161 71.3681 68.386 66.6615C72.9559 66.6314 76.666 62.9098 76.666 58.3333C76.666 56.1433 75.8226 54.0984 74.3494 52.5667C75.7295 48.1017 76.8744 43.3367 76.8744 40.0003C76.8744 39.4768 76.6277 38.9819 76.2093 38.6669C74.5394 37.4102 70.2076 33.4036 70.2076 30.0003C70.2076 29.0787 69.461 28.3338 68.5411 28.3338C67.6211 28.3338 66.8745 29.0787 66.8745 30.0003C66.8745 34.8187 71.6311 39.227 73.5193 40.787C73.3643 43.5987 72.441 47.4318 71.3127 51.1435C70.9778 51.2652 70.6694 51.4703 70.466 51.7968C70.0961 52.3835 70.1393 53.1101 70.516 53.645C69.2077 57.5884 67.8061 61.0766 67.051 62.5866C66.9426 62.8016 66.7944 63.0582 66.6227 63.3332H59.6927C59.0027 61.3965 57.1695 59.9999 54.9994 59.9999C52.2428 59.9999 49.9994 62.2414 49.9994 64.9998C49.9994 67.7564 52.2428 69.9998 54.9994 69.9998C57.1693 69.9998 59.0027 68.6015 59.6927 66.6664H64.086C60.7743 70.4464 55.3795 74.9997 50.2078 74.9997C42.7712 74.9997 34.8613 65.5799 33.3664 62.5866C31.6981 59.2516 26.8749 46.3033 26.8749 40.0001V34.9751C33.4848 34.8167 57.6013 33.6218 69.541 24.6652C70.2778 24.1139 70.4278 23.0688 69.8744 22.3338ZM73.0027 56.6419C73.1961 57.1802 73.3328 57.7401 73.3328 58.3335C73.3328 60.2518 72.2346 61.9018 70.6446 62.7401C71.2811 61.2717 72.1311 59.1217 73.0027 56.6419ZM54.9996 66.6668C54.0812 66.6668 53.333 65.9186 53.333 65.0002C53.333 64.0803 54.0812 63.3336 54.9996 63.3336C55.9195 63.3336 56.6662 64.0803 56.6662 65.0002C56.6662 65.9184 55.9197 66.6668 54.9996 66.6668Z" fill="#FFAC22"/>
</g>
<defs>
<clipPath id="clip0">
<rect width="100" height="100" fill="white"/>
</clipPath>
</defs>
</svg>
