<svg width="100" height="100" viewBox="0 0 100 100" fill="none" xmlns="http://www.w3.org/2000/svg">
<g clip-path="url(#clip0)">
<path d="M66.6667 76.6666C66.6667 67.4766 59.1899 60 50.0001 60C40.8103 60 33.3335 67.4768 33.3335 76.6666C33.3335 85.8566 40.8103 93.3332 50.0001 93.3332C59.1899 93.3332 66.6667 85.8566 66.6667 76.6666ZM36.6667 76.6666C36.6667 69.3148 42.6483 63.3332 50.0001 63.3332C57.3519 63.3332 63.3335 69.3148 63.3335 76.6666C63.3335 84.0183 57.3519 90 50.0001 90C42.6483 90 36.6667 84.0183 36.6667 76.6666Z" fill="#FFAC22"/>
<path d="M70 96.6667H8.3334C5.4834 96.6667 3.3334 94.5167 3.3334 91.6667V25.0001C3.3334 24.0802 2.58672 23.3335 1.6668 23.3335C0.746875 23.3335 0 24.0802 0 25.0001V91.6667C0 96.3402 3.65996 100 8.3334 100H70C70.9199 100 71.6666 99.2534 71.6666 98.3335C71.6666 97.4136 70.9199 96.6667 70 96.6667Z" fill="#FFAC22"/>
<path d="M91.6666 0H8.3334C3.73828 0 0 3.73828 0 8.3334V18.3334C0 19.2533 0.74668 20 1.6666 20H91.6666C92.5865 20 93.3332 19.2533 93.3332 18.3334C93.3332 17.4135 92.5865 16.6668 91.6666 16.6668H3.3334V8.3334C3.3334 5.57676 5.57676 3.3334 8.3334 3.3334H91.6668C94.4234 3.3334 96.6668 5.57676 96.6668 8.3334V91.6668C96.6668 94.5168 94.5168 96.6668 91.6668 96.6668H79.1668L75.4469 91.7051C76.9902 89.6301 78.0902 87.1834 78.7234 85.1885C81.0352 84.6918 83.1734 84.2334 83.6701 84.1318C85.5484 83.7451 86.6684 82.2002 86.6684 79.9984C86.6666 78.7484 86.6666 74.5484 86.6684 73.3301C86.665 71.1467 85.55 69.6033 83.685 69.2018L78.735 68.1418C78.14 66.1334 77.3383 64.2002 76.3449 62.3686C77.6266 60.3869 78.81 58.5586 79.0883 58.1369C80.1416 56.5352 79.8416 54.652 78.285 53.0953L73.5699 48.3803C72.0232 46.8369 70.1449 46.5336 68.5383 47.5703L64.2934 50.3186C62.4617 49.3252 60.5268 48.5236 58.5184 47.9303C58.0234 45.6252 57.5684 43.4936 57.465 42.9969C57.0801 41.1201 55.5334 40.0002 53.3334 40.0002H46.6668C44.4818 40.0002 42.9385 41.1152 42.5367 42.9836L41.4768 47.9318C39.4684 48.5268 37.5334 49.3268 35.7018 50.3219C33.7217 49.0418 31.8934 47.8586 31.4701 47.5785C29.8719 46.5285 27.9867 46.8268 26.4301 48.3836L21.715 53.0969C20.1717 54.6402 19.8684 56.5201 20.9051 58.1269L23.6533 62.3719C22.6584 64.202 21.8584 66.1385 21.2633 68.1469C18.9582 68.6418 16.825 69.0986 16.3283 69.202C14.4533 69.5902 13.3334 71.1354 13.3334 73.3354V80C13.3334 82.1834 14.4484 83.7268 16.3168 84.1301L21.2768 85.1918C22.1668 88.0117 23.7385 90.9051 25.4285 92.7818C26.0436 93.4668 27.0969 93.5201 27.7818 92.9051C28.4668 92.29 28.5219 91.2367 27.9051 90.5518C26.1334 88.5818 24.775 85.5168 24.215 83.3535C24.0566 82.7436 23.5666 82.2734 22.95 82.1418L17.0166 80.8701C16.8949 80.8434 16.6666 80.7951 16.6666 80.0002V73.3336C16.6666 72.5353 16.9115 72.4836 17.0016 72.4652C17.5699 72.3486 20.2799 71.7686 22.95 71.1936C23.5666 71.0619 24.0566 70.5918 24.2133 69.9818C24.835 67.5768 25.785 65.2818 27.0365 63.1602C27.3564 62.6168 27.3432 61.9402 26.9998 61.4102L23.7049 56.3168C23.6365 56.2117 23.51 56.015 24.0715 55.4535L28.7865 50.7385C29.3482 50.1768 29.5582 50.3117 29.6383 50.3635C30.1217 50.6818 32.4482 52.1867 34.74 53.6686C35.2701 54.0102 35.95 54.027 36.4918 53.7053C38.6135 52.4535 40.9084 51.5035 43.3117 50.882C43.9234 50.7236 44.3918 50.2338 44.525 49.617L45.7967 43.682C45.8234 43.5603 45.8717 43.3338 46.6666 43.3338H53.3332C54.1314 43.3338 54.1814 43.5771 54.2016 43.6688C54.3166 44.2371 54.8982 46.9471 55.4715 49.617C55.6031 50.2336 56.0732 50.7236 56.6832 50.8803C59.0883 51.5019 61.3832 52.452 63.5049 53.702C64.0482 54.0236 64.7266 54.0086 65.2566 53.6652L70.3467 50.3703C70.4518 50.3037 70.6518 50.1736 71.2133 50.7369L75.9299 55.452C76.4932 56.017 76.3549 56.2252 76.3031 56.3053C75.9848 56.7887 74.4799 59.1152 72.9965 61.407C72.6549 61.9371 72.6398 62.6137 72.9615 63.1588C74.2133 65.2787 75.1633 67.5738 75.7848 69.9771C75.9432 70.5889 76.4314 71.0572 77.048 71.1904L82.983 72.4621C83.1047 72.4887 83.333 72.5371 83.3348 73.3305C83.333 74.5455 83.333 78.7521 83.3348 80.0004C83.3348 80.7971 83.0898 80.8486 82.9965 80.867C82.4299 80.9836 79.7199 81.5652 77.0498 82.1387C76.4332 82.2703 75.9432 82.7404 75.7865 83.3504C75.1115 85.957 73.6598 88.7871 72.0865 90.5604C71.5615 91.1537 71.5248 92.0336 71.9998 92.667L76.9998 99.3336C77.3148 99.7535 77.8082 100 78.3332 100H91.6666C96.34 100 100 96.34 100 91.6666V8.3334C100 3.73828 96.2617 0 91.6666 0Z" fill="#FFAC22"/>
<path d="M56.6667 76.6666C56.6667 72.9898 53.6767 70 50.0001 70C46.3233 70 43.3335 72.99 43.3335 76.6666C43.3335 80.3434 46.3235 83.3332 50.0001 83.3332C53.6769 83.3334 56.6667 80.3434 56.6667 76.6666ZM46.6667 76.6666C46.6667 74.8283 48.1616 73.3332 50.0001 73.3332C51.8384 73.3332 53.3335 74.8281 53.3335 76.6666C53.3335 78.5049 51.8386 80 50.0001 80C48.1618 80 46.6667 78.5051 46.6667 76.6666Z" fill="#FFAC22"/>
<path d="M25 30C25.9199 30 26.6666 29.2533 26.6666 28.3334C26.6666 27.4134 25.9199 26.6667 25 26.6667H11.6666C10.7467 26.6667 10 27.4134 10 28.3334C10 29.2533 10.7467 30 11.6666 30H25Z" fill="#FFAC22"/>
<path d="M61.6662 30C62.5861 30 63.3328 29.2533 63.3328 28.3334C63.3328 27.4134 62.5861 26.6667 61.6662 26.6667H54.9996C54.0797 26.6667 53.333 27.4134 53.333 28.3334C53.333 29.2533 54.0797 30 54.9996 30H61.6662Z" fill="#FFAC22"/>
<path d="M20 9.9999C20 11.8382 21.4949 13.3333 23.3334 13.3333C25.1719 13.3333 26.6668 11.8384 26.6668 9.9999C26.6668 8.16162 25.1719 6.6665 23.3334 6.6665C21.4949 6.6665 20 8.16162 20 9.9999Z" fill="#FFAC22"/>
<path d="M10 9.9999C10 11.8382 11.4949 13.3333 13.3334 13.3333C15.1717 13.3333 16.6668 11.8384 16.6668 9.9999C16.6668 8.16162 15.1719 6.6665 13.3334 6.6665C11.4949 6.6665 10 8.16162 10 9.9999Z" fill="#FFAC22"/>
<path d="M30 9.9999C30 11.8382 31.4949 13.3333 33.3334 13.3333C35.1717 13.3333 36.6668 11.8384 36.6668 9.9999C36.6668 8.16162 35.1719 6.6665 33.3334 6.6665C31.4949 6.6665 30 8.16162 30 9.9999Z" fill="#FFAC22"/>
<path d="M88.3337 30C89.2536 30 90.0003 29.2533 90.0003 28.3334C90.0003 27.4134 89.2536 26.6667 88.3337 26.6667H81.6671C80.7472 26.6667 80.0005 27.4134 80.0005 28.3334C80.0005 29.2533 80.7472 30 81.6671 30H88.3337Z" fill="#FFAC22"/>
<path d="M75.0002 30C75.9201 30 76.6668 29.2533 76.6668 28.3334C76.6668 27.4134 75.9201 26.6667 75.0002 26.6667H68.3336C67.4137 26.6667 66.667 27.4134 66.667 28.3334C66.667 29.2533 67.4137 30 68.3336 30H75.0002Z" fill="#FFAC22"/>
</g>
<defs>
<clipPath id="clip0">
<rect width="100" height="100" fill="white"/>
</clipPath>
</defs>
</svg>
